<svg version="1.1" viewBox="0 0 3840 2160" xmlns="http://www.w3.org/2000/svg">
    <defs>
        <linearGradient id="gradient" x1="0" x2="1" y1="0" y2="0">
            <stop stop-color="#0085B1" offset="0"/>
            <stop stop-color="#00A356" offset="1"/>
        </linearGradient>
    </defs>
    <rect width="3840" height="2160"/>
    <path fill="url(#gradient)" d="m2424 180.3c-20.7 0-37.5 16.8-37.5 37.5 0 18.6 13.56 33.84 31.26 36.84v31.56h-29.22v211.7h71.4v-211.7h-29.76v-31.56c17.7-3 31.26-18.3 31.26-36.84 0-20.7-16.8-37.5-37.44-37.5zm-.06 11.88c14.16 0 25.62 11.46 25.62 25.62 0 14.1-11.46 25.56-25.62 25.56s-25.62-11.46-25.62-25.56 11.46-25.62 25.62-25.62zm461.2 88.56c-10.93-.2925-23.09-.194-36.09.586-22.98 1.38-43.62 4.679-61.86 14.04s-32.46 22.5-42.66 39.36-15.3 35.94-15.3 57.36c0 21.36 5.101 40.5 15.3 57.3 10.2 16.86 24.24 30 42.18 39.36 17.94 9.42 38.22 14.04 60.84 14.04 15.9-.06 32.16-2.339 48.72-6.96s31.08-11.28 43.56-19.98v-89.58h-62.04v53.58c-8.28 3.42-16.92 5.16-26.04 5.16-15.3 0-27.6-4.799-36.78-14.52-9.18-9.66-13.74-22.5-13.74-38.4 0-16.32 4.62-29.22 13.92-38.76 9.3-9.48 21.78-14.22 37.5-14.22 18.36 0 86.94.9612 86.94.9612v-54.06s-21.67-4.388-54.45-5.266zm-849.6.5254c-21.18 0-39.18 3.119-54 9.36-14.82 6.3-25.98 14.82-33.42 25.74-7.44 10.86-11.22 22.98-11.22 36.3 0 15.3 4.019 27.48 12.12 36.48 8.1 8.94 17.58 15.42 28.44 19.32 10.86 3.96 24.48 7.62 40.86 11.1 12.72 2.64 21.84 4.98 27.36 7.26 5.52 2.22 8.34 5.579 8.34 9.96 0 3.84-2.099 6.72-6.36 8.64s-11.34 2.039-21.18 2.879c-23.04 1.98-69.72-2.879-82.02-4.559v54c15.54 3.3 63.9 4.981 81.42 4.981 21.18 0 39.18-3.121 54-9.54 14.82-6.36 25.98-14.94 33.42-25.68 7.44-10.8 11.22-22.86 11.22-36.12 0-15.3-4.08-27.42-12.24-36.3-8.16-8.88-17.82-15.3-28.92-19.2-11.1-3.96-24.72-7.44-40.86-10.44-12.48-2.4-21.48-4.68-26.94-6.84-5.4-2.1-8.16-5.279-8.16-9.54 0-8.88 9.18-13.32 27.54-13.32 18.54 0 47.94-.9612 81.48 3.959v-54.06s-66.36-4.381-80.88-4.381zm-1141 4.92v211.7h71.4v-53.22h19.38l36 53.22h76.2l-44.46-65.34c12.9-6.66 22.8-15.6 29.64-26.94 6.84-11.28 10.26-24.48 10.26-39.6 0-16.14-3.961-30.24-11.82-42.36-7.859-12.12-19.08-21.36-33.6-27.84-14.52-6.42-31.56-9.66-51.12-9.66zm225.4 0v211.7h176v-53.82h-105.8v-27.84h89.58v-51.48h-89.58v-24.78h101.9v-53.82zm203.6 0v211.7h71.4v-100.9h38.16c2.64 11.28 12.36 19.86 24.42 19.86 14.16 0 25.62-11.46 25.62-25.62 0-14.1-11.46-25.56-25.62-25.56-11.76 0-21.24 8.1-24.24 18.96h-38.34v-44.7h100.7v-53.82zm194.8 0v211.7h71.4v-53.22h19.38l36 53.22h76.2l-44.46-65.34c12.9-6.66 22.8-15.6 29.64-26.94 6.84-11.28 10.26-24.48 10.26-39.6 0-16.14-3.9-30.24-11.76-42.36-7.86-12.12-19.08-21.36-33.6-27.84-14.52-6.42-31.56-9.66-51.12-9.66zm225.4 0v211.7h176.1v-53.82h-105.9v-27.84h89.52v-51.48h-89.52v-24.78h101.9v-53.82zm402.4 0v211.7h71.4v-78.06h65.94v78.06h71.4v-211.7h-71.4v75h-65.94v-75zm349.1 0v211.7h69.6v-96.18l80.46 96.18h58.68v-211.7h-69.6v96.18l-80.46-96.18zm-1529 55.02h26.04c9.66 0 16.92 2.161 21.78 6.48 4.86 4.38 7.26 10.44 7.26 18.36 0 7.86-2.4 13.98-7.26 18.3-4.8 4.38-12.12 6.48-21.78 6.48h-26.04zm624 0h26.04c9.66 0 16.92 2.161 21.78 6.48 4.86 4.38 7.26 10.44 7.26 18.36 0 7.86-2.4 13.98-7.26 18.3-4.86 4.38-12.12 6.48-21.78 6.48h-26.04zm-412.4 364.6c-31.62 0-57.3 25.68-57.3 57.36 0 6.06.3594 72.48.3594 72.48h-223.7v361.1h223.4v164c0 31.68 25.68 57.36 57.3 57.36s57.3-25.68 57.3-57.36v-8.1h145.6c3 17.7 18.3 31.26 36.84 31.26 18.6 0 33.84-13.56 36.84-31.26h176.3v5.641c0 33 26.76 59.76 59.76 59.76s59.82-26.76 59.82-59.76c0-1.8-.361-3.481-.541-5.221 0-.12.061-.2399.061-.4199h365.6v14.22c0 28.32 22.92 51.24 51.24 51.24 28.32 0 51.24-22.92 51.24-51.24 0-2.46.3614-19.02.3614-26.22v-199.2h219.7v65.52h176.8v153.8c0 31.68 25.38 57.36 56.7 57.36 31.32 0 56.7-25.68 56.7-57.36 0-4.14.1797-48.9.1797-74.1v-26.94c0-95.1-24.72-127.4-68.16-138.9-13.56-3.6-45.48-2.459-45.48-2.459v-96.48h253.9c24.96 14.22 41.46 31.2 54.42 50.88 12.54 19.02 20.64 42.24 25.98 68.22v-246.2c-3.78 18.42-8.58 35.28-15.06 49.5-13.38 29.34-35.1 51.12-65.22 65.28h-254v-89.1c39.42 0 66.9-8.76 86.64-26.34 19.68-17.52 26.82-46.02 26.82-84.54v-46.38c0-31.68-25.38-57.36-56.7-57.36s-56.7 25.68-56.7 57.36c0 6.54.3001 42.66-.4199 49.32v33.42h-176.3v106.7h-219.7v-163.2c0-7.44-.3593-27.66-.3593-32.28 0-28.32-22.92-51.24-51.24-51.24s-51.24 22.98-51.24 51.24c0 4.44.4208 18.06.3008 21.36h-225.5c1.68-21.06 4.261-41.04 7.8-59.76h-267.4v59.76h-176.9c-2.94-17.76-18.24-31.38-36.84-31.38s-33.9 13.62-36.84 31.38h-145v-15.3c0-31.68-25.68-57.36-57.3-57.36zm239.1 53.22c14.22-.06 25.62 11.4 25.62 25.56 0 14.1-11.46 25.62-25.62 25.62-14.1 0-25.62-11.46-25.62-25.62 0-14.1 11.46-25.56 25.62-25.56zm-181.9 31.74h145.1c3 17.7 18.3 31.2 36.84 31.2s33.84-13.5 36.84-31.2h176.9v83.34c11.1-14.58 26.1-26.52 45-36 18.84-9.42 40.26-14.1 64.26-14.1 63.18 0 112.4 15.54 148.2 45.96v-35.7c0-15.12.5995-29.46 1.439-43.5h226v217.8l-163.3 111.4c-6.72-6.42-15.78-10.44-25.8-10.44-18.66 0-34.02 13.74-36.9 31.56h-139.4s.1796-63.6.1796-74.4c0-32.94-26.76-59.7-59.7-59.7s-59.7 26.76-59.7 59.7c0 .66-.2403 24.06-.2403 32.4h-185.3c5.16 14.16 9.06 29.46 11.46 46.26 2.7 18.54 4.501 41.04 5.641 66.78h168.2v93.78c0 12.36.061 34.32.061 34.32h-176.3c-2.94-17.76-18.24-31.32-36.84-31.32s-33.9 13.56-36.84 31.32h-145.7c-.06-.12 0-92.1 0-92.1 0-93.18-22.26-125.1-82.32-138-10.26-2.22-32.34-2.039-32.34-2.039v-94.98h252.4c23.7 13.92 41.88 30.36 54.42 49.32.66.96.9612 2.28 1.621 3.24v-115.7c-13.98 22.14-30.9 39.18-56.58 50.76h-251.9v-90.54c39.36 0 65.46-8.82 85.14-26.4 19.68-17.52 29.76-45.6 29.58-84.12-.06-8.52-.1797-8.82-.1797-8.82zm880.8 232.9v316.7h-365.3v-186.8h139.4c3.06 17.58 18.3 31.02 36.84 31.02 20.7 0 37.44-16.8 37.44-37.44 0-6.24-1.62-11.94-4.32-17.1zm-189.1 97.8c14.1 0 25.62 11.46 25.62 25.62 0 14.1-11.46 25.56-25.62 25.56s-25.62-11.46-25.62-25.56c0-14.16 11.46-25.62 25.62-25.62zm-508.9 199.4c14.16 0 25.62 11.46 25.62 25.62 0 14.1-11.46 25.56-25.62 25.56-14.1.06-25.62-11.4-25.62-25.56 0-14.1 11.46-25.62 25.62-25.62zm1020 209.5c-20.7 0-37.5 16.74-37.5 37.44.06 18.54 13.62 33.84 31.32 36.84v31.68h-28.32v212.5h71.34v-212.5h-30.66v-31.68c17.76-3 31.26-18.3 31.26-36.84 0-20.7-16.8-37.44-37.44-37.44zm.061 11.82c14.1 0 25.62 11.46 25.62 25.62 0 14.1-11.46 25.56-25.62 25.56s-25.62-11.46-25.62-25.56c0-14.16 11.46-25.62 25.62-25.62zm-1515 89.28c-14.1 0-25.62 11.46-25.62 25.56s11.46 25.62 25.62 25.62c11.76 0 21.24-8.16 24.24-18.96h61.14v152.2h-61.08c-2.82-11.04-12.42-19.38-24.36-19.38-14.1 0-25.62 11.46-25.62 25.62s11.46 25.56 25.62 25.56c11.94 0 21.54-8.34 24.36-19.44h61.08v20.52h64.98v-93.48l45.96 74.34h31.44l45.96-77.7.6018 96.84h64.98l-.5996-212.5h-58.68l-67.14 113.2-68.88-113.1h-58.68v15h-60.9c-2.64-11.28-12.3-19.86-24.42-19.86zm1058 0c-22.74 0-43.2 4.739-61.38 14.28-18.18 9.48-32.4 22.74-42.66 39.6-10.26 16.92-15.42 35.94-15.42 57.24 0 21.24 5.16 40.32 15.42 57.24 10.26 16.86 24.48 30.06 42.66 39.6 18.12 9.48 38.58 14.28 61.38 14.28 22.74 0 43.2-4.741 61.38-14.28 18.18-9.539 32.34-22.74 42.66-39.6 10.26-16.92 15.42-35.94 15.42-57.24 0-21.24-5.162-40.32-15.42-57.24-10.26-16.86-24.48-30.12-42.66-39.6-18.12-9.54-38.58-14.28-61.38-14.28zm882.6 0c-21.18 0-39.12 3.12-53.94 9.42-14.82 6.24-25.98 14.88-33.42 25.8s-11.16 23.04-11.16 36.42c0 15.36 4.021 27.54 12.12 36.54 8.04 9 17.52 15.48 28.38 19.44 10.86 3.96 24.48 7.62 40.8 11.1 12.72 2.64 21.84 5.102 27.36 7.26 5.58 2.22 8.34 5.579 8.34 10.02 0 3.84-2.099 6.72-6.36 8.64s-11.34 2.041-21.18 2.881c-23.04 1.98-69.72-2.941-81.96-4.561v54.18c15.54 3.3 63.84 4.981 81.36 4.981 21.18 0 39.18-3.179 53.94-9.54 14.82-6.36 25.98-15 33.42-25.8s11.16-22.92 11.16-36.24c0-15.36-4.08-27.54-12.24-36.42s-17.82-15.3-28.86-19.26c-11.1-3.96-24.72-7.44-40.8-10.5-12.48-2.4-21.48-4.68-26.94-6.84-5.46-2.1-8.16-5.339-8.16-9.54 0-8.88 9.18-13.32 27.54-13.32 18.54 0 47.88-.9612 81.42 3.959v-54.24s-66.3-4.379-80.82-4.379zm-1537 4.859v212.5h176v-54.06h-105.8v-45.42h40.32c2.7 11.28 12.36 19.86 24.42 19.86 12.12 0 21.78-8.58 24.42-19.86h74.82v99.48h64.98v-93.48l45.96 74.34h31.44l45.96-77.7.5996 96.84h64.98l-.6018-212.5h-58.68l-67.14 113.2-68.94-113.2h-58.68v100.6h-75c-3-10.8-12.48-18.9-24.24-18.9s-21.24 8.1-24.24 18.9h-40.5v-46.56h101.9v-54h-172zm820.2 0v212.5h71.34v-53.46h19.32l36 53.46h76.14l-44.46-65.58c12.9-6.66 22.8-15.66 29.64-27s10.26-24.54 10.26-39.78c0-16.14-3.96-30.3-11.82-42.48-7.86-12.12-19.02-21.42-33.54-27.9-14.46-6.48-31.5-9.72-51-9.72zm392.5 0v212.5h175.9v-54.06h-105.8v-27.9h89.46v-51.6h-89.46v-24.9h101.9v-54zm-558.4 53.16c8.88 0 16.86 2.159 24 6.54 7.14 4.32 12.84 10.5 17.1 18.48s6.36 17.34 6.36 28.08-2.101 20.1-6.36 28.08-9.96 14.16-17.1 18.48c-7.14 4.38-15.18 6.54-24 6.54-8.88 0-16.86-2.159-24-6.54-7.14-4.32-12.84-10.5-17.1-18.48-4.26-8.04-6.36-17.4-6.36-28.08 0-10.74 2.099-20.1 6.36-28.08s9.96-14.16 17.1-18.48c7.14-4.38 15.18-6.54 24-6.54zm263.2 2.039c9.66 0 16.92 2.161 21.78 6.54 4.8 4.32 7.26 10.44 7.26 18.36s-2.4 14.04-7.26 18.42-12.12 6.54-21.78 6.54h-25.98v-49.8h25.98z"/>
</svg>
