<svg version="1.1" viewBox="0 0 3840 2160" xmlns="http://www.w3.org/2000/svg">
  <rect fill="#000532" width="3840" height="2160"/>
  <path fill="#56c5d0" d="m1715 307.4-139.3 370.7h19.18l139.3-370.7zm1278 0-139.3 370.7h19.17l139.3-370.7zm-2105 16.62c-61.36 0-104.8 55.4-104.8 144.5 0 89.48 43.46 146.6 104.8 146.6 61.36 0 104.8-57.1 104.8-146.6 0-89.06-43.46-144.5-104.8-144.5zm0 17.9c50.28 0 84.37 48.58 84.37 126.6 0 78.4-34.09 128.7-84.37 128.7-50.28 0-84.37-50.28-84.37-128.7 0-77.98 34.09-126.6 84.37-126.6zm-600-12.78v280.8h18.75v-174.3c0-26.84-2.129-52.41-2.555-79.68h0.8496l29.83 55.39 109.5 198.6h20.88v-280.8h-18.75v172.6c0 27.27 2.131 54.54 2.557 81.39h-0.8496l-29.83-55.39-109.5-198.6zm1004 0v17.04h97.58v263.8h19.6v-263.8h97.58v-17.04zm525.4 0v280.8h18.75v-191.7c0-20.03-2.13-47.3-2.982-66.47h0.8535l16.62 48.15 51.99 135.5h15.34l52.84-135.5 15.34-48.15h1.277c-0.8522 19.17-2.557 46.45-2.557 66.47v191.7h19.18v-280.8h-25.99l-49.86 131.7-16.62 49h-1.705l-17.47-49-49-131.7zm242.9 0 96.3 177.7v103.1h19.6v-103.1l96.3-177.7h-19.17l-48.58 92.46c-11.93 22.16-23.86 43.89-36.64 66.47h-1.705c-12.78-22.58-23.44-44.32-36.22-66.05l-49.86-92.89zm530.5 0v280.8h65.19c85.65 0 126.6-56.24 126.6-141.5 0-84.8-40.91-139.3-127-139.3zm19.6 16.62h43.46c75.42 0 108.2 49.85 108.2 122.7 0 73.29-32.81 124.8-108.2 124.8h-43.46zm504.9-16.62v280.8h170.4v-17.04h-150.8v-123.6h123.6v-17.04h-123.6v-106.1h146.6v-17.04zm-2059 132.1v16.19h174.7v-16.19zm1278 0v16.19h174.7v-16.19zm-1702 98.43c-13.21 0-25.56 10.22-25.56 27.7s12.36 27.7 25.56 27.7 25.57-10.23 25.57-27.7-12.36-27.7-25.57-27.7zm2812 0c-13.21 0-25.57 10.22-25.57 27.7s12.36 27.7 25.57 27.7 25.57-10.23 25.57-27.7-12.36-27.7-25.57-27.7zm-2497 158-139.3 370.7h19.17l139.3-370.7zm2301 0-139.3 370.7h19.18l139.3-370.7zm-2950 21.73v280.8h19.6v-120.6h56.67c62.64 0 100.1-26.84 100.1-81.81 0-57.95-37.5-78.4-100.1-78.4zm19.6 16.62h51.99c57.1 0 84.79 14.49 84.79 61.79 0 46.02-27.7 65.19-84.79 65.19h-51.99zm303.8-16.62-98.86 280.8h19.6l33.24-96.3h111.2l32.39 96.3h20.88l-98.86-280.8zm8.949 18.32h1.703c9.8 34.51 19.6 63.92 31.11 97.15l17.9 52.41h-99.71l17.9-52.41c11.08-33.24 21.31-62.64 31.11-97.15zm434.2-18.32v280.8h19.6v-129.1h59.65l75.85 129.1h23.01l-77.55-130.4c43.89-5.966 72.01-31.53 72.01-76.27 0-53.69-36.65-74.14-92.47-74.14zm19.6 16.62h55.39c49.85 0 77.55 15.34 77.55 57.52 0 41.33-27.7 61.36-77.55 61.36h-55.39zm462.3-16.62v17.04h97.58v263.8h19.6v-263.8h97.58v-17.04zm525.4 0v280.8h18.75v-191.7c0-20.03-2.13-47.3-2.982-66.47h0.8516l16.62 48.15 51.98 135.5h15.34l52.84-135.5 15.34-48.15h1.279c-0.8522 19.17-2.557 46.45-2.557 66.47v191.7h19.17v-280.8h-25.99l-49.85 131.7-16.62 49h-1.705l-17.47-49-49-131.7zm275.3 0v280.8h170.4v-17.04h-150.8v-123.6h123.6v-17.04h-123.6v-106.1h146.6v-17.04zm496.4 0v280.8h18.75v-174.3c0-26.84-2.13-52.41-2.557-79.68h0.8515l29.83 55.39 109.5 198.6h20.88v-280.8h-18.75v172.6c0 27.27 2.132 54.54 2.559 81.39h-0.8515l-29.83-55.39-109.5-198.6zm492.6 0v17.04h97.58v263.8h19.6v-263.8h97.58v-17.04zm-1514 132.1v16.19h174.7v-16.19zm767 0v16.19h174.7v-16.19zm-1191 98.43c-13.21 0-25.57 10.22-25.57 27.7 0 17.47 12.36 27.7 25.57 27.7s25.56-10.23 25.56-27.7c0-17.47-12.36-27.7-25.56-27.7z"/>
  <path fill="#56c5d0" d="m2970 1157-263.2 696h98.4l263.2-696zm-510.4 36.8c-139.2 0-248.8 100.8-248.8 273.6 0 175.2 112 267.2 241.6 267.2 70.4 0 128.8-26.4 171.2-76.8l-64.8-71.2c-25.6 28-56.8 46.4-94.4 46.4-78.4 0-132.8-62.4-132.8-169.6 0-104.8 54.4-168 128-168 38.4 0 66.4 15.2 91.2 37.6l64.8-72.8c-35.2-34.4-89.6-66.4-156-66.4zm-1990 13.6c-78.4 0-128.8 27.2-181.6 80.8l63.2 63.2c28.8-27.2 61.6-52 102.4-52 52.8 0 83.2 27.2 83.2 76.8 0 72.8-97.6 159.2-243.2 281.6v67.2h381.6v-99.2h-120.8c-26.4 0-63.2 3.2-92 6.4 98.4-86.4 186.4-177.6 186.4-263.2 0-97.6-72.8-161.6-179.2-161.6zm962.4 0c-97.6 0-182.4 64.8-182.4 170.4 0 107.2 68.8 156.8 157.6 156.8 37.6 0 85.6-20.8 122.4-56-4.8 120-59.2 160.8-120.8 160.8-33.6 0-68.8-16.8-89.6-36l-62.4 70.4c35.2 32 90.4 60.8 162.4 60.8 112 0 218.4-85.6 218.4-275.2 0-178.4-100.8-252-205.6-252zm2.4 88c40 0 79.2 25.6 92 105.6-28.8 36-63.2 50.4-93.6 50.4-45.6 0-76-21.6-76-73.6 0-57.6 37.6-82.4 77.6-82.4zm1914-88c-65.6 0-123.2 24.8-172.8 64.8l59.2 72c35.2-28 68-44.8 108-44.8 46.4 0 75.2 20.8 75.2 56 0 40.8-36.8 68-136.8 68v83.2c119.2 0 153.6 28 153.6 72.8 0 38.4-40 60-95.2 60-46.4 0-90.4-21.6-124-51.2l-54.4 74.4c39.2 43.2 102.4 72 189.6 72 107.2 0 201.6-53.6 201.6-148 0-65.6-49.6-107.2-113.6-124v-3.201c60.8-23.2 96.8-60 96.8-112.8 0-88.8-76.8-139.2-187.2-139.2zm-1605 212v83.2h368v-83.2zm-776 127.2c-55.2 0-92.8 41.6-92.8 94.4s37.6 93.6 92.8 93.6c55.2 0 92.8-40.8 92.8-93.6s-37.6-94.4-92.8-94.4z"/>
</svg>
