<svg version="1.1" viewBox="0 0 3840 2160" xmlns="http://www.w3.org/2000/svg">
    <path fill="#9056dc" d="m0 0h3840v2160h-3840z"/>
    <path fill="#12120d" d="m3463 1558 19.71 39.72c47.49-23.5 88.79-56.75 119.4-96.16l-35.06-27.18c-26.57 34.17-62.55 63.08-104.1 83.62m147.7-391.3c-11.56-16.39-24.89-31.87-39.7-46.13l7.404-56.43-44.01-5.752-10.4 79.32 8.688 7.796c15.84 14.19 29.88 29.9 41.71 46.71zm-64.29-199.9 44.01 5.741 17.77-135.5-44.01-5.752zm-477.2 97.73-44 5.784 7.62 57.79c-13.81 14.21-26.15 29.49-36.78 45.55l37.02 24.43c10.86-16.4 23.83-31.89 38.58-46.04l8.076-7.768zm-56.31-87.6 44.01-5.784-18.08-137.3-44.01 5.783zm270.8 450.9h-107.8v-99.62c31.8 4.367 68.44 7.807 107.8 8.947zm44.37-90.51c40.12-.823 77.57-4.051 110.2-8.368v98.88h-110.2zm-18.21-43.96c-131.2 0-239.3-31.22-240.4-31.53l-28.45-8.324v29.58c0 148 120.6 268.4 268.9 268.4 148.2 0 268.8-120.4 268.8-268.4v-29.58s-28.44 8.324-28.44 8.324c-1.078.306-109.3 31.53-240.4 31.53m-71.73 294.1-8.268 43.55c24.8 4.673 50.41 7.06 76.11 7.07h.1691c25.53 0 51.05-2.364 75.88-7.016l-8.184-43.55c-22.13 4.148-44.89 6.258-67.69 6.258h-.148c-22.94 0-45.78-2.131-67.87-6.308m-193.3-113.4-35.07 27.16c30.61 39.4 71.91 72.67 119.4 96.2l19.73-39.69c-41.55-20.61-77.56-49.53-104.1-83.68m-43.98-204.8-42.92-11.36c-6.048 22.78-9.108 46.32-9.108 69.99.011 26.28 3.792 52.37 11.27 77.57l42.57-12.59c-6.264-21.1-9.444-42.98-9.456-64.99 0-19.82 2.568-39.55 7.644-58.63m15.02-641.5-43.94-6.236c-2.46 17.32-2.076 35.3 1.131 53.42.1163.6437 9.516 71.2 9.516 71.2l44.01-5.783-9.792-73.1c-2.412-13.54-2.7-26.83-.9088-39.51m63.8-44.93 25.57-36.22c-19.13-13.45-40.08-18.64-60.73-15.04-20.64 3.619-38.6 15.67-51.96 34.83l36.46 25.3c4.488-6.447 12.15-14.55 23.18-16.48 10.99-1.941 21.03 3.071 27.49 7.608m51.84 131.9 43.33-9.644s-13.85-62.46-13.97-63.14c-3.216-18.16-9.036-35.19-17.31-50.63l-39.14 20.92c6.072 11.29 10.34 23.88 12.88 38.43zm44.5 199.3 43.33-9.644-27.09-121.3-43.33 9.644zm233.7 76.58-43.33-9.634-8.952 40.2c-17.05-2.153-34.33-3.24-51.58-3.25h-.1692c-19.99 0-40.08 1.499-59.96 4.432l-8.928-39.98-43.33 9.644 18.28 81.85 21.34-4.327c23.89-4.842 48.33-7.29 72.6-7.29h.148c21.79 0 43.59 1.942 64.82 5.773l20.97 3.767zm44.21-198.4-43.33-9.624-26.93 120.8 43.33 9.623zm44.26-179.8-39.13-20.92c-5.34 9.961-13.15 32.62-13.15 32.62-1.692 5.909-4.356 19.29-4.464 20.02l-13.56 60.94 43.33 9.613 14.25-64.84c2.4-13.56 6.684-26.15 12.72-37.42m75.4-20.49 36.43-25.31c-13.33-19.15-31.3-31.2-51.94-34.84-20.58-3.641-41.62 1.551-60.73 15l25.57 36.22c6.444-4.527 16.39-9.518 27.45-7.587 11.04 1.952 18.72 10.06 23.22 16.51m57.1 29.81-43.94 6.257c1.812 12.68 1.536 25.97-.8347 39.35l-9.684 72.36 44.01 5.752 8.952-68.22c.1267-.6331 3.984-38.19 1.5-55.5m32.33 706.4c-.011-24.62-3.36-49.11-9.936-72.81l-42.77 11.85c5.508 19.85 8.316 40.36 8.328 60.97 0 22.02-3.18 43.88-9.42 64.99l42.56 12.58c7.464-25.2 11.24-51.29 11.24-77.58"/>
    <path fill="#12120d" d="m2757 1340v-53.82h-96.97v-56.94h73.12v-54.21h-73.12v-54.21h96.97v-53.82h-154.1v273zm-174.8 0v-53.82h-48.49v-165.4h48.49v-53.82h-154.1v53.82h48.88v165.4h-48.88v53.82zm-161.1 0v-53.82h-96.97v-219.2h-57.09v273zm-299.5-187.6h7.044l1.956 55.77 4.296 40.17h-20.33l4.692-40.17zm-17.2 187.6 4.308-37.44h32.06l3.912 37.44h56.7l-41.45-273h-71.56l-41.06 273zm-132.8-15.21c13.69-14.29 20.53-33.01 20.53-56.16 0-15.6-2.88-28.6-8.604-39-5.736-10.39-13.04-19.36-21.9-26.91-8.868-7.536-18.12-14.82-27.76-21.84-11.72-8.582-21.45-16.24-29.13-23.01-7.692-6.757-11.53-14.95-11.53-24.57 0-6.24 1.812-11.31 5.472-15.21 3.648-3.899 8.46-5.85 14.47-5.85 7.044 0 12.56 2.793 16.61 8.391 4.032 5.587 6.072 14.1 6.072 25.54h53.57c0-17.16-3.204-32.17-9.588-45.05-6.396-12.86-15.39-22.81-26.98-29.83-11.6-7.02-25.09-10.53-40.46-10.53-14.08 0-26.66 3.057-37.74 9.17-11.09 6.104-19.81 14.68-26.2 25.74-6.396 11.04-9.576 24.11-9.576 39.19 0 15.07 2.988 27.89 8.988 38.41 5.988 10.54 13.49 19.57 22.48 27.11 8.988 7.547 17.92 14.69 26.79 21.45 7.044 5.206 13.61 10.28 19.74 15.21 6.12 4.945 11.15 10.28 15.06 15.99 3.912 5.724 5.868 12.48 5.868 20.28 0 6.768-1.824 12.15-5.472 16.18-3.66 4.036-8.868 6.05-15.64 6.05-7.296 0-13.29-3.057-17.99-9.17-4.692-6.104-7.044-15.92-7.044-29.44h-53.57c0 28.61 7.092 50.64 21.3 66.11 14.2 15.46 33.17 23.2 56.9 23.2 23.19 0 41.64-7.146 55.32-21.45m-144.9 15.21v-53.82h-48.49v-165.4h48.49v-53.82h-154.1v53.82h48.88v165.4h-48.88v53.82zm-256.1 0v-113.5l48.88-159.5h-56.7l-20.33 73.32-19.16-73.32h-57.87l48.88 159.5v113.5zm-219.3 0v-143.9l43.79 143.9h56.7v-273h-53.57v143.9l-43.79-143.9h-56.7v273zm-183.8 0v-143.9l43.79 143.9h56.7v-273h-53.57v143.9l-43.79-143.9h-56.7v273zm-101.9-17.55c13.16-15.85 19.75-37.57 19.75-65.13v-190.3h-56.7v189.9c0 11.96-1.638 20.73-4.892 26.33-3.265 5.587-8.276 8.38-15.05 8.38-7.301 0-12.59-2.793-15.84-8.38-3.265-5.598-4.882-14.37-4.882-26.33v-189.9h-56.7v190.3c0 27.56 6.7 49.28 20.13 65.13 13.42 15.86 32.52 23.79 57.29 23.79 24.77 0 43.72-7.928 56.89-23.79m-251.2-95.55h12.51c18.24 0 27.37 7.547 27.37 22.62v15.6c0 14.82-9.13 22.23-27.37 22.23h-12.51zm0-106.9h10.95c18.24 0 27.37 7.412 27.37 22.23v12.87c0 15.08-9.13 22.62-27.37 22.62h-10.95zm17.99 220c26.06 0 45.81-5.974 59.23-17.94 13.43-11.95 20.14-29.5 20.14-52.65v-13.26c0-27.82-14.34-44.46-43.01-49.92v-6.241c13.81-3.12 24.18-8.97 31.08-17.55 6.912-8.582 10.37-19.24 10.37-31.98v-13.26c0-23.13-6.721-40.62-20.14-52.46-13.42-11.83-33.17-17.74-59.23-17.74h-73.12v273zm-150.1 0v-53.82h-96.97v-56.94h73.12v-54.21h-73.12v-54.21h96.97v-53.82h-154.1v273zm-281.1 0v-116.2h40.27v116.2h57.08v-273h-57.09v103h-40.27v-103h-56.7v273zm-122 0v-219.2h48.87v-53.82h-154.1v53.82h48.88v219.2z"/>
    <path fill="#12120d" d="m2263 1428h34.41v209.7h-34.41zm471.5 179.5c6.972-4.684 12.38-11.32 16.22-19.91 3.852-8.589 5.772-18.67 5.772-30.23 0-13.74-2.748-25.14-8.232-34.21-5.496-9.055-12.86-14.6-22.11-16.63l26.1-38.43v-21.32h-85.6l-1.184 30.93h45.62l-31.98 46.86 24.22 16.16c.9406-1.4 2.04-2.537 3.3-3.402 1.248-.8528 2.664-1.284 4.224-1.284 3.6 0 6.312 1.843 8.112 5.505 1.8 3.672 2.7 9.41 2.7 17.22 0 7.958-.9407 13.78-2.82 17.45-1.884 3.665-4.86 5.505-8.94 5.505-3.6 0-6.468-1.484-8.58-4.454-2.112-2.968-3.168-7.495-3.168-13.59h-34.81c0 9.844 1.956 18.59 5.88 26.23 3.924 7.653 9.408 13.67 16.47 18.04 7.056 4.368 15.13 6.56 24.22 6.56 9.408 0 17.6-2.337 24.58-7.033m-78.43 3.285 1.184-30.93h-49.15l25.39-34.21c9.096-12.18 15.33-22.64 18.69-31.39 3.372-8.736 5.064-17.17 5.064-25.3 0-10.78-2.196-19.52-6.588-26.23-4.392-6.717-9.996-11.68-16.82-14.89-6.816-3.2-13.91-4.802-21.28-4.802-7.836 0-15.36 1.801-22.57 5.39-7.212 3.59-13.05 9.181-17.52 16.75-4.476 7.581-6.696 17.3-6.696 29.17h33.39c0-5.938 1.099-10.51 3.288-13.71 2.196-3.2 5.172-4.802 8.94-4.802 3.6 0 6.432 1.326 8.46 3.981 2.04 2.653 3.06 6.096 3.06 10.31 0 4.064-.9829 8.747-2.952 14.05-1.956 5.315-5.28 11.17-9.984 17.58l-45.87 61.61v27.41zm-162.3 0v-69.82h24.23v69.82h34.33v-164h-34.34v61.85h-24.23v-61.85h-34.09v164zm-46.56 0v-32.33h-58.32v-34.21h43.98v-32.56h-43.98v-32.57h58.32v-32.33h-92.66v164zm-294.9-34.44c-1.884-3.59-2.82-9.296-2.82-17.11v-.7053c0-8.273.9406-14.09 2.82-17.45 1.884-3.348 4.788-5.032 8.712-5.032 7.668 0 11.52 7.495 11.52 22.49v.7053c0 14.99-3.852 22.5-11.52 22.5-3.924 0-6.828-1.801-8.712-5.39m42.22 24.36c8.544-9.213 12.82-23.11 12.82-41.7 0-10.47-1.464-19.68-4.356-27.65-2.904-7.969-7.056-14.26-12.47-18.86-5.4-4.601-11.87-6.907-19.39-6.907-4.236 0-8.088.7475-11.53 2.221-3.444 1.495-6.816 4.422-10.12 8.79v-20.61c0-13.43 3.852-20.15 11.53-20.15 7.68 0 11.52 6.01 11.52 18.04h34.81c0-10.45-2.004-19.48-6-27.06-3.996-7.57-9.492-13.43-16.47-17.57-6.972-4.139-14.93-6.211-23.86-6.211-9.576 0-17.84 2.39-24.81 7.148-6.984 4.77-12.31 11.33-15.99 19.68-3.696 8.359-5.532 18-5.532 28.94v62.08c0 10.94 1.956 20.42 5.88 28.47 3.924 8.045 9.444 14.26 16.58 18.62 7.128 4.368 15.33 6.56 24.57 6.56 13.33 0 24.26-4.601 32.81-13.82m-90.9 10.07 1.173-30.93h-49.15l25.41-34.21c9.084-12.18 15.33-22.64 18.69-31.39 3.372-8.736 5.052-17.17 5.052-25.3 0-10.78-2.196-19.52-6.588-26.23-4.38-6.717-9.996-11.68-16.81-14.89-6.816-3.2-13.92-4.802-21.28-4.802-7.836 0-15.36 1.801-22.57 5.39-7.224 3.59-13.06 9.181-17.52 16.75-4.476 7.581-6.708 17.3-6.708 29.17h33.39c0-5.938 1.099-10.51 3.3-13.71 2.196-3.2 5.172-4.802 8.94-4.802 3.6 0 6.42 1.326 8.46 3.981 2.028 2.653 3.06 6.096 3.06 10.31 0 4.063-.9828 8.747-2.94 14.05-1.968 5.315-5.292 11.17-9.996 17.58l-45.85 61.61v27.41zm-158.7-49.2v-65.6c0-13.43 3.912-20.15 11.76-20.15 7.848 0 11.75 6.717 11.75 20.15v65.6c0 13.43-3.924 20.15-11.75 20.15-7.824 0-11.76-6.716-11.76-20.15m35.87 45.8c6.972-4.759 12.46-11.36 16.46-19.79 4.008-8.431 6-18.12 6-29.06v-59.73c0-10.94-1.992-20.58-6-28.94-3.996-8.348-9.48-14.91-16.46-19.68-6.984-4.759-15.02-7.148-24.11-7.148-9.084 0-17.14 2.39-24.12 7.148-6.972 4.77-12.46 11.33-16.46 19.68-4.008 8.359-6 18-6 28.94v59.73c0 10.94 1.992 20.62 6 29.06 3.996 8.431 9.48 15.03 16.46 19.79 6.972 4.77 15.02 7.148 24.12 7.148 9.096 0 17.12-2.379 24.11-7.148m-81.49 3.401 1.173-30.93h-49.15l25.39-34.21c9.096-12.18 15.33-22.64 18.71-31.39 3.36-8.736 5.052-17.17 5.052-25.3 0-10.78-2.196-19.52-6.588-26.23-4.392-6.717-9.996-11.68-16.81-14.89-6.828-3.2-13.92-4.802-21.28-4.802-7.836 0-15.36 1.801-22.58 5.39-7.212 3.59-13.05 9.181-17.51 16.75-4.476 7.581-6.708 17.3-6.708 29.17h33.39c0-5.938 1.099-10.51 3.3-13.71 2.196-3.2 5.172-4.802 8.94-4.802 3.6 0 6.42 1.326 8.46 3.981 2.028 2.653 3.06 6.096 3.06 10.31 0 4.064-.9828 8.747-2.94 14.05-1.968 5.315-5.292 11.17-9.996 17.58l-45.85 61.61v27.41zm-173.3-1.759c4.224-3.665 6.972-8.866 8.232-15.58h3.996l-.7082 17.34h26.81v-87.15h-48.92v29.05h14.12v9.844c0 13.43-3.924 20.15-11.76 20.15-7.836 0-11.76-6.717-11.76-20.15v-67.47c0-13.43 3.924-20.15 11.76-20.15 7.836 0 11.76 6.717 11.76 20.15v15.45h34.8v-11.71c0-10.94-1.968-20.58-5.88-28.94-3.924-8.348-9.372-14.91-16.35-19.68-6.972-4.759-15.02-7.148-24.11-7.148-9.084 0-17.13 2.39-24.11 7.148-6.972 4.77-12.43 11.33-16.35 19.68-3.924 8.359-5.88 18-5.88 28.94v59.73c0 13.91 1.68 24.95 5.064 33.15 3.36 8.203 7.836 14.07 13.4 17.57 5.556 3.516 11.72 5.275 18.46 5.275 7.368 0 13.17-1.832 17.41-5.505m-105.4 0c4.236-3.665 6.972-8.866 8.232-15.58h3.996l-.7081 17.34h26.81v-87.15h-48.91v29.05h14.11v9.844c0 13.43-3.924 20.15-11.76 20.15-7.836 0-11.76-6.717-11.76-20.15v-67.47c0-13.43 3.924-20.15 11.76-20.15 7.836 0 11.76 6.717 11.76 20.15v15.45h34.8v-11.71c0-10.94-1.956-20.58-5.88-28.94-3.924-8.348-9.372-14.91-16.35-19.68-6.972-4.759-15-7.148-24.11-7.148-9.096 0-17.13 2.39-24.11 7.148-6.972 4.77-12.43 11.33-16.34 19.68-3.924 8.359-5.88 18-5.88 28.94v59.73c0 13.91 1.692 24.95 5.064 33.15 3.372 8.202 7.836 14.07 13.4 17.57 5.568 3.516 11.72 5.275 18.46 5.275 7.368 0 13.17-1.832 17.41-5.505m-61.15 1.759v-32.33h-58.32v-34.21h43.97v-32.56h-43.97v-32.57h58.32v-32.33h-92.66v164zm-169.1 0v-69.82h24.22v69.82h34.34v-164h-34.34v61.85h-24.22v-61.85h-34.1v164zm-105.8-132.1h5.177c10.97 0 16.47 4.454 16.47 13.35v13.36c0 9.055-5.494 13.58-16.47 13.58h-5.177zm0 132.1v-62.32h7.06c5.328 0 9.49 1.179 12.47 3.516 2.97 2.348 4.46 5.706 4.46 10.07v48.73h34.58v-44.75c0-8.736-2.352-15.54-7.056-20.38-4.704-4.831-11.45-8.045-20.23-9.601v-3.748c16.62-3.747 24.93-13.66 24.93-29.75v-13.59c0-13.9-4.032-24.4-12.11-31.51-8.076-7.104-19.95-10.66-35.63-10.66h-42.57v164zm-46.56 0v-32.33h-58.32v-34.21h43.98v-32.56h-43.98v-32.57h58.32v-32.33h-92.66v164zm-131.9 0v-131.7h29.4v-32.33h-92.66v32.33h29.4v131.7zm-76.08-9.138c8.233-8.589 12.34-19.84 12.34-33.73 0-9.382-1.722-17.18-5.166-23.43-3.456-6.244-7.841-11.63-13.18-16.16-5.328-4.537-10.9-8.905-16.7-13.13-7.049-5.146-12.89-9.759-17.52-13.82-4.619-4.053-6.934-8.981-6.934-14.76 0-3.748 1.099-6.789 3.287-9.127 2.198-2.348 5.094-3.516 8.708-3.516 4.226 0 7.556 1.674 9.997 5.032 2.42 3.358 3.647 8.474 3.647 15.35h32.21c0-10.31-1.913-19.33-5.76-27.07-3.848-7.728-9.248-13.7-16.22-17.92-6.984-4.222-15.09-6.326-24.35-6.326-8.464 0-16.03 1.843-22.69 5.505-6.667 3.672-11.92 8.823-15.76 15.46-3.848 6.642-5.76 14.49-5.76 23.54 0 9.055 1.796 16.76 5.4 23.08 3.614 6.326 8.114 11.76 13.53 16.29 5.411 4.536 10.78 8.823 16.11 12.89 4.237 3.127 8.19 6.168 11.88 9.138 3.686 2.968 6.7 6.168 9.058 9.601 2.357 3.443 3.529 7.495 3.529 12.19 0 4.063-1.099 7.295-3.298 9.716-2.198 2.422-5.328 3.632-9.407 3.632-4.385 0-7.999-1.832-10.82-5.505-2.821-3.665-4.226-9.569-4.226-17.69h-32.22c0 17.18 4.27 30.42 12.82 39.71 8.539 9.296 19.95 13.94 34.22 13.94 13.95 0 25.05-4.297 33.28-12.89m-130.4-103.6h4.226l1.184 33.5 2.59 24.13h-12.24l2.821-24.13zm-10.35 112.7 2.579-22.49h19.29l2.357 22.49h34.1l-24.93-164h-43.04l-24.69 164zm-38.81 0v-32.33h-58.32v-34.21h43.98v-32.56h-43.98v-32.57h58.32v-32.33h-92.66v164z"/>
</svg>
