<svg version="1.1" viewBox="0 0 3840 2160" xmlns="http://www.w3.org/2000/svg">
    <defs>
        <linearGradient id="gradient" x1="2655" x2="1185" y1="-693.8" y2="2854" gradientUnits="userSpaceOnUse">
            <stop stop-color="#ea5b0c" offset="0"/>
            <stop stop-color="#121111" offset="1"/>
        </linearGradient>
    </defs>
    <path fill="url(#gradient)" d="m0 0v2160h3840v-2160h-3840z"/>
    <path fill="#121111" fill-opacity=".5" d="m287.2 0a4320 4320 0 00-137.2 1080 4320 4320 0 00137.2 1080h3553v-2160h-3553z"/>
    <path fill="#121111" fill-opacity=".5" d="m1007 0a4320 4320 0 00-137.2 1080 4320 4320 0 00137.2 1080h2833v-2160h-2833z"/>
    <path fill="#121111" fill-opacity=".5" d="m1727 0a4320 4320 0 00-137.2 1080 4320 4320 0 00137.2 1080h2113v-2160h-2113z"/>
    <path fill="#ea5b0c" d="m2696 1405c-40.52 0-73.14 32.62-73.14 73.14v233.1c0 40.52 32.62 73.14 73.14 73.14h324.6c40.52 0 73.14-32.62 73.14-73.14v-233.1c0-40.52-32.62-73.14-73.14-73.14z"/>
    <path fill="#f9f9f9" d="m3343 1475c-9.466 0-16.73 2.514-21.79 7.543-5.062 5.026-7.594 12.35-7.594 21.97v62.85c-3.658-5.714-8.938-10.6-15.84-14.65-9.685-5.684-20.58-8.527-32.68-8.527-13.87 0-26.19 3.389-36.97 10.16-10.56 6.775-18.93 16.39-25.09 28.85-5.943 12.46-8.914 27.54-8.914 45.25 0 17.27 2.971 32.24 8.914 44.92 6.162 12.68 14.53 22.41 25.09 29.18 10.78 6.775 23.1 10.16 36.97 10.16 12.54 0 23.65-2.952 33.33-8.856 7.147-4.417 12.52-9.8 16.11-16.15.77 7.12 3.211 12.72 7.326 16.81 5.059 5.029 12.21 7.543 21.46 7.543 9.46 0 16.61-2.514 21.46-7.543 5.059-5.029 7.59-12.35 7.59-21.97v-178c0-9.615-2.64-16.94-7.922-21.97-5.059-5.029-12.21-7.543-21.46-7.543zm-596.2 2.285a153.6 153.6 0 00-32.95 3.607 121.1 121.1 0 00-31.3 11.8c-5.711 3.063-9.665 6.997-11.86 11.8-2.197 4.59-2.967 9.288-2.309 14.1a27.43 27.43 0 005.934 12.79c3.291 3.718 7.245 6.122 11.86 7.213 4.83 1.091 10.21.3259 16.15-2.295 6.805-3.499 13.17-5.902 19.11-7.213 5.931-1.53 11.53-2.295 16.79-2.295 10.33 0 18.24 2.08 23.73 6.23 5.492 4.151 8.238 10.38 8.238 18.69 0 6.556-1.869 13.11-5.606 19.68-3.514 6.558-9.551 14.43-18.12 23.61l-57.66 60c-4.395 4.59-8.019 9.29-10.87 14.1-2.639 4.806-3.959 10.27-3.959 16.39 0 8.741 2.088 15.41 6.264 20 4.395 4.37 11.42 6.555 21.08 6.555h114.7c8.125 0 14.28-2.076 18.45-6.226 4.392-4.373 6.588-10.49 6.588-18.36 0-7.866-2.199-13.88-6.588-18.03-4.175-4.154-10.33-6.23-18.45-6.23h-66.03l38.03-37.38c10.1-9.835 18.12-19.12 24.05-27.87 6.15-8.744 10.54-17.49 13.18-26.23 2.856-8.747 4.283-17.71 4.283-26.89 0-14.64-3.185-26.88-9.555-36.72-6.37-10.05-15.7-17.7-28-22.95-12.08-5.245-27.12-7.869-45.13-7.869zm240.5.6543c-7.467 0-13.95 1.531-19.44 4.594-5.489 3.06-10.43 7.868-14.82 14.42l-80.39 116.7c-5.05 6.994-8.565 13.01-10.54 18.04-1.975 4.812-2.961 9.838-2.961 15.08 0 8.963 2.636 15.63 7.908 20.01 5.486 4.37 13.06 6.555 22.73 6.555h66.22v11.8c0 9.835 2.524 17.27 7.574 22.3 5.272 5.029 12.52 7.543 21.75 7.543 9.445 0 16.58-2.514 21.41-7.543 5.05-5.245 7.576-12.68 7.576-22.3v-11.8h7.908c8.344 0 14.6-1.971 18.78-5.902 4.392-3.932 6.588-9.615 6.588-17.05 0-7.214-2.196-12.79-6.588-16.72-4.175-3.934-10.43-5.9-18.78-5.9h-7.908v-120c0-10.05-2.416-17.49-7.25-22.3-4.83-5.028-11.42-7.543-19.77-7.543zm-894.9 63.42c-10.75 0-20.63 1.974-29.62 5.924a64 64 0 00-22.71 16.13c-6.144 7.022-10.97 15.47-14.48 25.34s-5.266 20.96-5.266 33.24c0 16.24 2.962 30.39 8.887 42.46 6.141 12.07 14.59 21.5 25.34 28.31 10.76 6.583 23.37 9.873 37.85 9.873 11.85 0 22.82-2.852 32.91-8.557 7.896-4.635 13.71-10.28 17.45-16.93v14.95c0 11.85-3.401 20.52-10.2 26-6.586 5.705-16.57 8.559-29.95 8.559-5.486 0-12.18-.66-20.08-1.977-7.9-1.097-16.67-3.62-26.33-7.57-4.83-1.755-9.219-1.864-13.17-.3282a21.67 21.67 0 00-9.545 8.228c-2.194 3.73-3.402 7.9-3.621 12.51-.2194 4.608.9879 8.997 3.621 13.17 2.633 4.169 7.13 7.351 13.49 9.545 7.68 3.072 16.79 5.376 27.32 6.912 10.53 1.755 21.83 2.633 33.9 2.633 29.4 0 51.99-7.132 67.79-21.39 15.8-14.04 23.7-35.11 23.7-63.2v-113.9c0-9.435-2.523-16.68-7.57-21.72-4.827-5.047-11.85-7.57-21.06-7.57-9.216 0-16.46 2.524-21.72 7.57-4.032 4.032-6.455 9.466-7.266 16.3-3.702-6.328-9.287-11.65-16.76-15.97-9.661-5.705-20.63-8.559-32.91-8.559zm248.2 0c-12.5 0-23.69 3.073-33.57 9.217-6.939 4.258-12.18 9.536-15.72 15.83-.7468-7.08-3.186-12.69-7.318-16.82-4.83-5.047-11.96-7.57-21.39-7.57-9.216 0-16.35 2.523-21.39 7.57-4.827 5.047-7.24 12.29-7.24 21.72v168.2c0 9.655 2.523 17.01 7.57 22.05 5.047 5.047 12.18 7.57 21.39 7.57 9.432 0 16.67-2.524 21.72-7.57 5.266-5.047 7.898-12.4 7.898-22.05v-51.88c3.634 5.627 8.791 10.41 15.47 14.36 9.652 5.705 20.51 8.559 32.58 8.559 14.04 0 26.33-3.401 36.87-10.2 10.75-6.802 19.09-16.57 25.01-29.29 5.925-12.73 8.887-27.76 8.887-45.09 0-17.77-2.962-32.91-8.887-45.42-5.925-12.51-14.26-22.16-25.01-28.96-10.53-6.802-22.82-10.2-36.87-10.2zm206.7 0c-12.51 0-23.7 2.743-33.57 8.228-7.699 4.376-14 10.29-18.91 17.73-.6015-7.512-2.965-13.42-7.088-17.73-4.83-5.047-11.85-7.57-21.06-7.57-9.222 0-16.35 2.523-21.39 7.57-4.827 5.047-7.242 12.29-7.242 21.72v108.9c0 9.655 2.52 17.01 7.566 22.05 5.047 5.047 12.18 7.57 21.39 7.57 19.75 0 29.62-9.874 29.62-29.62v-63.2c0-9.435 2.631-16.9 7.895-22.38 5.266-5.705 12.29-8.557 21.06-8.557 6.583 0 11.52 2.085 14.81 6.254 3.511 4.169 5.266 11.19 5.266 21.06v66.82c0 9.655 2.526 17.01 7.57 22.05 5.044 5.047 12.28 7.57 21.72 7.57 9.436 0 16.68-2.523 21.72-7.57 5.047-5.047 7.57-12.4 7.57-22.05v-69.12c0-15.8-2.085-28.86-6.254-39.17-4.169-10.53-10.42-18.21-18.76-23.04-8.335-5.047-18.98-7.57-31.92-7.57zm937.1 2.824c-16.5 0-31.25 3.609-44.23 10.82-12.76 6.991-22.89 16.83-30.37 29.5-7.262 12.46-10.89 27-10.89 43.61 0 17.27 3.852 32.24 11.56 44.92 7.698 12.68 18.7 22.52 33.01 29.51 14.52 6.775 31.69 10.16 51.49 10.16a130.3 130.3 0 0026.08-2.623 112.9 112.9 0 0024.75-7.869c5.062-2.188 8.694-5.246 10.89-9.178 2.2-4.154 3.19-8.309 2.971-12.46-.2194-4.37-1.54-8.195-3.963-11.47-2.2-3.499-5.39-5.902-9.568-7.213-4.181-1.53-9.134-1.203-14.86.9824-5.72 2.188-11.77 3.938-18.15 5.248-6.162 1.091-11.66 1.637-16.5 1.637-14.52 0-25.31-3.279-32.35-9.838-4.599-4.57-7.647-11.13-9.145-19.67h93.97c5.285 0 9.134-.9844 11.55-2.953 2.423-2.185 3.635-5.464 3.635-9.838 0-12.68-1.871-24.15-5.613-34.42-3.523-10.28-8.804-19.02-15.84-26.23-7.04-7.433-15.51-13.01-25.42-16.73-9.902-3.932-20.9-5.898-33.01-5.898zm-528.3 19.85v63.75h-43.17zm530.9 17.87c6.382 0 11.66 1.311 15.84 3.932 4.398 2.621 7.699 6.446 9.902 11.47 1.8 4.113 2.864 9.25 3.191 15.41h-61.24c.6441-4.552 1.728-8.597 3.252-12.13 2.642-6.12 6.382-10.71 11.22-13.77 5.065-3.276 11.01-4.914 17.83-4.914zm-1376 2.582c9.655 0 17.33 3.292 23.04 9.875 5.705 6.583 8.559 15.8 8.559 27.65 0 7.9-1.316 14.7-3.949 20.41-2.633 5.486-6.253 9.764-10.86 12.84-4.608 2.853-10.2 4.279-16.79 4.279-9.435 0-17-3.29-22.71-9.873-5.705-6.583-8.557-15.8-8.557-27.65 0-7.899 1.207-14.59 3.621-20.08 2.633-5.705 6.361-9.983 11.19-12.84 4.83-3.072 10.32-4.609 16.46-4.609zm211.6 0c8.774 0 16.01 3.292 21.72 9.875 5.705 6.363 8.559 16.9 8.559 31.6 0 9.655-1.316 17.56-3.949 23.7-2.633 5.925-6.255 10.42-10.86 13.49-4.386 2.853-9.54 4.279-15.46 4.279-8.996 0-16.35-3.292-22.05-9.875-5.705-6.583-8.557-17.12-8.557-31.6 0-9.874 1.316-17.77 3.949-23.7 2.633-6.144 6.253-10.64 10.86-13.49 4.608-2.853 9.874-4.279 15.8-4.279zm961.8 2.66c8.805 0 16.07 3.278 21.79 9.834 5.72 6.339 8.582 16.83 8.582 31.48 0 9.618-1.323 17.49-3.965 23.61-2.42 5.9-5.938 10.38-10.56 13.45-4.62 2.84-9.903 4.26-15.85 4.26-9.024 0-16.39-3.279-22.12-9.838-5.72-6.558-8.582-17.05-8.582-31.47 0-9.835 1.322-17.7 3.965-23.61 2.639-6.117 6.268-10.6 10.89-13.44 4.62-2.84 9.901-4.262 15.84-4.262zm-140 60.33c-9.902 0-17.82 2.95-23.77 8.85-5.72 5.687-8.582 13.23-8.582 22.62 0 9.618 2.859 17.38 8.582 23.28 5.94 5.9 13.86 8.852 23.77 8.852 10.34 0 18.26-2.951 23.76-8.852 5.724-5.906 8.586-13.67 8.586-23.28 0-9.402-2.862-16.95-8.586-22.63-5.501-5.9-13.42-8.85-23.76-8.85z"/>
    <path fill="#ea5b0c" d="m2755 898.1c14.34 202.6 184.8 359.8 390.6 360.2 152.2-.32 290.4-87.41 354.7-223.5-80.98 102.4-205.3 162.3-336.9 162.4-188-.32-353.7-121.7-408.4-299.2m390.6-414.2c-148.1.3429-283.4 82.93-349.8 213.5 81.02-99.51 203.3-157.5 332.7-157.7 186.4.3657 351.1 119.8 407.1 295.2-18.88-198.7-187.7-350.7-390-351.1"/>
    <path fill="#f9f9f9" d="m1990 376.3c812.6 146.2 627.2 636.5 1223 656 253.2 0 349.4-111.3 376.6-160.9 5.408-9.883-142.3 99.37-371.3 96.2-21.76 0-42.57-.928-62.51-2.706-490.7-43.75-458.9-603.5-1166-588.6"/>
</svg>
