<svg version="1.1" viewBox="0 0 1920 1080" xmlns="http://www.w3.org/2000/svg">
  <rect width="1920" height="1080"/>
  <path fill="#d0d0ce" d="m817.5 265.7c-3.33.9028-6.605 1.942-9.82 3.117-17.31 6.324-32.27 15.27-44.89 26.84-10.76 9.869-19.64 21.23-26.64 34.09l7.971 3.518 12.57-1.334 16.41 8.41 17.29-6.893-19.57 10.99-17.54-6.365-13.71 3.381-8.344-1.723c-6.553 14.68-10.42 29.83-11.6 45.43l-4.725 62.48c-.9686-13.94-4.071-27.57-9.311-40.9-5.283-13.44-12.86-25.96-22.72-37.55-12.14-14.27-26.13-25.3-41.97-33.08-5.835-2.867-11.77-5.301-17.81-7.303l-5.463 1.637-4.252 19.55-10.08 9.484-9.961 6.385-9.127 7.342-9.123 5.752-10.79 4.092-2.709 15.75-15.01 1.35-3.801 9.83-1.068 1.08 15.07 17.72c7.73-6.574 16.55-9.462 26.45-8.662 9.903.7998 18.14 5.065 24.72 12.79 5.31 6.243 8.129 13.32 8.459 21.24.3296 7.918-1.572 15.17-5.703 21.76-1.62 2.915-3.916 5.635-6.889 8.164-7.73 6.574-17.14 9.968-28.23 10.18s-19.93-3.548-26.5-11.28l-18.21-21.41-64.22 54.62 18.21 21.41c6.574 7.73 8.868 17.05 6.879 27.96-1.989 10.91-6.85 19.66-14.58 26.23-3.27 2.781-6.324 4.61-9.164 5.488-7.166 3.021-14.63 3.735-22.39 2.139-7.762-1.596-14.3-5.516-19.61-11.76-6.574-7.73-9.388-16.61-8.439-26.64.9485-10.03 5.288-18.33 13.02-24.91l-63.72-74.92c-14.27 12.14-25.37 26.19-33.31 42.16-1.428 2.875-2.75 5.771-3.967 8.689l17.55 6.76 13.42-2.291 9.77 2.568-11.42 1.812-14.25 4.48-18.38-4.576c-3.587 10.56-5.829 21.39-6.727 32.51-1.4 17.33.4708 34.44 5.613 51.33s13.78 32.47 25.92 46.74c9.862 11.59 21 21.08 33.42 28.45 12.42 7.371 25.49 12.65 39.21 15.83 13.72 3.185 27.7 4.106 41.93 2.764s27.94-4.803 41.12-10.38c11.74-4.866 23.27-12.1 34.56-21.71 12.19-10.37 21.85-22.04 28.99-35.04 7.14-12.99 11.99-26.72 14.54-41.19 14.69-.1978 29.09-2.842 43.21-7.932 14.12-5.09 27.27-12.82 39.46-23.19 11-9.356 19.85-19.44 26.53-30.25 7.624-12.12 13.24-25.09 16.85-38.92.4942-1.894.8138-3.795 1.223-5.693l-6.023 79.67c-1.353 17.9.5103 34.68 5.59 50.33 5.08 15.65 12.94 29.45 23.58 41.41 10.64 11.96 24.1 21.69 40.36 29.18 16.26 7.492 34.9 12.03 55.92 13.62 21.02 1.589 39.77-.5174 56.25-6.316 16.49-5.799 30.54-14.42 42.17-25.87 11.63-11.45 20.87-25.04 27.74-40.76s11-32.93 12.42-51.61l.04296-.584c3.041-40.23-4.714-73.12-23.27-98.67l46.47 42.14c12.59-13.88 21.8-28.83 27.65-44.87.7795-2.137 1.501-4.275 2.162-6.416-3.345 19.61-3.173 39.57.5176 59.87 3.928 21.62 10.83 41.96 20.7 61.02l42.9 79.29c7.137 11.7 14.87 22.72 23.21 33.04l5.942-9.49 9.814-9.795-1.301-13.25 4.744-11.34c5.843 5.214 11.86 10.16 18.04 14.83 17.3 13.08 35.78 22.06 55.45 26.97 19.66 4.903 40.33 4.997 62 .2852 21.67-4.712 44.31-16.05 67.92-34l.4668-.3535c13.73-10.44 25.08-21.09 34.04-31.95l-22.69 58.97c17.48 6.728 35.14 9.757 52.96 9.088 11.34-.4259 22.29-2.145 32.85-5.158l-4.367-8.402-6.789-15.27-9.219-7.748-4.92-13.52-8.217-7.236-12.42-12.03-13.39-1.246-.8164-1.186c3.572-4.626 6.714-9.29 9.428-13.99 9.838-17.04 16.23-33.3 19.17-48.78 2.94-15.48 3.666-29.51 2.176-42.11-1.49-12.6-2.963-22.75-4.42-30.47l-96.27 13.64c3.61 14.42 3.941 28.88.9942 43.38-2.947 14.5-11.45 26.36-25.52 35.59v-.00195c-16.79 10.81-34.43 14.05-52.92 9.725-18.49-4.325-34.23-15.03-47.23-32.12l-51.39-67.57c-12.99-17.09-19.07-34.9-18.21-53.45s8.725-34.46 23.62-47.76c6.287-5.272 13.45-8.756 21.47-10.45 8.029-1.693 16.15-1.981 24.35-.8652 8.204 1.116 16.18 3.383 23.93 6.805s14.68 7.22 20.8 11.39l38.86-89.13c-9.585-6.666-20.1-12.63-31.53-17.89l-.7715 8.252-2.394 10.07-1.238 11.25-4.816 15.89-4.719 8.865 4.582 13.68.0547 8.492-4.373-10.31-6.74-14.58 2.561-9.771 2.656-16.79-.9199-12.16.2344-10.97-.5215-8.518c-11.29-3.75-23.21-5.991-35.76-6.725-4.041-.2363-8.131-.2831-12.27-.1406-12.41.4274-25.24 2.558-38.51 6.395-17.69 5.115-36 14.88-54.95 29.29l-.4648.3535c-18.96 14.42-33.5 30.37-43.62 47.85l4.328 3.131 6.023 13.81 14.38 9.119 7.773 10.65 6.609 8.406 12.49 11.64.793 12.15 2.336 5.363-5.879-11.4-12.81-11.22-3.828-14.58-3.797-3.758c-1.653 2.049-3.235 4.134-4.748 6.258-10.16 14.26-17.6 29.25-22.31 44.96 1.268-8.087 1.704-16.2 1.307-24.35-.7934-16.26-4.882-32.09-12.26-47.48-7.382-15.39-17.87-29.24-31.46-41.57-12.48-11.31-25.69-19.89-39.63-25.73l-7.229 6.879-5.52 17.8-11.06 12.44-6.957 13.73-12.47 8.168-8.469 12.24-4.232 10.37 1.133 4.15c1.913-.4137 3.894-.6864 5.941-.8145 10.05-.6287 18.84 2.466 26.36 9.283 7.517 6.817 11.45 15.26 11.8 25.33.3331 9.499-2.525 17.86-8.574 25.09-17.74-13.23-40.51-20.9-68.3-23-3.113-.2354-6.959.1598-11.54 1.184-4.579 1.024-9.18 2.338-13.8 3.945-4.623 1.608-8.698 3.747-12.23 6.416-3.529 2.669-5.785 5.335-6.77 8l4.678-61.88.584.04492c.6091-8.058 3.37-15.02 8.281-20.89l-3.443-2.578-3.025-10.78-.8359-14.86 4.828-14.11-2.939-15.11 1.09-16.61-6.574-17.44 1.482-9.869zm653 2.021c-7.311.2198-14.7 1.053-22.18 2.496-18.39 3.553-34.88 10.31-49.45 20.28-14.57 9.97-26.73 22.16-36.46 36.56-9.739 14.4-16.5 30.32-20.29 47.74-3.789 17.43-3.944 35.15-.4648 53.16l96.57-18.65c-1.925-9.963-.1025-19.06 5.463-27.29 5.565-8.23 13.33-13.31 23.29-15.23 8.048-1.554 15.6-.5276 22.66 3.078 7.057 3.606 12.44 8.827 16.14 15.66 1.742 2.844 2.982 6.182 3.723 10.01 1.924 9.963.2517 19.82-5.018 29.59s-12.88 15.61-22.85 17.53l-27.59 5.33 15.99 82.77 27.59-5.33c9.963-1.925 19.21.6616 27.73 7.76 8.526 7.098 13.75 15.63 15.68 25.59.8142 4.215.9048 7.775.2734 10.68-.8928 7.725-3.94 14.57-9.146 20.55-5.206 5.974-11.83 9.738-19.88 11.29-9.963 1.925-19.08.00888-27.35-5.748s-13.36-13.62-15.29-23.58l-29.09 5.619-1.27 2.922 6.033 12.01-3.623 16.9-1.787 10.8-8.857 11.33-1.689 11.92-9.356 13.84-4.814 8.156c4.656 4.206 9.604 8.081 14.84 11.62 14.4 9.739 30.22 16.52 47.46 20.35 17.24 3.826 35.05 3.961 53.45.4082 14.95-2.887 28.68-7.924 41.2-15.11 12.52-7.189 23.55-15.98 33.07-26.36 9.522-10.39 17.19-22.1 23.02-35.15 5.827-13.05 9.553-26.69 11.18-40.92 1.538-12.62.8988-26.21-1.914-40.77h.0039c-3.035-15.71-8.453-29.87-16.25-42.47-7.801-12.6-17.37-23.58-28.72-32.91 7.05-12.89 11.83-26.73 14.34-41.53s2.246-30.05-.789-45.76c-1.769-9.157-4.244-17.68-7.426-25.57l-3.607 1.703-.1465 9.969-8.402 7.852-12.37 12.31-4.779 8.615-2.684 16.62-3.178 8.195-4.678 2.645.4375 15.83 12.58 8.164-4.09 18.05 3.721 13.75-1.99 15.49 4.537 10.14.5703 17.59 2.207 10.37-3.619 10.95.3399 15.26 1.736 17.48-.0117 11.77-4.652-11.3-4.066-17.24-2.67-15.03 1.287-10.72-4.537-10.14-2.9-17.36-4.537-10.14 1.99-15.49-3.721-13.75 4.09-18.05-12.58-8.164-.1192-4.293-1.531 2.172 1.873 11.15-12.27 2.875-7.984 9.453-5.67 5.941 3.789-10.23 7.045-11.6 11.33-5.02-2.816-13.3 5.443-11.18 1.766-1.316.0938-.6406 13.02-9.127 2.238-10.34 1.742-18.77 3.84-10.76 11.43-14.46 7.463-9.998-.793-12.11.9961-.6582c-4.924-6.941-10.47-13.4-16.65-19.38-10.27-9.942-21.75-17.96-34.46-24.05-12.7-6.092-26.21-10.14-40.51-12.15-7.15-1.004-14.38-1.396-21.69-1.176zm-387.7 173.5 12.82 9.615 3.203 11.69 8.748 7.775 6.064 14.35-1.898 14.71 4.23 12.41-4.869-5.9-1.367-12.04-11.8-12.09-2.398-9.146 1.084-12.13-10.55-13.42-3.268-5.814zm39.48 88.97 4.356 10.31 7.656 12.99 3.846 15.27-7.226 18.89 10.13 15.14-3.91 15.85 3.32 12.89-8.189 11.19-2.322 5.412-6.365-13.69 10.04-17.56-1.451-15.68-5.568-14.02-4.059-16.21-1.482-10.5-2.857-16.24 4.082-14.06zm-872.6 88.89-3.346 75.01 1.52-.0625 9.479-4.609 11.9 9.236 12.71-9.684 10.69 4.354 10.6 2.004 11.68.8438 11.64 2.109 13.84-.07813 16.44-11.42 5.113 2.523c-5.243-9.568-11.57-18.4-18.98-26.51-11.73-12.83-25.63-23.12-41.69-30.87-16.06-7.749-33.26-12.03-51.58-12.85z"/>
  <path fill="#fe5000" d="m1076 614.4-6.41 122.3 194.8 10.21-338 11.8 4.273 122.4 711.3-24.84-4.088-117.1 4.984-95.09zm6.582 17.58 26.54 1.391c4.989.2615 9.099 1.24 12.33 2.934 3.233 1.694 5.778 3.859 7.633 6.496 1.855 2.638 3.123 5.674 3.803 9.109.6795 3.436.9207 7.026.7246 10.77-.2042 3.898-1.029 7.332-2.475 10.3-1.446 2.973-3.099 5.446-4.961 7.42-1.862 1.974-3.718 3.44-5.566 4.398-1.848.9584-3.278 1.411-4.291 1.357l15.84 35.65-22.57-1.182-10.21-28.91-.2324-.0117-1.484 28.3-19.64-1.029zm68.05 3.566 53.32 2.795-1.029 19.64-33.67-1.764-.7364 14.03 24.79 1.299-1.029 19.64-24.79-1.299-.7343 14.03 33.67 1.766-1.029 19.64-53.32-2.793zm94.59 4.957c4.287.2247 8.018 1.027 11.19 2.404 3.172 1.378 5.82 3.06 7.943 5.047s3.746 4.202 4.869 6.645c1.123 2.443 1.817 4.844 2.084 7.203l-17.54 5.881c-.189-.8697-.4897-1.843-.9023-2.92-.4125-1.077-1.006-2.084-1.777-3.023-.7715-.9393-1.705-1.751-2.803-2.434-1.098-.6828-2.386-1.063-3.867-1.141-1.559-.0817-3.008.3313-4.346 1.238-1.337.907-2.056 2.334-2.158 4.283-.078 1.481.4585 2.818 1.608 4.012s2.959 2.793 5.434 4.799c3.479 2.215 6.822 4.423 10.03 6.623 3.207 2.2 6.029 4.654 8.467 7.361 2.438 2.707 4.351 5.718 5.74 9.035s1.969 7.197 1.736 11.64l-.086 1.637c-.303 2.798-1.24 5.388-2.811 7.768-1.571 2.38-3.672 4.418-6.301 6.117-2.629 1.699-5.765 2.981-9.406 3.846-3.641.8644-7.721 1.178-12.24.9414-3.508-.1838-6.777-.8231-9.807-1.92-3.03-1.097-5.748-2.568-8.152-4.414-2.405-1.846-4.42-4.042-6.045-6.59-1.625-2.547-2.745-5.4-3.361-8.559l19.11-6.852c-.148.0836 7e-4.6384.4473 1.662.4535 1.04 1.118 2.149 1.994 3.328.8761 1.179 1.974 2.253 3.291 3.221 1.317.9679 2.761 1.377 4.332 1.225 1.333-.0865 2.67-.6029 4.01-1.549 1.339-.946 2.026-2.512 2.062-4.699-.01-1.329-.4696-2.584-1.385-3.766s-2.237-2.444-3.965-3.785c-3.837-2.859-7.397-5.37-10.68-7.535-3.287-2.165-6.14-4.405-8.559-6.721s-4.279-4.876-5.578-7.68c-1.299-2.804-1.84-6.271-1.623-10.4.2001-3.82 1.155-7.131 2.865-9.934 1.71-2.802 3.902-5.112 6.576-6.926 2.675-1.814 5.714-3.139 9.119-3.977s6.902-1.202 10.49-1.092zm71.19 3.9c1.122-.0536 2.256-.0505 3.406.01l.1172.006c4.599.241 8.898 1.366 12.9 3.373 3.998 2.007 7.507 4.77 10.53 8.289 2.651 3.109 4.58 6.572 5.787 10.39 1.207 3.815 1.746 7.714 1.615 11.69l-1.066 20.34c-.2206 4.209-1.087 8.444-2.6 12.7-1.513 4.259-3.914 7.944-7.203 11.05-3.376 3.262-7.157 5.681-11.34 7.26-4.186 1.578-8.579 2.247-13.18 2.006l-.1172-.006c-4.521-.237-8.781-1.358-12.78-3.365-3.998-2.007-7.548-4.773-10.65-8.297-2.868-3.433-4.837-7.248-5.906-11.45s-1.521-8.639-1.354-13.32l1.066-20.35c.1961-3.742 1.135-7.502 2.818-11.28 1.683-3.781 3.966-7.081 6.85-9.9 3.45-3.18 7.249-5.56 11.4-7.141 3.11-1.185 6.348-1.859 9.713-2.02zm48.08 2.232 20.23 1.061-2.666 50.86c-.1103 2.105 0 4.105.332 5.998.3307 1.893.9272 3.565 1.789 5.018.8619 1.452 1.972 2.624 3.332 3.516 1.36.892 3.014 1.39 4.963 1.492 1.949.1021 3.648-.2199 5.094-.9648 1.446-.7449 2.653-1.796 3.623-3.152s1.719-2.958 2.246-4.807c.5267-1.848.845-3.825.955-5.93l2.666-50.86 20.23 1.061-2.746 52.38c-.2697 5.145-1.198 9.825-2.787 14.04-1.589 4.216-3.77 7.796-6.543 10.74-2.773 2.942-6.151 5.149-10.14 6.621-3.985 1.472-8.549 2.033-13.69 1.686l-.1172-.006c-5.695-.2203-10.48-1.37-14.36-3.449-3.877-2.079-6.98-4.802-9.305-8.168-2.325-3.366-3.942-7.183-4.852-11.45-.909-4.269-1.243-8.702-1.002-13.3zm76.11 4.107 26.54 1.391c4.989.2615 9.101 1.24 12.33 2.934 3.233 1.694 5.776 3.859 7.631 6.496 1.855 2.638 3.123 5.674 3.803 9.109.6795 3.436.9227 7.026.7266 10.77-.2043 3.898-1.031 7.332-2.477 10.3-1.446 2.973-3.099 5.446-4.961 7.42-1.862 1.974-3.716 3.44-5.564 4.398-1.848.9584-3.28 1.411-4.293 1.357l15.16 34.13-17.06.5957-4.826-.252-10.21-28.91-.2344-.0117-1.482 28.3-19.64-1.031zm95.12 5.172c1.268-.0581 2.575-.0529 3.92.0176l.1171.006c4.755.2492 8.814 1.128 12.17 2.633s6.214 3.374 8.559 5.607c2.345 2.233 4.207 4.713 5.588 7.443 1.381 2.73 2.432 5.443 3.15 8.139l-17.45 8.582c-.3942-1.428-.9624-2.904-1.703-4.428-.7409-1.524-1.663-2.9-2.771-4.131-1.108-1.231-2.386-2.234-3.83-3.014s-2.986-1.174-4.627-1.182c-3.992.1035-7.251 1.516-9.777 4.236-2.527 2.721-3.902 6.224-4.127 10.51l-.8886 16.96c-.2247 4.287.7934 7.956 3.057 11.01 2.263 3.05 5.375 4.833 9.334 5.354 3.34.4095 6.172-.3005 8.496-2.133 2.324-1.832 4.141-4.083 5.453-6.75l16.46 10.36c-.7751 1.366-1.863 3.107-3.264 5.223s-3.327 4.164-5.775 6.146c-.072.0585-.1434.1159-.2168.1738l-39.76 1.389c-2.838-1.845-5.191-4.067-7.062-6.666-2.368-3.29-4.028-7.052-4.978-11.28-.9507-4.232-1.422-8.613-1.422-13.15l.9434-18.01c.3027-4.283 1.246-8.473 2.828-12.57 1.583-4.099 3.805-7.715 6.666-10.85s6.37-5.588 10.53-7.363c3.118-1.331 6.58-2.084 10.38-2.258zm45.31 2.188 53.32 2.795-1.029 19.64-33.68-1.764-.7344 14.03 24.79 1.299-1.031 19.64-24.79-1.299-.7363 14.03 33.68 1.766-.3086 5.877-53.56 1.871zm-119.5 99.14 15.89.832 2.992 85.67-19.66.6856-3.039-87.06zm-15.4.5371.6855 19.66-19.78.6914 2.354 67.4-19.66.6875-2.354-67.4-19.78.6914-.6856-19.66zm61.88 1.898 36.49 1.912c1.237.9254 2.423 1.944 3.56 3.057 2.912 2.866 5.137 6.148 6.672 9.844 1.535 3.695 2.41 7.53 2.627 11.51l.711 20.36c.1472 4.213-.3465 8.506-1.482 12.88-1.136 4.375-3.207 8.253-6.213 11.64-3.078 3.544-6.635 6.285-10.67 8.223-4.033 1.937-8.351 2.986-12.95 3.146l-.1172.004c-4.525.158-8.865-.5871-13.02-2.238-4.158-1.651-7.934-4.098-11.33-7.338-3.157-3.17-5.451-6.799-6.883-10.89s-2.268-8.474-2.51-13.15l-.7109-20.36c-.1307-3.745.4767-7.573 1.824-11.49 1.347-3.913 3.334-7.399 5.961-10.46 2.432-2.671 5.114-4.886 8.041-6.648zm-158.7 1.48c4.291-.1498 8.076.3238 11.36 1.42 3.28 1.096 6.065 2.541 8.354 4.336 2.289 1.795 4.098 3.86 5.43 6.195 1.331 2.336 2.231 4.667 2.703 6.994l-16.96 7.387c-.264-.85-.6494-1.793-1.154-2.83-.5049-1.037-1.183-1.989-2.033-2.857-.8506-.8685-1.851-1.595-3.004-2.18s-2.471-.8505-3.953-.7988c-1.56.0545-2.968.5912-4.221 1.611-1.253 1.02-1.845 2.505-1.777 4.455.052 1.482.7024 2.768 1.951 3.857 1.249 1.089 3.192 2.524 5.832 4.307 3.659 1.903 7.182 3.81 10.57 5.723 3.386 1.912 6.412 4.111 9.076 6.596 2.664 2.484 4.833 5.319 6.506 8.502 1.673 3.183 2.589 6.997 2.744 11.44l.057 1.639c-.058 2.814-.7656 5.475-2.123 7.982s-3.273 4.723-5.744 6.645c-2.471 1.922-5.481 3.472-9.033 4.65-3.552 1.178-7.59 1.846-12.12 2.004-3.51.1226-6.823-.2301-9.938-1.059s-5.948-2.056-8.504-3.686-4.757-3.643-6.598-6.039c-1.841-2.396-3.205-5.139-4.094-8.232l18.44-8.49c-.1402.0962.056.6344.5898 1.615.5425.9964 1.302 2.044 2.277 3.143.9757 1.098 2.162 2.072 3.559 2.922 1.396.8494 2.872 1.13 4.424.8418 1.321-.2023 2.606-.8335 3.857-1.893s1.801-2.68 1.646-4.861c-.1242-1.323-.6943-2.534-1.709-3.631-1.015-1.097-2.44-2.238-4.277-3.424-4.071-2.513-7.838-4.705-11.3-6.576-3.463-1.871-6.502-3.853-9.113-5.949s-4.686-4.484-6.225-7.164c-1.538-2.68-2.381-6.086-2.525-10.22-.1335-3.823.5308-7.206 1.99-10.15 1.459-2.941 3.441-5.431 5.947-7.471 2.506-2.04 5.419-3.627 8.738-4.758 3.319-1.131 6.772-1.799 10.36-2.002zm-41.19 1.322 1.83 52.42c.1798 5.149-.3375 9.892-1.553 14.23-1.215 4.338-3.076 8.095-5.582 11.27-2.506 3.173-5.68 5.665-9.522 7.479-3.842 1.813-8.339 2.771-13.49 2.873l-.1172.004c-5.692.2769-10.56-.4503-14.6-2.184-4.044-1.733-7.371-4.176-9.98-7.326-2.609-3.15-4.552-6.811-5.83-10.98s-1.999-8.561-2.16-13.16l-1.83-52.42 20.24-.707 1.777 50.9c.074 2.106.3571 4.088.8515 5.945s1.236 3.472 2.221 4.844c.9851 1.372 2.194 2.443 3.627 3.213s3.124 1.121 5.074 1.053c1.95-.0681 3.613-.5362 4.988-1.404 1.376-.8682 2.488-2.022 3.336-3.457.8481-1.436 1.453-3.095 1.816-4.982.3642-1.887.5096-3.886.4356-5.992l-1.777-50.9zm259.8.3379 26.4 1.383 18.06 30.54-1.035-29.64 20.89 1.094 2.522 72.17-19.89.6953-24.9-42.01 1.496 42.83-20.83.7266zm-363.5 3.402 28.55 86.17-22.35.7812-8.641-22.66-16.97.5918-6.922 23.21-22.35.7813 22.47-87.95zm-66.11 2.311 3.039 87.06-19.66.6875-1.178-33.7-23.29.8125 1.176 33.7-19.66.6856-3.039-87.06 19.66-.6875 1.176 33.7 23.29-.8125-1.178-33.7zm-71.85 2.508-21.88 44.35 24.92 42.71-22 .7676-12.04-22.54-10.43 23.33-22 .7676 21.88-44.35-24.92-42.71 22-.7676 12.04 22.54 10.43-23.33zm-78.63 2.746.6855 19.66-33.7 1.178.4902 14.04 24.81-.8652.6856 19.66-24.81.8672.4902 14.04 33.7-1.178.6856 19.66-53.36 1.863-3.039-87.06z"/>
</svg>
