<?xml version="1.0" encoding="UTF-8" standalone="no"?>
<svg viewBox="0 0 3840 2160" version="1.1" xmlns="http://www.w3.org/2000/svg">
    <defs>
        <filter id="textBlur216Primary" x="-.08979" y="-.6561" width="1.18" height="2.312" color-interpolation-filters="sRGB">
            <feGaussianBlur in="SourceGraphic" stdDeviation="6.75"/>
            <feOffset dx="0" dy="0" result="offsetblur"/>
            <feFlood flood-color="#ffffff"/>
            <feComposite in2="offsetblur" operator="in"/>
            <feMerge result="drop_shadow_0">
                <feMergeNode/>
                <feMergeNode in="SourceGraphic"/>
            </feMerge>
            <feGaussianBlur in="drop_shadow_0" stdDeviation="13.5"/>
            <feOffset dx="0" dy="0" result="offsetblur"/>
            <feFlood flood-color="#c6257d"/>
            <feComposite in2="offsetblur" operator="in"/>
            <feMerge result="drop_shadow_1">
                <feMergeNode/>
                <feMergeNode in="drop_shadow_0"/>
            </feMerge>
            <feGaussianBlur in="drop_shadow_1" stdDeviation="27"/>
            <feOffset dx="0" dy="0" result="offsetblur"/>
            <feFlood flood-color="#c6257d"/>
            <feComposite in2="offsetblur" operator="in"/>
            <feMerge result="drop_shadow_2">
                <feMergeNode/>
                <feMergeNode in="drop_shadow_1"/>
            </feMerge>
        </filter>
        <filter id="textBlur520Primary" x="-.75" y="-.875" width="2.5" height="2.75" color-interpolation-filters="sRGB">
            <feGaussianBlur in="SourceGraphic" stdDeviation="16.25"/>
            <feOffset dx="0" dy="0" result="offsetblur"/>
            <feFlood flood-color="#ffffff"/>
            <feComposite in2="offsetblur" operator="in"/>
            <feMerge result="drop_shadow_0">
                <feMergeNode/>
                <feMergeNode in="SourceGraphic"/>
            </feMerge>
            <feGaussianBlur in="drop_shadow_0" stdDeviation="32.5"/>
            <feOffset dx="0" dy="0" result="offsetblur"/>
            <feFlood flood-color="#c6257d"/>
            <feComposite in2="offsetblur" operator="in"/>
            <feMerge result="drop_shadow_1">
                <feMergeNode/>
                <feMergeNode in="drop_shadow_0"/>
            </feMerge>
            <feGaussianBlur in="drop_shadow_1" stdDeviation="65"/>
            <feOffset dx="0" dy="0" result="offsetblur"/>
            <feFlood flood-color="#c6257d"/>
            <feComposite in2="offsetblur" operator="in"/>
            <feMerge result="drop_shadow_2">
                <feMergeNode/>
                <feMergeNode in="drop_shadow_1"/>
            </feMerge>
        </filter>
        <filter id="textInset216Primary" x="-.006413" y="-.04687" width="1.013" height="1.094" color-interpolation-filters="sRGB">
            <feFlood flood-color="#ffffff" result="flood-white"/>
            <feFlood flood-color="#c6257d" result="flood-glow-color"/>
            <feComposite in="flood-glow-color" in2="SourceAlpha" operator="in" result="flooded"/>
            <feGaussianBlur in="SourceAlpha" result="inset_drop_shadow" stdDeviation="3.375"/>
            <feComposite in="flood-white" in2="inset_drop_shadow" operator="in" result="inset_drop_shadow_white"/>
            <feComposite in="inset_drop_shadow_white" in2="SourceAlpha" operator="in" result="inset_shadow"/>
            <feMerge result="final">
                <feMergeNode in="flooded"/>
                <feMergeNode in="inset_shadow"/>
            </feMerge>
        </filter>
        <filter id="textInset520Primary" x="-.05357" y="-.0625" width="1.107" height="1.125" color-interpolation-filters="sRGB">
            <feFlood flood-color="#ffffff" result="flood-white"/>
            <feFlood flood-color="#c6257d" result="flood-glow-color"/>
            <feComposite in="flood-glow-color" in2="SourceAlpha" operator="in" result="flooded"/>
            <feGaussianBlur in="SourceAlpha" result="inset_drop_shadow" stdDeviation="8.125"/>
            <feComposite in="flood-white" in2="inset_drop_shadow" operator="in" result="inset_drop_shadow_white"/>
            <feComposite in="inset_drop_shadow_white" in2="SourceAlpha" operator="in" result="inset_shadow"/>
            <feMerge result="final">
                <feMergeNode in="flooded"/>
                <feMergeNode in="inset_shadow"/>
            </feMerge>
        </filter>
        <filter id="textBlur520Secondary" x="-.5676" y="-.875" width="2.135" height="2.75" color-interpolation-filters="sRGB">
            <feGaussianBlur in="SourceGraphic" stdDeviation="16.25"/>
            <feOffset dx="0" dy="0" result="offsetblur"/>
            <feFlood flood-color="#ffffff"/>
            <feComposite in2="offsetblur" operator="in"/>
            <feMerge result="drop_shadow_0">
                <feMergeNode/>
                <feMergeNode in="SourceGraphic"/>
            </feMerge>
            <feGaussianBlur in="drop_shadow_0" stdDeviation="32.5"/>
            <feOffset dx="0" dy="0" result="offsetblur"/>
            <feFlood flood-color="#4badd8"/>
            <feComposite in2="offsetblur" operator="in"/>
            <feMerge result="drop_shadow_1">
                <feMergeNode/>
                <feMergeNode in="drop_shadow_0"/>
            </feMerge>
            <feGaussianBlur in="drop_shadow_1" stdDeviation="65"/>
            <feOffset dx="0" dy="0" result="offsetblur"/>
            <feFlood flood-color="#4badd8"/>
            <feComposite in2="offsetblur" operator="in"/>
            <feMerge result="drop_shadow_2">
                <feMergeNode/>
                <feMergeNode in="drop_shadow_1"/>
            </feMerge>
        </filter>
        <filter id="textInset520Secondary" x="-.04054" y="-.0625" width="1.081" height="1.125" color-interpolation-filters="sRGB">
            <feFlood flood-color="#ffffff" result="flood-white"/>
            <feFlood flood-color="#4badd8" result="flood-glow-color"/>
            <feComposite in="flood-glow-color" in2="SourceAlpha" operator="in" result="flooded"/>
            <feGaussianBlur in="SourceAlpha" result="inset_drop_shadow" stdDeviation="8.125"/>
            <feComposite in="flood-white" in2="inset_drop_shadow" operator="in" result="inset_drop_shadow_white"/>
            <feComposite in="inset_drop_shadow_white" in2="SourceAlpha" operator="in" result="inset_shadow"/>
            <feMerge result="final">
                <feMergeNode in="flooded"/>
                <feMergeNode in="inset_shadow"/>
            </feMerge>
        </filter>
        <path
          id="hare"
          fill="#c6257d"
          d="m 552.38375,655.64183 c -11.54753,0.7144 -22.56612,8.01045 -26.55365,19.96712 l -4.74807,14.23902 a 12.488422,12.488317 0 0 0 7.89652,15.79799 12.488422,12.488317 0 0 0 15.79812,-7.89646 l 4.74807,-14.23901 c 1.13214,-3.39473 4.41573,-4.3669 7.21606,-2.12773 l 24.2177,19.36791 c 10.05599,8.04088 16.94961,19.36255 19.4747,31.98192 l 2.88947,14.43198 c 3.84484,19.21483 17.7304,34.93783 36.32401,41.13268 l 28.4986,9.49605 c 13.36742,4.45365 25.46552,12.04466 35.28805,22.14056 l 14.98562,15.4019 0.59923,0.48242 c 6.75684,5.42747 11.09332,13.21442 12.39577,21.7597 -0.24051,9.90068 -5.77416,18.86725 -14.67586,23.34406 l -5.15941,2.59491 c -18.05865,9.08199 -26.29089,30.72969 -18.81962,49.51154 l 6.89104,17.32653 c 5.39199,13.55476 8.16059,28.00859 8.16059,42.59516 v 0.9953 c 0,14.57622 -2.77988,29.02052 -8.19613,42.55452 l -6.79963,16.9863 c -7.25981,18.1407 -4.52183,38.8029 7.20588,54.4323 l 8.32309,11.0956 0.24882,0.2895 c 5.25965,6.1769 6.05986,14.8135 2.16329,21.8866 -2.73758,3.754 -7.59997,4.1544 -10.87232,0.7414 l -2.42228,-2.5238 -0.41642,-0.3656 c -6.40956,-5.5881 -12.09047,-11.9643 -16.90515,-18.9718 l 0.87342,1.4878 c -6.69334,-13.3809 -16.17078,-25.174 -27.80287,-34.5869 a 12.488422,12.488317 0 0 0 -17.56532,1.8484 12.488422,12.488317 0 0 0 1.84845,17.5652 c 8.86128,7.1707 16.08789,16.1532 21.18605,26.3452 l 0.38595,0.7718 0.4875,0.7161 c 6.00335,8.7375 13.08294,16.6815 21.07432,23.6487 l -0.80743,-0.7719 2.03633,2.1227 c 14.02925,14.632 38.67507,12.4564 49.92329,-4.4078 l 0.2132,-0.3199 0.19292,-0.3301 c 9.43199,-16.2245 7.59166,-36.7563 -4.5754,-51.0451 l 0.48244,0.5992 -8.09459,-10.7859 c -6.51688,-8.685 -8.02477,-20.0855 -3.99141,-30.164 l 6.79456,-16.9863 c 6.59714,-16.4848 9.9887,-34.0772 9.98873,-51.83222 v -0.9953 c -3e-5,-17.74793 -3.37256,-35.33532 -9.93289,-51.82716 l -6.89104,-17.32652 c -2.76699,-6.95589 0.13988,-14.5991 6.8352,-17.96634 l 5.15954,-2.59492 c 17.61467,-8.8587 28.70881,-27.01487 28.5443,-46.72874 l -0.0104,-0.7668 -0.0965,-0.75664 c -1.99873,-15.19291 -9.79134,-29.04186 -21.73955,-38.63932 l 1.13241,1.02578 -14.4524,-14.85347 C 708.73071,789.5569 693.19251,779.80959 676.03671,774.09378 l -28.4935,-9.49099 c -10.13208,-3.3757 -17.63515,-11.87634 -19.72861,-22.33859 l -2.88946,-14.43198 c -3.6776,-18.37904 -13.72549,-34.8794 -28.36655,-46.58657 l -24.22279,-19.3679 c -5.90608,-4.72256 -13.02353,-6.66456 -19.95205,-6.23592 z m -44.25101,66.54353 c -4.77554,-0.21996 -9.59781,0.0596 -14.39147,0.8582 l -25.6599,4.27577 c -20.10111,3.34858 -30.9336,26.78766 -20.44464,44.26078 l 11.76608,19.60151 c 10.06331,16.76404 27.16683,28.1157 46.52601,30.87997 l 37.97949,5.42342 c 9.96674,1.42311 17.99935,8.66727 20.43957,18.42337 l 0.46717,1.86367 0.11172,0.36562 c 3.61383,11.41804 1.5262,23.81491 -5.56056,33.45458 -8.92086,10.40873 -22.21364,21.51776 -44.251,38.0198 l 0.34531,-0.24882 c -14.04758,9.79569 -27.52792,20.38102 -40.37638,31.7026 l -0.1625,0.13702 -0.15233,0.14716 c -34.85866,32.87567 -58.58641,77.33699 -64.9851,127.23709 -3.71735,18.741 -1.90394,38.162 5.24066,55.8846 l 0.17265,0.4214 0.20313,0.4114 c 7.97719,16.2444 19.94948,29.5839 29.38218,43.3264 l 0.19804,0.2894 0.21835,0.2793 c 8.59957,11.1259 13.50105,24.6462 14.05632,38.6901 -0.003,0.1097 -0.007,0.2421 -0.0101,0.3403 l 0.0203,-0.2641 c 0.001,0.036 0.009,0.071 0.0101,0.1066 v -0.2488 l 0.0305,-0.457 c -1.947,19.0914 6.32045,37.8464 21.72941,49.2881 l 0.35039,0.254 36.26308,23.2324 c 15.74461,10.0845 34.05295,15.4426 52.75185,15.4426 h 1.48282 l 1.43712,-0.3453 c 16.22694,-3.8967 28.1991,-17.7691 29.81382,-34.3483 2.47662,-16.5856 -4.48601,-33.2529 -18.129,-43.0522 l 1.54376,1.3101 -2.14297,-2.1379 c -8.42751,-8.4234 -12.48232,-20.2351 -11.00436,-32.053 l 6.29691,-50.3291 c 2.48394,-19.8618 -6.54846,-39.4825 -23.24777,-50.5221 l -11.86765,-7.8457 a 12.488422,12.488317 0 0 0 -17.30633,3.5293 12.488422,12.488317 0 0 0 3.52932,17.3062 l 11.87271,7.8457 c 8.82619,5.8348 13.54524,16.0983 12.23327,26.5889 l -6.29183,50.3241 c -2.43239,19.4496 4.26416,38.9593 18.12899,52.8174 l 2.859,2.8589 0.82774,0.5942 c 6.1406,4.4106 9.22861,11.8389 8.02856,19.2968 l -0.0711,0.452 -0.0406,0.4621 c -0.49399,5.7293 -4.35327,10.3563 -9.72975,12.1468 -13.30172,-0.3269 -26.28063,-4.1876 -37.50213,-11.375 l -35.3033,-22.6178 c -8.29113,-6.226 -12.7166,-16.2729 -11.66453,-26.589 l 0.0406,-0.4317 0.0153,-0.4316 c 0.0135,-0.4157 0.0226,-0.7958 0.0305,-1.1375 l 0.0101,-0.3707 -0.0153,-0.3758 c -0.71087,-19.3183 -7.45316,-37.9319 -19.27661,-53.2287 -10.33509,-14.9723 -21.14292,-27.6807 -26.92943,-39.2944 -5.1781,-13.1174 -6.49999,-27.439 -3.73752,-41.2749 l 0.0914,-0.4519 0.0558,-0.452 c 5.50593,-44.2515 26.44535,-83.61545 57.35263,-112.81522 12.08142,-10.63272 24.75196,-20.5769 37.9541,-29.78311 l 0.17266,-0.12194 0.16757,-0.12688 c 22.63276,-16.94786 37.44296,-29.00286 48.60298,-42.12291 l 0.24882,-0.29453 0.23358,-0.30468 c 12.07868,-16.10721 15.64708,-37.08718 9.57231,-56.28067 l 0.20821,0.73632 -0.37578,-1.48788 c -4.8875,-19.54052 -21.19551,-34.24296 -41.13808,-37.0905 l -37.97949,-5.42343 c -11.93442,-1.70409 -22.44021,-8.67809 -28.64077,-19.00735 l -11.76608,-19.60149 c -1.85452,-3.08941 -0.43072,-6.18049 3.13322,-6.7742 l 25.66498,-4.27577 c 12.19025,-2.03072 24.64897,1.21706 34.29783,8.9324 l 42.94591,34.34324 a 12.488422,12.488317 0 0 0 17.55517,-1.95507 12.488422,12.488317 0 0 0 -1.95508,-17.55503 l -42.94593,-34.34324 c -11.38563,-9.10406 -25.28803,-14.25455 -39.61465,-14.9144 z M 648.3811,1143.6429 a 12.488422,12.488317 0 0 0 -15.14305,9.0848 l -6.43401,25.7155 c -4.81951,19.2686 0.84504,39.7043 14.89422,53.7467 l 2.14297,2.1379 c 7.19833,7.1948 9.73313,17.6181 6.97231,27.3354 -3.4229,5.1496 -9.44265,7.8548 -15.61024,6.6778 a 12.488422,12.488317 0 0 0 -14.60983,9.9277 12.488422,12.488317 0 0 0 9.92777,14.6097 c 17.02563,3.2492 34.33814,-4.8102 42.80883,-19.9316 l 0.5789,-1.0309 0.3707,-1.1222 c 6.33051,-18.9823 1.37182,-39.9809 -12.78172,-54.1276 l -2.14295,-2.1429 c -7.87009,-7.8663 -11.01677,-19.2321 -8.31802,-30.0218 l 6.42893,-25.7156 a 12.488422,12.488317 0 0 0 -9.08481,-15.1429 z m -244.3149,20.6222 a 12.488422,12.488317 0 0 0 -7.22113,6.2614 l -1.53868,3.0874 c -8.94686,17.8933 4.69597,39.9596 24.70013,39.9597 h 0.50273 a 12.488422,12.488317 0 0 0 12.48718,-12.4871 12.488422,12.488317 0 0 0 -12.48718,-12.4871 h -0.50273 c -2.49098,0 -3.47592,-1.5957 -2.36642,-3.8136 l 1.54376,-3.0824 a 12.488422,12.488317 0 0 0 -5.58089,-16.7578 12.488422,12.488317 0 0 0 -9.53677,-0.6805 z" />
        <path
          id="eggshell"
          fill="#4badd8"
          d="m 3206.9939,655.58597 c -51.809,0 -104.8158,48.12479 -150.3627,117.25859 a 12.500342,12.500342 0 0 0 3.5597,17.31636 12.500342,12.500342 0 0 0 17.3164,-3.55976 c 43.3612,-65.81628 94.6716,-106.01566 129.4866,-106.01566 18.4376,0 41.9441,10.57875 66.2693,31.11357 24.3253,20.53482 49.2813,50.54406 71.4796,86.7747 44.3959,72.46129 77.7509,169.73055 77.7509,265.95063 -5e-4,119.2926 -95.8682,216.1599 -215.4998,216.1599 -119.6393,0 -215.4998,-96.8751 -215.4998,-216.1599 0,-80.25984 23.3937,-161.25389 57.1897,-227.98669 a 12.500342,12.500342 0 0 0 -5.5047,-16.79838 12.500342,12.500342 0 0 0 -16.7983,5.50467 c -35.3684,69.83767 -59.8861,154.19156 -59.8861,239.2804 0,132.7228 107.3248,241.1594 240.4992,241.1594 133.1666,0 240.4987,-108.4286 240.4992,-241.1594 3e-4,-101.94973 -34.7665,-202.84527 -81.4325,-279.01152 -23.3331,-38.08312 -49.6432,-70.00277 -76.6693,-92.81765 -27.0262,-22.81489 -54.96,-37.00926 -82.3974,-37.00926 z" />
        <path
          id="eggcracks"
          fill="#c6257d"
          d="m 3131.8783,1231.9396 a 12.500001,12.500001 0 0 0 4.5752,-4.5754 l 21.5972,-37.4074 c 10.6984,-18.5303 -2.503,-42.8919 -23.8688,-44.0468 l -27.9394,-1.5096 c -8.0173,-0.4333 -14.2562,-6.6086 -14.7729,-14.621 l -0.884,-13.709 c -1.3185,-20.4443 -17.8276,-36.8947 -38.2764,-38.1411 l -24.2437,-1.4777 a 12.500001,12.500001 0 0 0 -13.2371,11.7159 12.500001,12.500001 0 0 0 11.7161,13.238 l 24.2437,1.4778 c 8.0694,0.4918 14.329,6.729 14.8493,14.7966 l 0.8839,13.7091 c 1.3189,20.4498 17.91,36.8687 38.3725,37.9747 l 27.9384,1.5099 c 3.8018,0.2055 5.4713,3.286 3.5676,6.5832 l -21.5971,37.4073 a 12.500001,12.500001 0 0 0 4.5753,17.0754 12.500001,12.500001 0 0 0 12.5002,10e-5 z m 73.598,-526.26742 a 12.500001,12.500001 0 0 0 -6.4043,0.9228 12.500001,12.500001 0 0 0 -6.5654,16.4131 l 27.6523,64.5215 c 3.5344,8.247 1.0149,17.6712 -6.1631,23.0547 l -10,7.5 c -16.3493,12.262 -21.6395,34.6721 -12.5,52.9512 l 15.1397,30.2783 c 3.7641,7.5283 1.5963,16.4553 -5.2012,21.419 l -22.1201,16.1523 c -16.5998,12.1215 -17.9233,37.0837 -2.6983,50.89258 l 50.4639,45.77054 c 15.2142,13.799 38.9088,13.2211 53.4326,-1.3028 l 33.4873,-33.4873 c 3.1063,-3.10624 6.8085,-1.87429 7.4356,2.4737 l 6.042,41.8925 c 2.9221,20.2618 20.4691,35.46 40.9404,35.46 h 23.0781 a 12.500001,12.500001 0 0 0 12.5,-12.5 12.500001,12.500001 0 0 0 -12.5,-12.5 h -23.0781 c -8.2279,0 -15.0218,-5.8847 -16.1963,-14.0283 l -6.042,-41.89357 c -3.3415,-23.16975 -33.3044,-33.13505 -49.8574,-16.58204 l -33.4873,33.48731 c -5.275,5.2749 -13.4333,5.4736 -18.959,0.4619 l -50.4639,-45.77052 c -3.8917,-3.5297 -3.5976,-9.0861 0.6455,-12.1845 l 22.1202,-16.1524 c 16.5148,-12.0595 21.9635,-34.4987 12.8183,-52.7891 l -15.1396,-30.2783 c -3.8091,-7.6182 -1.6743,-16.6601 5.1396,-21.7705 l 10,-7.5 c 16.2975,-12.2231 22.1665,-34.1776 14.1416,-52.9023 l -27.6523,-64.5215 a 12.500001,12.500001 0 0 0 -10.0088,-7.4883 z" />
        <path
          id="unhandled"
          fill="#c6257d"
          d="m 925.47448,655.58598 c -3.45967,0 -6.57046,1.2146 -9.34046,3.64057 -2.42113,2.42597 -3.6325,5.54646 -3.6325,9.35662 v 181.99946 c 0,21.14729 5.1879,40.73757 15.56852,58.76436 10.7279,17.67793 24.91061,31.88972 42.55463,42.63377 17.99126,10.40324 37.54273,15.60083 58.64483,15.60083 21.1053,0 40.4775,-5.19759 58.1232,-15.60083 17.9912,-10.74405 32.1804,-24.95584 42.5594,-42.63377 10.7279,-18.03002 16.0838,-37.61707 16.0838,-58.76436 V 668.58317 c 0,-3.81016 -1.213,-6.93065 -3.6341,-9.35662 -2.4244,-2.42597 -5.5336,-3.64058 -9.3373,-3.64058 -3.4629,0 -6.5753,1.21461 -9.3404,3.64058 -2.4244,2.42597 -3.6374,5.54646 -3.6374,9.35662 v 181.99946 c 0,16.64099 -4.1525,31.88972 -12.4545,45.75909 -7.9579,13.86454 -18.8537,24.95908 -32.6924,33.28037 -13.8403,7.97082 -29.0648,11.9635 -45.6703,11.9635 -16.6087,0 -31.83479,-3.98945 -45.67348,-11.9635 -13.83869,-8.32129 -24.90577,-19.41583 -33.20769,-33.28037 -7.95789,-13.86937 -11.94411,-29.1181 -11.94411,-45.75909 V 668.58317 c 0,-3.81016 -1.20976,-6.93065 -3.63411,-9.35662 -2.41951,-2.42597 -5.53354,-3.64057 -9.33886,-3.64057 z m 493.26342,0 c -3.4597,0 -6.5737,1.2146 -9.3405,3.64057 -2.4211,2.42597 -3.6341,5.54646 -3.6341,9.35662 V 954.5844 c 0,3.46612 1.213,6.585 3.6341,9.35661 2.7668,2.42921 5.8808,3.64381 9.3405,3.64381 3.8053,0 6.9194,-1.2146 9.3405,-3.64381 2.4211,-2.77161 3.6341,-5.89049 3.6341,-9.35661 V 668.58317 c 0,-3.81016 -1.2098,-6.93065 -3.6325,-9.35662 -2.4228,-2.42597 -5.5336,-3.64057 -9.3389,-3.64057 z m 821.6286,0 c -3.4596,0 -6.5721,1.2146 -9.3421,3.64057 -2.4211,2.4292 -3.6325,5.54646 -3.6325,9.35985 v 207.99707 c 0,14.21342 -3.9765,26.86819 -11.9311,37.96111 -7.9579,11.09453 -18.345,18.89252 -31.1452,23.39882 -7.9579,2.42759 -15.2213,3.64219 -21.7966,3.64219 -11.7647,0 -22.659,-2.94767 -32.6907,-8.84301 -9.6878,-5.8921 -17.4777,-13.6917 -23.3585,-23.39559 -5.884,-10.05437 -8.8187,-20.97931 -8.8187,-32.76675 v -25.99761 c 0,-11.78421 2.9347,-22.5331 8.8187,-32.23698 5.8808,-10.05599 13.6707,-18.03004 23.3585,-23.92213 10.0317,-5.89534 20.9292,-8.84139 32.6907,-8.84139 l 25.946,0.002 c 3.8053,0 6.9258,-1.21461 9.3469,-3.64058 2.4244,-2.77484 3.6357,-5.8921 3.6357,-9.35824 0,-3.81501 -1.2113,-6.93388 -3.6357,-9.35984 -2.4211,-2.42597 -5.5416,-3.64057 -9.3469,-3.64057 h -25.946 c -16.2613,0 -31.4777,4.16064 -45.6653,12.48195 -13.8403,7.97404 -24.9122,19.06697 -33.2158,33.28198 -7.9563,13.86616 -11.9409,28.94367 -11.9409,45.23418 v 26.00084 c 0,16.29373 3.9846,31.54892 11.9409,45.76234 8.3036,13.86614 19.3755,24.96068 33.2158,33.27875 14.1843,7.97404 29.404,11.96026 45.6653,11.96026 9.6861,0 19.7228,-1.73469 30.105,-5.20082 17.9913,-6.24259 32.5229,-17.1643 43.5916,-32.76514 11.4175,-15.94485 17.1239,-33.62278 17.1239,-53.03862 V 668.58317 c 0,-3.81016 -1.2114,-6.93065 -3.6325,-9.35662 -2.4244,-2.42597 -5.5335,-3.64057 -9.3405,-3.64057 z m 61.0999,0 c -3.4629,0 -6.5801,1.2146 -9.3469,3.64057 -2.4244,2.4292 -3.6325,5.54646 -3.6325,9.35985 v 246.9935 c 0,14.21179 5.0167,26.52254 15.0501,36.92094 10.379,10.05437 22.6623,15.08075 36.8499,15.08075 6.228,0 12.1088,-1.03694 17.6456,-3.11726 5.8808,-2.08033 11.2399,-5.20405 16.0854,-9.36469 3.1124,-2.42598 4.8438,-5.37364 5.1879,-8.84301 0.3488,-3.46613 -0.5185,-6.58339 -2.5924,-9.35501 -2.7683,-3.46936 -6.052,-5.20243 -9.8557,-5.20243 -3.4629,0 -6.2329,0.86734 -8.3084,2.60202 -5.8824,4.85195 -11.9344,7.28115 -18.1624,7.28115 -7.2683,0 -13.4963,-2.4292 -18.6842,-7.28115 -4.8439,-5.20243 -7.265,-11.4434 -7.265,-18.72454 v -246.9935 c 0,-3.81016 -1.213,-6.93065 -3.6341,-9.35662 -2.4179,-2.42597 -5.5303,-3.64057 -9.3373,-3.64057 z m 496.0576,1.1e-4 c -3.4597,0 -6.577,1.2146 -9.347,3.64057 -2.4211,2.42921 -3.6276,5.54647 -3.6276,9.35986 v 207.99707 c 0,14.21341 -3.9814,26.86818 -11.9425,37.9611 -7.9563,11.09453 -18.3353,18.89253 -31.1355,23.39882 -7.9579,2.42759 -15.2229,3.64219 -21.7998,3.64219 -11.7616,0 -22.6623,-2.94767 -32.6957,-8.843 -9.6893,-5.89211 -17.4728,-13.69171 -23.3536,-23.39559 -5.8808,-10.05438 -8.8252,-20.97931 -8.8252,-32.76675 v -25.99762 c 0,-11.78421 2.9444,-22.5331 8.8252,-32.23698 5.8808,-10.05598 13.6643,-18.03003 23.3536,-23.92212 10.0302,-5.89534 20.9341,-8.84139 32.6957,-8.84139 l 25.9492,0.002 c 3.8069,0 6.9242,-1.21461 9.3485,-3.64058 2.4228,-2.77484 3.6261,-5.8921 3.6261,-9.35824 0,-3.81501 -1.2033,-6.93388 -3.6261,-9.35984 -2.4243,-2.4292 -5.5416,-3.6438 -9.3485,-3.6438 l -25.946,0.003 c -16.263,0 -31.4875,4.16064 -45.6735,12.48195 -13.8387,7.97404 -24.9106,19.06697 -33.2141,33.28198 -7.9563,13.86615 -11.9361,28.94366 -11.9361,45.23417 v 26.00085 c 0,16.29373 3.9798,31.54892 11.9361,45.76233 8.3035,13.86614 19.3754,24.96068 33.2141,33.27876 14.186,7.97403 29.4105,11.96025 45.6735,11.96025 9.6862,0 19.7195,-1.73468 30.0986,-5.20082 17.988,-6.24258 32.5196,-17.1643 43.5915,-32.76513 11.4208,-15.94486 17.1303,-33.62279 17.1303,-53.03862 V 668.58329 c 0,-3.81016 -1.213,-6.93065 -3.6341,-9.35663 -2.421,-2.42597 -5.5302,-3.64057 -9.3371,-3.64057 z M 1201.9479,759.58452 c -3.4597,0 -6.5705,1.2146 -9.3405,3.64057 -2.4211,2.42919 -3.6325,5.54483 -3.6325,9.35984 V 954.5844 c 0,3.46612 1.2114,6.585 3.6357,9.35661 2.7668,2.42921 5.8776,3.64381 9.3405,3.64381 3.8053,0 6.9161,-1.2146 9.3405,-3.64381 2.4211,-2.77161 3.6341,-5.89049 3.6341,-9.35661 V 772.58493 c 0,-3.81501 -1.2114,-6.93388 -3.6357,-9.35984 -2.4212,-2.42597 -5.5336,-3.64057 -9.3389,-3.64057 z m 77.8491,0 c -9.6877,0 -19.7244,1.73145 -30.1034,5.2008 -3.4629,1.38581 -6.0552,3.63896 -7.7867,6.75945 -1.3841,3.12049 -1.5554,6.41542 -0.5168,9.88155 1.3858,3.46614 3.6309,6.06331 6.7449,7.798 3.1156,1.38904 6.4041,1.38904 9.8638,0 3.4613,-1.04017 6.9193,-1.90589 10.3806,-2.60041 3.8053,-0.69129 7.6106,-1.04016 11.4176,-1.04016 11.7648,0 22.4895,2.94605 32.1756,8.843 10.0334,5.89209 17.988,13.86776 23.8688,23.92052 5.8808,9.70872 8.8253,20.45276 8.8253,32.23859 V 954.5844 c 0,3.46935 1.2113,6.58661 3.6324,9.35984 2.7668,2.42598 5.8808,3.64058 9.3405,3.64058 3.8053,0 6.9258,-1.2146 9.347,-3.64058 2.4243,-2.77323 3.6276,-5.89049 3.6276,-9.35984 V 850.58586 c 0,-16.29212 -4.1445,-31.36964 -12.4497,-45.23741 -7.9627,-14.21501 -19.0346,-25.30794 -33.2173,-33.28198 -13.8387,-8.31808 -28.8904,-12.48195 -45.1502,-12.48195 z m 216.79,0 c -9.6909,0 -19.7275,1.73145 -30.1066,5.2008 -3.4596,1.38581 -6.052,3.63896 -7.7834,6.75945 -1.3874,3.12049 -1.5554,6.41542 -0.5169,9.88155 1.3826,3.46614 3.6309,6.06331 6.7449,7.798 3.1125,1.38904 6.4042,1.38904 9.8638,0 7.9563,-2.42597 15.2213,-3.64057 21.7982,-3.64057 11.7616,0 22.4862,2.94605 32.1739,8.843 10.035,5.89209 17.9865,13.86776 23.8705,23.92052 5.8808,9.70872 8.822,20.45276 8.822,32.23859 V 954.5844 c 0,3.46935 1.2114,6.58661 3.6357,9.35984 2.7668,2.42598 5.8776,3.64058 9.3405,3.64058 3.8053,0 6.9226,-1.2146 9.3437,-3.64058 2.4244,-2.77323 3.6373,-5.89049 3.6373,-9.35984 V 850.58586 c 0,-16.29212 -4.1542,-31.36964 -12.4593,-45.23741 -7.9595,-14.21501 -19.0314,-25.30794 -33.2158,-33.28198 -13.8403,-8.31808 -28.8886,-12.48195 -45.1485,-12.48195 z m 202.7736,0 c -15.5685,0 -29.5816,4.50952 -42.0394,13.52211 -12.1072,8.66534 -20.5868,20.10229 -25.4307,34.31408 -1.0369,3.815 -0.8608,7.10993 0.5234,9.88478 1.3858,2.77161 3.8037,4.85194 7.2601,6.24098 3.1157,1.38581 6.2361,1.38581 9.3502,0 3.4596,-1.73145 5.8759,-4.33186 7.2617,-7.80123 3.1108,-9.01421 8.4796,-16.29212 16.0886,-21.84019 7.9579,-5.54646 16.9528,-8.32292 26.9861,-8.32292 l 38.9206,0.002 c 7.6122,0 14.8772,1.91235 21.7966,5.72412 6.9193,3.81178 12.4545,9.18218 16.607,16.11445 4.4983,6.93388 6.745,14.90955 6.745,23.92213 v 123.23995 c 0,3.46612 1.2129,6.585 3.6341,9.35661 2.77,2.42921 5.8872,3.64381 9.3469,3.64381 3.8037,0 6.9193,-1.2146 9.3405,-3.64381 2.4211,-2.77161 3.6341,-5.89049 3.6341,-9.35661 V 831.34445 c 0,-13.51888 -3.2885,-25.65035 -9.8638,-36.396 -6.5737,-11.09293 -15.3973,-19.76311 -26.4693,-26.00409 -11.0719,-6.24258 -22.6607,-9.35984 -34.7711,-9.35984 z m 163.3331,0 c -3.4597,0 -6.5721,1.2146 -9.3405,3.64057 -2.4228,2.42919 -3.6341,5.54483 -3.6341,9.35984 V 954.5844 c 0,3.46612 1.2113,6.585 3.6357,9.35661 2.7668,2.42921 5.8792,3.64381 9.3421,3.64381 3.8037,0 6.9209,-1.2146 9.3421,-3.64381 2.4243,-2.77161 3.6292,-5.89049 3.6292,-9.35661 V 772.58493 c 0,-3.81501 -1.2065,-6.93388 -3.6292,-9.35984 -2.4228,-2.42597 -5.5416,-3.64057 -9.3453,-3.64057 z m 77.8458,0 c -9.6861,0 -19.7146,1.73145 -30.0952,5.2008 -3.4597,1.38581 -6.0553,3.63896 -7.7835,6.75945 -1.3874,3.12049 -1.5635,6.41542 -0.5249,9.88155 1.3825,3.46614 3.6309,6.06331 6.7449,7.798 3.114,1.38904 6.4025,1.38904 9.8622,0 3.4629,-1.04017 6.9193,-1.90589 10.3822,-2.60041 3.8053,-0.69129 7.609,-1.04016 11.4143,-1.04016 11.7681,0 22.4912,2.94605 32.1773,8.843 10.0333,5.89209 17.9977,13.86776 23.8753,23.92052 5.8808,9.70872 8.8252,20.45276 8.8252,32.23859 V 954.5844 c 0,3.46935 1.2114,6.58661 3.6325,9.35984 2.77,2.42598 5.8808,3.64058 9.3405,3.64058 3.8053,0 6.9193,-1.2146 9.3421,-3.64058 2.4243,-2.77323 3.6325,-5.89049 3.6325,-9.35984 V 850.58586 c 0,-16.29212 -4.1526,-31.36964 -12.4578,-45.23741 -7.9579,-14.21501 -19.0314,-25.30794 -33.2157,-33.28198 -13.8387,-8.31808 -28.8888,-12.48195 -45.1519,-12.48195 z m 555.1205,0 c -16.263,0 -31.4875,4.16064 -45.6734,12.48195 -13.8387,7.97404 -24.9106,19.06697 -33.2158,33.28198 -7.9547,13.86616 -11.9344,28.94367 -11.9344,45.23418 v 26.00084 c 0,16.29373 3.9797,31.54892 11.9344,45.76234 8.3052,13.86614 19.3771,24.96068 33.2158,33.27875 14.1859,7.97404 29.4104,11.96026 45.6734,11.96026 16.9527,0 32.5196,-4.33348 46.704,-13.00042 14.1859,-9.0126 24.9106,-19.93593 32.1772,-32.76352 1.7282,-3.12049 2.0755,-6.40734 1.0385,-9.87348 -1.0385,-3.46613 -3.1156,-6.06654 -6.2296,-7.80122 -2.0755,-1.38581 -5.0167,-1.91235 -8.822,-1.56671 -3.4613,0.34888 -6.4025,2.60687 -8.8237,6.76752 -6.2296,10.05276 -14.1843,18.02034 -23.8704,23.91568 -9.6877,5.54807 -20.4124,8.32292 -32.1772,8.32292 -11.7616,0 -22.6623,-2.94767 -32.6972,-8.83978 -9.6878,-5.89533 -17.4712,-13.69493 -23.352,-23.39882 -5.8825,-10.05437 -8.8253,-20.97608 -8.8253,-32.76352 v -26.00084 c 0,-11.78421 2.9412,-22.52987 8.8253,-32.23698 5.8808,-10.05114 13.6642,-18.03004 23.352,-23.92213 10.0317,-5.89372 20.9356,-8.84139 32.6972,-8.84139 10.3822,0 20.0619,2.25638 29.0599,6.76591 8.9932,4.50629 16.4375,10.74242 22.3183,18.71485 6.2297,7.97405 10.2046,16.81543 11.9328,26.52093 0.6945,3.81501 -0.1712,6.93227 -2.5939,9.35824 -2.0739,2.4292 -4.6695,3.64057 -7.7851,3.64057 h -65.9115 c -3.4595,0 -6.572,1.21783 -9.3387,3.6438 -2.4244,2.42597 -3.6358,5.54485 -3.6358,9.35985 0,3.46613 1.2114,6.58339 3.6358,9.35662 2.7667,2.42759 5.8792,3.64219 9.3387,3.64219 l 64.8746,-0.002 c 8.3051,0 15.5685,-2.25315 21.7982,-6.75944 6.2264,-4.5063 10.7263,-10.23042 13.4963,-17.16269 2.7667,-6.93388 3.2852,-13.86615 1.5537,-20.79842 -3.114,-14.56066 -9.166,-27.20898 -18.1608,-37.95787 -8.6508,-11.08969 -19.2075,-19.58543 -31.662,-25.47915 -12.1105,-5.8921 -25.0818,-8.84138 -38.9173,-8.84138 z m -796.2994,65.00211 c -12.8033,0 -24.7394,3.28846 -35.8081,9.87347 -11.0719,6.24098 -19.8955,14.91439 -26.4708,26.00569 -6.2281,10.74727 -9.3405,22.52987 -9.3405,35.35585 0,12.8276 3.1124,24.78787 9.3405,35.88078 6.5753,11.09131 15.3989,19.9327 26.4708,26.52093 11.0687,6.24098 23.008,9.35824 35.8081,9.35824 l 45.1502,0.003 c 3.8037,0 6.9162,-1.2146 9.3373,-3.64381 2.4243,-2.77161 3.6373,-5.89049 3.6373,-9.35661 0,-3.81178 -1.213,-6.93227 -3.6373,-9.35824 -2.4211,-2.4292 -5.5303,-3.64057 -9.3373,-3.64057 h -45.1502 c -12.8033,0 -23.704,-4.33348 -32.6989,-13.00043 -8.6508,-9.01097 -12.9713,-19.93592 -12.9713,-32.7619 0,-12.47872 4.3238,-23.0548 12.9713,-31.72336 8.9932,-9.00936 19.8956,-13.51727 32.6989,-13.51727 h 45.1502 c 3.8037,0 6.9162,-1.21137 9.3373,-3.64057 2.4243,-2.77162 3.6373,-5.88888 3.6373,-9.35824 0,-3.8134 -1.213,-6.9355 -3.6373,-9.3647 -2.4211,-2.42596 -5.5303,-3.63249 -9.3373,-3.63249 z" />
        <path
          id="eggception"
          fill="#4badd8"
          d="m 951.44251,993.58484 c -10.72908,0 -19.90084,3.81616 -27.5169,11.44196 -7.61281,7.6274 -11.42409,16.8106 -11.42409,27.5575 v 64.9964 c 0,3.4686 1.21305,6.5914 3.63265,9.365 2.77036,2.4277 5.88823,3.6391 9.352,3.6391 3.80479,0 6.91942,-1.2147 9.34227,-3.6391 2.42285,-2.7736 3.63103,-5.8964 3.63103,-9.365 v -64.9964 c 0,-3.8113 1.21792,-6.9373 3.64077,-9.3666 2.76712,-2.4261 5.88175,-3.6359 9.34227,-3.6359 H 1081.242 c 3.808,0 6.9194,-1.2115 9.3423,-3.6392 2.4228,-2.7736 3.6326,-5.8898 3.6326,-9.3569 0,-3.8112 -1.213,-6.93561 -3.6326,-9.36171 -2.4229,-2.42772 -5.5343,-3.63915 -9.3423,-3.63915 z m 1250.21999,0 c -3.4605,0 -6.5719,1.21143 -9.3406,3.6359 -2.4245,2.4261 -3.6327,5.55206 -3.6327,9.36496 v 38.9995 c 0,10.7469 3.8032,19.9284 11.4193,27.5575 7.6128,7.6274 16.7894,11.4419 27.5201,11.4419 h 12.9749 c 3.8064,0 6.9259,-1.2179 9.3488,-3.644 2.4228,-2.7752 3.6343,-5.8915 3.6343,-9.3585 0,-3.8129 -1.2115,-6.9356 -3.6343,-9.3617 -2.4229,-2.4278 -5.5424,-3.6392 -9.3488,-3.6392 h -12.9749 c -3.4621,0 -6.5816,-1.2114 -9.352,-3.6391 -2.4229,-2.772 -3.6294,-5.8899 -3.6294,-9.3537 v -39.0027 c 0,-3.8112 -1.2131,-6.93561 -3.6359,-9.36171 -2.4212,-2.42772 -5.5407,-3.63915 -9.3488,-3.63915 z m 304.0902,0 c -2.7672,0 -7.2686,0.34427 -13.4995,1.0393 -4.503,0.34426 -7.7865,1.90482 -9.8618,4.67844 -1.7294,2.77202 -2.595,5.72102 -2.595,8.84212 0,3.1195 1.382,6.0636 4.1522,8.8372 2.7671,2.772 6.4063,3.9851 10.9045,3.6392 4.8473,-0.6951 8.4767,-1.0393 10.8996,-1.0393 11.7667,0 22.499,2.9473 32.1921,8.8437 10.0389,5.8931 17.9976,13.8648 23.881,23.9167 5.885,9.7077 8.8242,20.4546 8.8242,32.2457 v 25.9969 c 0,11.7846 -2.9392,22.7086 -8.8242,32.7605 -5.8834,9.7076 -13.8437,17.5088 -23.881,23.3987 -9.6931,5.8931 -20.4238,8.8339 -32.1921,8.8339 -11.7684,0 -22.6729,-2.9408 -32.7133,-8.8339 -9.6914,-5.8899 -17.478,-13.6911 -23.3613,-23.3987 -5.885,-10.0519 -8.821,-20.9743 -8.821,-32.7605 v -25.9969 c 0,-12.8304 3.6277,-24.7888 10.8963,-35.8832 1.7327,-3.1195 2.2507,-6.416 1.5606,-9.883 -0.6935,-3.467 -2.4229,-6.2358 -5.1933,-8.3176 -3.1146,-1.7343 -6.3981,-2.2524 -9.8586,-1.559 -3.4638,0.6918 -6.2342,2.4229 -8.3127,5.1981 -10.0373,15.5975 -15.0503,32.413 -15.0503,50.4447 v 25.9969 c 0,16.2925 3.9753,31.5442 11.9389,45.7549 8.3046,13.868 19.3844,24.9625 33.2281,33.2833 14.1928,7.9733 29.42,11.9616 45.6866,11.9616 16.2681,0 31.3233,-3.9883 45.1686,-11.9616 14.188,-8.3208 25.2662,-19.4153 33.2281,-33.2833 8.3079,-14.2107 12.4634,-29.4624 12.4634,-45.7549 v -25.9969 c 0,-16.2958 -4.1555,-31.3801 -12.4634,-45.2466 -7.957,-14.2139 -19.0401,-25.3019 -33.2281,-33.2752 -13.8486,-8.32084 -28.9005,-12.48126 -45.1686,-12.48126 z m 135.9987,0 c -3.4605,0 -6.5816,1.21143 -9.3504,3.63753 -2.4244,2.42772 -3.631,5.54883 -3.631,9.36333 v 181.9948 c 0,3.4686 1.2098,6.5849 3.631,9.3601 2.7688,2.4261 5.8899,3.644 9.3504,3.644 3.8081,0 6.9194,-1.2179 9.3407,-3.644 2.4228,-2.7752 3.6407,-5.8931 3.6407,-9.3601 v -181.9948 c 0,-3.8145 -1.2179,-6.93561 -3.6407,-9.36333 -2.4245,-2.4261 -5.5359,-3.63753 -9.3407,-3.63753 z m 77.8804,0 c -9.6914,0 -19.7336,1.72783 -30.1184,5.19809 -3.4605,1.38357 -6.0522,3.64397 -7.7849,6.76347 -1.382,3.1195 -1.5573,6.4096 -0.5197,9.8766 1.3852,3.467 3.6343,6.0685 6.7489,7.8028 3.113,1.3884 6.4047,1.3884 9.8668,0 3.4605,-1.0393 6.9194,-1.9113 10.38,-2.6047 3.808,-0.6951 7.6193,-1.0393 11.4273,-1.0393 11.7667,0 22.4991,2.9473 32.1921,8.8437 10.0389,5.8931 17.9976,13.8648 23.881,23.9167 5.885,9.7077 8.8242,20.4546 8.8242,32.2457 v 103.9958 c 0,3.4654 1.2098,6.5817 3.6327,9.3569 2.7671,2.4261 5.8866,3.644 9.3488,3.644 3.808,0 6.9194,-1.2179 9.3421,-3.644 2.4229,-2.7752 3.6424,-5.8915 3.6424,-9.3569 v -103.9958 c 0,-16.2958 -4.1588,-31.3801 -12.4665,-45.2466 -7.9604,-14.2139 -19.0369,-25.3019 -33.2282,-33.2752 -13.8453,-8.32084 -28.9004,-12.48126 -45.1686,-12.48126 z m -375.3897,0 c -3.4589,0 -6.5719,1.3933 -9.339,4.16367 -2.4245,2.42769 -3.6424,5.37179 -3.6424,8.83559 0,3.4687 1.2179,6.5914 3.6424,9.365 2.7671,2.4277 5.8801,3.6392 9.339,3.6392 3.8113,0 6.9276,1.3835 9.352,4.1588 2.4229,2.4261 3.6327,5.5407 3.6327,9.3536 0,3.8145 -1.2098,6.9356 -3.6327,9.3634 -2.4244,2.0818 -5.5407,3.1195 -9.352,3.1195 -3.8048,0 -6.9161,-1.2131 -9.339,-3.6376 -2.4245,-2.4261 -3.6424,-5.3783 -3.6424,-8.8453 0,-4.5063 -1.3819,-7.7947 -4.1523,-9.8765 -2.7671,-2.4261 -5.7064,-3.6359 -8.821,-3.6359 -3.4605,0 -6.58,1.2114 -9.3504,3.6359 -2.4228,2.4293 -3.6342,5.7177 -3.6342,9.8765 0,10.4027 3.8112,19.4185 11.4273,27.046 7.6144,7.6258 16.7846,11.437 27.512,11.437 10.7307,0 19.909,-3.8112 27.5234,-11.437 7.6128,-7.6275 11.4193,-16.6433 11.4193,-27.046 0,-10.747 -3.8065,-19.9284 -11.4193,-27.5575 -7.6144,-7.9717 -16.7894,-11.96161 -27.5234,-11.95836 z m -1132.6454,0 c -16.2682,0 -31.4922,4.16042 -45.6834,12.48126 -13.8486,7.9733 -24.9252,19.0613 -33.2298,33.2752 -7.9636,13.8697 -11.947,28.9524 -11.947,45.2466 v 25.9969 c 0,16.2925 3.9834,31.5442 11.947,45.7565 8.3079,13.8664 19.3844,24.9641 33.2298,33.2817 14.1912,7.9733 29.4152,11.9616 45.6834,11.9616 10.0389,0 19.7254,-1.5654 29.0709,-4.6833 3.808,-1.3852 6.5817,-3.6391 8.3144,-6.7586 1.731,-3.1196 2.0753,-6.4096 1.0376,-9.8766 -1.3852,-3.8145 -3.6343,-6.416 -6.7473,-7.8028 -3.1146,-1.3884 -6.4062,-1.5605 -9.8684,-0.5213 -7.9603,2.4278 -15.2288,3.6376 -21.804,3.6376 -11.7684,0 -22.6744,-2.9425 -32.7117,-8.8356 -9.6914,-5.8932 -17.4796,-13.6911 -23.3614,-23.3987 -5.8866,-10.0536 -8.8242,-20.9759 -8.8242,-32.7605 v -25.9969 c 0,-11.7895 2.9376,-22.538 8.8242,-32.2441 5.8818,-10.0551 13.67,-18.0252 23.3614,-23.9183 10.0373,-5.8947 20.9433,-8.847 32.7117,-8.847 11.7684,0 22.5007,2.9506 32.1937,8.847 10.0373,5.8931 17.9976,13.8632 23.881,23.9183 5.8818,9.7044 8.821,20.4546 8.821,32.2441 v 130.5124 c 0,11.7878 -2.9392,22.5348 -8.821,32.244 -5.8834,10.0519 -13.8437,17.8499 -23.881,23.3955 -9.693,5.8947 -20.4253,8.847 -32.1937,8.847 -11.7684,0 -22.1548,-2.6048 -31.156,-7.8061 -8.9997,-4.8522 -16.7846,-12.1321 -23.3598,-21.8365 -1.7327,-2.7753 -4.4998,-4.5063 -8.3046,-5.2013 -3.4637,-0.6918 -6.757,0.1753 -9.87,2.6014 -2.7671,2.0802 -4.4965,4.8506 -5.1883,8.3176 -0.3459,3.467 0.5164,6.7635 2.595,9.883 8.9996,12.8256 20.0794,22.7037 33.2297,29.6361 13.4978,6.934 27.5153,10.4027 42.054,10.4027 16.6141,0 31.8413,-4.1621 45.6866,-12.4813 13.8438,-7.9733 24.7498,-19.0629 32.7134,-33.2752 8.3062,-13.8697 12.4618,-28.9508 12.4618,-45.2466 v -129.9927 c 0,-16.6417 -4.1556,-31.8998 -12.4618,-45.763 -7.9603,-13.8697 -19.0418,-24.7839 -33.233,-32.7556 -13.8453,-8.32079 -28.9004,-12.48446 -45.1702,-12.48446 z m 213.4314,0 c -16.2649,0 -31.5035,4.16042 -45.6915,12.48126 -13.8453,7.9733 -24.917,19.0613 -33.2216,33.2752 -7.9636,13.8697 -11.947,28.9524 -11.947,45.2466 v 25.9969 c 0,16.2925 3.9834,31.5442 11.947,45.7565 8.3078,13.8664 19.3763,24.9641 33.2216,33.2817 14.1912,7.9733 29.4266,11.9616 45.6915,11.9616 10.039,0 19.7271,-1.5654 29.071,-4.6833 3.8097,-1.3852 6.5817,-3.6391 8.3144,-6.7586 1.7294,-3.1196 2.0753,-6.4096 1.0376,-9.8766 -1.3852,-3.8145 -3.6391,-6.416 -6.7538,-7.8028 -3.1162,-1.3884 -6.403,-1.5605 -9.8619,-0.5213 -7.9603,2.4278 -15.2289,3.6376 -21.804,3.6376 -11.7684,0 -22.6745,-2.9425 -32.7134,-8.8356 -9.6898,-5.8932 -17.478,-13.6911 -23.3629,-23.3987 -5.8834,-10.0536 -8.8292,-20.9759 -8.8292,-32.7605 v -25.9969 c 0,-11.7895 2.9458,-22.538 8.8292,-32.2441 5.8849,-10.0551 13.6731,-18.0252 23.3629,-23.9183 10.0389,-5.8947 20.945,-8.847 32.7134,-8.847 11.7684,0 22.4926,2.9506 32.1856,8.847 10.0389,5.8931 18.0057,13.8632 23.8891,23.9183 5.8818,9.7044 8.821,20.4546 8.821,32.2441 v 130.5124 c 0,11.7878 -2.9392,22.5348 -8.821,32.244 -5.8834,10.0519 -13.8502,17.8499 -23.8891,23.3955 -9.693,5.8947 -20.4172,8.847 -32.1856,8.847 -11.7684,0 -22.1548,-2.6048 -31.1561,-7.8061 -8.9996,-4.8522 -16.7845,-12.1321 -23.3629,-21.8365 -1.7295,-2.7753 -4.5015,-4.5063 -8.3095,-5.2013 -3.4622,-0.6918 -6.7473,0.1753 -9.8619,2.6014 -2.7704,2.0802 -4.4966,4.8506 -5.1884,8.3176 -0.3459,3.467 0.5164,6.7635 2.595,9.883 8.9996,12.8256 20.0795,22.7037 33.2298,29.6361 13.4978,6.934 27.5153,10.4027 42.054,10.4027 16.6141,0 31.8413,-4.1621 45.6867,-12.4813 13.8437,-7.9733 24.7497,-19.0629 32.7133,-33.2752 8.3062,-13.8697 12.4536,-28.9508 12.4536,-45.2466 v -129.9927 c 0,-16.6417 -4.1474,-31.8998 -12.4536,-45.763 -7.9636,-13.8697 -19.0418,-24.7839 -33.233,-32.7556 -13.8453,-8.32079 -28.8988,-12.48446 -45.1703,-12.48446 z m 213.4266,0 c -16.2682,0 -31.4954,4.16042 -45.6867,12.48126 -13.8453,7.9733 -24.9251,19.0613 -33.2297,33.2752 -7.9604,13.8697 -11.9373,28.9524 -11.9373,45.2466 v 25.9969 c 0,16.2925 3.9769,31.5442 11.9373,45.7565 8.3078,13.8664 19.3844,24.9641 33.2297,33.2817 14.1913,7.9733 29.4185,11.9616 45.6867,11.9616 15.5764,0 29.9462,-3.6408 43.0998,-10.9191 13.1503,-7.2831 24.0499,-17.158 32.7036,-29.6393 1.7295,-3.1195 2.2491,-6.416 1.5573,-9.883 -0.6934,-3.4654 -2.4228,-6.2341 -5.1899,-8.3176 -3.1147,-2.0786 -6.3998,-2.5982 -9.862,-1.5589 -3.4605,0.6918 -6.2341,2.4244 -8.3094,5.1981 -5.885,9.0126 -13.6732,16.1187 -23.363,21.3168 -9.3488,5.2014 -19.5598,7.798 -30.6364,7.798 -11.7684,0 -22.6663,-2.9425 -32.702,-8.8356 -9.693,-5.8932 -17.4877,-13.6911 -23.3711,-23.3987 -5.885,-10.0536 -8.821,-20.9759 -8.821,-32.7605 v -25.9969 c 0,-11.7895 2.936,-22.538 8.821,-32.2441 5.8834,-10.0551 13.6781,-18.0252 23.3711,-23.9183 10.0357,-5.8947 20.9336,-8.847 32.702,-8.847 11.0766,0 21.2876,2.6047 30.6364,7.8061 9.6898,5.1997 17.478,12.3075 23.363,21.3168 2.0753,2.7737 4.8489,4.6785 8.3094,5.721 3.4622,0.6918 6.7473,0 9.862,-2.0818 2.7671,-2.0802 4.4965,-4.849 5.1899,-8.3176 0.6918,-3.467 0.1722,-6.7635 -1.5573,-9.883 -8.6537,-12.478 -19.5533,-22.3562 -32.7036,-29.6361 -13.1536,-7.27991 -27.5234,-10.92231 -43.0998,-10.91906 z m 206.403,0 c -16.2681,0 -31.5035,4.16042 -45.6931,12.48126 -13.8437,7.9733 -24.917,19.0613 -33.2232,33.2752 -7.9604,13.8697 -11.9438,28.9524 -11.9438,45.2466 v 25.9969 c 0,16.2925 3.9834,31.5442 11.9438,45.7565 8.3062,13.8664 19.3795,24.9641 33.2232,33.2817 14.1912,7.9733 29.425,11.9616 45.6931,11.9616 16.9616,0 32.5315,-4.3358 46.7243,-13.0009 14.1945,-9.0126 24.9252,-19.9349 32.1937,-32.7637 1.7295,-3.1195 2.077,-6.4079 1.0377,-9.8749 -1.0377,-3.467 -3.113,-6.0717 -6.2276,-7.8028 -2.077,-1.3868 -5.0244,-1.9081 -8.8324,-1.5622 -3.4605,0.3475 -6.3982,2.6047 -8.821,6.7635 -6.2309,10.0552 -14.1977,18.0236 -23.8891,23.92 -9.6898,5.5472 -20.4156,8.316 -32.1856,8.316 -11.7699,0 -22.6744,-2.9425 -32.7117,-8.8356 -9.6914,-5.8932 -17.4779,-13.6911 -23.3613,-23.3987 -5.885,-10.0536 -8.8324,-20.9759 -8.8324,-32.7605 v -25.9969 c 0,-11.7895 2.9441,-22.538 8.8324,-32.2441 5.8834,-10.0551 13.6699,-18.0252 23.3613,-23.9183 10.0373,-5.8947 20.9418,-8.847 32.7117,-8.847 10.3848,0 20.0729,2.2572 29.0709,6.7635 8.9981,4.5096 16.4404,10.7486 22.3237,18.7235 6.2309,7.9734 10.2127,16.8106 11.947,26.5166 0.6902,3.8146 -0.1721,6.9373 -2.5982,9.3634 -2.077,2.4293 -4.6768,3.6424 -7.7915,3.6424 h -65.9349 c -3.4605,0 -6.5719,1.2114 -9.3422,3.6375 -2.4229,2.4277 -3.6392,5.5407 -3.6392,9.3553 0,3.4686 1.2163,6.5914 3.6392,9.365 2.7703,2.4277 5.8817,3.6391 9.3422,3.6391 h 64.8973 c 8.3078,0 15.5829,-2.2523 21.8105,-6.7586 6.2341,-4.508 10.7275,-10.2289 13.4978,-17.1597 2.7671,-6.9324 3.2868,-13.8665 1.5573,-20.8021 -3.1178,-14.5582 -9.1733,-27.2116 -18.1746,-37.9586 -8.6554,-11.0928 -19.2042,-19.5857 -31.6643,-25.4789 -12.1191,-5.89306 -25.0973,-8.84206 -38.941,-8.84206 z m 138.9404,0 c -3.4621,0 -6.5702,1.21143 -9.3406,3.63915 -2.4229,2.4261 -3.6327,5.54721 -3.6327,9.36171 v 285.9971 c 0,3.8113 1.2098,6.9356 3.6327,9.3617 2.7704,2.4277 5.8785,3.6392 9.3406,3.6392 3.8081,0 6.9276,-1.2115 9.3504,-3.6392 2.4229,-2.4261 3.6343,-5.5504 3.6343,-9.3617 v -285.9971 c 0,-3.8145 -1.2098,-6.93561 -3.631,-9.36171 -2.4261,-2.42772 -5.5423,-3.63915 -9.3504,-3.63915 z m 77.8799,0 c -9.693,0 -19.7254,1.73107 -30.1102,5.19809 -3.4606,1.38677 -6.062,3.64397 -7.7898,6.76347 -1.3851,3.1195 -1.5572,6.4096 -0.5196,9.8766 1.3819,3.467 3.6358,6.0717 6.752,7.806 3.1147,1.3852 6.4014,1.3852 9.8603,0 7.962,-2.4293 15.2289,-3.6472 21.8041,-3.6472 11.7683,0 22.5023,2.949 32.1953,8.8437 10.0389,5.8931 17.996,13.8648 23.881,23.92 5.8834,9.7044 8.8324,20.4529 8.8324,32.2424 v 25.9969 c 0,11.7846 -2.949,22.7086 -8.8324,32.7605 -5.885,9.7076 -13.8421,17.5088 -23.881,23.4019 -9.693,5.8899 -20.4237,8.834 -32.1953,8.834 -6.5752,0 -13.8421,-1.2114 -21.8041,-3.6359 -3.4621,-1.3868 -6.7456,-1.2147 -9.8603,0.518 -3.1162,1.3868 -5.3701,3.8194 -6.752,7.2848 -1.0376,3.467 -0.8655,6.7554 0.5196,9.8782 1.7278,3.1178 4.3292,5.3669 7.7898,6.7537 10.3848,3.4703 20.4172,5.2079 30.1102,5.2079 16.2682,0 31.3314,-3.9916 45.1752,-11.9616 14.1928,-8.3209 25.2645,-19.4186 33.2216,-33.285 8.3078,-14.2107 12.465,-29.4607 12.465,-45.7565 v -25.9969 c 0,-16.2942 -4.1572,-31.3769 -12.465,-45.2433 -7.9571,-14.2172 -19.0288,-25.3036 -33.2216,-33.2753 -13.8438,-8.32079 -28.907,-12.48446 -45.1752,-12.48446 z m 282.5641,90.48016 c -3.4589,0 -6.5719,1.2147 -9.339,3.6391 -2.4245,2.4261 -3.6424,5.5521 -3.6424,9.365 v 181.998 c 0,3.4654 1.2179,6.5817 3.6424,9.3569 2.7671,2.4261 5.8801,3.644 9.339,3.644 3.8113,0 6.9276,-1.2179 9.352,-3.644 2.4229,-2.7752 3.6327,-5.8915 3.6327,-9.3569 v -181.998 c 0,-3.8129 -1.2098,-6.9389 -3.6327,-9.365 -2.4244,-2.4277 -5.5407,-3.6391 -9.352,-3.6391 z m -142.5796,13.5157 c -3.4605,0 -6.5719,1.2114 -9.3406,3.6391 -2.4245,2.4261 -3.6327,5.5505 -3.6327,9.365 v 142.9953 c 0,14.2139 5.013,26.523 15.0487,36.9225 10.3864,10.0519 22.6744,15.0811 36.8656,15.0811 13.152,0 24.5761,-4.3374 34.2691,-13.0009 3.113,-2.4277 4.6687,-5.1997 4.6687,-8.3209 0.3459,-3.467 -0.5164,-6.5881 -2.5934,-9.3633 -2.4228,-3.1179 -5.5342,-4.8506 -9.3422,-5.1981 -3.4638,-0.3443 -6.5817,0.6918 -9.3521,3.1195 -5.1899,4.5063 -11.0765,6.7668 -17.6517,6.7668 -7.2702,0 -13.4978,-2.4326 -18.691,-7.2865 -4.8474,-5.198 -7.267,-11.4419 -7.267,-18.7202 v -142.9953 c 0,-3.8145 -1.213,-6.9389 -3.6359,-9.365 -2.4212,-2.4277 -5.5407,-3.6391 -9.3487,-3.6391 z m -1250.21999,38.9994 c -10.72908,0 -19.90084,3.8162 -27.5169,11.4452 -7.61281,7.6275 -11.42409,16.8089 -11.42409,27.5559 v 91.003 c 0,10.747 3.81128,19.9301 11.42409,27.5543 7.61606,7.629 16.78782,11.4452 27.5169,11.4452 H 1081.242 c 3.808,0 6.9194,-1.2147 9.3423,-3.6392 2.4228,-2.7736 3.6326,-5.8963 3.6326,-9.365 0,-3.8112 -1.213,-6.9308 -3.6326,-9.3552 -2.4229,-2.4294 -5.5343,-3.6375 -9.3423,-3.6375 H 951.44251 c -3.46377,0 -6.57515,-1.2212 -9.34227,-3.6473 -2.42285,-2.772 -3.64077,-5.8915 -3.64077,-9.3553 v -91.003 c 0,-3.8129 1.21792,-6.9292 3.64077,-9.3569 2.76712,-2.4261 5.88175,-3.6391 9.34227,-3.6391 h 77.87869 c 3.8081,0 6.9194,-1.2163 9.3423,-3.6473 2.4229,-2.7736 3.6391,-5.8899 3.6391,-9.3569 0,-3.8113 -1.2162,-6.9356 -3.6391,-9.3617 -2.4229,-2.4245 -5.5342,-3.6392 -9.3423,-3.6392 z" />
        <path
          id="eventname"
          fill="#c6257d"
          d="m 1563.7145,1331.585 c -4.4648,0 -8.2816,1.5822 -11.4502,4.7507 -3.1686,3.1686 -4.7565,6.9854 -4.7565,11.4503 v 27.0036 c 0,1.4403 0.5047,2.7391 1.5129,3.8913 1.1522,1.0081 2.451,1.5129 3.8912,1.5129 1.5843,0 2.8773,-0.5046 3.8855,-1.5129 1.0082,-1.1522 1.513,-2.451 1.513,-3.8913 v -27.0036 c 0,-1.5843 0.5047,-2.8774 1.5129,-3.8856 1.1522,-1.008 2.451,-1.5128 3.8912,-1.5128 h 54.0074 c 1.5843,0 2.883,-0.5046 3.8912,-1.513 1.0082,-1.1522 1.5129,-2.451 1.5129,-3.8912 0,-1.5843 -0.5047,-2.8774 -1.5129,-3.8856 -1.0082,-1.008 -2.3069,-1.5128 -3.8912,-1.5128 z m 249.3484,0 c -1.4403,0 -2.7333,0.5046 -3.8855,1.5128 -1.0082,1.0081 -1.513,2.3013 -1.513,3.8856 v 16.2068 c 0,4.4647 1.5823,8.2815 4.7509,11.4501 3.1686,3.1686 6.9853,4.7509 11.4502,4.7509 h 5.3984 c 1.5843,0 2.8831,-0.5046 3.8912,-1.513 1.0082,-1.1522 1.513,-2.4509 1.513,-3.8912 0,-1.5843 -0.5047,-2.8773 -1.513,-3.8854 -1.0081,-1.0081 -2.3069,-1.513 -3.8912,-1.513 h -5.3984 c -1.4403,0 -2.739,-0.5046 -3.8913,-1.513 -1.0081,-1.1522 -1.5072,-2.4452 -1.5072,-3.8854 v -16.2068 c 0,-1.5843 -0.5047,-2.8774 -1.5129,-3.8856 -1.0082,-1.008 -2.3069,-1.5128 -3.8912,-1.5128 z m 203.3354,0 c -1.4403,0 -2.739,0.5046 -3.8913,1.5128 -1.0081,1.0081 -1.5129,2.3013 -1.5129,3.8856 v 118.8229 c 0,1.4403 0.5047,2.739 1.5129,3.8912 1.1523,1.0081 2.451,1.513 3.8913,1.513 1.5843,0 2.8773,-0.5046 3.8855,-1.513 1.0082,-1.1522 1.5129,-2.4509 1.5129,-3.8912 v -118.8229 c 0,-1.5843 -0.5047,-2.8774 -1.5129,-3.8856 -1.0082,-1.008 -2.3012,-1.5128 -3.8855,-1.5128 z m 472.5981,0 c -7.3452,0 -14.111,1.7297 -20.3041,5.1864 -6.1931,3.3126 -10.8776,7.8495 -14.0463,13.6106 -0.7197,1.2963 -0.936,2.663 -0.6476,4.1033 0.4325,1.4403 1.2261,2.5179 2.3783,3.2379 1.2963,0.8639 2.7367,1.0802 4.321,0.6477 1.5844,-0.4325 2.7357,-1.3678 3.4557,-2.8081 1.8723,-3.6006 5.0427,-6.6971 9.5075,-9.2897 4.6089,-2.5925 9.7185,-3.8854 15.3355,-3.8854 5.041,0 9.578,1.0036 13.6108,3.0201 4.1768,2.0164 7.4208,4.6819 9.7252,7.9945 2.4486,3.3125 3.6734,6.8401 3.6734,10.5848 0,6.9134 -2.9546,13.9741 -8.8597,21.1755 -2.0165,2.5924 -4.6819,5.3997 -7.9946,8.4243 -3.3126,3.0245 -6.6245,6.0472 -9.9373,9.0719 l -3.6733,3.2436 c -10.514,8.9298 -18.2212,16.2739 -23.1181,22.0351 -7.4894,9.2176 -11.2325,18.5072 -11.2325,27.8689 0,1.4403 0.5046,2.739 1.513,3.8912 1.1522,1.0081 2.451,1.513 3.8912,1.513 1.5843,0 2.8773,-0.5046 3.8855,-1.513 1.0081,-1.1522 1.5129,-2.4509 1.5129,-3.8912 0,-6.9133 2.9548,-13.9683 8.8599,-21.1697 2.0164,-2.5924 4.676,-5.4054 7.9888,-8.43 l 9.9428,-9.0719 3.6677,-3.2379 c 10.5141,-8.9297 18.2213,-16.2797 23.1182,-22.0407 7.4894,-9.2179 11.2325,-18.5073 11.2325,-27.8691 0,-6.0491 -1.724,-11.5218 -5.1807,-16.4188 -3.4566,-4.8968 -8.0673,-8.7817 -13.8285,-11.6622 -5.7611,-2.8806 -12.0278,-4.321 -18.7972,-4.321 z m 96.7307,0 c -1.2961,0 -3.2414,0.1408 -5.834,0.4291 -1.8724,0.2884 -3.1711,1.0081 -3.8912,2.1606 -0.7197,1.1522 -1.0768,2.2355 -1.0768,3.2436 0,1.7284 0.6465,3.0951 1.9427,4.1034 1.2963,1.008 2.595,1.4392 3.8913,1.295 2.0164,-0.2883 3.6724,-0.4291 4.9686,-0.4291 7.4895,0 13.8242,2.6654 19.0092,7.9944 5.329,5.1849 7.9944,11.5198 7.9944,19.0092 v 54.0073 c 0,7.4894 -2.6654,13.9037 -7.9944,19.2327 -5.185,5.185 -11.5197,7.7767 -19.0092,7.7767 -7.4894,0 -13.898,-2.5917 -19.2269,-7.7767 -5.185,-5.329 -7.7825,-11.7433 -7.7825,-19.2327 v -54.0073 c 0,-4.8969 1.225,-9.4339 3.6735,-13.6107 0.7197,-1.2963 0.8672,-2.663 0.4358,-4.1033 -0.4325,-1.4403 -1.2998,-2.5235 -2.596,-3.2437 -1.1522,-0.5767 -2.4453,-0.7175 -3.8855,-0.4292 -1.4403,0.2884 -2.5915,1.1501 -3.4557,2.5903 -3.3127,5.9051 -4.9686,12.172 -4.9686,18.7971 v 54.0074 c 0,6.7692 1.6559,13.1097 4.9686,19.0148 3.4567,5.7612 8.0616,10.3718 13.8228,13.8285 5.9051,3.3126 12.2456,4.9686 19.0148,4.9686 6.7694,0 13.0304,-1.656 18.7914,-4.9686 5.9051,-3.4567 10.5158,-8.0673 13.8285,-13.8285 3.4567,-5.9051 5.1864,-12.2456 5.1864,-19.0148 v -54.0074 c 0,-6.7692 -1.7297,-13.0359 -5.1864,-18.7971 -3.3127,-5.9051 -7.9234,-10.5101 -13.8285,-13.8227 -5.761,-3.4567 -12.022,-5.1864 -18.7914,-5.1864 z m 93.4871,0 c -7.3455,0 -14.1169,1.7297 -20.3102,5.1864 -6.1931,3.3126 -10.8719,7.8495 -14.0405,13.6106 -0.7197,1.2963 -0.9359,2.663 -0.6476,4.1033 0.4325,1.4403 1.2203,2.5179 2.3726,3.2379 1.2961,0.8639 2.7367,1.0802 4.321,0.6477 1.5843,-0.4325 2.7355,-1.3678 3.4557,-2.8081 1.8723,-3.6006 5.0425,-6.6971 9.5074,-9.2897 4.609,-2.5925 9.7244,-3.8854 15.3415,-3.8854 5.0409,0 9.5778,1.0036 13.6106,3.0201 4.1768,2.0164 7.4151,4.6819 9.7195,7.9945 2.4485,3.3125 3.6735,6.8401 3.6735,10.5848 0,6.9134 -2.9548,13.9741 -8.8599,21.1755 -2.0163,2.5924 -4.676,5.3997 -7.9888,8.4243 l -9.9429,9.0719 -3.6677,3.2436 c -10.5141,8.9298 -18.2213,16.2739 -23.1182,22.0351 -7.4894,9.2176 -11.2325,18.5072 -11.2325,27.8689 0,1.4403 0.4991,2.739 1.5073,3.8912 1.1522,1.0081 2.4509,1.513 3.8912,1.513 1.5842,0 2.8831,-0.5046 3.8913,-1.513 1.008,-1.1522 1.5072,-2.4509 1.5072,-3.8912 0,-6.9133 2.9546,-13.9683 8.8598,-21.1697 2.0164,-2.5924 4.6819,-5.4054 7.9945,-8.43 l 9.9373,-9.0719 3.6734,-3.2379 c 10.514,-8.9297 18.2212,-16.2797 23.1181,-22.0407 7.4895,-9.2179 11.2325,-18.5073 11.2325,-27.8691 0,-6.0491 -1.7298,-11.5218 -5.1864,-16.4188 -3.4567,-4.8968 -8.0674,-8.7817 -13.8284,-11.6622 -5.7612,-2.8806 -12.0222,-4.321 -18.7914,-4.321 z m 71.8817,0 c -4.4649,0 -8.2816,1.5822 -11.4501,4.7507 -3.1686,3.1686 -4.7509,6.9854 -4.7509,11.4503 v 43.2104 c 0,1.4403 0.499,2.7333 1.5072,3.8855 1.1521,1.0081 2.4509,1.5129 3.8912,1.5129 1.5843,0 2.8831,-0.5046 3.8912,-1.5129 1.0081,-1.1522 1.5072,-2.4452 1.5072,-3.8855 v -43.2104 c 0,-1.5843 0.5046,-2.8774 1.513,-3.8856 1.1522,-1.008 2.451,-1.5128 3.8912,-1.5128 h 48.6089 c 1.5843,0 2.8831,-0.5046 3.8912,-1.513 1.0081,-1.1522 1.5072,-2.451 1.5072,-3.8912 0,-1.5843 -0.499,-2.8774 -1.5072,-3.8856 -1.008,-1.008 -2.3069,-1.5128 -3.8912,-1.5128 z m -1084.6047,43.2046 c -6.4812,0 -12.317,1.8715 -17.5019,5.6162 -5.041,3.6007 -8.5685,8.359 -10.5849,14.2641 -0.432,1.5843 -0.3583,2.951 0.2178,4.1032 0.5761,1.1524 1.5799,2.0145 3.0202,2.5904 1.2962,0.5755 2.595,0.5755 3.8912,0 1.4403,-0.7197 2.4498,-1.7977 3.0259,-3.2379 1.2962,-3.7448 3.525,-6.7732 6.6936,-9.0777 3.3126,-2.3045 7.0613,-3.4557 11.2381,-3.4557 h 16.2011 c 3.1686,0 6.1913,0.794 9.0719,2.3783 2.8805,1.5843 5.1888,3.8188 6.9171,6.6994 1.8724,2.8805 2.8081,6.1924 2.8081,9.9372 v 51.1992 c 0,1.4403 0.5047,2.739 1.5129,3.8912 1.1523,1.0081 2.4453,1.513 3.8855,1.513 1.5844,0 2.8831,-0.5046 3.8913,-1.513 1.0082,-1.1522 1.5129,-2.4509 1.5129,-3.8912 v -51.1992 c 0,-5.6171 -1.3725,-10.6588 -4.109,-15.1236 -2.7365,-4.6089 -6.4058,-8.2101 -11.0146,-10.8026 -4.6089,-2.5926 -9.4351,-3.8913 -14.4761,-3.8913 z m 94.5644,0 c -7.7775,0 -14.5432,1.8773 -20.3043,5.622 -2.8806,2.0163 -5.1888,4.3926 -6.9171,7.1291 -1.7284,2.7365 -2.5904,5.6855 -2.5904,8.8541 0,5.6171 3.0228,11.0898 9.0719,16.4188 4.6089,3.6006 10.8756,6.9865 18.7971,10.1551 7.0574,2.8806 12.3146,5.7615 15.7713,8.6421 3.4566,2.8805 5.1864,5.546 5.1864,7.9945 0,2.4484 -1.588,4.751 -4.7566,6.9113 -3.7447,2.5926 -8.4972,3.8913 -14.2583,3.8913 -4.3208,0 -8.2113,-0.794 -11.668,-2.3783 -3.3126,-1.7284 -5.6151,-3.7416 -6.9113,-6.0461 -0.7202,-1.1519 -1.8714,-1.8722 -3.4557,-2.1605 -1.4403,-0.4325 -2.739,-0.2162 -3.8913,0.6476 -2.5925,1.8724 -3.1652,4.3166 -1.7249,7.3412 2.1604,4.1768 5.7616,7.4888 10.8026,9.9372 5.0409,2.3045 10.6554,3.4615 16.8486,3.4615 7.7775,0 14.617,-1.9453 20.5221,-5.834 6.1932,-4.1768 9.2897,-9.434 9.2897,-15.7712 0,-5.7612 -3.0965,-11.2339 -9.2897,-16.4188 -4.3208,-3.6007 -10.5138,-6.9865 -18.5794,-10.1551 -6.7692,-2.7365 -12.0265,-5.6175 -15.7712,-8.6421 -3.4566,-2.8805 -5.1807,-5.546 -5.1807,-7.9945 0,-2.5925 1.5823,-4.8949 4.7509,-6.9113 3.6007,-2.5926 8.3532,-3.8913 14.2583,-3.8913 4.3208,0 8.1376,0.8672 11.4502,2.5961 3.4566,1.5843 5.7591,3.4557 6.9114,5.6162 0.5761,1.0081 1.5176,1.8024 2.8138,2.3783 1.4403,0.4313 2.8808,0.285 4.3211,-0.4359 1.1522,-0.5766 2.0142,-1.5856 2.5903,-3.0258 0.5761,-1.4404 0.3606,-3.0226 -0.6475,-4.7509 -2.3045,-4.0328 -5.9795,-7.2031 -11.0204,-9.5074 -4.897,-2.4486 -10.3697,-3.6735 -16.4189,-3.6735 z m 52.0073,0 c -1.4403,0 -2.7333,0.5046 -3.8855,1.513 -1.0082,1.008 -1.513,2.3069 -1.513,3.8912 v 59.4115 c 0,5.9051 2.087,11.0149 6.2638,15.3357 4.3208,4.1767 9.4306,6.2695 15.3357,6.2695 5.4731,0 10.2312,-1.8034 14.2639,-5.4042 1.2963,-1.0081 1.9428,-2.1594 1.9428,-3.4557 0.1441,-1.4402 -0.219,-2.739 -1.0831,-3.8912 -1.0082,-1.2962 -2.3012,-2.0163 -3.8855,-2.1605 -1.4403,-0.1442 -2.739,0.2928 -3.8912,1.3008 -2.1604,1.8724 -4.6104,2.8082 -7.3469,2.8082 -3.0246,0 -5.6163,-1.0092 -7.7767,-3.0259 -2.0164,-2.1605 -3.0202,-4.7522 -3.0202,-7.7767 v -59.4115 c 0,-1.5843 -0.5047,-2.883 -1.5129,-3.8912 -1.0082,-1.0081 -2.3069,-1.513 -3.8913,-1.513 z m 85.9279,0 c -6.7693,0 -13.1098,1.7298 -19.0149,5.1864 -5.7611,3.3127 -10.3661,7.9234 -13.8227,13.8285 -3.3127,5.7611 -4.9744,12.0222 -4.9744,18.7914 v 10.8026 c 0,6.7693 1.6617,13.1097 4.9744,19.0148 3.4566,5.7612 8.0616,10.3718 13.8227,13.8285 5.9051,3.3126 12.2456,4.9687 19.0149,4.9687 v -0.01 c 7.0573,0 13.5339,-1.7977 19.439,-5.3984 5.9051,-3.7447 10.3741,-8.2817 13.3986,-13.6108 0.7201,-1.2962 0.8619,-2.663 0.4299,-4.1032 -0.4321,-1.4403 -1.2941,-2.5235 -2.5904,-3.2437 -0.8641,-0.5755 -2.0891,-0.7918 -3.6734,-0.6476 -1.4403,0.1442 -2.6653,1.0801 -3.6735,2.808 -2.5925,4.1769 -5.9045,7.4889 -9.9372,9.9373 -4.0328,2.3044 -8.4961,3.4615 -13.393,3.4615 -4.8969,0 -9.4339,-1.225 -13.6107,-3.6735 -4.0328,-2.4485 -7.2767,-5.6925 -9.7252,-9.7253 -2.4485,-4.1767 -3.6735,-8.7137 -3.6735,-13.6106 v -10.8026 c 0,-4.897 1.225,-9.3602 3.6735,-13.393 2.4485,-4.1767 5.6924,-7.4888 9.7252,-9.9372 4.1768,-2.4486 8.7138,-3.6736 13.6107,-3.6736 4.3208,0 8.3531,0.936 12.0978,2.8082 3.7447,1.8724 6.8412,4.4641 9.2897,7.7768 2.5924,3.3125 4.2484,6.9876 4.9686,11.0203 0.288,1.5842 -0.075,2.883 -1.0831,3.8913 -0.8642,1.008 -1.9417,1.5072 -3.238,1.5072 h -27.4392 c -1.4402,0 -2.7332,0.5046 -3.8855,1.5129 -1.0081,1.008 -1.5129,2.307 -1.5129,3.8913 0,1.4402 0.5047,2.7389 1.5129,3.8912 1.1523,1.008 2.4453,1.5072 3.8855,1.5072 h 27.0037 c 3.4567,0 6.4851,-0.936 9.0776,-2.8082 2.5925,-1.8723 4.464,-4.2485 5.6162,-7.1291 1.1522,-2.8806 1.3677,-5.7616 0.6476,-8.6421 -1.2963,-6.0491 -3.8143,-11.3064 -7.559,-15.7713 -3.6007,-4.6089 -7.9959,-8.1363 -13.1809,-10.5847 -5.0409,-2.4486 -10.44,-3.6735 -16.201,-3.6735 z m 81.1715,0 c -7.4895,0 -13.898,2.6655 -19.227,7.9945 -5.185,5.185 -7.7767,11.5255 -7.7767,19.0149 v 54.0073 c 0,1.4403 0.499,2.739 1.5072,3.8912 1.1522,1.0081 2.451,1.513 3.8912,1.513 1.5843,0 2.8831,-0.5046 3.8913,-1.513 1.0081,-1.1522 1.5072,-2.4509 1.5072,-3.8912 v -54.0073 c 0,-4.6088 1.5879,-8.4256 4.7565,-11.4502 3.1687,-3.1686 6.9854,-4.7566 11.4503,-4.7566 h 10.8026 c 1.5843,0 2.8773,-0.5046 3.8855,-1.5129 1.0081,-1.1522 1.5129,-2.4453 1.5129,-3.8855 0,-1.5843 -0.5047,-2.883 -1.5129,-3.8912 -1.0082,-1.0081 -2.3012,-1.513 -3.8855,-1.513 z m 68.6381,0 c -4.0328,0 -8.2068,0.7197 -12.5276,2.1605 -1.4403,0.5767 -2.5236,1.5119 -3.2437,2.8082 -0.5761,1.2962 -0.6441,2.6686 -0.212,4.109 0.5761,1.4403 1.5119,2.5178 2.8081,3.2379 1.2962,0.5755 2.663,0.5755 4.1033,0 3.3126,-1.0081 6.3354,-1.513 9.0719,-1.513 4.8969,0 9.3659,1.225 13.3986,3.6735 4.1768,2.4484 7.4888,5.7605 9.9373,9.9373 2.4485,4.0328 3.6735,8.496 3.6735,13.3929 v 43.2104 c 0,1.4403 0.5047,2.739 1.5129,3.8912 1.1522,1.0081 2.4452,1.513 3.8855,1.513 1.5843,0 2.883,-0.5046 3.8912,-1.513 1.0082,-1.1522 1.513,-2.4509 1.513,-3.8912 v -43.2104 c 0,-6.7692 -1.7298,-13.0303 -5.1864,-18.7914 -3.3127,-5.9051 -7.9234,-10.5158 -13.8285,-13.8285 -5.7611,-3.4566 -12.0278,-5.1864 -18.7971,-5.1864 z m 92.4096,0 c -6.7693,0 -13.1098,1.7298 -19.0149,5.1864 -5.7611,3.3127 -10.3661,7.9234 -13.8228,13.8285 -3.3126,5.7611 -4.9686,12.0222 -4.9686,18.7914 v 10.8026 c 0,6.7693 1.656,13.1097 4.9686,19.0148 3.4567,5.7612 8.0617,10.3718 13.8228,13.8285 5.9051,3.3126 12.2456,4.9687 19.0149,4.9687 v -0.01 c 7.0573,0 13.5396,-1.7977 19.4446,-5.3984 5.9051,-3.7447 10.3683,-8.2817 13.3929,-13.6108 0.7201,-1.2962 0.8619,-2.663 0.4299,-4.1032 -0.4321,-1.4403 -1.2941,-2.5235 -2.5904,-3.2437 -0.8641,-0.5755 -2.0891,-0.7918 -3.6734,-0.6476 -1.4403,0.1442 -2.6653,1.0801 -3.6735,2.808 -2.5925,4.1769 -5.9044,7.4889 -9.9371,9.9373 -4.0328,2.3044 -8.4961,3.4615 -13.393,3.4615 -4.8969,0 -9.4339,-1.225 -13.6107,-3.6735 -4.0328,-2.4485 -7.271,-5.6925 -9.7195,-9.7253 -2.4485,-4.1767 -3.6735,-8.7137 -3.6735,-13.6106 v -10.8026 c 0,-4.897 1.225,-9.3602 3.6735,-13.393 2.4485,-4.1767 5.6867,-7.4888 9.7195,-9.9372 4.1768,-2.4486 8.7138,-3.6736 13.6107,-3.6736 4.3208,0 8.3531,0.936 12.0978,2.8082 3.7447,1.8724 6.8412,4.4641 9.2896,7.7768 2.5925,3.3125 4.2485,6.9876 4.9686,11.0203 0.2881,1.5842 -0.069,2.883 -1.0774,3.8913 -0.8641,1.008 -1.9474,1.5072 -3.2436,1.5072 h -27.4391 c -1.4403,0 -2.7333,0.5046 -3.8855,1.5129 -1.0082,1.008 -1.513,2.307 -1.513,3.8913 0,1.4402 0.5047,2.7389 1.513,3.8912 1.1522,1.008 2.4452,1.5072 3.8855,1.5072 h 27.0092 c 3.4567,0 6.4795,-0.936 9.072,-2.8082 2.5924,-1.8723 4.4639,-4.2485 5.6162,-7.1291 1.1521,-2.8806 1.3676,-5.7616 0.6475,-8.6421 -1.2962,-6.0491 -3.8142,-11.3064 -7.559,-15.7713 -3.6006,-4.6089 -7.9959,-8.1363 -13.1808,-10.5847 -5.0409,-2.4486 -10.4399,-3.6735 -16.201,-3.6735 z m 94.1345,0 c -6.7693,0 -13.1041,1.7298 -19.0092,5.1864 -5.7611,3.3127 -10.3718,7.9234 -13.8285,13.8285 -3.3126,5.7611 -4.9686,12.0279 -4.9686,18.7971 v 10.7969 c 0,6.7693 1.656,13.1097 4.9686,19.0148 3.4567,5.7612 8.0674,10.3718 13.8285,13.8285 5.9051,3.3126 12.2399,4.9687 19.0092,4.9687 4.1767,0 8.209,-0.6521 12.0977,-1.9485 1.5844,-0.5767 2.7356,-1.5119 3.4557,-2.8082 0.7201,-1.2961 0.8676,-2.663 0.4355,-4.1032 -0.5761,-1.5845 -1.5118,-2.662 -2.8081,-3.2379 -1.2962,-0.5756 -2.6687,-0.6499 -4.109,-0.2174 -3.3126,1.0081 -6.3354,1.513 -9.0719,1.513 -4.8969,0 -9.4339,-1.2249 -13.6107,-3.6735 -4.0328,-2.4484 -7.271,-5.6924 -9.7195,-9.7252 -2.4485,-4.1767 -3.6735,-8.7137 -3.6735,-13.6106 v -10.797 c 0,-4.8968 1.225,-9.3658 3.6735,-13.3986 2.4485,-4.1768 5.6867,-7.4888 9.7195,-9.9373 4.1768,-2.4485 8.7138,-3.6735 13.6107,-3.6735 4.8969,0 9.3602,1.225 13.393,3.6735 4.1767,2.4484 7.4887,5.7605 9.9372,9.9373 2.4485,4.0328 3.6735,8.5018 3.6735,13.3986 v 54.2252 c 0,4.8968 -1.225,9.3601 -3.6735,13.3929 -2.4485,4.1768 -5.7605,7.415 -9.9372,9.7195 -4.0328,2.4484 -8.4961,3.6734 -13.393,3.6734 -4.8969,0 -9.2184,-1.0768 -12.9631,-3.2379 -3.7447,-2.0164 -6.983,-5.0449 -9.7195,-9.0776 -0.7202,-1.152 -1.8771,-1.8665 -3.4614,-2.1549 -1.4403,-0.2883 -2.8071,0.067 -4.1033,1.078 -1.1522,0.8639 -1.8725,2.0153 -2.1605,3.4556 -0.1441,1.4403 0.219,2.807 1.0831,4.1033 3.7447,5.329 8.3497,9.435 13.8228,12.3155 5.617,2.8806 11.4528,4.321 17.5019,4.321 6.9133,0 13.2481,-1.7297 19.0092,-5.1864 5.7611,-3.3126 10.2981,-7.9175 13.6107,-13.8227 3.4567,-5.7611 5.1864,-12.0278 5.1864,-18.7971 v -54.0073 c 0,-6.9132 -1.7297,-13.2538 -5.1864,-19.0149 -3.3126,-5.761 -7.9176,-10.298 -13.8228,-13.6107 -5.7611,-3.4566 -12.0278,-5.1864 -18.7971,-5.1864 z m 91.3264,0 c -6.7693,0 -13.1098,1.7298 -19.0149,5.1864 -5.7611,3.3127 -10.3661,7.9234 -13.8227,13.8285 -3.3126,5.7611 -4.9687,12.0279 -4.9687,18.7971 v 10.7969 c 0,6.7693 1.6561,13.1097 4.9687,19.0148 3.4566,5.7612 8.0616,10.3718 13.8227,13.8285 5.9051,3.3126 12.2456,4.9687 19.0149,4.9687 4.1768,0 8.2091,-0.6521 12.0978,-1.9485 1.5843,-0.5767 2.7356,-1.5119 3.4557,-2.8082 0.7198,-1.2961 0.8673,-2.663 0.4359,-4.1032 -0.5767,-1.5845 -1.5119,-2.662 -2.8081,-3.2379 -1.2963,-0.5756 -2.6688,-0.6499 -4.109,-0.2174 -3.3126,1.0081 -6.3354,1.513 -9.0719,1.513 -4.897,0 -9.4339,-1.2249 -13.6108,-3.6735 -4.0327,-2.4484 -7.2709,-5.6924 -9.7195,-9.7252 -2.4484,-4.1767 -3.6733,-8.7137 -3.6733,-13.6106 v -10.797 c 0,-4.8968 1.2249,-9.3658 3.6733,-13.3986 2.4486,-4.1768 5.6868,-7.4888 9.7195,-9.9373 4.1769,-2.4485 8.7138,-3.6735 13.6108,-3.6735 4.8969,0 9.3602,1.225 13.3929,3.6735 4.1768,2.4484 7.4888,5.7605 9.9373,9.9373 2.4484,4.0328 3.6734,8.5018 3.6734,13.3986 v 54.2252 c 0,4.8968 -1.225,9.3601 -3.6734,13.3929 -2.4485,4.1768 -5.7605,7.415 -9.9373,9.7195 -4.0327,2.4484 -8.496,3.6734 -13.3929,3.6734 -4.897,0 -9.2184,-1.0768 -12.9631,-3.2379 -3.7447,-2.0164 -6.983,-5.0449 -9.7195,-9.0776 -0.7197,-1.152 -1.8714,-1.8665 -3.4557,-2.1549 -1.4404,-0.2883 -2.8128,0.067 -4.109,1.078 -1.152,0.8639 -1.8722,2.0153 -2.1605,3.4556 -0.1442,1.4403 0.2184,2.807 1.0834,4.1033 3.7447,5.329 8.3498,9.435 13.8229,12.3155 5.6171,2.8806 11.4528,4.321 17.5019,4.321 6.9133,0 13.248,-1.7297 19.0092,-5.1864 5.7611,-3.3126 10.298,-7.9175 13.6107,-13.8227 3.4567,-5.7611 5.1863,-12.0278 5.1863,-18.7971 v -54.0073 c 0,-6.9132 -1.7296,-13.2538 -5.1863,-19.0149 -3.3127,-5.761 -7.9176,-10.298 -13.8227,-13.6107 -5.7612,-3.4566 -12.0278,-5.1864 -18.7972,-5.1864 z m 440.626,10.8026 c -1.4402,0 -2.7332,0.5046 -3.8854,1.513 -1.0081,1.008 -1.513,2.3069 -1.513,3.8912 0,1.4403 0.5046,2.7333 1.513,3.8855 1.1522,1.0081 2.4452,1.5129 3.8854,1.5129 h 16.2068 c 4.6089,0 8.4257,1.5823 11.4503,4.7509 3.1685,3.0246 4.7508,6.8413 4.7508,11.4502 v 21.6052 c 0,4.4649 -1.5823,8.2816 -4.7508,11.4501 -3.0246,3.1686 -6.8414,4.7567 -11.4503,4.7567 h -43.2104 c -1.4403,0 -2.7391,0.5046 -3.8912,1.5129 -1.0081,1.008 -1.5072,2.3012 -1.5072,3.8855 0,1.4402 0.499,2.739 1.5072,3.8912 1.1521,1.0081 2.4509,1.513 3.8912,1.513 h 43.2104 c 7.4894,0 13.8243,-2.5975 19.0092,-7.7825 5.3289,-5.3289 7.9944,-11.7374 7.9944,-19.2269 v -21.6052 c 0,-7.4894 -2.6655,-13.8242 -7.9944,-19.0092 -5.1849,-5.329 -11.5198,-7.9945 -19.0092,-7.9945 z m -1203.5824,5.4042 c -4.4648,0 -8.2816,1.5822 -11.4502,4.7509 -3.1686,3.1685 -4.7565,6.9853 -4.7565,11.4501 v 37.8063 c 0,4.4649 1.5879,8.2816 4.7565,11.4502 3.1686,3.1685 6.9854,4.7566 11.4502,4.7566 h 54.0074 c 1.5843,0 2.883,-0.5046 3.8912,-1.513 1.0082,-1.1522 1.5129,-2.4509 1.5129,-3.8912 0,-1.5843 -0.5047,-2.8773 -1.5129,-3.8855 -1.0082,-1.0081 -2.3069,-1.5129 -3.8912,-1.5129 h -54.0074 c -1.4402,0 -2.739,-0.5046 -3.8912,-1.513 -1.0082,-1.1522 -1.5129,-2.4509 -1.5129,-3.8912 v -37.8063 c 0,-1.5843 0.5047,-2.8829 1.5129,-3.8912 1.1522,-1.0081 2.451,-1.5072 3.8912,-1.5072 h 32.4021 c 1.5843,0 2.8831,-0.5046 3.8913,-1.5129 1.0081,-1.1522 1.5129,-2.451 1.5129,-3.8913 0,-1.5843 -0.5047,-2.8773 -1.5129,-3.8854 -1.0082,-1.0081 -2.307,-1.513 -3.8913,-1.513 z m 102.7767,10.8026 c -5.329,0 -10.297,1.3668 -14.9059,4.1033 -4.6089,2.5925 -8.2838,6.1937 -11.0204,10.8026 -2.5925,4.4648 -3.8912,9.3591 -3.8912,14.6881 0,5.3291 1.2987,10.297 3.8912,14.9059 2.7366,4.6088 6.4115,8.2839 11.0204,11.0204 4.6089,2.5925 9.5769,3.8912 14.9059,3.8912 h 18.7914 c 1.5843,0 2.883,-0.5046 3.8912,-1.513 1.0082,-1.1522 1.513,-2.451 1.513,-3.8912 0,-1.5843 -0.5047,-2.8773 -1.513,-3.8855 -1.0082,-1.0081 -2.3069,-1.5129 -3.8912,-1.5129 h -18.7914 c -5.329,0 -9.866,-1.8034 -13.6107,-5.4042 -3.6007,-3.7447 -5.4042,-8.2816 -5.4042,-13.6107 0,-5.185 1.8035,-9.5744 5.4042,-13.1752 3.7447,-3.7447 8.2817,-5.6219 13.6107,-5.6219 h 18.7914 c 1.5843,0 2.883,-0.499 3.8912,-1.5072 1.0082,-1.1522 1.513,-2.451 1.513,-3.8913 0,-1.5843 -0.5047,-2.8829 -1.513,-3.8912 -1.0082,-1.0081 -2.3069,-1.5072 -3.8912,-1.5072 z m 817.1068,48.6089 c -1.4401,0 -2.7388,0.5046 -3.8911,1.5129 -1.008,1.008 -1.513,2.3012 -1.513,3.8855 0,1.4402 0.5046,2.739 1.513,3.8912 1.1523,1.0081 2.451,1.513 3.8911,1.513 h 37.8064 c 1.5843,0 2.883,-0.5046 3.8912,-1.513 1.008,-1.1522 1.5072,-2.451 1.5072,-3.8912 0,-1.5843 -0.4991,-2.8773 -1.5072,-3.8855 -1.0081,-1.0081 -2.3069,-1.5129 -3.8912,-1.5129 z m 190.212,0 c -1.4404,0 -2.7333,0.5046 -3.8855,1.5129 -1.0081,1.008 -1.5129,2.3012 -1.5129,3.8855 0,1.4402 0.5046,2.739 1.5129,3.8912 1.1522,1.0081 2.4451,1.513 3.8855,1.513 h 37.8062 c 1.5843,0 2.8832,-0.5046 3.8912,-1.513 1.0081,-1.1522 1.513,-2.451 1.513,-3.8912 0,-1.5843 -0.5046,-2.8773 -1.513,-3.8855 -1.008,-1.0081 -2.3069,-1.5129 -3.8912,-1.5129 z" />
  </defs>
  <rect x="0" y="0" width="3840" height="2160" fill="#0c011f"/>
  <use filter="url(#textBlur520Primary)" href="#unhandled"/>
  <use filter="url(#textBlur520Primary)" href="#hare"/>
  <use filter="url(#textBlur520Primary)" href="#eggcracks"/>
  <use filter="url(#textBlur216Primary)" href="#eventname"/>
  <use filter="url(#textBlur520Secondary)" href="#eggception"/>
  <use filter="url(#textBlur520Secondary)" href="#eggshell"/>
  <use filter="url(#textInset520Primary)" href="#unhandled"/>
  <use filter="url(#textInset520Primary)" href="#hare"/>
  <use filter="url(#textInset520Primary)" href="#eggcracks"/>
  <use filter="url(#textInset216Primary)" href="#eventname"/>
  <use filter="url(#textInset520Secondary)" href="#eggception"/>
  <use filter="url(#textInset520Secondary)" href="#eggshell"/>
</svg>
