<svg version="1.1" viewBox="0 0 3840 2160" xmlns="http://www.w3.org/2000/svg">
    <path d="M0 0v2160h3840V0z" fill="#1f1d1d" paint-order="markers stroke fill"/>
    <g fill-rule="evenodd" stroke-miterlimit="10">
        <path d="m1576 1160 .319 123.2 407.8-126.7-1.518-138.2z" fill="#343336" stroke="#87898e" stroke-linejoin="round" stroke-width="12.43"/>
        <path d="m1962 1101-356.3 83.37-4.136 432.3 357.1-11.33z" fill="#343336" stroke="#87898e" stroke-linejoin="round" stroke-width="12.43"/>
        <path d="m2212 1092-250.5 8.75.842 504 249.3-129zm-230-74 .114 76.38 216-6.397.05-60.29z" fill="#3c3e48" stroke="#87898e" stroke-linejoin="round" stroke-width="12.43"/>
        <path d="m2193 1125-12.17.967-.028 49.51 12.16-1.69zm-33.29 2.625-12.9 1.011-.028 51.53 12.9-1.772zm-154.6 11.47-16.34 1.136.082 61.01 16.33-2.125zm119.3 80.1-13.67 2.408.01 53.61 13.67-3.223zm-37.41 6.582-14.5 2.538.028 55.89 14.49-3.402zm-39.67 6.918-15.39 2.663.054 58.32 15.38-3.587zm.076 96.45-15.37 4.217.06 58.23 15.35-5.136zm-42.04 11.52-16.3 4.456.082 60.82 16.29-5.44zm119 55.85-13.64 5.147.01 53.46 13.64-5.951zm-76.92 28.95c-5.112 1.918-10.23 3.842-15.35 5.761.019 19.38.035 38.77.054 58.15 5.112-2.23 10.22-4.455 15.34-6.685-.017-19.08-.029-38.15-.049-57.22z" fill="#654d1e" stroke="#654d1e" stroke-width="12.43"/>
        <path d="m2131 1124-26.12 1.978.01 66.57 26.12-3.549zm-37.46 2.826-26.94 2 .028 68.84 26.95-3.603zm-39.72 2.935-27.83 1.995.065 71.29 27.83-3.685zm145.7 70.14-24.6 4.408-.044 62.53 24.59-5.859zm-33.26 5.956-25.33 4.506-.039 64.54 25.32-6.016zm-154.5 27.08-28.75 4.913.103 73.98 28.74-6.663zm119.2 67.15-26.09 7.212.01 66.92 26.09-8.766zm-37.37 10.33-26.92 7.424.043 69.18 26.91-9.022zm105.8 51.61-24.58 9.288-.044 63.14 24.57-10.74zm-33.21 12.55-25.3 9.554-.033 65.14 25.3-11.06zm-73.2 27.6-26.92 10.12.038 69.56 26.91-11.73zm-80.95 30.41-28.71 10.77.103 74.51 28.7-12.49z" fill="#f9a91a"/>
        <path d="m2199 1281-24.59 6.859-.044 62.78 24.58-8.304zm-33.24 9.277-25.34 7.016v64.79l25.3-8.533z" fill="#4a4c59"/>
    </g>
    <g>
        <path d="m1580 462.2-461.1 134.1-10.39 1125 471.8 122z" fill="#343336" fill-rule="evenodd" stroke="#87898e" stroke-linejoin="round" stroke-miterlimit="10" stroke-width="12.43"/>
        <path d="m1931 555.6c-116.7-31.18-233.3-62.36-350-93.54l2.738 1381c115.9-62.84 231.9-125.7 347.8-188.5-.17-366.3-.348-732.6-.519-1099z" fill="#3c3e48" fill-rule="evenodd" stroke="#87898e" stroke-linejoin="round" stroke-miterlimit="10" stroke-width="12.43"/>
        <path d="m1613 519.7.163 87.12 34.09 6.489-.147-85.61zm112.5 26.36.114 82.14 32.38 6.152-.103-80.7zm103.5 24.26.071 77.55 30.76 5.826-.065-76.17zm48.55 11.37.049 75.39 29.98 5.701-.049-74.07zm-207 72.33.136 84.36 33.21 3.837-.125-82.89zm55.08 8.804.109 81.92 32.36 3.75-.104-80.49zm152 24.3.054 75.18 29.97 3.457-.049-73.86zm-264.2 82.72.157 86.73 34.06 1.424-.146-85.25zm112.4 9.614.109 81.77 32.35 1.342-.103-80.34zm103.4 8.837.071 77.19 30.73 1.266-.06-75.83zm-158.3 107.1.136 84.13 33.18-1.103-.13-82.65zm55.01.609.114 81.7 32.33-1.065-.098-80.27zm52.77.587.087 79.36 31.52-1.054-.076-77.96zm50.59.56.071 77.12 30.72-1.022-.06-75.76zm-18.94 109.9-31.52 2 .01 5.842.076 66.59.01 6.918 6.875-.745 19.08-2.054 5.56-.598-.01-5.587c-.028-21.92-.046-43.83-.071-65.75zm-162.5 10.28-6.598.413c-7.206.452-14.41.912-21.61 1.364l-5.837.37.011 5.847.136 73.9.01 6.913 6.876-.744c7.195-.776 14.39-1.544 21.6-2.321l5.56-.598-.011-5.592c-.042-24.31-.082-48.63-.125-72.94zm260 86.29-29.93 4.135.054 75.04 29.92-5.456zm-149.3 20.58-7.054.972c-6.632.911-13.26 1.83-19.89 2.74l-5.375.738.01 5.43.098 68.87.011 7.434 7.315-1.326q9.936-1.804 19.88-3.62l5.109-.929-.01-5.19-.087-67.99zm-54.1 7.45-7.049.968q-10.37 1.422-20.73 2.853l-5.38.739.011 5.429.114 71.3.011 7.435 7.315-1.326c6.908-1.253 13.81-2.509 20.72-3.761l5.114-.93-.01-5.2c-.036-23.46-.07-46.93-.103-70.39zm-56.38 7.75-7.054.973-26.97 3.707.011 5.428.136 73.84.017 7.435 7.315-1.326 21.58-3.924 5.114-.929-.011-5.2-.125-72.88zm212.2 76.98-30.7 6.511.076 77.31 30.68-7.864zm-101.6 21.55-7.495 1.592c-6.622 1.406-13.24 2.807-19.87 4.213l-4.935 1.043.01 5.05c.032 22.94.059 45.88.092 68.83l.011 8 7.75-1.99c6.624-1.699 13.24-3.4 19.86-5.098l4.679-1.2-.01-4.827-.087-67.94zm-54.07 11.47-33.14 7.027.125 84.29 33.14-8.484zm203.3 59.4-7.929 2.278c-5.826 1.674-11.65 3.349-17.48 5.016l-4.511 1.294.01 4.69c.014 20.69.025 41.39.038 62.08l.01 8.592 8.163-2.696q8.746-2.89 17.49-5.788l4.266-1.413-.01-4.495c-.014-20.43-.025-40.87-.038-61.3zm-47.59 13.66-7.924 2.267c-6.094 1.743-12.17 3.494-18.25 5.234l-4.511 1.293.01 4.69c.019 21.41.035 42.81.054 64.21l.01 8.598 8.163-2.701c6.079-2.01 12.17-4.022 18.25-6.033l4.272-1.413-.01-4.495c-.017-21.14-.035-42.28-.054-63.41zm-101.5 29.09-32.29 9.262.109 82.05 32.28-10.68zm149.2 59.7-29.91 10.79.054 75.63 29.9-12.12zm-259.3 93.6-33.97 12.26.152 87.24 33.97-13.77zm.212 121.6-33.96 14.78.158 87.54 33.95-16.29z" fill="#644c1b" fill-rule="evenodd"/>
        <path d="m1670 533.2.136 84.58 33.22 6.304-.12-83.1zm108 25.29.092 79.79 31.54 5.995-.076-78.39zm-165.2 86.39.158 86.9 34.08 3.946-.153-85.39zm165.3 26.43.092 79.59 31.53 3.641-.076-78.18zm50.64 8.092.071 77.34 30.74 3.549-.06-75.97zm-158.4 95.39.136 84.22 33.2 1.364-.13-82.74zm107.8 9.228.087 79.43 31.53 1.299-.076-78.04zm99.11 8.457.049 75.05 29.96 1.234-.049-73.73zm-264.1 102.3.157 86.67 34.05-1.13-.152-85.15zm264.1 2.924.054 74.97 29.95-.984-.049-73.66zm30.02 103.2-6.603.413c-5.835.367-11.67.736-17.52 1.11l-5.826.374.01 5.837c.017 20.74.029 41.47.043 62.21l.01 6.918 6.88-.745 17.51-1.886 5.554-.597-.01-5.587c-.014-20.48-.025-40.95-.038-61.43zm-47.67 3.011-6.609.424c-6.09.39-12.19.778-18.28 1.163l-5.832.37.01 5.841.06 64.36.01 6.918 6.88-.744c6.088-.66 12.18-1.312 18.28-1.973l5.554-.598-.01-5.587c-.017-21.18-.035-42.37-.054-63.55zm-101.7 6.451-6.603.418c-6.634.422-13.26.846-19.89 1.261l-5.832.37.01 5.848c.031 22.98.065 45.96.098 68.93l.011 6.908 6.87-.734c6.636-.71 13.26-1.432 19.89-2.147l5.554-.598-.01-5.587c-.029-22.68-.059-45.36-.087-68.05zm-54.13 3.435-6.598.413c-6.918.434-13.83.876-20.74 1.31l-5.837.37.011 5.848.114 71.36.011 6.908 6.87-.734c6.916-.74 13.83-1.494 20.73-2.24l5.56-.597-.01-5.592c-.037-23.47-.07-46.95-.104-70.43zm155.9 96.42-7.065.978q-9.134 1.263-18.27 2.516l-5.375.74.01 5.423.054 64.32.01 7.451 7.332-1.342c6.082-1.11 12.18-2.219 18.27-3.332l5.103-.929-.01-5.19c-.017-21.16-.03-42.33-.049-63.5zm-49.73 6.864-31.5 4.337.092 79.41 31.49-5.734zm97.43 89.22-29.93 6.348.054 75.18 29.92-7.69zm-97.32 20.66-31.48 6.674.087 79.54 31.48-8.065zm-162.3 34.42-34.01 7.201.163 86.82 34-8.712zm162.4 75.34-31.47 9.027.092 79.73 31.47-10.41zm-105.9 30.34-33.13 9.484.136 84.48 33.11-10.95zm-56.32 16.14-33.99 9.723.163 87 33.98-11.24zm211.9 45.25-30.68 11.08.082 77.76 30.66-12.43zm-49.66 17.93-31.46 11.36.092 79.98 31.46-12.75zm-51.79 18.7-32.28 11.65.109 82.3 32.27-13.08zm-54 19.49-33.12 11.95.136 84.72 33.1-13.42zm203.1 29.03-29.9 13.03.054 75.93 29.89-14.34zm-202.9 88.35-33.1 14.41.136 85.02 33.09-15.87z" fill="#f9a91a" fill-rule="evenodd"/>
        <path d="m1836 1552c6.08-2.646 12.15-5.293 18.23-7.939.02 21.1.033 42.21.051 63.31q-9.11 4.373-18.23 8.744l-.057-64.12z" fill="#654d1e" fill-rule="evenodd" stroke="#654d1e" stroke-miterlimit="10" stroke-width="12.43"/>
        <path d="m1539 524.1-39.8 10.68-.098 85.56 39.85-9.5zm-143.9 38.59-38.61 10.35-.31 81.37 38.66-9.217zm-69.54 18.66-38.03 10.2-.397 79.35 38.07-9.076zm-67.97 18.23-37.46 10.05-.49 77.36 37.49-8.94zm-66.44 17.82-36.9 9.897-.576 75.43 36.93-8.815zm347.7 30.94-39.86 8.69-.098 85.66 39.91-7.522zm-144.2 31.45-38.66 8.446-.31 81.42 38.7-7.288zm-69.67 15.21-38.08 8.31-.402 79.39 38.11-7.185zm-68.11 14.86-37.5 8.185-.495 77.38 37.54-7.071zm-66.55 14.52-36.94 8.065-.576 75.42 36.97-6.957zm275.4 60.84-39.32 6.609-.201 83.61 39.35-5.44zm-209.5 35.2-37.54 6.315-.49 77.43 37.57-5.185zm-66.67 11.21-36.98 6.212-.57 75.47 37.01-5.109zm349.1 66.3-39.99 4.712-.092 85.9 40.02-3.5zm-73.22 8.62-39.38 4.63-.201 83.74 39.41-3.457zm-71.58 8.424-38.76 4.56-.31 81.62 38.8-3.397zm-69.95 8.234-38.17 4.489-.402 79.54 38.2-3.348zm-135.1 15.9-37.01 4.359-.582 75.53 37.04-3.245zm349.8 84.18-40.05 2.696-.092 86.09 40.08-1.489zm-145.1 9.755-38.82 2.609-.304 81.76 38.85-1.44zm-138.6 9.31-37.62 2.522-.495 77.63 37.66-1.397zm-66.9 4.489-37.05 2.489-.576 75.64 37.08-1.375zm350.5 102.2-40.11.663-.092 86.29 40.15.554zm-73.54 1.212-39.39.652.206 84.09 39.02.538zm-142.1 2.348-38.26.636-.408 79.83 38.3.527zm-68.61 1.136-37.67.62-.49 77.77 37.7.516zm-38.36 110.4-.5 77.95 38.75 2.5-.467-79.16zm209.3 7.179.206 84.34 39.14 2.533.163-85.51zm-276.7 97.13-.587 76.11 37.19 4.31.554-77.25zm204.8 17.47-.315 82.38 39.01 4.516.272-83.57zm-205.6 89.36-.576 76.35 37.22 6.217.554-77.49zm205.2 28-.31 82.66 39.06 6.516.266-83.85zm71.69 9.777-.201 84.86 39.68 6.63.174-86.08zm73.39 10.02-.103 87.12 40.33 6.734.06-88.35zm-284.2 71.85-.5 78.67 37.86 8.266.473-79.84zm68.52 12.86-.413 80.79 38.48 8.397.375-81.97zm70.16 13.17-.315 82.96 39.11 8.543.272-84.16zm145.2 27.3.103 87.46 40.38 8.81.054-88.7z" fill="#f9a91a" paint-order="markers stroke fill"/>
        <path d="m1466 543.6-39.21 10.52-.206 83.45 39.24-9.364zm-.239 120.6-39.26 8.571-.201 83.51 39.3-7.402zm72.83 108.7-39.92 6.707-.103 85.77 39.97-5.516zm-144.5 24.28-38.71 6.5-.31 81.51 38.76-5.359zm-69.82 11.73-38.12 6.408-.408 79.45 38.16-5.266zm-68.88 122.3-37.59 4.418-.49 77.52 37.62-3.299zm209.6 96.97-39.42 2.647-.212 83.9 39.47-1.467zm-141.8 9.527-38.22 2.571-.402 79.67 38.25-1.424zm69.7 113.7-38.82.641.31 81.94 38.23.528zm-204.9 3.408-38.03.598-.581 75.77 38.07.527zm-38.85 107-.576 75.92 37.15 2.402.549-77.05zm134.7 4.62-.402 80.02 39.14 2.527-.375-81.23zm70.36 2.391-.304 82.18 38.87 2.511.277-83.36zm143.9 4.956.092 86.55 40.01 2.587.054-87.76zm-283.1 100.3-.5 78.16 37.78 4.37.467-79.3zm68.26 5.826-.402 80.24 38.39 4.435.375-81.41zm141.4 12.07-.212 84.57 39.63 4.587.174-85.78zm73.21 6.239.092 86.83 40.09 4.636.06-88.03zm-283.6 86.13-.494 78.4 37.82 6.321.467-79.56zm68.39 9.332-.408 80.51 38.43 6.413.375-81.68zm-136 88.64-.587 76.61 37.26 8.13.555-77.76zm277.4 52.08-.201 85.18 39.74 8.674.168-86.4z" fill="#654d1e" paint-order="markers stroke fill"/>
        <path d="m1753 1588 .087 67.79-19.83 9.512-.094-68.66z" fill="#4a4c59" fill-rule="evenodd" stroke="#4a4c59" stroke-miterlimit="10" stroke-width="12.43"/>
        <path d="m1804 1565 .07 65.5-19.02 9.122-.076-66.34z" fill="#654d1e" fill-rule="evenodd" stroke="#654d1e" stroke-miterlimit="10" stroke-width="12.43"/>
    </g>
    <g>
        <path d="m2691 378.6 83.18 198-64.29-42.34z" fill="#3c3e48" fill-rule="evenodd" stroke="#88878c" stroke-miterlimit="1" stroke-width="12.43"/>
        <path d="m2774 576.7-63.9-47.32v201.8l65.55 40.23z" fill="#3c3e48" fill-rule="evenodd" stroke="#88878c" stroke-linejoin="round" stroke-miterlimit="10" stroke-width="12.43"/>
        <path d="m2813 784.4-79.06-54.97 2.714 293 78.54 10.85z" fill="#3c3e48" fill-rule="evenodd" stroke="#88878c" stroke-linejoin="round" stroke-miterlimit="10" stroke-width="12.43"/>
        <path d="m2691 374.8-84.37 175.8 98.81-25.11z" fill="#3c3e48" fill-rule="evenodd" stroke="#88898c" stroke-linecap="square" stroke-linejoin="round" stroke-miterlimit="5" stroke-width="12.43"/>
        <path d="m2706 525.4-98.81 25.11-1.62 207.9 98.94-13.77z" fill="#3c3e48" fill-rule="evenodd" stroke="#88898c" stroke-linejoin="round" stroke-miterlimit="10" stroke-width="12.43"/>
        <path d="m2733 729.5-164.4 34.08-2.088 255.5 164.1-11.72z" fill="#3c3e48" fill-rule="evenodd" stroke="#88898c" stroke-linejoin="round" stroke-miterlimit="10" stroke-width="12.43"/>
        <path d="m2690 388.5 1.24-170.2" fill="none" stroke="#88898c" stroke-linecap="round" stroke-linejoin="round" stroke-miterlimit="10" stroke-width="12.43"/>
        <path d="m2685 559.8-20.08 4.712-1.114 156.9 20.08-3.179zm35.91 2.495.337 149.9 17.47 11.1-.43-148.5zm-75.56 6.837-19.85 4.658-1.158 153.9 19.84-3.152zm101.2 11.63.837 148 17.39 11.03-.919-146.6zm-43.2 169.9-109.6 21.56-.262 31.79 109.6-20.46zm42.31 1.63.32 35.96 59.17 36.15-.292-33.52zm-42.74 49.58-109.6 18.78-.267 31.73 109.6-17.67zm43.23 4.37.32 35.3 59.1 29.96-.293-32.85zm-43.66 46.84-109.6 15.99-.261 31.68 109.5-14.88zm44.16 7.049.315 34.71 59.03 23.78-.288-32.27zm-44.59 44.16-109.5 13.21-.261 31.63 109.5-12.1zm45.08 9.652.315 34.23 58.96 17.62-.283-31.8zm-45.51 41.55-109.5 10.41-.273 31.6 109.5-9.31zm46.01 12.18.31 33.88 58.88 11.45-.273-31.45z" fill="#f9a91a" fill-rule="evenodd"/>
        <path d="m2737 1010 77.95-56.66.702 80-78.54-10.92z" fill="#3c3e48" fill-rule="evenodd" stroke="#88878c" stroke-miterlimit="10" stroke-width="12.43"/>
    </g>
    <g fill-rule="evenodd" stroke-miterlimit="10">
        <path d="m2813 982.9-331.1 35.84-4.018 445.1 337 91.41z" fill="#3c3e48" stroke="#88898c" stroke-linejoin="round" stroke-width="12.43"/>
        <path d="m2765 1022-248.6 20.08-.262 35.44 248.9-15.38zm0 69-249.1 8.223-.273 35.48 249.4-3.484zm-250 67-.256 35.55 249.9 8.494-.056-40.33z" fill="#f9a91a"/>
    </g>
    <g fill-rule="evenodd" stroke-miterlimit="10" stroke-width="12.43">
        <path d="m2297 1205-3.321 316.9 210.9 78.39.348-442.3z" fill="#3c3e48" stroke="#88898c" stroke-linejoin="round"/>
        <path d="m2693 1199-179.6-41.87-.658 442.7 177.9-58.77z" fill="#3c3e48" stroke="#88878c" stroke-linejoin="round"/>
        <path d="m2319 1226-.108 11.19 29.62-4.595.094-11.77zm53-10-.084 12.24 33.97-5.383.07-12.92z" fill="#f9a91a" stroke="#f9a91a"/>
        <path d="m2433 1205-.056 13.47 39.11-6.354.033-14.26zm-115 54-.1 11.21 29.65-2.835.095-11.8z" fill="#654d1e" stroke="#654d1e"/>
        <path d="m2372 1253-.081 12.27 34.02-3.342.07-12.96zm-54 39-.108 11.23 29.68-1.057.094-11.83z" fill="#f9a91a" stroke="#f9a91a"/>
        <path d="m2316 1494-.108 11.37 29.89 9.788.094-11.99z" fill="#654d1e" stroke="#654d1e"/>
        <path d="m2370 1511-.083 12.48 34.36 11.25.064-13.19z" fill="#f9a91a" stroke="#f9a91a"/>
    </g>
    <g fill-rule="evenodd" stroke-miterlimit="10">
        <path d="m3777 480.5c-126.1-50.23-252.2-100.5-378.3-150.7-.57 533.1-1.132 1066-1.696 1599 125.5-25.96 251-51.93 376.4-77.89 1.183-456.9 2.372-913.9 3.556-1371z" fill="#353234" stroke="#88878c" stroke-linejoin="round" stroke-width="12.43"/>
        <path d="m3389 327.7q-261.4 71.98-522.9 144c-1.968 420.2-3.904 840.4-5.814 1261 176.2 65.5 352.5 131 528.7 196.5-.042-533.7-.056-1067-.05-1601z" fill="#3c3e48" stroke="#88898c" stroke-linejoin="round" stroke-width="12.43"/>
        <path d="m3434 378.8-.053 45.1 43.29 16.03.064-44.56zm70.89 27.12-.058 44.22 42.2 15.64.075-43.71zm-180.3 44.59-56.26 12.86-.05 43.03 56.27-12.15zm-285.5 2.44-49.93 12.91-.136 39.48 49.93-12.26zm90.14 42.24-51.97 11.9-.092 40.56 51.97-11.22zm-90.35 20.68-49.93 11.43-.142 39.42 49.95-10.78zm185.4 26.05-54.09 10.76-.081 41.71 54.11-10.06zm-185.6 36.93-49.96 9.951-.125 39.37 49.96-9.299zm90.24 47.74-52.01 8.799-.097 40.48 52.01-8.136zm-.142 65.79-52.02 7.25-.114 40.45 52.04-6.576zm-176.5 85.2-48.04 5.277-.159 38.22 48.05-4.658z" fill="#f9a91a"/>
        <path d="m3325 379.1-56.23 14.54-.045 43.08 56.23-13.82zm-100.1 25.89-54.05 13.97-.07 41.82 54.06-13.28zm-95.12 24.59-51.95 13.43-.108 40.62 51.96-12.77zm304.6 22.52-.058 44.95 43.29 14.82.058-44.43zm-209.5 21.32-54.07 12.36-.07 41.77 54.09-11.67zm-271 1.668-47.97 12.41-.164 38.41 47.98-11.79zm371.1 46.89-56.28 11.19-.039 42.98 56.28-10.46zm-371.4 13.5-47.98 10.98-.164 38.36 47.99-10.37zm175.9 25.38-51.99 10.35-.108 40.52 51.99-9.679zm-176.1 35.07-48 9.56-.17 38.3 48.02-8.951zm271.2 14.55-54.11 9.147-.07 41.68 54.13-8.446zm-185.7 31.41-49.97 8.473-.136 39.33 49.98-7.815zm-85.77 14.53-48.01 8.136-.164 38.27 48.03-7.522zm85.57 48.58-49.98 6.973-.142 39.32 50.01-6.337zm-85.8 11.97-48.03 6.712-.159 38.23 48.04-6.098zm85.61 51.18-50.01 5.489-.13 39.29 50.02-4.842z" fill="#654d1e"/>
        <path d="m2952 838.2-48.05 3.848-.164 38.21 48.07-3.234z" fill="#4a4c59"/>
    </g>
    <g fill-rule="evenodd" stroke-miterlimit="10">
        <path d="m3071 1048c-87.48-21.26-175-42.53-262.4-63.8.797 190.8 1.601 381.7 2.404 572.5 84.76-21.67 169.5-43.35 254.3-65.02 1.923-147.9 3.847-295.8 5.764-443.7z" fill="#3c3e48" stroke="#88878c" stroke-linejoin="round" stroke-width="12.43"/>
        <path d="m2486 1196 284.5-209.7 27.26-3.263q.865 286.2 1.759 572.4c-105.2-30.5-210.5-60.97-315.7-91.41l2.258-268z" fill="#3c3e48" stroke="#88898c" stroke-linejoin="round" stroke-width="12.43"/>
        <path d="m2846 1028 .075 41.31 198.8 35.93.386-36.14zm0 72 .075 40.99 198 23.14.386-35.9z" fill="#ed1669"/>
        <path d="m2846 1171 .061 40.74 197.3 10.46.375-35.7z" fill="#9f55b1"/>
        <path d="m2846 1242 .059 40.53 196.5-2.065.386-35.56z" fill="#ed1669"/>
        <path d="m3042 1303-196.3 9.549.056 40.38 195.8-14.46z" fill="#3179c6"/>
        <path d="m3042 1360-195.5 21.87.061 40.28 195.1-26.71z" fill="#7779c4"/>
        <path d="m3041 1418-194.8 34.05.061 40.22 194.4-38.84z" fill="#ed1669"/>
        <path d="m2753 1022-48.45 4.294-56.67 42.98 105.2-7.114z" fill="#3179c6"/>
        <path d="m2753 1091-146.3 5.288-44.17 37.62h16.94l173.6-2.679z" fill="#7779c4"/>
        <path d="m2519 1158-.25 35.54 235 8.527-.048-40.34zm-1 58-.25 35.64 235.4 20.65-.05-40.48z" fill="#ed1669"/>
        <path d="m2518 1274-.25 35.77 235.9 32.86-.056-40.66z" fill="#3ebc87"/>
        <path d="m2517 1332-.25 35.94 236.4 45.16-.053-40.87zm0 59-.256 36.14 236.9 57.58-.056-41.12z" fill="#ed1669"/>
    </g>
    <g fill-rule="evenodd" stroke-miterlimit="10">
        <path d="m3398 516.9 162.5-122.5 216 86.04-3.556 1371-376.4 77.89z" fill="#353234" stroke="#88878c" stroke-linejoin="round" stroke-width="12.43"/>
        <path d="m2864 913.1 524.9-391 .056 1407-528.7-196.5 3.758-819.2z" fill="#3c3e48" stroke="#88898c" stroke-linejoin="round" stroke-width="12.43"/>
        <path d="m3523 412.6-17.63 13.57-.033 23.92 42.2 15.64.07-43.71zm179.4 463-.092 41.15 39.09 7.908.092-40.69zm-478.1 9.761-54.2 2.685-.075 41.66 54.22-1.984zm280.2 90.09-.061 43.42 42.15 6.152.07-42.9zm-236.2 48.23-.044 42.98 56.46 1.326.039-43.72zm235.9 164.8-.07 43.27 42.14 2.614.07-42.76zm-334.9 171.9-.07 42.03 54.37 9.397.056-42.73zm306.6 470.4-43.15 7.652-.056 44.2 43.15-8.168z" fill="#3179c6"/>
        <path d="m3573 432.1-.07 43.38 41.15 15.24.07-42.89zm-114.1 28.96-25.26 17.82-.028 18.2 43.28 14.82.061-44.43zm243.7 20.59-.097 41.8 39.12 14.48.103-41.32zm-129.7 19.83-.086 43.25 41.15 14.09.086-42.76zm65.95 23.37-.097 42.45 40.12 13.72.086-41.95zm-134.4 23.67-.061 43.97 42.18 13.26.075-43.46zm134.3 43.83-.086 42.33 40.1 12.61.097-41.84zm-314.5 1.196-56.3 9.511-.045 42.95 56.31-8.777zm109.2 5.076-.056 44.73 43.27 12.38.061-44.19zm268.8 14.48-.097 41.54 39.11 12.28.103-41.07zm-129.6 27.05-.086 43.02 41.14 11.77.086-42.51zm-248.5 25.01-56.33 7.832-.044 42.92 56.33-7.098zm109.2 6.663-.053 44.61 43.26 11.17.067-44.08zm268.8 6.951-.103 41.43 39.1 11.18.103-40.96zm-478.3.342-54.13 7.538-.075 41.66 54.15-6.837zm280.4 11.85-.061 43.76 42.18 10.89.056-43.23zm-375.7 13.85-45.23 34.41 45.16-5.712zm510 22.43-.086 42.11 40.1 10.35.092-41.63zm-314.3 9.592-56.36 6.158-.039 42.92 56.35-5.429zm377.8 7.571-.092 41.34 39.1 10.09.086-40.86zm-268.7.571-.056 44.53 43.26 9.957.056-44zm-304.9 13.26-52.05 5.707-.103 40.43 52.06-5.022zm375.7 3.908-.064 43.66 42.17 9.707.058-43.15zm-466.3 11.48-53.26 39.62 53.15-5.14zm534.6 5.082-.067 42.82 41.11 9.467.081-42.33zm65.89 15.96-.081 42.01 40.09 9.217.092-41.53zm-414.7 21.9-54.18 4.31-.07 41.65 54.2-3.603zm-186 14.82-50.03 3.99-.125 39.29 50.03-3.343zm466.4 1.902-.067 43.58 42.17 8.516.061-43.06zm-552.3 5.152-54.71 42.28 54.56-3.652zm372.3 41.99-56.41 2.788-.039 42.93 56.4-2.065zm109.1 10.8-.061 44.35 43.24 7.527.061-43.83zm-395.7 3.43-50.04 2.51-.142 39.29 50.05-1.848zm534.7 22.47-.07 42.66 41.11 7.151.07-42.16zm129.4 24.08-.092 41.08 39.08 6.798.097-40.6zm-377.5 11.13-56.43 1.108-.044 42.95 56.43-.37zm-196.1 3.858-52.1 1.043-.103 40.45 52.11-.359zm-90.66 1.815-50.06 1.005-.136 39.3 50.07-.353zm-85.97 1.734-48.09.984-.164 38.22 48.11-.359zm35.71 61.18-.136 39.33 50.08 1.136.13-39.98zm182.1 1.794-.07 41.71 54.27 1.261.05-42.41zm334.6 23.84-.059 43.36 42.15 4.973.07-42.85zm-601 33.01-.164 38.28 48.12 2.522.153-38.9zm84.07 3.315-.125 39.38 50.1 2.63.12-40.02zm182.2 7.255-.07 41.74 54.28 2.875.067-42.45zm98.49 3.951-.044 43.03 56.48 3.011.044-43.76zm165.4 16.24-.05 44.17 43.21 3.902.061-43.65zm70.72 7.24-.067 43.32 42.15 3.787.07-42.8zm-517 27.33-.125 39.42 50.11 4.14.125-40.08zm88.75 6.173-.109 40.58 52.17 4.326.092-41.26zm192.1 13.45-.044 43.08 56.51 4.701.044-43.81zm165.3 18.78-.05 44.14 43.21 2.68.061-43.6zm-530.6 15.31-.159 38.39 48.15 5.413.154-39.02zm172.9 17.21-.108 40.63 52.19 5.891.092-41.32zm93.6 9.337-.07 41.86 54.33 6.147.053-42.58zm263.9 31.08-.05 44.1 43.21 1.484.05-43.58zm-530.7 1.99-.159 38.46 48.17 6.847.153-39.08zm84.19 10.89-.125 39.54 50.15 7.151.125-40.21zm182.5 23.65-.07 41.94 54.35 7.765.053-42.65zm334.6 37.67-.064 43.22 42.12.26.07-42.71zm-517.3.863-.136 39.63 50.17 8.658.125-40.29zm88.87 14.18-.092 40.79 52.23 9.022.092-41.49zm192.4 30.74-.044 43.31 56.58 9.8.044-44.05zm-365.8 1.37-.164 38.62 48.2 9.756.153-39.26zm643.8 23.33-42.12.408-.064 43.21 42.11-.918zm-69.57.663-43.19.413-.064 44.07 43.19-.929zm-401 8.815-.097 40.89 52.25 10.59.092-41.57zm93.76 17.78-.07 42.12 54.39 11.03.061-42.84zm-267.2 9.185-.164 38.72 48.21 11.21.158-39.36zm574.4 35.85-43.2 1.62-.05 44.08 43.18-2.158zm-401.1 2.174-.103 41 52.27 12.16.092-41.68zm93.79 20.61-.07 42.23 54.42 12.66.056-42.94zm-267.3 1.196-.164 38.84 48.23 12.65.153-39.47zm366.1 20.52-.039 43.53 56.64 13.19.039-44.27zm-281.8.517-.136 39.95 50.23 13.18.12-40.6zm89.01 22.21-.103 41.11 52.29 13.74.086-41.8zm401.2 4.364-43.17 2.832-.05 44.08 43.17-3.348zm-490.4 35.85-.13 40.07 50.24 14.71.108-40.73zm281.9 7.913-.05 43.64 56.66 14.9.039-44.38zm277.9 21.3-42.1 3.935-.058 43.23 42.1-4.44zm-376.9 21.95-.067 42.48 54.45 15.94.061-43.19zm98.92 27.68-.039 43.77 56.68 16.6.039-44.52zm277.8 19.96-42.09 5.114-.058 43.27 42.1-5.62zm-560.1 26.23-.136 40.35 50.28 17.73.12-41.01zm282.2 24.8-.05 43.92 56.71 18.3.039-44.65zm-193.1 5.478-.103 41.53 52.35 18.47.086-42.22zm470.9 13.05-42.1 6.283-.056 43.3 42.08-6.8zm-69.49 10.38-43.16 6.446-.056 44.16 43.16-6.967zm-307.4 8.516-.07 42.76 54.5 19.23.056-43.47z" fill="#ed1669"/>
        <path d="m3639 457.3-.097 42.58 40.12 14.85.097-42.08zm-205.4 68.06-.053 44.83 43.28 13.6.056-44.31zm139.2 45.44-.07 43.14 41.14 12.93.07-42.63zm-.25 138.6-.064 42.92 41.12 10.61.08-42.41zm129.3 100.6-.092 41.25 39.1 8.995.092-40.77zm-573.6 14.13-52.07 4.141-.103 40.43 52.08-3.462zm510 37.88-.081 41.93 40.09 8.103.086-41.45zm-134.3 42.37-.056 43.49 42.16 7.337.06-42.98zm-335 253.2-.07 41.8 54.3 4.511.056-42.51zm98.48 77.41-.044 43.15 56.53 6.402.039-43.89zm165.2 94.12-.05 44.08 43.2.272.05-43.55zm-446.9 64.42-.126 39.73 50.18 10.16.12-40.38zm559.4 77.04-42.11 1.587-.07 43.21 42.11-2.087zm-644.4 86.47-.165 38.96 48.24 14.11.153-39.59zm267.5 6.804-.067 42.34 54.43 14.31.06-43.06zm-94.01 41.67-.103 41.24 52.32 15.31.086-41.92zm93.78 94.28-.058 42.61 54.48 17.59.056-43.33z" fill="#f0398b"/>
        <path d="m3505 477.2-.058 44.09 42.19 14.45.075-43.58zm134 182.6-.081 42.22 40.11 11.47.086-41.73zm-66.28 188.1-.086 42.74 41.12 8.31.081-42.24zm-620.8 51.04-48.07 2.418-.164 38.21 48.08-1.793zm271.9 55.34-54.23 1.071-.07 41.67 54.23-.37zm209.5 83.03-.053 44.22 43.23 5.109.056-43.71zm-446.6 169.6-.13 39.48 50.13 5.636.119-40.13zm280.8 240-.039 43.41 56.6 11.5.045-44.16zm-366.9 230.1-.164 39.23 48.27 17.03.153-39.86z" fill="#9f55b1"/>
        <path d="m3703 547.3-.097 41.67 39.11 13.39.103-41.18zM3433.8 818l-.053 44.44 43.24 8.739.058-43.9zm-305.2 72.03-52.08 2.603-.108 40.43 52.09-1.918zm375.3 369.4-.067 43.24 42.13 1.435.069-42.73zm-236.1 46.07-.039 43.23 56.55 8.087.039-43.96zM2986 1455.8l-.13 39.84 50.2 11.67.124-40.48zm489.8 232-43.17 5.234-.056 44.12 43.16-5.761zm-208.5 113.7-.039 44.06 56.73 20.02.039-44.8z" fill="#059fb9"/>
        <path d="m3505 619.7-.056 43.85 42.19 12.08.056-43.34zm-71.28 344.5-.056 44.29 43.23 6.315.058-43.75zm42.38 652.1-43.17 4.032-.056 44.09 43.17-4.554zm-574.9.636-.159 39.09 48.26 15.57.153-39.73zm644.1 201.5-42.07 7.462-.075 43.34 42.08-7.962z" fill="#00a76c"/>
        <path d="m3224 747.8-54.15 5.924-.075 41.65 54.17-5.228zm414.3 181.6-.092 41.86 40.08 6.962.092-41.37zm-562.4 92.39-.103 40.48 52.14 1.201.081-41.17zm-173.2 117.3-.159 38.32 48.14 3.967.148-38.95zm-.733 178.8-.165 38.53 48.18 8.299.153-39.16zm643.3 222.4-42.1 2.772-.075 43.21 42.1-3.266zm-471 130.5-.103 41.38 52.33 16.89.097-42.07z" fill="#3ebc87"/>
        <path d="m3325 808.6-56.38 4.478-.039 42.91 56.38-3.734zm-421.2 211.5-.164 38.24 48.11 1.087.153-38.87zm172.5 66.29-.103 40.53 52.15 2.755.097-41.21zm-.5 194.2-.097 40.71 52.21 7.457.081-41.41zm-90.08 362.5-.136 40.2 50.26 16.22.125-40.86z" fill="#7779c4"/>
    </g>
    <g fill-rule="evenodd" stroke-miterlimit="10">
        <path d="m4252 888.1-101.5 11.25-578.6 77.36 1.329 919.9 666 249.2z" fill="#3c3e48" stroke="#88898c" stroke-linejoin="round" stroke-width="12.43"/>
        <path d="m3881 969.7-61.15 7.723.522 121.6 61.22-4.614zm-207.4 25.53-55.8 6.62.228 111.7 55.86-3.832zm208.1 132.8-61.24 3.353.505 121.9 61.33-.239zm-207.8 10.79-55.89 2.701.228 111.9 55.94.092zm42.99 144.9.364 117.1 58.54 4.092-.434-120.1zm104.2 2.087.505 122.2 61.44 4.163-.592-125.3zm-103.7 145.3.364 117.5 58.63 8.272-.44-120.5zm104.4 9.516.516 122.6 61.53 8.592-.597-125.7zm-202.9 122.1.234 112.9 56.17 11.97-.288-115.8zm203.5 33.08.533 123 61.62 13.02-.61-126.2zm-104.1 131.1.37 118.4 58.8 16.66-.441-121.4zm104.8 24.48.543 123.5 61.71 17.47-.603-126.7z" fill="#ed1669"/>
        <path d="m3774 983-58.29 7.136.359 116.6 58.36-4.201z" fill="#3179c6"/>
        <path d="m3775 1134-58.39 3.005.364 116.8 58.45-.054zm-156.2 288.3.228 112.5 56.09 8-.288-115.3z" fill="#f0398b"/>
        <path d="m3618 1282 .234 112.2 56.02 4.038-.294-115z" fill="#059fb9"/>
        <path d="m3718 1579 .37 117.9 58.72 12.46-.44-120.9z" fill="#00a76c"/>
        <path d="m3619 1704 .234 113.4 56.26 15.96-.3-116.2z" fill="#9f55b1"/>
    </g>
    <g fill-rule="evenodd">
        <path d="m2294 1458 1.24-118.4 209.3-157.2q-.172 203.2-.323 406.5z" fill="#3c3e48" stroke="#88898c" stroke-miterlimit="10" stroke-width="12.43"/>
        <path d="m2513 1591 .614-412.6 21.73-15.79 157.9 36.81-2.347 342.1-168.3 55.6z" fill="#3c3e48" stroke="#88878c" stroke-linejoin="round" stroke-miterlimit="10" stroke-width="12.43"/>
        <path d="m2478 1193-42.74 32.03 42.65-6.962zm-.114 40.98-51.57 6.31-.114 25.9 51.62-5.255zm56.12.266-.061 27.34 44.91 5.027.08-26.46zm55.42 7.283-.103 26.26 41.88 4.674.125-25.44zm-177.6 1.842-38.57 28.07 38.42-3.794zm227.9 4.745-.142 25.28 39.08 4.364.13-24.53zm-161.9 28.9-51.65 3.18-.092 25.86 51.67-2.126zm56.12 1.353-.061 27.24 44.87 2.451.092-26.39zm105.5 7.761-.142 25.21 39.05 2.103.142-24.45zm-327.8 33.73-.228 23.56 42.16 1.033.189-24.41zm222.2 2.522-.064 27.2 44.84-.125.086-26.33zm55.3.908-.109 26.12 41.83-.12.131-25.33zm-163.3 36.97-.092 25.95 51.8 4.196.07-27.02zm205 2.043-41.82 1.734-.114 26.12 41.81-2.533zm-266.5 30.56-.17 24.79 46.66 6.717.12-25.76zm313.5 3.027-39.02 3.864-.13 25.21 38.99-4.614zm-47.24 4.679-41.8 4.125-.097 26.16 41.78-4.924zm-266.5 28.77-.178 24.95 46.7 9.57.136-25.91zm214.2 17.54-44.77 6.962-.06 27.29 44.74-7.821zm-267.9 5.853-.228 24.03 42.28 11.27.19-24.91zm319.9 24.11-41.76 8.897-.092 26.35 41.73-9.69zm-204.9 4.147-.103 26.41 52 13.79.06-27.51zm204.7 33.88-41.72 11.27-.109 26.51 41.71-12.06zM2337 1494l72.79 46.3.114-23.93z" fill="#ed1669"/>
        <path d="m2412 1281-46.49 2.712-.164 24.63 46.51-1.766zm178.1 1.207-.114 26.18 41.86 2.261.125-25.36zm87.77 184.5-38.98 8.321-.142 25.4 38.96-9.054zm-252.2 54.63-.092 26.65 52.06 17.03.061-27.76z" fill="#7779c4"/>
        <path d="m2590 1200-.103 26.39 41.9 7.098.13-25.57zm-224.7 119.6-.178 24.64 46.57 1.038.136-25.59zm213.6 85.64-44.8 4.402-.059 27.22 44.78-5.261zm-267.8 13.73-.228 23.84 42.24 8.69.2-24.71zm367 11.93-38.99 6.092-.142 25.28 38.98-6.832zm-252.1 9.288-.114 26.22 51.93 10.57.075-27.29zm152.6 47.29-44.74 9.511-.061 27.4 44.71-10.36z" fill="#f03386"/>
        <path d="m2478 1320-51.7.038-.108 25.89 51.74 1.016zm152.7 118.6-41.77 6.516-.114 26.23 41.76-7.31zm46.77 63.38-38.97 10.53-.12 25.56 38.93-11.27z" fill="#3179c6"/>
        <path d="m2639 1324-.136 25.16 39.03-.136.153-24.41zm-328 28.92-.228 23.6 42.19 3.582.189-24.47z" fill="#059fb9"/>
        <path d="m2640 1210-.13 25.4 39.08 6.62.152-24.65zm-275.3 146.4-.164 24.69 46.6 3.87.142-25.65z" fill="#00a76c"/>
        <path d="m2534 1190-.061 27.47 44.94 7.62.081-26.6zm144 170.3-39.03 1.636-.13 25.16 39.01-2.375zm-367.1 25.87-.228 23.7 42.22 6.136.189-24.57zm114.9 14.34-.097 26.05 51.87 7.38.061-27.14zm-61.99 65.35-.17 25.14 46.73 12.43.142-26.11zm214.2 63.03-44.7 12.07-.061 27.55 44.67-12.92z" fill="#3ebc87"/>
        <path d="m2579 1364-44.83 1.837-.075 27.18 44.82-2.696z" fill="#9f55b1"/>
    </g>
    <path d="M2208 1405 3792 218l314.9-239.4 681.9 175.8-21.61 2082-666.7 346.8-299.3-196.1z" fill="none" stroke="#a8a8ac" stroke-miterlimit="10" stroke-width="18.65"/>
    <image x="2001" y="305.7" width="1839" height="1854" image-rendering="optimizeSpeed" href="nature.png" preserveAspectRatio="none"/>
    <g stroke-linejoin="round" stroke-miterlimit="10">
        <path d="m1984 1703a16.93 16.93 0 00-6.826 5.396c-5.485 7.377-3.739 17.67 3.897 22.97s18.29 3.615 23.78-3.761a16.1 16.1 0 003.119-7.969zm214-337c42.57 0 77.13 33.64 77.13 75.08s-34.56 75.09-77.13 75.09-77.14-33.65-77.14-75.09 34.57-75.08 77.14-75.08zm146 375c-.873 2.769-.93 5.664-.159 8.395 2.423 8.584 12.25 13.49 21.93 10.94 9.686-2.546 15.58-11.58 13.16-20.17-.772-2.73-2.335-5.199-4.543-7.158z" fill="#3179c6" fill-rule="evenodd" stroke="#3179c6" stroke-width="12.43"/>
        <path d="m2138 1520c60.88 38.28 114.1 5.45 114.1 5.45s36.98 19.59 74 80.3c19.34 31.71 38.43 66.6 39.73 104 .342 9.913-37.61 21.23-49.71 1.935-21.81-34.75-56-92.18-56-92.18s28.14 94.36 13.37 156.6c-2.05 8.635-36.14 16.09-94.1 13.4-57.45-2.666-87.66-14.45-88.62-22.9-8.478-75.4 32.38-146.7 32.38-146.7s-60.99 68.15-82.22 84.78c-12.65 9.909-53.92-19.96-45.76-36.08 32.85-64.93 77.22-96.24 142.8-148.5z" fill="#ec206d" fill-rule="evenodd" stroke="#ec206d" stroke-width="12.43"/>
        <path d="m2086 1791s33.73 17.42 88.6 19.46c66.34 2.459 97.51-8.506 97.51-8.506s14.36 60.16 14.99 120.8c.355 33.32 1.221 68.61-5.258 110.5-3.214 20.8-80.01 26.26-83.57 8.414-11.3-56.65-25.53-160.9-25.53-160.9s-28.39 99.77-55.55 156.2c-8.275 17.19-67.79 15.44-70.14-8.927-4.587-47.59-1.417-78.94 7.649-125.9 13.44-69.61 31.3-111.2 31.3-111.2z" fill="#050302" fill-rule="evenodd" stroke="#050302" stroke-width="12.43"/>
        <path d="m2231 1377c32.71-4.638 50.28 1.79 74.74 11.74 16.62 6.752 20.05 47.9 18.01 62.11-11.68-13.41-50.04-38.88-85.66-36.02-15.62 1.252-13.56-36.92-7.092-37.83z" fill="#88898c" fill-rule="evenodd" stroke="#88898c" stroke-width="6.217"/>
        <path d="m2040 2053c17.74 13.32 43.25 18.06 72.66 11.91 7.086-.385 46.62 29.14 27.07 32.84-31.44 5.957-76.76.064-94.21-10.14-10.5-6.142-11.03-16.63-5.523-34.62zm172 15c23.19 7.201 52.04 3.8 81.68-11.2 7.478-2.567 59.12 13.33 39.31 22.93-31.87 15.45-82.33 23.89-104.2 19.58-13.2-2.597-17.04-12.44-16.75-31.31z" fill="#ec206d" fill-rule="evenodd" stroke="#ec206d" stroke-width="12.43"/>
        <path d="m2183 1469s5.156 11.83 11.76 11.28c18.97-1.589 26.77.85 48.01 4.674" fill="none" stroke="#050302" stroke-width="11.19"/>
        <path d="m2186 1410c-31.16 2.695-52.33 5.456-69.57 12.82-4.587 1.961-4.467 23.7-1.468 22.28 15.56-7.405 50.12-18.59 68.34-15.56z" fill="#a8a8ac" fill-rule="evenodd" stroke="#d6d4d4" stroke-width="6.217"/>
        <path d="m2182 1398c12.44-8.713 27.25-14.16 47.06-20.65-6.636 19.45-1.759 37.63 6.675 37.16 26.96-1.491 61.88 9.037 87.22 36.57-12.81 4.705-28.55 4.014-41.64 5.401-12.14-9.342-60.8-21.5-88.43-19.69-13.22.868-17.71-34.03-10.88-38.8z" fill="#a8a8ac" fill-rule="evenodd" stroke="#d6d4d4" stroke-width="6.217"/>
        <path d="m2215 1383c-4.403 20.63 2.676 37.58 12.61 37.7 16.96.208 55.44 3.55 84.69 32.88" fill="none" stroke="#d6d4d4" stroke-width="6.217"/>
        <path d="m2194 1393c-7.162 6-5.89 38.03 3.6 36.51 23.12-3.696 74.09 5.908 92.7 24.98" fill="none" stroke="#d6d4d4" stroke-width="6.217"/>
        <path d="m2231 1377c32.71-4.638 50.28 1.79 74.74 11.74 16.62 6.752 20.05 47.9 18.01 62.11-11.68-13.41-50.04-38.88-85.66-36.02-15.62 1.252-13.56-36.92-7.092-37.83z" fill="#88898c" fill-opacity=".416" fill-rule="evenodd" stroke="#d6d4d4" stroke-width="6.217"/>
        <path d="M2265 1404c4.302-1.821 25.41-10.22 25.41-10.22M2265 1398l11.74-4.546" fill="none" stroke="#d6d4d4" stroke-width="6.217"/>
    </g>
    <g fill-rule="evenodd" stroke-linejoin="round" stroke-miterlimit="10">
        <path d="m2305 124.7a194 194 0 00-28.27.435c-19.3 1.697-44.09 15.49-67.34 29.92-21.57 13.39-40.04 26.86-48.7 33.3-16.22-6.054-34.96-10.25-57.02-11.58-22.16-1.33-51.53 12.65-80.48 29.18-26.99 15.41-51.8 32.98-66.96 45.26-31.53-19.41-80.1-29.78-121.2-13.57-30.29 11.97-55.87 34.21-73.79 63.02-14.25-32.27-47.43-58.67-107.5-62.27-13.63-.818-30.24 4.655-48.81 12.75s-38.79 19.09-57.61 30.4-36.22 22.91-49.09 32.26c-6.432 4.674-11.71 8.77-15.58 12.09-1.931 1.658-3.499 3.099-4.788 4.489-.644.695-1.219 1.366-1.794 2.212-.574.846-1.351 1.707-1.609 4.14a7 7 0 002.011 5.69c12.71 12.73 19.02 21.43 21.25 29.55 2.229 8.117.954 16.97-4.011 31.45a7.008 7.008 0 0013.11 4.94c.287-.697 5.66-6.515 13.93-11.96 8.269-5.44 19.22-11.5 30.68-17.45 22.93-11.9 47.64-23.2 59.54-30.14h.01c12.4-7.234 25.65-11.67 35.98-12.64 5.169-.485 9.572-.088 12.66.903 3.091.991 4.75 2.334 5.788 4.136 8.035 13.94 7.912 26.69 2.576 40.86s-16.41 29.28-30.12 44.79l-.01.006c-14.48 16.4-48.42 46.08-79.02 70.39-15.3 12.15-29.85 23.06-40.75 30.46-5.452 3.699-10.03 6.527-13.07 8.098-.972.503-1.805.87-2.353 1.092a7 7 0 012.994 1.168c.195.13.391.274.587.44a7 7 0 00-.587-.44c-1.263-.842-2.465-.964-3.016-.973a4 4 0 00-.554.022l-.054.017a.3.3 0 01-.054.011h-.01v-.006h.02a1 1 0 01.103-.022c.116-.037.313-.111.576-.217a7.008 7.008 0 00-7.299 9.946c13.48 28.33 19.53 59.43 15.24 94.11a7.008 7.008 0 009.022 7.554c91.48-28.22 184.7-42.51 282.7-27.26a7.008 7.008 0 007.636-9.391c-5.075-13.47-6.789-28.08-4.94-44.61 14.4 11.38 30.3 19.68 47.05 22.92 20.96 4.057 46.83 3.394 71.66-3.56 23.23-6.505 45.39-18.93 61.07-38.43-.791 4.945-1.569 9.308-2.212 14.49a7.008 7.008 0 009.022 7.56c92.17-28.43 152.5-47.7 250.5-32.45a7.008 7.008 0 007.636-9.391c-1.767-4.693-1.084-9.56.652-15.06 36.72.56 78.25.833 114.6-4.337 38.1-5.412 71.4-16.38 85.55-42.17 12.96-23.61 21.08-45.38 23.28-65.02 2.198-19.64-1.82-37.46-13.27-51.17l-.01-.006c-28.7-34.37-68.22-43.34-93.9-45.23 2.718-1.81 4.814-2.947 7.712-5.06 15.45-11.26 32.78-26.22 39.08-44.58 9.16-26.68 8.023-49.14 1.11-66.89-6.916-17.75-19.33-30.59-31.83-39.23h-.01c-22.28-15.37-49.7-23.32-77.85-24.97zm1 77.27c.423-.008.775.005 1.038.027h.01c9.753.808 17.54 4.133 21.88 9.554s6.395 13.63 2.418 27.67v.006c-1.814 6.426-8.285 13.77-17.89 20.49s-21.96 12.8-34.1 17.78c-22.39 9.191-41.98 14.17-45.18 14.97 1.16-18.31-2.802-37.06-12.34-54.22 11.34-6.192 25.99-14.11 41.6-21.39 17.88-8.33 36.19-14.78 42.57-14.9zm-203.9 72.57c7.565.186 14.53 1.267 19.66 2.929 5.129 1.662 8.034 4.06 8.62 5.076 8.023 13.92 9.082 29.64 4.783 46.14-4.299 16.51-14.12 33.55-27.47 48.66-14.43 16.33-43.12 38.03-68.91 55.41 1.733-14.38 1.444-28.75-1.125-43.28v-.006c-4.385-24.82-13.16-48.51-23.97-69.43 16.62-17.22 28.24-26.56 44.23-35.89 11.47-6.688 29.05-9.992 44.18-9.62zm-1041 9.717c-22.93.213-56.64 8.637-91.41 24.87-32.03 14.96-64.38 36.94-88.88 65.59a7.01 7.01 0 00-5.859-8.446l-72.61-8.315a7.01 7.01 0 00-6.56 2.973c-32.59 47.08-48.92 89.7-55.74 129.6-29.17-24.67-41.97-57.51-45.26-96.79a7.01 7.01 0 00-7.772-6.375l-77.52 8.761a7.01 7.01 0 00-6.196 6.386c-1.69 20.43-2.829 40.44-3.973 60.45-14.74-17.89-36.06-30.34-58.9-38.2-30.12-10.35-63.13-12.95-89.51-8.842-21.31 3.31-46.57 14.04-66.05 24.36a7.01 7.01 0 00-5.413-5.565l-72.59-8.315a7.01 7.01 0 00-6.56 2.973c-32.59 47.08-48.92 89.69-55.76 129.6-29.17-24.67-41.97-57.5-45.24-96.78a7.01 7.01 0 00-7.772-6.38l-77.54 8.755a7.01 7.01 0 00-6.196 6.386c-12 145.3-12.15 281.9 24.92 384.7a7.01 7.01 0 008.353 4.408l60.67-15.75a7.01 7.01 0 005.005-8.592c-14.62-54.6-21.89-117.1-15.68-196.3 8.39 22.29 19.56 41.63 36.51 54.67a7.01 7.01 0 007.261.783l43.03-20.29a7.01 7.01 0 004.005-6.734c-1.104-19.54 5.505-36.61 15.64-53.03-4.994 83.48 39.34 159 60.53 195.9a7.01 7.01 0 006.533 3.505l51.6-3.386a7 7 0 004.049 4.82c23.44 3.56 51.76 8.564 82.18-13.29a7 7 0 002.788-4.347c4.145-21.24 4.234-50.32 2.25-76.6-.992-13.14-2.521-25.54-4.424-35.85-.475-2.571-1.021-4.558-1.522-6.837 16.29 10.65 36.24 30.62 51.33 50.33 9.837 12.85 17.86 25.53 22.15 34.68 1.983 4.225 3.108 7.79 3.402 9.603a7 7 0 012.418-1.294c-.752.31-1.921 1.363-2.196 1.995-.108.249-.151.383-.163.418.006-.055.037-.296-.006-.706a8 8 0 00-.054-.413 7.008 7.008 0 004.95 12.39s21.35-1.536 43.3-3.13c.53 1.532 1.04 3.08 1.588 4.598a7.01 7.01 0 008.353 4.408l52.73-13.68c2.285-.183 3.548-.305 4.777-.424 2.357 1.178 4.556 2.146 8.39 1.272 2.407-.549 5.41-3.216 6.153-5.761s.303-4.291-.115-5.772c-1.55-5.5-5.268-10.48-10.5-17.2-11.59-50.01-16.26-107.7-10.94-177.8 8.34 21.75 19.36 40.66 35.99 53.45a7.01 7.01 0 007.261.782l43.03-20.29a7.01 7.01 0 004.005-6.728c-1.093-19.55 5.518-36.63 15.66-53.06-5.005 83.48 39.32 159 60.51 195.9a7.01 7.01 0 006.533 3.505l70.18-4.603a7.008 7.008 0 005.696-10.35c-8.963-16.44-17.31-33.68-25.24-51.28 65.43 42.52 137.5 38.26 199.9 20.89 23.83 4.617 60.88 4.272 101.5-1.435 41.54-5.84 86.27-17.3 122.2-35.7 64.77-33.2 92.56-135.1 52.23-218.2-28.27-58.24-104.6-116.6-181.7-119.2-38.88-1.322-74.61 5.836-103.3 15.09l-13.14-46.82a7 7 0 00-1.94-3.207c-6.172-5.819-14.79-6.832-25.38-6.734zm1170 28.01c4.627 12.85 4.709 25.59-2.777 40.17a7.008 7.008 0 006.234 10.21s22.33-.002 47.35.908c12.51.454 25.7 1.14 36.99 2.158 11.3 1.016 20.99 2.533 25.12 3.918 15.97 5.355 26.71 15.28 31.99 25.12 5.285 9.839 4.992 18.85.755 24.34-6.882 8.916-19.9 14.22-36.91 16.14-17.01 1.918-37.49.426-57.52-2.837s-39.66-8.265-55.22-13.11c-15.56-4.85-27.78-10.16-30.14-11.71a7.008 7.008 0 00-9.527 9.962c6.502 8.977 11.2 17.84 14.97 26.63-20.08-2.313-39.98-1.608-63.17 3.788 32.36-26.34 76.43-72.27 91.85-135.7zm-354.5 8.212h.01c11.27-.053 25.59 6.967 38.18 18.93 12.59 11.97 23.38 28.59 28.6 45.91 7.731 25.59 8.865 56.2.967 80.41-7.897 24.21-23.6 41.83-51.95 45.38-2.798.35-7.619-.904-13.22-4.288-5.598-3.384-11.83-8.638-17.75-14.78-11.84-12.28-22.5-28.32-26.53-38.94-8.629-22.73-13.48-60.2-4.228-91.43 2.276-7.691 9.957-18.78 19.22-27.2 9.264-8.416 20.24-13.96 26.7-14zm-833.4 83.49 14.61 41.1a7.008 7.008 0 0010.03 3.766c23.91-13.39 20.66-13.18 41.29-19.48 2.466 9.137 19.02 71.75 32.57 138.1a7 7 0 00-3.554.473s-22.87 14.23-54.02 22.21c-31.14 7.982-69.45 9.544-101.6-14.76-22.51-17.04-32.9-41.08-34.83-65.4-1.924-24.32 4.999-48.73 16.61-64.84 5.327-7.381 17.64-16.19 33.11-23.84 13.69-6.767 29.81-12.63 45.73-17.37zm152.9 14.09c8.962 1.028 22.99 3.104 42.03 9.348 27.75 9.099 58.37 25.76 72.58 55.09 12.69 26.19 13.5 46.42 8.386 62.71-5.111 16.29-16.52 29.06-29.93 38.95-22.06 16.25-44.66 22.56-53.52 24.8-6.276-54.17-21.86-123.2-39.54-190.9zm542 20.57c2.814 20.5 7.715 40.24 14.53 57.15 5.154 12.8 12.22 24.65 20.02 35.86-43.55-5.586-89.71-3.189-135.9 8.424 31.28-22.87 72.69-58.49 101.3-101.4zm-1247 59.86c9.737-.092 18.33 1.872 25.17 6.13 6.845 4.259 12.23 10.78 15.62 21.24 4.267 13.2 2.577 23.17-2.168 31.91-4.745 8.738-13 16.15-22.16 21.98-13.17 8.377-25.01 12.3-32.18 14.41-4.325-34.69-17.13-63.58-26.7-84.69 14.18-6.357 29.18-10.85 42.41-10.98zm-118.6 13.59c13.61 39.63 29.07 94.21 35.36 126.1v.006c4.771 24.16 6.048 69.27 6.484 107.9-31.11-69.67-51.12-148.1-41.85-234zm224.9 87.95c.656 17.56 1.758 34.72 3.321 51.48-12.44-10.58-24.57-20.43-35.14-27.28 8.783-4.709 20.49-12.22 31.82-24.21z" fill="#050302"/>
        <path d="m2186 144.3s81.84-62.88 118.1-66.07c36.3-3.193 73.54 4.024 101.5 23.31 23.22 16.04 45.52 47.28 28.08 98.08-10.64 30.98-65.17 59.14-65.17 59.14s70.17-9.42 113.5 42.51c20.17 24.16 14.57 62.14-10.78 108.3-28.39 51.73-157.3 42.76-233.6 42.38 13.05-31.21 4.336-61.98-17.76-92.48 17.03 11.22 154.8 54.52 189.2 9.945 12.65-16.4-.993-48.62-36.09-60.38-21.98-7.373-111.7-7.349-111.7-7.349 10.22-19.94 7.989-38.25-1.05-55.71 0 0 94.41-22.89 104.5-58.77 8.749-30.91-8.453-44.31-30.47-46.13-22.66-1.892-106.3 46.43-106.3 46.43-8.572-19.53-24.49-32.21-42.13-43.24z" fill="#ec206d" stroke="#050302" stroke-width="14.01"/>
        <path d="m1974 215.7c.807-7.682 111.6-88.53 156.3-85.87 102.2 6.127 133.7 70.56 122.1 123-22.78 103-126.3 161-126.3 161 71.55-28.21 100.3-19.29 165.9-4.528-7.515 27.09-29.38 47.1-21.65 67.62-99.33-15.46-161.5 4.245-253.6 32.67 4.45-36 15.07-67.75 1.083-97.16 5.98 5.603 91.61-49.84 122.2-84.42 27.89-31.58 41.61-71.57 23.51-103-8.105-14.06-55.69-16.3-82.06-.941-22.11 12.89-36.15 25.11-65.21 58-5.616-36.86-16.2-40.44-42.18-66.45z" fill="#ec206d" stroke="#050302" stroke-width="14.01"/>
        <path d="m1983 205c29.41 19.38 64.77 73.13 75.12 131.7 8.574 48.47-8.301 94.15-48.09 149.6-29.11 40.57-89.64 50.65-129.1 43.03-39.45-7.646-76.55-45.57-94.53-90.19-17.96-44.63-22.88-111.8-7.947-156 14.92-44.15 47.03-77.36 86.57-92.99s88.57-4.61 118 14.77zm-79.06 54.5c-19.3.103-46.81 26.68-52.6 46.23-9.852 33.27-4.806 71.68 4.412 95.91 9.198 24.23 43.89 65.08 64.9 62.46 62-7.771 73.04-81.05 56.82-134.8-11.26-37.32-45.5-69.96-73.53-69.82z" fill="#ec206d" stroke="#050302" stroke-width="14.01"/>
        <path d="m1509 283.6c.807-7.682 127.2-94.77 171.9-92.11 102.2 6.127 118.1 76.8 106.5 129.2-22.78 103-168.4 187.2-168.4 187.2 71.57-28.22 145.5-32.78 211.1-18.03-7.512 27.11-6.691 50.02 1.056 70.53-99.35-15.46-193.8-.934-285.9 27.51 4.447-36.02-1.896-68.6-15.88-98 5.997 5.6 110.9-77.74 141.4-112.3 27.89-31.58 46.44-62.42 28.34-93.81-8.103-14.06-37.68-10.31-64.03 5.047-22.13 12.9-100.1 46.06-107.1 62.95 10.24-29.96 7.052-42.21-18.93-68.22z" fill="#ec206d" stroke="#050302" stroke-width="14.01"/>
        <path d="m1064 329.3c-8.596-6.234 69.02-52.46 162.2-49.29 73.6 2.509 148.7 59.94 175.6 115.3 38.79 79.91 11.06 178.1-49.12 208.9-87.06 44.61-232.3 48.82-240.8 25.84l12.6-56.85c37.33 10.12 30.85 12.39 57.41 8.326-10.57-81.54-46.71-214.2-46.71-214.2-34.79 10.4-22.61 7.295-49.63 22.41zm143.9 27.69c19.55 73.95 37.25 151.1 43.02 208.1 0 0 140.3-29 87.2-138.5-30.9-63.82-130.2-69.53-130.2-69.53z" fill="#ec206d" stroke="#050302" stroke-width="14.99"/>
        <path d="m1097 249.3c-18.76-17.68-142.6 13.35-201.8 90.09-82.66 107.1-31.37 236.6 17.42 275.8 94.86 76.15 207.2 38.07 286.1 5.18l-41.97-93.21s-94.8 59.09-163.5 7.098c-48.47-36.68-45.22-104.5-19.67-139.9 21.79-30.21 113.5-57.76 148.8-54.72z" fill="#ec206d" stroke="#050302" stroke-width="14.99"/>
        <path d="m657.7 726.5c-36.37-100.9-36.5-236.8-24.51-381.8l77.52-8.756c3.706 44.4 19.54 82.39 56.94 109 5.241-42.04 21.54-87.36 56.82-138.3l72.61 8.296c-40.37 139.1 1.248 261.3 55.62 361l-70.18 4.604c-23.59-41.05-74.49-128.2-56.25-219.3-19.24 23.97-34.72 49.21-32.99 80.29l-43.04 20.29c-22.84-17.56-35.57-48.21-44.34-83.98-11.61 96.44-4.408 169.9 12.47 232.9z" fill="#ec206d" stroke="#050302" stroke-width="14.99"/>
        <path d="M711.5 715c-5.883.75-112.5 8.383-112.5 8.383 16.89-4.649-51.07-101.3-93.03-113.7-1.376-2.45-2.82-3.571-4.27-3.056 0 0 1.518 1.092 4.27 3.056 9.257 16.35 16.36 91.6 8.538 131.7-28.43 20.42-53.41 15.66-77.06 12.08 0 0 2.607-124.4-6.788-171.9-9.689-49.13-40.19-150.3-53.97-172.1 5.163-8.072 56.83-36.52 91.47-41.92 50.61-7.878 130.5 10.38 153.7 63.62 43.71 100.3-54.92 137.3-54.92 137.3 53.05 27.42 181.8 164.8 144.5 146.7zM455.2 450.3c10.36 23.39 27.36 56.98 30.44 97.53 0 0 87.96-20.25 68.8-79.48-13.57-41.95-61.33-37.23-99.24-18.05z" fill="#ec206d" stroke="#050302" stroke-width="14.99"/>
        <path d="m162.2 794.9c-36.39-100.9-36.5-236.8-24.53-381.8l77.54-8.758c3.706 44.4 19.52 82.39 56.92 108.9 5.244-42.03 21.56-87.34 56.84-138.3l72.59 8.299c-40.35 139.1 1.267 261.3 55.62 361l-70.16 4.602c-23.59-41.07-74.49-128.2-56.26-219.3-19.22 23.97-34.72 49.21-32.97 80.29l-43.04 20.29c-22.84-17.56-35.58-48.21-44.36-83.99-11.59 96.45-4.386 169.9 12.49 233z" fill="#ec206d" stroke="#050302" stroke-width="14.99"/>
    </g>
    <g fill-rule="evenodd" stroke-linejoin="round" stroke-miterlimit="10">
        <path d="m829.3 931.8-1.641 2.473c-14.98 22.5-22.79 43.04-26.33 62.33-12.37-11.91-18.32-27.15-19.9-45.58l-.424-4.918-46.4 5.234-.293 3.973c-.708 9.462-.995 18.6-1.478 27.89-1.238-6.807-1.878-14.36-1.565-23.08l.39-10.89-8.303 7.049c-13.96 11.85-30.07 20.83-45.17 25.86-13.09 4.363-25.21 5.459-34.51 3.603 1.774-8.314 3.688-16.78 6.098-25.82l2.429-9.103-67.98 26.08-.304 2.935c-4.07 39.07 4.679 87.64 16.48 128.2-2.116-3.347-4.28-6.512-6.266-10.27-6.342-11.98-12.03-25.21-17.37-35.45l-1.761-3.375-34.22 8.679-.31 3.386c-1.815 19.86-5.526 43.98-5.495 64.47-8.138-12.63-13.69-30.08-17.47-48.78-4.996-24.72-7.131-51.3-9.946-71.32l-.87-6.179-56.89 23.88.565 3.706c10.41 68.32 37.68 117.9 87.06 166.3l1.826 1.794 49.52-10.07-4.7-6.114c-9.182-11.93-13.62-30.19-12.48-57.45 12.04 19.07 28.57 33.8 48.34 47.7l2.042 1.435 45.26-16.28-3.136-5.049c-.705-1.135-1.359-2.304-2.043-3.451 28.24-11 53.29-18.81 83.24-4.174l5.125 2.505.5-1.706 36.28-9.603-1.228-4.647c-6.747-25.56-10.08-54.95-8.212-91.04 3.864 8.551 8.774 16.02 15.61 21.47l2.37 1.886 26.41-12.8-.19-3.212c-.45-7.525 1.395-14.29 4.505-20.79-.122 39.96 20.21 75.56 30.1 93.23l1.478 2.641 44.45-2.832-3.5-6.582c-26.32-49.52-46.27-109.4-27.51-177.4l1.484-5.37zm-97.86 95.61c-.038 23.15 1.045 45.31 3.728 66.04-16.64.42-34.6 4.045-50.16 9.56l.391-10.84 30.67 1.038-7.696-40.48-24.91-2.918 3.022-16.02c16.63 3.394 31.58.43 44.96-6.38zm-95.61 12.9c3.142 25.31 4.473 45.44 4.462 61.97-4.137-17.94-5.879-38.23-4.462-61.97m679.2 111.7-6.158 2.967c-28.6 13.79-80.77 19.9-104.2 24.18l-3.538.647-.38 3.576c-.336 3.166-.225 5.679-.49 8.744-.472-9.803-8.125-18.5-18.88-18.89h-.01c-17.25-.613-28.02 12.42-29.57 24.72-.774 6.15.594 12.56 5.12 16.93 4.526 4.377 11.81 5.764 20.05 3.375h.01c14.77-4.288 22.28-13.93 23.11-23.49-.824 10.23-1.542 20.3-1.652 29.45l-37.64 8.217.576 4.206c-18.95-20.16-45.87-36.49-73.92-37.9h-.01c-24.66-1.25-47.11 4.265-63.02 10.56-7.956 3.148-14.26 6.462-18.57 9.44-2.154 1.489-3.8 2.81-5.12 4.484-.659.837-1.34 1.763-1.63 3.418-.158.908.04 2.128.5 3.234l1.62 2.266c-.683-.525-1.24-1.357-1.62-2.266l-.01-.017 12.66 37.65 5.06-2.837c11.65-6.536 11.16-6.847 19.62-9.44 1.902 7.519 15.69 62.79 21.06 102.8-1.819.123-4.554.59-5.936.271-2.528-.581-6.737-2.317-16.42-5.185l-4.946-1.467-8.027 36.31.446 1.283c1.247 3.59 4.182 5.42 7.31 6.777s6.876 2.27 11.27 2.94c8.781 1.34 20.11 1.62 32.71.8 25.2-1.64 55.35-7.643 78.6-19.57 13.5-6.928 23.71-19.79 30.03-35.38 3.619 10.98 7.647 21.97 12.89 34.14l1.582 3.667 42.66-9.636-1.114-4.717-.065-.271c31.21-10.62 45.17-12.6 94.81-3.951l5.174.896 4.859-57.22-5.071-.157c-19.68-.62-52.89.81-77.58 6.935l-2.658-20.71 29.95-2.625-1.63-5.62c-3.089-10.62-2.622-22.35 1.511-35.47l2.185-6.935-35.99 3.494-1.082-20.54c21.55-4.644 35.06-1.297 59.76-2.435l6.13-.283-1.744-5.886c-2.577-8.717-2.316-15.09-1.739-23.74.577-8.644 1.49-19.31-.147-34.98zm-396.1 77.38-5.739 2.467c-54.14 23.25-92.34 27.58-125.1 27.35l-5.636-.038 2.402 15.77c-17.42-5.33-36.94-6.369-52.51-3.62-10.32 1.827-22.41 6.532-32.55 11.31-5.072 2.389-9.624 4.796-13.19 6.924-1.783 1.064-3.322 2.052-4.598 2.984-.979.715-1.731 1.465-2.522 2.342-1.484-2.625-3.334-5.212-5.984-7.614v-.01c-9.532-8.639-23.81-8.881-33.32-2.603-4.753 3.139-8.336 8.499-8.348 14.91-.008 4.368 2.071 8.997 5.125 13.73-6.741.802-13.44 2.063-19.96 4.179-4.676 1.518-9.099 3.623-13.38 5.994-.124-1.81-.14-3.634-.696-5.397-1.667-5.284-5.642-10.09-11.64-12.72-4.732-2.073-9.649-1.615-14.25.152l.3-1.353-52.74 6.967-.593 3.5c-4.26 25.13-7.29 51.6-3.185 79.07l-29.91 10.53c-.006-29.63 2.9-56.01 4.826-81.12l.647-8.39-54.16 26.57.092 3.097c.077 2.646.207 5.258.304 7.891-4.37-4.2-7.97-9.119-9.223-16.71l-1.777-10.75-6.745 8.554c-12.24 15.53-27.61 28.27-42.46 36.12-14.85 7.851-29.06 10.56-38.72 7.538l-9.543-2.984 3.625 9.315c.742 1.904 1.35 3.564 2.065 5.424-10.32-6.534-21.93-9.203-36.13-9.39h-.006c-17.16-.222-51.29 5.946-73.38 51.36-5.405 11.11-7.73 31.74-6.576 54.57s6.045 47.38 17.83 64.43c13.65 19.76 42 35.7 70.29 39.91 14.14 2.105 28.37 1.195 40.66-4.343 11.38-5.128 20.76-14.59 26.38-28.28l4.891-3.06c.236-.147.482-.288.718-.435l2.299 6.696 46.16-17.35-3.571-5.082c-1.062-1.51-2.17-2.962-3.255-4.446 24.06-8.632 49.87-12.43 75.01-5.88l9.848 2.565-6.87-14.85 18.65-4.065-2.37-5.386c-7.303-16.56-12.38-25.03-15.13-32.68-2.49-6.92-3.23-14.37-2.641-27.41l32.19-7.022c7.168 20.93 16.07 41.15 27.03 60.49l1.75 3.087 51.33-11.21-4.86-6.054c-.411-.513-.756-1.05-1.162-1.565 16.9 3.794 37.49 2.555 56.98-2.832 15.99-4.42 31.06-11.55 42.33-21.25-.037.993-.136 4.728-.136 4.728l-.19 4.554 4.538.435c12.83 1.224 28.46 3.07 45.52-8.315l1.576-1.049.435-1.842c2.535-10.71 2.82-24.92 1.957-37.78-.433-6.426-1.168-12.48-2.141-17.54-.063-.323-.14-.55-.202-.864 8.325 4.943 18.17 13.47 25.68 22.04 5.222 5.963 9.456 11.89 11.62 16.03 1.068 2.044 1.563 3.722 1.61 4.103.007-.113.05-.369.244-.755.331-.663 1.284-1.368 1.772-1.505l1.793 9.413s14.65-1.5 29.7-3.065c7.525-.783 15.15-1.583 21.1-2.217 5.61-.598 8.912-.95 10.6-1.19 1.006.33 1.887.806 3.38.63.183-.022.422-.315.63-.364l9.527 10.16-6.027-12.76c.647-1.287.936-2.649.81-3.527-.064-.45-.309-.595-.413-.962l42.55-1.065-5.734-7.495c-17.51-22.88-36.49-76.42-34.47-132.7 14.53-1.027 23.5-.899 49.48-9.533l3.832-1.277zm164.9 20.52c13.24 2.268 44.7 9.969 55.73 33.99 6.326 13.78 6.624 24.21 4.044 32.52-2.581 8.304-8.255 14.76-15 19.77-10.21 7.583-20.25 10.65-25.63 12.08-3.091-28.12-10.61-63.48-19.14-98.35zm-252.1 53.54c1.383 48.86 6.667 81.38 15.4 106.9a456 456 0 00-20.17-17.12c-10.96-8.763-21.56-16-31.03-21.34 5.078-2.802 11.61-7.095 17.43-13.07 11-11.28 19.05-29.76 9.511-53.24 2.732-.55 5.762-1.26 8.864-2.147zm-149.5 5.212c1.164 2.441 1.967 3.585 3.304 6.929 1.032 2.58 2.155 6.088 3.239 9.044-3.866-2.482-7.865-4.3-11.92-5.973 2.563-2.742 4.587-5.948 5.37-9.794.014-.067-.002-.14.011-.206zm75.23 4.701c8.845.363 14.7 3.238 17.59 11.44 2.057 5.843 1.168 10.02-1.353 14.11-2.521 4.088-7.028 7.847-12.06 10.85-6.509 3.882-12.43 5.994-16.67 7.326-2.277-15.73-8.273-28.24-13.11-37.83 8.777-3.661 18.03-6.202 25.6-5.891zm-187.5 36.64c1.181.587 2.36 1.135 3.554 1.506-1.407 2.024-2.874 3.994-4.13 6.12.126-2.494.368-5.072.576-7.625zm71.9 14.71c15.15.535 30.76 9.807 35.8 27.22 2.222 7.661-.264 17.57-5.435 26.42-5.171 8.846-12.99 16.4-19.04 19.33-3.475 1.683-13.59 3.255-23.04 1.766-9.447-1.489-18.09-5.571-22.02-13.01-6.243-11.82-7.588-20.81-5.745-28.95 1.843-8.131 7.15-15.87 15.66-24.27 6.045-5.964 14.72-8.837 23.81-8.516zm1034 4.435c-38.28 1.838-80.95 16.54-100.7 30.21l-2.804 1.94 3.761 13.69c-33.7 1.001-61.38-.384-85.58-2.37l-4.56-.375-2.223 16.91c-1.122-.12-2.129-.413-3.31-.44-9.696-.227-16.92 4.794-21.58 11.46.925-3.178 1.829-6.29 2.984-9.956l2.56-8.125-8.283 2.006c-59.67 14.47-108.2 19.74-141.1 22.52l-4.576.391.18 4.587c.136 3.576.287 6.992.434 10.43l-39.77 4.217-1.256 1.658c-8.268 10.88-18.52 26.56-26.98 42.36-4.4 8.214-8.287 16.34-11.17 23.98-3.967-16.7-8.113-31.89-18.09-48.8l-1.788-3.027-23.03 5.272c.103-1.147.18-2.312.294-3.45l.668-6.686-59.38 13.85-.114 3.69c-1.102 35.26.343 60.85 5.685 90.96l-24.91 5.625c-7.904-32.08-9.448-56.78-1.277-87.5l1.908-7.174-63.99 10.44.56 4.582.434 3.533c-11.34.415-26.25 4.223-42.21 11.51-18.76 8.567-38.32 21.78-51.84 39.98-9.03 12.16-14.79 24.93-18.37 37.67-10.39 3.017-18.98 5.328-31.23 6.478l-5.766.544 1.592 5.565c9.992 34.93 16.65 62.12 22.11 89.42-11.18.752-21.05 2.988-31.2 6.744.717-47.84-5.84-90.36-16.41-150.4l-1.043-5.957-62.01 26.32 1.734 4.37c.288.725.56 1.449.843 2.174l-27.71 5.25.647 4.549c3.226 22.66-5.858 47.4-17.21 62.42-5.27-20.97-11.44-39.04-22.04-58.12l-1.777-3.201-44.11 10.73 1.908 5.082c1.529 4.075 2.819 8.103 4.25 12.16-18.73-11.24-43.29-14.07-61.55-10.78h-.006c-9.798 1.773-22.39 7.387-33.34 13.1-5.475 2.858-10.47 5.742-14.35 8.244-1.94 1.25-3.598 2.402-4.951 3.462s-2.342 1.674-3.44 3.527l-.446.75c-.694-.063-1.331-.279-2.044-.283-5.051-.028-9.461 1.29-13.17 3.39l-69.22-14.93.815 6.702c4.627 38.26 16.01 83.15 30.16 134.2-8.024-10.97-14.59-20.11-25.7-33.61l-1.908-2.321-48.41 11.53-.304 3.446c-1.106 12.37-2.14 23.45-2.8 35.05-13.83-52.66-21.46-96.78-24.87-126.5l-1.314-11.47-50.78 63.45.255 2.016c7.95 62.82 37.97 113.1 76.01 174.2l2.391 3.842 52.62-28.54-.907-3.62c-5.865-23.41-6.68-31.58-7.761-47.21 8.183 12.33 17.95 22.48 31.31 38.7l1.995 2.424 59.57-16.71-1.25-4.603c-4.975-18.32-7.68-37.33-9.788-57.82 5.3 18.77 9.994 37.28 14.32 57.66l1.043 4.897 58.67-14.96-.06-.087c7.61-.934 15.79-2.67 25.34-6.761l3.359-1.435-.484-3.625c-.014-.095-.02-.166-.033-.26l27.31-.104s8.948-.033 20.05-1.576c11.1-1.544 24.47-4.401 34.22-11.11l2.163-1.49 16.29-2.727.337-3.69c1.793-19.48-.178-32.47-1.946-51.2 19.84 7.716 32.91 19.77 47.68 45.24l1.647 2.848 52.41-8.228-3.554-6.087c-1.569-2.683-3.059-5.086-4.576-7.592 25.9-7.834 50.62-12.22 72.01-6.033l5 1.446 2.114-10.28 31.03-6.456-1.57-5.06c-1.048-3.37-1.936-6.354-2.909-9.538 21.23 10.81 43.36 13.41 64.33 10.96 24.48-2.861 47.46-11.72 66.43-19.84l4.174-1.783 21.88-5.016-1.505-4.935c-8.663-28.48-13.35-29.12-20.35-69.72l28.8-6.283c7.681 22.69 13.41 39.13 29.27 69.02l1.674 3.152 56.53-11.16-3.82-5.946c-.284-.441-.541-.899-.821-1.342l24.89-3.913.364-3.712c2.014-20.74-.321-34.24-2.315-54.57 14.37 2.849 25.99 6.84 34.13 13.27 9.39 7.417 15.46 17.77 18.89 33.66l1 4.62 66.45-13.18-3.217-5.587c27.81-5.846 48.98-7.842 98.88-5.054l4.674.26.864-10.45 55.92-4.7-1.592-3.522 60.09-3.044-.87-5.31c-7.806-47.6-13.11-93.82-5.195-154.6 17.85-.6 25.93.883 59.11-2.94l4.022-.462 2.5-43.52c15.68-2.296 31.34-2.496 41.76 1.418h.01l.01.01c.177.107 1.668 1.358 2.57 3.826.932 2.548 1.367 6.084.702 9.766-1.331 7.366-6.521 15.66-21.89 20.28-9.378 2.814-20.57 7.11-30.63 11.89s-18.84 9.75-24.01 15.25c-9.896 10.52-17.77 26.86-19.56 43.82-1.794 16.95 3.048 35.02 19.28 46.11 12.07 8.238 28.28 10.15 45.62 9.06s35.99-5.318 53.24-10.43c34.51-10.22 63.53-24.1 63.53-24.1l4.636-2.212-29.92-53.36-4.364 3.103s-11.46 8.154-26.07 16.71-32.65 17.34-43.77 18.75c-9.633 1.222-14.6-1.894-16.41-4.842s-1.537-6.215 2.467-9.3c9.863-7.596 19.69-10.03 30.91-13.2 11.22-3.165 23.7-7.126 36.69-17.96 8.676-7.236 14.39-18.03 17.97-28.85s5.026-21.62 4.266-29.76v-.01c-1.655-17.57-7.746-37.32-29.47-52.44-9.885-6.877-22.64-10.05-36.52-10.96-5.207-.337-10.58-.349-16.05-.086zm-1230 24.64c2.547 27.15 6.787 53.51 14.14 78.77-13.86-.179-28.26 2.053-42.26 9.674l-2.505-9.239 31.64-12.74-13.04-42.46-31.4 14.01-6.793-15.54c7.918-1.029 16.18-4.279 24.52-8.277 8.882-4.256 17.46-9.412 25.7-14.2zm-92.3 31.16c7.776 22.05 13.47 40.38 17.31 55.48-15.29 9.546-34.07 12.64-55.9 10.86l-8.734-.712 19.27 36.51 17.16 1.576c-.807 4.326-2.634 7.672-6.103 9.886-4.576 2.92-11.55 4.258-19.2 3.424-15.3-1.667-32.46-11.7-38.54-29.22-5.498-15.86-7.5-33.39-5.788-47.9s7.134-25.51 15.03-29.93c8.005-4.479 18.29-5.264 25.97-3.625 3.841.82 6.987 2.264 8.745 3.674s2.003 2.216 1.897 3.098l-1.435 11.94zm445.3 18.86v.038c0-.01.002-.02 0-.038m656.4 21.08c.573 1.742.947 3.552 1.935 5.141 3.288 5.288 9.124 9.273 16.66 10.26 14.17 1.843 24.72-2.328 30.85-9.348 7.967 1.017 17.22 1.526 28.29 1.929-7.28 49.72-11.11 103.5-6.451 152-18.45-41.83-22.8-62.09-13.23-138.1l.82-6.522-6.466 1.196c-18.15 3.349-32.61 5.088-50.6 5.114l-4.375.01-.408 4.353c-3.573 38.04-2.02 71.52 3.201 102.4-22.37.814-49.41 3.278-70.85 8.88-2.046-8.166-3.864-16.2-5.114-24.34l35.49-3.31.028-4.353c.104-16.49-3.264-27.15 1.315-41.38l2.386-7.413-44.01 6.788c-.11-7.792-.55-16.66.283-26.11 27.57-7.203 50.25-14.1 78.29-15.75l6.07-.359-1.75-5.82c-1.653-5.512-2.234-10.4-2.374-15.18zm-141.2 40.02c2.918 41.99 6.798 71.75 11.12 95.31-15.43-12.19-32.48-19.38-52.49-23.1 5.285-23.56 20.96-45.36 41.37-72.21m-395.1 43.2a39 39 0 00-3.424.092c-14.5 1.003-22.94 13.27-23.61 25.01-.336 5.872 1.097 11.86 4.723 16.64s9.588 8.083 16.89 8.353c10.38.382 18.59-2.164 24.3-6.706s8.703-11.02 8.908-17.48c.409-12.91-10.44-25.63-27.78-25.91zm138.7 28.92c5.092 33.35 11.18 65.42 19.08 95.32-7.571 3.167-17.2 6.415-27.81 7.185-12.18.884-24.9-1.321-36.3-10.24h-.01c-11.27-8.83-16.55-21.27-17.58-33.9-1.035-12.64 2.41-25.33 8.114-33.55 3.289-4.74 12.93-11 24.32-15.79 9.84-4.139 20.7-7.175 30.18-9.011zm621.8 20.6c-8.637-.19-15.86 2.958-20.8 7.87s-7.676 11.4-8.321 17.96c-.644 6.558.774 13.3 4.609 18.75 3.834 5.451 10.26 9.388 18.32 9.973 12.01.87 21.04-1.439 27.16-6.212 6.125-4.773 8.834-11.9 8.668-18.77-.332-13.73-10.86-27.58-26.23-29.34a37 37 0 00-3.408-.239zm-846.3 49.38c5.836 24.59 9.263 49.26 10.47 74.19-11.48-10.02-24.59-17.3-40.87-23.26 14.87-15.16 24.26-30.88 30.4-50.93m-163.9 15.45c4.7-.144 8.768.737 12.01 2.696 3.237 1.958 5.844 4.985 7.609 10.11 2.27 6.597 1.639 10.88-.152 14.34-1.791 3.458-5.123 6.258-9.082 8.375-5.653 3.024-10.95 4.139-14.22 4.701-6.004-14.34-11.16-25.03-15.74-34.73 6.608-3.063 13.52-5.309 19.58-5.495zm-60.55 23.85c.785 1.848 1.562 3.642 2.337 5.527-10.85 5.4-21.01 8.692-30.72 9.87-.18-2.663-.373-5.43-.565-8.185 2.859.877 5.96 1.406 9.38 1.217 8.83-.487 15.27-3.855 19.57-8.429zm121.8 19.26c2.729 14 4.755 27.85 6.054 41.55-8.057-8.518-16.52-16.32-25.97-22.12 5.998-3.665 13.91-9.701 19.91-19.42zm-107 22.53c.284 1.12 1.017 2.816 1.245 3.853 1.509 6.884 2.914 17.76 4.136 29.57-2.913-10.91-4.78-21.94-5.38-33.42zm55.84 30.39c7.001 7.307 14.39 15.97 20.56 24.94 4.768 6.937 8.672 13.56 10.72 18.21.748 1.696.939 2.624 1.163 3.538l-23.58 7.19c-2.504-18.98-4.715-35.16-8.864-53.88z"/>
        <path d="m1711 1569c-32.6-3.722-36.67 42.72-8.706 44.74 44.9 3.254 34.02-41.86 8.706-44.74zm-104-199c27.95-19.33 112.4-43.79 147.8-19.18 20.51 14.28 25.85 32.06 27.43 48.95 1.338 14.24-5.263 41.74-20.52 54.46-24.57 20.49-46.06 14.56-67.46 31.04-11.18 8.602-4.344 25.49 17.48 22.72 25.56-3.233 72.01-36.31 72.01-36.31l24.8 44.21s-115 54.92-157.6 25.83c-29.28-20-16.99-63.47 1.059-82.66 8.356-8.879 34.35-20.37 52.52-25.83 33.39-10.04 27.6-39.72 18.91-42.99-35.42-13.32-110.4 14.15-104.7 22.37z" fill="#929292" stroke="#000" stroke-width="9.617"/>
        <path d="m1519 1384c39.25 3.222 86.51 5.422 156.6-2.765l-2.933 51.21c-35.77 4.122-40.97 1.823-62.96 2.969-8.84 63.51-3.165 111.2 4.838 160.1l-54.18 2.746c-5.938-51.29-1.49-109.9 6.599-163.3-24.79-.742-36.54-1.805-53.86-5.947z" fill="#929292" stroke="#000" stroke-width="9.617"/>
        <path d="m1486 1458c-5.472 58.26.887 105.7 14.64 149.1l54.22-4.559c-22.3-49.21-27.72-67.66-17.39-149.7-18.31 3.378-33.16 5.17-51.47 5.196zm24-58c-25.23-.59-31.33 38.71-6.166 41.99 40.88 5.317 40.98-41.18 6.166-41.99z" fill="#929292" stroke="#000" stroke-width="9.617"/>
        <path d="m1345 1418c32.97-2.792 81.82-8.091 141.8-22.64-6.506 20.67-10.2 33.83-4.55 52.67-29.93 1.766-53.54 9.27-82.68 16.78-1.832 13.75.218 27-.312 35.46l41.74-6.435c-4.995 15.52-1.45 27.07-1.54 42.82l-36.34 3.391c1.347 11.9 4.365 22.99 7.197 34.4 27.83-8.254 71.06-10.67 95.18-10.31l-4.345 52.57c-65.55-3.661-82.47.668-128.7 11.55-10.66-46.87-22.61-83.57-27.46-210.3z" fill="#929292" stroke="#000" stroke-width="9.617"/>
        <path d="m1200 1464c26.5 66.43 39.95 130.5 36.83 191.6l45.09-7.094c2.195-22.61-.878-35.03-2.983-60.36 36.47 5.73 55.99 18.89 63.19 52.16l55.22-10.96c-31.42-54.53-58.26-74.79-101.9-81.44 6.246-37.83 37.53-67.79 71.63-116.7l-64.04 6.798c-16.15 21.25-40.69 62.24-42.06 83.32-6.275-26.28-8.925-43.81-22.16-66.24z" fill="#929292" stroke="#000" stroke-width="9.617"/>
        <path d="m1083 1478c9.449 77.23 20.88 151.2 44.02 210.6l39.19-8.995c-8.887-29.21-13.78-28.28-21.37-74.81l37.52-8.187c8.49 25.12 13.68 40.79 30.42 72.36l46.09-9.106c-20.54-31.98-31.8-69.18-39.15-105.6-7.952-39.35-8.488-73.16-5.416-104l-49.24 11.48c-1.153 36.88.34 62.61 6.339 94.5l-34.03 7.686c-9.063-34.87-11.05-61.47-2.267-94.48z" fill="#929292" stroke="#000" stroke-width="9.617"/>
        <path d="m1091 1490c-9.634-9.364-72.83 6.778-102.9 47.22-41.93 56.46-15.34 125 9.706 145.8 48.7 40.43 106 20.53 146.2 3.313l-21.72-49.35s-48.27 31.05-83.54 3.437c-24.87-19.48-23.41-55.32-10.46-73.98 11.05-15.92 57.84-30.3 75.88-28.62z" fill="#929292" stroke="#000" stroke-width="9.617"/>
        <path d="m935 1583c15.61 54.56 23.49 90.68 30.58 137.2l47.77-9.932c-14.41-46.4-21.52-73.56-33.61-137.5-17.08 4.818-27.37 8.626-44.74 10.26zm9.8-63c-24 1.661-26.32 39.5-2.153 40.4 39.28 1.447 35.27-42.7 2.153-40.4z" fill="#929292" stroke="#000" stroke-width="9.617"/>
        <path d="m848 1553c24.69 62.14 33.51 123.7 28.93 187.9 36.89-13.17 73.92-25.55 105.8-16.35l9.32-45.33c-39.16-2.943-52.67-1.67-75.48 7.87 1.494-50.21-5.344-93.32-16.41-156.2z" fill="#929292" stroke="#000" stroke-width="9.617"/>
        <path d="m738.6 1582c24.03 64.01 36.21 125.8 33.34 184.7l40.96-6.867c2.006-21.79-.783-33.77-2.677-58.18 25.19 7.841 40.53 21.22 57.35 50.25l42.2-6.624c-27.53-47.08-45.59-64.98-86.45-78.33 30.01-27.87 37.79-53.46 44.61-109.5l-45.84 8.694c4.007 28.14-8.813 58.9-24.01 73.51-5.683-25.33-12.2-44.6-24.2-66.2z" fill="#929292" stroke="#000" stroke-width="9.617"/>
        <path d="m796.2 1764c-17.01 11.7-51.56 11.83-51.56 11.83 8.435-2.573-25.23-51.29-44.36-64.82 7.806 27.8 8.915 45.16 12.34 70.63-19.32 8.277-33.46 8.107-45.4 6.514 0 0-3.505-66.08-8.84-90.42-5.509-25.13-26.29-71.02-33.5-82.07 2.49-4.198 35.45-22.91 52.81-26.05 25.35-4.576 65.77 3.953 78.13 31.05 23.27 51.02-25.85 71.07-25.85 71.07 27.03 13.52 48.96 41.81 66.24 72.26zm-124-131.7c5.513 11.9 11.77 24.09 19.31 42.6 0 0 41.23-4.165 30.83-34.38-7.362-21.4-31.32-18.48-50.14-8.222z" fill="#929292" stroke="#000" stroke-width="9.617"/>
        <path d="m597.3 1674c18.1 50.63 27.63 84.28 36.86 127.8l47.23-12.04c-30.44-45.47-37.44-81.61-33.13-129.9-18.11 9.994-34.73 15.21-50.96 14.12zm20.9-56c-27-.15-27.52 39.76-.403 38.26 32.17-1.776 22.89-38.13.403-38.26z" fill="#929292" stroke="#000" stroke-width="9.617"/>
        <path d="m415.8 1684c7.8 61.64 37.31 111.2 75.31 172.3l45.36-24.6c-8.261-32.98-6.119-26.9-9.6-70.43 9.867 23.73 21.56 33.46 41.52 57.7l51.96-14.58c-13.05-48.08-11.9-94.1-19.46-183.3l-59.44-12.83c5.32 43.99 18.73 95.23 36.46 157.6-20.52-26.37-23.68-32.95-40.48-53.38l-42.12 10.03c-2.112 23.6-4.192 41.52-3.221 69-20.16-67.99-29.87-124.2-34.01-160.4z" fill="#929292" stroke="#000" stroke-width="9.617"/>
        <path d="m1238 1148c22.96-4.192 75.33-10.06 105.4-24.58 3.189 30.53-3.522 40.69 2.062 59.59-25.64 1.17-39.58-3.066-64.56 3.246l1.571 29.8 33.75-3.287c-4.362 13.82-4.934 26.59-1.541 38.26l-29.1 2.55 3.953 30.86c23.87-7.001 60.89-8.579 81.54-7.929l-3.985 46.94c-56.54-9.837-68.62-6.143-110.3 8.584.384-30.4-30.11-78.15-18.87-184z" fill="#929292" stroke="#000" stroke-width="10.56"/>
        <path d="m1199 1200c9.67 70.31 15.44 97.4 34.19 140.9l34.03-7.683c-9.417-40.03-24.6-73.73-27.79-142zm15-58c-29.63-1.054-34.2 43.91-5.565 35.61 28.63-8.311 22.75-34.99 5.565-35.61z" fill="#929292" stroke="#000" stroke-width="10.56"/>
        <path d="M1037 1192c-4.38-3.363 35.45-27.18 83.05-24.78 37.62 1.905 75.83 32.86 89.38 62.33 19.57 42.55 5.095 94.23-25.77 110.1-44.64 22.91-118.9 23.98-123.2 11.77l6.618-29.95c19.05 5.642 15.73 6.791 29.32 4.853-5.14-43.19-23.19-113.6-23.19-113.6-17.83 5.218-11.58 3.677-25.44 11.46zm73.45 15.77c9.761 39.25 18.57 80.17 21.34 110.3 0 0 71.79-14.22 45.01-72.55-15.6-33.97-66.35-37.79-66.35-37.79zM820.7 1228c33.25.23 72.37-4.257 127.1-27.75l6.785 46.01c-28.4 9.436-34.64 8.124-52.72 9.68-3.233 59.03 16.32 115.1 35.41 140l-42.94 1.07c-15.01-30.15-23.94-65.99-25.38-135.7-17.31 5.404-23.85 6.419-42.5 4.113z" fill="#929292" stroke="#000" stroke-width="10.56"/>
        <path d="M896.3 1404c-3.238.5-61.8 6.509-61.8 6.509 9.312-2.619-27.12-48.1-50.04-53.24-.74-1.162-1.519-1.682-2.316-1.396-.006 0 .824.502 2.316 1.396 4.93 7.732 8.157 44.14 3.51 63.77-15.78 10.53-29.45 8.764-42.39 7.529 0 0 2.531-60.47-2.196-83.38-4.884-23.65-20.71-72.13-28.08-82.43 2.902-4.032 31.51-18.97 50.57-22.34 27.84-4.928 71.53 2.218 83.79 27.58 23.09 47.75-31.36 67.85-31.36 67.85 28.87 12.17 98.29 76.12 77.99 68.14zM758 1280.9c5.478 11.15 14.5 27.09 15.83 46.72 0 0 48.45-11.74 38.47-40.1-7.07-20.08-33.32-16.76-54.3-6.622z" fill="#929292" stroke="#000" stroke-width="10.56"/>
        <path d="m651.1 1286c28.31-9.19 59.25-6.644 83.02 19.13 23.18 25.12 27.33 64.36 18.73 92.98-10.51 34.99-76.01 54.11-113.3 44-37.25-10.11-45.22-41.97-46.46-68.84-1.704-37.01 23.17-75.95 58.02-87.26zm-3.741 47.75c-17.7 17.46-23.98 33.92-10.79 58.89 9.83 18.6 41.09 18.3 51.4 13.31 14.73-7.134 32.53-32.35 27-51.41-9.059-31.22-48.61-39.54-67.61-20.79z" fill="#929292" stroke="#000" stroke-width="10.56"/>
        <path d="m622 1274c-14.92-6.524-40.19 21.89-19.1 35.18 22.22 14.02 41.14-25.52 19.1-35.18zm80.9-19c-15.28-13.84-49.55-.542-25.06 25.88 14.72 15.88 47.32-5.705 25.06-25.88z" fill="#929292" stroke="#000" stroke-width="10.56"/>
        <path d="m479.8 1308c1.797 61.69 8.88 119.4 33.67 171.1l35.23-7.687c-14.42-32.71-20.21-33.32-18.15-65.91l39.97-8.723a351.5 351.5 0 0028.21 63.7l40.29-8.799c-36.78-45.82-52.25-100.3-35.17-178.1l-42.43 5.606c-4.445 26.23-7.69 53.46-2.74 81.54l-40.13 14.13c-.592-33.02 3-61.42 5.066-88.36z" fill="#929292" stroke="#000" stroke-width="10.56"/>
        <path d="m374.9 1346c23.21 7.255 61.07-13.16 86.39-45.27 4.123 24.96 28.58 29.64 41.64 39.6-19.2 5.842-58.23 37.6-82.28 35.79l11.56 26.43 30.87-13.76 10.14 33.04-31.5 12.69 5.176 19.13c22.14-14.77 45.8-12.85 67.81-10.35l20.3 43.93c-42.81-11.16-87.09 5.76-121.1 27.07 4.982-27.84 1.203-65.06-38.98-168.3z" fill="#929292" stroke="#000" stroke-width="10.56"/>
        <path d="m390.5 1379c-15.28-24.67-29.7-30.31-54.21-30.64-16.08-.206-47.66 4.792-69 48.66-9.013 18.52-10.87 82.67 10.88 114.2 25.03 36.23 110.3 63.05 130.3 5.294 3.448-9.983 2.505-31.65 2.505-31.65l11.44 33.35 35.72-13.43c-15.27-21.71-34.21-41.28-39.6-66.02-18.23 18.48-43.02 23.87-71.68 21.54l13.97 26.46 19.72 1.802c1.267 33.92-60.4 29.16-73.98-10.02-11.47-33.08-8.399-72.49 11.44-83.61 18.53-10.37 45.07-3.287 43.73 7.913zm392.8-269c-17.89-50.63-18.31-118.7-12.89-191.3l37.53-4.243c1.914 22.26 9.677 41.31 27.86 54.7 2.433-21.05 10.21-43.72 27.17-69.18l35.19 4.314c-19.19 69.58 1.297 130.9 27.9 181l-33.98 2.167c-11.53-20.62-36.42-64.39-27.83-110-9.25 11.97-16.69 24.58-15.76 40.16l-20.8 10.08c-11.11-8.847-17.36-24.22-21.71-42.17-5.366 48.29-1.681 85.11 6.665 116.7z" fill="#929292" stroke="#000" stroke-width="10.56"/>
        <path d="m664.2 950c21.31 11.71 62.47-.801 93.65-27.26-.906 25.29 4.943 43.12 15.77 55.46-17.31 12.62-36.4 19.45-59.6 12.9l-4.847 25.67 26.53 3.108 5.909 31.11-29.45-.996-.808 22.67c24.63-10.09 59.85-15.68 80.93-8.876l-13.47 46.11c-39.75-19.42-72.17-1.376-109.8 12.76 9.463-31.06 12.4-72.05-4.85-172.7z" fill="#929292" stroke="#000" stroke-width="10.56"/>
        <path d="m486.5 998.8c10.28 67.44 36.82 115.7 85.68 163.6l39.46-8.023c-12.01-15.61-16.71-39.41-12.5-77.04 11.49 25.77 30.61 43.31 54.93 60.42l37.32-13.42c-28.41-45.73-41.9-101.7-14.9-202.9l-56.43 21.66c-4.704 45.16 8.147 105.7 23.08 148.7-16.41-11.37-28.88-44.58-39.28-64.52l-27.24 6.911c-2.298 25.16-7.661 57.01-4.855 78.17-29.05-26.7-32.04-94.04-37.6-133.6z" fill="#929292" stroke="#000" stroke-width="10.56"/>
    </g>
</svg>
