<?xml version="1.0" encoding="UTF-8" standalone="no"?>
<!-- Created using Krita: https://krita.org -->

<svg
   width="7040"
   height="3960"
   viewBox="0 0 7040 3959.9999"
   version="1.1"
   id="svg22"
   sodipodi:docname="Card.svg"
   xml:space="preserve"
   inkscape:version="1.4.2 (f4327f4, 2025-05-13)"
   inkscape:export-filename="card-384.png"
   inkscape:export-xdpi="5.2363634"
   inkscape:export-ydpi="5.2363634"
   xmlns:inkscape="http://www.inkscape.org/namespaces/inkscape"
   xmlns:sodipodi="http://sodipodi.sourceforge.net/DTD/sodipodi-0.dtd"
   xmlns:xlink="http://www.w3.org/1999/xlink"
   xmlns="http://www.w3.org/2000/svg"
   xmlns:svg="http://www.w3.org/2000/svg"><sodipodi:namedview
     id="namedview22"
     pagecolor="#ffffff"
     bordercolor="#000000"
     borderopacity="0.25"
     inkscape:showpageshadow="2"
     inkscape:pageopacity="0.0"
     inkscape:pagecheckerboard="0"
     inkscape:deskcolor="#d1d1d1"
     inkscape:document-units="px"
     inkscape:zoom="0.20000911"
     inkscape:cx="2512.3855"
     inkscape:cy="1467.4331"
     inkscape:window-width="3840"
     inkscape:window-height="2054"
     inkscape:window-x="-11"
     inkscape:window-y="161"
     inkscape:window-maximized="1"
     inkscape:current-layer="svg22" /><defs
     id="defs22"><linearGradient
       id="gradient0"
       gradientTransform="matrix(12.301315,0,0,12.294673,5047.997,4202.5708)"
       gradientUnits="userSpaceOnUse"
       x1="50.846268"
       y1="55.99667"
       x2="60.23373"
       y2="65.389206"
       spreadMethod="pad"><stop
         stop-color="#f77f02"
         offset="0"
         stop-opacity="1"
         id="stop1" /><stop
         stop-color="#f5515e"
         offset="1"
         stop-opacity="1"
         id="stop2" /></linearGradient><linearGradient
       id="gradient1"
       gradientUnits="userSpaceOnUse"
       x1="50.85001"
       y1="55.971539"
       x2="60.240009"
       y2="65.371536"
       spreadMethod="pad"
       gradientTransform="matrix(12.297994,0,0,12.297994,4745.7123,3678.6763)"><stop
         stop-color="#f9e200"
         offset="0"
         stop-opacity="1"
         id="stop3" /><stop
         stop-color="#f77f02"
         offset="1"
         stop-opacity="1"
         id="stop4" /></linearGradient><linearGradient
       id="gradient2"
       gradientTransform="matrix(12.301315,0,0,12.294673,4633.0626,3451.4093)"
       gradientUnits="userSpaceOnUse"
       x1="50.846264"
       y1="55.986652"
       x2="60.23373"
       y2="65.389191"
       spreadMethod="pad"><stop
         stop-color="#ffffff"
         offset="0"
         stop-opacity="1"
         id="stop5" /><stop
         stop-color="#f9e200"
         offset="1"
         stop-opacity="1"
         id="stop6" /></linearGradient><linearGradient
       id="gradient3"
       gradientTransform="matrix(6.5231612,0,0,7.9593739,7022.0473,4913.4699)"
       gradientUnits="userSpaceOnUse"
       x1="283.89676"
       y1="79.604439"
       x2="441.34839"
       y2="154.10107"
       spreadMethod="pad"><stop
         stop-color="#ffffff"
         offset="0"
         stop-opacity="1"
         id="stop7" /><stop
         stop-color="#f9e200"
         offset="0.200000002980232"
         stop-opacity="1"
         id="stop8" /><stop
         stop-color="#f77f02"
         offset="0.639999985694885"
         stop-opacity="1"
         id="stop9" /><stop
         stop-color="#f5515e"
         offset="0.910000026226044"
         stop-opacity="1"
         id="stop10" /></linearGradient><linearGradient
       id="gradient4"
       gradientTransform="matrix(6.6933212,0,0,7.7570278,7343.4156,4913.4699)"
       gradientUnits="userSpaceOnUse"
       x1="228.66612"
       y1="81.680969"
       x2="382.11496"
       y2="158.12088"
       spreadMethod="pad"><stop
         stop-color="#ffffff"
         offset="0"
         stop-opacity="1"
         id="stop11" /><stop
         stop-color="#f9e200"
         offset="0.200000002980232"
         stop-opacity="1"
         id="stop12" /><stop
         stop-color="#f77f02"
         offset="0.639999985694885"
         stop-opacity="1"
         id="stop13" /><stop
         stop-color="#f5515e"
         offset="0.910000026226044"
         stop-opacity="1"
         id="stop14" /></linearGradient><linearGradient
       id="gradient5"
       gradientTransform="matrix(6.5231612,0,0,7.9593739,7680.2762,4913.4699)"
       gradientUnits="userSpaceOnUse"
       x1="182.9903"
       y1="79.604439"
       x2="340.44193"
       y2="154.10107"
       spreadMethod="pad"><stop
         stop-color="#ffffff"
         offset="0"
         stop-opacity="1"
         id="stop15" /><stop
         stop-color="#f9e200"
         offset="0.200000002980232"
         stop-opacity="1"
         id="stop16" /><stop
         stop-color="#f77f02"
         offset="0.639999985694885"
         stop-opacity="1"
         id="stop17" /><stop
         stop-color="#f5515e"
         offset="0.910000026226044"
         stop-opacity="1"
         id="stop18" /></linearGradient><linearGradient
       id="gradient6"
       gradientTransform="matrix(6.1084202,0,0,8.4997889,7999.9873,4842.495)"
       gradientUnits="userSpaceOnUse"
       x1="143.0753"
       y1="82.893402"
       x2="311.21738"
       y2="152.65355"
       spreadMethod="pad"><stop
         stop-color="#ffffff"
         offset="0"
         stop-opacity="1"
         id="stop19" /><stop
         stop-color="#f9e200"
         offset="0.200000002980232"
         stop-opacity="1"
         id="stop20" /><stop
         stop-color="#f77f02"
         offset="0.639999985694885"
         stop-opacity="1"
         id="stop21" /><stop
         stop-color="#f5515e"
         offset="0.910000026226044"
         stop-opacity="1"
         id="stop22" /></linearGradient><linearGradient
       id="c"
       x1="450.29001"
       y1="184.53999"
       x2="592.83002"
       y2="266.82999"
       gradientUnits="userSpaceOnUse"><stop
         offset="0"
         stop-color="#fff"
         id="stop1-4" /><stop
         offset=".2"
         stop-color="#f9e200"
         id="stop2-5" /><stop
         offset=".64"
         stop-color="#f77f02"
         id="stop3-5" /><stop
         offset=".91"
         stop-color="#f5515e"
         id="stop4-1" /></linearGradient><linearGradient
       id="d"
       x1="171.69"
       y1="141.08"
       x2="181.08"
       y2="150.47"
       gradientUnits="userSpaceOnUse"
       gradientTransform="translate(-46.290001,-51.421535)"><stop
         offset="0"
         stop-color="#f77f02"
         id="stop5-7" /><stop
         offset="1"
         stop-color="#f5515e"
         id="stop6-1" /></linearGradient><linearGradient
       id="e"
       x1="147.10001"
       y1="98.470001"
       x2="156.49001"
       y2="107.87"
       gradientUnits="userSpaceOnUse"
       gradientTransform="translate(-46.290001,-51.421535)"><stop
         offset="0"
         stop-color="#f9e200"
         id="stop7-1" /><stop
         offset="1"
         stop-color="#f77f02"
         id="stop8-5" /></linearGradient><linearGradient
       id="f"
       x1="137.95"
       y1="79.989998"
       x2="147.34"
       y2="89.389999"
       gradientUnits="userSpaceOnUse"
       gradientTransform="translate(-46.290001,-51.421535)"><stop
         offset="0"
         stop-color="#fff"
         id="stop9-2" /><stop
         offset="1"
         stop-color="#f9e200"
         id="stop10-7" /></linearGradient><clipPath
       clipPathUnits="userSpaceOnUse"
       id="clipPath51"><path
         d="m 5.2199992,94.178468 v 0 c 0.01,0.139997 0.03,0.279994 0.06,0.419999 1.27,7.469993 10.3899998,18.409993 24.5499998,29.949993 0.87,0.71 1.76,1.43 2.67,2.14 1.9,1.49 3.87,2.98 5.92,4.47 6.93,5.08 14.72,10.16 23.12,15.01 2.58,1.49 5.15,2.92 7.7,4.28 1,0.54 1.99,1.06 2.98,1.57 4.699997,2.45 9.330002,4.67 13.820003,6.64 2.320001,1.04 4.599997,2 6.829998,2.9 1.070003,0.43 2.120003,0.84 3.170004,1.24 21.679996,8.25 38.479996,9.96 42.449996,3.1 3.95,-6.86 -5.9,-20.53 -23.85,-35.16 -0.09,1.3 -0.25,2.58 -0.46,3.84 12.48,11.12 18.93,21.13 15.87,26.45 -3.08,5.33 -15.01,4.73 -30.919996,-0.53 -1.02,-0.33 -2.060003,-0.69 -3.120001,-1.07 -2.130001,-0.76 -4.330001,-1.6 -6.580004,-2.52 -4.559999,-1.85 -9.330002,-4.01 -14.219998,-6.46 -0.980002,-0.5 -1.980002,-1 -2.980002,-1.53 -3.07,-1.59 -6.19,-3.3 -9.33,-5.11 -9.2,-5.32 -17.56,-10.95 -24.67,-16.49 -1.91,-1.48 -3.73,-2.96 -5.46,-4.43 -0.86,-0.73 -1.69,-1.45 -2.5,-2.18 -7.8,-6.95 -13.24,-13.47 -15.47,-18.68 -1.339999,-3.119995 -1.53,-5.769994 -0.38,-7.759998 0.570001,-0.979994 1.43,-1.75 2.56,-2.339997 5.01,-2.600003 15.29,-1.430001 28.2,2.830002 1,-0.820002 2.03,-1.599999 3.1,-2.320002 -13.93,-5.280002 -25.84,-7.860002 -33.6,-7.190003 -0.19,0.01 -0.38,0.03 -0.559999,0.05003 v 0 c -3.980001,0.440002 -6.7900009,1.780001 -8.1300008,4.100003 -0.7800001,1.349997 -1.0200001,2.949996 -0.77,4.78 z"
         style="display:inline;vector-effect:non-scaling-stroke;fill:none;stroke:none;stroke-width:0.750011;stroke-dasharray:none;-inkscape-stroke:hairline"
         id="path51" /></clipPath><linearGradient
       id="d-3"
       x1="171.69"
       y1="141.08"
       x2="181.08"
       y2="150.47"
       gradientUnits="userSpaceOnUse"><stop
         offset="0"
         stop-color="#f77f02"
         id="stop5-2" /><stop
         offset="1"
         stop-color="#f5515e"
         id="stop6-2" /></linearGradient><linearGradient
       id="e-1"
       x1="147.10001"
       y1="98.470001"
       x2="156.49001"
       y2="107.87"
       gradientUnits="userSpaceOnUse"><stop
         offset="0"
         stop-color="#f9e200"
         id="stop7-6" /><stop
         offset="1"
         stop-color="#f77f02"
         id="stop8-8" /></linearGradient><linearGradient
       id="f-5"
       x1="137.95"
       y1="79.989998"
       x2="147.34"
       y2="89.389999"
       gradientUnits="userSpaceOnUse"><stop
         offset="0"
         stop-color="#fff"
         id="stop9-7" /><stop
         offset="1"
         stop-color="#f9e200"
         id="stop10-6" /></linearGradient><clipPath
       id="g"><path
         d="m 51.51,145.6 v 0 c 0.01,0.14 0.03,0.28 0.06,0.42 1.27,7.47 10.39,18.41 24.55,29.95 0.87,0.71 1.76,1.43 2.67,2.14 1.9,1.49 3.87,2.98 5.92,4.47 6.93,5.08 14.72,10.16 23.12,15.01 2.58,1.49 5.15,2.92 7.7,4.28 1,0.54 1.99,1.06 2.98,1.57 4.7,2.45 9.33,4.67 13.82,6.64 2.32,1.04 4.6,2 6.83,2.9 1.07,0.43 2.12,0.84 3.17,1.24 21.68,8.25 38.48,9.96 42.45,3.1 3.95,-6.86 -5.9,-20.53 -23.85,-35.16 -0.09,1.3 -0.25,2.58 -0.46,3.84 12.48,11.12 18.93,21.13 15.87,26.45 -3.08,5.33 -15.01,4.73 -30.92,-0.53 -1.02,-0.33 -2.06,-0.69 -3.12,-1.07 -2.13,-0.76 -4.33,-1.6 -6.58,-2.52 -4.56,-1.85 -9.33,-4.01 -14.22,-6.46 -0.98,-0.5 -1.98,-1 -2.98,-1.53 -3.07,-1.59 -6.19,-3.3 -9.33,-5.11 -9.2,-5.32 -17.56,-10.95 -24.67,-16.49 -1.91,-1.48 -3.73,-2.96 -5.46,-4.43 -0.86,-0.73 -1.69,-1.45 -2.5,-2.18 -7.8,-6.95 -13.24,-13.47 -15.47,-18.68 -1.34,-3.12 -1.53,-5.77 -0.38,-7.76 0.57,-0.98 1.43,-1.75 2.56,-2.34 5.01,-2.6 15.29,-1.43 28.2,2.83 1,-0.82 2.03,-1.6 3.1,-2.32 -13.93,-5.28 -25.84,-7.86 -33.6,-7.19 -0.19,0.01 -0.38,0.03 -0.56,0.05 v 0 c -3.98,0.44 -6.79,1.78 -8.13,4.1 -0.78,1.35 -1.02,2.95 -0.77,4.78 z"
         style="fill:none"
         id="path10" /></clipPath><clipPath
       id="h"><rect
         x="46.41"
         y="131.56"
         width="144.24001"
         height="95.010002"
         style="fill:none"
         id="rect10" /></clipPath><linearGradient
       inkscape:collect="always"
       xlink:href="#c"
       id="linearGradient45"
       gradientUnits="userSpaceOnUse"
       x1="450.29001"
       y1="184.53999"
       x2="592.83002"
       y2="266.82999"
       gradientTransform="translate(-242.09,-103.52376)" /></defs><rect
     style="display:inline;vector-effect:non-scaling-stroke;fill:#050707;fill-opacity:1;stroke-linecap:round;stroke-linejoin:round;stroke-miterlimit:3;stroke-opacity:0.9;-inkscape-stroke:hairline;paint-order:markers stroke fill"
     id="rect22"
     width="10062"
     height="7087"
     x="-1834.9165"
     y="-1146.8545"
     sodipodi:insensitive="true" /><g
     id="g27"
     transform="matrix(-1,0,0,1,8227.0835,-1146.8545)"
     sodipodi:insensitive="true"
     style="display:inline"><image
       width="10062"
       height="7087"
       preserveAspectRatio="none"
       style="image-rendering:optimizeSpeed"
       xlink:href="Sky.png"
       id="image1-0"
       x="0"
       y="0"
       inkscape:label="sky"
       sodipodi:insensitive="true" /><image
       width="10062"
       height="7087"
       preserveAspectRatio="none"
       style="image-rendering:optimizeSpeed"
       xlink:href="Trail%20Reflection.png"
       id="image1-9"
       x="0"
       y="0"
       inkscape:label="trail_reflection"
       sodipodi:insensitive="true" /><image
       width="10062"
       height="7087"
       preserveAspectRatio="none"
       style="image-rendering:optimizeSpeed"
       xlink:href="Trail.png"
       id="image1-4"
       x="0"
       y="0"
       inkscape:label="trail"
       sodipodi:insensitive="true" /><image
       width="10062"
       height="7087"
       preserveAspectRatio="none"
       style="display:none;image-rendering:optimizeSpeed"
       xlink:href="Logo%20Reflection.png"
       id="image1-8"
       x="0"
       y="0"
       inkscape:label="logo_reflection"
       sodipodi:insensitive="true" /><image
       width="10062"
       height="7086.9995"
       preserveAspectRatio="none"
       style="image-rendering:optimizeSpeed"
       xlink:href="Silhouette.png"
       id="image1"
       x="0"
       y="0"
       inkscape:label="silhouette"
       sodipodi:insensitive="true" /></g><g
     id="g28"
     inkscape:label="overlay"
     transform="translate(-253.58073,-48.569104)"><g
       id="g24"
       transform="matrix(9.2192294,0,0,9.2191911,897.3308,852.58327)"
       style="display:inline"
       inkscape:label="logo"><path
         id="path40"
         style="fill:#ffffff;fill-rule:evenodd"
         d="m 77.059999,125.65846 c -3.89,-0.84 -7.41,-4.4 -11.66,-4.66 -6.8,-0.42 -9.47,5.14 -12.21,10.29 1.87,1.51 4.13,2.64 6.04,4.12 2.17,-1.43 3.23,-4.94 6.86,-4.94 2.15,0 3.8,1.59 5.9,2.74 1.81,0.99 4.24,2.06 6.58,2.2 7.35,0.41 9.84,-5.85 12.75,-10.56 -2.17,-1.31 -4.14,-2.81 -6.31,-4.11 -1.44,2.44 -4.26,5.73 -7.95,4.94 z m -0.55,-40.409995 V -0.00153513 h -8.5 V 85.248465 c -21.49,2.13 -38.27,20.259995 -38.27,42.309995 0,22.05 16.78,40.17 38.27,42.31 v 85.25 h 8.5 v -85.25 c 21.49,-2.13 38.270001,-20.26 38.270001,-42.31 0,-22.05 -16.780001,-40.169995 -38.270001,-42.309995 z m -4.25,76.319995 c -18.79,0 -34.02,-15.23 -34.02,-34.02 0,-18.79 15.23,-34.019995 34.02,-34.019995 18.79,0 34.020001,15.229995 34.020001,34.019995 0,18.79 -15.230001,34.02 -34.020001,34.02 z" /><path
         d="m 139.35,94.358465 c 0,0.18 -0.15,0.33 -0.33,0.33 -5.71,0 -8.6,2.89 -8.6,8.589995 0,0.19 -0.15,0.33 -0.33,0.33 -0.18,0 -0.33,-0.14 -0.33,-0.33 0,-5.699995 -2.89,-8.589995 -8.6,-8.589995 -0.18,0 -0.33,-0.15 -0.33,-0.33 0,-0.19 0.15,-0.33 0.33,-0.33 5.71,0 8.6,-2.9 8.6,-8.6 0,-0.18 0.15,-0.33 0.33,-0.33 0.18,0 0.33,0.15 0.33,0.33 0,5.7 2.89,8.6 8.6,8.6 0.18,0 0.33,0.14 0.33,0.33 z"
         style="fill:url(#d)"
         id="path41" /><path
         d="m 114.76,51.748465 c 0,0.19 -0.15,0.33 -0.33,0.33 -5.71,0 -8.6,2.9 -8.6,8.6 0,0.18 -0.15,0.33 -0.33,0.33 -0.18,0 -0.33,-0.15 -0.33,-0.33 0,-5.7 -2.89,-8.6 -8.590001,-8.6 -0.19,0 -0.33,-0.14 -0.33,-0.33 0,-0.18 0.14,-0.33 0.33,-0.33 5.700001,0 8.590001,-2.89 8.590001,-8.59 0,-0.19 0.15,-0.33 0.33,-0.33 0.18,0 0.33,0.14 0.33,0.33 0,5.7 2.89,8.59 8.6,8.59 0.18,0 0.33,0.15 0.33,0.33 z"
         style="fill:url(#e)"
         id="path42" /><path
         d="m 105.61,33.268465 c 0,0.19 -0.15,0.33 -0.33,0.33 -5.710001,0 -8.600001,2.9 -8.600001,8.6 0,0.18 -0.15,0.33 -0.33,0.33 -0.18,0 -0.33,-0.15 -0.33,-0.33 0,-5.7 -2.89,-8.6 -8.6,-8.6 -0.18,0 -0.33,-0.14 -0.33,-0.33 0,-0.18 0.15,-0.33 0.33,-0.33 5.71,0 8.6,-2.89 8.6,-8.59 0,-0.19 0.15,-0.33 0.33,-0.33 0.18,0 0.33,0.14 0.33,0.33 0,5.7 2.89,8.59 8.600001,8.59 0.18,0 0.33,0.15 0.33,0.33 z"
         style="fill:url(#f)"
         id="path43" /><image
         width="144.48"
         height="95.519997"
         xlink:href="Swoosh.png"
         id="image43"
         x="0"
         y="79.858467"
         clip-path="url(#clipPath51)" /></g><g
       id="g25"
       transform="matrix(5.40341,0,0,5.40341,2447.0807,1623.0808)"
       style="display:inline"
       inkscape:label="text"><path
         id="path25"
         style="fill:#ffffff"
         d="m 565.66,57.39784 c -2.95,0 -5.65,-0.55 -8.1,-1.66 -2.46,-1.1 -4.6,-2.63 -6.44,-4.59 -1.83,-1.95 -3.26,-4.19 -4.26,-6.71 -1.01,-2.52 -1.51,-5.19 -1.51,-8.02 0,-3.8 0.85,-7.28 2.56,-10.41 1.71,-3.13 4.08,-5.63 7.13,-7.48 3.05,-1.85 6.57,-2.78 10.55,-2.78 3.77,0 7.11,0.87 10,2.6 2.89,1.73 5.04,4.07 6.44,7.02 l -5.12,1.63 c -1.14,-2.07 -2.73,-3.68 -4.77,-4.85 -2.04,-1.16 -4.3,-1.75 -6.79,-1.75 -2.69,0 -5.15,0.69 -7.37,2.08 -2.22,1.39 -3.99,3.29 -5.31,5.7 -1.32,2.41 -1.98,5.16 -1.98,8.24 0,3.08 0.67,5.78 2.02,8.24 1.34,2.46 3.13,4.43 5.35,5.89 2.22,1.46 4.68,2.19 7.37,2.19 1.76,0 3.45,-0.31 5.08,-0.93 1.63,-0.62 3.05,-1.46 4.26,-2.52 1.21,-1.06 2.03,-2.21 2.44,-3.45 l 5.2,1.55 c -0.72,1.91 -1.93,3.63 -3.61,5.16 -1.68,1.53 -3.65,2.71 -5.89,3.57 -2.25,0.85 -4.67,1.28 -7.25,1.28 z m -34.43,-49.64 v -7.76 h 5.27 v 7.76 z m 0,48.86 v -40.4 h 5.27 v 40.4 z m -6.59,-1.63 c -0.41,0.16 -1.06,0.44 -1.94,0.85 -0.88,0.41 -1.94,0.78 -3.18,1.08 -1.24,0.31 -2.59,0.47 -4.03,0.47 -1.44,0 -2.91,-0.29 -4.23,-0.86 -1.32,-0.57 -2.37,-1.44 -3.14,-2.61 -0.77,-1.17 -1.16,-2.61 -1.16,-4.32 v -29.05 h -5.58 v -4.19 h 5.58 v -13.65 h 5.27 v 13.65 h 9.31 v 4.19 h -9.31 v 27.59 c 0.1,1.45 0.63,2.55 1.59,3.27 0.96,0.73 2.06,1.09 3.3,1.09 1.45,0 2.77,-0.25 3.96,-0.74 1.19,-0.49 1.91,-0.84 2.17,-1.05 l 1.4,4.27 z m -47.08,2.41 c -2.9,0 -5.58,-0.55 -8.07,-1.66 -2.49,-1.11 -4.63,-2.63 -6.44,-4.56 -1.81,-1.93 -3.22,-4.16 -4.23,-6.68 -1.01,-2.52 -1.51,-5.23 -1.51,-8.11 0,-3.75 0.87,-7.18 2.6,-10.31 1.73,-3.13 4.12,-5.63 7.17,-7.5 3.05,-1.87 6.51,-2.81 10.39,-2.81 3.88,0 7.46,0.95 10.43,2.85 2.97,1.9 5.31,4.4 7.02,7.51 1.71,3.11 2.56,6.51 2.56,10.21 v 1.19 c 0,0.38 -0.03,0.68 -0.08,0.89 h -34.59 c 0.26,2.88 1.07,5.44 2.44,7.68 1.37,2.24 3.15,4.01 5.35,5.32 2.2,1.31 4.59,1.97 7.17,1.97 2.58,0 5.13,-0.67 7.48,-2.02 2.35,-1.34 3.99,-3.1 4.92,-5.27 l 4.58,1.24 c -0.83,1.91 -2.09,3.65 -3.8,5.2 -1.71,1.55 -3.71,2.75 -6.01,3.61 -2.3,0.85 -4.77,1.28 -7.41,1.28 z m -14.89,-22.8 h 29.86 c -0.21,-2.92 -1,-5.47 -2.37,-7.67 -1.37,-2.2 -3.15,-3.93 -5.35,-5.18 -2.2,-1.25 -4.61,-1.88 -7.25,-1.88 -2.64,0 -5.04,0.63 -7.21,1.88 -2.17,1.25 -3.94,2.99 -5.31,5.22 -1.37,2.23 -2.16,4.77 -2.37,7.64 z m -13.8,22.02 h -5.27 v -22.42 c 0,-4.73 -0.7,-8.18 -2.09,-10.36 -1.4,-2.18 -3.59,-3.28 -6.59,-3.28 -2.07,0 -4.11,0.5 -6.13,1.5 -2.02,1 -3.79,2.36 -5.31,4.08 -1.53,1.72 -2.62,3.68 -3.3,5.89 v 24.6 h -5.27 v -40.25 h 4.81 v 9.17 c 1.08,-1.95 2.51,-3.66 4.26,-5.13 1.76,-1.46 3.75,-2.61 5.97,-3.43 2.22,-0.82 4.52,-1.23 6.9,-1.23 2.22,0 4.11,0.41 5.66,1.23 1.55,0.82 2.79,1.99 3.72,3.51 0.93,1.52 1.6,3.34 2.02,5.47 0.41,2.13 0.62,4.51 0.62,7.13 z m -65.69,0.78 c -2.74,0 -5.27,-0.57 -7.6,-1.71 -2.33,-1.14 -4.33,-2.68 -6.01,-4.61 -1.68,-1.94 -2.99,-4.15 -3.92,-6.63 -0.93,-2.48 -1.4,-5.04 -1.4,-7.68 0,-2.84 0.45,-5.52 1.36,-8.03 0.9,-2.51 2.2,-4.74 3.88,-6.71 1.68,-1.96 3.66,-3.5 5.93,-4.61 2.27,-1.11 4.81,-1.67 7.6,-1.67 3.46,0 6.48,0.87 9.04,2.6 2.56,1.73 4.72,3.89 6.48,6.47 v -8.45 h 4.73 v 40.45 c 0,3.71 -0.89,6.84 -2.68,9.4 -1.78,2.55 -4.19,4.47 -7.21,5.76 -3.02,1.29 -6.32,1.93 -9.89,1.93 -4.6,0 -8.33,-0.83 -11.17,-2.48 -2.84,-1.66 -5.17,-3.88 -6.98,-6.67 l 3.26,-2.56 c 1.6,2.53 3.73,4.42 6.4,5.66 2.66,1.24 5.49,1.86 8.49,1.86 2.64,0 5.05,-0.47 7.25,-1.41 2.2,-0.94 3.96,-2.35 5.27,-4.22 1.32,-1.88 1.98,-4.24 1.98,-7.09 v -7.99 c -1.55,2.53 -3.67,4.56 -6.36,6.09 -2.69,1.52 -5.51,2.29 -8.45,2.29 z m 1.48,-4.42 c 1.6,0 3.14,-0.28 4.61,-0.85 1.47,-0.57 2.83,-1.33 4.07,-2.29 1.24,-0.96 2.27,-2.03 3.1,-3.22 0.83,-1.19 1.34,-2.4 1.55,-3.64 v -12.49 c -0.78,-1.96 -1.89,-3.71 -3.33,-5.24 -1.45,-1.52 -3.09,-2.71 -4.92,-3.57 -1.84,-0.85 -3.74,-1.28 -5.7,-1.28 -2.28,0 -4.3,0.48 -6.09,1.43 -1.78,0.96 -3.28,2.22 -4.5,3.8 -1.22,1.58 -2.16,3.35 -2.83,5.31 -0.67,1.97 -1.01,3.93 -1.01,5.89 0,2.17 0.39,4.23 1.16,6.17 0.78,1.94 1.85,3.67 3.22,5.2 1.37,1.53 2.97,2.7 4.81,3.53 1.84,0.83 3.79,1.24 5.86,1.24 z m -63.21,-7.91 c 0,-2.52 0.72,-4.69 2.17,-6.51 1.45,-1.82 3.45,-3.24 6.01,-4.24 2.56,-1 5.52,-1.5 8.88,-1.5 1.96,0 4.01,0.16 6.13,0.46 2.12,0.31 4.01,0.78 5.66,1.4 v -3.4 c 0,-3.39 -1.01,-6.09 -3.02,-8.09 -2.02,-2 -4.81,-3.01 -8.38,-3.01 -2.17,0 -4.3,0.4 -6.4,1.2 -2.1,0.8 -4.28,1.98 -6.55,3.53 l -2.02,-3.72 c 2.64,-1.81 5.22,-3.17 7.75,-4.07 2.53,-0.9 5.12,-1.36 7.75,-1.36 4.96,0 8.89,1.41 11.79,4.24 2.89,2.83 4.34,6.73 4.34,11.71 v 18.57 c 0,0.72 0.16,1.25 0.47,1.58 0.31,0.33 0.8,0.53 1.47,0.58 v 4.19 c -0.57,0.05 -1.06,0.1 -1.47,0.16 -0.42,0.05 -0.72,0.05 -0.93,0 -1.29,-0.05 -2.28,-0.47 -2.95,-1.24 -0.67,-0.78 -1.04,-1.6 -1.09,-2.48 l -0.08,-2.95 c -1.81,2.33 -4.16,4.12 -7.06,5.39 -2.9,1.27 -5.84,1.9 -8.84,1.9 -2.59,0 -4.92,-0.55 -7.02,-1.66 -2.09,-1.11 -3.72,-2.59 -4.89,-4.47 -1.16,-1.87 -1.74,-3.94 -1.74,-6.2 z m 27.07,3.07 c 0.57,-0.72 1.01,-1.41 1.32,-2.08 0.31,-0.67 0.46,-1.25 0.46,-1.77 v -5.84 c -1.76,-0.67 -3.58,-1.18 -5.47,-1.54 -1.89,-0.36 -3.79,-0.54 -5.7,-0.54 -3.77,0 -6.83,0.74 -9.15,2.23 -2.32,1.49 -3.49,3.51 -3.49,6.07 0,1.49 0.39,2.88 1.16,4.19 0.77,1.31 1.91,2.38 3.41,3.23 1.5,0.85 3.26,1.27 5.27,1.27 2.53,0 4.9,-0.49 7.1,-1.46 2.2,-0.97 3.89,-2.23 5.08,-3.77 z m -34.98,8.48 h -5.27 v -22.42 c 0,-4.67 -0.75,-8.12 -2.25,-10.32 -1.5,-2.21 -3.72,-3.31 -6.67,-3.31 -2.95,0 -5.78,1.08 -8.18,3.24 -2.4,2.16 -4.1,4.93 -5.08,8.32 v 24.5 h -5.27 v -22.42 c 0,-4.73 -0.72,-8.18 -2.17,-10.36 -1.45,-2.18 -3.67,-3.28 -6.67,-3.28 -3,0 -5.71,1.05 -8.14,3.15 -2.43,2.1 -4.14,4.87 -5.12,8.31 v 24.6 h -5.27 v -40.25 h 4.81 v 9.17 c 1.71,-3.14 3.89,-5.55 6.55,-7.25 2.66,-1.7 5.62,-2.54 8.88,-2.54 3.26,0 6.07,0.95 8.14,2.85 2.07,1.9 3.33,4.4 3.8,7.48 1.86,-3.39 4.1,-5.96 6.71,-7.71 2.61,-1.75 5.57,-2.62 8.88,-2.62 2.27,0 4.2,0.41 5.78,1.23 1.58,0.82 2.84,1.99 3.8,3.51 0.96,1.52 1.65,3.34 2.09,5.47 0.44,2.13 0.66,4.51 0.66,7.13 v 23.52 z m -89.03,0.78 c -2.9,0 -5.57,-0.55 -8.03,-1.66 -2.46,-1.1 -4.58,-2.62 -6.36,-4.55 -1.78,-1.93 -3.17,-4.14 -4.15,-6.63 -0.98,-2.49 -1.47,-5.13 -1.47,-7.9 0,-2.77 0.49,-5.57 1.47,-8.06 0.98,-2.49 2.38,-4.7 4.19,-6.63 1.81,-1.93 3.94,-3.44 6.4,-4.55 2.46,-1.11 5.13,-1.66 8.03,-1.66 2.9,0 5.56,0.55 7.99,1.66 2.43,1.11 4.55,2.62 6.36,4.55 1.81,1.93 3.21,4.14 4.19,6.63 0.98,2.49 1.47,5.18 1.47,8.06 0,2.88 -0.49,5.41 -1.47,7.9 -0.98,2.49 -2.37,4.71 -4.15,6.63 -1.78,1.93 -3.9,3.45 -6.36,4.55 -2.46,1.1 -5.16,1.66 -8.1,1.66 z m -14.65,-20.67 c 0,2.98 0.66,5.69 1.98,8.12 1.32,2.44 3.09,4.36 5.31,5.77 2.22,1.41 4.68,2.12 7.37,2.12 2.69,0 5.14,-0.72 7.37,-2.16 2.22,-1.44 4.01,-3.4 5.35,-5.89 1.34,-2.49 2.02,-5.2 2.02,-8.12 0,-2.92 -0.67,-5.7 -2.02,-8.16 -1.34,-2.46 -3.13,-4.42 -5.35,-5.85 -2.22,-1.44 -4.68,-2.16 -7.37,-2.16 -2.69,0 -5.13,0.75 -7.33,2.23 -2.2,1.49 -3.97,3.45 -5.31,5.89 -1.34,2.44 -2.02,5.17 -2.02,8.2 z m -8.38,-15.86 c -3.52,0.1 -6.6,1.09 -9.27,2.95 -2.67,1.86 -4.54,4.42 -5.62,7.68 v 25.13 h -5.27 v -40.25 h 4.96 v 9.54 c 1.4,-2.84 3.24,-5.14 5.54,-6.9 2.3,-1.76 4.74,-2.74 7.33,-2.95 0.52,-0.05 0.97,-0.08 1.36,-0.08 0.39,0 0.71,0.03 0.97,0.08 v 4.81 z m -26.76,34.12 c -0.41,0.16 -1.06,0.44 -1.94,0.85 -0.88,0.41 -1.94,0.78 -3.18,1.08 -1.24,0.31 -2.59,0.47 -4.03,0.47 -1.44,0 -2.91,-0.29 -4.23,-0.86 -1.32,-0.57 -2.37,-1.44 -3.14,-2.61 -0.77,-1.17 -1.16,-2.61 -1.16,-4.32 v -29.05 h -5.58 v -4.19 h 5.58 v -13.65 h 5.27 v 13.65 h 9.31 v 4.19 h -9.31 v 27.59 c 0.1,1.45 0.63,2.55 1.59,3.27 0.96,0.73 2.06,1.09 3.3,1.09 1.45,0 2.77,-0.25 3.96,-0.74 1.19,-0.49 1.91,-0.84 2.17,-1.05 l 1.4,4.27 z m -44.43,2.41 c -2.95,0 -5.65,-0.55 -8.1,-1.66 -2.46,-1.1 -4.6,-2.63 -6.44,-4.59 -1.83,-1.95 -3.26,-4.19 -4.26,-6.71 -1.01,-2.52 -1.51,-5.19 -1.51,-8.02 0,-3.8 0.85,-7.28 2.56,-10.41 1.71,-3.13 4.08,-5.63 7.13,-7.48 3.05,-1.85 6.57,-2.78 10.55,-2.78 3.77,0 7.11,0.87 10,2.6 2.89,1.73 5.04,4.07 6.44,7.02 l -5.12,1.63 c -1.14,-2.07 -2.73,-3.68 -4.77,-4.85 -2.04,-1.16 -4.3,-1.75 -6.79,-1.75 -2.69,0 -5.15,0.69 -7.37,2.08 -2.22,1.39 -3.99,3.29 -5.31,5.7 -1.32,2.41 -1.98,5.16 -1.98,8.24 0,3.08 0.67,5.78 2.02,8.24 1.34,2.46 3.13,4.43 5.35,5.89 2.22,1.46 4.68,2.19 7.37,2.19 1.76,0 3.45,-0.31 5.08,-0.93 1.63,-0.62 3.05,-1.46 4.26,-2.52 1.21,-1.06 2.03,-2.21 2.44,-3.45 l 5.2,1.55 c -0.72,1.91 -1.93,3.63 -3.61,5.16 -1.68,1.53 -3.65,2.71 -5.89,3.57 -2.25,0.85 -4.67,1.28 -7.25,1.28 z m -45.6,0 c -2.9,0 -5.58,-0.55 -8.07,-1.66 -2.49,-1.11 -4.63,-2.63 -6.44,-4.56 -1.81,-1.93 -3.22,-4.16 -4.23,-6.68 -1.01,-2.52 -1.51,-5.23 -1.51,-8.11 0,-3.75 0.87,-7.18 2.6,-10.31 1.73,-3.13 4.12,-5.63 7.17,-7.5 3.05,-1.87 6.51,-2.81 10.39,-2.81 3.88,0 7.46,0.95 10.43,2.85 2.97,1.9 5.31,4.4 7.02,7.51 1.71,3.11 2.56,6.51 2.56,10.21 v 1.19 c 0,0.38 -0.03,0.68 -0.08,0.89 H 69.94 c 0.26,2.88 1.07,5.44 2.44,7.68 1.37,2.24 3.15,4.01 5.35,5.32 2.2,1.31 4.59,1.97 7.17,1.97 2.58,0 5.13,-0.67 7.48,-2.02 2.35,-1.34 3.99,-3.1 4.92,-5.27 l 4.58,1.24 c -0.83,1.91 -2.09,3.65 -3.8,5.2 -1.71,1.55 -3.71,2.75 -6.01,3.61 -2.3,0.85 -4.77,1.28 -7.41,1.28 z m -14.89,-22.8 h 29.86 c -0.21,-2.92 -1,-5.47 -2.37,-7.67 -1.37,-2.2 -3.15,-3.93 -5.35,-5.18 -2.2,-1.25 -4.61,-1.88 -7.25,-1.88 -2.64,0 -5.04,0.63 -7.21,1.88 -2.17,1.25 -3.94,2.99 -5.31,5.22 -1.37,2.23 -2.16,4.77 -2.37,7.64 z m -23.42,-34.59 h 5.27 v 47.74 c 0,2.03 0.36,3.36 1.09,3.98 0.72,0.62 1.6,0.94 2.64,0.94 0.93,0 1.86,-0.1 2.79,-0.31 0.93,-0.21 1.73,-0.41 2.4,-0.62 l 0.93,4.26 c -0.98,0.42 -2.19,0.75 -3.61,1.01 -1.42,0.26 -2.65,0.39 -3.68,0.39 -2.38,0 -4.28,-0.7 -5.7,-2.1 -1.42,-1.4 -2.13,-3.33 -2.13,-5.77 v -49.51 z m -9.38,51.8 v 4.81 H 0.01 v -55.06 H 36.3 v 4.81 H 5.43 v 19.85 h 26.91 v 4.58 H 5.43 v 21.02 h 31.56 z" /><path
         id="path30"
         style="fill:#ffffff"
         d="m 125.4,127.13624 c 0,-3.8 0.79,-7.29 2.37,-10.45 1.58,-3.16 3.76,-5.69 6.55,-7.6 2.79,-1.91 5.97,-2.85 9.54,-2.85 3.36,0 6.37,0.89 9.03,2.67 2.66,1.78 4.74,3.94 6.24,6.48 V 90.496242 h 5.27 v 50.249998 c 0,0.72 0.16,1.25 0.47,1.59 0.31,0.34 0.78,0.53 1.4,0.58 v 4.19 c -1.04,0.16 -1.84,0.21 -2.4,0.16 -1.08,-0.05 -2.04,-0.49 -2.87,-1.32 -0.83,-0.83 -1.24,-1.73 -1.24,-2.71 v -3.96 c -1.6,2.64 -3.77,4.73 -6.51,6.28 -2.74,1.55 -5.58,2.33 -8.53,2.33 -2.79,0 -5.36,-0.57 -7.72,-1.7 -2.35,-1.13 -4.4,-2.67 -6.13,-4.63 -1.73,-1.95 -3.08,-4.18 -4.03,-6.67 -0.96,-2.49 -1.43,-5.08 -1.43,-7.75 z m 33.74,6.16 v -12.4 c -0.67,-1.85 -1.76,-3.53 -3.26,-5.04 -1.5,-1.51 -3.19,-2.72 -5.08,-3.62 -1.89,-0.9 -3.76,-1.35 -5.62,-1.35 -2.17,0 -4.14,0.45 -5.89,1.35 -1.76,0.9 -3.27,2.12 -4.54,3.66 -1.27,1.54 -2.24,3.29 -2.91,5.24 -0.67,1.95 -1.01,3.95 -1.01,6 0,2.16 0.38,4.21 1.12,6.16 0.75,1.95 1.82,3.68 3.22,5.2 1.4,1.51 3,2.68 4.81,3.5 1.81,0.82 3.77,1.23 5.89,1.23 1.34,0 2.74,-0.26 4.19,-0.77 1.45,-0.51 2.83,-1.22 4.15,-2.12 1.32,-0.9 2.42,-1.96 3.3,-3.2 0.88,-1.23 1.42,-2.51 1.63,-3.85 z M 107.26,90.496242 h 5.27 v 47.739998 c 0,2.03 0.36,3.36 1.09,3.98 0.72,0.62 1.6,0.94 2.64,0.94 0.93,0 1.86,-0.1 2.79,-0.31 0.93,-0.21 1.73,-0.41 2.4,-0.62 l 0.93,4.27 c -0.98,0.41 -2.19,0.75 -3.61,1.01 -1.42,0.26 -2.65,0.39 -3.68,0.39 -2.38,0 -4.28,-0.7 -5.7,-2.1 -1.42,-1.4 -2.13,-3.33 -2.13,-5.77 V 90.516242 Z M 78.95,147.87624 c -2.9,0 -5.58,-0.55 -8.07,-1.66 -2.49,-1.11 -4.63,-2.63 -6.44,-4.56 -1.81,-1.93 -3.22,-4.16 -4.23,-6.68 -1.01,-2.52 -1.51,-5.23 -1.51,-8.11 0,-3.75 0.87,-7.18 2.6,-10.31 1.73,-3.13 4.12,-5.63 7.17,-7.5 3.05,-1.87 6.51,-2.81 10.39,-2.81 3.88,0 7.46,0.95 10.43,2.85 2.97,1.9 5.31,4.4 7.02,7.51 1.71,3.11 2.56,6.51 2.56,10.21 v 1.19 c 0,0.39 -0.03,0.68 -0.08,0.89 H 64.2 c 0.26,2.88 1.07,5.44 2.44,7.68 1.37,2.24 3.15,4.01 5.35,5.32 2.2,1.31 4.59,1.97 7.17,1.97 2.58,0 5.13,-0.67 7.48,-2.02 2.35,-1.34 3.99,-3.1 4.92,-5.27 l 4.58,1.24 c -0.83,1.91 -2.09,3.64 -3.8,5.2 -1.71,1.55 -3.71,2.75 -6.01,3.61 -2.3,0.85 -4.77,1.28 -7.41,1.28 z m -14.89,-22.8 h 29.86 c -0.21,-2.92 -1,-5.47 -2.37,-7.67 -1.37,-2.2 -3.15,-3.93 -5.35,-5.18 -2.2,-1.25 -4.61,-1.88 -7.25,-1.88 -2.64,0 -5.04,0.63 -7.21,1.88 -2.17,1.25 -3.94,2.99 -5.31,5.22 -1.37,2.23 -2.16,4.77 -2.37,7.64 z M 44.6,98.246242 v -7.75 h 5.27 v 7.75 z m 0,48.859998 v -40.4 h 5.27 v 40.4 z m -44.6,0 V 92.046242 h 36.14 v 4.81 H 5.43 v 20.239998 h 25.9 v 4.5 H 5.43 v 25.51 z" /><path
         id="path38"
         style="fill:url(#linearGradient45)"
         d="m 366.73,138.43624 c -1.78,2.9 -4.19,5.2 -7.21,6.9 -3.02,1.7 -6.45,2.56 -10.28,2.56 -4.14,0 -7.72,-1.01 -10.74,-3.02 -3.02,-2.02 -5.36,-4.91 -7.02,-8.69 -1.66,-3.77 -2.48,-8.3 -2.48,-13.57 0,-6.67 0.87,-12.32 2.6,-16.95 1.73,-4.63 4.2,-8.119998 7.41,-10.469998 3.21,-2.35 6.98,-3.53 11.32,-3.53 3.46,0 6.66,0.75 9.58,2.25 2.92,1.5 5.39,3.64 7.41,6.439998 l -5.97,6.51 c -1.24,-1.91 -2.84,-3.42 -4.81,-4.54 -1.97,-1.11 -4.08,-1.67 -6.36,-1.67 -2.28,0 -4.34,0.62 -6.05,1.86 -1.71,1.24 -3.02,3.04 -3.96,5.39 -0.93,2.35 -1.45,5.18 -1.55,8.49 0.72,-1.24 1.65,-2.31 2.79,-3.22 1.14,-0.9 2.46,-1.6 3.96,-2.09 1.5,-0.49 3.1,-0.74 4.81,-0.74 3.67,0 6.95,0.81 9.85,2.44 2.89,1.63 5.18,3.83 6.86,6.59 1.68,2.77 2.52,5.88 2.52,9.34 0,3.46 -0.89,6.8 -2.68,9.69 z m -12.37,-0.74 c 1.55,-0.96 2.79,-2.22 3.72,-3.8 0.93,-1.58 1.4,-3.3 1.4,-5.16 0,-1.86 -0.46,-3.55 -1.4,-5.08 -0.93,-1.52 -2.16,-2.74 -3.68,-3.65 -1.53,-0.9 -3.22,-1.36 -5.08,-1.36 -1.86,0 -3.57,0.45 -5.12,1.36 -1.55,0.91 -2.78,2.12 -3.68,3.65 -0.91,1.53 -1.36,3.22 -1.36,5.08 0,1.86 0.47,3.58 1.4,5.16 0.93,1.58 2.17,2.84 3.72,3.8 1.55,0.96 3.21,1.43 4.96,1.43 1.86,0 3.57,-0.48 5.12,-1.43 z m -69.72,9.43 c 0,-2.35 0.18,-4.47 0.54,-6.36 0.36,-1.88 0.99,-3.64 1.9,-5.26 0.9,-1.62 2.14,-3.15 3.72,-4.59 1.58,-1.44 3.58,-2.84 6.01,-4.2 2.12,-1.15 3.98,-2.16 5.58,-3.02 1.6,-0.86 2.96,-1.66 4.07,-2.39 1.11,-0.73 1.95,-1.48 2.52,-2.24 0.57,-0.76 0.85,-1.63 0.85,-2.63 0,-1.07 -0.29,-2.04 -0.85,-2.92 -0.57,-0.88 -1.37,-1.59 -2.4,-2.12 -1.04,-0.53 -2.33,-0.8 -3.88,-0.8 -1.24,0 -2.39,0.16 -3.45,0.46 -1.06,0.31 -2.04,0.75 -2.95,1.32 -0.91,0.57 -1.74,1.2 -2.52,1.9 -0.78,0.7 -1.47,1.43 -2.09,2.21 l -6.59,-7.6 c 0.72,-0.72 1.69,-1.51 2.91,-2.37 1.21,-0.85 2.66,-1.65 4.34,-2.4 1.68,-0.75 3.54,-1.37 5.58,-1.86 2.04,-0.49 4.23,-0.74 6.55,-0.74 3.52,0 6.51,0.56 9,1.69 2.48,1.12 4.38,2.68 5.7,4.67 1.32,1.99 1.98,4.32 1.98,6.98 0,1.84 -0.34,3.47 -1.01,4.89 -0.67,1.42 -1.53,2.67 -2.56,3.75 -1.04,1.08 -2.16,2.04 -3.37,2.88 -1.22,0.84 -2.39,1.58 -3.53,2.21 -1.6,0.84 -3.05,1.62 -4.34,2.33 -1.29,0.71 -2.43,1.42 -3.41,2.13 -0.98,0.71 -1.85,1.43 -2.6,2.17 -0.75,0.74 -1.41,1.58 -1.98,2.52 h 23.65 v 9.38 h -37.38 z m -6.74,-22.38 c 0,4.48 -0.87,8.47 -2.6,11.96 -1.73,3.49 -4.11,6.23 -7.13,8.21 -3.02,1.99 -6.45,2.98 -10.28,2.98 -3.83,0 -7.25,-0.99 -10.28,-2.98 -3.03,-1.99 -5.4,-4.72 -7.13,-8.21 -1.73,-3.49 -2.6,-7.47 -2.6,-11.96 0,-4.49 0.87,-8.47 2.6,-11.96 1.73,-3.49 4.11,-6.24 7.13,-8.25 3.02,-2.01 6.45,-3.02 10.28,-3.02 3.83,0 7.25,1.01 10.28,3.02 3.02,2.01 5.4,4.76 7.13,8.25 1.73,3.49 2.6,7.48 2.6,11.96 z m -10.47,0 c 0,-2.72 -0.4,-5.1 -1.2,-7.15 -0.8,-2.04 -1.93,-3.64 -3.37,-4.8 -1.45,-1.16 -3.1,-1.74 -4.96,-1.74 -1.86,0 -3.59,0.58 -5.04,1.74 -1.45,1.16 -2.57,2.76 -3.37,4.8 -0.8,2.04 -1.2,4.42 -1.2,7.15 0,2.73 0.4,5.09 1.2,7.11 0.8,2.02 1.93,3.61 3.37,4.76 1.45,1.16 3.13,1.74 5.04,1.74 1.91,0 3.5,-0.58 4.92,-1.74 1.42,-1.16 2.55,-2.76 3.37,-4.8 0.83,-2.04 1.24,-4.4 1.24,-7.07 z m -74.14,22.38 c 0,-2.35 0.18,-4.47 0.54,-6.36 0.36,-1.88 0.99,-3.64 1.9,-5.26 0.9,-1.62 2.14,-3.15 3.72,-4.59 1.58,-1.44 3.58,-2.84 6.01,-4.2 2.12,-1.15 3.98,-2.16 5.58,-3.02 1.6,-0.86 2.96,-1.66 4.07,-2.39 1.11,-0.73 1.95,-1.48 2.52,-2.24 0.57,-0.76 0.85,-1.63 0.85,-2.63 0,-1.07 -0.29,-2.04 -0.85,-2.92 -0.57,-0.88 -1.37,-1.59 -2.4,-2.12 -1.04,-0.53 -2.33,-0.8 -3.88,-0.8 -1.24,0 -2.39,0.16 -3.45,0.46 -1.06,0.31 -2.04,0.75 -2.95,1.32 -0.91,0.57 -1.74,1.2 -2.52,1.9 -0.78,0.7 -1.47,1.43 -2.09,2.21 l -6.59,-7.6 c 0.72,-0.72 1.69,-1.51 2.91,-2.37 1.21,-0.85 2.66,-1.65 4.34,-2.4 1.68,-0.75 3.54,-1.37 5.58,-1.86 2.04,-0.49 4.23,-0.74 6.55,-0.74 3.52,0 6.51,0.56 9,1.69 2.48,1.12 4.38,2.68 5.7,4.67 1.32,1.99 1.98,4.32 1.98,6.98 0,1.84 -0.34,3.47 -1.01,4.89 -0.67,1.42 -1.53,2.67 -2.56,3.75 -1.04,1.08 -2.16,2.04 -3.37,2.88 -1.22,0.84 -2.39,1.58 -3.53,2.21 -1.6,0.84 -3.05,1.62 -4.34,2.33 -1.29,0.71 -2.43,1.42 -3.41,2.13 -0.98,0.71 -1.85,1.43 -2.6,2.17 -0.75,0.74 -1.41,1.58 -1.98,2.52 h 23.65 v 9.38 h -37.38 z m 173.44,-8.69 c -1.78,2.9 -4.19,5.2 -7.21,6.9 -3.02,1.7 -6.45,2.56 -10.28,2.56 -4.14,0 -7.72,-1.01 -10.74,-3.02 -3.02,-2.02 -5.36,-4.91 -7.02,-8.69 -1.66,-3.77 -2.48,-8.3 -2.48,-13.57 0,-6.67 0.87,-12.32 2.6,-16.95 1.73,-4.63 4.2,-8.119998 7.41,-10.469998 3.21,-2.35 6.98,-3.53 11.32,-3.53 3.46,0 6.66,0.75 9.58,2.25 2.92,1.5 5.39,3.64 7.41,6.439998 l -5.97,6.51 c -1.24,-1.91 -2.84,-3.42 -4.81,-4.54 -1.97,-1.11 -4.08,-1.67 -6.36,-1.67 -2.28,0 -4.34,0.62 -6.05,1.86 -1.71,1.24 -3.02,3.04 -3.96,5.39 -0.93,2.35 -1.45,5.18 -1.55,8.49 0.72,-1.24 1.65,-2.31 2.79,-3.22 1.14,-0.9 2.46,-1.6 3.96,-2.09 1.5,-0.49 3.1,-0.74 4.81,-0.74 3.67,0 6.95,0.81 9.85,2.44 2.89,1.63 5.18,3.83 6.86,6.59 1.68,2.77 2.52,5.88 2.52,9.34 0,3.46 -0.89,6.8 -2.68,9.69 z m -12.37,-0.74 c 1.55,-0.96 2.79,-2.22 3.72,-3.8 0.93,-1.58 1.4,-3.3 1.4,-5.16 0,-1.86 -0.46,-3.55 -1.4,-5.08 -0.93,-1.52 -2.16,-2.74 -3.68,-3.65 -1.53,-0.9 -3.22,-1.36 -5.08,-1.36 -1.86,0 -3.57,0.45 -5.12,1.36 -1.55,0.91 -2.78,2.12 -3.68,3.65 -0.91,1.53 -1.36,3.22 -1.36,5.08 0,1.86 0.47,3.58 1.4,5.16 0.93,1.58 2.17,2.84 3.72,3.8 1.55,0.96 3.21,1.43 4.96,1.43 1.86,0 3.57,-0.48 5.12,-1.43 z m -69.72,9.43 c 0,-2.35 0.18,-4.47 0.54,-6.36 0.36,-1.88 0.99,-3.64 1.9,-5.26 0.9,-1.62 2.14,-3.15 3.72,-4.59 1.58,-1.44 3.58,-2.84 6.01,-4.2 2.12,-1.15 3.98,-2.16 5.58,-3.02 1.6,-0.86 2.96,-1.66 4.07,-2.39 1.11,-0.73 1.95,-1.48 2.52,-2.24 0.57,-0.76 0.85,-1.63 0.85,-2.63 0,-1.07 -0.29,-2.04 -0.85,-2.92 -0.57,-0.88 -1.37,-1.59 -2.4,-2.12 -1.04,-0.53 -2.33,-0.8 -3.88,-0.8 -1.24,0 -2.39,0.16 -3.45,0.46 -1.06,0.31 -2.04,0.75 -2.95,1.32 -0.91,0.57 -1.74,1.2 -2.52,1.9 -0.78,0.7 -1.47,1.43 -2.09,2.21 l -6.59,-7.6 c 0.72,-0.72 1.69,-1.51 2.91,-2.37 1.21,-0.85 2.66,-1.65 4.34,-2.4 1.68,-0.75 3.54,-1.37 5.58,-1.86 2.04,-0.49 4.23,-0.74 6.55,-0.74 3.52,0 6.51,0.56 9,1.69 2.48,1.12 4.38,2.68 5.7,4.67 1.32,1.99 1.98,4.32 1.98,6.98 0,1.84 -0.34,3.47 -1.01,4.89 -0.67,1.42 -1.53,2.67 -2.56,3.75 -1.04,1.08 -2.16,2.04 -3.37,2.88 -1.22,0.84 -2.39,1.58 -3.53,2.21 -1.6,0.84 -3.05,1.62 -4.34,2.33 -1.29,0.71 -2.43,1.42 -3.41,2.13 -0.98,0.71 -1.85,1.43 -2.6,2.17 -0.75,0.74 -1.41,1.58 -1.98,2.52 h 23.65 v 9.38 h -37.38 z m -6.74,-22.38 c 0,4.48 -0.87,8.47 -2.6,11.96 -1.73,3.49 -4.11,6.23 -7.13,8.21 -3.02,1.99 -6.45,2.98 -10.28,2.98 -3.83,0 -7.25,-0.99 -10.28,-2.98 -3.03,-1.99 -5.4,-4.72 -7.13,-8.21 -1.73,-3.49 -2.6,-7.47 -2.6,-11.96 0,-4.49 0.87,-8.47 2.6,-11.96 1.73,-3.49 4.11,-6.24 7.13,-8.25 3.02,-2.01 6.45,-3.02 10.28,-3.02 3.83,0 7.25,1.01 10.28,3.02 3.02,2.01 5.4,4.76 7.13,8.25 1.73,3.49 2.6,7.48 2.6,11.96 z m -10.47,0 c 0,-2.72 -0.4,-5.1 -1.2,-7.15 -0.8,-2.04 -1.93,-3.64 -3.37,-4.8 -1.45,-1.16 -3.1,-1.74 -4.96,-1.74 -1.86,0 -3.59,0.58 -5.04,1.74 -1.45,1.16 -2.57,2.76 -3.37,4.8 -0.8,2.04 -1.2,4.42 -1.2,7.15 0,2.73 0.4,5.09 1.2,7.11 0.8,2.02 1.93,3.61 3.37,4.76 1.45,1.16 3.13,1.74 5.04,1.74 1.91,0 3.5,-0.58 4.92,-1.74 1.42,-1.16 2.55,-2.76 3.37,-4.8 0.83,-2.04 1.24,-4.4 1.24,-7.07 z m -74.14,22.38 c 0,-2.35 0.18,-4.47 0.54,-6.36 0.36,-1.88 0.99,-3.64 1.9,-5.26 0.9,-1.62 2.14,-3.15 3.72,-4.59 1.58,-1.44 3.58,-2.84 6.01,-4.2 2.12,-1.15 3.98,-2.16 5.58,-3.02 1.6,-0.86 2.96,-1.66 4.07,-2.39 1.11,-0.73 1.95,-1.48 2.52,-2.24 0.57,-0.76 0.85,-1.63 0.85,-2.63 0,-1.07 -0.29,-2.04 -0.85,-2.92 -0.57,-0.88 -1.37,-1.59 -2.4,-2.12 -1.04,-0.53 -2.33,-0.8 -3.88,-0.8 -1.24,0 -2.39,0.16 -3.45,0.46 -1.06,0.31 -2.04,0.75 -2.95,1.32 -0.91,0.57 -1.74,1.2 -2.52,1.9 -0.78,0.7 -1.47,1.43 -2.09,2.21 l -6.59,-7.6 c 0.72,-0.72 1.69,-1.51 2.91,-2.37 1.21,-0.85 2.66,-1.65 4.34,-2.4 1.68,-0.75 3.54,-1.37 5.58,-1.86 2.04,-0.49 4.23,-0.74 6.55,-0.74 3.52,0 6.51,0.56 9,1.69 2.48,1.12 4.38,2.68 5.7,4.67 1.32,1.99 1.98,4.32 1.98,6.98 0,1.84 -0.34,3.47 -1.01,4.89 -0.67,1.42 -1.53,2.67 -2.56,3.75 -1.04,1.08 -2.16,2.04 -3.37,2.88 -1.22,0.84 -2.39,1.58 -3.53,2.21 -1.6,0.84 -3.05,1.62 -4.34,2.33 -1.29,0.71 -2.43,1.42 -3.41,2.13 -0.98,0.71 -1.85,1.43 -2.6,2.17 -0.75,0.74 -1.41,1.58 -1.98,2.52 h 23.65 v 9.38 h -37.38 z" /></g></g><rect
     style="display:none;vector-effect:non-scaling-stroke;fill:none;fill-opacity:1;stroke:#ff00f8;stroke-width:1.83333;stroke-linecap:round;stroke-linejoin:round;stroke-miterlimit:3;stroke-dasharray:none;stroke-opacity:1;-inkscape-stroke:hairline;paint-order:markers stroke fill"
     id="rect27"
     width="7040"
     height="3960"
     x="0"
     y="0" /></svg>
