<svg version="1.1" viewBox="0 0 3840 2160" xmlns="http://www.w3.org/2000/svg" xmlns:xlink="http://www.w3.org/1999/xlink">
    <defs>
        <linearGradient id="gradient_licht_hinten_wide" x1="0" x2="1">
            <stop stop-color="#ffae00" stop-opacity="0" offset="0"/>
            <stop stop-color="#ffae00" offset=".5"/>
            <stop stop-color="#ffae00" stop-opacity="0" offset="1"/>
        </linearGradient>

        <radialGradient id="gradient_background" cx="1920" cy="2678" r="1920" gradientUnits="userSpaceOnUse">
            <stop stop-color="#464447" offset="0"/>
            <stop stop-color="#181619" offset="1"/>
        </radialGradient>
        <radialGradient id="gradient_color" cx="0.5" cy="0.5" r="0.667">
            <stop stop-color="#fffa0a" offset="0"/>
            <stop stop-color="#f68f18" offset="1"/>
        </radialGradient>

        <mask id="mask_licht_hinten_wide" maskUnits="userSpaceOnUse">
            <image x="-1452" y="-540" width="6744" height="3240" image-rendering="optimizeQuality" xlink:href="licht_hinten_wide.png"/>
        </mask>
    </defs>
    <path d="m0 0v2160h3840v-2160z" fill="url(#gradient_background)"/>
    <g id="licht_hinten">
        <image x="-960" y="-540" width="5760" height="3240" image-rendering="optimizeQuality" xlink:href="licht_hinten_center_glow.png"/>
        <image x="-960" y="-540" width="5760" height="3240" image-rendering="optimizeQuality" xlink:href="licht_hinten_color_glow.png"/>
        <rect x="0" y="180" width="3840" height="540" fill="url(#gradient_licht_hinten_wide)" mask="url(#mask_licht_hinten_wide)" opacity=".6"/>
    </g>
    <g id="logo">
        <rect x="1855.48" y="78.4" width="125.8" height="125.8" fill="#f1483f"/>
        <rect x="1855.48" y="204.2" width="125.8" height="125.8" fill="#f3702c"/>
        <rect x="1855.48" y="330" width="125.8" height="125.8" fill="url(#gradient_color)"/>
        <rect x="1855.48" y="455.8" width="125.8" height="125.8" fill="#50399d"/>
        <rect x="1855.48" y="581.6" width="125.8" height="125.8" fill="#3b216e"/>
            <path fill="#ffffff" d="m1730 368.4c-180.3 74.22-307.2 251.6-307.2 458.8 0 273.8 222 495.8 495.8 495.8l-.4063-.3321c273.8 0 495.8-222 495.8-495.8 0-207-126.9-384.4-307.1-458.4v139c109.3 64.6 182.7 183.6 182.7 319.8 0 205.1-166.2 371.1-371.1 371.1-205.1 0-371.1-166.2-371.1-371.1 0-136.2 73.33-255.2 182.7-319.8v-139zm546.9 1079c-60.75 0-112.8 37.19-134.6 89.98h40.81c18.95-32.01 53.87-53.5 93.83-53.5 60.2 0 109 48.69 109 108.7s-48.77 108.7-109 108.7c-39.96 0-74.89-21.48-93.83-53.5h-40.81c21.78 52.8 73.81 89.98 134.6 89.98 80.36 0 145.5-65.01 145.5-145.2s-65.16-145.2-145.5-145.2zm-534.8.0312v289.7h36.83v-289.7h-36.83zm-181.9.2207v.0371c-60.75 0-112.8 37.19-134.6 89.95h40.81c18.96-32.01 53.87-53.5 93.87-53.5 60.16 0 109 48.69 109 108.7s-48.77 108.7-109 108.7c-39.96 0-74.89-21.49-93.87-53.5h-40.81c21.78 52.8 73.85 89.98 134.6 89.98 80.36 0 145.5-65.01 145.5-145.2s-65.16-145.2-145.5-145.2zm401.3.1113c-80.36 0-145.5 65.01-145.5 145.2s65.16 145.2 145.5 145.2c60.75 0 112.8-37.19 134.6-89.98h-40.74c-18.96 32.01-53.91 53.5-93.87 53.5-60.16 0-109-48.69-109-108.7s48.77-108.7 109-108.7c39.96 0 74.93 21.48 93.87 53.5h40.78c-21.78-52.8-73.82-89.98-134.6-89.98zm169.8 126.4v36.84h184.5v-36.84h-184.5zm-716.8.2872v36.83h184.6v-36.83h-184.6zm736 255.6.0058 46.13c-8.932-10.74-21.33-16.52-35.54-16.52-27.27 0-48.1 20.48-48.1 47.43 0 26.77 21.31 47.25 49.25 47.25 15.04 0 25.29-5.466 34.38-18.52v16.36h12.23v-122.1h-12.23zm-689.7 29.53-.0137.0254c-11.9 0-21.48 4.625-29.09 13.88v-11.74h-12.23v90.39h12.23v-49.77c0-22.14 11.24-31.56 27.61-31.56 16.69 0 27.94 9.25 27.94 33.88v47.43h12.23v-47.43c0-31.72-16.03-45.1-38.67-45.1zm-287.4.0254c-27.1 0-47.58 20.48-47.58 47.58 0 26.94 20.65 47.1 48.43 47.1 15.38 0 25.28-5.116 34.88-18.02v15.87h12.23v-90.39h-12.23l-.0293 16.03c-8.932-12.56-20-18.17-35.7-18.17zm456.1 0 .0156.0098c-26.28 0-46.95 20.65-46.95 46.92 0 26.77 20.99 47.77 47.77 47.77 20.49 0 38.18-14.71 43.96-31.9h-12.73c-5.117 12.4-17.85 20.65-31.56 20.65-18.5 0-34.21-14.21-35.19-32.06h81.81c0-32.07-20.34-51.39-47.1-51.39zm1043 .0098-.0157.0273c-11.9 0-21.48 4.625-29.08 13.88v-11.74h-12.23v90.39h12.23v-49.77c0-22.14 11.23-31.56 27.59-31.56 16.71 0 27.94 9.25 27.94 33.88v47.43h12.23v-47.43c0-31.72-16.03-45.1-38.66-45.1zm-379.2.0644c-27.11 0-47.62 20.48-47.62 47.58 0 26.94 20.65 47.1 48.43 47.1 15.36 0 25.28-5.116 34.88-18.02v15.87h12.23v-90.39h-12.23l.0078 16.03c-8.932-12.56-20-18.17-35.7-18.17zm-547 2.107 34.54 90.39h13.22l19.5-59.98 19.67 59.98h13.05l35.04-90.39h-11.89l-29.41 75.7-21.33-64.6h-10.08l-21.32 64.6-28.76-75.7h-12.23zm672.3 0 34.54 90.39h13.22l19.5-59.98 19.67 59.98h13.05l35.04-90.39h-11.89l-29.42 75.7-21.32-64.6h-10.07l-21.32 64.6-28.76-75.7h-12.23zm-1245 9.033c19.83 0 35.37 15.54 35.37 35.7 0 20.49-15.2 36.52-34.7 36.52-20.49 0-36.21-16.03-36.21-36.68 0-19.67 15.87-35.54 35.54-35.54zm455.6.0254h.0097.0079c17.51.0074 30.89 11.08 35.02 29.09h-69.23c3.294-17.35 17-29.09 34.19-29.09zm485.4.0489c20 0 36.36 16.04 36.36 35.87s-15.87 36.35-35.21 36.35c-20.65 0-36.52-15.85-36.52-36.52 0-19.83 15.69-35.7 35.37-35.7zm179.2 0c19.84 0 35.38 15.54 35.38 35.7 0 20.49-15.22 36.52-34.72 36.52-20.49 0-36.19-16.03-36.19-36.68 0-19.67 15.87-35.54 35.53-35.54z"/>
    </g>
    <g id="licht_vorne">
        <image x="1247.2" y="348.5" image-rendering="optimizeQuality" width="1343.1" height="88.8" xlink:href="licht_vorne_lens_center.png"/>
        <image x="1883.6" y="370.7" image-rendering="optimizeQuality" width="684.5" height="33.3" xlink:href="licht_vorne_lens_top.png" opacity=".4" />
        <image x="1225" y="385.5" image-rendering="optimizeQuality" width="691.9" height="29.6" xlink:href="licht_vorne_lens_bottom.png" opacity=".4" />
        <image x="1073.3" y="389.2" image-rendering="optimizeQuality" width="1665" height="7.4" xlink:href="licht_vorne_hairline.png"/>
        <image x="1802.2" y="330" image-rendering="optimizeQuality" width="233.1" height="125.8" xlink:href="licht_vorne_glow_center.png"/>
        <image x="1595" y="359.6" image-rendering="optimizeQuality" width="643.8" height="70.3" xlink:href="licht_vorne_glow_wide.png"/>
    </g>
</svg>
