<svg version="1.1" viewBox="0 0 3840 2160" xmlns="http://www.w3.org/2000/svg" xmlns:xlink="http://www.w3.org/1999/xlink">
    <defs>
        <radialGradient id="gradientBackground" cx="0.5" cy="0.42" r="0.5">
            <stop stop-color="#1d318f" offset="0"/>
            <stop stop-color="#101929" offset="1"/>
        </radialGradient>
        <linearGradient id="gradientCorner">
            <stop stop-color="#2525bd" offset="0"/>
            <stop stop-color="#0179b6" offset=".5"/>
        </linearGradient>
        <linearGradient id="gradientTopLeft" x1="0" y1="0" x2="1" y2="1" xlink:href="#gradientCorner"/>
        <linearGradient id="gradientBottomRight" x1="1" y1="1" x2="0" y2="0" xlink:href="#gradientCorner"/>
    </defs>
    <path fill="url(#gradientBackground)" d="m0 0v2160h3840v-2160z"/>

    <path fill="#bbf59a" d="m3621 1260c-16.51-.1542-33.46.6992-48.7.6992-86.12 0-102.8 4.764-143 29.93-40.19 25.16-106.1 205.9-89.27 215.6 16.8 9.696 82.89-61.2 122.8-81.11 39.94-19.92 39.29-.2312 38.69 30-.5991 30.23-12.61 114.2-34.1 229.7-21.49 115.5-28.56 164.4-28.56 215.8 0 51.38 8.854 71.69 69.14 71.69s106.4-15.54 146.9-27.72c40.46-12.18 15.24-144.1 15.58-311.7.3358-167.6 19.96-247.9 30.29-293.9 15.5-68.96-30.22-78.51-79.76-78.97zm-512.2 3.32c-157 0-254.9-1.416-254.9 88.14 0 89.56 38.97 91.6 89.8 91.59 50.84-.015 163.4-31.79 188.2 12.44 24.78 44.23-29.7 105.8-43.19 119.7l-199.7 205.4c-21.22 21.83-41.86 88.24-41.86 127.8 0 38.87 13.99 46.46 272.3 41.19 90.84-1.853 187.9-4.754 221.4-4.754 56.09 0 46.05-6.06 38.07-35.1-5.329-19.41-15.43-46.9-23.7-60.37-8.274-13.47-28.12-33.96-16.07-54.84 12.05-20.88 28.38-16.92 35.32-28.93 6.936-12.01 5.382-30.46-3.951-35.85-9.333-5.389-27.19-2.884-34.94 10.52-7.741 13.41 10.19 30.98-3.93 49s-33.56 12.72-48.39 10.19c-14.83-2.533-44.36-2.631-98.12-4.422-92.17-3.07-106-4.562-49.39-61.15 56.59-56.59 101.1-66.88 152.8-156.4 8.241-14.27 29.46-66.09 29.46-123.4 0-123.8-52.32-190.7-209.3-190.7z"/>
    <path fill="#ffffff" d="m1397 514c-145.8 0-264 118.2-264 264s118.2 264 264 264 264-118.2 264-264-118.2-264-264-264zm441.3 5.008c-27.47 0-52.48 6.381-75.04 19.13-22.56 12.75-40.46 30.53-53.7 53.34-13.24 22.81-19.87 49.66-19.87 80.55 0 31.39 6.991 58.24 20.97 80.55 13.98 22.32 32.74 39.36 56.28 51.13s49.77 17.66 78.71 17.66h86.08c10.79 0 20.6 2.691 29.43 8.086 8.828 5.395 15.93 12.63 21.33 21.7 5.395 9.073 8.094 19.25 8.094 30.53 0 10.79-2.699 20.72-8.094 29.8-5.395 9.073-12.5 16.31-21.33 21.7s-18.64 8.094-29.43 8.094h-200.7c-11.05 0-20 8.954-20 20v52.7c0 11.05 8.954 20 20 20h213.9c27.47 0 52.6-6.381 75.41-19.13 22.81-12.75 40.95-31.38 54.44-55.91 13.49-24.52 20.23-54.19 20.23-89.02 0-29.43-6.503-55.18-19.5-77.25-13-22.07-31.26-39.24-54.8-51.5-23.54-12.26-51.25-18.39-83.13-18.39h-89.02c-9.809 0-18.88-2.447-27.22-7.352-8.338-4.905-14.84-11.53-19.5-19.87-4.659-8.338-6.984-17.65-6.984-27.95 0-10.3 2.325-19.62 6.984-27.96 4.659-8.338 11.16-15.08 19.5-20.23s17.41-7.727 27.22-7.727h193.3c11.05 0 20-8.954 20-20v-52.7c0-11.05-8.954-20-20-20h-203.6zm556 0c-40.22.4905-76.51 7.603-108.9 21.34-32.37 13.73-60.08 32.25-83.13 55.55-23.05 23.3-40.83 50.39-53.34 81.29-12.51 30.9-18.76 64-18.76 99.31 0 35.31 6.251 68.42 18.76 99.32 12.51 30.9 30.28 57.99 53.34 81.29 23.05 23.3 50.76 41.69 83.13 55.18 32.37 13.49 68.66 20.72 108.9 21.7h60.2c11.05 0 20-8.954 20-20v-52.7c0-11.05-8.954-20-20-20h-57.98c-23.54-.4904-45.12-4.905-64.74-13.24s-36.66-19.86-51.12-34.58c-14.47-14.71-25.63-32-33.48-51.87s-11.77-41.57-11.77-65.11c0-23.54 3.926-45.24 11.77-65.1s19.01-37.15 33.48-51.87 31.51-26.24 51.12-34.58c19.62-8.338 41.2-12.75 64.74-13.24h57.98c11.05 0 20-8.954 20-20v-52.7c0-11.05-8.954-20-20-20h-60.2zm-1727 .05469c-27.47 0-52.6 6.747-75.41 20.23-22.81 13.49-40.96 31.51-54.45 54.07-13.49 22.56-20.23 47.82-20.23 75.77v344.9c0 11.05 8.954 20 20 20h65.2c11.05 0 20-8.954 20-20v-149.1c0-11.05 8.954-20 20-20h166c11.05 0 20-8.954 20-20v-52.7c0-11.05-8.954-20-20-20h-166c-11.05 0-20-8.954-20-20v-63.13c0-15.69 5.519-29.18 16.55-40.46 11.04-11.28 24.4-16.92 40.09-16.92h154.4c11.05 0 20-8.954 20-20v-52.7c0-11.05-8.954-20-20-20h-166.1zm661.9 69.21 13.45.3672 5.555 13.05-9.024 9.703-1.195 16.53 13.43-10.3 3.008-10.4 15.76-.3828 7.398 12.18-8.531 12.37-11.55.3359-8.055 11.28-11.2 26.52 3.586 19.65 44.81-9.633 7.234-23.14 21.38-15.77 3.008-8.812 17.48-10.66 6.195.6094 16.77-6.664 16.62 1.836.123-.2266.2481.2734.3691.04102-.1172.2344 11.27 12.37 4.463 17.48 4.133 4.656 1.648 20.41-5.361 7.609-.1797 26.56-14.48 19.45 18.55 41.92 18.01-8.648 14.88-24.66 4.391-13.15-6.516-9.539 4.992-14.17 14.2-1.172 8.961 12.97-6.648 8.555-.4375 16.91 12.67-10.68 2.547-13.01 13.82-3.172 8.203 10.66-4.602 12.93-12.26 1.297-14.95 13.98 11.7.4219 10.16-9.086 13.73 5.195 3.57 14.18-12.62 9.25-11.9-6.062-22.62 9.211-27.11 9.062-22.85 16.75-12.21-2.719-11.56-14.4-7.43-3.789-17.8 35.25-23.31 19.02 49.36 7.406 13.61 6.93 6.227 23.21-4.031 7.906-32.1 25.14-54.93 17.11 22.82 5.008 30.23-3.234 14.57-4.812 6.602-6.602 2.719-12.79 13.41-2.945 10 9.008-5.75 13.88-10.58.3828-7.945 8.609 12.14.9609 8.297-5.734 13.47 9.211-2.461 11.59-11.78 5.703-8.953-7.414-11.22 2.062 4.328 7.938 13.85 1.328 3.758 13.66-9.492 8.258-11.23-4.148-2.289-8.5-14.43-7.352-36.8-11.41-42.08-3.797-13-8.461-1.172-20.59 46.46-30.37-33.42-1.844-13.66-2.359-34.59-17.62-9.938-9.672-21.13-25.95 2.742 55.45-17.34 11.15-14.5-5.547-27.8-31.8-30.86-23.06-14.43-7.352-8.227 3.141-9.953-6.641 1.102-12.53 13.26-4.992 9.211 10.43 8.969-1.164-4.922-10.29-11.27-2.891-2.312-12.88 7.93-8.805 15.38 5.484.2364 10.08 7.906 9.258 2.297-11.48-5.906-8.781 7.844-12.81 13.16 2.797 5.508 12.58-8.75 9.727-1.461 9.219 4.664 14.61 15.15 26.36 17.47 15.52-18.44-54.49 1.461-40.75 4.031-7.906 22.44-8.609 13.61 6.938 35.01 35.59 1.68-30.04 18.05-35.12-7.438-3.789-18.45-.8828-9.375-8.289.125-28.33-8.609-27.26-5.836-23.71-11.91-6.07.0722-15.65 13.56-5.445 12.28 8.062-1.383 13.55 7.219 9.211 2.531-20.31-6.154-10.67 7.748-11.33zm1378 61.69c-38.75 0-73.33 8.706-103.7 26.12-30.41 17.41-54.44 40.99-72.09 70.76-17.66 29.76-26.48 62.95-26.48 99.55 0 36.6 8.828 69.78 26.48 99.55 17.66 29.76 41.69 53.35 72.09 70.77 30.41 17.41 64.99 26.12 103.7 26.12s73.32-8.706 103.7-26.12c30.41-17.41 54.45-40.95 72.1-70.62 17.66-29.67 26.48-62.83 26.48-99.48 0-37.14-8.828-70.49-26.48-100.1-17.66-29.56-41.69-53.05-72.1-70.46-30.41-17.41-64.98-26.12-103.7-26.12zm433.8 0c-38.26 0-71.12 7.601-98.59 22.8-27.47 15.2-48.43 35.56-62.9 61.06-14.47 25.5-21.7 53.7-21.7 84.6v195.6c0 11.05 8.954 20 20 20h60.79c11.05 0 20-8.954 20-20v-195.6c0-15.2 3.682-29.06 11.04-41.56s17.28-22.44 29.79-29.8 26.37-11.04 41.57-11.04 29.06 3.682 41.56 11.04 22.44 17.29 29.8 29.8c7.357 12.51 11.03 26.36 11.03 41.56v195.6c0 11.05 8.954 20 20 20h60.79c11.05 0 20-8.954 20-20v-195.6c0-30.9-7.235-59.1-21.7-84.6-14.47-25.5-35.31-45.86-62.53-61.06-27.22-15.2-60.2-22.8-98.95-22.8zm-2149 8.883c-33.35 0-59.47 9.438-78.35 28.32-18.88 18.88-28.32 45-28.32 78.35v248.5c0 11.05 8.954 20 20 20h60.78c11.05 0 20-8.954 20-20v-245.6c0-6.866 2.333-12.5 6.992-16.91 4.659-4.414 10.18-6.625 16.55-6.625h66.07c11.05 0 20-8.954 20-20v-46.07c0-11.05-8.954-20-20-20h-83.73zm1715 77.19c20.6 0 38.38 4.91 53.34 14.72 14.96 9.809 26.49 23.05 34.58 39.73s12.14 35.34 12.14 56c0 20.65-4.048 39.29-12.14 55.91s-19.62 29.83-34.58 39.64c-14.96 9.809-32.74 14.71-53.34 14.71-20.6 0-38.38-4.902-53.34-14.71s-26.49-23.05-34.58-39.73c-8.092-16.68-12.14-35.35-12.14-56.01 0-20.65 4.048-39.28 12.14-55.9s19.62-29.83 34.58-39.64 32.74-14.72 53.34-14.72z"/>

    <path fill="url(#gradientBottomRight)" d="m3840 2160h-1678c127.5-113.1 463.2-329.8 771.2-329.8s678.5 248.4 803.7 39.88c125.2-208.5-141.9-398.8-141.9-530.9 0-132.1 64.49-211.6 245.4-252.4z"/>
    <path fill="none" stroke="#96bfbe" stroke-opacity=".3" stroke-width="65" stroke-linecap="square" d="m2129 2188c131.3-116.5 483.6-340.2 800.8-340.2s709.7 266.9 820.3 35.87c110.6-231-146.9-430.3-146.9-556.9s94.17-217.3 260.9-240.3"/>
    <path fill="url(#gradientTopLeft)" d="m0 0h1467c-126.2 109-457.2 242.7-719.8 242.7-262.7 0-593.6-170.7-700.1 50.18-106.5 220.9 154.2 389.8 154.2 525.4 0 135.5-129.9 208.1-200.9 190.8z"/>
    <path fill="none" stroke="#96bfbe" stroke-opacity=".3" stroke-width="85" stroke-linecap="square" d="m1469-23.16c-127.5 90.48-447.4 233.3-710.1 233.3-262.7 0-629.1-164.1-730.7 65.57-101.6 229.7 150 392.4 150 529.7 0 137.3-124.7 193.3-178.4 196.7"/>
</svg>
