<svg version="1.1" viewBox="0 0 3840 2160" xmlns="http://www.w3.org/2000/svg" xmlns:xlink="http://www.w3.org/1999/xlink">
  <defs>
    <linearGradient id="background" x1="0" x2="1" y1="1" y2="0">
      <stop stop-color="#050f13" offset="0"/>
      <stop stop-color="#08272c" offset=".25"/>
      <stop stop-color="#06444b" offset=".5"/>
      <stop stop-color="#01656e" offset=".75"/>
      <stop stop-color="#008c96" offset="1"/>
    </linearGradient>
  </defs>
  <rect width="3840" height="2160" fill="url(#background)"/>
  <g id="grid">
    <g fill="#fff">
      <path d="m1603 265.9 33.67-19.44v38.88z"/>
      <path d="m1322 440.9 33.67-19.44v38.88z"/>
      <path d="m1849 382.6 44.89-25.92 44.89 25.92-44.89 25.92z"/>
      <path d="m2231 512.2-44.89-25.92v-51.84l44.89 25.92z"/>
      <path d="m1962 253 33.67-19.44-33.67-19.44z"/>
      <path d="m1412 687.2v-51.84l44.89-25.92v51.84z"/>
      <path d="m1142 816.8v-51.84l44.89-25.92v51.84z"/>
      <path d="m1389 920.4-33.67-19.44 33.67-19.44z"/>
      <path d="m1187 1102v-38.88l33.67 19.44z"/>
      <path d="m1502 1244 44.89 25.92v51.84l-44.89-25.92z"/>
      <path d="m1333 1368v-38.88l-33.67 19.44z"/>
      <path d="m1782 1406v-38.88l33.67 19.44z"/>
      <path d="m2063 1452-33.67-19.44 33.67-19.44z"/>
      <path d="m1670 1549-33.67-19.44 33.67-19.44z"/>
      <path d="m2141 1536-44.89-25.92 44.89-25.92 44.89 25.92z"/>
      <path d="m2411 1342v-38.88l33.67 19.44z"/>
      <path d="m2590 1432-33.67-19.44 33.67-19.44z"/>
      <path d="m2691 1322-33.67-19.44 33.67-19.44z"/>
      <path d="m2590 1264 33.67-19.44-33.67-19.44z"/>
      <path d="m2287 1180-33.67-19.44 33.67-19.44z"/>
      <path d="m2343 1057 44.89-25.92v-51.84l-44.89 25.92z"/>
      <path d="m2197 907.5 33.67-19.44v38.88z"/>
      <path d="m2613 926.9 33.67-19.44-33.67-19.44z"/>
      <path d="m2613 1082 44.89-25.92v51.84l-44.89 25.92z"/>
    </g>
    <g fill="#ff6e00">
      <path d="m1266 473.3 44.89-25.92 44.89 25.92v51.84l-44.89 25.92-44.89-25.92z"/>
      <path d="m1266 538.1 33.67 19.44-33.67 19.44z"/>
      <path d="m1255 531.6v38.88l-33.67-19.44z"/>
      <path d="m1221 564 33.67 19.44-33.67 19.44z"/>
      <path d="m1356 538.1 33.67-19.44v38.88z"/>
      <path d="m1401 525.1 33.67 19.44-33.67 19.44z"/>
      <path d="m1356 551.1 33.67 19.44-33.67 19.44z"/>
      <path d="m1367 596.4 33.67-19.44v38.88z"/>
      <path d="m1412 583.5 33.67 19.44-33.67 19.44z"/>
      <path d="m1468 564 33.67 19.44-33.67 19.44z"/>
      <path d="m1479 557.6 33.67 19.44v-38.88z"/>
      <path d="m1580 460.3 33.67 19.44-33.67 19.44z"/>
      <path d="m1625 473.3 44.89-25.92v-51.84l-44.89-25.92-44.89 25.92v51.84z"/>
      <path d="m1681 402 33.67 19.44-33.67 19.44z"/>
      <path d="m1546 350.2 44.89 25.92 44.89-25.92v-51.84l-44.89-25.92-44.89 25.92z"/>
      <path d="m1502 324.3 33.67 19.44v-38.88z"/>
      <path d="m1490 317.8 33.67-19.44-33.67-19.44z"/>
      <path d="m1535 291.9-33.67-19.44 33.67-19.44z"/>
      <path d="m1546 285.4v-38.88l33.67 19.44z"/>
      <path d="m1603 253v-38.88l33.67 19.44z"/>
      <path d="m1647 240 33.67-19.44-33.67-19.44z"/>
      <path d="m1322 427.9 33.67-19.44-33.67-19.44z"/>
      <path d="m1760 188.2 33.67-19.44v38.88z"/>
      <path d="m1805 175.2 33.67 19.44-33.67 19.44z"/>
      <path d="m1816 220.6 33.67-19.44v38.88z"/>
      <path d="m1861 272.4 33.67 19.44-33.67 19.44z"/>
      <path d="m1861 324.3 33.67-19.44v38.88z"/>
      <path d="m1906 298.3 33.67 19.44-33.67 19.44z"/>
      <path d="m1906 350.2 33.67-19.44v38.88z"/>
      <path d="m1805 408.5 33.67 19.44v-38.88z"/>
      <path d="m1906 415 33.67 19.44v-38.88z"/>
      <path d="m1951 402v38.88l33.67-19.44z"/>
      <path d="m2040 466.8 33.67 19.44v-38.88z"/>
      <path d="m2085 440.9v51.84l44.89 25.92 44.89-25.92v-51.84l-44.89-25.92z"/>
      <path d="m2141 525.1 33.67 19.44v-38.88z"/>
      <path d="m2186 499.2v38.88l33.67-19.44z"/>
      <path d="m2197 427.9 33.67 19.44v-38.88z"/>
      <path d="m2242 427.9v38.88l33.67-19.44z"/>
      <path d="m2186 421.5 33.67-19.44-33.67-19.44z"/>
      <path d="m2164 382.6 33.67-19.44-33.67-19.44z"/>
      <path d="m2164 291.9 33.67 19.44-33.67 19.44z"/>
      <path d="m2175 285.4 33.67 19.44v-38.88z"/>
      <path d="m2164 278.9 33.67-19.44-33.67-19.44z"/>
      <path d="m2209 369.6v-51.84l44.89-25.92v51.84z"/>
      <path d="m2242 363.1 44.89-25.92 44.89 25.92v51.84l-44.89 25.92-44.89-25.92z"/>
      <path d="m1861 259.5 44.89 25.92 44.89-25.92v-51.84l-44.89-25.92-44.89 25.92z"/>
      <path d="m2007 227.1v-38.88l-33.67 19.44z"/>
      <path d="m2052 447.4 101-58.32v-116.6l-101-58.32-101 58.32v116.6z"/>
      <path d="m1748 427.9 101-58.32v-116.6l-101-58.32-101 58.32v116.6z"/>
      <path d="m1468 551.1 101-58.32v-116.6l-101-58.32-101 58.32v116.6z"/>
      <path d="m1154 706.6 33.67 19.44-33.67 19.44z"/>
      <path d="m1210 803.8 33.67 19.44v-38.88z"/>
      <path d="m1255 790.8 33.67 19.44-33.67 19.44z"/>
      <path d="m1356 784.4 33.67 19.44v-38.88z"/>
      <path d="m1243 836.2 33.67 19.44-33.67 19.44z"/>
      <path d="m1142 933.4 33.67-19.44-33.67-19.44z"/>
      <path d="m1165 972.3-33.67-19.44 33.67-19.44z"/>
      <path d="m1344 894.5 44.89-25.92v-51.84l-44.89-25.92-44.89 25.92v51.84z"/>
      <path d="m1187 907.5 44.89-25.92v-51.84l-44.89-25.92-44.89 25.92v51.84z"/>
      <path d="m1300 803.8 101-58.32v-116.6l-101-58.32-101 58.32v116.6z"/>
      <path d="m1277 1102 101-58.32v-116.6l-101-58.32-101 58.32v116.6z"/>
      <path d="m1187 1115 44.89-25.92 44.89 25.92v51.84l-44.89 25.92-44.89-25.92z"/>
      <path d="m1288 1160v-38.88l33.67 19.44z"/>
      <path d="m1322 1128-33.67-19.44 33.67-19.44z"/>
      <path d="m1356 1121v-38.88l33.67 19.44z"/>
      <path d="m1356 1069 33.67 19.44v-38.88z"/>
      <path d="m1401 1095 33.67-19.44-33.67-19.44z"/>
      <path d="m1401 1108 33.67 19.44v-38.88z"/>
      <path d="m1232 1257v-51.84l44.89-25.92v51.84z"/>
      <path d="m1243 1264 33.67-19.44v38.88z"/>
      <path d="m1389 1115 101 58.32v116.6l-101 58.32-101-58.32v-116.6z"/>
      <path d="m1502 1193 33.67 19.44-33.67 19.44z"/>
      <path d="m1513 1238 33.67-19.44v38.88z"/>
      <path d="m1558 1316 33.67-19.44-33.67-19.44z"/>
      <path d="m1502 1348 33.67-19.44-33.67-19.44z"/>
      <path d="m1389 1413-44.89-25.92v-51.84l44.89 25.92z"/>
      <path d="m1445 1432 44.89-25.92v-51.84l-44.89-25.92-44.89 25.92v51.84z"/>
      <path d="m1490 1458-33.67-19.44 33.67-19.44z"/>
      <path d="m1457 1491 33.67-19.44-33.67-19.44z"/>
      <path d="m1603 1536-101-58.32v-116.6l101-58.32 101 58.32v116.6z"/>
      <path d="m1715 1471 33.67-19.44-33.67-19.44z"/>
      <path d="m1771 1491-33.67-19.44 33.67-19.44z"/>
      <path d="m1715 1406 33.67-19.44-33.67-19.44z"/>
      <path d="m1726 1361-33.67-19.44 33.67-19.44z"/>
      <path d="m1737 1368 33.67-19.44v38.88z"/>
      <path d="m1827 1381-33.67-19.44 33.67-19.44z"/>
      <path d="m1883 1361-101 58.32v116.6l101 58.32 101-58.32v-116.6z"/>
      <path d="m1962 1393-33.67-19.44 33.67-19.44z"/>
      <path d="m1973 1400v-51.84l44.89-25.92 44.89 25.92v51.84l-44.89 25.92z"/>
      <path d="m1995 1465 33.67-19.44-33.67-19.44z"/>
      <path d="m1827 1614v-38.88l-33.67 19.44z"/>
      <path d="m1782 1588 33.67-19.44-33.67-19.44z"/>
      <path d="m1625 1575 33.67-19.44-33.67-19.44z"/>
      <path d="m1726 1581 44.89-25.92v-51.84l-44.89-25.92-44.89 25.92v51.84z"/>
      <path d="m1951 1568 33.67 19.44v-38.88z"/>
      <path d="m1995 1555 44.89 25.92 44.89-25.92v-51.84l-44.89-25.92-44.89 25.92z"/>
      <path d="m2096 1562 33.67-19.44-33.67-19.44z"/>
      <path d="m2096 1497 33.67-19.44-33.67-19.44z"/>
      <path d="m2085 1491-33.67-19.44 33.67-19.44z"/>
      <path d="m2175 1491-101-58.32v-116.6l101-58.32 101 58.32v116.6z"/>
      <path d="m2287 1452 33.67-19.44-33.67-19.44z"/>
      <path d="m2332 1426-44.89-25.92v-51.84l44.89-25.92 44.89 25.92v51.84z"/>
      <path d="m2399 1348v-38.88l-33.67 19.44z"/>
      <path d="m2355 1322-33.67-19.44 33.67-19.44z"/>
      <path d="m2186 1251-33.67-19.44 33.67-19.44z"/>
      <path d="m2197 1244v-38.88l33.67 19.44z"/>
      <path d="m2287 1309 44.89-25.92v-51.84l-44.89-25.92-44.89 25.92v51.84z"/>
      <path d="m2242 1219 44.89-25.92-44.89-25.92-44.89 25.92z"/>
      <path d="m2343 1277 33.67-19.44-33.67-19.44z"/>
      <path d="m2388 1277 44.89 25.92 44.89-25.92-44.89-25.92z"/>
      <path d="m2478 1329-33.67-19.44 33.67-19.44z"/>
      <path d="m2489 1322v-38.88l33.67 19.44z"/>
      <path d="m2500 1329 33.67-19.44v38.88z"/>
      <path d="m2646 1478 44.89-25.92-44.89-25.92-44.89 25.92z"/>
      <path d="m2691 1439-33.67-19.44 33.67-19.44z"/>
      <path d="m2545 1406 33.67-19.44-33.67-19.44z"/>
      <path d="m2590 1381-44.89-25.92v-51.84l44.89 25.92z"/>
      <path d="m2601 1387v-51.84l44.89-25.92 44.89 25.92v51.84l-44.89 25.92z"/>
      <path d="m2601 1322 44.89-25.92v-51.84l-44.89 25.92z"/>
      <path d="m2590 1316-33.67-19.44 33.67-19.44z"/>
      <path d="m2691 1257-44.89-25.92v-51.84l44.89 25.92z"/>
      <path d="m2590 1212-44.89-25.92 44.89-25.92 44.89 25.92z"/>
      <path d="m2579 1270v-51.84l-44.89-25.92-44.89 25.92v51.84l44.89 25.92z"/>
      <path d="m2478 1264-33.67-19.44 33.67-19.44z"/>
      <path d="m2399 1257 44.89-25.92v-51.84l-44.89-25.92-44.89 25.92v51.84z"/>
      <path d="m2343 1225v-51.84l-44.89-25.92v51.84z"/>
      <path d="m2242 1154 33.67-19.44-33.67-19.44z"/>
      <path d="m2355 1167 33.67-19.44-33.67-19.44z"/>
      <path d="m2287 1128 33.67-19.44-33.67-19.44z"/>
      <path d="m2332 1102-33.67-19.44 33.67-19.44z"/>
      <path d="m2343 1108 33.67-19.44-33.67-19.44z"/>
      <path d="m2231 1095 33.67-19.44-33.67-19.44z"/>
      <path d="m2287 1076 44.89-25.92v-51.84l-44.89-25.92-44.89 25.92v51.84z"/>
      <path d="m2399 1011 33.67-19.44-33.67-19.44z"/>
      <path d="m2444 985.2v-51.84l-44.89-25.92v51.84z"/>
      <path d="m2411 901 33.67-19.44v38.88z"/>
      <path d="m2298 914 44.89-25.92 44.89 25.92v51.84l-44.89 25.92-44.89-25.92z"/>
      <path d="m2242 933.4 44.89-25.92v51.84l-44.89 25.92z"/>
      <path d="m2197 972.3 33.67-19.44v38.88z"/>
      <path d="m2141 1005 44.89-25.92 44.89 25.92-44.89 25.92z"/>
      <path d="m2096 914 44.89-25.92 44.89 25.92v51.84l-44.89 25.92-44.89-25.92z"/>
      <path d="m2242 881.6 33.67 19.44-33.67 19.44z"/>
      <path d="m2456 888 33.67 19.44-33.67 19.44z"/>
      <path d="m2467 933.4 33.67-19.44v38.88z"/>
      <path d="m2512 907.5 44.89-25.92 44.89 25.92v51.84l-44.89 25.92-44.89-25.92z"/>
      <path d="m2568 991.7 44.89-25.92 44.89 25.92-44.89 25.92z"/>
      <path d="m2691 998.2-33.67-19.44 33.67-19.44z"/>
      <path d="m2646 972.3 33.67-19.44-33.67-19.44z"/>
      <path d="m2646 920.4 33.67-19.44v38.88z"/>
      <path d="m2658 1044 33.67-19.44v38.88z"/>
      <path d="m2613 1031 33.67 19.44-33.67 19.44z"/>
      <path d="m2646 1167 33.67-19.44-33.67-19.44z"/>
      <path d="m2691 1141-33.67-19.44 33.67-19.44z"/>
      <path d="m2500 1199 101-58.32v-116.6l-101-58.32-101 58.32v116.6z"/>
    </g>
  </g>
  <g id="icons">
    <image x="1909" y="185.3" width="285.1" height="285.1" image-rendering="optimizeQuality" preserveAspectRatio="none" href="gpn11.png"/>
    <image x="1604" y="168.8" width="285.1" height="285.1" image-rendering="optimizeQuality" preserveAspectRatio="none" href="gpn12.png"/>
    <image x="1325" y="293.3" width="285.1" height="285.1" image-rendering="optimizeQuality" preserveAspectRatio="none" href="gpn13.png"/>
    <image x="1155" y="544.5" width="285.1" height="285.1" image-rendering="optimizeQuality" preserveAspectRatio="none" href="gpn14.png"/>
    <image x="1136" y="837.7" width="285.1" height="285.1" image-rendering="optimizeQuality" preserveAspectRatio="none" href="gpn15.png"/>
    <image x="1248" y="1092" width="285.1" height="285.1" image-rendering="optimizeQuality" preserveAspectRatio="none" href="gpn16.png"/>
    <image x="1465" y="1277" width="285.1" height="285.1" image-rendering="optimizeQuality" preserveAspectRatio="none" href="gpn17.png"/>
    <image x="1739" y="1338" width="285.1" height="285.1" image-rendering="optimizeQuality" preserveAspectRatio="none" href="gpn18.png"/>
    <image x="2034" y="1231" width="285.1" height="285.1" image-rendering="optimizeQuality" preserveAspectRatio="none" href="gpn19.png"/>
    <image x="2363" y="939.6" width="285.1" height="285.1" image-rendering="optimizeQuality" preserveAspectRatio="none" href="gpn20.png"/>
  </g>
  <g id="text">
    <path fill="#fff" d="m2213 1925h-29.11l-59.37-59.94h62.8v-59.94h-74.21v119.9h-22.83v-100.2l19.98-19.69h-19.98v-19.98h99.9q7.992 0 13.99 5.994 5.994 5.994 5.994 13.99v54.23q0 22.83-19.98 22.83h-17.13v3.14zm135.6 0h-79.92q-8.278 0-14.27-5.708-5.709-5.994-5.709-14.27v-59.94q0-8.277 5.709-13.99 5.994-5.994 14.27-5.994h59.94q8.278 0 13.99 5.994 5.994 5.709 5.994 13.99v19.98l-19.98 19.98h-57.09l17.13-17.13h39.96v-25.69h-59.94v65.65h79.92zm112.7-99.9-17.41 17.13h-48.24v22.83h39.96q8.278 0 13.99 5.994 5.994 5.709 5.994 13.99v19.98q0 8.277-5.994 14.27-5.709 5.708-13.99 5.708h-59.94v-17.13h59.94v-25.69h-39.96q-8.278 0-14.27-5.709-5.709-5.994-5.709-14.27v-17.13q0-8.277 5.709-13.99 5.994-5.994 14.27-5.994zm129.9 99.9h-79.92q-8.278 0-14.27-5.708-5.709-5.994-5.709-14.27v-59.94q0-8.277 5.709-13.99 5.994-5.994 14.27-5.994h59.94q8.278 0 13.99 5.994 5.994 5.709 5.994 13.99v19.98l-19.98 19.98h-57.09l17.13-17.13h39.96v-25.69h-59.94v65.65h79.92zm97.05 0h-39.96q-8.278 0-14.27-5.708-5.709-5.994-5.709-14.27v-62.79h-28.54l17.13-17.13h11.42v-19.98l19.98-19.98v39.96h39.96v17.13h-39.96v65.65h39.96z"/>
    <path fill="#ff702b" d="m1265 1885h-77.07v39.96h-22.83v-99.9l19.98-19.98h-19.98v-19.98h99.9v19.98h-77.07v77.07l17.13-17.13h59.94zm129.9 39.96h-19.98v-14.56l-17.13 14.56h-42.82q-8.278 0-14.27-5.708-5.709-5.994-5.709-14.27v-19.98q0-8.278 5.709-13.99 5.994-5.994 14.27-5.994h57.09l-17.13 16.84h-39.96v25.97h59.94v-65.65h-79.92l17.13-17.13h62.8q8.278 0 13.99 5.994 5.994 5.709 5.994 13.99zm125.6-99.9-17.41 17.13h-48.24v65.65h59.94v17.13h-59.94q-8.278 0-14.27-5.708-5.709-5.994-5.709-14.27v-59.94q0-8.277 5.709-13.99 5.994-5.994 14.27-5.994zm85.63 99.9h-39.96q-8.278 0-14.27-5.708-5.709-5.994-5.709-14.27v-62.79h-28.54l17.13-17.13h11.42v-19.98l19.98-19.98v39.96h39.96v17.13h-39.96v65.65h39.96zm128.4-19.98q0 8.277-5.994 14.27-5.709 5.708-13.99 5.708h-59.94q-8.278 0-14.27-5.708-5.709-5.994-5.709-14.27v-59.94q0-8.277 5.709-13.99 5.994-5.994 14.27-5.994h59.94q8.278 0 13.99 5.994 5.994 5.709 5.994 13.99zm-19.98 2.854v-65.65h-59.94v65.65zm139.9-42.81h-19.98v-22.83h-39.96v82.77h-19.98v-99.9h19.98v14.27l14.27-14.27h25.69q8.278 0 13.99 5.994 5.994 5.709 5.994 13.99zm131.3 99.9q0 8.277-5.994 13.99-5.709 5.994-13.99 5.994h-82.78l17.13-17.13h65.65v-57.09l-14.27 14.27h-45.67q-8.278 0-14.27-5.708-5.709-5.994-5.709-14.27v-79.92h19.98v82.77h59.94v-82.77h19.98z"/>
  </g>
</svg>
