<svg version="1.1" viewBox="0 0 1920 1080" xmlns="http://www.w3.org/2000/svg">
  <rect fill="#141414" width="1920" height="1080"/>
  <path fill="#faf5f5" d="m320 457.2m322.5-189.4c11.05 0 20.95 2.048 29.68 6.146 8.735 3.919 15.6 9.886 20.59 17.9 5.169 8.016 7.754 17.9 7.754 29.66v76.68c0 13.89-2.585 25.47-7.754 34.74-4.991 9.085-11.76 15.85-20.32 20.31-8.556 4.275-18.27 6.413-29.14 6.413h-55.62c-10.7 0-20.32-1.959-28.88-5.878-8.556-3.919-15.33-9.886-20.32-17.9-4.991-8.016-7.487-17.81-7.487-29.39v-10.95h8.022v11.22c0 14.96 4.546 26.27 13.64 33.93 9.269 7.66 21.03 11.49 35.29 11.49h55.35c9.269 0 17.56-1.781 24.87-5.344 7.487-3.741 13.46-9.619 17.91-17.63 4.456-8.016 6.685-18.17 6.685-30.46v-45.69h-4.546l4.813-8.55c-.1784 5.344-2.585 10.6-7.219 15.76-4.456 5.166-10.61 9.352-18.45 12.56-7.843 3.028-16.49 4.542-25.94 4.542h-55.62c-10.87 0-20.59-1.87-29.14-5.611-8.556-3.919-15.42-9.797-20.59-17.63-5.169-7.838-7.754-17.46-7.754-28.86v-5.077c0-11.22 2.585-20.75 7.754-28.59 5.169-8.016 12.12-13.98 20.86-17.9 8.735-3.919 18.63-5.878 29.68-5.878zm-55.88 7.749c-14.44 0-26.47 3.741-36.1 11.22-9.448 7.481-14.17 18.61-14.17 33.4v5.077c0 14.78 4.724 25.92 14.17 33.4 9.626 7.303 21.57 10.95 35.83 10.95h55.88c14.8 0 26.83-3.652 36.1-10.95 9.448-7.481 14.17-18.61 14.17-33.4v-5.077c0-14.78-4.724-25.92-14.17-33.4-9.269-7.481-21.3-11.22-36.1-11.22zm-203.7 183.3c-10.16 0-19.52-1.781-28.08-5.344-8.556-3.563-15.51-9.085-20.86-16.57-5.169-7.481-7.754-16.66-7.754-27.52v-13.89h8.022v13.89c0 14.07 4.724 24.58 14.17 31.53 9.626 6.769 21.21 10.15 34.76 10.15h50.8c8.2 0 16.04-1.425 23.53-4.275 7.665-3.028 13.81-7.57 18.45-13.63 4.813-6.235 7.219-13.89 7.219-22.98v-4.81c0-13.89-4.635-24.23-13.9-30.99-9.091-6.769-22.01-10.15-38.77-10.15h-59.09v-7.749l94.92-77.22v-1.336h-134.8v-7.749h148.9v8.016l-94.92 76.95v4.008l-6.685-2.405h52.41c18.9 0 33.6 4.186 44.12 12.56 10.52 8.194 15.78 20.22 15.78 36.07v4.542c0 10.51-2.674 19.51-8.022 26.99-5.169 7.303-12.12 12.83-20.86 16.57-8.735 3.563-18.18 5.344-28.34 5.344zm654 1.336c-14.08 0-26.38-2.048-36.9-6.145-10.52-4.097-18.72-10.42-24.6-18.97-5.882-8.55-8.824-19.33-8.824-32.33v-6.145h59.89v6.145c0 2.85.4457 5.077 1.337 6.68.8913 1.425 2.317 2.494 4.278 3.206 1.961.5344 4.635.8016 8.022.8016h47.59c3.387 0 6.061-.3563 8.022-1.069 2.139-.8906 3.654-2.138 4.546-3.741 1.07-1.781 1.604-3.83 1.604-6.145v-4.008c0-3.563-1.248-6.324-3.743-8.283-2.496-1.959-5.882-2.939-10.16-2.939h-87.17v-38.48l50-24.58v-4.275h-75.4v-49.7h174.6v48.63l-54.81 27.52v10.95l-52.94-6.947h64.17c17.29 0 30.84 4.275 40.64 12.83 9.982 8.55 14.97 20.75 14.97 36.61v3.741c0 12.29-2.763 22.62-8.289 30.99-5.526 8.372-13.55 14.78-24.06 19.24-10.52 4.275-23.35 6.413-38.5 6.413zm-223.8 0c-27.81 0-49.2-6.947-64.17-20.84-14.8-14.07-22.19-35.89-22.19-65.46v-19.77c0-29.75 7.398-51.66 22.19-65.73 14.97-14.07 36.36-21.11 64.17-21.11h64.44c17.11 0 31.73 2.85 43.85 8.55 12.12 5.7 21.48 14.61 28.08 26.72 6.595 12.11 9.893 27.61 9.893 46.49v6.68h-62.57v-6.68c0-7.303-.7131-13-2.139-17.1-1.426-4.097-3.743-7.036-6.952-8.817-3.03-1.959-7.219-2.939-12.57-2.939h-58.29c-8.556 0-14.88 2.672-18.98 8.016-3.922 5.166-5.882 13.72-5.882 25.65v20.57c0 11.58 1.961 19.95 5.882 25.12 4.1 5.166 10.43 7.749 18.98 7.749h58.29c5.348 0 9.537-.8907 12.57-2.672 3.209-1.781 5.526-4.72 6.952-8.817 1.426-4.275 2.139-9.975 2.139-17.1v-5.344h62.57v5.077c0 18.88-3.298 34.38-9.893 46.49-6.596 12.11-15.95 21.02-28.08 26.72-12.12 5.7-26.74 8.55-43.85 8.55z"/>
  <path fill="#faf5f5" d="m1327 260h173.4c55.03 0 99.65 44.64 99.65 99.7 0 55.07-44.62 99.7-99.65 99.7h-173.4c-55.03 0-99.65-44.64-99.65-99.7 0-55.07 44.62-99.7 99.65-99.7z"/>
  <path fill="#141414" d="m1327 276.8c-45.79 0-82.9 37.14-82.9 82.95 0 45.81 37.12 82.95 82.9 82.95s82.9-37.14 82.9-82.95c0-45.81-37.12-82.95-82.9-82.95z"/>
  <path fill="#faf5f5" d="m320 807.6m7.259-282.1h58.88c11.02 0 19.76 2.284 26.21 6.851 6.452 4.567 11.16 12.49 14.11 23.78 3.226 11.01 4.839 26.6 4.839 46.75v79.39c0 20.15-1.613 35.87-4.839 47.15-2.957 11.01-7.662 18.81-14.11 23.37-6.452 4.567-15.19 6.851-26.21 6.851h-20.97v-41.51h13.71c2.42 0 4.167-1.209 5.242-3.627 1.075-2.687 1.613-7.388 1.613-14.1v-115.7c0-6.716-.5377-11.28-1.613-13.7-1.075-2.687-2.823-4.03-5.242-4.03h-7.259v240.6h-44.36zm109.3 282.1m56.05 2.418c-12.1 0-21.78-2.015-29.04-6.045-6.99-4.03-12.37-11.01-16.13-20.96-3.495-9.94-5.242-23.91-5.242-41.91v-149.1c0-18 1.748-31.97 5.242-41.91 3.764-9.94 9.141-16.93 16.13-20.96 7.259-4.03 16.94-6.045 29.04-6.045h6.452c11.83 0 21.37 2.015 28.63 6.045 7.259 4.03 12.64 11.01 16.13 20.96 3.764 9.94 5.646 23.91 5.646 41.91v149.1c0 18-1.882 31.97-5.646 41.91-3.495 9.94-8.872 16.93-16.13 20.96-7.259 4.03-16.8 6.045-28.63 6.045zm4.033-41.51c2.688 0 4.57-1.075 5.646-3.224 1.075-2.149 1.613-6.313 1.613-12.49v-172.5c0-6.179-.5377-10.34-1.613-12.49-1.075-2.149-2.957-3.224-5.646-3.224h-2.016c-2.42 0-4.167 1.075-5.242 3.224s-1.613 6.313-1.613 12.49v172.5c0 6.179.5377 10.34 1.613 12.49 1.075 2.149 2.823 3.224 5.242 3.224zm57.66 39.09m2.016-282.1h43.55l4.033 210.8h3.629l6.856-210.8h41.13l7.259 210.8h3.629l4.033-210.8h43.55l-12.9 282.1h-58.47l-5.646-129.8h-3.629l-5.242 129.8h-58.88zm159.8 282.1m22.99-145.1h55.25v41.91h-55.25zm60.89-95.1h-32.26v198.3h32.26v41.91h-76.62v-282.1h76.62zm3.941 240.2m58.47-140.2c2.42 0 4.167-1.075 5.242-3.224 1.344-2.418 2.016-6.582 2.016-12.49v-68.1c0-6.448-.5377-10.75-1.613-12.9-1.075-2.418-2.957-3.627-5.646-3.627h-6.856v240.6h-44.36v-282.1h61.3c15.32 0 26.21 4.567 32.66 13.7 6.452 8.866 9.678 24.18 9.678 45.94v53.6c0 10.75-1.613 19.48-4.839 26.19-3.226 6.716-8.2 11.69-14.92 14.91v2.821c6.183 4.03 10.89 9.806 14.11 17.33 3.226 7.254 4.839 16.66 4.839 28.21v31.43c0 2.418.4032 4.164 1.21 5.239.8066 1.075 2.016 1.612 3.629 1.612 1.075-.2686 2.151-.403 3.226-.403v41.51c-1.882.5373-4.301.9403-7.259 1.209-2.957.5373-5.915.806-8.872.806-9.947 0-17.47-1.478-22.58-4.433-5.108-2.955-8.738-7.657-10.89-14.1-1.882-6.716-2.823-16.25-2.823-28.61v-51.98c0-4.567-.5377-7.657-1.613-9.269-1.075-1.612-2.957-2.418-5.646-2.418h-13.31v-31.43zm100.6 140.2m56.05 2.418c-12.1 0-21.78-2.015-29.04-6.045-6.99-4.03-12.37-11.01-16.13-20.96-3.495-9.94-5.242-23.91-5.242-41.91v-149.1c0-18 1.748-31.97 5.242-41.91 3.764-9.94 9.141-16.93 16.13-20.96 7.259-4.03 16.94-6.045 29.04-6.045h6.452c11.83 0 21.24 2.015 28.23 6.045 7.259 4.03 12.64 11.01 16.13 20.96 3.764 9.94 5.646 23.91 5.646 41.91v70.12h-45.17v-81.81c0-4.03-.2688-7.119-.8065-9.269-.5377-2.418-1.344-4.03-2.42-4.836-.8066-1.075-2.151-1.612-4.033-1.612h-2.016c-2.42 0-4.167 1.075-5.242 3.224s-1.613 6.313-1.613 12.49v172.5c0 6.179.5376 10.34 1.613 12.49 1.075 2.149 2.823 3.224 5.242 3.224h2.016c1.882 0 3.226-.403 4.033-1.209 1.075-1.075 1.882-2.687 2.42-4.836.5377-2.418.8065-5.642.8065-9.672v-73.75h45.17v62.06c0 18-1.882 31.97-5.646 41.91-3.495 9.94-8.872 16.93-16.13 20.96-6.99 4.03-16.4 6.045-28.23 6.045zm59.33-2.418m2.016-282.1h45.97l4.436 147.5h4.033l5.646-147.5h44.76l-18.95 200.7h-66.94zm30.25 159.6h44.36v122.5h-44.36zm73.68 122.5m56.05 2.418c-12.1 0-21.78-2.015-29.04-6.045-6.99-4.03-12.37-11.01-16.13-20.96-3.495-9.94-5.243-23.91-5.243-41.91v-149.1c0-18 1.748-31.97 5.243-41.91 3.764-9.94 9.141-16.93 16.13-20.96 7.259-4.03 16.94-6.045 29.04-6.045h6.452c11.83 0 21.24 2.015 28.23 6.045 7.259 4.03 12.64 11.01 16.13 20.96 3.764 9.94 5.646 23.91 5.646 41.91v70.12h-45.17v-81.81c0-4.03-.2688-7.119-.8065-9.269-.5376-2.418-1.344-4.03-2.42-4.836-.8065-1.075-2.151-1.612-4.033-1.612h-2.016c-2.42 0-4.167 1.075-5.243 3.224-1.075 2.149-1.613 6.313-1.613 12.49v172.5c0 6.179.5377 10.34 1.613 12.49 1.076 2.149 2.823 3.224 5.243 3.224h2.016c1.882 0 3.226-.403 4.033-1.209 1.075-1.075 1.882-2.687 2.42-4.836.5377-2.418.8065-5.642.8065-9.672v-73.75h45.17v62.06c0 18-1.882 31.97-5.646 41.91-3.495 9.94-8.872 16.93-16.13 20.96-6.99 4.03-16.4 6.045-28.23 6.045zm60.91-2.418m7.259-282.1h44.36v240.2h32.26v41.91h-76.62zm76.62 282.1m22.99-145.1h55.25v41.91h-55.25zm60.89-95.1h-32.26v198.3h32.26v41.91h-76.62v-282.1h76.62zm1.972 240.2m55.65 2.418c-12.64 0-22.58-1.746-29.84-5.239-6.99-3.761-12.23-10.21-15.73-19.34-3.495-9.134-5.242-22.16-5.242-39.09v-47.15h45.17v58.43c0 2.955.1343 5.507.4033 7.657.5376 1.881 1.344 3.358 2.42 4.433 1.075.806 2.42 1.209 4.033 1.209h2.42c2.957 0 4.839-.806 5.646-2.418 1.075-1.881 1.613-5.104 1.613-9.672v-44.73c0-5.104-1.076-9.403-3.226-12.9-2.151-3.761-4.839-6.851-8.065-9.269-2.957-2.687-7.259-5.642-12.9-8.866-7.796-4.567-14.25-9-19.36-13.3-4.839-4.298-9.006-10.34-12.5-18.13-3.495-8.06-5.242-18.13-5.242-30.22v-32.64c0-17.19 1.747-30.49 5.242-39.9 3.495-9.672 8.872-16.39 16.13-20.15 7.528-3.761 17.48-5.642 29.84-5.642h4.032c12.37 0 22.18 1.881 29.44 5.642 7.259 3.492 12.64 9.94 16.13 19.34 3.495 9.134 5.242 22.03 5.242 38.69v46.34h-45.17v-58.43c0-3.224-.269-5.642-.8067-7.254-.2688-1.881-.941-3.224-2.016-4.03-1.075-.806-2.42-1.209-4.033-1.209h-1.21c-2.688 0-4.57.9403-5.646 2.821-1.075 1.612-1.613 4.433-1.613 8.463v45.13c0 5.373 1.075 9.94 3.226 13.7 2.151 3.493 4.705 6.448 7.662 8.866 3.226 2.149 7.662 4.97 13.31 8.463 7.796 4.567 14.11 9 18.95 13.3 5.108 4.03 9.41 9.94 12.9 17.73 3.495 7.791 5.242 17.87 5.242 30.22v33.04c0 17.73-1.748 31.43-5.242 41.1-3.495 9.403-8.872 15.98-16.13 19.75-6.99 3.493-16.8 5.239-29.44 5.239z"/>
</svg>
