<svg viewBox="0 0 3840 2160" version="1.1" xmlns="http://www.w3.org/2000/svg" image-rendering="optimizeQuality">
  <defs>
    <radialGradient id="overlayLeft" cx="0" cy="1" r="1">
      <stop offset="0" stop-color="#fff" stop-opacity="0.5"/>
      <stop offset="1" stop-color="#fff" stop-opacity="0"/>
    </radialGradient>
    <radialGradient id="overlayRight" cx="1" cy="1" r="2">
      <stop offset="0" stop-color="#fff" stop-opacity="0.5"/>
      <stop offset="1" stop-color="#fff" stop-opacity="0"/>
    </radialGradient>
  </defs>
  <image width="3840" height="2160" href="background-3840.png" />
  <rect fill="url(#overlayRight)" width="3840" height="2160"/>
  <rect fill="url(#overlayLeft)" width="2160" height="2160"/>
  <image width="3840" height="2160" opacity="0.25" href="noise-3840.png" style="mix-blend-mode:soft-light"/>
  <image width="3840" height="2160" href="render-3840.png"/>
  <path fill="#000000" d="m1856 1879c-16.89 0-29.79 4.618-38.68 13.85-8.895 9.232-13.34 22.47-13.34 39.7 0 17.18 4.595 30.56 13.78 40.15 9.24 9.532 22.31 14.3 39.2 14.3 11.13 0 20.67-2.459 28.62-7.374 8.002-4.966 14.06-12.51 18.19-22.64l-19.15-7.225c-5.167 13.3-14.38 19.96-27.65 19.96-9.99 0-17.64-3.177-22.96-9.532-5.266-6.355-7.897-15.57-7.897-27.64 0-11.86 2.56-20.88 7.68-27.04 5.167-6.157 12.72-9.232 22.66-9.232 6.509 0 12.15 1.564 16.92 4.692 4.82 3.079 8.047 7.251 9.69 12.52l19.38-5.29c-3.13-9.585-8.572-16.83-16.32-21.75-7.747-4.966-17.79-7.449-30.11-7.449zm246.5 0c-10.48 0-18.78 2.558-24.89 7.672-6.062 5.114-9.69 12.54-10.88 22.27l21.09 1.191c.6956-4.816 2.212-8.415 4.547-10.8 2.385-2.433 5.812-3.65 10.28-3.65 9.195 0 13.78 4.568 13.78 13.7 0 3.724-1.491 7.522-4.472 11.4-2.932 3.873-8.07 8.79-15.43 14.74-7.65 6.207-14.01 12.16-19.08 17.88-5.018 5.71-8.895 11.56-11.62 17.58v14.53h73.48v-17.2h-48.74c1.391-3.227 3.503-6.255 6.335-9.09 2.881-2.83 6.063-5.636 9.54-8.414 3.478-2.78 7.055-5.637 10.73-8.565 3.727-2.929 7.105-6.057 10.13-9.382 3.031-3.376 5.515-7.051 7.453-11.02 1.938-3.972 2.907-8.415 2.907-13.33 0-9.337-3.031-16.58-9.09-21.75-6.061-5.164-14.76-7.747-26.08-7.747zm85.65 0c-8.647 0-15.6 1.888-20.86 5.662-5.266 3.774-9.217 9.63-11.85 17.58-2.633 7.942-3.95 18.19-3.95 30.76 0 36 12.02 54 36.07 54 12.17 0 21.29-4.568 27.35-13.7 6.112-9.135 9.165-22.57 9.165-40.3 0-18.02-2.882-31.53-8.647-40.51-5.764-8.985-14.86-13.48-27.28-13.48zm84.15 0c-10.48 0-18.78 2.558-24.89 7.672-6.061 5.114-9.69 12.54-10.88 22.27l21.09 1.191c.6955-4.816 2.212-8.415 4.546-10.8 2.385-2.433 5.814-3.65 10.28-3.65 9.195 0 13.78 4.568 13.78 13.7 0 3.724-1.491 7.522-4.472 11.4-2.932 3.873-8.077 8.79-15.43 14.74-7.65 6.207-14.01 12.16-19.08 17.88-5.018 5.71-8.895 11.56-11.62 17.58v14.53h73.48v-17.2h-48.74c1.391-3.227 3.503-6.255 6.335-9.09 2.881-2.83 6.061-5.636 9.54-8.414 3.478-2.78 7.055-5.637 10.73-8.565 3.727-2.929 7.105-6.057 10.13-9.382 3.031-3.376 5.516-7.051 7.453-11.02 1.938-3.972 2.907-8.415 2.907-13.33 0-9.337-3.031-16.58-9.09-21.75-6.061-5.164-14.76-7.747-26.08-7.747zm-828.7 1.564v104.9h19.53v-63.6c0-3.724-.2978-11.35-.8939-22.87l7.972 27.93 18.93 58.54h15.65l18.93-58.54c1.689-5.263 4.298-14.57 7.822-27.93-.4472 10.93-.6948 17.11-.7446 18.55v67.92h19.53v-104.9h-29.29l-19.3 61.59-4.696 16.83-3.577-14.08-1.64-5.66-18.78-58.69zm127.1 0v104.9h21.99v-39.85h25.78l24.37 39.85h24.74l-28.39-44.09c7.105-1.688 12.74-5.188 16.92-10.5 4.174-5.362 6.26-11.71 6.26-19.06 0-10.08-3.403-17.8-10.21-23.17-6.807-5.412-16.47-8.115-28.99-8.115zm110.2 0v104.9h19.53v-63.6c0-3.724-.2994-11.35-.8955-22.87l7.972 27.93 18.93 58.54h15.65l18.93-58.54c1.689-5.263 4.298-14.57 7.822-27.93-.4472 10.93-.6949 17.11-.7446 18.55v67.92h19.53v-104.9h-29.29l-19.3 61.59-4.695 16.83-3.578-14.08-1.639-5.66-18.78-58.69zm237.4 0v104.9h42.48c10.03 0 18.93-2.135 26.68-6.405 7.8-4.27 13.81-10.42 18.04-18.47 4.273-8.092 6.41-17.55 6.41-28.38 0-16.63-4.844-29.39-14.53-38.28-9.69-8.94-23.38-13.41-41.07-13.41zm408.5 0-3.652 59.06h20.42c3.677-4.518 8.422-6.777 14.23-6.777 5.266 0 9.367 1.662 12.3 4.989 2.932 3.277 4.397 7.672 4.397 13.18 0 6.256-1.566 11.05-4.696 14.38-3.08 3.327-7.228 4.99-12.44 4.99-4.223 0-7.725-1.018-10.51-3.054-2.782-2.035-4.722-5.288-5.815-9.757l-20.94 1.712c1.49 8.985 5.391 15.86 11.7 20.63 6.36 4.717 14.8 7.077 25.34 7.077 12.07 0 21.56-3.277 28.47-9.832 6.956-6.603 10.43-15.46 10.43-26.59 0-10.67-3.007-19.12-9.022-25.33-5.962-6.207-13.93-9.307-23.92-9.307-7.605 0-13.93 2.236-19 6.704l1.715-26.52h44.12v-15.57zm-138.6 14.82c3.975 0 7.006 1.167 9.09 3.501 2.086 2.334 3.601 6.181 4.545 11.54.9443 5.362 1.416 12.88 1.416 22.57 0 9.284-.497 16.63-1.491 22.05-.9442 5.412-2.509 9.36-4.695 11.84-2.137 2.433-5.192 3.648-9.165 3.648-4.024 0-7.105-1.166-9.24-3.499-2.086-2.334-3.628-6.183-4.622-11.54-.9441-5.412-1.416-12.91-1.416-22.49 0-9.682.4483-17.18 1.342-22.49.9443-5.362 2.483-9.21 4.62-11.54 2.186-2.383 5.391-3.574 9.615-3.574zm-247.9 2.159h15.58c10.88 0 19.25 2.98 25.12 8.94 5.863 5.908 8.797 14.5 8.797 25.77 0 11.17-2.782 20.01-8.347 26.51-5.565 6.504-13.06 9.757-22.51 9.757h-18.63zm-347.6.075h28.17c12.91 0 19.38 5.04 19.38 15.12 0 5.015-1.59 8.91-4.77 11.69-3.18 2.781-7.852 4.17-14.01 4.17h-28.77z"/>
</svg>
