<svg version="1.1" viewBox="0 0 3840 2160" xmlns="http://www.w3.org/2000/svg">
  <rect x="929" y="381" width="1980" height="1400" fill="#fff" fill-opacity="0"/>
  <path d="m1252 841.6h-70.6l-.8467-2.328-137.2-381.3h68.96l104.4 305.5 104.4-305.5h68.96zm-65.64-7.056h60.68l133-369.5h-53.86l-104.8 306.7h-9.266l-104.8-306.7h-53.86z"/>
  <path d="m1614 846.8c-33.11 0-63.08-7.996-89.06-23.78-26.01-15.78-46.78-38.69-61.71-68.06-14.89-29.3-22.44-64.65-22.44-105.1s7.549-75.96 22.46-105.2c14.93-29.33 35.7-52.19 61.71-67.97s55.97-23.78 89.06-23.78 62.89 7.996 88.9 23.78c26.01 15.78 46.78 38.64 61.71 67.97 14.89 29.23 22.44 64.63 22.44 105.2s-7.55 75.99-22.44 105.2c-14.93 29.33-35.7 52.19-61.71 67.97-25.99 15.78-55.9 23.78-88.9 23.78zm0-386.9c-31.8 0-60.54 7.643-85.42 22.74-24.86 15.1-44.76 37.02-59.08 65.15-14.39 28.22-21.68 62.56-21.68 102s7.291 73.61 21.68 101.9c14.35 28.2 34.22 50.14 59.08 65.24 24.88 15.1 53.62 22.74 85.42 22.74s60.35-7.643 85.23-22.74c24.86-15.1 44.76-36.99 59.08-65.15 14.39-28.22 21.68-62.56 21.68-102s-7.291-73.78-21.68-102c-14.35-28.13-34.22-50.05-59.08-65.15-24.88-15.1-53.55-22.74-85.23-22.74zm0 335c-22.27 0-42.47-5.668-60-16.82-17.54-11.17-31.56-27.75-41.65-49.27-10.04-21.4-15.15-47.98-15.15-79s5.104-57.6 15.15-79c10.11-21.54 24.13-38.12 41.65-49.27 17.52-11.17 37.72-16.82 60-16.82 22.27 0 42.31 5.668 59.9 16.82 17.59 11.17 31.63 27.75 41.75 49.29 10.04 21.4 15.15 47.98 15.15 79s-5.104 57.6-15.15 79c-10.11 21.54-24.15 38.12-41.75 49.29-17.59 11.17-37.75 16.82-59.9 16.82zm0-283.1c-20.91 0-39.82 5.292-56.21 15.71-16.39 10.44-29.54 26.01-39.06 46.33-9.596 20.44-14.46 46.03-14.46 75.99s4.868 55.55 14.46 75.99c9.525 20.32 22.67 35.89 39.06 46.33 16.37 10.44 35.3 15.71 56.21 15.71s39.68-5.292 56.12-15.73c16.44-10.44 29.61-26.01 39.16-46.33 9.596-20.46 14.46-46.03 14.46-75.99s-4.868-55.55-14.46-75.99c-9.525-20.3-22.7-35.89-39.16-46.33-16.44-10.44-35.32-15.73-56.12-15.73z"/>
  <path d="m2121 841.6h-234.5v-383.6h63.88v327.6h170.6zm-227.4-7.056h220.4v-41.86h-170.6v-327.6h-49.77z"/>
  <path d="m2449 841.6h-234.5v-383.6h63.88v327.6h170.6zm-227.4-7.056h220.4v-41.86h-170.6v-327.6h-49.77z"/>
  <path d="m2787 841.6h-245.3v-383.6h243.1v55.97h-179.3v107.7h167v55.79h-167v108.2h181.5v55.97zm-238.3-7.056h231.2v-41.86h-181.5v-122.3h167v-41.67h-167v-121.8h179.3v-41.86h-229v369.5z"/>
  <path d="m1236 1274h-63.69v-327.6h-117.3v-55.97h298.5v55.97h-117.5v327.6zm-56.63-7.056h49.58v-327.6h117.5v-41.86h-284.4v41.86h117.3v327.6z"/>
  <path d="m1706 1274h-72.79l-76.51-142.5h-75.23v142.5h-63.88v-383.6h137.7c29.61 0 54.61 5.198 74.34 15.48 19.85 10.35 34.92 24.84 44.78 43.11 9.807 18.16 14.77 39.35 14.77 62.98 0 23.64-5.009 44.54-14.86 62.46-9.925 18.04-25.05 32.22-44.9 42.17-2.328 1.176-4.868 2.305-7.761 3.481l84.29 153.9zm-68.56-7.056h56.66l-82.46-150.6 3.81-1.435c4.327-1.623 7.785-3.104 10.84-4.633 18.56-9.313 32.64-22.53 41.89-39.28 9.29-16.86 13.99-36.74 13.99-59.05s-4.68-42.52-13.92-59.64c-9.172-17-23.24-30.53-41.82-40.19-18.72-9.737-42.64-14.68-71.1-14.68h-130.7v369.5h49.77v-142.5h80.74c0.7055 0 1.364 0 2.046-0.047l3.669-0.071 76.55 142.6zm-87.44-184.4h-75.61v-143.5h74.86c19.19 0 35.02 2.94 47.04 8.725 12.23 5.88 21.35 14.49 27.14 25.54 5.692 10.89 8.584 23.87 8.584 38.59s-2.869 27.38-8.514 37.89c-5.738 10.7-14.86 18.96-27.12 24.53-11.99 5.456-27.61 8.231-46.43 8.231zm-68.53-7.056h68.56c17.8 0 32.43-2.564 43.49-7.596 10.82-4.915 18.81-12.14 23.82-21.45 5.08-9.478 7.667-21.12 7.667-34.55s-2.611-25.45-7.785-35.32c-5.08-9.69-13.12-17.24-23.97-22.46-11.05-5.315-25.85-8.02-43.98-8.02h-67.8v129.4z"/>
  <path d="m2076 1274h-67.83l-34.43-99.65h-142.1l-34.48 99.65h-67.83l138.1-383.6h70.6l.8467 2.328 137.2 381.3zm-62.82-7.056h52.78l-133-369.5h-60.68l-133 369.5h52.78l34.48-99.65h152.1l34.43 99.65zm-48.52-140.4h-124l58.04-167.8h7.973zm-114.1-7.056h104.2l-52.02-150.6-52.12 150.6z"/>
  <path d="m2440 1274h-57.6l-189.5-273.4v273.4h-63.88v-383.6h57.95l1.058 1.529 188.6 272.3v-273.8h63.31v383.6zm-53.88-7.056h46.85v-369.5h-49.2v276.5h-8.866l-1.058-1.529-190.5-275h-47.2v369.5h49.77v-276.2h8.866l191.4 276.2z"/>
  <path d="m2652 1281c-28.55 0-53.65-4.61-74.58-13.71-21.1-9.172-37.86-22.41-49.84-39.35-11.97-16.96-18.7-37.35-19.94-60.58l-0.1881-3.716h63.97l0.2587 3.246c1.035 12.77 5.245 23.52 12.49 31.89 7.338 8.514 16.93 14.91 28.48 19.03 11.76 4.186 24.88 6.326 38.99 6.326 15.52 0 29.52-2.469 41.6-7.361 11.92-4.821 21.43-11.64 28.25-20.25 6.703-8.443 10.09-18.51 10.09-29.89 0-10.35-2.799-18.56-8.584-25.05-5.95-6.679-14.13-12.32-24.32-16.77-10.51-4.562-22.58-8.655-35.82-12.14l-44.52-12.14c-30.55-8.326-55.13-20.77-73.05-37.02-18.27-16.56-27.54-38.71-27.54-65.85 0-22.34 6.162-42.17 18.32-58.89 12.09-16.6 28.65-29.7 49.22-38.92 20.46-9.172 43.84-13.83 69.47-13.83 25.64 0 49.11 4.633 69.03 13.73 20.01 9.172 36.05 21.94 47.62 38.01 11.64 16.13 17.8 34.9 18.32 55.76l0.094 3.622h-61.57l-0.3528-3.128c-1.858-16.49-9.29-28.9-22.74-38.01-13.57-9.172-30.95-13.83-51.72-13.83-14.89 0-27.92 2.352-38.69 6.985-10.63 4.563-18.98 10.87-24.74 18.72-5.715 7.738-8.608 16.65-8.608 26.51 0 8.208 1.952 15.36 5.762 21.24 3.928 6.044 9.196 11.15 15.66 15.22 6.679 4.21 13.97 7.738 21.66 10.51 7.808 2.822 15.43 5.174 22.65 6.985l36.81 9.572c12.06 2.963 24.65 7.032 37.37 12.09 12.86 5.127 24.95 11.97 35.96 20.32 11.12 8.467 20.27 19.12 27.16 31.63 6.938 12.61 10.47 27.85 10.47 45.27 0 21.94-5.738 41.7-17.05 58.77-11.29 17.03-27.8 30.62-49.08 40.43-21.14 9.737-46.97 14.68-76.76 14.68zm-137.1-110.3c1.67 20.34 7.855 38.22 18.42 53.18 11.22 15.87 26.98 28.32 46.87 36.95 20.06 8.725 44.19 13.12 71.78 13.12s53.6-4.704 73.82-14.02c20.08-9.243 35.61-21.99 46.14-37.91 10.54-15.87 15.88-34.34 15.88-54.87 0-16.23-3.222-30.32-9.596-41.86-6.397-11.64-14.91-21.54-25.24-29.42-10.49-7.973-22.01-14.51-34.29-19.38-12.42-4.939-24.69-8.913-36.5-11.81l-36.83-9.572c-7.408-1.858-15.26-4.28-23.28-7.173-8.161-2.94-15.92-6.703-23.02-11.17-7.338-4.61-13.31-10.44-17.8-17.33-4.586-7.056-6.914-15.48-6.914-25.09 0-11.38 3.363-21.71 9.972-30.69 6.538-8.866 15.83-15.95 27.63-21 11.67-5.009 25.61-7.549 41.46-7.549 22.18 0 40.92 5.056 55.67 15.03 14.18 9.595 22.7 23.02 25.38 39.93h48.02c-1.058-17.97-6.703-34.15-16.84-48.19-10.87-15.05-25.96-27.07-44.85-35.72-19-8.702-41.25-13.1-66.11-13.1s-47.04 4.445-66.58 13.19c-19.43 8.702-35.04 21.05-46.4 36.64-11.27 15.5-16.98 33.91-16.98 54.73 0 25.07 8.49 45.46 25.24 60.63 17.1 15.48 40.69 27.4 70.18 35.44l44.5 12.14c13.55 3.575 25.94 7.785 36.78 12.49 11.15 4.845 20.16 11.08 26.79 18.56 6.868 7.738 10.37 17.76 10.37 29.73 0 13.01-3.904 24.55-11.62 34.27-7.573 9.572-18.06 17.12-31.14 22.41-12.94 5.245-27.82 7.879-44.26 7.879-14.93 0-28.83-2.258-41.37-6.726-12.72-4.539-23.31-11.62-31.44-21.05-7.62-8.819-12.28-19.8-13.85-32.69h-50.05z"/>
  <path d="m1137 1707h-63.88v-383.6h137.7c29.77 0 54.85 5.527 74.53 16.44 19.78 10.96 34.78 26.15 44.64 45.13 9.784 18.86 14.75 40.36 14.75 63.85s-4.986 45.18-14.84 64.06c-9.901 18.98-24.98 34.2-44.8 45.2-19.76 10.96-44.78 16.53-74.44 16.53h-73.68v132.4zm-56.82-7.056h49.77v-132.4h80.74c28.43 0 52.33-5.268 71-15.64 18.6-10.32 32.71-24.58 41.98-42.31 9.313-17.85 14.04-38.31 14.04-60.79s-4.704-42.76-13.95-60.61c-9.196-17.73-23.26-31.94-41.79-42.22-18.63-10.32-42.54-15.55-71.1-15.55h-130.7zm125.4-173.5h-75.61v-154.3h74.86c19.38 0 35.32 3.293 47.37 9.807 12.18 6.585 21.26 15.83 26.95 27.47 5.597 11.48 8.443 24.74 8.443 39.42s-2.846 28.01-8.443 39.6c-5.691 11.76-14.72 21.17-26.83 27.92-11.99 6.703-27.73 10.09-46.78 10.09zm-68.53-7.056h68.56c17.8 0 32.38-3.104 43.32-9.196 10.82-6.044 18.86-14.39 23.92-24.84 5.127-10.61 7.738-22.91 7.738-36.52s-2.611-25.82-7.738-36.34c-5.033-10.3-13.1-18.51-23.97-24.36-11.01-5.95-25.82-8.96-44-8.96h-67.8v140.2z"/>
  <path d="m1634 1707h-67.85l-34.43-99.65h-142.1l-34.48 99.65h-67.83l138.1-383.6h70.6l.8467 2.328 137.2 381.3zm-62.82-7.056h52.78l-133-369.5h-60.68l-133 369.5h52.78l34.48-99.65h152.1l34.43 99.65zm-48.52-140.4h-124l58.04-167.8h7.973zm-114.1-7.056h104.2l-52.05-150.6z"/>
  <path d="m1921 1707h-72.79l-76.51-142.5h-75.23v142.5h-63.88v-383.6h137.7c29.61 0 54.61 5.198 74.34 15.48 19.85 10.35 34.92 24.84 44.78 43.11 9.807 18.16 14.77 39.35 14.77 63.01s-5.01 44.54-14.86 62.46c-9.925 18.04-25.05 32.22-44.9 42.17-2.328 1.176-4.868 2.305-7.761 3.481zm-68.58-7.056h56.66l-82.46-150.6 3.81-1.435c4.327-1.623 7.785-3.104 10.84-4.633 18.56-9.313 32.64-22.53 41.89-39.28 9.29-16.86 13.99-36.74 13.99-59.05s-4.68-42.52-13.92-59.64c-9.172-17-23.24-30.53-41.82-40.19-18.72-9.737-42.64-14.68-71.1-14.68h-130.7v369.5h49.77v-142.5h80.74c0.7056 0 1.364 0 2.046-0.047l3.669-0.071 76.55 142.6zm-87.42-184.4h-75.61v-143.5h74.86c19.19 0 35.02 2.94 47.04 8.725 12.23 5.88 21.35 14.49 27.14 25.54 5.691 10.89 8.584 23.87 8.584 38.59s-2.869 27.38-8.514 37.89c-5.738 10.7-14.86 18.96-27.12 24.53-11.99 5.456-27.61 8.231-46.43 8.231zm-68.53-7.056h68.56c17.8 0 32.43-2.564 43.49-7.596 10.82-4.915 18.81-12.14 23.82-21.45 5.08-9.478 7.667-21.12 7.667-34.55s-2.611-25.45-7.785-35.32c-5.08-9.69-13.12-17.24-23.97-22.46-11.05-5.315-25.85-8.02-43.98-8.02h-67.8v129.4z"/>
  <path d="m2165 1707h-245.3v-383.6h243.1v55.95h-179.3v107.7h167v55.79h-167v108.2h181.5zm-238.3-7.056h231.2v-41.86h-181.5v-122.3h167v-41.67h-167v-121.8h179.3v-41.84h-229z"/>
  <path d="m2495 1707h-57.6l-189.5-273.4v273.4h-63.88v-383.6h57.95l1.058 1.529 188.6 272.3v-273.8h63.31v383.6zm-53.9-7.056h46.85v-369.5h-49.2v276.5h-8.866l-1.058-1.529-190.5-275h-47.2v369.5h49.77v-276.2h8.866l191.4 276.2z"/>
  <path d="m2791 1707h-276.2v-42.5l194.9-285.2h-196.5v-55.95h276.2v42.5l-194.9 285.2h196.5v55.97zm-269.2-7.056h262.1v-41.86h-202.8l201.2-294.4v-33.25h-262.1v41.84h202.8l-201.2 294.4v33.26z"/>
</svg>
