<svg viewBox="0 0 1920 1080" version="1.1" xmlns="http://www.w3.org/2000/svg">
    <rect width="1920" height="1080" fill="#ffe500"/>
    <path fill="#fe0000" d="m422.9 956.7v-39.85h-35.27v39.85h-16.66v-94.42h16.66v38.6h35.27v-38.6h16.66v94.42zm94.01.6943q-7.082 0-11.39-2.916-4.166-2.916-6.11-7.221-5.971 5.554-11.53 8.193-5.554 2.638-11.94 2.638-9.303 0-13.75-5.971-4.305-5.971-4.305-15.14 0-6.11 2.222-10.69 2.361-4.721 7.637-7.359 5.277-2.638 14.44-2.638 3.61 0 7.498.5554 3.888.4166 7.776 1.111v-8.193q0-5.832-3.194-7.915-3.194-2.222-8.609-2.222-4.166 0-9.165 1.111-4.86 1.111-10.55 3.471l-4.582-13.61q14.02-5.693 25.41-5.693 10.28 0 15.83 3.471 5.693 3.471 7.915 9.165t2.222 12.22v27.08q0 2.083 1.111 4.027 1.25 1.805 4.721 1.805h1.527v14.72zm-43.6-20.69q0 3.749 1.666 5.971 1.666 2.083 4.86 2.083t7.221-1.666q4.027-1.666 10.41-7.776v-5.971q-7.221-1.25-14.16-1.25-5.415 0-7.776 2.222-2.222 2.222-2.222 6.387zm72.9-19.3v8.193q0 8.887 3.194 13.33 3.194 4.443 10.28 4.443 3.471 0 7.776-.8331 4.443-.972 9.581-2.916l4.582 13.47q-6.249 2.499-11.8 3.749-5.554 1.25-10.97 1.25-13.89 0-21.25-8.887t-7.359-23.61v-8.193q0-14.86 7.359-23.61 7.359-8.887 21.25-8.887 5.277 0 10.69 1.25 5.415 1.25 11.39 3.61l-4.582 13.75q-9.998-3.888-16.66-3.888-7.082 0-10.28 4.443-3.194 4.305-3.194 13.33zm92.06 39.3-17.36-29.3q-4.166 4.166-8.748 8.331v20.97h-15.97v-102.8h15.97v64.15q7.915-8.054 13.61-15.41 5.832-7.498 10.69-16.39h18.33q-4.582 8.331-9.998 15.83-5.415 7.498-11.94 15.14l24.72 39.44zm100.8 0v-9.581q-6.387 6.387-11.11 8.748-4.582 2.222-9.581 2.222-11.39 0-17.77-8.609-6.249-8.609-6.249-24.16v-7.498q0-15.14 7.637-24.02t22.08-8.887q3.61 0 7.082.6943 3.61.6943 7.082 1.944v-33.6h15.97v102.8zm-28.33-31.38q0 9.303 3.055 13.61 3.194 4.305 8.887 4.305 3.194 0 6.804-1.805 3.61-1.944 8.748-7.221v-32.21q-6.804-2.777-12.5-2.777-8.054 0-11.53 4.999-3.471 4.999-3.471 13.61zm81.79-52.35h-16.8v-16.52h16.8zm-.4166 83.73h-15.97v-70.4h15.97zm34.16-39.3v8.193q0 8.887 3.194 13.33 3.194 4.443 10.28 4.443 3.471 0 7.776-.8331 4.443-.972 9.581-2.916l4.582 13.47q-6.249 2.499-11.8 3.749-5.554 1.25-10.97 1.25-13.89 0-21.25-8.887t-7.359-23.61v-8.193q0-14.86 7.359-23.61 7.359-8.887 21.25-8.887 5.277 0 10.69 1.25 5.415 1.25 11.39 3.61l-4.582 13.75q-9.998-3.888-16.66-3.888-7.082 0-10.28 4.443-3.194 4.305-3.194 13.33zm84.43-17.63q-3.471 0-7.915 1.666-4.443 1.666-10.55 6.526v48.74h-15.97v-102.8h15.97v41.1q6.387-5.415 11.94-7.776t11.39-2.361q10.14 0 15.41 6.526 5.277 6.387 5.277 18.05v47.21h-15.97v-45.27q0-11.66-9.581-11.66zm132.9 64.01q0 11.25-8.887 17.5-8.748 6.387-24.44 6.387-7.359 0-15.55-1.666-8.193-1.666-15.14-5.554l4.582-12.64q6.665 3.333 13.19 4.721 6.526 1.527 12.77 1.527 8.748 0 13.33-2.361 4.582-2.361 4.582-6.249 0-5.971-7.082-5.971h-16.66q-6.804 0-10.97-2.222t-6.11-5.693q-1.944-3.61-1.944-7.498 0-4.027 1.666-7.498 1.805-3.61 4.86-6.665-4.999-3.055-8.054-8.193-2.916-5.138-2.916-12.36 0-8.193 3.471-13.61 3.471-5.415 9.442-8.054 6.11-2.777 13.47-2.777h2.361q2.777 0 5.415.4166 2.638.2777 4.999.972h25.13v13.61l-13.89-2.222q2.083 2.222 3.194 5.554 1.25 3.194 1.25 7.915 0 7.082-3.61 12.22-3.471 4.999-9.442 7.776-5.832 2.638-13.05 2.638h-2.361q-2.777 0-5.277-.4166-1.527 1.666-2.222 3.471-.6943 1.666-.6943 3.194 0 4.86 6.249 4.86h16.94q9.581 0 15.41 4.999 5.971 4.86 5.971 13.89zm-34.02-43.05q4.304 0 7.498-2.916 3.333-2.916 3.333-8.47 0-5.554-3.333-8.47-3.194-2.916-7.498-2.916h-2.361q-4.443 0-7.776 2.916-3.194 2.916-3.194 8.47 0 5.554 3.194 8.47 3.333 2.916 7.776 2.916zm48.88 16.11v-82.9h15.97v82.9q0 2.083.972 4.027 1.111 1.805 4.166 1.805h2.222v14.72h-3.888q-7.915 0-12.08-3.055-4.166-3.055-5.832-7.776-1.528-4.721-1.528-9.72zm80.68 19.86v-9.303q-6.387 5.554-11.94 8.193-5.554 2.499-11.25 2.499-9.442 0-14.58-6.387-5.138-6.526-5.138-18.19v-47.21h15.97v45.27q0 11.66 8.609 11.66 3.471 0 7.498-1.666 4.166-1.666 9.998-6.387v-48.88h15.97v70.4zm-19.86-84.56h-15.14v-14.86h15.14zm26.94 0h-15.14v-14.86h15.14zm42.21 45.27v8.193q0 8.887 3.194 13.33 3.194 4.443 10.28 4.443 3.471 0 7.776-.8331 4.443-.972 9.581-2.916l4.582 13.47q-6.249 2.499-11.8 3.749-5.554 1.25-10.97 1.25-13.89 0-21.25-8.887-7.359-8.887-7.359-23.61v-8.193q0-14.86 7.359-23.61 7.36-8.887 21.25-8.887 5.276 0 10.69 1.25 5.415 1.25 11.39 3.61l-4.582 13.75q-9.998-3.888-16.66-3.888-7.082 0-10.28 4.443-3.194 4.305-3.194 13.33zm92.06 39.3-17.36-29.3q-4.166 4.166-8.748 8.331v20.97h-15.97v-102.8h15.97v64.15q7.915-8.054 13.61-15.41 5.832-7.498 10.69-16.39h18.33q-4.582 8.331-9.998 15.83-5.416 7.498-11.94 15.14l24.72 39.44zm31.38-19.86v-82.9h15.97v82.9q0 2.083.972 4.027 1.111 1.805 4.166 1.805h2.222v14.72h-3.888q-7.915 0-12.08-3.055-4.166-3.055-5.832-7.776-1.528-4.721-1.528-9.72zm55.13-63.87h-16.8v-16.52h16.8zm-.4166 83.73h-15.97v-70.4h15.97zm34.16-39.3v8.193q0 8.887 3.194 13.33 3.194 4.443 10.28 4.443 3.471 0 7.776-.8331 4.443-.972 9.581-2.916l4.582 13.47q-6.249 2.499-11.8 3.749-5.554 1.25-10.97 1.25-13.89 0-21.25-8.887t-7.359-23.61v-8.193q0-14.86 7.359-23.61 7.359-8.887 21.25-8.887 5.277 0 10.69 1.25 5.415 1.25 11.39 3.61l-4.582 13.75q-9.998-3.888-16.66-3.888-7.082 0-10.28 4.443-3.194 4.305-3.194 13.33zm84.42-17.63q-3.471 0-7.915 1.666-4.443 1.666-10.55 6.526v48.74h-15.97v-102.8h15.97v41.1q6.387-5.415 11.94-7.776 5.554-2.361 11.39-2.361 10.14 0 15.41 6.526 5.276 6.387 5.276 18.05v47.21h-15.97v-45.27q0-11.66-9.581-11.66zm61.51 29.3h-12.5l-1.666-36.24v-30.55h15.97v30.55zm2.083 27.63h-16.8v-16.52h16.8z"/>
    <path fill="#fe0000" d="m672.4 527.4c-.7927-.8484-1.622-1.662-2.484-2.439-15.25-10.06-31.97-17.82-49.7-23.21-17.79-5.491-36.29-8.266-54.96-8.266-24.33 0-48.27 6.035-68.39 18.17l5.797-32.85c4.368-24.77-14.69-47.48-39.84-47.48h-45.77c-19.63.00088-36.43 14.1-39.84 33.43l-12.8 72.61h-14.73l10.32-58.56c4.363-24.77-14.69-47.47-39.84-47.48h-45.77c-19.63.001-36.43 14.09-39.84 33.42l-45.77 259.4c-4.368 24.77 14.69 47.48 39.84 47.48h45.77c19.61-.002 36.4-14.07 39.83-33.38l13.52-76.09h14.71l-11.01 61.94c-4.4 24.78 14.66 47.53 39.83 47.53h45.77c16.73-.2728 31.57-10.82 37.33-26.53 1.887 2.302 3.826 4.578 6.211 6.898 15.75 15.32 38.28 23.45 59.27 23.45v-3e-5c15.34 0 29.64-3.693 43.86-9.316 4.973-1.966 9.701-4.309 14.29-6.908 16.02 11.2 34.47 14.32 52.08 14.32h7.246c13.2-.1733 25.49-6.777 32.92-17.69 19.71 13.02 43.98 19.6 68.37 19.6 10.89 0 21.85-1.227 32.83-3.48 7.688-1.542 15.68-3.848 23.87-6.488 6.062 3.799 13.02 5.922 20.17 6.154h43.87c15.92-.2299 30.22-9.775 36.55-24.39 6.399 14.78 20.96 24.36 37.07 24.39h51.11c11.89-.1904 23.1-5.604 30.64-14.8 19.89 12.9 43.58 18.62 67.6 18.62 32.84 0 64.99-10.96 88.68-32.71 8.557-7.775 15.78-16.73 21.84-26.52l3.969 22.11c3.462 19.28 20.23 33.31 39.82 33.31h40.05c14.97-.00083 28.72-8.269 35.74-21.49l23.27-43.85c3.574 9.621 8.168 18.86 14.75 27.38 22.37 28.92 59.17 41.78 96.57 41.78 11.61 0 23.48-1.123 35.65-3.176 12.68-1.859 25.53-5.418 39.04-10.26 6.918 5.888 15.62 9.276 24.69 9.619h43.86c19.63-.001 36.42-14.09 39.84-33.42l18.95-107.3c3.863-3.201 7.179-5.656 9.25-6.801 5.742-3.004 9.863-4.258 11.49-4.555 5.511-.9402 9.894-1.293 12.78-1.293 19.67-.002 36.48-14.15 39.86-33.52l7.629-43.86c4.3-24.74-14.74-47.38-39.86-47.39-16.41 0-32.06 3.879-47.81 9.984-.061.024-.1211.048-.1816.0723-1.153-.7294-2.34-1.398-3.555-2.004 31.36-29.12 49.18-69.98 49.19-112.8 2e-4-85-68.9-153.9-153.9-153.9-85-2e-4-153.9 68.9-153.9 153.9 3e-4 41.5 16.76 81.24 46.47 110.2-7.379 2.213-14.54 5.081-21.38 8.574-7.132-6.354-16.28-9.979-25.83-10.23h-44.24c-15.3.00068-29.29 8.633-36.16 22.31l-12.74 25.38-2.381-14.01c-3.307-19.45-20.16-33.67-39.88-33.68h-41.96c-12.49.128-24.22 6.017-31.78 15.96-.098-.0663-.1888-.143-.2872-.209-19.94-13.63-44.06-19.56-68.46-19.56-22.47 0-44.55 5.183-63.84 15.35-7.275-7.125-16.97-11.24-27.15-11.54h-52.26c-6.075.1697-12.03 1.706-17.43 4.494l8.072-45.91c4.352-24.76-14.7-47.46-39.84-47.46h-43.87c-19.64.002-36.44 14.11-39.84 33.46l-10.73 61.08c-18.3-6.086-36.63-9.479-54.91-9.479-31.28 0-62.11 11.02-85.21 31.9-.7856.71-1.351 1.396-1.994 2.015z"/>
    <path fill="#ffe500" d="m371.3 731.2 19.45-109.5h-96.88l-19.45 109.5h-45.77l45.77-259.4h45.77l-18.69 106h96.88l18.69-106h45.77l-45.77 259.4zm258.8 1.907q-20.98 0-31.28-8.773-9.917-9.154-12.97-22.12-20.6 19.83-37 26.32-16.4 6.484-28.99 6.484-18.69 0-30.9-11.82-12.21-12.21-16.78-33.18-4.196-21.36 0-48.82l2.67-16.78q7.247-44.25 28.99-67.13 22.12-23.27 61.41-23.27 22.12 0 43.1 6.484 21.36 6.484 39.29 18.31l-20.6 117.9q-.7628 5.721 1.526 11.06 2.67 4.959 11.44 4.959h4.577l-7.247 40.43zm-112.9-91.92q-4.196 27.46.7628 40.43 4.959 12.59 16.78 12.59 9.917 0 22.5-7.629 12.97-8.01 29.37-28.61l13.35-77.05q-15.64-7.629-30.9-7.629-21.36 0-33.57 13.73-11.82 13.73-15.64 37.38zm242.8-66.75q-17.55 0-29.75 11.44-12.21 11.06-16.4 33.18l-4.196 22.89q-9.536 52.64 34.33 52.64 9.154 0 19.07-1.907 10.3-2.289 24.79-7.247l6.484 37.76q-17.55 6.484-30.9 9.154-12.97 2.67-24.79 2.67-41.19 0-60.27-25.94-18.69-26.32-11.06-70.18l3.433-19.83q7.629-42.34 30.9-63.7 23.65-21.36 57.98-21.36 26.32 0 56.83 12.97l-14.49 37.76q-24.03-10.3-41.96-10.3zm173 156.8-34.71-81.63q-6.866 6.103-14.11 11.82-6.866 5.721-14.49 11.44l-10.3 58.36h-43.86l49.59-282.3h43.86l-30.51 173.5q24.79-21.36 43.48-41.19 19.07-19.83 36.24-43.48h52.26q-16.4 22.89-35.09 43.48-18.69 20.6-40.43 41.96l49.2 107.9zm244.3-101.5-3.051 19.83q-6.103 41.19-30.51 63.32-24.03 22.12-61.41 22.12-27.08 0-45.77-12.21-18.31-12.59-26.32-34.33-7.628-21.74-3.433-49.59l3.051-19.83q6.484-40.81 30.13-62.94 23.65-22.12 61.41-22.12 27.46 0 45.77 12.59 18.31 12.21 26.32 33.95 8.01 21.36 3.814 49.2zm-44.63-1.907q4.196-24.79-4.577-39.67-8.391-14.88-28.23-14.88-16.4 0-28.99 11.44-12.21 11.06-16.02 34.33l-3.433 21.74q-3.814 24.79 4.959 40.05 8.773 14.88 27.84 14.88 16.78 0 28.99-11.44 12.21-11.82 16.02-34.71zm246.6-90.02-102.6 193.4h-40.05l-34.71-193.4h41.96l16.4 96.5 5.722 42.72 20.6-42.72 48.44-96.5zm134.1 184.2q-20.98 8.01-37 10.3-15.64 2.67-29.37 2.67-44.25 0-64.46-25.94-19.83-26.32-12.59-70.18l3.433-19.83q6.866-38.91 30.9-61.79 24.03-23.27 59.5-23.27 18.69 0 34.71 6.484 16.4 6.484 26.7 20.98 10.3 14.11 10.3 37.76 0 24.79-14.88 48.82h-110.2q-2.67 23.27 7.247 35.47 9.917 11.82 35.09 11.82 8.392 0 22.5-2.289 14.11-2.289 32.04-8.391zm-51.11-149.9q-35.85 0-45.77 42.34h74.38q2.67-8.01 2.67-15.26 0-13.35-8.773-20.22-8.391-6.866-22.5-6.866zm220.3 5.721q-8.773 0-19.83 1.907-10.68 1.907-23.65 8.773-12.59 6.866-27.46 21.74l-21.36 120.9h-43.86l33.95-193.4h41.58l-5.721 33.18q22.5-22.5 40.81-29.75 18.69-7.247 33.18-7.247z"/>
    <path fill="#ffe500" d="m1525 461h-86.77v-20.01q0-15.16 4.001-25.27 4.001-10.32 10.74-16.85 6.739-6.739 14.74-10.74l14.32-7.16q8.213-4.212 13.27-8.845 5.265-4.844 5.265-12.43v-3.791q0-7.792-5.476-12.21-5.265-4.633-17.06-4.633-7.16 0-14.53 2.106-7.16 2.106-17.48 5.897l-7.792-21.69q11.79-5.265 21.48-7.371 9.898-2.317 19.16-2.317 17.06 0 27.17 5.476 10.32 5.476 14.74 14.74 4.633 9.056 4.633 20.01v3.791q0 11.37-4.633 19.38-4.423 8.003-11.79 13.48t-16.01 9.688l-14.32 7.16q-7.792 3.791-11.58 10.53-3.58 6.739-4.001 17.27h61.92zm105.9-32.43h-14.95v32.43h-24.43v-32.43h-61.5v-20.43q9.477-14.74 18.74-29.91 9.477-15.37 17.69-30.54 8.213-15.37 13.48-29.91h27.59q-7.792 21.48-21.06 44.23-13.27 22.53-27.38 44.02h32.43v-21.69h24.43v21.69h14.95z"/>
</svg>
