<svg version="1.1" viewBox="0 0 3840 2160" xmlns="http://www.w3.org/2000/svg" xmlns:xlink="http://www.w3.org/1999/xlink">
    <defs>
        <linearGradient id="gradient" x1="0" x2="0" y1="0" y2="1">
            <stop stop-color="#0f4c55" offset="0.03"/>
            <stop stop-color="#155660" offset="0.25"/>
            <stop stop-color="#156773" offset="0.34"/>
            <stop stop-color="#308fa0" offset="0.43"/>
            <stop stop-color="#45c4df" offset="0.50"/>
            <stop stop-color="#308fa0" offset="0.57"/>
            <stop stop-color="#156873" offset="0.66"/>
            <stop stop-color="#145660" offset="0.75"/>
            <stop stop-color="#0f4c55" offset="0.97"/>
        </linearGradient>
        <filter id="shadow" x="-.06582" y="-.1461" width="1.132" height="1.292" color-interpolation-filters="sRGB">
            <feGaussianBlur stdDeviation="83.845438"/>
        </filter>
    </defs>
    <image y="-120" width="3840" height="2400" image-rendering="optimizeQuality" xlink:href="background.jpg"/>
    <rect fill="#1293b0" width="3840" height="2160" style="mix-blend-mode:multiply"/>
    <path fill="#032a2e" fill-opacity=".9" filter="url(#shadow)" d="m1929 531.6-340.6 340.6-325.4-325.4h-196.8l-673.5 673.5 673.5 673.5h196.8l325.4-325.4 340.6 340.6 333-333 317.8 317.9h196.8l673.5-673.5-673.5-673.5h-196.8l-317.8 317.9-333-333.2z"/>
    <path fill="url(#gradient)" d="m1929 391.3-340.6 340.6-325.4-325.4h-196.8l-673.5 673.5 673.5 673.5h196.8l325.4-325.4 340.6 340.6 333-333 317.8 317.9h196.8l673.5-673.5-673.5-673.5h-196.8l-317.8 317.9z"/>
    <path fill="#0f8b9b" d="m1240 1080 688.5 689 340.6-340.6-15.14-15.14-325.4 325.4-22.7-22.7 325.4-325.4-7.57-7.57-325.4 325.4-22.7-22.7 325.4-325.4-7.57-7.57-325.4 325.4-22.7-22.7 325.4-325.4-7.57-7.57-325.4 325.4-22.7-22.7 325.4-325.4-7.57-7.57-325.4 325.4-22.7-22.7 325.4-325.4-7.57-7.57-325.4 325.4-22.7-22.7 325.4-325.4-7.57-7.57-325.4 325.4-22.7-22.7 325.4-325.4-7.57-7.57-325.4 325.4-22.7-22.7 325.4-325.4-7.57-7.57-325.4 325.4-22.7-22.7 325.4-325.4-7.57-7.57-325.4 325.4-22.7-22.7 325.4-325.4-7.57-7.57-325.4 325.4-22.7-22.7 325.4-325.4-7.57-7.57-22.7 22.7-22.7-22.7 22.7-22.7 22.7 22.7 7.57-7.57-325.4-325.5 22.7-22.7 325.4 325.5 7.57-7.57-325.4-325.5 22.7-22.7 325.4 325.5 7.57-7.57-325.4-325.5 22.7-22.7 325.4 325.4 7.57-7.57-325.4-325.4 22.7-22.7 325.4 325.4 7.57-7.57-325.4-325.4 22.7-22.7 325.4 325.4 7.57-7.57-325.4-325.4 22.7-22.7 325.4 325.4 7.57-7.57-325.4-325.4 22.7-22.7 325.4 325.4 7.57-7.57-325.4-325.4 22.7-22.7 325.4 325.4 7.57-7.57-325.4-325.4 22.7-22.7 325.4 325.4 7.57-7.57-325.4-325.4 22.7-22.7 325.4 325.4 7.57-7.57-325.4-325.4 22.7-22.7 325.4 325.4 15.14-15.14-340.6-340.6zm30.27 0 325.4-325.5 22.7 22.7-302.7 302.8 302.7 302.8-22.7 22.7zm60.55 0 295.2-295.2 22.7 22.7-272.4 272.5 272.4 272.4-22.7 22.7zm60.55 0 264.9-264.9 22.7 22.7-242.2 242.2 242.2 242.2-22.7 22.7zm60.55 0 234.6-234.7 22.7 22.7-211.9 211.9 211.9 211.9-22.7 22.7zm60.55 0 204.4-204.4 22.7 22.7-181.6 181.7 181.6 181.6-22.7 22.7zm60.55 0 174-174.1 22.7 22.7-151.4 151.4 151.4 151.4-22.7 22.7zm60.55 0 143.8-143.8 22.7 22.7-121.1 121.1 121.1 121.1-22.7 22.7zm60.55 0 113.5-113.6 22.7 22.7-90.8 90.8 90.8 90.8-22.7 22.7zm60.55 0 83.25-83.25 22.7 22.71-60.55 60.55 60.55 60.55-22.7 22.7zm60.55 0 53-53 22.7 22.7-30.27 30.28 30.27 30.28-22.7 22.7z"/>
    <path fill="#0f8b9b" d="m392.5 1080 673.5 673.5 15.14-15.14-22.7-22.7 325.4-325.4-7.57-7.57-325.4 325.4-22.7-22.7 325.4-325.4-7.57-7.57-325.4 325.4-22.7-22.7 325.4-325.4-7.57-7.57-325.4 325.4-22.7-22.7 325.4-325.4-7.57-7.57-325.4 325.4-22.7-22.7 325.4-325.4-7.57-7.57-325.4 325.4-22.7-22.7 325.4-325.4-7.57-7.57-325.4 325.4-22.7-22.7 325.4-325.4-7.57-7.57-325.4 325.4-22.7-22.7 325.4-325.4-7.57-7.57-325.4 325.4-22.7-22.7 325.4-325.4-7.57-7.57-325.4 325.4-22.7-22.7 325.4-325.4-7.57-7.57-325.4 325.4-22.7-22.7 325.4-325.4-7.57-7.57-22.7 22.7-22.7-22.7 22.7-22.7 22.7 22.7 7.57-7.57-325.4-325.5 22.7-22.7 325.4 325.5 7.57-7.57-325.4-325.5 22.7-22.7 325.4 325.5 7.57-7.57-325.4-325.5 22.7-22.7 325.4 325.4 7.57-7.57-325.4-325.4 22.7-22.7 325.4 325.4 7.57-7.57-325.4-325.4 22.7-22.7 325.4 325.4 7.57-7.57-325.4-325.4 22.7-22.7 325.4 325.4 7.57-7.57-325.4-325.4 22.7-22.7 325.4 325.4 7.57-7.57-325.4-325.4 22.7-22.7 325.4 325.4 7.57-7.57-325.4-325.4 22.7-22.7 325.4 325.4 7.57-7.57-325.4-325.4 22.7-22.7 325.4 325.4 7.57-7.57-325.4-325.4 22.7-22.7-15.14-15.14zm30.27 0 325.4-325.5 22.7 22.7-302.7 302.8 302.7 302.8-22.7 22.7zm60.55 0 295.2-295.2 22.7 22.7-272.4 272.5 272.4 272.4-22.7 22.7zm60.55 0 264.9-264.9 22.7 22.7-242.2 242.2 242.2 242.2-22.7 22.7zm60.55 0 234.6-234.7 22.7 22.7-211.9 211.9 211.9 211.9-22.7 22.7zm60.55 0 204.4-204.4 22.7 22.7-181.6 181.7 181.6 181.6-22.7 22.7zm60.55 0 174-174.1 22.7 22.7-151.4 151.4 151.4 151.4-22.7 22.7zm60.55 0 143.8-143.8 22.7 22.7-121.1 121.1 121.1 121.1-22.7 22.7zm60.55 0 113.5-113.6 22.7 22.7-90.8 90.8 90.8 90.8-22.7 22.7zm60.55 0 83.25-83.25 22.7 22.71-60.55 60.55 60.55 60.55-22.7 22.7zm60.55 0 53-53 22.7 22.7-30.27 30.28 30.27 30.28-22.7 22.7z"/>
    <path fill="#0f8b9b" d="m1906 1080 673.5 673.5 15.14-15.14-22.7-22.7 302.7-302.8-333-333 333-333-302.7-302.8 22.7-22.7-15.14-15.14zm30.27 0 355.7-355.8 22.7 22.7-333 333 333 333-22.7 22.7zm363.2-363.3 22.7-22.7 53 53-333 333 333 333-53 53-22.7-22.7 30.27-30.28-333-333 333-333-7.57-7.57zm30.27-30.28 22.7-22.7 83.25 83.25-333 333 333 333-83.25 83.25-22.7-22.7 60.55-60.55-333-333 333-333-7.57-7.57zm30.27-30.28 22.7-22.7 113.5 113.6-333 333 333 333-113.5 113.6-22.7-22.7 90.8-90.8-333-333 333-333-7.57-7.57zm30.27-30.28 22.7-22.7 143.8 143.8-333 333 333 333-143.8 143.8-22.7-22.7 121.1-121.1-333-333 333-333-7.57-7.57zm30.27-30.28 22.7-22.7 174 174.1-333 333 333 333-174 174.1-22.7-22.7 151.4-151.4-333-333 333-333-7.57-7.57zm30.27-30.28 22.7-22.7 204.4 204.4-333 333 333 333-204.4 204.4-22.7-22.7 181.6-181.6-333-333 333-333-7.57-7.57zm30.27-30.28 22.7-22.7 234.6 234.6-333 333 333 333-234.6 234.6-22.7-22.7 211.9-211.9-333-333 333-333-7.57-7.57zm30.27-30.28 22.7-22.7 264.9 264.9-333 333 333 333-264.9 264.9-22.7-22.7 242.2-242.2-333-333 333-333-7.57-7.57zm30.27-30.28 22.7-22.7 295.2 295.2-333 333 333 333-295.2 295.2-22.7-22.7 272.4-272.4-333-333 333-333-7.57-7.57z"/>
    <path fill="#0f8b9b" d="m2806 1057 22.7 22.7-22.7 22.7 7.57 7.57 30.27-30.28-30.27-30.28zm30.27-30.28 53 53-53 53 7.57 7.57 60.55-60.55-60.55-60.55zm30.27-30.28 83.25 83.25-83.25 83.25 7.57 7.57 90.8-90.8-90.8-90.8zm30.27-30.28 113.5 113.6-113.5 113.6 7.57 7.57 121.1-121.1-121.1-121.1zm30.27-30.28 143.8 143.8-143.8 143.8 7.57 7.57 151.4-151.4-151.4-151.4zm30.27-30.28 174 174.1-174 174.1 7.57 7.57 181.6-181.6-181.6-181.7zm30.27-30.28 204.4 204.4-204.4 204.4 7.57 7.57 211.9-211.9-211.9-211.9zm30.27-30.28 234.6 234.7-234.6 234.6 7.57 7.57 242.2-242.2-242.2-242.2zm30.27-30.28 264.9 264.9-264.9 264.9 7.57 7.57 272.4-272.4-272.4-272.5zm30.27-30.28 295.2 295.2-295.2 295.2 7.57 7.57 302.7-302.8-302.7-302.8zm22.7-22.7 317.8 317.9-317.8 317.9 15.14 15.14 333-333-333-333z"/>
    <path fill="#ffffff" d="m1066 406.5 340.6 340.6-333 333 333 333-340.6 340.6h196.8l340.6-340.6-333-333 333-333-340.6-340.6z"/>
    <path fill="#ffffff" d="m2580 406.5 340.6 340.6-333 333 333 333-340.6 340.6h196.8l340.6-340.6-333-333 333-333-340.6-340.6z"/>
    <path fill="#f9f9f9" d="m1437 1080 340.6 340.6 340.6-340.6-340.6-340.6zm196.8 0 143.8-143.8 143.8 143.8-143.8 143.8z"/>
    <path fill="#ffffff" d="m2224 1080 333 333h196.8l-333-333 333-333h-196.8z"/>
</svg>
