<svg version="1.1" viewBox="0 0 3840 2160" xmlns="http://www.w3.org/2000/svg">
    <rect width="3840" height="2160" />
    <path fill="#009a93" d="m632.1 1746c.3753-2.107.4554-5.269 1.601-7.997.6005-1.451 2.912-2.512 4.669-3.048 4.018-1.301 5.745 1.982 6.44 4.679 1.681 6.566-.6155 12.08-6 16.22-.7907.5855-2.332 1.451-2.697 1.166-1.361-1.076-2.832-2.442-3.388-3.998-.6606-1.862-.4204-4.043-.6255-7.026m-110.3 776.7c-.9208-2.632-2.487-5.555-2.872-8.627-.4554-3.558-2.067-4.624-5.345-4.784-2.227-.1201-4.379-1.156-6.621-1.486-3.398-.5004-2.512 3.988-5.57 4.824-3.248.8958-2.897 4.489-1.401 6.971 1.621 2.682 2.182 4.839.0751 7.526-.6355.8007-.6756 2.892-.0551 3.683 1.676 2.182 3.578 4.454 5.9 5.78 2.862 1.616 6.576 1.842 9.228-.2302 4.128-3.218 5.92-7.967 6.661-13.66m-45.22 3.678c-.4904-9.608 2.922-18.09 7.792-26.08 3.093-5.084 6.476-10.03 9.778-14.99 3.008-4.534 6.856-7.616 12.72-6.911 3.413-2.302 6.701-.8107 10.27-.1902 3.703.6406 5.57 3.098 7.977 5.199 3.493 3.033 6.706 6.541 10.59 8.953 5.089 3.163 8.352 7.031 9.118 13.09.2902 2.202 1.206 4.429 2.172 6.476 1.441 3.053 1.872 5.96-.2102 8.828-2.622 3.613-2.953 7.712-2.787 11.97.0851 2.347-.1551 4.704.1051 7.001.6155 5.43-1.701 9.954-4.214 14.4-1.346 2.392-2.953 4.689-4.739 6.786-.7807.9258-2.232 1.606-3.468 1.752-2.307.2902-4.669.2152-7.001.07-5.68-.3403-11.02.4154-16.04 3.418-1.907 1.141-4.234 1.897-6.445 2.142-4.214.4704-7.682.3503-10.18-4.814-2.172-4.444-5.67-8.307-7.001-13.35-.4604-1.726-.9408-4.053-2.217-4.864-7.326-4.689-6.295-11.89-6.22-18.88m129.7-667.6c4.899-.4354 7.351-.5104 9.753-.9508.5855-.1101 1.286-1.426 1.341-2.237.055-.7907-.5304-2.272-1.011-2.387-5.044-.8457-9.183-2.257-11.05-7.992-.9508-2.862-5.785-2.407-8.998.2402-2.777 2.317-2.777 4.684-.4104 7.531 3.398 4.048 7.371 6.405 10.38 5.795m-18.51-11.83c0-3.028-.1501-6.055.03-9.068.6756-10.8 7.196-17.3 17.66-18.8 3.448-.4954 7.006-.1101 10.51-.4103 2.492-.1952 5.48-4.594 4.494-6.861-4.204-9.718-2.602-19.07.1151-28.98 4.319-15.7 15.53-24.14 29.39-29.28 7.386-2.732 16.11-2.362 23.11 2.427 7.011 4.784 13.14 10.7 17.61 18.17 5.965 9.913 8.157 20.04 3.798 31.3-1.196 3.088-.9458 6.916-.7256 10.36.2952 4.719-.7106 9.083-3.348 12.78-4.349 6.08-8.612 12.05-10.02 19.7-.5605 2.982-4.078 4.314-7.186 2.912-2.362-1.051-4.794-2.457-7.116-1.461-11.48 4.989-22.33 2.357-33.17-2.052-3.883-1.581-6.856-.7106-8.352 3.273-2.912 7.736-7.742 13.88-13.79 19.28-5.31 4.749-10.59 4.679-15.85-.2952-1.456-1.381-2.852-2.832-4.289-4.234-1.882-1.847-2.953-3.953-2.897-6.671.0901-4.028.02-8.047.02-12.08m-511.4-84.22c.9208.6456 2.487 1.171 2.632 1.952.6556 3.478.4954 7.196 3.703 9.678 5.099 3.898 3.838 9.503 3.968 14.77.1051 4.144-3.338 6.015-5.224 8.908-4.719 7.301-12.94 7.716-19.89 10.37-5.865 2.207-10.45-3.128-8.832-10.21.4754-2.057.1902-3.183-.8958-4.499-1.121-1.386-2.782-2.542-3.358-4.108-.5004-1.346-.1201-3.253.4854-4.659.2752-.6406 2.632-1.186 3.103-.7507 3.663 3.323 6.42 1.776 8.692-1.471 2.692-3.858 5.094-7.887 7.626-11.84 1.561-2.422 2.998-4.959 4.794-7.206.5605-.7256 2.107-.6355 3.193-.9358m-75.56-7.807c0 3.928.2302 6.34-.03503 8.687-.9758 8.152 1.701 15.11 6.671 21.37.7406.9358 1.711 1.686 2.332 2.702 2.852 4.669 2.432 10.58-1.101 14.75-1.541 1.806-3.283 3.438-4.984 5.119-2.242 2.232-3.063 4.969-3.008 8.077.03503 2.382.1251 4.774-.08507 7.136-.5905 6.365 1.251 11.67 6.45 15.61 2.257 1.706 4.564 3.363 6.836 5.049 3.073-3.723 9.948-.2702 11.8-6.28 18.25-21.49 13.78-17.53 38.99-17.66 2.287 0 4.829.4103 6.806 1.466 7.396 3.968 15.2 1.927 22.76 1.601 2.177-.1001 4.784-3.343 6.135-5.735 1.041-1.852.6656-4.649.5254-7.011-.4154-7.421 1.296-14.49 6.531-19.59 5.76-5.61 5.55-12.66 3.323-18.14-2.897-7.116-2.597-13.96-2.447-20.93.2102-10.39-2.427-20.17-7.666-28.58-5.129-8.242-9.008-18.14-19.48-22.14-2.582-.9809-4.624-3.668-6.631-5.855-2.622-2.812-5.695-3.933-9.493-4.058-2.282-.08-4.619-.8007-6.751-1.656-11.05-4.494-20.75-.1702-30.06 4.889-8.963 4.874-14.28 13.61-20.18 21.55-1.701 2.272-3.468 5.344-3.373 8.007.4103 11.3-6.801 21.66-3.868 31.6m555-240.7c-.3053.4804-.5004 1.151-.9208 1.401-1.296.7206-2.522-1.501-1.787-3.403.1451-.3904.7206-.6156 1.106-.9308.5304 1.001 1.071 1.957 1.601 2.932m-186.4 620.5c-.9858.4905-1.887 1.231-2.817 1.281-.6005.05-1.251-.9508-1.877-1.481.8808-.5005 1.756-1.296 2.657-1.346.6506 0 1.336.9859 2.037 1.546m20.86-89.18c-.5405-.6405-1.086-1.276-1.611-1.917 1.036-.3153 2.052-.7807 3.098-.8858.4204-.05.9258.6956 1.386 1.071-.9558.5855-1.917 1.166-2.872 1.732m74.11-455.2c-1.591 1.636-3.043 3.148-4.559 4.584-.035.05-1.056-.6956-1.221-1.181-.8257-2.482.9258-4.944 3.443-4.839.5254.05 1.021.6005 2.337 1.436m-47.83-291.3c-.035.5154-.025 1.686-.2102 2.812-.0751.4704-.5855.8807-.8908 1.311-.4304-.4053-1.146-.7506-1.251-1.231-.6405-2.858-1.186-5.76-1.626-8.657-.0651-.4554.5405-1.021.8407-1.541.7707.4604 2.027.7757 2.227 1.426.5154 1.676.5755 3.503.9108 5.88m60.95 45.09c.5204 3.683.9408 4.894.7606 6-.1301.8458-1.021 1.566-1.556 2.337-.4404-.3953-1.176-.7156-1.266-1.181-.9658-5.134-2.062-10.17-5.505-14.4-.3853-.4854.5254-2.022.8357-3.073.5405.2502 1.156.3703 1.591.7506 1.311 1.121 3.133 2.112 3.703 3.568 1.071 2.672 1.366 5.65 1.436 6m-120.9 385.4c1.436 3.348-2.162 8.567-5.95 8.592-.5154 0-1.101-.1852-1.526-.4804-2.057-1.431-2.707-5.425-1.301-7.682 1.316-2.107 5.244-2.948 7.606-1.571.4604.2703.7807.7607 1.171 1.141m-53.3-406.1c.2702 3.943-2.517 6.365-4.634 9.068-1.011 1.306-2.447 2.992-4.224 1.316-1.591-1.506-3.543-3.393-3.808-5.314-.2902-2.072 1.471-4.329 1.842-6.586.4654-2.842 2.112-4.214 4.649-4.063 2.532.1501 6.04 3.713 6.175 5.58m34.35-19.05c.8357 7.306-3.173 12.48-9.403 12.08-4.644-.2953-6.971-3.753-5.415-8.197.7707-2.217 1.431-4.524 2.532-6.571 1.551-2.887 4.214-4.013 7.496-3.738 2.832.2352 4.299 2.147 4.789 6.43m135.2 853.7c5.455-.5504 8.357 1.596 10.2 4.719 1.501 2.547 1.626 5.725-.2452 8.392-1.686 2.397-3.393 4.914-5.57 6.831-2.948 2.582-6.48 2.487-9.803.3953-.9758-.6155-2.632-2.042-2.517-2.237 2.682-4.659-.7606-10.77 3.413-14.92 1.571-1.561 3.673-2.592 4.519-3.183m40.44-613.5c0 .9858.2202 3.348-.05 5.635-.4254 3.673-4.989 7.201-8.888 7.161-3.258-.05-7.396-2.602-8.142-5.585-.9958-3.913-2.317-8.022.4854-11.81 2.357-3.203 3.908-7.652 8.953-7.331 3.813.2452 6.751 4.764 7.641 11.93m-67.01-345.8c.6405 5.995-3.668 13.31-9.318 15.49-3.008 1.151-5.665.1-8.277-1.641-5.365-3.578-5.605-4.259-2.792-10.65.6956-1.571 1.301-3.203 1.756-4.864.5905-2.152.2852-5.53 1.611-6.325 2.317-1.391 5.6-1.731 8.447-1.611 4.849.1951 7.962 4.038 8.572 9.598m-83.82 697.1c.6105 4.344.8307 5.525.9358 6.706.4154 4.879-6.641 11.38-11.75 10.03-3.543-.9459-6.881-1.692-10.47-1.186-5.485.7507-8.782-2.932-12.28-6.12-.7807-.7207-1.671-2.367-1.371-3.033 2.422-5.084.8207-10.51 1.656-15.63.5555-3.503 3.268-6.3 7.326-6.906 9.633-1.406 17.62 2.117 23.73 9.183 2.097 2.422 2.132 6.621 2.227 6.956m-96.08 229.1c.6856-4.013 1.581-7.982 1.977-12.04.2102-2.247-.02-4.739-.7606-6.876-.7156-2.027-3.538-3.608-1.521-6.09 2.217-2.732 4.424-6.661 7.321-7.401 6.33-1.626 12.39-3.453 18.39-6.195 3.523-1.586 8.312-1.561 12.25-.7857 3.583.7006 6.941 1.136 10.54.6906 8.863-1.146 16.31 2.217 22.92 7.757 1.947 1.641 2.677 3.678 1.451 6.32-1.246 2.687-1.857 5.635-3.088 8.342-2.182 4.794-1.166 9.733.5605 13.95 1.922 4.679 4.454 9.483 10.51 11.05 4.449 1.156 6.42 4.924 6.641 9.603.1401 2.978.7556 5.935 1.041 8.912.3253 3.533-3.548 6.531-7.276 5.44-3.978-1.181-7.792-3.018-11.83-4.013-2.172-.5455-5.264-.8307-6.861.3102-5.209 3.698-10.49 5.019-16.78 3.648-8.052-1.812-16.43-2.337-23.22-7.947-4.144-3.453-8.482-6.691-12.97-9.648-5.45-3.568-8.387-8.327-9.288-15.03m388.4-90.13c.2502-6.39-3.488-11.94-10.48-15.49-4.058-2.047-10.24.6256-11.61 5.079-.1752.5555-.7456 1.201-.5955 1.636 2.497 7.712-2.462 13.55-4.934 20.01-.8357 2.187-1.892 4.449-1.977 6.716-.0601 1.431 1.196 3.238 2.347 4.374 3.048 3.013 5.895 2.387 9.343-.1351 3.358-2.477 5.96-1.271 6.516 2.012.6956 4.094 1.091 8.272 1.967 12.34.3553 1.596 1.536 3.128 2.617 4.449.7206.8608 2.207 2.012 2.897 1.766 1.426-.5204 2.727-1.741 3.748-2.958.7056-.8457 1.296-2.182 1.196-3.233m-397.1-23.31c-.9408 13.17-4.374 33.84-26.87 45.35-3.383 1.711-6.445 5.54-7.972 9.118-8.032 18.89-21.03 33.72-35.65 47.77-10.16 9.793-13.11 25.35-25.69 33.79-5.945 4.008-13.46 3.253-18.8-3.243-8.167-9.903-9.203-26.07-1.772-35.66 3.513-4.509 7.772-8.552 12.04-12.38 6.856-6.155 9.718-13.37 9.908-22.76.3453-16.38 7.236-30.55 19.52-41.42 12.33-10.88 18.46-25 23.14-40.08 1.591-5.164-2.812-13.17-7.606-13.42-7.196-.3904-14.39-.065-21.58-.5305-10.84-.6405-13.19-4.809-13.86-17.06-.6105-11.42 4.524-19.3 12.34-26.1 6.165-5.354 10.47-16.52 19.5-14.08 11.38 3.088 12.1 14.59 11.61 25.13-.2102 4.319-.015 8.652.0951 12.97.1802 7.116 4.779 9.753 11.05 10.32 2.867.2752 5.76.11 8.632.2402 27.28 1.266 32.08 6.285 31.95 42.04"/>
    <path fill="#009a93" d="m3296-126.7c-.7057-.5055-1.947-.8909-2.052-1.486-.5705-2.973-1.231-6.031-1.021-8.999.1001-1.451 2.207-4.064 3.068-3.939 1.837.2853 3.638 1.842 5.12 3.203 2.648 2.467 2.472 5.295-.06 7.727-1.471 1.391-3.343 2.347-5.055 3.493m117.5 66.55c0 2.127.5155 4.444-.1852 6.311-.4904 1.301-2.542 2.232-4.099 2.823-.6356.2653-1.982-.6406-2.673-1.366-1.451-1.506-3.714-3.153-3.829-4.85-.5505-8.283-.5605-16.58-.6005-24.86 0-.7407 1.136-1.987 1.882-2.082.8858-.1201 2.157.4705 2.843 1.196 2.147 2.237 5.25 4.419 5.896 7.127 1.201 5.045.9259 10.43 1.281 15.7h-.5155zm-183.8 152.6c2.773.2903 5.135-.02 6.877.8959 1.576.8358 3.859 3.548 3.478 4.444-2.788 6.411-6.091 12.58-9.444 18.75-.2652.4805-2.037.3604-3.038.1702-8.028-1.486-14.22-12.28-10.9-19.31.7958-1.702 2.608-3.558 4.319-4.059 2.963-.8408 6.231-.6957 8.703-.8909m334.5-282.9c-.8658.5806-1.802 1.752-2.582 1.652-4.074-.5205-8.808-.2602-11.98-2.342-5.22-3.393-9.489-8.303-14.01-12.73-5.385-5.31-8.018-13.23-5.455-12.89 4.724.5956 10.2 1.341 13.69 4.119 7.352 5.861 13.64 13.05 20.27 19.77.4254.4154.065 1.587.065 2.422m-131.7 68.02c-2.252 2.487-4.554 6.151-7.863 8.253-2.127 1.341-6.626 1.632-8.488.2603-8.583-6.271-16.86-12.86-15.44-25.66.4204-3.809-2.297-7.873-3.273-11.92-1.086-4.444 2.117-4.8 5.275-4.945 1.051-.05 2.127-.1001 3.163.0701 14.13 2.327 22.64 20.79 26.63 33.95m-222.4.5756c-3.048 10-6.396 19.93-14.95 26.7-1.862 1.486-6.361 1.627-8.533.3854-4.514-2.532-8.048-6.767-12.41-9.689-18.71-12.47-18.89-12.78-9.469-31.61 6.246-12.51 6.026-11.58 21-8.128 9.089 2.072 14.98 7.222 20.54 13.49 1.927 2.157 2.467 5.555 3.824 8.854m83.39 395.7c-.6957 9.689-3.223 24.91-19.78 33.37-2.482 1.271-4.735 4.094-5.866 6.721-5.906 13.91-15.47 24.81-26.23 35.15-7.487 7.192-9.659 18.66-18.9 24.87-4.379 2.948-9.895 2.392-13.83-2.402-6.011-7.287-6.772-19.17-1.301-26.23 2.588-3.328 5.71-6.296 8.854-9.124 5.045-4.519 7.157-9.824 7.307-16.73.2452-12.06 5.315-22.5 14.35-30.49 9.074-8.013 13.6-18.39 17.03-29.5 1.176-3.794-2.057-9.689-5.59-9.87-5.295-.2903-10.59-.045-15.89-.3854-7.963-.4855-9.709-3.543-10.19-12.56-.4455-8.398 3.323-14.22 9.079-19.21 4.534-3.954 7.702-12.15 14.35-10.36 8.378 2.272 8.889 10.74 8.533 18.49-.1501 3.183 0 6.366.08 9.549.1251 5.24 3.513 7.187 8.128 7.607 2.112.1902 4.244.0751 6.361.1702 20.07.9459 23.6 4.624 23.51 30.93m415.3-231.5c3.994 9.369-3.373 17.82-1.942 27.36 1.206 8.078.3153 16.5-2.032 25-2.467 8.919-.2652 19.02-1.371 28.47-.5855 4.865-3.108 10.01-6.106 13.99-9.249 12.23-12.72 26.69-14.76 41.03-2.087 14.66-.7107 29.89 9.059 42.31 4.409 5.575 6.556 11.94 4.725 17.69-4.064 12.8 1.021 24.78 1.231 37.15.035 2.062.1101 4.715-1.041 6.091-2.673 3.153-5.09.3954-7.417-1.236-11.56-8.033-25.54-9.299-38.42-13.64-4.75-1.602-7.027-4.209-6.121-9.089.7657-4.099 2.913-8.183 2.748-12.2-.3053-8.238 3.393-14.03 8.773-19.55 5.841-5.986 10.66-12.23 14.21-20.44 6.006-13.82.971-24.86-5.055-35.75-2.072-3.754-8.643-5.11-13.25-7.342-4.389-2.092-7.137-5.395-4.054-9.659 3.809-5.3 5.921-10.56 6.952-17.18 3.088-19.91 10.15-38.35 24.97-52.99 3.018-2.958 7.287-6.131 7.913-9.729 2.387-13.95 13.24-21.21 21.92-30.23zm.9359.035c-.1502-.2102-.1652-.3954-.3003-.5906-.2302.1652-.4004.3854-.6406.5555zm19.08-93.59c-17.96 13.93-17.53 34.99-20.92 54.3-1.021 5.761 1.612 12.41 3.458 18.38 2.222 7.157-6.246 13.21-1.917 20.32 11.24-8.298 11.04-24.55 22.43-32.75.6956-18.35 7.132-34.37 17.7-49.4 3.268-4.634 1.882-12.34 3.614-18.31 2.918-10.02 4.955-20.25 10.46-29.54 5.31-8.909 9.544-18.57 13.18-28.27 3.849-10.14 14.97-14.85 17.42-26.01 2.407-10.98 12.54-16.67 19.51-24.48 5.63-6.341 11.66-12.36 17.68-18.34 9.684-9.544 10.01-24.7 7.042-31.5h-56.5c-10.25 9.639-19.13 20.29-19.59 35.75-.3704 13.14-6.441 24.35-9.544 36.52-1.506 5.881-6.536 10.9-7.798 16.78-1.321 6.046.04 12.67.1901 19.03.1302 5.315-.4354 10.72.4104 15.91 2.828 17.43-3.253 31.09-16.82 41.62m-406 230.5c-7.447-3.929-9.789-12.17-15.15-17.87-.7457-.7908-1.602-1.932-1.622-2.913-.1151-9.654-.055-19.28-.055-28.93 5.255-9.134 4.745-20.94 13.09-28.68 2.237-6.356 7.107-9.955 13.05-12.45 1.542-.6606 3.163-1.356 4.429-2.412 14.27-11.69 29.67-7.287 44.8-2.738 3.453 1.036 6.031 4.925 9.129 7.382 8.798 6.927 13.61 16.19 16.29 26.87 1.777 7.092 1.917 23.13-.3404 30.04-1.391 4.229-3.593 8.268-4.494 12.57-2.027 9.809-7.517 15.94-17.25 18.5-2.072.5355-4.279 1.802-5.65 3.398-7.908 9.239-14.16 19.63-11.58 32.15 1.416 6.892 5.175 13.72 9.394 19.48 3.373 4.594 3.829 9.039 4.234 14.15.5456 6.536-2.427 10.8-7.322 14.26-.8909.6256-2.017 1.166-3.048 1.196-6.461.1802-13.91-6.296-13.73-12.37.1352-4.98-.4954-9.945 1.752-14.98 3.318-7.422 1.717-15.62 1.261-23.45-.1051-1.857-2.112-4.249-3.874-5.19-3.904-2.087-7.447-5.365-12.34-5.03-3.573.2502-6.406-1.657-9.579-2.788-5.65-1.992-8.273-5.345-8.128-11.3.07-2.202-.6557-4.449-1.011-6.646 1.592.045 3.213.2703 4.765.045.7357-.1001 1.336-1.101 2.007-1.702-.9209-.4504-1.822-1.291-2.738-1.271-2.102.005-4.199.4054-6.291.6706m-189.1 160.8c1.321.9059 7.742 3.098 9.359 7.157 1.772 4.479.8458 11.9-1.952 15.93-4.765 6.892-11.24 13.23-18.32 17.65-4.034 2.467-12.13 2.628-15.82.1251-3.463-2.377-5.19-9.849-4.674-14.79.5505-5.235 5.495-9.885 7.012-15.24 3.133-10.95 11.43-11.31 24.39-10.83m361-260.8c-.5004 10.52-.7557 17.81-3.273 25.43-2.542 7.662-1.006 16.7-1.171 25.15-.1151 6.206-.5105 6.787-7.437 9.244-5.706 2.037-7.682 5.005-6.366 9.659.4004 1.441 1.356 2.748 1.812 4.169 3.468 10.72 2.562 13.53-6.776 18.49-5.22 2.768-9.94 6.721-16.65 1.196-6.626-5.47-15.3-6.716-24.01-5.751-10.29 1.146-15.4-5.575-19.24-13.37-2.317-4.695-4.484-9.985-4.69-15.08-.3503-8.513-2.242-16.43-4.785-24.42-.9259-2.873.3103-6.086 4.034-7.037.7357-.1952 1.532-.2853 2.292-.3103 6.181-.2152 10.1-3.543 11.55-9.314 1.546-6.186-2.182-9.985-6.837-13.36-8.023-5.831-8.453-6.862-4.539-14.17 6.126-11.42 12.55-22.74 22.21-31.63 14.55-13.36 30.97-14.48 47.55-1.321 11 8.733 14.78 20.67 16.28 33.78.4204 3.804.06 7.702.06 8.648"/>
    <path fill="#ffffff" d="m982.1 1662-42.9-1.502-44.47-158.6-.6506-.015-55.42 155.1-44.5-1.556-58.36-229 50.58 1.767 32.9 150.5.6356.02 52.28-147.5 46.42 1.617 42.3 147 .6556.015 41.25-144.1 54.43 1.897zm270.2-133.2c-3.003-9.084-7.467-16.99-13.44-23.71-5.971-6.722-13.2-12.05-21.72-15.98-8.533-3.934-18.12-6.091-28.79-6.451-10.66-.3804-20.4 1.091-29.17 4.424-8.758 3.333-16.37 8.138-22.79 14.44-6.401 6.291-11.42 13.86-15.04 22.7-3.624 8.858-5.62 18.5-5.976 28.97-.3803 10.67.9309 20.49 3.934 29.46 3.008 8.979 7.487 16.83 13.44 23.55 5.971 6.732 13.22 12.06 21.73 15.99s18.12 6.081 28.77 6.461c10.68.3654 20.4-1.116 29.17-4.439 8.778-3.323 16.37-8.133 22.79-14.43 6.421-6.281 11.43-13.81 15.04-22.56 3.624-8.738 5.61-18.45 5.991-29.11.3603-10.46-.9409-20.24-3.944-29.32m44.97 80.1c-6.601 14.52-15.52 26.77-26.77 36.73-11.24 9.975-24.44 17.48-39.57 22.5-15.13 5.04-31.57 7.227-49.29 6.616-17.71-.6256-33.94-3.964-48.69-10.03-14.74-6.066-27.38-14.47-37.91-25.21-10.53-10.74-18.57-23.56-24.14-38.5-5.575-14.93-8.043-31.48-7.402-49.62.6406-18.14 4.254-34.48 10.85-48.99 6.591-14.51 15.52-26.76 26.76-36.74 11.26-9.955 24.44-17.46 39.58-22.5 15.13-5.025 31.57-7.232 49.28-6.611 17.72.6206 33.94 3.964 48.7 10.04 14.74 6.071 27.38 14.47 37.9 25.2 10.53 10.73 18.57 23.56 24.14 38.52 5.575 14.93 8.043 31.47 7.402 49.61-.6156 18.14-4.229 34.48-10.84 48.99m158.7-115-32.67-1.146c-4.484-.1451-9.074 0-13.78.4805-4.73.4754-8.929 1.562-12.63 3.243-3.678 1.692-6.762 4.204-9.239 7.537-2.457 3.328-3.804 7.878-3.999 13.65-.2153 6.181.9509 11.03 3.493 14.53 2.562 3.513 5.826 6.141 9.83 7.883 3.999 1.747 8.503 2.858 13.5 3.348 5.005.5105 9.754.8308 14.23.9909l29.45 1.031zm43.5 186.2-49.94-1.742 3.163-90.61-24.64-.8608-50.57 88.96-59.86-2.097 60.97-93.72c-15.91-3.543-27.83-11.07-35.76-22.56-7.928-11.5-11.62-25.25-11.05-41.26.4604-13.23 3.143-24.19 8.043-32.89 4.9-8.693 11.33-15.52 19.3-20.48 7.968-4.945 17.18-8.373 27.61-10.25 10.43-1.882 21.41-2.612 32.94-2.217l87.71 3.063zm229.2 7.998-49.95-1.737 3.769-107.6-95.97 104.4-69.8-2.442 113.7-117.5-97.17-108.9 65.31 2.287 84.77 97.2 3.278-94.14 49.95 1.747zm46.66-207.4c9.9-8.193 20.9-13.9 32.97-17.12 12.08-3.213 24.52-4.584 37.33-4.139 11.1.3804 21.83 2.312 32.18 5.756 10.34 3.478 19.43 8.428 27.22 14.9 7.782 6.486 13.93 14.39 18.39 23.73 4.479 9.344 6.521 20.09 6.106 32.27-.4554 12.59-3.423 22.63-8.909 30.14-5.505 7.487-12.28 13.45-20.35 17.87-8.048 4.429-16.72 7.862-26 10.32-9.264 2.447-17.9 4.925-25.9 7.417-7.988 2.507-14.67 5.64-20.04 9.409-5.365 3.764-8.173 9.059-8.408 15.89-.1402 4.064.7557 7.612 2.668 10.68 1.942 3.068 4.519 5.615 7.762 7.647 3.233 2.032 6.917 3.608 11.05 4.72 4.124 1.096 8.223 1.717 12.27 1.862 8.328.2902 16.45-1.296 24.38-4.76 7.933-3.463 14.55-8.523 19.91-15.17l34.18 40.29c-11.23 9.664-23.23 16.52-35.97 20.54-12.75 4.044-26.49 5.811-41.22 5.29-11.74-.4054-22.84-2.282-33.3-5.646-10.46-3.353-19.58-8.263-27.37-14.73-7.788-6.466-13.87-14.48-18.24-24.04-4.364-9.554-6.326-20.62-5.896-33.23.4605-13.23 3.388-23.71 8.794-31.42 5.405-7.712 12.08-13.78 20.02-18.21 7.968-4.424 16.46-7.768 25.52-10.01 9.069-2.247 17.53-4.524 25.4-6.807 7.888-2.297 14.45-5.16 19.7-8.613 5.255-3.443 8.008-8.583 8.228-15.41.1502-4.274-.7858-7.943-2.813-11-2.032-3.058-4.73-5.55-8.078-7.497-3.343-1.927-6.942-3.393-10.75-4.379-3.804-.9859-7.527-1.552-11.17-1.667-6.176-.2202-12.79.7758-19.81 2.988-7.022 2.217-12.65 5.811-16.88 10.8zm421.7 223.7-49.94-1.742 3.078-88.36-94.45-3.303 1.607-46.09 94.45 3.293 1.612-46.11-102.1-3.564 1.602-46.11 152.1 5.32zm228.6-134.6c-2.983-9.084-7.472-16.99-13.43-23.71-5.966-6.726-13.2-12.05-21.72-15.99s-18.11-6.081-28.78-6.451c-10.68-.3703-20.4 1.101-29.18 4.429-8.758 3.323-16.36 8.133-22.77 14.43-6.416 6.291-11.44 13.86-15.06 22.72-3.628 8.838-5.61 18.5-5.981 28.95-.3704 10.69.9409 20.49 3.929 29.48 3.018 8.964 7.492 16.82 13.45 23.54 5.971 6.736 13.21 12.05 21.72 15.99 8.523 3.934 18.13 6.086 28.8 6.451 10.67.3703 20.38-1.106 29.15-4.429 8.784-3.323 16.37-8.138 22.78-14.44 6.421-6.281 11.44-13.8 15.05-22.55s5.615-18.45 5.986-29.12c.3604-10.47-.9509-20.23-3.949-29.31m44.96 80.1c-6.596 14.51-15.51 26.77-26.76 36.74-11.25 9.964-24.44 17.47-39.58 22.5-15.13 5.025-31.56 7.227-49.27 6.611-17.72-.6156-33.95-3.964-48.69-10.03-14.74-6.066-27.39-14.46-37.91-25.2-10.53-10.74-18.57-23.56-24.14-38.51-5.555-14.93-8.028-31.48-7.402-49.62.6406-18.14 4.259-34.47 10.85-48.98 6.596-14.52 15.52-26.76 26.76-36.74 11.27-9.96 24.44-17.46 39.58-22.49 15.14-5.02 31.57-7.232 49.26-6.616 17.73.6306 33.96 3.969 48.71 10.04 14.73 6.076 27.38 14.47 37.9 25.2 10.52 10.73 18.56 23.56 24.14 38.51 5.56 14.92 8.028 31.48 7.402 49.61-.6356 18.14-4.254 34.48-10.86 48.99m158.7-115-32.65-1.146c-4.484-.1452-9.074 0-13.8.4854-4.71.4755-8.914 1.562-12.61 3.233-3.689 1.687-6.772 4.214-9.244 7.532-2.467 3.333-3.809 7.893-4.019 13.65-.2002 6.201.9609 11.05 3.503 14.55 2.562 3.513 5.831 6.131 9.834 7.878 4.004 1.742 8.498 2.863 13.5 3.353 5.01.5004 9.754.8157 14.23.9859l29.46 1.016zm43.51 186.2-49.94-1.747 3.178-90.61-24.66-.8608-50.55 88.96-59.87-2.102 60.97-93.72c-15.9-3.548-27.82-11.07-35.75-22.56-7.928-11.51-11.62-25.25-11.06-41.25.4554-13.25 3.148-24.2 8.038-32.9 4.9-8.688 11.33-15.52 19.3-20.48 7.968-4.95 17.18-8.368 27.62-10.25 10.42-1.882 21.41-2.622 32.93-2.222l87.72 3.073zm397 13.86-49.94-1.747 6.061-173.8-.6356-.03-63.38 171.9-38.11-1.326-53.49-175.9-.6306-.02-6.071 173.9-49.94-1.752 7.908-226.7 75.25 2.628 47.35 149.7.6256.025 57.36-146.1 75.56 2.638zm199.8 6.972-159.8-5.58 1.597-46.1 109.8 3.839 1.607-46.1-98.29-3.428 1.622-46.1 98.29 3.428 1.471-42.26-104.1-3.638 1.612-46.09 154 5.375z"/>
    <g fill="#009a93">
        <path d="m2141 939.9c-2.287 4.074-4.594 8.133-7.227 12.79-.7857-6.481-.4354-7.187 7.227-12.79m-19.97-9.219c10.03 3.674 10.03 3.674 6.561 12.44-5.575-1.957-4.62-6.997-6.561-12.44m42.96-13.21c-1.286 6.346-6.742 14.85-12.16 19.57 1.086-8.438 4.464-14.26 12.16-19.57m-14.95 81.62c-2.828-1.506-5.16-2.748-7.457-3.959-.1702-9.549 1.091-10.93 10.74-10.48-.9659-7.988-1.922-15.85-2.858-23.69 4.349-.7557 4.895 1.637 5.55 4.114.9259 3.623 2.017 7.202 3.313 11.75-2.673 6.426-5.906 14.16-9.284 22.26m59.43 100.9c-5.515-1.586-10.61-1.737-13.7-4.289-4.044-3.353-6.651-8.533-9.554-13.15-.6356-1.026-.4405-3.288.2953-4.349 1.401-2.032 3.919-3.899 1.942-6.391-1.657-2.092-4.149-3.684-6.566-4.945-1.562-.8008-3.664-.4404-5.465-.8708-6.882-1.662-9.054-6.676-5.921-13.23.7458-1.562 1.121-3.278 1.912-5.66h-6.797c-.7857-10.66-8.568-20.06-1.722-31.21 2.723-4.419 5.475-10.48 1.927-17.43-1.096 2.242-1.862 3.774-2.622 5.285-.4905-.2552-1.361-.4604-1.401-.7807-.2953-2.142-.9309-4.409-.4905-6.426 1.421-6.486 3.298-12.87 4.915-19.32 1.221-4.85 1.872-9.094-2.317-13.69-3.518-3.844-5.11-9.034-4.159-15.33 2.047-13.72 1.441-13.81 8.313-25.52 2.622-.2602 5.585-.5706 8.448-.8608v-25.19c-1.592-.6957-3.814-1.647-6.401-2.778-1.617 2.127-2.868 4.239-4.544 5.916-4.474 4.399-6.441 9.935-8.643 15.69-2.823 7.317-7.272 14.01-11.14 21.19-5.625-5.886-6.231-9.594-2.502-16.05 3.538-6.116 7.227-12.18 11.21-18.05 1.481-2.212 3.628-4.329 5.966-5.535 4.449-2.307 5.645-5.966 6.426-11.25-2.502 1.562-4.229 2.623-6.301 3.914-1.617-1.246-3.273-2.532-5.505-4.254 2.347-3.523-.2553-9.094 5.635-11.61 2.282 1.441 4.579 2.898 7.462 4.725 3.919-5.675 8.964-10.13 6.992-18.67-1.762-7.637 6.356-14.27 15.36-13.86 2.417-9.829 7.908-17.62 15.85-23.93 8.929-7.107 17.57-14.55 26.38-21.82 4.69-3.869 9.194-8.023 14.27-11.29 2.352-1.516 5.891-1.667 8.854-1.572 2.948.0851 4.97-.3754 7.452-2.352 4.95-3.934 10.58-7.062 16.1-10.22 1.051-.6106 3.553-.4805 4.239.3053 7.832 9.044 18.23 5.485 27.8 5.976.5855.03 1.171.1201 2.457.2703-.1101 2.272-.2402 4.589-.3453 6.827 6.441 7.457 11.36-1.416 18.06-2.157-.9609 2.277-1.562 3.709-2.392 5.655 6.436 1.556 9.734-2.287 13.04-6.476-1.797-1.922-3.448-3.674-5.595-5.971 2.292-2.097 4.004-4.394 6.281-5.63 8.288-4.454 16.88-8.333 24.6-13.8 1.006-.7057 2.978-.3603 4.419-.0751 6.066 1.216 12.17 2.297 18.1 3.979 6.556 1.877 10.99-2.753 16.29-4.649 2.172-.7908 12.94-5.726 15.38-6.281.8158-.1952 1.817-.5255 2.297-1.131 5.821-7.402 13-8.133 21.34-4.955 1.482.5655 3.558-.3954 6.126-.7507.6907-7.637 1.356-15.03 2.057-23.01 5.891 1.111 3.023 12.01 11.33 11.78.4254-1.241.9559-2.793 1.667-4.875 1.131.6206 2.362.9559 3.063 1.772 2.688 3.163 4.064 7.878 10.35 7.717.4555-2.447.9159-4.935 1.411-7.642.8108.1702 1.862.0751 2.447.5656 1.912 1.562 3.654 3.358 5.485 5.04 1.126 1.041 2.312 2.898 3.503 2.913 8.999.1201 16.46 5.13 25.25 8.678v-7.888c3.859 1.041 7.212 1.947 10.29 2.788 5.43-5.285 1.566-11.62 2.793-18.19 2.888 1.902 5.035 3.318 7.768 5.11 1.787-1.036 4.74-1.722 5.776-3.503 2.592-4.529 5.936-6.016 10.79-4.725 5.31 1.421 10.1 3.368 10.87 9.849.1452 1.176.8658 2.272 1.552 3.994 1.757-.2002 3.458-.6806 5.095-.5005 4.504.5205 6.651 3.183 7.983 7.647 2.838 9.454 6.546 18.64 9.729 27.98 2.763 8.028 10.6 9.905 16.77 13.36 6.116 3.423 8.909 7.863 7.597 14.29-1.216 5.956-3.538 11.69-5.44 17.52-1.596 4.935-5.005 9.97-4.65 14.74 1.301 17.55-11.26 27.71-23.76 32.94-6.231 2.608-12.65 3.608-19.06 1.281-5.45-1.962-9.639-.5205-13.57 3.223-2.447 2.362-5.34 4.314-7.602 6.837-8.008 9.014-18.31 12.34-29.93 12.42-22.33.1652-44.67.2352-67.01.2502-15.89.01-30.55 4.72-44.68 11.45-6.151 2.918-12.22 6.061-18.34 9.104-5.575 2.778-10.21 6.401-14.54 11.16-4.454 4.915-10.76 8.243-16.51 11.87-5.295 3.323-8.638 6.942-9.089 13.91-.3553 5.575.7207 12.95-6.852 15.95-.4154.1602-.8057 1.111-.7307 1.632.961 7.777-4.349 14.26-4.694 21.46-.3303 6.566.4454 14.13 3.568 19.67 5.215 9.279 10.06 18.29 10 29.28 4.229.4704 7.903.6256 11.5 1.321 9.084 1.807 9.309 1.702 8.728-8.053 1.562.9809 3.228 1.441 3.874 2.512 6.031 10.15 17.09 11.56 26.69 15.47 1.141.4604 3.333.04 4.194-.8208 5.095-5.05 11.07-4.86 17.39-3.608.8258.1702 1.777-.2852 3.198-.5455v-7.888c.3454-.3053.7207-.9609 1.231-1.091 9.905-2.292 19.8-4.519 29.72-6.782 20.84-4.765 41.62-9.955 62.58-14.14 12.45-2.487 25.06-.8208 39.11 1.421-2.938 3.493-4.755 5.67-6.822 8.138 1.982 2.372 3.884 4.65 6.506 7.778-5.07 1.281-9.159 2.592-13.34 3.298-9.329 1.592-15.85 8.068-23.28 12.97-.4755.3103-.9409.9409-1.036 1.496-1.787 9.774-9.529 13.74-17.01 18.36-4.079 2.542-7.222 6.666-10.62 10.21-10.51 10.92-22.98 20.65-30.84 33.24-7.202 11.48-18.07 18.02-26.69 27.33-10.25 11.01-21.4 21.23-32.63 31.25-3.533 3.163-8.378 5.62-13 6.616-6.301 1.366-10.21 5.28-14.5 10.27-1.546-1.992-2.768-3.563-4.579-5.891-3.483 2.452-7.042 5-10.68 7.407-.7607.5054-1.902.5455-2.883.6306-5.665.5655-11.37 1.086-17.05 1.626-6.421.5756-12.73 2.628-19.32.4254-2.512-.8358-5.525-.055-8.273-.3353-3.288-.3253-6.526-.9959-11.15-1.742 5.305-5.315 11.22-1.862 16.35-5.04-4.104-1.827-7.702-3.438-11.29-5.04.1351-.4604.2852-.9159.4204-1.366 12.44.9559 24.89 1.902 37.34 2.838.07-.6456.1352-1.326.1952-1.982-3.989-.3653-8.008-.6105-11.99-1.101-12.55-1.572-25.07-3.533-37.65-4.755-8.733-.8408-15.13-6.556-22.75-9.694-15.21-6.316-25.98-18.7-37.35-29.85-6.186-6.071-9.875-14.73-14.48-22.38-1.391-2.312-2.042-5.065-2.537-6.326"/>
        <path d="m941 867.6c-.6957.4154-1.411.8458-2.137 1.276-.2903-.6556-.5756-1.306-.8658-1.967.7808-.3403 1.562-.6706 2.342-1.011.1852.4955.3754.9809.6606 1.702m108.1-95.85c-.6757.5555-1.276 1.166-1.982 1.562-.1602.0751-.7357-.6306-1.121-.991.5805-.6006 1.121-1.251 1.772-1.767.055-.045.7307.6556 1.331 1.196m-242.4 317.2c.6957.4304 1.386.8508 2.077 1.266.2953-.5155.9659-1.256.8308-1.471-.4154-.6356-1.161-1.071-1.777-1.592-.3153.5005-.6206.9909-1.131 1.797m340 224c-.5456 1.181-1.036 1.837-1.131 2.552-.035.4104.5455.9109.8358 1.356.6106-.4855 1.602-.9009 1.707-1.481.1001-.5556-.7007-1.281-1.411-2.427m-281.5 70.85c-.2803.6556-.6206 1.301-.7407 1.982-.025.1301 1.186.7057 1.301.5805.5055-.5355.8108-1.246 1.176-1.897-.4704-.1852-.9509-.3704-1.737-.6656m-105.1-127c.4955.2002.986.3804 1.471.5756.3954-1.146.8058-2.277 1.106-3.443.02-.06-.9559-.3604-1.461-.5456-.3804 1.136-.7457 2.287-1.116 3.413m-118.5 55.67c-.7207.3353-1.431.6557-2.147.966.6256 1.436 1.256 2.878 1.882 4.309.4905-.1802.9809-.3403 1.471-.5205-.3954-1.582-.8058-3.168-1.206-4.755m64.27-37.68c.2803.2953.5605.5806.8458.8659 1.206-1.061 2.407-2.137 3.613-3.198-.3704-.3904-.7307-.7757-1.106-1.151-1.116 1.156-2.232 2.327-3.353 3.483m257.7 121.9c-1.421-1.131-2.297-2.347-3.108-2.292-.7607.035-2.072 1.426-2.032 2.167.045.8509 1.226 2.137 2.082 2.287.7057.1252 1.657-1.116 3.058-2.162m-96.53-388.4c.5656-3.438.9259-5.235 1.071-7.062 0-.1101-1.812-.8007-2.307-.4804-2.582 1.682-2.257 3.694 1.236 7.542m-74.13 94.38c-3.919 3.258-3.919 3.258-.6706 8.018.2602-3.128.4404-5.265.6706-8.018m-68.66 153.9c-7.612 6.446-7.612 6.446-1.637 11.49.4805-3.328.9509-6.641 1.637-11.49m120.8 160.5c4.73 5.906 4.73 5.906 11.06 2.177-4.199-.8308-7.192-1.411-11.06-2.177m69.05-324.5c.6656-.6406 1.316-1.246 1.977-1.877-2.312-2.658-4.624-5.305-7.777-8.914-2.447 8.183 2.237 9.034 5.801 10.79m49.06 324.3c.0951.7507.1852 1.516.3053 2.267 5.365-.7257 10.75-1.436 16.14-2.177-.1001-.7107-.1902-1.396-.2753-2.112-5.4.6606-10.79 1.346-16.17 2.022m-34.12-118.8c3.638-2.447 9.434-.4454 12.02-6.386-9.389-.8658-9.389-.8658-12.02 6.386m-78.62-48.68h-7.312c7.627 6.842-.5756 13.63 2.317 22.26 3.854-8.198 4.189-14.96 4.995-22.26m38.56 41.3c4.369.2602 7.292.4304 10.05.5855.6256 2.152 1.096 3.854 1.827 6.371 2.562-1.822 4.634-3.293 6.616-4.725-3.829-6.947-3.829-6.947-14.4-12.16-1.156 2.788-2.287 5.55-4.094 9.93m250.9 14.84c7.417 2.693 14.41.7907 18.29-4.735 2.327-3.313.3504-5.535-1.967-7.357-7.868.8609-12.11 5.736-16.33 12.09m-233.8-38.14c1.712 2.688 4.479 5.27 4.835 8.133.3403 2.853-1.732 6.016-2.963 9.699 1.366 1.612 3.108 3.669 4.064 4.8 7.282-2.477 12.95-4.409 18.87-6.426-2.302-10.89-12.53-4.364-17.29-8.458-.8008-5.315 3.739-4.755 6.541-5.911-5.23-6.006-5.59-6.051-14.06-1.837m-105.8-242.7c-8.673 4.85-8.433 12.74-8.163 21.13.2302 7.202-.9559 14.44-1.516 21.66h-6.461v19.67c3.233-7.828 3.984-15.06 10.05-19.83 2.477-1.942 3.664-6.361 4.139-9.844 1.416-10.23 2.217-20.55 3.143-30.85.0601-.6907-.8858-1.482-1.191-1.932m74.65 389c-1.036 6.226.0751 7.562 4.559 6.331 4.099-1.131 8.253-2.152 12.41-3.038 4.239-.9008 9.324-.4054 12.58-2.622 7.117-4.855 14.99-5.971 22.92-6.571 5.771-.4354 9.209-2.532 11.26-8.523-7.042 1.051-15.19-.01-19.95 3.533-5.921 4.404-14.19.8358-18.45 7.452-6.571-3.708-10.32-2.918-14.76 2.608-.996 1.226-2.968 2.232-4.519 2.302-1.982.07-4.009-.9309-6.051-1.471m33.92-26.51c1.511-1.171 1.937-1.722 2.482-1.892 2.693-.7958 5.991-1.451 5.425-5.045-.6406-4.119-4.454-3.869-7.457-3.588-5.525.5105-11 1.957-16.52 2.147-7.702.2602-10.7 5.355-12.88 11.37-.9809 2.713-1.131 5.736-1.772 9.259h13.37c.04-.4704.0951-.9359.1301-1.391-1.872-.5005-3.749-1.011-6.742-1.817 3.644-2.357 6.326-4.114 8.974-5.826 4.685 6.176 4.624 6.016 12.04 4.019 2.362-.6406 5.05-.095 8.098-.095-1.802-2.522-3.343-4.64-5.15-7.137m-4.034-239.1c3.834 11.3 7.062 20.82 10.29 30.33.5355-10.87-1.026-21.57-.3554-32.12.5906-9.504-2.608-17.26-6.621-26.51-.9259 3.784-1.516 6.226-2.072 8.568-8.869-.3954-4.369-9.114-8.278-12.78-4.384 9.699-2.447 27.75 4.559 38.75.8158-2.047 1.471-3.694 2.472-6.236m109.2-101.7c-5.085-3.193-5.085-3.408-14.62-2.983-10.41.4505-20.99-1.572-31.15 2.723-2.167.9009-5.275-.3803-7.928-.7357-6.987-.9509-13.93-2.202-20.94-2.808-2.447-.2102-5.035 1.126-10.55 2.497 9.679 4.64 7.082 9.774 4.735 15.12-5.926 13.48-11.63 27.04-17.61 40.99-2.567-.1652-5.505.3903-5.63 5.075-.1201 5.34.6156 10.23 3.023 15.24 7.627 15.77 19.36 29.85 20.41 48.35.5355 9.259.9709 18.53 1.316 27.8.3203 8.658.3754 17.31.7708 25.96.2652 5.535 1.376 11.05 1.356 16.58-.0501 11.9.7808 23.49 8.028 33.33-.5355 3.974-8.143 5.936-2.307 11.18 7.252-3.108 14.68-6.121 21.95-9.489 3.834-1.767 7.292-4.334 11.08-6.161 3.528-1.682 7.177-3.343 10.95-4.159 2.933-.6406 5.21 2.958 3.638 5.605-.991 1.697-2.968 3.018-4.765 3.994-2.713 1.482-6.696 1.747-8.293 3.894-4.484 6.021-11.09 5.931-17.2 7.402-3.298.7958-6.822.7407-10.03 1.727-1.481.4454-2.507 2.417-3.759 3.684.3954.5656.7808 1.126 1.166 1.682 1.837-.6156 3.644-1.426 5.535-1.827 2.017-.4454 4.915-1.506 6.026-.5956 5.02 4.169 9.749 1.697 13.79-.6956 5.941-3.513 13.58-5.01 16.84-12.65 5.705 3.508 10.75 2.397 16.18-1.356 8.854-6.131 18.27-11.46 27.39-17.19 7.247-4.579 14.44-9.254 21.62-13.97 1.241-.8208 2.863-1.937 3.163-3.193 1.977-7.768 8.804-10.66 14.37-14.81 6.922-5.155 14.92-9.334 20.51-15.67 4.369-4.93 8.698-9.474 14.29-12.73 14.56-8.493 25.88-20.97 38.85-31.41 7.382-5.946 7.232-7.392 2.748-16.08 5.58-4.624 15.62-5.42 15.62-16.09-6.872-5.155-10.95 5.736-17.81 3.153-2.863-3.508-.055-5.29 2.713-7.692 9.729-8.438 21.06-15.77 22.82-30.57-3.163 1.156-6.206 2.277-9.024 3.303-4.69-6.586 3.308-10.34 2.532-16.61-12.48-.1852-15.56 10.62-21.61 19.79 1.131-12.21 1.942-22.45 3.128-32.65.2252-1.997 2.187-3.754 2.823-5.776.4755-1.486.1001-3.243.1001-6.872-2.092 2.578-3.423 3.538-3.799 4.79-1.762 5.776-3.058 11.69-4.875 17.45-.8107 2.542-2.322 4.9-3.739 7.202-.3353.5256-1.616.4605-2.392.6607-.9859-2.317-1.892-4.419-3.163-7.402-10.24 7.973-11.37 22.61-23.88 27.3 3.338-5.79 7.422-11 11.44-16.28 7.117-9.339 10.89-20.06 12.1-31.6.2552-2.517-.4054-6.436-2.082-7.572-3.959-2.652-8.849-5.716-13.27-5.59-17.02.4804-34.1 1.451-50.99 3.583-18.17 2.292-35.57 8.223-52.83 14.37-3.153 1.126-6.476 3.138-9.464-.07-3.043-3.243-2.017-6.822-.2352-10.35.3553-.7157.2552-1.667.3353-2.397-2.032-.7557-3.699-1.376-6.131-2.292 5.711-3.949 13.17.3153 16.74-6.146m-258.1 201.5c3.038-1.231 6.086-2.467 9.124-3.708-5.495-4.71-7.197-3.964-8.889 3.974-1.476-.8608-2.948-1.717-6.056-3.518 1.782 3.253 2.768 5.055 4.584 8.368.7057-2.943.9659-4.019 1.236-5.115m127.8-65.98c1.196 2.592 2.372 5.2 4.184 9.119 3.333-16.24 5.891-30.99 4.179-46.45-.6706-5.991.7157-11.68-3.458-17.38-2.002-2.753-.3453-8.173-.3453-12.95 1.657.2652 3.153.5104 5.27.8658 0-7.973.04-15.64-.015-23.3-.035-7.157 5.781-12.92 3.543-21.94-3.198-3.433-7.963-8.193-6.361-16.03.3503-1.687-1.697-3.854-2.648-5.801-.7707.1101-1.536.2352-2.302.3553-.6156 3.493-1.101 7.012-1.877 10.49-1.036 4.63-.1051 9.935-5.165 13.29-1.316.8809-.8908 4.094-1.777 5.996-1.346 2.873-1.286 7.037-5.866 7.412l.3153.2652c1.176-7.037 1.952-14.15 3.623-21.06 2.337-9.674-1.712-18.81-1.617-28.29.02-2.062-2.918-4.154-4.604-6.391-6.631 3.303-5.49 9.379-7.467 15.56-1.256-2.467-2.603-3.844-2.482-5.075.4955-5.5 1.922-10.97 2.052-16.48.1752-7.632-.5305-15.29-.8308-22.94-.0601-1.491 0-2.983 0-5.155 2.793.1802 4.985.3003 7.247.4204-3.874-7.722-7.672-15.3-12-23.95 5.435-1.516 9.459-2.638 13.13-3.644 1.882-4.344 4.029-8.418 5.42-12.75.9059-2.863 1.752-6.431.8458-9.069-2.117-6.091-.0951-10.74 3.128-15.51 1.196-1.782 1.932-3.899 2.678-5.936 3.338-9.154 7.492-17.55 18.81-20 .7157 1.456 1.582 3.273 2.913 5.976 1.006-1.917 2.738-3.944 2.327-4.639-3.078-5.095.0651-8.088 3.238-11.15 8.658-8.393 16.9-17.54 29.24-20.45 4.68-1.101 9.849-1.506 14.57-.7507 4.249.6857 6.957-.2652 10.03-2.878 3.473-2.948 7.487-5.265 11.31-7.818 6.421-4.284 13.09-8.238 19.25-12.88 7.372-5.54 14.31-11.37 22.98-15.3 6.827-3.078 12.27-9.244 18.3-14.07.4705-.3804.9559-.9409 1.071-1.491 2.598-13.09 14.43-20.18 20.18-31.2.8308-1.582 2.017-3.078 2.452-4.755 1.466-5.876 4.539-9.379 10.16-12.73 7.167-4.249 13.49-10.58 16.12-19.66 1.592-5.525 4.179-10.59 3.193-16.7-.3403-2.112 1.136-4.72 2.302-6.807 1.802-3.238 4.294-6.111 6.031-9.379 1.977-3.734 5.761-7.968 2.708-11.94-3.303-4.319-8.058-7.437-14.48-6.611-16.03 2.087-31.79 5.25-47.09 10.57-8.493 2.948-17.02 5.796-25.44 8.919-11.54 4.284-23.67 4.74-35.68 5.906-15.43 1.506-30.88 2.678-46.31 4.069-13.17 1.181-26.02-.3353-38.57-4.379-5.395-1.747-10.71-1.982-16.45-1.386-6.331.6506-13.05.1251-19.25-1.361-7.182-1.712-13.95-5.105-20.94-7.627-8.728-3.153-17.34-6.797-26.28-9.124-17.32-4.509-30.21-14.91-38.5-30.03-4.349-7.933-8.703-17.53-1.166-27.05 1.727-2.192 1.782-5.906 2.152-8.959 1.637-13.95 9.744-23.76 20.27-32.05 1.456-1.151 3.618-1.752 4.514-3.203 4.399-7.047 10.51-10.8 18.78-11.94 2.072-.2853 3.729-3.543 6.351-6.231 2.748.8108 6.216 1.952 9.749 2.848 5.685 1.466 11.37 3.063 17.14 4.044 4.599.7808 9.164.5956 13.18-2.808 1.767-1.501 4.464-2.502 6.797-2.618 18.09-.9209 33.08-11.43 50.02-15.88 19.77-5.19 39.38-11.1 59.15-16.31 16.44-4.339 33.03-8.163 49.57-12.16 2.087-.5055 4.259-.8859 6.401-.9659 9.269-.3854 18.53-.5656 27.79-.996 2.122-.0951 4.374-.5856 6.246-1.501 6.912-3.373 14.24-3.944 21.75-4.279 4.915-.2252 9.81-2.062 14.67-1.902 12.63.4204 25.22 1.526 37.27 6.026 6.626 2.477 13.09 2.392 19.61-1.356 6.692-3.854 13.59-8.248 20.94-9.86 18.01-3.939 36.17-4.434 53.87 2.693 3.548 1.431 7.742 2.022 11.58 1.847 10.3-.4905 19.38 2.983 28 7.888 3.598 2.057 4.674 5.896 3.583 9.799-1.351 4.89.3353 8.143 3.934 11.42 5.395 4.935 8.528 12.46 16.64 14.23l-.01-.02c1.146 6.101 5.66 8.708 11.03 9.9 5.395 1.181 8.804 4.454 10.93 9.184 2.157 4.785 4.604 9.569 5.801 14.61 3.538 15.03 7.983 29.95 6.546 45.73-.9259 10.17-.2152 20.65-2.362 30.53-5.716 26.27-12.51 52.32-25.07 76.41-7.157 13.7-13.57 27.82-21.15 41.26-14.08 24.98-32.04 47.09-52.45 67.18-7.928 7.833-16.18 15.35-24.24 23.05-1.071 1.026-1.882 2.307-3.333 4.094 8.068 6.081 16.33 10.7 25.44 13.79 1.752.6106 3.854.6306 5.295 1.627 14.21 9.88 31.26 13.27 46.7 20.33 8.383 3.824 13.3 9.739 15.99 18.06.4704 1.411.9008 3.143.5255 4.509-4.144 15.02.055 27.59 10.62 38.65 2.467 2.602 4.144 6.206 5.45 9.624 3.944 10.38 7.507 20.93 11.25 31.38 1.176 3.303 1.612 6.331-.035 9.82-2.628 5.555-2.112 10.58 1.126 16.57 2.848 5.255 2.958 12.54 2.542 18.82-.2903 4.444-.1502 8.393.9609 12.65 1.301 5.045 1.572 10.33 2.392 16.15-7.327.8358-7.782 5.891-8.448 11.43-2.082 17.63-6.246 34.81-14.43 50.66-8.398 16.22-17.03 32.34-26.08 48.22-3.028 5.305-7.532 9.814-11.6 14.49-2.297 2.662-5.18 3.533-7.988.4905-3.543-3.874-6.752-3.268-10.29.1851-3.964 3.869-10.54 5.28-10.62 12.75-.015 1.562-3.523 3.088-5.69 4.87-2.598-1.231-4.99-2.362-7.718-3.668-2.823 3.879-3.668 10.13-10.74 8.183-.8658-.2552-3.108 2.562-3.889 4.319-1.722 3.869-2.988 7.958-4.334 11.99-2.568 7.742-2.532 7.752-10.61 7.452-6.571 7.217-11.08 19.19-25.33 11.84v9.854c-4.049.4504-9.359-2.703-11 4.364-.4154 1.787-5.445 2.517-8.543 3.809 3.618 5.1 7.973 4.329 13.37 2.287-2.247 4.845-5.665 6.151-8.783 5.871-9.074-.8658-14.52 3.388-17.97 11.19l.065.1952c-2.457-14.42-3.678-15.5-18.27-16.11-1.221-.05-2.467-.1752-3.704-.2703-9.104-.7357-10.06-2.482-6.351-11.56 6.806-1.952 4.554 5.025 7.822 8.008 8.013-6.341 16.06-12.72 24.1-19.09-.2803-.5905-.5705-1.171-.8558-1.772-2.172.2853-4.349.5455-7.167.9109-.3503-1.687-.7057-3.338-1.186-5.6-3.503 2.132-6.826 4.154-10.76 6.561.6806 2.277 1.391 4.704 2.042 6.962-3.133 2.798-5.13 1.522-7.672-.2752-8.023-5.686-13.93-2.638-14.76 7.202-.2402 2.913-1.071 5.796-1.787 9.524-10.51-4.98-18.15-.2052-26.05 4.649-7.307 4.484-15.19 8.028-22.62 12.36-2.502 1.456-4.399 4.034-6.571 6.091l.2503-.2703c-1.441.5306-3.003.9059-4.329 1.647-9.464 5.275-19.07 10.08-29.93 11.97-2.648.4554-5.025 2.322-7.582 3.388-2.257.9509-4.704 2.592-6.902 2.352-9.284-1.021-17.52 3.008-26.19 4.82-5.125 1.071-10.3 2.778-14.29-2.317-6.496 8.904-8.964 9.509-19.72 5.055-2.292 7.417-10.36 4.629-15.97 9.139.2753 2.898.5956 6.416.991 10.55-1.336.9259-3.143 2.187-4.945 3.438.1802.5556.3704 1.126.5555 1.692 6.837-.8007 13.67-1.592 20.75-2.422.5105-2.437.8308-4.199 1.256-5.926 1.697-6.792 7.512-10.83 14.36-9.754 1.026.1502 2.587 1.261 2.693 2.062.1602 1.256-.3704 3.473-1.216 3.849-3.298 1.381-6.822 2.202-10.43 3.839 5.61-.3103 10.05 1.476 12.59 6.291 2.497-.5305 4.514-.9459 7.487-1.582.3203 3.503.6056 6.436.9709 10.56 3.959-.5055 8.673.04 12.08-1.812 5.145-2.818 9.499-2.868 14.95-1.291 7.027 2.032 14.05 1.576 19.62-4.529 1.832-2.007 4.464-3.248 7.162-5.14-1.662-3.734-3.468-7.818-5.585-12.57-1.732 2.838-2.592 5.946-4.559 6.987-2.117 1.131-5.26.2553-7.958.3654-3.709.1701-7.417.6206-11.13.5906-1.526-.01-3.048-.9359-4.614-2.973 4.179-1.416 8.363-2.823 13.11-4.419-.3403-2.893-.6506-5.736-.9809-8.663 4.654-.4905 8.838-1.131 13.05-1.311 3.428-.1551 6.922 4.129 8.023 8.834.8108 3.433 2.017 6.772 3.388 11.27 6.006-4.584 11.13-7.717 18.13-5.961 1.066 5.35-.6456 9.834-4.68 13.57-2.017 1.872-4.009 3.869-6.326 5.385-4.67 3.083-6.796 6.726-4.71 12.46.4404 1.241-1.221 3.238-2.222 5.615-3.889-5.495-6.952-9.784-10.28-14.48-.8308.2702-2.342.2952-2.998 1.046-3.899 4.599-9.244 5.901-14.7 7.197-2.072.5005-4.324 1.111-5.876 2.397-1.126.9609-2.042 3.343-1.647 4.66.3954 1.296 2.477 2.718 3.984 2.923 6.006.8558 9.864-2.202 11.72-9.804 3.739 2.387 7.157 4.539 12 7.632-9.294 3.699-17.32 7.117-25.53 10.11-12.67 4.654-26.14 6.706-38.62 12.2-5.695 2.502-12.43 2.547-18.6 4.044-7.127 1.747-14.16 3.849-21.23 5.826-.8859.2602-1.737.8959-2.623.9259-13.82.4454-26.45 7.617-40.49 7.107-2.903-.1051-6.131.9059-8.748 2.287-10.98 5.801-22.07 4.279-33.36 1.391-2.838-.7307-5.881-.6657-8.834-.991-2.122-.2502-4.309-.3303-6.356-.9059-6.116-1.662-12.15-3.638-18.28-5.2-1.186-.3053-2.713.6707-4.064 1.111-5.465 1.797-10.61 2.217-15.33-2.167-1.717-1.582-4.289-2.192-6.391-3.388-3.964-2.242-7.943-4.459-9.224-9.449-.3003-1.181-1.602-2.988-2.462-2.998-5.18-.035-4.765-3.919-5.39-7.162l-.2202.2652c.4855-2.037.9759-4.069 1.562-6.566-4.454-.2202-8.303-.3904-12.84-.6006 1.536-5.255 2.067-10.05 8.578-9.724.0851-7.712 2.317-14.51-.6706-21.7-1.231-2.968.5756-7.212 1.056-11.45-4.284-1.532-8.063-4.014-13.96-3.899-5.24.08-11.76-2.753-15.87-7.993-2.202-2.823-4.224-6.251-8.934-5.59-1.286.1902-3.258-.7607-4.079-1.817-6.506-8.363-15.44-8.558-24.77-7.923-6.421.4355-11.93-1.812-17.89-4.459-4.685-2.077-10.06-3.348-14.72-6.006-2.077-1.196-4.184-2.482-5.836-4.179-2.968-3.058-4.119-6.421.9809-9.414-9.234-4.96-9.604-13.89-12.43-21.31 3.894-4.354 6.581-.2052 10.47.3903-2.152-5.34-6.551-9.259-2.402-16 3.453-5.62 8.618-6.191 12.13-8.213.3604-5.355-.0851-9.914 1.126-14 1.652-5.64-1.777-8.924-4.539-12.38-2.487-3.088-4.86-5.665-1.782-10.56 2.587.6106 5.41 1.286 8.468 2.012.5856 5.14 2.442 8.428 6.746 11.48 3.418 2.417 4.204 8.563 6.867 14.7-2.422 1.161-4.935 2.357-9.129 4.359 6.947 2.648 11.15 4.249 16.38 6.246-1.271-5.505-2.848-9.809-3.128-14.22-.2653-4.269.8158-8.613 1.316-13.01-1.536-1.346-3.083-2.693-5.62-4.905 7.057-2.713 10.17-8.288 13.92-13.41 0 5.495-.4254 11.01.1201 16.44.5305 5.24-1.166 11.24 4.619 16.31.5255-4.7-.3153-9.799 6.606-10.26.2402 3.148.4955 6.311.7457 9.529 2.823 2.432 5.28 1.146 7.207-1.106 3.418-3.979 7.012-7.062 14.01-2.943-2.572-8.653-.6656-12.9 5.866-16.05 3.719-1.787 5.966-6.641 9.439-10.79 2.813 6.076-2.402 7.818-4.019 11.86 5.09 4.274.7557 9.819.02 15.16.6506.1101 1.316.2352 1.972.3453 2.572-5.335 6.126-10.45 7.467-16.08 1.311-5.515 8.919-8.448 5.981-15.98-2.062.1802-4.029.3253-5.981.4905.025-.6757-.1552-1.556.1201-1.752 3.744-2.668 7.222-6.106 11.4-7.632 8.243-3.023 10.28-9.609 11.76-16.95.5105-2.572 1.061-5.115 1.592-7.632 8.773 1.602 9.169 1.566 10.03 9.98.4755 4.589-.6907 9.364-1.281 15.77.4905 1.091 2.577 3.959 2.978 7.037.3904 2.883-2.908 6.351 2.352 9.079.9809-2.843 1.521-5.45 2.763-7.667 1.196-2.147 3.118-3.894 5.5-6.732-.4254-.8858-1.436-3.018-2.723-5.706 5.345-3.929 5.4-9.504 6.026-15.86 1.406-14.4 4.93-28.64 7.612-42.93.5105-2.733 1.992-5.58 1.541-8.123-1.526-8.583 1.321-16.56 2.653-24.74.9059-5.58 1.461-10.93-2.713-16.94-.8308 2.192-1.321 3.438-1.772 4.7-1.401 3.909-.4955 8.263-5.951 11.01-5.005 2.522-4.534 9.304-3.223 14.44 1.426 5.59-.035 9.074-4.274 12.97-6.346 5.846-7.983 14.24-9.844 23.28 2.227-.09 4.069-.1701 6.556-.2953-.2052 2.017-.3954 3.979-.6506 6.511-2.487-.1551-4.519-.2953-6.882-.4554-.9709 2.027-1.997 4.169-3.704 7.717-2.613-3.859-6.381-6.877-6.131-9.509.8108-8.593-1.466-17.66 3.664-25.76 1.902-3.003 3.368-6.566 1.637-10.61-.5255-1.206.6957-3.183 1.536-6.411 1.742 2.943 2.602 4.399 3.508 5.946 2.122-3.223 3.258-6.006.1001-9.684-1.416-1.662-1.702-5.5-.8308-7.672 1.466-3.689 3.969-6.802 2.512-11.26-.2552-.8108 1.907-2.788 3.293-3.638 1.326-.8258 3.123-.9009 4.885-2.898-1.952-.7757-3.894-1.566-5.896-2.382-.1652-.5305-.6606-1.251-.4755-1.667 2.227-4.75 2.933-9.624 3.348-14.94.7307-9.499 3.208-18.88 4.885-28.32.3804-2.062.7657-4.229.6206-6.296-.6456-8.929-1.501-17.83-2.247-26.74-.6256-7.372-1.196-14.74-1.887-23.39 3.488.2102 6.626.3854 10.38.6206-1.867-8.143 4.224-13.21 9.014-19.87 1.747 1.947 2.978 3.578 4.444 4.965 4.349 4.039 10.44 4.554 14.24 1.346 4.119-3.463 4.119-3.463 10.78-1.837 2.502 10 5.685 20.13-.4154 30.58 8.228 6.191 6.451 14.69 5.68 22.93-.6106 6.456-1.321 12.9-1.897 18.49 2.512 1.717 5.761 3.438 5.6 3.879-3.078 8.078 1.021 18.73-9.209 24.36 4.049 5.54 10.63 9.78 6.661 18.58-.7307-2.497-1.311-4.464-1.932-6.566-9.064 4.139-8.553 12.63-9.704 20.14-.6806 4.539-.5155 9.199-.8108 15.55-2.257-2.082-3.193-3.588-4.454-3.954-1.146-.3353-2.648.5505-3.974.8958.2953-6.646.5806-12.9.9309-20.52-.1501.06 1.131-.4955 2.427-1.061-.035-.5456.1602-1.371-.1151-1.602-4.389-3.568-3.418-7.522-.9409-11.59 1.682-2.768 3.223-5.465-2.012-8.008 1.121 6.381-5.7 9.459-3.829 16.79 1.351 5.305-2.227 11.82-3.468 17.83-1.246 6.046-2.768 12.08-3.348 18.2-.5806 6.106-.1201 12.31-.1201 18.84 1.612.6306 3.448 1.356 5.595 2.192-4.885 13.77-8.603 27.29-5.665 41.3-11.33 11.72-9.309 25.73-7.017 40.57-1.416-.2102-2.733-.3704-4.059-.5906-7.652-1.236-8.954.5205-6.131 8.308-5.24 3.228-5.24 3.228-10.93-3.068-1.006 3.478-1.897 6.566-2.918 10.08 3.729.3753 6.957-.1602 9.044 1.146 2.152 1.341 3.193 4.479 4.695 6.792 4.68-3.764 11.95-4.71 17.85-10.07-1.006-7.617 5.65-12.47 9.834-20.28 4.519 9.784 3.568 18.65 2.843 27.54 4.184-10.61 10.09-21.13.3253-32.66 1.767-.7357 3.278-1.376 4.905-2.032 1.962-5.956-4.519-5.48-7.362-9.429.8358-1.782 1.792-6.041 3.038-6.121 5.685-.3653 5.06-5.345 7.552-9.944 2.608 10.26-3.468 20.67 4.524 27.35-.8808 7.832-1.667 14.9-2.497 22.29 5.095-.951 6.286-4.67 7.487-8.078 3.654-10.39 5.09-11.46 16-10.73.9109.07 1.802.2502 3.048.4204 1.216 2.332 2.462 4.73 4.349 8.358 1.632-2.197 3.373-3.558 3.754-5.21 2.412-10.38 7.522-19.36 13.38-28.07 1.506-2.227 2.412-5.11 2.753-7.798 1.296-10.05 4.424-20.04.6506-30.29-.7657-2.077.1051-4.765.2152-7.197 2.337 3.298 4.454 6.291 6.566 9.279z"/>
        <path d="m1825 924.3c-2.107-2.307-4.214-4.619-6.421-7.032 12.09-8.813 13.83-8.758 24.07.7908-7.332-.3203-13.71.3103-17.82 6.391-.02.03.1752-.1502.1752-.1502m85.5 39.27c2.918-1.231 5.846-2.477 9.109-3.869 1.091 4.359-.02 6.741-4.86 5.866-1.431-.2602-2.673-1.441-4.039-2.167-.035.025-.2102.1702-.2102.1702m-27.18-59.13c-.9059-.2953-1.657-.6706-2.427-.7307-.3353-.02-.7307.6056-1.086.9359.7307.4154 1.401.9409 2.192 1.156.2402.0701.7257-.7307 1.321-1.361m-48.34 68.27c-.1401-.4855-.1451-1.206-.4704-1.401-.3654-.2102-1.016.045-1.526.1051.1852.6406.3804 1.281.5755 1.912.4705-.1952.951-.4154 1.421-.6156m-388.8 288.3c-.7207.2553-1.431.5205-2.147.7658.5855 1.386 1.176 2.748 1.772 4.119.5004-.2303 1.451-.5506 1.431-.6857-.2702-1.411-.6806-2.803-1.056-4.199m448.3-314.1c.3603-.6056.7207-1.206 1.086-1.807-2.227-1.111-4.459-2.242-6.676-3.353-.2853.5205-.5655 1.046-.8458 1.572 2.147 1.196 4.279 2.387 6.436 3.588m-462.5 426.5c-.5655-.065-1.111-.1351-1.672-.2002-.2753 1.767-.5455 3.538-.8308 5.315.6056.08 1.226.1452 1.832.2102.2252-1.762.4454-3.533.6706-5.325m398.2-484.5c2.798 3.238 5.901 5.28 10.05 2.863-3.348-.9559-6.701-1.907-10.05-2.863m93.58 36.79c.075-8.633-4.69-7.823-8.028-8.984-.4354.5856-.8708 1.146-1.306 1.727 2.588 2.022 5.2 4.039 9.334 7.257m-6.226 134.4c.9108-8.398.8608-8.378-6.782-11 2.562 4.139 4.279 6.927 6.782 11m-130.6-169.5c-.2353.6556-.4705 1.326-.7157 1.972 3.388 2.207 6.776 4.389 10.81 6.997 1.021-2.447 1.717-4.189 2.833-6.922-4.905-.7708-8.914-1.411-12.93-2.047m-380.4 387c-.7257 10.45-10.57 19.34-.8758 30.11.8959-4.379 2.397-8.008 2.127-11.5-.3203-4.129-.5054-7.772 1.942-11.39 1.782-2.673 1.231-5.185-3.193-7.222m392.2-292.3c-2.337-2.407-4.89-5.005-8.193-8.418-1.867 2.352-4.004 5.075-6.156 7.777-2.943.3003-5.886.6056-7.607.7708 1.857 3.523 3.709 7.032 5.555 10.54 3.984.8758 2.072-6.296 7.477-5.085 2.437.5505 5.946-3.593 8.924-5.58m-416.8 312.9c.1401 2.602.2803 5.22.4304 7.818 2.512-2.978 6.451-6.281-.7457-7.567 2.893-2.788 5.36-6.992 10.16-3.894.6856 5.095-7.272 8.538-1.071 13.99.9158-1.361 1.937-2.267 2.157-3.348 1.892-9.309 3.163-18.78 5.62-27.94 2.257-8.393-1.051-13.39-7.652-17.37-5.16 4.114-10.5 12.75-12.16 19.96-.2152.9159.6956 2.057 1.246 3.538 3.143-1.356 5.685-2.467 10.11-4.384-3.909 5.21-6.421 8.718-9.094 12.09-2.232 2.798-1.687 5.06.9909 7.102m465.9-268.6.2703.2803c-5.59-2.833-11.24-5.35-17.95-4.82-.6106 1.687-1.687 3.183-1.502 4.489.5155 3.764 7.017 3.333 6.236 8.388-.04.2602 1.526.7857 2.362 1.141.2552.1051.7107.1701.8859.03 4.754-3.503 9.444-.4905 14.21-.06 2.057.1802 4.254-1.051 7.517-1.947-4.159-4.344-6.041-9.184-12.03-7.502m-32.11 225c-.4455-.3253-1.041-1.026-1.341-.9259-13.81 4.99-28.53 7.692-41.48 16.62-.4054 9.124-6.656 13.58-15.46 15.53-5.616 1.241-5.616 1.241-9.83-4.399-6.932-2.452-11.34 4.204-18.15 3.664-6.361-.5005-12.97 1.827-19.26 4.93-5.605 2.778-12.49 2.958-19.42 4.394-1.677-2.798-3.343-5.57-5.255-8.788-4.765 2.718-9.434 4.144-14.97 3.173-2.542-.4454-5.696 1.762-8.388 3.148-2.968 1.526-5.585 3.744-8.573 5.22-12.3 6.021-23.45 14.28-36.73 18.4-1.602.5105-2.893 2.057-5.275 3.824 2.212 1.126 3.523 2.167 4.97 2.437 1.336.2502 3.543-1.036 4.144-.4254 3.163 3.133 6.361 2.462 10.24 1.612 6.496-1.436 8.038.8007 6.441 8.854-6.501-1.426-12.98-3.323-19.79-.7307-2.157.8208-5.225-.7658-8.378-1.371 1.186 2.973 2.147 5.375 3.313 8.283-2.327 1.431-4.8 4.109-6.316 3.654-5.45-1.612-9.329 1.246-12.9 3.944-4.714 3.554-8.939 1.276-12.7-.5955-4.419-2.197-8.033-2.437-12.43.3603 1.772 2.828 3.333 5.315 5.585 8.924-11.25 2.447-23.25-3.769-32.4 6.681-1.486-3.393-2.392-5.47-3.323-7.577-7.843-.1101-13.12 2.362-14.12 8.378-1.216 7.272-5.415 8.989-11.63 8.854-1.787-.035-3.594-.01-7.062-.01 1.997-3.553 3.393-6.046 5.185-9.254 1.672 1.191 2.898 2.492 4.384 3.003 3.994 1.346 7.017-1.236 4.895-4.409-3.123-4.67-.4154-6.246 2.678-7.758 4.429-2.137 8.984-4.179 13.71-5.52 10.38-2.993 20.91-5.565 31.41-8.163 2.052-.5005 4.349-.7107 6.381-.3053 4.209.8158 7.592-.1101 11.42-2.187 3.548-1.902 8.138-1.847 12.95-2.798-.3954-7.252 2.928-13.14 11.44-15.75-6.686-2.753-19.06 1.461-23.25 6.306-6.481 1.556-11.34 2.978-16.28 3.839-8.298 1.441-15.72 4.695-23.28 8.388-11.08 5.4-22.83 9.424-34.45 13.66-6.932 2.527-14.19 4.169-21.19 6.596-2.167.7507-3.909 2.733-5.856 4.164l.1902-.1051c-4.289-.5555-7.477-.8508-10.94 3.919-2.282 3.108-8.758 6.796-13.91 4.84-5.595-2.102-10.31.5004-15.37.8658-1.837.1301-3.954 2.547-5.16 4.424-3.438 5.385-6.556 10.96-13.46 15.15-1.962-4.7-3.648-8.778-5.806-13.96-8.038 1.827-16.85 4.129-25.78 5.776-7.888 1.476-15.89 2.648-23.88 3.188-7.457.5005-14.15 1.356-20.49 6.391-4.379 3.478-10.83 4.289-16.25 6.551-3.668 1.512-7.247 3.288-10.67 5.275-2.928 1.692-5.756 3.668-8.318 5.886-13.29 11.45-29.8 12.74-46.02 14.29-9.474.9209-16.8-5.155-24.43-9.799-7.788-4.715-10.78-12.18-12.37-20.56-.8208-4.279.3854-7.592 3.418-10.96 3.403-3.759 7.587-7.037 8.814-12.7.3753-1.712 4.189-2.898 6.601-3.899 1.857-.7607 3.994-.8358 7.728-1.562-7.492-4.92-8.473-11.39-9.079-18.61 5.595-.9959 9.569 3.233 14.39 4.439 1.922-2.192 5.966-2.673 4.424-7.647-.4504-1.491 4.134-4.534 5.65-6.101-.3754-4.93-1.226-9.304-.8308-13.56.1802-2.067 2.467-5.4 4.114-5.615 5.565-.7007 7.522-5.786 11.35-8.023 12.08-7.037 18.01-19.23 26.43-29.3 1.892-2.252 3.528-3.443 6.391-4.439 7.267-2.492 14.23-5.886 21.24-9.109 4.955-2.287 8.774-5.906 10.77-11.09 1.562-4.094 4.614-6.416 8.368-8.243 4.695-2.262 9.214-4.915 13.9-7.197 6.361-3.098 12.07-6.066 16-13.08 2.372-4.234 9.549-7.077 14.99-8.008 10.57-1.787 20.96-3.984 31.2-7.057.4605-.1152 1.116.3853 2.122.7607 2.232 7.022-1.972 11.23-7.252 15.05-1.421-.6506-3.038-1.376-5.195-2.327-1.091 2.427-2.052 4.59-2.843 6.351.2553.8558.2353 1.316.4204 1.421 11.83 6.661 5.46 18.01 6.847 27.27.7357 4.835.1402 9.88.1402 17.01 5.56-8.864.2552-19.83 10.11-24.58 2.392 2.397 4.95 4.955 9.004 8.979-.6056 3.554-1.867 8.929-2.322 14.37-.4554 5.32-.1001 10.74-.1001 16.29 4.74-.2002 5.17-3.799 6.226-6.406 2.748-6.892 5.275-13.91 7.647-20.94.6706-1.982 1.356-4.574.6356-6.326-4.144-10.13 1.341-19.39 2.242-29.02.1101-1.136.7707-2.788 1.616-3.178 6.236-2.773 5.866-8.173 5.46-13.44-.2803-3.729.8658-6.366 4.9-9.299.1902 2.758.5956 4.404.3604 5.956-.4054 2.723-1.546 5.365-1.737 8.103-.1902 2.768.1501 5.821 3.614 6.732 2.998.8057 5.971 1.626 8.288-1.787 1.977-2.908 4.424-5.515 7.682-9.474.8459 5.375.7508 9.129-.9058 12.62-2.863 6.031-7.833 11.66-2.392 18.69-2.628 8.168.8858 18.5-9.249 23.74 2.032 5.15 3.558 9.439 8.929 11.37 5.53 1.977 4.539 7.362 4.69 11.15 3.708 3.143 6.932 5.871 10.92 9.239 7.667-4.269 15.65-8.708 24.08-13.4-.8859-3.373-2.087-7.127 4.384-7.642 4.174-.3503 8.183-2.628 12.29-3.959 1.441-.4704 3.458-1.506 4.334-.9359 4.915 3.168 8.844.03 13.08-1.486 4.84-1.727 11.23-1.932 9.85-10.09.9209 1.426 1.847 2.853 2.938 4.544 5.2-1.652 9.454-4.154 13.14-9.239-4.134-.2202-7.222-.4103-12.27-.7056 2.693-2.773 3.869-4.404 5.415-5.5 4.519-3.233 9.104-6.416 13.85-9.264 1.602-.966 3.819-.9009 5.746-1.306.2803 1.867.5806 3.734.9459 6.051 2.347-.9959 4.795-2.032 7.432-3.143 3.348 2.487 6.516 4.845 10.28 7.617-3.844 3.443-7.327 6.797-4.399 13.5 7.552-9.294 19.33-10.22 27.96-16.82 2.728-2.082 4.444-5.48 6.907-8.648 1.056.5555 2.582 1.356 4.354 2.312.4304-.9058 1.271-1.827 1.071-2.347-1.146-3.073-.6606-5.36 2.277-7.147 12.17-7.352 24.26-14.81 36.42-22.16.991-.5956 2.297-.6607 4.279-1.171 1.051 3.013 2.032 5.786 3.028 8.523 2.938 1.827 2.938 1.827 4.404-1.296-1.827.5956-3.233 1.076-4.63 1.556.9559-1.562 1.552-3.744 2.933-4.559 7.893-4.71 15.94-9.154 23.99-13.53 1.261-.6907 3.278-1.211 4.424-.7007 5.926 2.723 10.13-.6657 14.44-3.618 6.852-4.73 13.71-9.474 17.66-17.25.9259-1.827 2.558-3.503 4.254-4.735 4.434-3.243 9.094-6.191 13.63-9.299 7.752-5.295 13.52-12.54 19.12-19.9 2.072-2.753 4.629-5.49 2.447-10.05-.9809-2.042 1.221-5.6 2.037-8.658 6.401.3003 8.253 3.839 7.607 10.23 8.753-7.442 17.66-13.02 14.14-26.07-1.511.3404-2.632.5856-3.724.8909-.8858.2452-1.737.5806-2.883.986-.3954-.8359-.8759-1.546-1.076-2.327-1.712-6.732-6.156-12.66-5.365-20.22.2902-2.738-2.392-4.069-5.31-3.754-3.598.3954-7.197.7608-10.54 1.106-4.169-10.51-11.35-13.34-21.71-9.114-2.287.9259-4.359 2.397-6.671 3.253-2.392.8758-4.945 1.336-6.121-2.137 4.229-5.005 8.503-10.07 13.11-15.56-1.977-1.767-3.013-3.518-4.144-3.578-12.41-.5656-23.18-6.171-34.44-10.5-13.26-5.095-27.09-8.738-40.24-14.04-10.83-4.369-21.09-10.2-31.57-15.45-1.356-.6807-2.502-2.252-3.859-2.432-14.61-1.817-23.77-12.76-34.57-20.75-12.12-8.984-23.59-18.86-35.81-28.73-6.251 5.435-12.2 2.122-17.4-2.843-13.52-12.87-25.74-26.75-34.32-43.62-8.533-16.78-10.44-34.14-6.001-52.34 2.087-8.633 3.669-17.44 6.366-25.89 1.732-5.395 5.065-10.28 8.118-16.27 5.255 7.092-3.463 10.27-2.357 15.28 3.578-1.712 7.252-3.463 11.6-5.535-.4304-1.536-1.241-3.133-1.276-4.745-.06-2.888.3403-5.996 4.479-5.205 4.539.8558 5.991-2.187 7.497-5.35 3.388-7.222 6.486-14.59 10.28-21.61 6.666-12.37 15.79-22.91 25.61-32.87 3.353-3.418 7.252-6.561 8.278-12.47-2.317-.2602-4.064-.7707-5.736-.6156-12.34 1.216-24.7 2.297-36.97 3.919-21.41 2.828-42.69 2.748-63.95-1.116-7.327-1.331-14.62-2.758-21.97-3.979-6.581-1.071-12.21-3.368-17.16-8.358-2.808-2.853-7.612-3.909-11.68-5.295-3.023-1.026-5.135-2.062-6.882-5.29-1.752-3.198-5.555-5.43-8.774-7.647-4.654-3.178-6.902-6.541-6.826-12.93.08-7.157-2.157-14.63-4.775-21.44-2.552-6.616-3.238-13.01-2.918-19.96.6756-14.69 3.203-28.78 8.678-42.6 4.254-10.76 10.87-19.51 19.01-27.15 7.212-6.752 15.04-12.98 23.17-18.6 4.674-3.238 10.49-4.825 15.8-7.157 1.962-.8708 3.944-1.727 5.876-2.678 1.942-.9809 3.714-2.372 5.756-3.023 18.58-5.936 37.18-11.86 55.85-17.49 3.493-1.066 7.347-.996 11.05-1.146 17-.7307 34.03-1.321 51.05-2.042 6.817-.3003 13.63-.7007 20.41-1.346 21.55-2.052 43.1-4.104 64.62-6.451 20.96-2.267 41.83-5.575 62.84-7.117 12.62-.9359 25.49-.0951 38.12 1.266 13.18 1.411 26.52 3.343 39.26 6.912 37.29 10.45 61.52 34.43 71.35 72.26 1.817 6.997 1.426 13.97-.2002 21.14-4.594 20.26-8.658 40.65-12.85 60.99-2.662 12.99-8.158 24.71-16.47 34.92-6.776 8.343-11.27 17.54-14.42 27.83-3.879 12.71-12.84 22.67-22.13 31.58-18.49 17.71-39.72 31.43-64.43 39.34-4.294 1.371-8.053 4.559-11.88 7.167-4.084 2.798-7.963 5.876-12.05 8.919.2653 2.693.5255 5.515.8308 8.623 5.73 2.342 10.73 5.505 18.12 4.644 4.8-.5555 10.28 4.705 15.45 7.382 3.794 1.962 7.627 3.824 11.31 5.951 3.228 1.882 6.271 4.084 9.039 6.807 15.44.2903 29.92 5 44.18 11.39 6.696 3.008 14.25 4.019 21.38 6.071 2.317.6506 5.395 1.021 6.601 2.658 3.398 4.594 7.928 5.635 13.02 5.68 6.536.045 11.85 3.258 17.02 6.616 1.492.9609 2.057 3.393 3.273 5.565 8.028-2.207 15.65-.8858 23.1 4.154 6.877 4.654 15.72 7.027 15.08 18.23-.8157.6506-2.117 1.692-4.274 3.393 25.76 19.99 40.24 46.17 45.41 77.68-2.262-4.915-4.524-9.84-6.977-15.22-2.532 1.196-4.314 2.017-5.796 2.723-3.253-7.727-6.326-15.13-9.504-22.48-1.201-2.778-2.547-4.624-6.296-5.66-5.035-1.381-9.349-5.395-14.03-8.203-5.52-3.288-11.02-6.591-16.63-9.689-4.044-2.202-5.065-5.866-5.836-9.955-.8108-4.329-2.072-8.583-3.578-14.62.8758-.5756 3.143-2.082 5.76-3.794-5.485-3.794-10.15-7.012-14.04-9.699-4.524 2.588-8.058 4.604-11.19 6.391-2.622-2.437-4.599-4.274-7.147-6.656-1.977 3.939-3.318 6.631-4.424 8.864-7.908 2.708-15.03-.3804-22.26-1.246-7.327-.8908-14.72-2.277-20.78-7.237-.9809-1.942-3.038-4.164-2.668-5.876 1.171-5.31-.5356-10.69-4.78-11.53-5.135-1.021-6.421-7.242-12.36-6.536-6.837.8308-13.85.1952-21.43.1952-2.713 11.62-11.9 2.688-18.22 5.851-.5556 3.238-1.161 6.767-1.787 10.36 2.252 1.541 5.47 2.532 5.961 4.284 2.332 8.368 9.454 6.862 16.49 9.444-1.036-3.053-1.556-4.614-2.087-6.181l-.1852.1802c5.15-1.902 10.64-2.227 15.08.7908 9.264 6.326 17.68 4.7 26.12-1.236 1.521 2.492 3.068 4.98 4.75 7.687-4.154 4.95-9.019 5.761-15.2 3.303-4.409-1.762-9.304-2.282-15.77-3.764 4.73 5.716 9.539 6.401 14.4 6.626 6.776.3203 13.6.6957 20.36.3253 2.107-.1201 4.104-2.542 5.52-3.483 6.176 1.762 11.84 3.694 17.66 4.97 7.412 1.622 10.81 5.7 9.529 13.33-1.451.3804-2.893.7357-5.29 1.341 1.501 1.536 2.397 3.298 3.403 3.348 3.919.2452 7.142.5956 5.11 5.841l.1852-.1401c-6.496-1.627-12.97-3.258-20.21-5.065-2.177-3.268-3.628-8.728-10.03-8.123-.5856 8.198-.5205 8.068 6.716 11.05 3.658 1.506 7.052 3.649 10.17 6.686-9.039-2.297-18.33-3.899-26.99-7.187-4.479-1.707-7.437-1.652-11.17 1.281.8108 1.622 1.602 3.233 1.772 3.568 4.78.3704 8.678-.0501 12.09 1.056 7.778 2.522 15.3 5.791 23.39 8.944-.9259 1.592-1.597 2.753-2.097 3.603 2.452 1.752 4.895 3.448 7.287 5.225.986.7357 1.817 2.252 2.798 2.317 10.16.6006 9.885 7.958 10.02 16.02-7.297-4.284-15.36-6.581-18.74-15.19-.4804-1.196-1.962-2.437-3.198-2.818-10.02-3.028-20.1-5.876-30.19-8.688-.7307-.2152-1.687.3303-3.919.8208 2.037 1.016 2.968 1.877 3.899 1.867 9.614-.0601 16.06 5.826 22.34 11.93.6456.6206.7307 2.467.3053 3.343-.4104.8358-1.947 1.737-2.858 1.617-3.959-.5756-7.868-1.486-11.79-2.292l.075-.015c.8909-1.677 1.772-3.363 2.923-5.545-6.366-2.232-11.44-4.755-17.69-3.949-2.612.3303-6.046-1.286-8.283-3.073-5.125-4.084-9.905-5.946-15.93-1.757-1.451 1.016-3.974.4604-7.117.7257 1.371-3.383 2.332-5.71 3.864-9.459-4.83.5756-8.578 1.031-13.94 1.667 2.592 4.369 4.71 7.973 7.452 12.61-2.668.2803-4.905.9409-7.002.6406-10.14-1.486-10.62-1.321-16.01 9.99 7.167 1.486 14.08 2.948 22.66 4.75-4.82 4.564-8.964 4.084-14.85 3.543 10.95 5.971 20.37 11.18 29.87 16.23 2.392 1.261 5.06 1.997 7.592 2.968 8.563 3.288 17.15 6.546 25.68 9.945.6907.2603 1.051 1.391 1.301 1.752-2.883 3.523-5.59 6.847-9.064 11.12-1.612-.3754-4.454-1.046-7.868-1.837 1.021 3.068 1.847 5.59 2.012 6.091 5.896 4.524 10.36 7.928 14.84 11.34l-.3153-.3253c.9859 2.447 1.972 4.9 2.963 7.347-.5555.4854-1.121.9759-1.672 1.456-5.2-4.349-10.4-8.678-15.6-13.03-.4254.3904-.8358.7808-1.251 1.166.9059 1.401 1.697 2.908 2.768 4.169.9809 1.151 3.253 2.012 3.283 3.033.3253 11.16 9.059 10.57 17.51 12.32 0-3.699-.6957-7.367.2002-10.55.9359-3.273 3.438-6.081 5.67-9.794-.5905-1.116-1.572-2.968-2.572-4.83l-.2703.2603c3.188.9409 6.371 1.892 9.519 2.838-.6406-2.242-1.266-4.409-2.312-8.053 3.418 1.777 5.425 2.833 8.538 4.459-.7307-2.933-1.221-4.96-1.787-7.192 7.382 1.797 8.028 3.463 4.745 12.45 2.823.6706 5.57 1.326 7.592 1.802.986-5.19 1.942-10.23 3.118-16.54-2.562-3.118-11.3-4.499-7.387-13.52 8.798 6.231 12.37 16.64 19.8 24-.6757-10.34-.6757-10.34 6.426-13.07-1.847-1.787-3.358-3.238-5.18-5 .6756-.6106 1.496-1.376 2.347-2.167 7.562 4.755 7.993 17.79 20.97 16.37 1.141 6.206 2.277 12.45 3.428 18.7 12.02-3.714 2.097-11.21 3.644-17.47 2.007 1.036 3.574 1.852 6.281 3.273-2.578-9.594-4.91-18.32-7.622-28.37 8.683 3.939 10.2 11.2 11.82 17.59 1.396 5.47 2.137 10.86 6.221 15.13.7457.8008 1.356 2.272 1.216 3.313-1.502 10.24 2.793 20.97-2.602 30.86 2.858 6.536-3.023 10.77-4.284 16.22-1.371 5.971-1.907 12.32-4.389 17.8-2.738 6.031-5.34 12.64-11.76 16.27-.9809.5555-2.057 1.436-2.507 2.427-4.304 9.499-8.203 19.19-12.82 28.54-6.441 13-16.91 22.77-27.43 32.43-7.382 6.796-16.64 10.3-25.24 15.06-12.97 7.172-25.23 15.59-37.99 23.15-6.196 3.664-12.28 8.698-20.17 4.865-1.251 3.153-2.242 5.65-3.248 8.138-1.612-.7357-3.228-1.466-4.835-2.202z"/>
        <path d="m3214 650.5c-.8758.6306-2.397 1.131-2.532 1.882-.6406 3.358-.4705 6.947-3.574 9.339-4.915 3.774-3.708 9.189-3.849 14.27-.1051 4.004 3.238 5.811 5.05 8.618 4.564 7.037 12.5 7.447 19.2 10.01 5.676 2.142 10.11-3.023 8.538-9.86-.4554-1.992-.1802-3.068.8759-4.359 1.081-1.336 2.678-2.447 3.233-3.964.4804-1.301.1251-3.153-.4605-4.499-.2853-.6156-2.542-1.151-3.013-.7257-3.523 3.223-6.196 1.712-8.408-1.431-2.582-3.699-4.905-7.607-7.352-11.42-1.516-2.347-2.898-4.795-4.644-6.972-.5155-.6756-2.007-.6006-3.068-.8909m72.99-7.537c0 3.799-.2302 6.121.035 8.393.9459 7.883-1.652 14.58-6.431 20.64-.7207.9059-1.677 1.647-2.267 2.618-2.753 4.509-2.357 10.22 1.061 14.25 1.486 1.752 3.178 3.328 4.82 4.955 2.162 2.152 2.958 4.8 2.908 7.792-.045 2.307-.1201 4.614.08 6.892.5655 6.156-1.206 11.27-6.226 15.09-2.187 1.637-4.409 3.238-6.611 4.86-2.973-3.573-9.604-.2552-11.39-6.051-17.63-20.77-13.32-16.94-37.67-17.06-2.192-.01-4.67.4054-6.566 1.421-7.147 3.824-14.7 1.857-22 1.546-2.112-.0951-4.614-3.223-5.921-5.545-1.011-1.777-.6556-4.484-.5205-6.767.4204-7.187-1.241-13.99-6.301-18.92-5.57-5.415-5.355-12.24-3.213-17.52 2.808-6.872 2.512-13.48 2.372-20.22-.2002-10.04 2.357-19.48 7.402-27.61 4.955-7.958 8.678-17.52 18.81-21.38 2.492-.9409 4.474-3.553 6.411-5.65 2.522-2.728 5.5-3.794 9.164-3.919 2.192-.0751 4.464-.7808 6.526-1.612 10.68-4.339 20.04-.1702 29.04 4.72 8.658 4.715 13.8 13.15 19.49 20.82 1.642 2.202 3.373 5.18 3.268 7.732-.4154 10.91 6.561 20.91 3.729 30.52m-883.2 111.7c-.5456.015-1.086.045-1.612.0751.085-.4704.1201-.9609.3103-1.391.035-.1101.7157-.1501.7858-.02.2602.3954.3603.8758.5155 1.336m27.38-16.14c.4955.5756 1.166 1.096 1.096 1.331-.2703.8008-.8258 1.501-1.276 2.247-.4954-.5355-1.451-1.186-1.356-1.582.1652-.7357.976-1.306 1.536-1.997m815.2 222.1c.8358 1.081 1.662 2.167 2.492 3.228-.3603.3003-.7207.5956-1.066.8909-.8759-1.061-1.752-2.117-2.622-3.153.3903-.3153.8007-.6456 1.196-.9659m-906.4-213.6c2.918-.5105 5.831-1.026 8.754-1.536.085.8008.1902 1.612.2852 2.407-2.973.1401-5.936.2753-8.894.4104-.055-.4204-.1001-.8558-.1452-1.281m795.7 106.9c2.913 1.552 5.81 3.103 8.728 4.67-.2553.5655-.5155 1.141-.7758 1.722-3.118-1.136-6.211-2.277-9.329-3.418.4605-.986.9209-1.987 1.376-2.973m5.911 31.74c3.393.5355 5.34.8408 7.968 1.246-.9059 1.572-1.221 3.023-2.047 3.403-2.557 1.161-2.632.986-5.921-4.649m-19.12 64.47c-3.634 2.873-6.366 4.695-8.673.9459-.6757-1.081-.1952-4.199.6756-4.659 3.648-1.957 5.215 1.301 7.998 3.714m-754-197.8c5.61-4.815 8.979-2.848 13 .025-4.444 3.398-7.968 1.967-13-.025m772.9 166c7.097-1.426 8.754 5.781 13.24 8.668-4.419-1.101-8.844-2.192-13.28-3.298l.2603.2502c.015-1.962.04-3.944.04-5.896zm88.08 58.07c-2.427-5.445-4.294-9.664-6.987-15.69 7.042 2.472 9.394 6.501 11.05 10.88.2802.7257-1.977 2.412-4.064 4.805m-50.32-28.02c9.314-1.131 13.31 2.042 14.17 10.93.2353 2.262.3904 4.529.6056 7.187-6.046.8208-5.02-5.585-7.567-8.283-2.703-2.938-4.764-6.446-7.212-9.834m-16.16 108.5c-.9359-.7908-1.511-1.617-2.222-1.772-.4104-.085-1.582 1.101-1.471 1.436.2152.7307.9459 1.586 1.632 1.757.4754.1101 1.206-.8008 2.062-1.421m-474.1 195.4c-.7007-.02-1.391-.05-2.092-.075.1051 1.261.1401 2.528.3553 3.784.04.1201.986.1051 1.532.1601.07-1.291.1351-2.577.2052-3.869m430.9-216.9c-.7707.1251-1.546.2552-2.327.3854.3103 1.481.6306 2.958.9559 4.429.8408-.1701 1.692-.3703 2.522-.5455-.3854-1.436-.7558-2.848-1.151-4.269m88.78 11.94c.6557-.3454 1.316-.6857 1.972-1.026-1.086-2.117-2.172-4.239-3.779-7.402-2.422 4.82-.7557 6.796 1.807 8.428m-129.8-38.89c-1.817-3.493-3.048-5.846-4.965-9.559-1.642 5.555-.9159 8.173 4.965 9.559m28.05 9.604c-.5955.4754-1.211.9659-1.807 1.456 3.448 3.183 4.069 8.909 10.18 9.794-2.783-3.759-5.58-7.512-8.378-11.25m-38.88-19.97c-2.072-8.889-2.072-8.889-9.154-5.896 3.518 2.272 6.326 4.089 9.154 5.896m18.25 9.164c-1.076 2.973-1.672 4.639-2.272 6.296 4.284 1.486 2.367 9.059 8.633 9.294-.5205-3.513-.9709-6.441-1.416-9.359.5205-.1852 1.071-.3754 1.577-.5606-1.817-1.576-3.624-3.148-6.521-5.67m-442 306.2c1.982 5.1 1.982 5.1 10.21 9.424 8.283 4.339 8.283 4.339 13.63 4.574-8.048-4.73-15.91-9.354-23.84-14m68.23 32.26c-.2002 3.408 2.377 3.874 4.785 4.64 2.773.8708 5.495 1.887 8.253 2.838-.1101.7508-.2353 1.506-.3554 2.257-1.822.095-3.774.6606-5.435.1902-21.03-5.966-42.95-9.544-61.25-22.93-3.023-2.217-6.952-3.193-10.34-4.96-9.664-5.065-16.5-13.12-23.22-21.48-2.788-3.448-7.552-5.305-11.45-7.818-4.414-2.863-8.804-5.77-13.3-8.463-4.549-2.713-7.052-5.956-3.398-10.96-5.54-4.539-12.53-6.626-15-13.83-.4854-1.416-2.803-2.878-4.434-3.103-11.1-1.441-18.15-9.85-26.89-15.29-2.337-1.436-4.469-3.233-6.506-4.73 2.137-7.893 1.461-9.99-4.694-14.27-3.218-2.242-6.251-3.984-8.308-8.083-1.582-3.183-6.852-4.85-10.78-6.446-5.465-2.247-10.82-3.664-13.21-10.4-1.031-2.938-5.425-4.694-9.334-7.842 2.447-.6557 3.949-1.061 6.551-1.772-2.047-5.66-4.064-11.28-6.266-17.34 2.823-2.407 5.966-5.11 9.884-8.453 1.717 6.466-.8658 10.39-4.65 14.28 1.872.9759 3.178 1.636 4.84 2.502 2.197-2.307 2.632-5.836 7.177-5.996 3.904-.1501 5.881-4.304 7.287-8.518 2.212-6.586 4.684-13.58 8.979-18.84 4.895-5.996 12.44-7.858 20.34-4.76 14.05 5.48 28.45 9.734 42.16 16.48 10.47 5.13 21.95 10.38 34.65 8.403.3403-.06.8158.8008 1.647 1.692-2.332 1.421-4.539 2.778-6.742 4.114 3.323 11.29 4.684 12.6 12.31 11.89 10.63-.976 12.88-1.556 19.25-5.385-1.456 2.918-2.222 4.7-3.183 6.346-2.032 3.483-4.514 6.746-6.211 10.38-3.213 6.877-1.667 10.94 4.795 15.08 1.486.9559 2.623 2.497 3.794 3.879 1.186 1.411 2.212 2.948 3.488 4.69 2.437 0 4.96-.3404 7.342.1151 1.977.3854 4.835 1.291 5.4 2.718 2.382 6.096 7.818 6.466 12.82 7.772 2.682.7057 5.49 1.036 8.153 1.807 4.234 1.211 7.067 2.457 5.035 8.478-1.156 3.483 2.417 8.418-3.859 12.74 6.722 2.017 11.81 3.548 16.88 5.08 1.091-2.688 2.167-5.325 3.243-7.993 5.911 3.774 10.76 6.867 16.17 10.32-.1452.6806-.5255 2.367-.9359 4.164.9459.4154 1.742 1.026 2.592 1.071 14.51.7958 29.05 2.202 43.57 2.117 19.21-.1202 38.42-1.411 57.65-2.232 1.542-.07 3.203.01 4.584-.5355 8.834-3.503 17.42-7.717 26.43-10.63 10.58-3.408 21.49-5.781 32.3-8.433 1.411-.3603 3.273-.1901 4.559.4805 8.653 4.534 17.32 4.9 26.87 2.492 6.341-1.602 13.35-1.301 19.96-.7107 3.709.3404 7.722 2.397 10.68 4.815 2.808 2.297 5.09 2.848 8.378 1.847 6.782-2.057 13.42-3.899 18.96-9.014 4.945-4.554 10.64-8.508 17.71-9.584 1.526-.2502 3.143-.6005 4.429-1.376 6.857-4.134 13.74-8.248 20.37-12.74 1.742-1.181 2.377-3.859 3.899-5.515 6.421-7.027 7.192-18.53 18.49-22.21-2.517-7.858 4.955-11.56 7.127-17.64.7107-1.987 3.353-4.079 2.938-5.515-3.113-11.04 3.719-22.03-.1852-33.01-.6807-1.902-.1401-4.214-.1752-6.336-.09-3.974.1252-7.978-.3403-11.9-.7307-5.981-2.638-7.612-8.233-6.621-3.879.6657-7.582 2.287-12.9 3.974 1.802-2.322 2.612-3.679 3.708-4.755 3.594-3.438 7.212-6.817 10.92-10.11 9.669-8.523 10.85-19.07 7.017-30.55-2.612-7.828-4.85-15.66-10.99-22.1-5.505-5.756-8.984-13.34-13.9-19.69-7.412-9.564-18.55-14.24-28.52-20.37-11.06-6.807-22.7-12.83-31.43-23.78 1.111-1.271 2.337-2.678 4.069-4.654-1.692-.5906-3.183-1.627-3.729-1.256-5.175 3.568-9.184 1.091-13.4-2.022-16.16-11.94-33.05-22.98-48.41-35.86-10.59-8.889-19.68-19.79-28.4-30.62-13.92-17.29-24.74-36.5-30.4-58.15-2.502-9.529-4.419-19.28-5.72-29.05-2.077-15.57 4.284-28.44 14.56-39.6 1.562-1.677 3.959-2.918 6.206-3.573 6.396-1.892 9.109-6.281 10.98-12.47 2.482-8.228 6.206-16.1 9.559-24.06.4004-.981 1.722-1.592 2.748-2.472 5.791 2.532 2.242 7.993 4.664 12.14 22.42-18.4 43.79-38.28 71.24-52.08-2.973-1.231-4.74-2.212-6.641-2.683-1.116-.2953-3.153.8108-3.558.3053-7.027-8.533-13.32-.6506-19.83.7958-1.466.3203-2.833 1.261-4.139 2.082-3.478 2.202-6.837 3.053-11.29 2.447-11.81-1.582-20.82 4.785-28.74 12.55-7.848 7.732-12.67 17.57-17.18 27.46-3.593 7.843-6.566 15.97-10.49 23.77-1.602-16.48 8.974-29.45 14.49-44.53-11.54-3.854-21.81-8.333-32.57-10.51-7.988-1.612-16.6.0851-24.9-.3203-5.11-.2452-10.6-.7307-15.17-2.758-7.002-3.123-13.16-8.073-20.07-11.49-8.308-4.114-17.28-6.922-25.46-11.24-10.12-5.32-19.74-11.56-29.53-17.52-.6156-.3754-.7358-1.597-1.436-3.273 6.336-2.382 12.56-4.73 19.61-7.372-1.822-2.522-3.278-4.549-4.76-6.616 2.087-1.962 4.269-3.664 6.051-5.736 2.813-3.278 2.127-6.646-1.767-8.813-2.978-1.662-6.456-2.512-9.129-4.494-3.628-2.703-7.988-5.385-7.352-11 .4555-3.909 6.481-7.928 12.2-8.448 3.363-.3203 6.796-.3804 10.11-1.076 6.641-1.391 7.818-3.699 7.642-10.34-.2102-7.978-3.608-13.25-10.94-16.28-3.874-1.592-7.567-3.623-12.09-5.821 12.08-1.176 20.85-5.48 25.21-16.63 1.797-4.594 5.08-7.187 10.83-6.807 6.792.4304 14.26 2.808 20.08-3.393.1602-.1802.6106-.2202.8609-.1401 15.66 5.095 22.25-9.809 33.13-15.19 5.871-2.918 11.04-7.242 16.56-10.91.5055-.3403 1.331-.3053 1.697-.7207 8.708-10.19 16.93-6.581 25.55 1.912 6.566-2.928 13.1-6.186 19.91-8.718 2.642-.991 6.241-1.281 8.778-.2953 5.06 1.982 9.769 1.662 14.48-.2552 9.734-3.939 19.68-7.532 29-12.31 16.51-8.468 33.86-13.44 52.19-15.95 20.28-2.798 40.43-6.506 60.69-9.454 7.657-1.111 15.47-1.772 23.2-1.642 24.84.4054 49.52 2.938 73.78 8.408 9.644 2.187 19.03 5.365 29.07 5.48 2.377.03 5 .8108 7.032 2.037 4.394 2.658 9.069 2.768 13.93 3.593 12.56 2.152 25.67 3.974 32.82 17.63 3.518 6.711 9.624 12.05 14.36 18.15 5.085 6.581 10.7 12.93 14.72 20.13 3.874 6.962 7.377 14.68 8.458 22.43.8308 5.931-.8858 13.41-4.164 18.42-4.865 7.402-7.512 15.45-10.62 23.42-7.657 19.65-15.02 39.31-27.82 56.54-5.08 6.857-8.368 15.16-11.75 23.1-6.216 14.61-15.79 25.71-30.65 31.91-20.04 8.363-40.22 16.4-59.98 25.34-12.41 5.615-24.5 12.13-36.08 19.28-5 3.098-8.768 8.533-12.39 13.44-2.612 3.548-2.823 7.963-1.351 12.48 1.977 6.036 3.423 12.24 6.682 18.14.4554-1.817.8858-3.613 1.616-6.666 2.407 2.668 3.854 4.604 5.63 6.151 5.786 5.085 11.66 10.06 17.55 15.02 2.883 2.397 5.636 4.614 6.216 8.839.2453 1.807 2.082 3.834 3.734 4.935 10.03 6.711 20.21 13.18 31 20.15 1.311-2.097 2.347-3.754 3.904-6.261 4.034 3.238 7.968 6.391 11.92 9.549-4.229.01-8.834-3.333-10.58 2.693 16.08 9.019 32.2 18.05 48.68 27.3.3954-1.121 1.036-2.968 1.927-5.51 8.999 14.23 17.66 27.89 27.06 42.73-4.219-1.026-7.407-1.577-10.42-2.628-1.296-.4504-3.293-2.022-3.203-2.883.9609-8.773-7.322-10.5-11.43-15.32-1.897-2.242-4.69-3.063-8.023.7908 3.293 4.069 6.666 8.238 10.03 12.42-.2852.4504-.5655.9059-.8458 1.356-2.447-1.466-5.105-2.708-7.322-4.454-2.678-2.087-4.995-4.644-7.477-6.972-7.182-6.762-15.69-10.6-26.26-11.83-.1051 1.562-.2052 2.928-.3453 4.865-8.713 2.968-11.24-5.791-18.16-8.723 4.104-2.853 8.453-3.108 9.89-7.412.4104-1.201 4.119-2.452 5.73-1.907 6.792 2.307 15.05 1.281 19.95 8.248.4505.6706 1.502.9209 3.493.7557-.986-1.877-1.572-4.229-3.058-5.52-6.776-5.916-13.86-11.45-23.15-12.89-4.905-.7607-8.653-3.258-11.37-7.332-5.756-8.603-14.05-12.81-24.6-14.61 1.001 6.241 8.328 4.394 10.01 9.529-2.322-.3403-4.429-.6606-7.107-1.066.5305 2.182.8658 3.538 1.181 4.905-8.598-4.644-19.32-4.109-25.33 1.682 1.576 1.742 2.858 4.014 4.805 5.19 4.694 2.843 8.248 6.186 9.679 11.82.4104 1.637 2.808 3.213 4.644 3.979 5.746 2.452 9.714 6.411 11.8 12.29l.2653-.2753c-1.306.2102-2.622.3954-3.929.5956-.5355.7808-1.086 1.556-1.617 2.332 1.842.991 3.679 1.977 5.515 2.978l-.2553-.2552c.6456 1.376 1.286 2.778 2.432 5.25-8.593-2.773-17-2.057-24.08-7.392-4.409-3.343-9.584-5.936-15.62-4.014-.2953.0851-.6356.1001-.9259.02-7.492-2.047-14.97-4.114-23.14-6.366-.8859 2.713-3.033 5.801-2.397 8.113 1.111 3.949 3.618 7.677 6.201 10.97 2.252 2.863 5.826 4.675 8.128 7.497 4.339 5.395 3.819 8.859-1.326 14.35.4904-4.735.4904-4.735-4.825-3.734 1.687 1.166 3.378 2.342 5.055 3.523 1.742 1.176 3.328 2.778 5.24 3.418 3.954 1.326 8.058 2.297 12.15 3.118 2.197.4354 4.504.2652 7.117.4054v11.5l.2152-.1902h-18.16c-1.206-10.59-1.206-10.59-21.86-15.78.5205-1.536 1.021-3.058 1.516-4.544-5.03-.2753-9.714-.5305-14.6-.8058-2.658 6.061-2.467 8.118 1.481 11.13 3.418 2.572 7.212 4.745 10.26 7.692 3.023 2.913 5.315 6.591 7.953 9.985-2.598 7.532-2.598 7.532 4.074 11.19.5205-1.011.996-2.002 1.532-2.983.4354-.7858.9159-1.551 1.291-2.192 3.769-.7908 13.05 7.572 15.6 13.89-6.451 1.957-7.612-8.018-14.56-6.171 0 6.321 6.366 5.796 9.074 8.798 3.063 3.398 5.811 7.117 8.884 10.93 1.136-1.016 2.292-2.072 3.929-3.558.5155 3.719.9359 6.666 1.361 9.864 4.154-2.097 7.272-3.688 10.38-5.27l-.1601.1301c3.203 1.171 6.386 2.337 9.564 3.543-.7407 1.992-1.456 3.964-2.192 5.971-1.396-1.081-2.768-2.192-4.84-3.854-.3954 2.032-.6806 3.498-1.036 5.32 2.568-.7107 4.329-1.196 6.091-1.677.05 4.269 2.928 4.229 7.427 4.84-2.337-4.359-3.989-7.407-5.625-10.46-1.847-1.912-2.813-3.909-.3403-7.092 1.677 1.817 3.338 3.088 4.314 4.755 6.191 10.7 12.24 21.48 18.35 32.23.9059 1.597 1.576 3.453 2.853 4.694 2.672 2.608 4.084.6206 5.4-2.788 2.017 3.613 3.724 6.691 5.425 9.764.4554-.06.9259-.1101 1.376-.1652v-22.59c3.553 3.013 5.345 4.519 7.502 6.351-1.682-6.141-3.283-12.02-5.17-18.88 5.52 2.713 13.41 14.9 16.86 23.3 3.463 8.388 7.582 16.51 11.84 25.68-.2603-4.114-.4705-7.497-.7057-11.07 1.396-.07 2.768-.1251 5-.2302-3.233-13.73-6.416-27.22-9.604-40.72.2452-.1802.4905-.3604.7457-.5255 2.783 4.094 5.565 8.183 8.363 12.28.4404-.1402.9108-.2603 1.356-.3954-1.296-4.484-2.538-8.964-3.919-13.41-1.036-3.238-2.477-6.376-3.343-9.664-1.692-6.451 0-9.744 6.171-13.7 1.331-.8458 2.222-2.372 3.829-4.149 1.156.3003 3.158.8158 4.574 1.196-.2302 2.212-1.221 4.529-.4905 5.936 5.906 11.32 11.1 22.8 12.37 35.75.1952 2.007 1.817 3.869 3.018 6.251-1.596 1.016-3.018 1.887-5.065 3.173 1.496 4.134 2.898 8.503 4.66 12.72 2.507 5.956 4.234 13.47.6306 17.78-4.404 5.27-2.082 7.632.1701 11.76 1.356 2.512 1.071 5.931 1.546 8.944-.6706.5104-1.321 1.021-1.977 1.526-.8158-2.277-1.642-4.539-2.652-7.352-4.429 5.61.1051 8.013.1251 11.07-8.168 4.234-2.217 12.86-6.121 19.4-2.257-3.974-4.219-7.437-6.742-11.88-4.674 7.738 1.907 16.27-4.965 23.57-1.616-11.29-3.078-21.47-4.534-31.65-.5405.01-1.086.025-1.632.035 0 12.07.095 24.15-.095 36.22-.025 2.377-.4154 5.946-1.927 6.877-7.282 4.539-6.947 12.61-9.955 19.1-2.803 6.041-6.391 11.71-9.399 17.67-1.351 2.698-2.673 5.625-3.023 8.563-3.023 26.04-16.99 46-35.02 63.76-11.1 10.91-22.95 20.76-37.62 26.61-2.713 1.096-5.505 2.177-3.543 5.35-3.593.4304-7.297 1.286-10.97 1.166-3.814-.09-7.587-1.126-12.33-1.917-.6406 1.076-1.832 3.078-3.048 5.1-14.42-1.021-28.59-.5605-40.44 9.604l.3954-.3704c-8.954-2.663-16.22 2.748-23.97 5.32-14.06 4.664-27.92 9.965-41.82 15.13-4.785 1.782-10.79 2.302-10.37 9.529-2.097.1451-3.503.6806-4.484.2352-8.438-3.774-16.15-.3303-24.2 1.752-18.81 4.89-37.67 9.834-56.72 13.64-9.234 1.837-19.03 1.887-28.48 1.276-4.319-.2803-8.448 1.036-13.17-.2903-8.593-2.392-17.91-2.092-26.88-3.223-2.302-.2803-4.399-1.822-6.666-2.648-2.738-1.011-5.595-2.848-8.263-2.632-9.509.8058-18.95 2.192-28.4 3.654-3.278.5105-6.381 2.077-9.664 2.753-2.267.4604-4.724.5305-7.027.2202-6.361-.8959-12.6-1.101-18.77 2.502 3.809 1.206 7.607 2.407 12.98 4.109-6.421 4.354-10.11-.7207-14.35-.5105-4.179.1852-8.433-.5755-12.7-.8708-3.153-1.101-6.261-2.227-9.99-3.594 3.188 3.303 6.091 5.285 10.17 3.523"/>
    </g>
</svg>
