<svg version="1.1" viewBox="0 0 1920 1080" xmlns="http://www.w3.org/2000/svg">
  <rect width="1920" height="1080"/>
  <path fill="#fff" d="m554 818v2h2v-2z m250 36v2h2v-2z m-46 2v2h2v-2z m-198-34v-2h-2v2z m-24 6h2v-2h-2z m372 34h-12v2h10v2h4v-2h-2z m-354-28v-2h-2v2z m264 22v2h2v2h2v-2h10v2h2v-2h6v2h2v-2h2v-2z m-8 0v2h2v2h2v-2h2v-2z m84 4v2h2v-2z m-86-4h-2v2h-6v-2h-2v2h-34v-2h-2v2h-2v2h50v-2h-2z m84 4h-12v-2h-2v2h-4v-2h-18v-2h-2v2h-6v-2h-2v2h-2v2h28v2h18v2h4v-2h-2z m-366-36h-2v2h2z m6 0v-2h-2v2z m-4 2h2v-2h-2z m-62-32v-2h-2v2z m-6-4v2h2v-2z m74 38v-2h-2v2z m222 26h-2v4h-2v2h6v-2h-2z m-244-30v2h2v-2z m178 20h-2v2h2z m-14 2v-2h-2v2h-10v-2h-2v2h-6v-2h-2v2h-6v-2h-2v2h-2v2h40v2h2v-2h2v-2z m-212-56h2v-2h-2z m100 24v-2h-2v2z m-4 0v-2h-2v2z m4 4v-2h-2v2z m-4 0v-2h-2v2z m-6-4v2h2v-2z m-30 14v-2h-2v2z m226 28v2h2v-2z m-46-10h-2v2h2z m44 10h-36v-2h-4v-2h-2v-2h-4v2h2v2h2v2h4v2h8v2h2v-2h4v2h2v-2h2v2h2v-2h4v2h2v-2h2v2h2v-2h2v2h2v-2h2v2h4v-2h-2z m-52-8v2h6v-2z m-6-2v2h2v2h2v-2h2v-2z m-122-32v-2h-2v2z m-52 12v2h4v-2z m512 54v2h2v2h2v-2h2v-2z m-480-52v-2h-2v2z m802 78v2h-2v-2h-2v2h-2v2h8v-4z m-58 0v-2h-2v2h-2v2h44v2h2v-2h2v-2z m46 0v2h2v2h2v-2h2v-2z m-54-2h-2v2h-2v2h6v-2h-2z m-10 0v2h2v2h2v-2h2v-2z m78 6v4h2v-2h2v-2z m-798-98v-2h-2v2z m732 92v2h2v-2z m-746-78v-2h-2v2z m4-16v2h2v-2z m830 104v2h-6v2h8v-2h2v-2z m-2-2v2h2v-2z m8 0h-2v2h2z m-842-100v2h2v-2z m818 100v2h4v-2z m-814-102h-2v2h2z m828 100v2h2v-2z m-6 4v-2h-2v2h-2v2h8v-2z m-384-42h-12v-2h-2v2h-2v2h14v2h4v-2h-2z m-520-78v2h2v-2z m492 74h-12v-2h-2v2h-2v2h14v2h4v-2h-2z m-472-76v-2h-2v2z m68 20v2h2v-2z m378 52v2h2v-2z m2 2v2h8v-2z m-16-2v2h8v-2z m42 4v2h2v-2z m-30-4h-2v2h-2v2h6v-2h-2z m316 40v-2h-2v2h-2v2h36v-2z m-34-4v2h2v-2z m-2 0h-2v2h-2v2h6v-2h-2z m26 2v2h2v2h2v-2h2v-2z m-22 0v2h20v-2z m-186-24v2h-2v-2h-14v-2h-12v-2h-10v2h8v2h12v2h14v2h6v-2h4v-2z m154 22v-2h-6v2h-2v2h4v-2h2v2h22v2h2v-2h2v-2z m-194-28v2h2v-2z m-72-10v2h2v-2z m46 8v2h8v-2z m196 28v-2h-22v-2h-6v-2h-2v2h-2v-2h-16v-2h-16v-2h-14v-2h-14v-2h-14v-2h-12v2h10v2h14v2h14v2h14v2h16v2h8v2h4v-2h2v2h12v2h18v2h2v-2h2v2h18v-2z m-602-84v2h2v-2z m-90-28v2h2v-2z m8 30v-2h-2v2z m30-20v-2h-2v2z m-30 16v-2h-2v2z m-6 0v2h2v-2z m0-4v2h2v-2z m52 12v2h2v-2z m-4 6v-2h-2v2z m-38-18v-2h-2v2z m-4-18v2h2v-2z m50 34v-2h-2v2z m-52-16h2v-2h-2z m4 14v2h2v-2z m10 6v2h2v-2z m-18-12v2h2v-2z m14 10v2h2v-2z m-6 0v2h2v-2z m4-2h-2v2h2z m2-2h-2v2h2z m-8-2v-2h-2v2z m-6 0v2h2v-2z m4 6v2h2v-2z m-4-2v2h2v-2z m6 0v-2h-2v2z m0-38h-2v2h2z m38 42h2v-2h-2z m-2 0v-2h-2v2z m-22-20v-2h-2v2z m4-14v-2h-2v2z m-14-2h2v-2h-2z m12 22v-2h-2v2z m-14 2h2v-2h-2z m4-2v-2h-2v2z m2-4h-2v2h2z m6 2v-2h-4v2z m-10 0v-2h-2v2z m4-22v-2h-2v2z m2 24v2h2v-2z m4-20v-2h-2v2z m-8 22v2h2v-2z m8 10v-2h-2v2z m-12-22h-2v2h2z m14 18h-2v2h2z m6-28v-2h-2v2z m4 0v-2h-2v2z m-14 30v-2h-2v2z m-2-16v-2h-4v2z m-8 12h4v-2h-4z m-8-16v2h2v-2z m4-2h-2v2h2z m12 18v-2h-2v2z m156 24v2h2v-2z m-88-36v-2h-2v2z m-8-2v-2h-2v2z m12 34v2h2v-2z m6 4v-2h-2v2z m-14-36v-2h-2v2z m6 30v2h2v-2z m-26-34v-2h-2v2z m4-2v-2h-2v2z m16 36h-2v2h2z m-8-32v-2h-2v2z m-4-2v-2h-2v2z m16 32v2h2v-2z m10-26v2h2v-2z m44 34v2h2v-2z m32 0h-2v2h-18v-2h-2v2h-8v2h32v-2h-2z m-88-8h-2v2h2z m98 8v2h2v-2z m-2 0h-2v2h-2v2h6v-2h-2z m-52 8h-2v4h-12v-2h-6v2h4v2h18v-2h-2z m-22-2v-2h-2v-4h-2v-2h-2v-4h-2v6h2v2h2v2h-2v-2h-8v-2h-2v2h-2v2h10v2h6v4h4v-4z m-16-40v-2h-2v2z m48 40h4v-2h-4z m-36-40v-2h-2v2z m32 42h-4v4h4v-2h2v-2h2v-2h-4z m-84-32v2h2v-2z m-2-22v-2h-2v2z m-14 44v-2h-2v2z m-6-6v2h2v-2z m6 0v2h2v-2z m-4 2v2h2v-2z m-26-2v2h2v-2z m-8-4v2h2v-2z m54-4v2h2v-2z m-48 6v2h2v-2z m42-36v-2h-2v2z m-4 0v-2h-2v2z m26 30v2h2v-2z m12 12v2h2v-2z m4-12v2h2v-2z m-8 8v2h2v-2z m0 6h2v-2h-2z m-18-42v-2h-2v2z m4 2v-2h-2v2z m16 36v2h2v-2z m-6 0v2h2v-2z m-18-36h2v-2h-2z m-8 34v2h2v-2z m6-36v-2h-2v2z m18 36v2h2v-2z m-4 0v2h2v-2z m-4 0v2h2v-2z m-14 4h2v-2h-2z m362 0v2h2v-2z m-70-10v2h2v-2z m16 0v2h2v-2z m6 0v2h2v-2z m-48-2v-2h-2v2z m-10-2v2h2v-2z m44 2v2h2v-2z m-12 4v-2h-2v2z m14 0v2h2v-2z m20 0v2h2v-2z m34 0v2h2v-2z m-114-6v2h2v-2z m26 4v2h2v-2z m-34 4v-2h-2v2z m46-4v2h2v-2z m48 2v2h2v-2z m-120 0v-2h-2v2z m-62 0v-2h-2v2z m76 0v-2h-2v2z m-8 2v-2h-2v2z m-86 2v-2h-2v2z m8 0v-2h-2v2z m92-6v-2h-2v2z m60-6v2h2v-2z m32 2v2h2v-2z m-44 0v2h2v-2z m-140 2v2h2v-2z m114 2v-2h-2v2z m-34-2v-2h-2v2z m22 2v-2h-2v2z m58-6v2h2v-2z m-176 12v-2h-2v2z m372 14v2h2v-2z m-56 4v-2h-2v2z m14-2v-2h-2v2z m30-4v2h2v-2z m-40 0v2h2v-2z m68 0v2h2v-2z m-78 0v2h2v-2z m-4 4v-2h-2v2z m-42-2v-2h-2v2z m-42-16v2h2v-2z m22 18v-2h-2v2z m44 0v-2h-2v2z m4 0v-2h-2v2z m-12 0v-2h-2v2z m20 0v-2h-2v2z m-66-2v-2h-2v2z m48-2v2h2v-2z m14-10v2h2v-2z m-16-2v2h2v-2z m-52 0v2h2v-2z m18-2v2h2v-2z m14 6v2h2v-2z m8-4v2h2v-2z m-38 14v-2h-2v2z m118-6v2h2v-2z m-48 2v2h2v-2z m34-2v2h2v-2z m-56 0v2h2v-2z m8-2v2h2v-2z m34 0v2h2v-2z m-12-2v2h2v-2z m-54-2v2h2v-2z m-34 14v-2h-2v2z m16 2v-2h-2v2z m4-2v-2h-2v2z m8 2v-2h-2v2z m12 0v-2h-2v2z m8 0v-2h-2v2z m-148-2v-2h-2v2z m136 2v-2h-2v2z m-92 0v-2h-2v2z m-12 0v-2h-2v2z m4-2v-2h-2v2z m12 2v-2h-2v2z m40-2v-2h-2v2z m-12 0v-2h-2v2z m-22 2v-2h-2v2z m78 0v-2h-2v2z m86 8v-2h-2v2z m36-2v-2h-2v2z m-40 0v-2h-2v2z m8 4v-2h-2v2z m28 0v-2h-2v2z m-42-4v-2h-2v2z m20 2v-2h-2v2z m-52-6v-2h-2v2z m14-2v-2h-2v2z m8 6v-2h-2v2z m4-4v-2h-2v2z m-38 0v-2h-2v2z m56 2v-2h-2v2z m-26 0v-2h-2v2z m-6 0v-2h-2v2z m-298-18v-2h-2v2z m46 2v-2h-2v2z m14 0v-2h-2v2z m-26 0v-2h-2v2z m38 0v-2h-2v2z m20 0v-2h-2v2z m-10 0v-2h-2v2z m-66 0v-2h-2v2z m84 10v-2h-2v2z m-24-14v-2h-2v2z m-72 4v-2h-2v2z m94 0v-2h-2v2z m-112-2v-2h-2v2z m24 0v-2h-2v2z m-16 0v-2h-2v2z m20-4v-2h-2v2z m84 0v-2h-2v2z m0 12v-2h-2v2z m76-2v-2h-2v2z m-68 2v-2h-2v2z m-16 0v-2h-2v2z m4 4v-2h-2v2z m20-2v-2h-2v2z m22-2v-2h-2v2z m-32-6v-2h-2v2z m20 2v-2h-2v2z m28-2v-2h-2v2z m-42 0v-2h-2v2z m34 2v-2h-2v2z m24 0v-2h-2v2z m20 0v-2h-2v2z m-26 0v-2h-2v2z m562 52v2h2v-2z m-634-74v2h2v-2z m16 2v-2h-2v2z m672 86h2v-2h-2z m-624-86v-2h-2v2z m-38-2v2h2v-2z m618 80v-2h-2v2z m-590-80v2h2v-2z m616 88v2h2v-2z m-42-20v2h2v-2z m2 2v2h2v-2z m6 8h2v-2h-2z m-626-74v-2h-2v2z m630 70h-2v2h2z m-8-2v2h2v-2z m14 4h-2v2h2z m-4 2v-2h-2v2z m-188-38v2h2v-2z m-202-2v2h2v-2z m46-4v2h2v-2z m22 2v2h2v-2z m-68-4v2h2v-2z m12 2v2h2v-2z m-20 0v2h2v-2z m-10 0v-2h-2v2z m130 6v2h2v-2z m-60 0v2h2v-2z m-44 0v-2h-2v2z m212 2v-2h-2v2z m-210-4v2h2v-2z m30 2v2h2v-2z m40-2v2h2v-2z m-50-2v2h2v-2z m-308-70v2h2v-2z m0-12v2h2v-2z m16 2v2h2v-2z m-16 4v2h2v-2z m12-10v2h2v-2z m2 16v-2h-2v2z m-8-4v2h2v-2z m2-6v2h2v-2z m728 138v-2h-2v2h-2v2h8v2h2v-2h2v-2z m-8-2v2h-22v-2h-6v-2h-2v2h-6v-2h-2v2h-10v2h24v2h26v-2h2v-2z m18 2v2h2v2h2v-2h2v-2z m20 0v2h2v-2z m-2 0h-6v2h-2v-2h-2v2h-2v2h8v-2h2v2h4v-2h-2z m-46-10h-2v2h2z m132 10v-2h-2v4h-28v2h30v-2h2v-2z m-34 0v2h-24v-2h-6v2h-10v-2h-2v2h-2v-2h-2v2h-2v2h20v-2h2v2h28v-2h2v-2z m56-10v2h2v-2z m-2 4h2v-2h-2z m4 0h2v-2h-2z m-156 2h2v-2h-2z m158-6v2h2v-2z m4 4v-2h-2v2z m-158-2h-2v2h2z m-726-116v2h2v-2z m156 58v-2h-2v2z m-136-54v-2h-2v2z m-8-4v2h2v-2z m866 120v2h2v-2z m8 0v-2h-2v2z m-18 2v2h2v-2z m14 2v-2h-2v2z m-874-120v2h2v-2z m170 52v-2h-2v2z m28 2v-2h-2v2z m-8-2v2h2v-2z m26 0v-2h-2v2z m-78 0v-2h-2v2z m6 0v-2h-2v2z m4-4v-2h-2v2z m32 2v2h2v-2z m-28-2v-2h-2v2z m4 0v-2h-2v2z m-26 2v-2h-2v2z m8-4v2h2v-2z m32-2v2h2v-2z m-36 4v-2h-2v2z m-300-36h-2v2h2z m290 38v2h2v-2z m-28 4v-2h-2v2z m-16-4v2h2v-2z m22 4v-2h-2v2z m20 0v-2h-2v2z m12 0v-2h-2v2z m-46-4v2h2v-2z m20 4v-2h-2v2z m54-6v2h2v-2z m24 0v2h2v-2z m-74 4v-2h-2v2z m66 0v-2h-2v2z m14-4v2h2v-2z m-18 4v-2h-2v2z m-60-4v2h2v-2z m44 0v2h2v-2z m-90-8v2h2v-2z m-96 4v-2h-2v2z m12 0v-2h-2v2z m148-4v2h2v-2z m-134 4v-2h-2v2z m114-4v2h2v-2z m6 0v2h2v-2z m22 2v-2h-2v2z m-188 0v2h2v-2z m312 14v2h2v-2z m68 0v2h2v-2z m28 0v2h2v-2z m-308-4v2h2v-2z m10 2v-2h-2v2z m-102-10v-2h-2v2z m140-4v2h2v-2z m-58-2v2h2v-2z m66 6v-2h-2v2z m-14-4v2h2v-2z m30 4v-2h-2v2z m-58 0v-2h-2v2z m62 2v-2h-2v2z m-16 0v-2h-2v2z m48-2v-2h-2v2z m-70 0v-2h-2v2z m-42-4v2h2v-2z m8 2v-2h-2v2z m190 16v2h2v-2z m-102-12v-2h-2v2z m-126-6v2h2v-2z m60-2v2h2v-2z m-18 0v2h2v-2z m-292-146v-2h4v-2h-6v2h-2v2z m-4 50h-2v2h2z m2 2v2h2v-2z m-6 0v2h2v-2z m10 0v2h2v-2z m8-36v2h2v-2z m-8 32v2h2v-2z m-14 8v2h2v-2z m26-10v-2h-2v2z m-4 2h2v-2h-2z m-22 4v2h2v-2z m20-4v-2h-2v2z m-20 0v2h2v-2z m12 2v-2h-2v2z m2 6v2h2v-2z m36-10v2h2v-2z m4-2v2h2v-2z m10-2v2h2v-2z m-18 6v2h2v-2z m16-4v-2h-2v2z m-4-2h-2v2h2z m-34 10v2h2v-2z m-6 4h2v-2h-2z m2-2h2v-2h-2z m8-10v2h2v-2z m6 8v-2h-2v2z m-12-2v2h2v-2z m8-2v2h2v-2z m-28-22v2h2v-2z m12-8h-2v2h2z m18 28h2v-2h-2z m42-4v-2h-2v2z m-66-16v-2h-2v2z m-2-6v2h2v-2z m8 4h2v-2h-2z m4-4h-2v2h2z m4 2h-2v2h2z m-2 4v-2h-2v2z m-4-10v2h2v-2z m-14 4v2h2v-2z m14 8v-2h-2v2z m-6-4v2h2v-2z m0-4v2h2v-2z m0 14v2h2v-2z m4 0v2h2v-2z m8 4v-2h-2v2z m14 6v-2h-2v2z m-28-4v2h2v-2z m-4-2v2h2v-2z m2-4v2h2v-2z m4-6v2h2v-2z m2 2v2h2v-2z m-4 2h2v-2h-2z m12 2v-2h-2v2z m-4-4v2h2v-2z m-14 4v2h2v-2z m2-4v2h2v-2z m14 20h-2v2h2z m40-38v-2h-4v2h-2v-2h-2v2h-2v2h8v-2z m16-4v4h-2v-2h-2v2h-2v-2h-2v2h-2v-2h-2v2h-4v2h2v2h2v-2h14v-6z m6 0v-2h-2v2z m4 0v-2h-2v2z m8 0v-2h-2v2z m-4 0v-2h-2v2z m-28 0h-2v2h2z m-6 0h-2v2h2z m-24 0h-2v2h2z m-8 0v2h2v-2z m26 4v-2h-4v2h-4v-2h-2v2h-2v-2h-2v2h-2v-2h-2v2h-2v2h18v-2z m-6-4v2h2v-2z m-14 4v-2h-4v2h-4v-2h-2v2h-2v-2h-2v2h-2v-2h-2v2h-2v-2h-2v2h-2v-2h-2v4h24v-2z m-26-8v-2h-2v2z m8 0v-2h-2v2z m12 0v-2h-2v2z m-40-4v-2h-2v-2h-2v2h-2v2z m58 4v-2h-2v2z m-34 0v-2h-2v2z m14 2v2h2v-2z m50-2v-2h-2v2z m20 0v-2h-2v2z m4 0v-2h-2v2z m-28 0v-2h-2v2z m10 0v2h2v-2z m10 0v-2h-2v2z m-4 0v-2h-2v2z m10 6h-2v2h2z m0 22v-2h-2v2z m4 0v-2h-2v2z m2-6v-2h-2v2z m-98-18v2h2v-2z m86 20v2h2v-2z m18 4v-2h-2v2z m-12-10v2h2v-2z m-8 10v2h2v-2z m0 4v2h2v-2z m12 0v-2h-2v2z m-14-6v2h2v-2z m10 6v-2h-2v2z m-4 2h2v-2h-2z m6-10h2v-2h-2z m-48-12h2v-2h-2z m-20 0h2v-2h-2z m-26 0h2v-2h-2z m98 6v-2h-2v2z m-100-16v2h2v-2z m0 6v2h2v-2z m58 4h2v-2h-2z m32 2v2h2v-2z m-2-2v2h2v-2z m-18 22v2h2v-2z m28-26h-2v2h2z m-16 4h2v-2h8v-2h-2v-2h-2v2h-2v-2h-2v2h-2v-2h-2v4h2z m-2 0v-2h-2v2z m14 0v2h2v-4h-4v2z m-88 0v2h2v-2z m38-12v2h2v-2z m-32 4v-2h-2v2z m22 0h2v-2h-2z m2-4v2h2v-2z m-10 0v2h2v-2z m4 0v2h2v-2z m10 2v2h2v-2z m26 2v-2h-2v2z m-18-4v2h2v-2z m14 0v2h2v-2z m-10 4v-2h-2v2z m6-4v2h2v-2z m-4 0v2h2v-2z m-16 12h-2v2h2z m0 4h4v-4h-2v2h-2z m-32-14v2h2v-2z m88 22v-2h-2v2z m-12 6h-2v2h2z m-44-12v-2h-2v4h2v4h2v-4h2v6h2v-10h-2v2z m40 16h2v-2h-2z m-18-12v2h2v-2z m-114-22h2v-2h10v-2h18v-2h-2v-2h-2v2h-16v2h-12v2h2z m64 12v2h2v-2z m28 18h2v-2h-2z m-4-16v2h2v-2z m34-12v2h2v-2z m-28 26h2v-2h-2z m506 144v-2h-2v2z m-496-176v-2h2v-2h-4v2h-2v2z m-6 2h2v-2h-2z m-8 0v-2h8v-2h-2v-2h-2v2h-2v-2h-2v2h-2v4z m14 0h2v-2h-2z m-22 0v-4h-2v4z m4 0v-4h-2v4z m58-2h2v-2h10v-2h2v-2h-4v2h-12v2h2z m26-10h2v2h2v-2h14v-2h-2v-2h-4v2h-2v-2h-6v2h-2v-2h-4v2h2z m-10 6h-2v4h2v-2h2v-2h2v-2h-2v-2h2v2h6v-4h-2v2h-2v-2h2v-2h-4v2h-4v2h-2v2h2z m-18 4v-2h-2v-2h-2v2h-6v-2h-2v2h-6v-2h-2v2h-4v-2h-2v2h-2v2z m-66 0h2v-2h2v-2h-6v2h2z m54 4h-2v2h2z m-18-4v-2h-2v-2h-2v2h-2v2z m0 2h2v-2h-2z m-72-2h2v-2h2v-2h-6v2h2z m2 2h2v-2h-2z m32 6v-2h-2v2z m-2-2v-2h-2v2z m54 2h2v-2h-2z m-58 0h2v-2h-2z m-18-6h2v-2h-2z m6-2h2v-2h2v2h2v-2h2v-2h-10v2h2z m50 44h2v-2h-2z m-36-42v-2h-2v2z m4 0v-4h-2v4z m-20-2v-2h-2v2z m-6 0h2v-2h2v-2h-6v2h2z m-2 0v-2h-2v2z m66 24v-2h-2v2z m10 0v2h2v-2z m4-4v2h2v-2z m8 2v2h2v-2z m0-4v2h2v-2z m-4 0v2h2v-2z m8 0v2h2v-2z m-10 4v2h2v-2z m-26 0v-2h-2v2z m2 2v-2h-2v2z m-2 4v-2h-2v2z m10 0v-2h-2v2z m-4-2v-2h-2v2z m-32-6h2v-2h-2z m4 16h2v-2h-2z m42-16v2h2v-2z m-38-2v2h2v-2z m-8 12h2v-2h-2z m6-6v2h-4v2h4v6h4v-2h-2v-10h-2v-4h-2v6z m36-6v2h2v-2z m-32 6h2v-2h-2z m-8 8v2h2v-2z m44-16v2h2v-2z m-10 4v-2h-2v2z m14-4v2h2v-2z m-18 0v2h2v-2z m-20 14v2h2v-2z m10-14v2h2v-2z m-10 12h2v-2h-2z m32-4v-2h-2v2z m-18 18h2v-2h-2z m18-4v2h2v-2z m-24 6v-2h-2v2z m20-4v-2h-2v2z m-16 2v-2h-2v2z m-32-4v2h2v-2z m38 2v-2h-2v2z m-32 0v-2h-2v2z m36 0h-2v2h2z m-16 8v-2h-2v2z m8-4v2h2v-2z m-18 6v-2h-2v2z m16-4v-2h-2v2z m4-28v2h2v-2z m26 20v-2h-2v2z m-26-10v2h2v-2z m-4 2v2h2v-2z m12 8h-2v2h2z m2-20v2h2v-2z m-8 2v2h2v-2z m8 2v2h2v-2z m2 14v-2h-2v2z m14-6v2h2v-2z m-42 4v2h2v-2z m34 0v2h2v-2z m12-4v2h2v-2z m-8 2v2h2v-2z m-6 4v-2h-2v2z m-148-2v2h2v-2z m-12 96v2h2v-2z m22 2v2h2v-2z m6-124h2v-2h4v-2h4v-2h-6v2h-6v2h2z m0 142v-4h-2v2h-4v2h4v2h6v-2z m-14-12v2h2v-2z m12 4v2h2v-2z m26 12v-4h-2v2h-2v2h-2v-2h-2v-2h-2v2h-2v-2h-2v2h-2v-2h2v-2h-4v-52h-4v2h2v4h-2v2h2v10h-2v2h2v8h-2v2h2v8h-2v2h2v6h-2v2h2v2h-2v2h2v2h2v2h-2v2h8v2h2v-2h2v2h6v-2z m-46-34v2h2v-2z m0-4v2h2v-2z m8 4h-2v2h2z m10 10v-2h-2v2z m-14-12h-2v2h2z m0 4v2h2v-2z m92 34v-2h-2v2z m-2-2v-2h-2v2z m4-2h-2v2h2z m-102-32v2h2v-2z m90 36h-2v2h-4v-2h-4v2h2v2h10v-2h-2z m4-4h-2v2h2z m-2 2h-2v2h2z m12-4h-2v2h2z m-16 4h-4v2h4z m-10 0h-2v4h-2v2h6v-2h-2z m28-6h-2v2h2z m-36 8v-2h6v-2h-2v-2h-2v2h-8v2h-2v-2h-2v2h-2v2h-2v-2h-2v-2h-2v2h-2v2h-2v2h4v-2h2v2h6v-2h2v2h2v-2h2v-2h2v2h-2v2h4v2h2v-2h2v-2z m22-8v2h2v-2z m4 2h-2v2h2z m-78-42v-2h-2v2z m-12-2v-2h-2v2z m-4 8h-2v2h2z m-2-8h2v-2h-2z m-28-6v2h2v-2z m32 4v-2h-2v2z m8 2h2v-2h-2z m8 4v-2h-2v2z m-46-8v2h2v-2z m48 4h-2v2h2z m-6-2v-2h-2v2z m4 0v-2h-2v2z m72 52v2h2v-2z m-78-46h2v-2h-2z m-6-6v2h2v-2z m-8 6h-2v2h2z m2-2h-2v2h2z m2 4h-2v2h2z m-8 0v2h2v-2z m2 4v2h2v-2z m-14 0v2h2v-2z m14-10h-2v2h2z m-4-4h-2v2h2z m-6 4v2h2v-2z m4-2h-2v2h2z m4 6v-2h-4v2z m-20-6v2h2v-2z m4 6v2h2v-2z m12 2v2h2v-2z m144 40v2h2v-2z m44 0h-2v2h2z m0 2v4h2v-4z m-40-24h2v-2h-2z m4-2v2h2v-2z m-2-2v2h2v-2z m34 28v2h-8v2h2v2h2v-2h6v-4z m-20 0h-2v2h2z m2-2h-2v2h2z m6 2v2h-4v2h6v-4z m-2-2h-2v2h2z m-2 4v-2h-2v2z m-4 0v2h2v-2z m-58 0h-2v2h-2v2h6v-2h-2z m66-32h2v-2h-2z m-4-8h-2v2h2z m0 4v2h2v-2z m-6-2v2h4v-2z m12 2v2h2v-2z m-38 10v-2h-2v2z m24 22v2h2v-2z m12-34h-2v2h2z m-30-4v2h2v-2z m6 0v-2h-2v2z m-8-2v2h2v-2z m10 2v2h2v-2z m4 4v2h2v-2z m-2-2v2h2v-2z m8 2v-2h-2v2z m-4 10v2h2v-2z m-40 20v2h2v-2z m6 4h2v-2h-2z m-4-2v2h2v-2z m10 2v2h2v-2z m-2-2v2h2v-2z m6 4h-2v2h2z m-8-6v2h2v-2z m-16 8v2h2v-2z m50-6v2h2v-2z m-32 6v-2h-2v4h2v2h2v-2h2v-2z m-6-2h2v-2h-2z m-2 2v-2h-2v2z m0 0v2h-4v-4h-2v4h-2v2h10v-2h2v-2z m-2-4h-2v2h2z m40 2v2h2v-2z m2 2v4h2v-2h2v-2z m-2-8v2h2v-2z m-4 6h2v-2h-2z m-4 4h2v2h2v-2h2v2h2v-4h-8z m6-6h2v-2h-2z m-12 4v2h-2v2h4v-2h2v-2z m0-2h-2v2h2z m-10 2v2h-2v2h4v-2h2v2h2v-2h2v-2z m6-4v2h2v-2z m-126-44v2h2v-2z m136 46h-2v2h2z m-6-4v2h2v-2z m-2-2v2h2v-2z m-114-18v-2h-2v2z m-8-90v-2h-2v2z m2 2v-2h-2v2z m-12 6h2v-2h-2z m2-8v2h2v-2z m12-4h2v-2h-2z m4-2v-2h-2v2z m-2 6v-2h-2v2z m-18 4v2h2v-2z m6 0h-2v2h2z m-16 6v2h2v-2z m28-6v-2h-2v2z m-10 4v-2h-2v2z m14-4v-2h-2v2z m148 78v2h2v-2z m-164-84h2v-2h-2z m-2 0v-2h-2v2z m-6 0v2h2v-2z m-6 6v2h2v-2z m6 0v-2h-2v2z m16-14v2h2v-2z m-12 12v-2h-2v2z m16-16v2h2v-2z m-4 0v2h2v-2z m-4 10v-2h-2v2z m-6-4v2h2v-2z m18-2v-2h-2v2z m-10 2v-2h-2v2z m10 8v-2h-2v2z m-22-18h2v-4h-4v2h2z m-2-2h-2v2h-2v2h4z m6 4v-2h-2v2z m-16 6h-2v2h2z m2-2h2v-2h-4v4h2z m4-4h-2v2h2z m30-14h2v-4h-4v2h2z m-6 0h4v-2h-6v2h-2v2h4z m-10 10v-2h-2v2z m-18 14v-2h-2v2z m16-18h-4v2h4z m4-2h-4v2h4z m2 2h2v-4h-4v2h2z m2 32v-2h-2v2z m10-34v-2h-2v2z m-38 18h-2v2h2z m24 12v2h2v-2z m8 4v-2h-2v2z m-10-6v2h2v-2z m20-28v-2h-2v2z m-6 34v-2h-2v2z m-44-4h2v-4h-2v2h-2v4h2z m34 66v2h2v-2z m-30-72h2v-4h-2v2h-2v4h2z m38-16v2h2v-2z m-12 40v-2h-2v2z m-34-12h2v-4h-2v2h-2v4h2z m-2 2h-2v4h2z m6 0v-2h-2v2z m24 34v2h2v-2z m24 2v-2h-2v2z m-10-2v-2h-2v2z m-32 4v-2h-2v2z m10-2v-2h-2v2z m-18-4v2h2v-2z m44 62v-6h-2v2h-2v2h2v2h-2v2h6v-2z m-8-6v-2h-2v2z m12 2h-2v4h2z m-30-94h-2v2h2z m-20 42v2h2v-2z m32 50v2h4v-2z m-4-2v2h4v-2z m12 6v-2h-4v2h2v2h4v-2z m-6-32v2h2v-2z m12 2v-2h-2v2z m-4 0v-2h-2v2z m-6-6v2h2v-2z m12 8v-2h-2v2z m-12-2v2h2v-2z m4 2v2h2v-2z m4-26v2h2v-2z m-10 0v2h2v-2z m-20 0v2h2v-2z m10 0v2h2v-2z m20 30v-2h-2v2z m4 0v-2h-2v2z m-48-24v2h2v-2z m36 40h-4v2h4z m10-86v2h2v-2z m-46 4v2h2v-2z m42-4v2h2v-2z m-42 30v-2h2v2h38v-2h2v2h14v-2h2v4h-2v2h2v4h-2v2h2v2h-2v2h4v-18h-2v-2h2v-8h-2v2h-4v2h4v2h-2v4h-2v2h-2v-2h-4v2h-2v-4h-2v2h-12v2h-2v-4h-4v2h2v2h-2v-2h-8v2h-2v-2h-6v2h-2v-2h-6v-2h-2v2h-4v2h-2v-14h2v-8h-2v6h-2v30h2v-12z m-4 12h-2v2h2z m8-38v2h2v-2z m-6 4v2h2v-2z m24-8v2h2v-2z m0-4v2h2v-2z m4 2h-2v2h2z m8 2v2h2v-2z m4 0v2h2v-2z m-10 0v2h2v-2z m-4 78h-4v2h4z m-8-4v-2h-2v2z m-2 2v-2h-2v4h4v2h2v-4z m-18-28v-2h-2v4h2v4h2v-6z m36 34h-2v2h2z m-2 4v-2h-6v-2h-4v2h2v2h4v2h2v-2z m-12-6v2h2v-2z m2-6h-2v2h2z m-14-16h-2v2h2z m-6-2v-2h-2v4h2v2h2v-4z m4 6v-2h-2v4h2v2h2v-4z m6 2h-2v2h2z m0 8v2h2v-2z m-2-4v-2h-2v4h2v2h2v-4z m6 2h-2v2h2z m156 28v2h2v-2z m904 26v-2h-2v2z m-4 0v-2h-2v2z m-28 0v-2h-2v2z m36 0v-2h-2v2z m-26 2h2v-2h-2z m4-2v-2h-2v2z m44 2h2v-2h-2z m16-2v-2h-2v2z m-36 2v-2h-2v2z m32-2v-2h-2v2z m-4 0v-2h-2v2z m-80 0h-2v2h2z m76 0v-2h-2v2z m-236 0v-2h-2v2z m18 2v-2h-2v2z m234-2v-2h-2v2z m-266 0v-2h-2v2z m42 2v-2h-2v2z m-70-2v-2h-2v2z m10 0v-2h-2v2z m190 4v-2h-2v2z m-4 2h2v-2h-2z m2-4v-2h-2v2z m6 2v-2h-2v2z m-106 0v-2h-2v2z m96-2v-2h-2v2z m-114 2v-2h-2v2z m50 0v-2h-2v2z m-142-4v-2h-2v2z m426 4v-2h-2v2z m4 0v-2h-2v2z m-20 0v-2h-2v2z m-22 0v-2h-2v2z m2 2v-2h-2v2z m4-2v-2h-2v2z m34 8v-2h-2v2z m-4 2h2v-2h-2z m-56-8h2v-2h-2z m42 8v2h2v-2z m20-6v-2h-2v2z m-4 0v-2h-2v2z m-6 0v2h2v-2z m-128-4v-2h-2v2z m128 0v2h2v-2z m-112 0v-2h-2v2z m10-2v-2h-2v2z m-22 2v-2h-2v2z m24 0h2v-2h-2z m-16 0v-2h-2v2z m-4 0v-2h-2v2z m24-2v-2h-2v2z m32 0v-2h-2v2z m20 0v-2h-2v2z m4 0v-2h-2v2z m-52 0v-2h-2v2z m-738-54v-2h-2v2z m746 54v-2h-2v2z m-4 0v-2h-2v2z m-686-46v2h2v-2z m-52 2v-2h-2v2z m-8-4v-2h-2v2z m-10 2v-2h-2v2z m6 2v-2h-2v2z m-12 0v-2h-2v2z m24-8v2h2v-2z m34 2v-2h-2v2z m86 12v-2h-2v2z m-52-4v2h2v-2z m22 0v-2h-2v2z m-28 0v-2h-2v2z m16 0v-2h-2v2z m746 58v-2h-2v2z m-722-54v-2h-2v2z m-76-14v-2h-2v2z m18 0v-2h-2v2z m-68-2v2h2v-2z m34 0v-2h-2v2z m354 58v2h2v-2z m-346-56v-2h-2v2z m8 8v-2h-2v2z m-12 0v-2h-2v2z m18 0v-2h-2v2z m360 42v-2h-2v2z m-344-44v-2h-2v2z m-8 0v-2h-2v2z m-34-4v2h2v-2z m62 4v-2h-2v2z m-48 2v-2h-2v2z m294 28v-2h-2v2z m38 6v-2h-2v2z m-8 0v-2h-2v2z m24 2v-2h-2v2z m-40-6v-2h-2v2z m8 2v-2h-2v2z m24 2v-2h-2v2z m-30 4v2h2v-2z m30 4v-2h-2v2z m16-6v-2h-2v2z m0 6v-2h-2v2z m8-4v-2h-2v2z m28 0v-2h-2v2z m-14 0v-2h-2v2z m-142-18v-2h-2v2z m-32-8v-2h-2v2z m-82 0v-2h-2v2z m164 14v-2h-2v2z m-106-18v-2h-2v2z m-108 0v2h2v-2z m118 4v2h2v-2z m-100 0v-2h-2v2z m180 12v-2h-2v2z m-12-2v-2h-2v2z m20 4v-2h-2v2z m-52-8v-2h-2v2z m20 2v-2h-2v2z m-30-4v-2h-2v2z m-48-10v-2h-2v2z m588 38v2h2v-2z m-394 16v-2h-2v2z m-8 2v-2h-2v2z m18 2v-2h-2v2z m-24-4v-2h-2v2z m18 4v-2h-2v2z m18-2v-2h-2v2z m-54-4v-2h-2v2z m24-2v-2h-2v2z m234-2v-2h-2v2z m-246 4v-2h-2v2z m-18 0v-2h-2v2z m10 2v-2h-2v2z m176 4v-2h-2v2z m-86 6v-2h-2v2z m18 0v-2h-2v2z m-6 2v-2h-2v2z m-6 0v-2h-2v2z m60 2v-2h-2v2z m-28 0v-2h-2v2z m50 0v-2h-2v2z m-96-6v-2h-2v2z m-6-2v-2h-2v2z m-14 0v-2h-2v2z m-8 0v-2h-2v2z m60 2v-2h-2v2z m142-18h-2v2h2z m-212 16v-2h-2v2z m26 2v-2h-2v2z m72 4v-2h-2v2z m102-26v2h2v-2z m-30 0v2h2v-2z m-14 0v2h2v-2z m-52 0v2h2v-2z m28 0v2h2v-2z m8 0v2h2v-2z m72 0v2h2v-2z m-4 0v2h2v-2z m-262 6v-2h-2v2z m132 0v-2h-2v2z m-120 2v-2h-2v2z m-32-8v2h2v-2z m224 6v-2h-2v2z m30 0v-2h-2v2z m-138 0v-2h-2v2z m-138 0v-2h-2v2z m8 0v-2h-2v2z m16 2v-2h-2v2z m10-2v-2h-2v2z m-44 0v-2h-2v2z m28 2v-2h-2v2z m-52-4v-2h-2v2z m12-2v-2h-2v2z m36 2v-2h-2v2z m-20-4v2h2v-2z m170-2v2h2v-2z m-180 6v-2h-2v2z m20-2v-2h-2v2z m-32 2v-2h-2v2z m548 42v-2h-2v2z m-8 0v-2h-2v2z m16-32v-2h-2v2z m-12 32v-2h-2v2z m18-6v-2h-2v2z m-4-2v-2h-2v2z m2-4h-2v2h2z m-24 12v-2h-2v2z m-22 0v-2h-2v2z m42-10v-2h-2v2z m-38 10v-2h-2v2z m-8 0v-2h-2v2z m-4 0v-2h-2v2z m16 0v-2h-2v2z m4 0v-2h-2v2z m6 0v-2h-2v2z m22-28v2h2v-2z m6 0v-2h-2v2z m-18 0v-2h-2v2z m-36-4v2h2v-2z m24 4v-2h-2v2z m-278 12v-2h-2v2z m302-6v2h2v-2z m4 8v-2h-2v2z m-4-4v2h2v-2z m8 4v-2h-2v2z m-10-8v-2h-2v2z m8 0v-2h-2v2z m-8 8v2h2v-2z m10-4v-2h-2v2z m-18-8v2h2v-2z m-158 20v2h2v-2z m-32 2v-2h-2v2z m4-2v-2h-2v2z m20 2v-2h-2v2z m-4 2v-2h-2v2z m-4 0v-2h-2v2z m-4-2v-2h-2v2z m-78-12v-2h-2v2z m34-4v2h2v-2z m-52 4v-2h-2v2z m96 8v-2h-2v2z m-8-2v-2h-2v2z m10-2h-2v2h2z m-14 4v-2h-2v2z m138 6h-2v2h2z m-28 2v-2h-2v2z m18 2v-2h-2v2z m-8 0v-2h-2v2z m12-4v2h2v-2z m4 4v-2h-2v2z m6 0v-2h-2v2z m-102-8v-2h-2v2z m-4-2h-2v2h2z m2-2h-2v2h2z m12 6v2h2v-2z m4 4v-2h-2v2z m10 0v-2h-2v2z m-4 0v-2h-2v2z m52 2v-2h-2v2z m-682-100v-2h-2v2z m280 64v-2h-2v2z m-8-4v2h2v-2z m0 6v2h2v-2z m-22-2v2h2v-2z m4-4v2h2v-2z m6 4v2h2v-2z m6 0v2h2v-2z m-44-6v2h2v-2z m-10 0v2h2v-2z m16 0v2h2v-2z m12 2v2h2v-2z m-6 0v2h2v-2z m12 0v2h2v-2z m124 16v2h2v-2z m-18-2v2h2v-2z m8 2v2h2v-2z m-16-2v2h2v-2z m62 4v2h2v-2z m-26 0v2h2v-2z m-176-22v2h2v-2z m210 24v2h2v-2z m-118-12v2h2v-2z m-10 0v2h2v-2z m46 6v2h2v-2z m-30-6v2h2v-2z m-22-2v2h2v-2z m42 6v2h2v-2z m-6-2v2h2v-2z m-8 0v2h2v-2z m-262-30v2h2v-2z m62 2v2h2v-2z m-16-2v2h2v-2z m8 2v2h2v-2z m-66-4v2h2v-2z m62 2v2h2v-2z m-12 0v2h2v-2z m-122 0v2h2v-2z m6 0v2h2v-2z m54-2v2h2v-2z m-66 0v2h2v-2z m22 2v2h2v-2z m34-2v2h2v-2z m-8 0v2h2v-2z m150 12v2h2v-2z m18 0v2h2v-2z m6 0v2h2v-2z m16 2v2h2v-2z m-28-2v2h2v-2z m-54-8v2h2v-2z m76 10v2h2v-2z m-6 0v2h2v-2z m-66-6v2h2v-2z m10 0v-2h-2v2z m72 8v2h2v-2z m-78-12v2h2v-2z m26 6v2h2v-2z m-4-2v2h2v-2z m-12 0v2h2v-2z m604 54v2h2v-2z m-86-2v2h2v-2z m4 0v2h2v-2z m12 0v2h2v-2z m-20 0v2h2v-2z m16 0v2h2v-2z m-4 0v2h2v-2z m-58-2v2h2v-2z m70 2v2h2v-2z m-66-2v2h2v-2z m8 2v2h2v-2z m26 0v2h2v-2z m4 0v2h2v-2z m-22 0v2h2v-2z m-12 0v2h2v-2z m66 0v2h2v-2z m-726-60v2h2v-2z m794 62v2h2v-2z m28 0v-2h-2v2z m4 4h-20v-2h-2v2h-2v2h20v2h2v-2h2z m-16-2v-2h-2v2z m-26-2v2h2v-2z m-38 0v2h2v-2z m-16 0v2h2v-2z m24 0v2h2v-2z m26 0v2h2v-2z m-4 0v2h2v-2z m-6-2v2h2v-2z m2 2v2h2v-2z m-170-12v2h2v-2z m-118-8v2h2v-2z m118 0v2h2v-2z m8 8v-2h-2v2z m-6-6v2h2v-2z m8 8v-2h-2v2z m-4-6h-2v2h2z m-20 0v2h2v-2z m-56-2v2h2v-2z m-22 0v2h2v-2z m-16 0v2h2v-2z m70 2v2h2v-2z m-18 0v2h2v-2z m30-2v2h2v-2z m24 2v-2h-2v2z m10 8v2h2v-2z m-4-6h-2v2h2z m14 8v-2h-2v2z m-4-2h-2v2h2z m18 4v2h2v-2z m-8-2v2h2v-2z m4 0v2h2v-2z m-14 2v2h2v-2z m-8-6h-2v2h2z m-4 2v2h2v-2z m14-2h-2v2h2z m-10 6h2v-2h-2z m54 0v-2h-2v2z m-48-8v2h2v-2z m-2 6v2h2v-2z m-746-120v2h2v-2z m58 16v2h2v-2z m-34 4v-2h-2v2z m-2-8v-2h-2v2z m-10-2v-2h-2v2z m42 8v-2h-2v2z m-60-26h2v2h2v-4h-4z m90 22v-2h-2v2z m0 4v2h2v-2z m-100-20v2h2v-2z m92 18v-2h-2v2z m-30 2v2h2v-2z m-30-2v2h2v-2z m20 2v-2h-2v2z m-30-20v-2h-2v2z m-22-14v2h2v-2z m10 0v2h2v-2z m0 10v-2h-4v2h-4v-2h-2v-2h-4v2h2v2h2v2h8v-2z m84 26v2h2v-2z m-88-42v2h2v-2z m2 12v-2h-2v2z m0-18v2h2v-2z m-2-4h4v-2h-2v-2h-6v2h4z m-6 8v2h2v-2z m0-8h2v-2h-4v2h-2v2h4z m12 2v2h4v-2h-2v-2h-4v2z m2 8v2h2v8h-2v2h4v-18h-2v6z m-20 6v-2h-2v-4h2v-2h-2v-2h2v-2h2v-2h-4v2h-2v16h2v-4z m-2 4v4h2v-2h2v-2z m88 30v2h2v-2z m8 18v-2h-2v2z m18-4v2h2v-2z m-4-4v2h2v-2z m4-8v2h2v-2z m-12 10v2h2v-2z m-54-2v2h2v-2z m34 4v2h2v-2z m34-16v-2h-2v2z m-42 14v2h2v-2z m58-12v-2h-2v2z m-78 12v2h2v-2z m38 2v-2h-2v2z m-52 2v-2h-2v2z m30 0v-2h-2v2z m-20 2v-2h-2v2z m4-16v2h2v-2z m-30 2v2h2v-2z m74 0v-2h-2v2z m48 42v2h2v-2z m-102-40v-2h-2v2z m34 2v2h2v-2z m-2-2v-2h-2v2z m-24 0v2h2v-2z m16 2v2h2v-2z m20 2v-2h-2v2z m-44 2v-2h-2v2z m54-4v2h2v-2z m-6-2v2h2v-2z m14 0v2h2v-2z m-24-2v2h2v-2z m-58 18v2h2v-2z m6 0v2h2v-2z m-12 4v2h2v-2z m-4-4v2h2v-2z m12 8v-2h-2v2z m12-8v2h2v-2z m8 4v-2h-2v2z m40-8v2h2v-2z m14 0v2h2v-2z m-24 0v2h2v-2z m32 0v2h2v-2z m12 4h2v-8h-2v-2h-2v4h2v2h-2v2h2z m-4 0h2v-2h-2z m6-26h-4v2h2v2h-2v2h2v2h-2v2h2v2h-4v2h4v2h2z m6 46v-2h-2v2z m-12 0v2h2v-2z m-62-24v2h2v-2z m72 26v2h2v-2z m4 2v2h2v-2z m-118-16v2h2v-2z m108 14v2h2v-2z m0-6v2h2v-2z m-106-4v2h2v-2z m10 2v2h2v-2z m-2-2v-2h-2v2z m84 4v2h2v-2z m-76-2v2h2v-2z m130 2v-2h-2v2z m-126-2v2h2v-2z m-8-36v-2h-2v2z m4-6v2h2v-2z m-12 0v2h2v-2z m20 0v2h2v-2z m-20 6v2h2v-2z m34-2v-2h-2v2z m-26-4v-2h-2v2z m-14-14v2h2v-2z m128 24v-2h-2v2z m-108-18v-2h-2v2z m-14-6v2h2v-2z m-2 10v2h2v-2z m-4-4v2h2v-2z m16 4v-2h-2v2z m-8-4v2h2v-2z m-2 20v2h2v-2z m2 8v2h2v-2z m10 4v-2h-2v2z m4 0v2h2v-2z m0-4v-2h-2v2z m-18 4v2h2v-2z m6 0v2h2v-2z m2-8v2h2v-2z m-12-6v2h2v-2z m26 0v-2h-2v2z m6 14v2h2v-2z m-30-8v2h2v-2z m16-4v2h2v-2z m0-6v2h2v-2z m8 10v-2h-2v2z m496 52v2h2v-2z m258 4v2h2v-2z m-18 2v2h2v-2z m14 2v-2h-2v2z m-38 0v2h2v-2z m16 0v2h2v-2z m-4 0v2h2v-2z m70-2v-2h-2v2z m16-2v2h2v-2z m-136 4v2h2v-2z m128-6v2h2v-2z m24 0v2h2v-2z m-50 4v-2h-2v2z m44-4v2h2v-2z m-44 10v-2h-2v2z m6 2v-2h-2v2z m6-2v-2h-2v2z m-14 4v-2h-2v2z m-12-2v2h2v-2z m24-10v2h2v-2z m-2 10v2h2v-2z m-150-2v-2h-2v2z m-52 0v-2h-2v2z m38 0v-2h-2v2z m-14 0v-2h-2v2z m132 0v-2h-2v2z m16 0v-2h-2v2z m-12 0v-2h-2v2z m18 0v-2h-2v2z m38 4v-2h-2v2z m-114-2v2h2v-2z m64 2v-2h-2v2z m14-10v2h2v-2z m-34 10v-2h-2v2z m-30 0v-2h-2v2z m34 0v-2h-2v2z m-8 0v-2h-2v2z m-96 4v-2h-2v2z m98 0v-2h-2v2z m-50 2v-2h-2v2z m54-2v-2h-2v2z m-116-2v2h2v-2z m120 2v-2h-2v2z m8-2v-2h-2v2z m-6-2v-2h-2v2z m88-10v2h2v-2z m10 0v2h2v-2z m12 0v2h2v-2z m10 2v2h2v-2z m-76-2v2h2v-2z m36 0v2h2v-2z m-46 2v-2h-2v2z m-118 12v2h2v-2z m214-10v-2h-2v2z m-68-2v2h2v-2z m42 0v2h2v-2z m-28 4v-2h-2v2z m-6-2v-2h-2v2z m-12 2v-2h-2v2z m36 0v-2h-2v2z m-22 12v2h2v-2z m-2-2v2h2v-2z m6 2v2h2v-2z m-22-2v2h2v-2z m4 0v2h2v-2z m4 0v2h2v-2z m30 2v2h2v-2z m-12 0v2h2v-2z m-38 2v-2h-2v2z m58 4v-2h-2v2z m-16-6v2h2v-2z m4 0v2h2v-2z m14 2v-2h-2v2z m-4 2v-2h-2v2z m-10 6v-2h-2v2z m8 0v-2h-2v2z m10 0v-2h-2v2z m0-6v2h2v-2z m-60-4v-2h-2v2z m38 10v-2h-2v2z m20-2v-2h-2v2z m-24-4v2h2v-2z m6 2v-2h-2v2z m6 2v-2h-2v2z m-14 0v-2h-2v2z m12-2v-2h-2v2z m-14 0v-2h-2v2z m4 4v-2h-2v2z m-18-8v2h2v-2z m98 8v2h2v-2z m-4-2v2h2v-2z m-16 0v2h2v-2z m2 4h2v-2h-2z m4-4h-2v2h2z m22 4v-2h-2v2z m-130-10v-2h-2v2z m4-8v-2h-2v2z m118 14h2v-2h-2z m-136-14v-2h-2v2z m138 12h2v-2h-2z m2 2v2h2v-2z m-14 0v-2h-2v2z m14-6v2h2v-2z m10 2v-2h-2v2z m-108-4v2h2v-2z m56 2v2h2v-2z m-104-8v-2h-2v2z m36 10v-2h-2v2z m16 0v-2h-2v2z m84 6v-2h-2v2z m-20-8v2h2v-2z m24 0v2h2v-2z m-50 4v2h2v-2z m48 0h2v-2h-2z m-8-4v2h2v-2z m-4 0v2h2v-2z m-2 4h2v-2h-2z m-10 0h2v-2h-2z m20-4v2h2v-2z m-118 14h2v-2h-2z m-20-4v2h2v-2z m24 0h2v-2h-2z m-14 2v-2h-2v2z m60 4v-2h-2v2z m-42-10h-2v2h2z m-6 6h2v-2h-2z m50 0h-2v2h2z m44 4v2h2v-2z m-50 0v-2h-2v2z m-6-2v2h2v-2z m14-4h-2v2h2z m-6 0v2h2v-2z m-78-8v-2h-2v2z m-50-4v2h2v-2z m48 2v-2h-2v2z m-70-2v2h2v-2z m208 14h-2v2h2z m-192-12v-2h-2v2z m22 0v-2h-2v2z m24-4v2h2v-2z m32 10v-2h-2v2z m-10 2v-2h-2v2z m12 0v-2h-2v2z m-68-12v2h2v-2z m36 4h2v-2h-2z m4-4h-2v2h2z m30 8h-2v2h2z m-24-6h-2v2h2z m32-28v-2h-2v2z m32 0v-2h-2v2z m-8-2v2h2v-2z m-4 0v2h2v-2z m-14 2v2h2v-2z m116 6v-2h-2v2z m-106-8v2h2v-2z m-38 0v2h2v-2z m-344 4v-2h-2v2z m-30 0v-2h-2v2z m380-2v-2h-2v2z m8 2v-2h-2v2z m2-4h-2v2h2z m-26 4v-2h-2v2z m160 2v-2h-2v2z m32 36v2h2v-2z m-4 0v2h2v-2z m8 2h2v-2h-2z m4-4h-2v2h2z m-4-2v2h2v-2z m-10 8h2v-2h-2z m4-16v2h2v-2z m0 16h2v-2h-2z m-8-24v2h2v-2z m6 12h2v-2h-2z m10-10v-2h-2v2z m-68 22v2h2v-2z m64 0h2v-2h-2z m6-14v-2h-2v2z m-28 6v2h2v-2z m-110 4v-2h-2v2z m-6-2v2h2v-2z m8-4v2h2v-2z m10 8v-2h-2v2z m-8-2v-2h-2v2z m2-4h-2v2h2z m20 8h2v-2h-2z m12-4v2h2v-2z m-62-4h2v-2h-2z m48 4v-2h-2v2z m6 0h-2v2h2z m4 0v2h2v-2z m-4-4v2h2v-2z m-262-14v-2h-2v2z m264 16v2h2v-2z m-82-8v-2h-2v2z m8-6h-2v2h2z m2 4v-2h-2v2z m16 2v2h2v-2z m-22 0v-2h-2v2z m2-4h-2v2h2z m-16 2v2h2v-2z m34 6v-2h-2v2z m6-2h-2v2h2z m2-2h-2v2h2z m-36 0v-2h-2v2z m14 2h2v-2h-2z m4-4h-2v2h2z m4 4v2h2v-2z m100 8h-2v2h2z m38-32v2h2v-2z m-68-4v2h2v-2z m32 34h-2v2h2z m44-24v-2h-2v2z m12-4v-2h-2v2z m-38 2v2h2v-2z m-38-10v2h2v-2z m-326 10v-2h-2v2z m34 8v2h2v-2z m-58-10v2h2v-2z m224-4v2h2v-2z m178 24v-2h-2v2z m-256-18v-2h-2v2z m84-4v-2h-2v2z m128-4v-2h-2v2z m66 34h-2v2h2z m-4 4h2v-2h-2z m-40-4v2h2v-2z m-16 6h2v-2h-2z m12 0v-2h-2v2z m8-2v-2h-2v2z m24-2h2v-2h-2z m-2-4v2h2v-2z m4-8v-2h-2v2z m4 12v-2h-2v2z m6-2v-2h-2v2z m-2 6h2v-2h-2z m-258-18v-2h-2v2z m256 14v2h2v-2z m-164-14v-2h-2v2z m92 20v-2h-2v2z m14 0v-2h-2v2z m-4 0v-2h-2v2z m34 0v-2h-2v2z m-10-4v2h2v-2z m4 4v-2h-2v2z m-36-4h-2v2h2z m2-2h-2v2h2z m82-4v2h2v-2z m-80 0v2h2v-2z m0 8v-2h-2v2z m4-6h-2v2h2z m-2 2h-2v2h2z m74-16v2h2v-2z m-84 16v2h2v-2z m70-16v2h2v-2z m-8 0v2h2v-2z m-12 0v2h2v-2z m6 0v2h2v-2z m26 10v2h2v-2z m-28-6v-2h-2v2z m38 4v2h2v-2z m-8 4v2h2v-2z m-4-10v2h2v-2z m8 6v2h2v-2z m2-6v2h2v-2z m-8 4h-2v2h2z m-4 2v2h2v-2z m-134 8v-2h-2v2z m-20-6v-2h-2v2z m-12 0v-2h-2v2z m14 4v-2h-2v2z m-8 4v-2h-2v2z m24-8h-2v2h2z m-20 6v-2h-2v2z m-14-6v-2h-2v2z m-34-10v2h2v-2z m-86 4v-2h-2v2z m102-6v2h2v-2z m10 12v-2h-2v2z m98 12v-2h-2v2z m-104-20v-2h-2v2z m22 6v-2h-2v2z m-12 2v-2h-2v2z m58 10v-2h-2v2z m-4 0v-2h-2v2z m24-2h-2v2h2z m12 4v-2h-2v2z m-14 0v-2h-2v2z m10 0v-2h-2v2z m-42-8v-2h-2v2z m-8 0v-2h-2v2z m4-4v2h2v-2z m10 10v-2h-2v2z m-8-2v-2h-2v2z m82-18v2h2v-2z m-62 18v-2h-2v2z m-16 0v-2h-2v2z m-170-38v2h2v-2z m210-2v2h2v-2z m-4 0v2h2v-2z m-28 0v2h2v-2z m-12 0v2h2v-2z m58 2v-2h-2v2z m-54-2v2h2v-2z m72-2v2h2v-2z m18 0v2h2v-2z m-8 2v2h2v-2z m-6-2v2h2v-2z m2 4v2h2v-2z m-86-2v2h2v-2z m76-2v2h2v-2z m18 0v2h2v-2z m-244 4v2h2v-2z m-18 24v-2h-2v2z m-18-24v2h2v-2z m-28 0v2h2v-2z m-60 0v2h2v-2z m24 0v2h2v-2z m238-4v2h2v-2z m-28 4v-2h-2v2z m36-2v2h2v-2z m-16 0v2h2v-2z m-66 4v-2h-2v2z m-24-2v2h2v-2z m60 2v-2h-2v2z m-30-2v2h2v-2z m230-2v2h2v-2z m-82 16v2h2v-2z m14 0v2h2v-2z m-6 0v2h2v-2z m-38 0v2h2v-2z m60-4v2h2v-2z m-42 2v2h2v-2z m68 4v2h2v-2z m-6 0v2h2v-2z m-6 0v2h2v-2z m6-4v-2h-2v2z m-22-12v2h2v-2z m-36 16v2h2v-2z m28-2v2h2v-2z m10 2v2h2v-2z m6 0v2h2v-2z m42-18v2h2v-2z m-8 0v2h2v-2z m-4 0v2h2v-2z m-18 2v2h2v-2z m-24 18v2h2v-2z m40-16v-2h-2v2z m4 0v2h2v-2z m18 6v-2h-2v2z m-44-2v2h2v-2z m26 2v2h2v-2z m10-4v2h2v-2z m-22 8v-2h-2v2z m18-12v2h2v-2z m8 2v2h2v-2z m-42 38v-2h-2v2z m-20-12h-2v2h2z m-2 4v-2h-2v2z m-82-6v2h2v-2z m72 6v-2h-2v2z m6 2v-2h-2v2z m44-6v2h2v-2z m-48 8h2v-2h-2z m0-8h-2v2h2z m-70 2v-2h-2v2z m2 2v-2h-2v2z m6 0v-2h-2v2z m56 0v-2h-2v2z m-10 0v2h2v-2z m16 8v-2h-2v2z m48 0v-2h-2v2z m4 0v-2h-2v2z m0-10v2h2v-2z m-56 6v-2h-2v2z m50-10v2h2v-2z m-6 4v2h2v-2z m-2-2v2h2v-2z m-4 12v-2h-2v2z m-6-2v-2h-2v2z m14 2v-2h-2v2z m-60-6v-2h-2v2z m56 6v-2h-2v2z m6-4h-2v2h2z m-4-2v2h2v-2z m-42 4v-2h-2v2z m-20-16v2h2v-2z m6-2v2h2v-2z m-18 0v2h2v-2z m-6 0v2h2v-2z m14 4v2h2v-2z m-456-28v-2h-2v2z m482 28v2h2v-2z m-44-4v2h2v-2z m32 8v2h2v-2z m-6-4v2h2v-2z m4 6v-2h-2v2z m-6-2h2v-2h-2z m16-4v2h2v-2z m-10 0v2h2v-2z m-212-2v-2h-2v2z m128-4v2h2v-2z m-2 2v-2h-2v2z m-14 2v-2h-2v2z m28-4v2h2v-2z m-32 4v-2h-2v2z m-4 0v-2h-2v2z m40-2v2h2v-2z m26 0v2h2v-2z m-22 4v-2h-2v2z m26-4v2h2v-2z m-26-2v2h2v-2z m30 2v2h2v-2z m-46 0v2h2v-2z m6 2v-2h-2v2z m58-2v2h2v-2z m-62-20v2h2v-2z m-18 0v2h2v-2z m-4 2v-2h-2v2z m-12-2v2h2v-2z m20-2v2h2v-2z m20 2v2h2v-2z m58 2v2h2v-2z m18 0v2h2v-2z m8 0v2h2v-2z m-56-2v2h2v-2z m62 2v2h2v-2z m-56-2v2h2v-2z m66 2v2h2v-2z m-30 0v2h2v-2z m-84 2v-2h-2v2z m-104 12v-2h-2v2z m48 2v-2h-2v2z m58-4v-2h-2v2z m-170 6v-2h-2v2z m6 2v-2h-2v2z m140-16v-2h-2v2z m-154 16v-2h-2v2z m328 4v2h2v-2z m-350-16v-2h-2v2z m26 4v-2h-2v2z m140-6v-2h-2v2z m-190 4v-2h-2v2z m12 2v-2h-2v2z m-20 0v-2h-2v2z m-22-2v-2h-2v2z m348 8v2h2v-2z m4-2v2h2v-2z m-26 0v2h2v-2z m16 4v2h2v-2z m-2-4v2h2v-2z m-10 0v2h2v-2z m48 4v2h2v-2z m-90-4v2h2v-2z m72 6v2h2v-2z m48 0v2h2v-2z m-40-2v2h2v-2z m-4 0v2h2v-2z m8 0v2h2v-2z m-16 0v2h2v-2z m34-16v-2h-2v2z m-34 2v2h2v-2z m-36 8v2h2v-2z m18-4v-2h-2v2z m24-6v2h2v-2z m38-4v2h2v-2z m-24 2v2h2v-2z m-8 8v-2h-2v2z m-68 4v2h2v-2z m-6 0v2h2v-2z m12 0v2h2v-2z m-16-2v2h2v-2z m14-2v2h2v-2z m-26 4v2h2v-2z m46-2v-2h-2v2z m-1064-52h4v-2h-4z m30-106v-2h-2v2z m-10-4v2h2v-2z m-6-2v2h2v-2z m0 6v2h2v-2z m-8 16h2v-2h-2v-2h-4v-8h-2v4h-2v2h2v4h4v4h2z m18-12v-2h-2v2z m-16-10v2h2v-2z m-4 10v2h2v-2z m32-6v-2h-2v2z m-14-8v2h2v-2z m-6-2v2h2v-2z m14 2v2h2v-2z m-20 34v-2h-2v2z m10-16v-2h-2v2z m-22 24v2h2v-2z m4 0h2v-2h-2z m0 4v-2h-2v2z m-6 0v2h2v-2z m4 2v2h2v-2z m-4 2v2h2v-2z m6-18v2h2v-2z m4 4h2v-2h-2z m0 12h-2v2h2z m2-16v-2h-2v2z m-2 6h-2v2h2z m-4-2h-2v2h2z m-4 2v2h2v-2z m2-6h-2v2h2z m-4 2v2h2v-2z m0-34v2h2v-2z m6-6v2h2v-2z m38 32v-2h-2v2z m-10 6v-2h-2v2z m-32-20v2h2v-2z m10-18h-2v2h2z m-8 32v2h2v-2z m-2 4h2v-2h-2z m0-36v2h2v-2z m18 42h2v-2h-2z m-20-20h2v-2h-2z m6 12v2h2v-2z m-6-18v2h2v-2z m0 12h2v-2h-2z m28-30v2h4v2h4v-2h-2v-2h-4v-2h-4v2z m-12 2h2v-2h-4v4h2z m8-4h2v-2h-4v2h-4v2h6z m-10 8v-2h-2v2z m4 24v-2h-2v2z m-10-12h-2v-10h4v-4h-2v2h-4v4h-2v2h2v2h-2v2h2v4h4z m18 16v-2h-2v2z m10-2h-2v2h-2v2h6v-2h-2z m-8 6h-2v2h4v-2h2v-2h-4z m8-12v-2h-2v2z m-20 16h2v-2h-2z m8-4h-4v-2h-4v-2h-4v2h2v2h4v2h4v2h4v-2h-2z m16-32v-2h-4v2z m2 2v14h-2v2h2v6h2v-24h-4v2z m-2 20h-2v6h2v-2h2v-2h-2z m158 60v2h2v-4h-2v-2h-2v4z m-46 8v4h2v-2h2v-2z m-2-2v2h2v-2z m22 8v-2h-8v4h2v-2h2v2h8v-2z m28 2h-2v2h-4v2h-2v-2h-4v-2h-2v2h-2v2h-12v2h14v-2h2v2h10v-2h2v-2h2v-4h-2z m-44-6v2h8v-2z m-12-4v2h4v-2z m32 10v2h8v-2z m-120-32v2h8v-2z m24 6v-2h-8v-2h-8v2h6v2h8v2h8v-2z m24 6v-2h-8v2h6v2h8v-2z m30 8v-2h-8v-2h-8v-2h-8v2h6v2h8v2h8v2h8v-2z m-48-12v2h10v-2z m56 12v2h2v-2z m80-42v2h2v-2z m6-12h-2v6h2v-4h2v-4h-2z m-4 8h-2v-2h-2v-2h-4v-2h-4v-2h-2v2h-2v2h6v2h4v2h2v4h2v-2h2v2h2v-6h-2z m14-18h-2v2h-4v2h6v-2h2v-2h2v-2h-4z m10-6v2h-6v2h8v-2h2v-2z m-18 14h4v-2h-2v-2h-2z m-6 16v4h2v-2h2v-4h-2v2z m-22-14v2h-8v2h10v-2h4v-2z m-148 32v2h2v-2z m-48-72v2h2v-2z m186 80v-2h-2v-2h-2v4z m2 4v2h2v-4h-2v-2h-2v4z m-6-40h2v-6h-2v4h-2v8h-2v22h2v4h2v-6h-2v-14h2v-2h-2v-2h4v-2h-2z m14 52v8h2v-10h-2v-2h-2v4z m-10-50h-2v4h2v-2h2v-4h-2z m-186 36v2h2v-2z m-4-12v2h2v-2z m-2-2v2h2v-2z m6 6v-2h-2v2z m-4 6h2v-2h-2z m2-14v2h2v-2z m0 10v2h2v-2z m-4-2v2h2v-2z m4-10h2v-2h-2z m2 6h2v-2h-2z m2-10h-2v2h2z m44 18h-2v2h2v10h-2v2h2v8h-2v2h2v4h-2v2h2v2h2v-36h-2z m-40-14h-2v2h2z m-2 2h-2v2h2z m4 2v-2h-2v2z m-14-4v2h2v-2z m2 28h2v-2h-2z m-2-6v2h2v-2z m12-24v-2h-2v2z m36 24v2h2v-2z m-40-2v2h2v-2z m40-2v2h2v-2z m-36-4v2h2v-2z m-6 0v2h2v-2z m4-2v2h2v-2z m-2-2v2h2v-2z m-2 16v-2h-2v2z m4 0v-2h-2v2z m-8-8v2h2v-2z m16 0v-2h-2v2z m22 48v2h2v-2z m-22-72v2h2v-2z m-6-6h-2v2h2z m4-6h-2v2h2z m-4 4h2v-2h-2z m20 8v-2h-2v2z m-18 4v2h2v-2z m4-12v-2h-2v2z m-2 10v-2h-2v2z m12-2h-2v2h2z m-2 4v-2h-2v2z m-4-2h-2v2h2z m8 2v-2h-2v2z m-10 2v-2h-2v2z m-12-8h2v-2h-2z m6-4v2h2v-2z m8-2v-2h-2v2z m0 6v-2h-2v2z m-4 0v-2h-2v2z m6-4v-2h-2v2z m-4 0h-2v2h2z m4-6v2h2v-2z m8 8h2v-2h-2z m-4-4v2h2v-2z m-4 4v2h2v-2z m10-4v2h2v-2z m-8-2v2h2v-2z m10 4v2h2v-2z m-6 4v-2h-2v2z m-6 2h-2v2h2z m22 60v2h2v-2z m2 2v2h2v-2z m0 6v2h2v-2z m0-12h2v-2h-2z m-2 2h2v-2h-2z m4 0v2h2v4h-2v2h2v4h-2v2h2v2h2v-20h-2v4z m-8 10h2v-2h-2z m4-2v2h2v-2z m240-102v2h-32v2h34v-4z m-240 108v2h2v-2z m-2-2v2h2v-2z m0-6v2h2v-2z m-42-122v2h2v-2z m8 70v2h2v-2z m40 42h2v-2h-2z m-30-46h-2v2h2z m2 4v-2h-2v2z m-4-2h-2v2h2z m-6 6h2v-2h-2z m18 2v2h2v-2z m-14-6h-2v2h2z m-14 52v-2h-2v2z m0 8v-2h-2v2z m0-4v-2h-2v2z m40-46v-2h-2v2z m-40 38v-2h-2v2z m10-36v2h2v-2z m-10 14v-2h-2v2z m44-14v-2h-2v2z m2 50v2h-4v-2h-2v4h2v2h2v-2h4v-2h2v-2z m-6-84v-2h-2v2z m-4 2h2v-2h-2z m-8-2h2v-2h-2z m4 0h2v-2h-2z m-6-4v2h2v-2z m12 10h2v-2h-2z m-6 2v2h2v-2z m10-4v-2h-2v2z m-8 6v2h2v-2z m4-2h-2v2h2z m2 0v2h2v-2z m-10-12v2h2v-2z m16 12v-2h-2v2z m-2-2v-2h-2v2z m-46-58v2h2v-2z m18-2v-2h-2v2z m-6 0h-2v2h2z m36 36v-2h-2v2z m-40-34v2h2v-2z m-4 0v2h2v-2z m38 48v-2h-2v2z m6-10v-2h-2v2z m-12 10v2h2v-2z m0-4v2h2v-2z m14 0v-2h-2v2z m-4 0v-2h-2v2z m4-4v-2h-2v2z m-8 4v-2h-2v2z m-16 30v-2h-2v2z m0-6v2h2v-2z m18 4v-2h-2v2z m-30-10v-2h-2v2z m28 4v-2h-2v2z m-16 14v-2h-2v2z m-2-10v-2h-2v2z m-4 8v-2h-2v2z m12-6h2v-2h-2z m6-4v-2h-2v2z m-4-2v-2h-2v2z m4 6h2v-2h-2z m4-4h-2v2h2z m-8 2h2v-2h-2z m-4-2v2h2v-2z m-2 8h-2v2h2z m6 2v-2h-2v2z m-6-6v2h2v-2z m4 4v-2h-2v2z m14-8v-2h-2v2z m4 4v-2h-2v2z m-2-2v-2h-2v2z m-30 12v-2h-2v2z m4 0v-2h-2v2z m2-4v-2h-2v2z m14-2v-2h-2v2z m4 4v-2h-2v2z m0-4v-2h-2v2z m4 0v-2h-2v2z m-8 4v-2h-2v2z m284-48v-4h-2v4z m268-50v2h2v-2z m-244 16v-2h-2v2z m118-10v2h2v-2z m46 2v-2h-2v2z m-20 0v-2h-2v2z m-280 40v2h2v-2z m182-60v2h2v-2z m-152 58v-2h-2v2z m564-102h2v-2h2v-2h-6v2h2z m-598 102v-2h-2v2z m12 0v-2h-2v2z m754-116v2h2v-2z m-594 58v2h2v-2z m230 14v-2h-2v2z m-62 2v-2h-2v2z m10-6v-2h-2v2z m-94 0v-2h-2v2z m38 6v-2h-2v2z m26-4v-2h-2v2z m-10 2v-2h-2v2z m4 6v-2h-2v2z m18 0v-2h-2v2z m12 0v-2h-2v2z m4-4v2h2v-2z m-26 4v-2h-2v2z m44-4v2h2v-2z m-10 4v-2h-2v2z m16-4v2h2v-2z m-146-8v2h2v-2z m228-36h2v-2h8v-2h2v2h2v-2h8v-2h2v-2h-4v2h-14v2h-8v2h2z m-12 0h10v-2h-12v2h-8v2h10z m-10 4v-2h-2v2z m-58 8h2v-2h2v-2h-6v2h2z m6 0v-2h-2v2z m8-4h2v2h2v-2h10v-2h14v-2h2v-2h-4v2h-14v2h-14v2h-6v2h8z m-366 84v-2h-2v2z m472-98h2v-2h10v-2h4v2h2v-2h16v-2h16v-2h-2v-2h-2v2h-14v2h-2v-2h-2v2h-18v2h-12v2h2z m-42 8h2v-2h-2z m118-16h2v-2h14v2h2v-2h8v-2h-2v-2h-2v2h-24v2h2z m-20 2h2v-2h16v-2h-2v-2h-2v2h-20v2h6z m-58 4h-2v-2h-2v2h-8v2h12z m-28 8h2v-2h-2z m16-4v-2h-2v2z m-58 10v-2h6v-2h2v-2h-4v2h-6v2h-2v2z m-266 24v-4h-2v4z m2-2h2v-2h2v2h2v-2h2v-2h-10v2h2z m-8 0h2v-2h2v-2h-6v2h2z m-60 56h-2v2h2z m244-66h2v-2h12v-2h14v-2h10v-2h-12v2h-14v2h-14v2h2z m-250 10h40v24h4v-2h-2v-22h22v-2h-2v-2h-2v2h-2v-2h-2v2h-4v-2h-2v2h-8v-2h-2v2h-4v-2h-2v2h-36v4h2z m-68 68v-2h-2v2z m274-72v-2h14v-2h16v-2h-2v-2h-2v2h-14v2h-14v2h-2v2z m-120 4v-2h8v2h2v-2h2v2h2v-2h6v2h2v-2h2v-2h-26v2h-2v2z m152-8h2v-2h8v-2h-12v2h2z m-38 6h2v-2h-2z m-88 4v-4h-2v4z m46-2h2v-2h2v2h2v-2h20v-2h2v2h2v-2h12v-2h-18v2h-26v2h2z m-44 0h28v2h2v-2h12v-2h-2v-2h-2v2h-32v-2h-2v2h-2v-2h-4v2h2z m-172 58v2h2v-2z m92-6v-2h-2v2z m110-20v2h2v-2z m-144 18v2h2v-2z m86 0v-2h-2v2z m-40 2v-2h-2v2z m12 0v-2h-2v2z m138-18v-2h-2v2z m32-6v-2h-2v2z m-14-2v2h2v-2z m-26 6v2h2v-2z m-6 0v2h2v-2z m-78 14v2h2v-2z m70-14v2h2v-2z m-152 10v2h2v-2z m38 2v-2h-2v2z m-14 2v-2h-2v2z m30-2v2h2v-2z m20 2v2h2v-2z m160-22v-2h-2v2z m-202 24v-2h-2v2z m12-2v-2h-2v2z m4 0v2h2v-2z m20 0v2h2v-2z m14-6v2h2v-2z m10 2v-2h-2v2z m-64-2v2h2v-2z m40 0v2h2v-2z m8 0v2h2v-2z m64-24v2h2v-2z m180-12v2h2v-2z m6 0v2h2v-2z m-94 0v2h2v-2z m18 0v2h2v-2z m44 0v2h2v-2z m-32 0v2h2v-2z m74 0v2h2v-2z m-116 18v2h2v-2z m38-12v2h2v-2z m56-2v-2h-2v2z m-62 6v2h2v-2z m54-6v-2h-2v2z m-28-2v2h2v-2z m-8 2v2h2v-2z m-48 4v2h2v-2z m-140 8v-2h-2v2z m50-2v-2h-2v2z m-18 4v-2h-2v2z m80-14v-2h-2v2z m-96 12v-2h-2v2z m24 0v-2h-2v2z m42-4v-2h-2v2z m-108-6v2h2v-2z m34 6v-2h-2v2z m84-4v-2h-2v2z m-76-2v-2h-2v2z m-24 6v-2h-2v2z m34-2v-2h-2v2z m-42 2v-2h-2v2z m-176 46v2h2v-2z m464-50v2h2v-2z m16-2v2h-12v2h-2v2h4v-2h12v-2h2v-2z m-228 34v2h2v-2z m310-44h-2v2h-20v2h2v2h2v-2h20v-2h-2z m-110 16h-12v2h-6v-2h-2v2h-8v2h2v2h2v-2h14v-2h12v-2h10v-2h-12z m34-8h-2v2h2z m52-6h-2v2h-16v2h-16v2h-16v2h-2v2h6v-2h2v2h2v-2h2v2h2v-2h6v-2h16v-2h18v-2h-2z m-234 34v2h2v-2z m-12 4h-12v2h-14v2h-10v2h-2v2h4v-2h10v-2h14v-2h12v-2h10v-2h-12z m28-4h-12v2h-2v2h4v-2h12v-2h10v-2h-12z m64-12v2h2v-2z m-12 4h-12v2h-14v2h-14v2h2v2h2v-2h12v-2h14v-2h12v-2h10v-2h-12z m40-6h-12v2h-12v2h-2v2h4v-2h12v-2h12v-2h10v-2h-12z m174-24h-2v2h-20v2h2v2h2v-2h20v-2h-2z m138-6v2h-2v2h4v-2h4v2h2v-2h18v-2z m-8 0v2h2v2h2v-2h2v-2z m-2 0h-2v2h-2v2h6v-2h-2z m44 6v2h6v-2z m-8-4v4h2v-2h2v-2z m6 0v2h-2v2h4v-4z m-50-2h-2v2h-32v2h36v-2h-2z m2 0v2h2v-2z m-92 4v2h2v-2z m40-2v2h2v-2z m-2 0h-2v2h-32v2h-2v2h4v-2h2v2h2v-2h30v-2h-2z m-40 2h-2v2h-24v2h2v2h2v-2h24v-2h-2z m50-2v2h2v2h2v-2h2v-2z m-2 0h-2v2h-2v2h6v-2h-2z m-544 84v-2h-2v2z m2 4h-2v4h2v-2h2v-14h2v-2h-2v-2h-2z m-26-14v2h2v-2z m22 20v2h-6v-2h-2v2h-6v-2h-2v2h-6v-2h-2v4h26v-2h4v-4h-2v2z m-6-4v-2h-2v2z m656-88h-2v2h2z m-664 86v-2h-2v2z m-266 80v2h2v-2z m270-84v-2h-2v2z m48-26v2h2v-2z m-36 2h-2v4h2z m122-6h-12v2h-2v2h4v-2h12v-2h10v-2h-12z m-146 34h-2v-12h-2v14h2v2h2z m22-22v-2h-2v-2h-2v2h-2v-2h-2v2h-2v-2h-2v2h-2v-2h-2v2h-2v-2h-2v2h-2v2z m-24-2h-2v-2h-2v4h4z m-102-52h2v-4h-2v-4h2v-2h10v2h8v-2h14v6h-2v4h2v-2h2v4h2v-4h2v4h2v-4h2v2h2v-6h-2v2h-8v-8h-10v-8h-2v8h-6v2h-2v-2h-6v-2h2v-2h-2v-4h4v-2h-2v-2h-2v2h-2v10h-8v2h-2v8h2z m176 48v2h-2v-2h-4v2h2v2h6v-2h2v-2z m-68 24v-2h-2v2z m74-26v4h2v-4z m52-4v2h2v-2z m-24 6h-2v-2h-8v2h-4v-2h-2v2h-2v-2h-2v2h-2v-2h-2v4h16v-2h2v2h10v-2h2v2h2v-2h4v-2h-12z m12-2h2v2h2v-2h8v-2h-12z m-24-2v2h2v-2z m-88 20v2h2v-2z m16 0v-2h-2v2z m-6 4v-2h-2v2z m-16-12v2h2v-2z m64-8h-2v2h-10v-2h-2v2h-24v2h2v8h2v-8h2v2h2v-2h32v-2h-2z m-50 14v-2h-2v2z m-6-2v-2h-2v2z m594-114v-2h-2v2z m106-10v2h2v-2z m2 4h2v-2h-2z m-2 2h2v-2h-2z m0-8h4v-2h-6v4h2z m-44 8h4v-2h-4z m38-6v2h4v-2h-2v-2h-20v2z m-20 2v-4h-2v4z m54-2v-2h18v-2h-2v-2h-2v2h-2v-2h-2v2h-12v2h-2v2z m20-2h6v-2h2v-2h-4v2h-2v-2h-4v2h2z m-42 4v-4h-2v4z m14-2h2v-2h2v-2h-10v2h6z m-12 0h2v-2h2v-2h-6v2h2z m6 0v-2h-2v2z m-64 8v-2h-2v2z m-144 6v-2h-2v2z m46-2h2v-2h20v-2h-2v-2h-2v2h-24v2h6z m24-2h6v-2h6v2h2v-2h2v-2h-12v2h-2v-2h-4v2h2z m-68 4h2v-2h20v-2h-2v-2h-2v2h-20v2h2z m24-2h2v-2h2v2h2v-2h6v-2h-14v2h2z m128-8h2v-2h-2z m-114 8v-2h-2v2z m118-12h2v-2h6v-2h-10v2h2z m-64 10h2v-2h36v-2h-2v-2h-2v2h-2v-2h-2v2h-36v2h6z m62-8h2v-2h-2z m-4-2h4v-2h-6v2h-2v2h4z m-18 8h2v-2h2v2h2v-2h2v-2h-10v2h2z m106-8h2v-2h-2z m-92 2h-2v-2h-2v2h-2v2h6z m220-4v-4h-2v4z m-32 52v4h2v-4z m-52 2v4h2v-4z m-4 0v4h2v-4z m54 0h-2v2h-18v-2h-6v2h-8v2h2v2h2v-2h6v-2h2v2h24v-2h-2z m-42 0v4h2v-4z m4 0v4h2v-4z m-8 0v4h2v-4z m-10 2h-2v2h-2v2h6v-2h-2z m-80 0h-2v2h-2v2h22v-2h-18z m-8 0v2h-4v-2h-2v2h-16v2h-2v2h4v-2h22v-2h2v-2z m26 0v2h2v-2z m34 0v2h-26v-2h-4v2h-2v2h34v-2h2v-2z m-2-54h2v-2h-2z m18 54h-2v2h-6v-2h-2v2h-2v2h18v-2h-6z m6 0v2h2v-2z m42-56h2v-2h22v2h6v-2h10v2h2v-2h6v-2h-20v2h-2v-2h-28v2h2z m-8 2h2v-2h-2z m2-2h4v-2h-2v-2h-22v2h20z m-54 0v-2h20v2h2v-2h2v2h6v-2h2v-2h-4v2h-2v-2h-28v2h-2v2z m34 0v-2h-2v2z m-32 2v-2h-2v2z m108-2v-2h-2v2z m8 6v2h2v-2z m2 10h2v2h-2v2h2v16h-2v2h2v6h-2v2h2v2h-2v2h2v2h2v-38h-2v-2h2v-2h-2v-2h-2z m2-10v-10h-2v10z m-212 52v2h2v-2z m188-56h2v-2h-2z m22 54h-4v-2h-2v2h-2v-2h-22v-2h-4v4h24v2h12v-6h-2z m-38-54h2v-2h-2z m-1138 222h-2v2h2z m112-10h2v-2h-2z m2-4v-2h-2v2z m-4-2h2v-2h-2z m-18 10v-2h-2v2z m24-6v-2h-2v2z m-4-6h2v-2h-2z m-12 4h-2v2h2z m32 2h2v-2h-2z m-6 2h2v-2h-2z m-8-2h2v-2h-2z m2-2h2v-2h-2z m4 0h2v-2h-2z m4 2h2v-2h-2z m-52 6h2v-2h-2z m8-8v2h2v-2z m2-6h2v-2h-2z m2-4v2h2v-2z m-6 0v-2h-2v2z m2 0h2v-2h-2z m-6 10v6h2v-4h2v-2z m4-4h-2v-2h4v-2h-6v6h4z m4 12h2v-2h-2z m-2 0v-2h-4v2z m-2-4h2v-2h-2z m54 0h2v-2h-2z m-60-6v2h2v-2z m-4 2h2v-2h-2z m2-4v2h2v-2z m150-28v-2h-2v-2h-2v4z m-58 66h2v-2h-2z m-4-2h2v-2h-2z m14-30h-4v-2h-2v2h-4v2h10z m6 20v2h2v2h2v-16h-2v12z m-2 4h-4v2h-2v2h-4v-2h-6v2h4v2h2v2h2v-2h4v-2h2v-2h4v-4h-2z m-18-2v2h-2v2h4v-4z m-8-8v2h2v-2z m74-44v2h6v-2h-4v-2h-4v-2h-2v4z m-50 34v2h4v2h2v-4h-4v-2h-4v2z m92-26v-2h-2v2z m-30-4v2h28v-2h-26v-2h-8v2z m-52-14h-2v2h2z m-112 28h2v-2h-2z m140-28h2v2h2v-4h-2v-4h2v-2h-2v-2h-2z m-66 50h-2v2h2v2h2v-6h2v-2h-2v-2h-2z m8 14h2v-4h-2v-2h2v-4h-2v2h-2v6h2z m-12-6h2v-2h-2z m12-6h2v-6h2v-2h-4v6h-2v4h2z m-24-8h2v-2h-2z m14 12h2v-2h-2z m-4-2v2h2v-2z m38 4v-2h-2v2z m-18-12h2v-4h-4v2h2z m2 12v2h2v-2z m8-8v-2h-2v2z m0 12v-2h-2v2z m0-6v-2h-2v2z m8-4v-2h-2v2z m-16-2v2h2v-2z m-102-36h-2v2h2z m-16 42v-2h-2v2z m84-34h2v-4h-2z m-148 24h2v-4h-2z m60 12h2v-2h-2z m-62-18v2h2v-2z m158-16h2v-4h-2z m-4 8v2h2v-2z m8 4h-2v2h2z m-4-2h-2v2h2z m18 4h2v-2h4v-2h-6z m-180-6h2v-2h-2z m176 10h-2v2h4v-4h2v-2h-4z m-6 0v2h2v-2z m-2-2h-4v-2h-4v2h2v2h4v4h4v-2h-2z m-162-28h-2v2h2v2h-4v2h4v2h2v-10h-2z m-16-4h2v-2h-2z m-22 2v-2h-2v2z m-4-2h2v-2h-2z m136 18h2v-2h-2z m-124-16h2v-2h-2z m-20-8v2h2v-2z m50 22h-4v2h4v4h2v-8h-2z m-14 8h2v-2h-2z m-2 2h2v-2h-2z m4-6v2h2v-2z m4 0v2h2v-2z m8 2h-2v4h2v2h-2v2h2v2h2v-8h-2z m-4-2v2h2v-2z m0-8v2h4v-2z m106-6h-2v2h2z m2 4v-2h-2v2z m-12 0v-2h-2v2z m6-4h-2v2h2z m-2 4v-2h-2v2z m4 0v-2h-2v2z m-6-4h-2v2h2z m-8-2h-2v2h2z m-4 0h-2v2h2z m6 4h-2v2h2z m-12-4v2h2v-2z m14 2h-2v2h2z m-6 2v-2h-2v2z m204 2h2v-2h2v-2h-6v2h2z m-158 10v4h2v-4z m-4 0v2h-2v-2h-6v-2h-2v2h-2v2h6v2h8v-4z m-18 2h-2v4h4v2h2v-4h-4z m-12-8v-2h-10v-2h-8v-2h-4v-2h-2v2h-4v4h2v-2h6v2h4v2h2v-2h2v2h8v2h2v-2z m54 14v2h4v-2z m0 0v-2h-6v-2h-2v4h4v2h2v-2z m-14-4v-2h-2v2h-2v4h2v-2h4v2h2v-4z m-24 0h2v-2h-2z m-8-12h-2v2h2z m-4 2v-2h-2v2h-2v2h6v-2z m14 0h-2v2h2z m12 4h-2v2h2z m-20 8h-2v6h-2v2h2v2h2v-6h2v4h6v-2h-4v-4h-4z m8-8h-2v-2h-6v-2h-2v2h-2v2h4v2h8z m2 0v-2h-2v2z m-126 6h2v-2h-2z m394-86h2v-2h-2z m-4 0h2v-2h-2z m-80 46v2h2v-2z m-64-2v-10h-2v10z m64-16v2h2v-2z m394-72h2v-2h-2z m-434 48h2v-2h-2z m620-64h2v-2h-2z m228 2h2v-2h-2z m4 0h2v-2h-2z m-8 0h2v-2h-2z m-130 2h8v-2h-8z m142-2h2v-2h-2z m-16 0h2v-2h-2z m90 206v2h2v-2z m-758-74h-2v2h2z m756 112v2h2v-2z m6-38v-2h2v-2h-2v-12h-2v16z m-38-14v2h4v-2h16v2h2v-2h8v-2h-2v-2h-2v2h-28v2z m32 0h2v-2h2v-2h-6v2h2z m4 38h-2v2h2v14h-2v4h2v-2h2v-28h2v-2h-2v-4h2v-2h-2v-4h-2z m-392-46h-2v2h2z m32 2h-2v2h2z m-232-28h-2v2h2z m276 30h-2v2h2z m320 20v-2h-2v2z m-8 40h-2v2h-2v2h6v-2h-2z m-308-60h-2v2h2z m-784-174h-2v2h2z m56 164h2v-2h-2z m-12 0h2v-2h-2z m-8 0h2v-2h-2z m-44 0h2v-2h-2z m40 0h2v-2h-2z m-16 0h2v-2h-2z m-74 0h2v-2h-2z m906 62h2v-2h-2z m42 8h2v-2h-2z m-690-68h2v-2h-2z m756 70h2v-2h-2z m-628-60h2v-2h-2z m456 48h2v-2h-2z m-44-2h2v-2h-2z m320-238h2v-2h-2z m-168-60h-2v2h2z m-488 54h-2v2h2z m684-58h-4v2h4z m12 14v-2h-2v2z m-4-14h-6v2h6z m-1148 80h-2v2h2z m1108 178v-2h2v-2h-4v2h-2v2z m-1214-80v2h2v-2z m290-142h-18v2h18z m-128 44h-2v2h2z m12 0h-2v2h2z m96-44h-2v2h2z m-82 44h-2v2h2z m494 150v2h16v-2h-8v-2h-2v2h-4v-2h-10v-2h-2v2h-2v2z m-326-34v-2h-2v2z m344 40v-2h2v2h2v-2h2v-2h-8v4z m-34-8v2h2v-2h2v-2h-8v2z m-174-26v-2h-2v2z m74 10v2h12v2h12v2h16v2h12v2h12v2h14v2h12v2h4v-2h-2v-2h-12v-2h-14v-2h-12v-2h-12v-2h-16v-2h-12v-2h-12v-2h-14v-2h-2v2h-2v2z m-60-10v2h6v2h14v2h12v2h12v-2h-10v-2h-12v-2h-8v-2h-4v2h-2v-2h-6v-2h-14v2z m244 38v2h12v2h2v-2h2v-2h-14v-2h-10v-2h-2v2h-2v2z m32 4v2h16v2h2v-2h2v-2h-18v-2h-14v-2h-2v2h-2v2z m22 6v-2h2v2h2v-2h2v2h2v-2h2v2h16v2h20v2h2v-2h2v-2h-18v-2h-2v2h-2v-2h-6v-2h-2v2h-2v-2h-2v2h-2v-2h-16v4z m-70-12v2h2v-2h2v-2h-12v2z m-24-2h12v2h2v-2h2v-2h-14v-2h-4v2h2z m-2 0v-2h-2v2z m-218-36v-2h-12v-2h-2v2h-2v2z m714 60h2v-2h-2z m-836-92h-2v-2h2v-2h6v-2h-8v2h-2v2h-2v2h2v2h4z m2 0v2h6v-2h-4v-2h-4v2z m-4 4h-2v2h2z m494 82v-2h-2v-2h-2v2h-2v2z m-498-70h2v-10h-2v8h-2v8h2z m14-18v-2h-2v2z m58 32h40v-2h-28v-2h-2v2h-4v-2h-2v2h-2v-2h-4v2h2z m-8 0h2v-2h2v-2h-6v2h2z m-48-32h2v-2h2v-2h-6v2h2z m54 32v-2h-2v2z m-8 0v-2h-2v2z m-40-32v-2h-2v2z m2 0h6v2h2v-4h-6v-2h-4v2h2z m0 4h4v2h2v14h2v8h2v2h6v2h2v-2h18v-2h-24v-2h-2v-8h-2v-14h-2v-2h-6z m-26 20h-2v2h-2v2h4z m770 66h2v-2h6v2h2v-2h2v-2h-34v2h22z m-86 0h2v-2h-2z m22 0h2v-2h2v-2h-10v2h6z m-6 0v-2h-2v2z m14 0v-2h16v2h2v-2h6v2h6v-2h2v-2h-4v2h-2v-2h-28v2h-2v2z m60 2v-2h-2v2z m-26-2v-2h-2v2z m62 0v-2h-2v2z m2 0h14v2h2v-2h2v2h2v-2h14v2h2v-2h2v-2h-28v-2h-2v2h-6v-2h-4v2h2z m-2 2h2v-2h-2z m-4 0h2v-2h-2z m-22-2v-2h-2v2z m2 0h2v-2h2v2h2v-2h2v2h2v-2h2v2h2v2h2v-2h4v-2h2v-2h-4v2h-4v-2h-16v2h2z m-10 4v-2h-2v2z m-212-2v-2h-2v2z m12 0v-2h-2v-2h-2v2h-2v2z m4 2v-4h-2v4z m-14-2h2v-2h2v-2h-6v2h2z m-44-4v2h2v-2h2v-2h-24v2z m10 2v-2h-2v-2h-2v2h-2v2z m26 0v2h2v-2h2v-2h-24v-2h-2v2h-2v2z m112 0h2v-2h4v-2h-8v2h2z m10 2v-2h-2v2z m-2-2v-2h-2v2z m4-2h-2v2h2z m-62 6v-2h-2v2z m-6-2v2h2v-2h2v-2h-36v2z m72-4h8v2h2v-2h2v-2h-10v-2h-12v2h10z m-64 6h2v-2h2v2h38v-4h4v-2h-6v4h-24v-2h-2v2h-4v-2h-2v2h-2v-2h-8v2h2z m-900-38v-2h-4v4h2v-2z m38-120v2h2v4h-2v2h2v4h-2v2h2v4h-2v2h2v4h-2v2h2v2h-2v2h2v12h-2v2h2v2h-2v2h2v4h-2v2h2v6h-2v2h2v8h2v-2h2v-4h-2v-2h2v-2h-2v-2h2v-2h-2v-2h2v-2h-2v-2h2v-2h-2v-52h-2v4z m-2-2h2v-2h-2z m-46-8h8v-2h-2v-2h-2v2h-6v2h-4v2h6z m46 32v2h2v-2z m-8-34v2h6v2h6v-2h-4v-2h-6v-2h-14v-2h-2v2h-2v-2h-2v2h-2v2z m10 8h2v-2h-2z m-38-6h2v-2h4v-2h-8v2h2z m36 60h2v-2h-2z m0 8v2h2v-2z m-4-18v2h2v-2z m-52-14h-2v2h2z m56 14v2h2v-2z m-2 4h2v-2h-2z m-50-28h-4v2h4v2h2v-6h-2z m0-14h-2v2h2v8h2v-12h-2z m-2-2h-2v-2h-8v2h6v2h4z m2-2h-2v2h2z m-4 16h4v-2h-2v-8h-4v2h2v2h-2v2h2v2h-2v4h2z m0 12h2v-4h2v-2h-4v2h-2v2h2z m0-8h-2v2h2z m54 38v2h2v-2z m-46-42v-2h-2v2z m2 18h-2v2h2z m-2-32v-2h-2v2z m-2-6h-2v-2h-2v4h2v2h2z m-4 32v2h2v6h2v-12h-2v4z m6 10v-2h-2v2z m-6-2v2h2v-2z m50 12h2v-2h-2z m148-16h-2v6h2v-4h2v-4h-2z m56-18h2v-2h2v2h2v-2h6v2h2v-2h24v-2h-2v-2h-2v2h-36v2h2z m-2 0v-2h-2v-2h-2v2h-2v2z m-70 2h2v2h6v-2h6v-2h8v4h2v-4h38v-2h-2v-2h-2v2h-2v-2h-2v2h-2v-2h-2v2h-2v-2h-2v2h-34v2h-6v2h-2v-2h-8v-2h-4v-2h-2v-2h-2v-2h-2v-4h-2v6h2v2h2v2h2v2h4v2h4v2h2z m0 4h2v-2h-2z m20 4h-2v6h2v-4h2v-8h-2z m44-16h-2v4h2z m52 0h2v-2h-4v2h-4v2h6z m4-20h2v-2h-2z m-138 6v6h-2v2h4v-8z m-10 34h2v-2h6v-2h8v-2h6v-2h2v2h2v-4h-6v2h-6v2h-8v2h-8v2h2z m148-24h2v-4h-2v2h-2v4h2z m4-6h2v-2h-2v-2h-2v6h2z m2-6h2v-2h-2v-6h-2v-6h-2v-2h-2v-2h-4v4h4v4h2v4h2v8h2z m-192 44h-6v-2h-2v4h8z m50-48h2v-4h-2v2h-4v2h2v4h2z m-14 38h-2v-2h-2v4h4z m-82 22h-8v2h8z m-14 26h2v-2h-2z m-2 2h2v-2h-2z m-4-2v2h2v-2z m2 4h2v-2h-2z m2-8v2h2v-2z m70-36h-2v-2h-2v2h-4v2h8z m-40 10h-6v-2h-2v4h8z m46-12h8v-2h10v-2h-2v-2h-2v2h-8v2h-8v2h-2v-2h-2v4h6z m-38 10h-2v-2h-2v2h-4v2h8z m16-4h-2v-2h-2v2h-4v2h8z m-8 2h-2v-2h-2v2h-4v2h8z m-24 6h-6v2h6z m-34 58v2h2v-2z m-12 0v2h2v-2z m10 6v-2h-2v2z m-8 0v2h2v-2z m-6 0v2h2v-2z m-10-2v2h2v-2z m22-6v-2h-2v2z m-20 0v2h2v-2z m22-6v-2h-2v2z m-12-2v2h2v-2z m6 4v-2h-2v2z m8 14v2h2v-2z m-20-14v2h2v-2z m2 6v2h2v-2z m4 30h-2v2h2z m2-14v2h2v-2z m-14 14v2h2v-2z m24 0h2v-2h-2z m-6 0v2h2v-2z m-6 2v2h2v-2z m350-128v2h2v-2z m-380 28h2v-6h-2v2h-2v2h2z m42 84v-2h-2v2z m-20-4v2h2v-2z m2 16v-2h-2v2z m-4 0v-2h-2v2z m8-2h4v2h2v-4h-4v-2h-2v-2h-4v-2h-4v2h2v2h4v2h2z m-2-2h-2v2h2z m18 4h2v-2h-2z m-26-6h2v-2h-2z m-10-12h2v-2h-2z m0-12h2v-2h-2z m8-10h-2v2h2z m-8 16h2v-2h-2z m14 20h-2v2h2z m-4 0h-2v2h2z m-12-90h-2v2h-2v2h2v2h-4v2h4v2h2z m-6 0v-2h-2v4h4v-2z m8 10h-2v2h2z m0 30h-2v2h2z m40 48v-2h-2v2z m-36 2v2h2v-2z m0 4v2h2v-2z m6-36v-2h-2v2z m18-8v2h4v-2h-2v-2h-4v2z m8 4v-2h-4v2z m2 2v2h4v22h-2v2h-4v2h-2v2h4v-2h4v-2h2v-26h-4v-2h-4v2z m-14-8h2v-2h-4v2h-2v2h4z m-18 30v-2h2v-2h-2v-6h2v-2h-2v-6h2v-2h-2v-2h-2v4h-2v2h2v4h-2v2h2v4h-2v2h2v10h2v-2h2v-4z m8-24h4v-2h2v-2h-4v2h-4v2h-2v2h4z m16 40h2v-2h-2z m-2 2v-2h-2v2z m4-12h-2v4h4v-2h-2z m-14 10v2h2v-2z m18-4v-2h-2v2z m-4 2h2v-2h-2z m-10 4h2v-2h-2z m4-8v2h2v2h2v-4z m-66-70h2v-2h-2z m-2 2h2v-2h-2z m6-4v-2h-2v2z m-12 4h2v-2h-2z m-10-2v2h4v-2z m26-6h-4v2h4z m-34 4v4h2v-2h6v-2z m38 0v2h2v-2z m-2-2h-2v2h2z m252-78h2v-2h-2z m-246 78h2v-2h-2z m0-4h-4v2h4z m-2 6h2v-2h-2z m-2-2v-2h-2v2z m-22 2v2h2v-2z m-2-4v-2h-2v2z m-2-2v-2h-4v2z m0 10v2h2v-2z m-8-8v2h6v-2z m16 8v2h2v-2z m-14-12h-4v2h4z m14 6h-2v2h2z m-6 30v-2h-2v2h-2v4h2v-2h4v-2z m6-28v2h4v-2z m12 0v2h2v-2z m-6 0v-2h-2v2z m-8-2v-2h-4v2z m6 0v-2h-2v2z m-14 2h4v-2h-4z m-8-2v-4h-2v4z m16-8h-2v2h2z m-2 2h-2v2h2z m6 2h-4v2h4z m6 2h-2v2h2z m-8-6v2h4v-2z m4 4h6v-2h-6z m32 36v2h-2v2h4v-2h2v-2z m-2-2v-2h-2v2h-6v-2h-2v4h12v-2z m-14-2v2h-6v-2h-2v2h-6v-2h-2v2h-2v-2h-2v2h-2v2h12v2h2v-2h6v2h2v-2h2v-4z m-22 0h-2v2h2z m12-36v2h2v-2z m-20-2h-2v2h2z m-2 2h-2v2h2z m50 36h-2v2h2z m-8-36h-2v2h2z m2 8v-2h-2v2z m-6 2h4v-2h-4z m8-6h-2v2h2z m-4 2v-2h-2v2z m-6 6v-2h-2v2z m2-6v-2h-2v2z m6-6v2h2v-2z m-12 0v2h2v-2z m-4 4h-2v2h2z m8-2h-2v2h2z m-4 12h2v-2h-2z m-8-12v2h2v-2z m24 0h-2v2h2z m-8 0h-2v2h2z m-34 12h2v-2h-2z m116-18v2h2v-2z m-44-54h-2v2h2z m40 58v2h4v-2z m-112-20v2h2v-2z m118 20h2v-2h-2z m-84-46v2h2v-2z m54-12v-2h-2v2z m-76 28v2h-2v2h-2v2h-4v2h2v2h-2v2h-2v4h2v-2h2v-2h2v-4h2v-2h2v-2h2v-4z m18-10h-2v2h-2v2h4v-2h2v-2h4v-2h-6z m-22 10v2h2v-2z m4-4v2h2v-2z m6 2h-4v2h2v4h2v-4h2v-2h2v-2h-4z m8-10v2h2v-2z m-2 4h-2v4h4v-2h-2z m82-10v-2h-2v2z m104 18h2v-2h-2z m-90 26v2h2v-2z m88-48v2h2v-2z m4 26v2h2v-2z m-6-28v2h2v-2z m6 22h2v-2h-2z m6 4v2h2v-2z m-70 18v2h2v-2z m4-2v2h2v-2z m58-16v2h2v-2z m-70 20v2h2v-2z m52-14v2h2v-2z m-12 4v2h2v-2z m8-2v2h2v-2z m-150-8v2h2v-2z m2 18v2h2v-2z m2 14v2h6v-2z m-2-22v2h2v-2z m0 4v2h2v-2z m0-8v2h2v-2z m2 34h2v-2h-2z m-4 0h-2v2h2z m4-4h-2v2h2z m-12 4v2h4v-2z m-6 0h-4v2h4z m18 2v2h2v-2z m-2 0h2v-2h-2z m-26-2v2h2v-2z m26-2h-2v2h2z m-38-20h2v-2h-2z m-2-4v2h2v-2z m12-6v-2h-2v2z m-6 8v-2h-2v2z m-6-4h-2v2h2z m-2 6h-2v2h4v-4h-2z m-2-4v2h2v-2z m44-22v2h2v-2z m0-4v2h2v-2z m-26 16h2v-2h-2z m26-8v2h2v-2z m0 6v2h2v-2z m-16-4v-2h-2v2z m10-6v-2h-2v2z m-6 4v-2h-2v2z m314 16v-2h-2v4h2v6h2v-8z m838-108v2h2v-2z m-6 2v2h2v-2z m16-6v2h2v-2z m0 6v2h2v-2z m-18-4v2h2v-2z m-12 2v2h2v-2z m46 8v2h2v-2z m12 0v2h2v-2z m-12-16v2h2v-2z m-50 12v2h2v-2z m-74 36v-2h-2v2z m116-30v2h2v-2z m-14-4v2h2v-2z m16-2v2h2v-2z m-60-10v-2h-2v2z m-52-2v2h2v-2z m6 2v-2h-2v2z m-16 2v-2h-2v2z m8-2v-2h-2v2z m14 0v-2h-2v2z m72-6v2h2v-2z m16 4v-2h-2v2z m16-4v2h2v-2z m-4 2v2h2v-2z m12 0v2h2v-2z m-56 2v-2h-2v2z m20-4v2h2v-2z m-10 2v2h2v-2z m20 46v2h2v-2z m-46 4v-2h-2v2z m-72-46v2h2v-2z m140 40v2h2v-2z m6-4h2v-2h-2z m4 6v-2h-2v2z m8-10v2h2v-2z m-128 14v-2h-2v2z m-8 0v-2h-2v2z m126-14v2h2v-2z m-130 10v2h2v-2z m102-24v2h2v-2z m-70 28v-2h-2v2z m6 0v-2h-2v2z m4-2v-2h-2v2z m-22 2v-2h-2v2z m92-24v2h2v-2z m22-2v2h2v-2z m-10-2v2h2v-2z m-18 6v2h2v-2z m14-4v2h2v-2z m8 0v2h2v-2z m2 4v2h2v-2z m-8 4v2h2v-2z m-2 4h2v-2h-2z m6-6v2h2v-2z m12-2v2h2v-2z m-8 4v2h2v-2z m-10-4v2h2v-2z m14 0v2h2v-2z m-8-12v2h2v-2z m-598 28v2h2v-2z m92-4v-2h-2v2z m-86 4v2h2v-2z m102-6v-2h-2v2z m-76 2v2h2v-2z m-16 2v2h2v-2z m36 0v-2h-2v2z m60-12v2h2v-2z m42 0v2h2v-2z m-54 0v2h2v-2z m6 0v2h2v-2z m344-26v2h2v-2z m-372 30v2h2v-2z m-114 16v2h2v-2z m-10 0v2h2v-2z m-10 2v2h2v-2z m-10 2v2h2v-2z m56-8v2h2v-2z m-72 10v2h2v-2z m-8 4v-2h-2v2z m20 0v-2h-2v2z m258-30v2h2v-2z m-88 18v-2h-2v2z m-84 0v-2h-2v2z m16 0v-2h-2v2z m-62 2v2h2v-2z m78 0v-2h-2v2z m-68 2v-2h-2v2z m114-18v-2h-2v2z m216-24v2h2v-2z m-18 4v-2h-2v2z m-46 0v2h2v-2z m6 0v2h2v-2z m64-4v2h2v-2z m-58 4v2h2v-2z m14-2v2h2v-2z m134-2v-2h-2v2z m20-4v2h2v-2z m-88 6v-2h-2v2z m108-8v2h2v-2z m-66 4v2h2v-2z m6 2v2h2v-2z m4-2v2h2v-2z m-178 8v2h2v-2z m-40 10v-2h-2v2z m8 0v-2h-2v2z m224 0v-2h-2v2z m-168 2v-2h-2v2z m46 2v-2h-2v2z m118-2v-2h-2v2z m-134 4v-2h-2v2z m-64-16v2h2v-2z m38-2v2h2v-2z m-14 4v-2h-2v2z m-72 4v2h2v-2z m12-2v2h2v-2z m20-2v2h2v-2z m-4 4v-2h-2v2z m384 6v2h2v-2z m-104-12v2h2v-2z m30-2v2h2v-2z m26-2v2h2v-2z m16 0v2h2v-2z m-8-2v2h2v-2z m-16 6v2h2v-2z m68 2v2h2v-2z m-12 2v2h2v-2z m-58-10v2h2v-2z m24 8v2h2v-2z m24 0v2h2v-2z m-6-2v2h2v-2z m-156-2v-2h-2v2z m136-12v2h2v-2z m-72 4v2h2v-2z m10 2v-2h-2v2z m28-4v2h2v-2z m-78 8v-2h-2v2z m96-4v2h2v-2z m-92 0v2h2v-2z m12 2v-2h-2v2z m128 12v2h2v-2z m-4-20v2h2v-2z m4 2v2h2v-2z m-52 0v2h2v-2z m6 0v2h2v-2z m-10 0v2h2v-2z m-4 0v2h2v-2z m22 12v2h2v-2z m42 32v-2h-2v2z m4 0v-2h-2v2z m-8 0v-2h-2v2z m24-2v-2h-2v2z m-12-4v2h2v-2z m4 4v-2h-2v2z m4 0v-2h-2v2z m-42 2v-2h-2v2z m-4 0v-2h-2v2z m-4 0v-2h-2v2z m16 0v-2h-2v2z m6 0v-2h-2v2z m-10 0v-2h-2v2z m6-4h-2v2h2z m34-14v2h2v-2z m-22-2v2h2v-2z m-14 0v2h2v-2z m32-4v2h2v-2z m-12 0v2h2v-2z m26 16v2h2v-2z m-38-14v2h2v-2z m-586 34v-2h-2v2z m614-26v2h2v-2z m4-2v2h2v-2z m-8 4v2h2v-2z m0-4v2h2v-2z m-10-2v2h2v-2z m4-2v2h2v-2z m-110 22v-2h-2v2z m88-26v2h2v-2z m-150 16h-2v2h2z m-2 4v-2h-2v2z m-4-4v2h2v-2z m16 4v-2h-2v2z m-8-4v2h2v-2z m4 4v-2h-2v2z m-96 0v2h2v-2z m104 0v-2h-2v2z m-392 2v-2h-2v2z m44 0v-2h-2v2z m120 0v-2h-2v2z m-52 2v-2h-2v2z m-22 0v-2h-2v2z m326-2v2h2v-2z m-12 6v-2h-2v2z m-6 0v-2h-2v2z m-2-8v-2h-2v2z m34 6v-2h-2v2z m-12-2v2h2v-2z m-404-6v2h2v-2z m398 8v-2h-2v2z m-12-6v-2h-2v2z m2 2v-2h-2v2z m-12 2v-2h-2v2z m18 2v-2h-2v2z m-2-2v-2h-2v2z m-8 0v-2h-2v2z m-4 0v-2h-2v2z m-184-10v-2h-2v2z m-34-16v-2h-2v2z m20 0v-2h-2v2z m122 2v-2h-2v2z m-148-2v-2h-2v2z m62 2v-2h-2v2z m44-2v-2h-2v2z m4-10v2h2v-2z m-226 28v2h2v-2z m316-16v-2h-2v2z m-188-6v2h2v-2z m116-6v2h2v-2z m-44 2v2h2v-2z m-46 6v-2h-2v2z m4-4v2h2v-2z m62-4v2h2v-2z m-52 24v-2h-2v2z m-22 0v-2h-2v2z m-54 4v-2h-2v2z m160-28v2h2v-2z m-184 30v-2h-2v2z m172-8v-2h-2v2z m116-10v-2h-2v2z m-26 4v-2h-2v2z m-14 0v2h2v-2z m-88 4v-2h-2v2z m110-6v-2h-2v2z m-58 2v2h2v-2z m18 0v2h2v-2z m14 0v2h2v-2z m-740 4v2h2v-2z m116 38v-2h-2v2z m42 6v-2h-2v2z m-50-6v-2h-2v2z m-8-6v2h2v-2z m-6 0v-2h-2v2z m16 0v-2h-2v2z m2 16v-2h-2v2z m18-4v2h2v-2z m12 4v-2h-2v2z m-42 0v2h2v-2z m412-54v2h2v-2z m-406 50v-2h-2v2z m-56-20v2h8v2h-2v2h6v-2h2v2h6v-2h2v2h4v2h4v-4h-4v-2h-16v-2h-6v-4h-2v4z m46 14v2h2v-2z m-92 2v2h2v-2z m20 0v2h2v-2z m-30-2v2h2v-2z m24-2v2h2v-2z m-6 2v2h2v-2z m28 4v-2h-2v2z m-8-22h2v-2h2v2h10v-2h2v2h4v-2h-2v-2h-8v2h-2v-2h-10v2h2z m8 12h2v-2h8v-2h-12v2h2z m-2 0v-2h-2v2z m-10-12h2v-2h-4v6h2z m4 10v2h2v-2h2v-2h-6v2z m-28 8v-2h-2v2z m26-10v-4h-2v4z m2 12v2h2v-2z m302-24v-2h-2v2z m-356 34v2h2v2h-2v2h2v4h-2v2h-4v2h2v2h2v-2h2v-2h2v-14h-2v2z m384-38v-2h-2v2z m-16 2v-2h-2v2z m-56 8v-2h-2v2z m12-2v-2h-2v2z m24-2v-2h-2v2z m68-10v-2h-2v2z m46-8v-2h-2v2z m-6 2v-2h-2v2z m124-4v-2h-2v2z m-180 12v-2h-2v2z m-104 14v-2h-2v2z m150-20v-2h-2v2z m-24 2v-2h-2v2z m-252 34v2h2v-2z m20-10v2h2v-2z m-42 4v2h2v-2z m56 0v-2h-2v2z m64-8v-2h-2v2z m-102 12v-2h-2v2z m-8 2v-2h-2v2z m-14 0v2h2v-2z m24-10v2h2v-2z m66-4v2h2v-2z m-8 0v2h2v-2z m24 0v2h2v-2z m-94 4v2h2v-2z m108 0v-2h-2v2z m-8-4v2h2v-2z m-140 18v2h2v-2z m-66 10v2h2v-2z m-24 0v2h2v-2z m46 0v2h2v-2z m-58 10v2h2v-2z m8 4v-2h-2v2z m60-6v2h2v-2z m-52 6v-2h-2v2z m-18-8v2h2v-2z m12 0v2h2v-2z m36-4v2h2v-2z m-40 0v2h2v-2z m12 2v2h2v-2z m10 0v-2h-2v2z m26-22v-2h-2v2z m-50-4v2h2v-2z m0-26h-2v2h2z m6 0v2h-2v-2h-2v2h-2v2h8v-2h6v-12h-2v10z m-12-8v-2h-2v2z m882 18v-2h-2v2z m-886-10v-10h-2v12h4v-2z m66 32v2h2v-2z m28 24v-2h-2v2z m-16-20v2h2v-2h2v2h4v2h2v6h-2v2h-2v2h-8v-2h-2v-10h2v-2h-4v4h-2v8h2v2h2v2h2v2h4v-2h2v2h2v-2h4v-4h2v-10h-2v-2h-2v-2h-10v2z m20 10v-2h-2v2z m-26-16v2h2v-2z m-28 0v-2h-2v2z m-2 24v2h2v-2z m-50-14v2h2v-4h-4v2z m92-10v-2h-2v2z m-104 8v2h2v-2z m10 6v-2h-2v2z m70 0v2h2v-2z m-50 4v-2h-2v2z m28-2v-2h-2v2z m-10-2v2h2v-2z m-40 18v-4h-2v2h-4v2h-2v-2h-4v-2h-4v-2h-2v-2h-2v-2h2v-2h-2v-2h2v-2h-2v-2h2v-2h-2v-2h-2v16h2v2h2v2h4v2h4v2h6v-2z m-12-26h-4v2h4z m2 8v2h2v-2z m12-6v-2h-4v2z m-10-4h2v2h4v-2h-2v-2h-6v2h-2v2h4z m-8 4h-4v2h4z m8 14v-2h-2v2z m8 2v-2h-2v2z m38-14v-2h-2v2z m10 18v-2h-2v2z m22-22v2h2v-2z m8 18v2h2v-2z m-40 2v2h2v-2z m6-18v2h2v-2z m18 20v-2h-2v2z m-8-18v2h2v-2z m-22 2v2h2v-2z m34 0v2h2v-2z m10-4v2h2v-2z m-16 6v2h2v-2z m-32-2v-2h-2v2z m-6 0v-2h-2v2z m48 12v2h2v-2z m924-88v-2h-2v2z m4 22v-2h-2v2z m-8 0v2h2v-2z m2-6v2h2v-2z m-6 2v2h2v-2z m12-2v-2h-2v2z m-2 10v-2h-2v2z m-10-14v2h2v-2z m12 22v-2h-2v2z m-4 0h-2v2h2z m-2-8h-2v2h2z m4 4v-2h-2v2z m-8 0h2v-2h-2z m4 2h2v-2h-2z m-4-32v2h2v-2z m8-4v-2h-2v2z m-4-2h-2v2h2z m-8 4h2v-2h-2z m-474 54v2h2v-2z m480-54v-2h-2v2z m-2-2v-2h-2v2z m2 42h2v-2h-2z m4-32v-2h-2v2z m-8 0v2h2v-2z m-6 2v2h2v-2z m-10-2v-2h-2v2z m26-14v-2h-2v2z m-38 10v2h2v-2z m36 10v-2h-2v2z m-16-6v-2h-2v2z m-202 38h2v-2h-2z m4-2v2h2v-2z m-2-2v2h2v-2z m8 2h-2v2h2z m-10 4v2h2v-2z m8 0v-2h-2v2z m-14-6v2h2v-2z m-238 8v2h2v-2z m68 0v-2h-2v2z m172-6v2h2v-2z m-250 8v2h2v-2z m270-2v-2h-2v2z m-24-4h2v-2h-2z m-186 0v2h2v-2z m272 2v2h2v-2z m128-4v2h2v-2z m-8 0v2h2v-2z m22 2v-2h-2v2z m-8-4v2h2v-2z m-204 8v2h2v-2z m208-4v-2h-2v2z m-40 0v2h2v-2z m-118 2v2h2v-2z m162-6v-2h-2v2z m-172 6v2h2v-2z m46 0v2h2v-2z m-8 0v2h2v-2z m12-2h-2v2h2z m18 2v2h2v-2z m-384-24v2h2v-2z m290-22h2v-2h-2z m-2-2v-2h-2v2z m-10 0v2h2v-2z m-2 2v-2h-2v2z m-10 4v-2h-2v2z m6-2h2v-2h-2z m-10-2v2h2v-2z m46 2v-2h-2v2z m20-2v-2h-2v2z m-24 2v-2h-2v2z m-6-4v-2h-2v2z m-4 0v-2h-2v2z m6 4v-2h-2v2z m2-4v-2h-2v2z m-304 24v-2h-2v2z m-16 0v2h2v-2z m280-16h2v-2h-2z m-252 16v2h2v-2z m10-2v-2h-2v2z m-34 2v2h2v-2z m6 0v2h2v-2z m330-26v2h2v-2z m-170 12v-2h-2v2z m-122 10v-2h-2v2z m446-24v-2h-2v2z m-342 16v-2h-2v2z m-90 6v-2h-2v2z m44-4v-2h-2v2z m-28 2v-2h-2v2z m136-8v-2h-2v2z m224-12v-2h-2v2z m14 2h2v-2h-2z m-18-2v-2h-2v2z m-4 0v-2h-2v2z m-8 2h2v-2h-2z m4-2v-2h-2v2z m64 2h2v-2h-2z m-6-2v-2h-2v2z m-68 2v-2h-2v2z m64 0h2v-2h-2z m-16-2v-2h-2v2z m-4 0v-2h-2v2z m-4 0v-2h-2v2z m12 0v-2h-2v2z m-70 0v-2h-2v2z m-30 2v-2h-2v2z m4 0v-2h-2v2z m-8 0v-2h-2v2z m-18 0v-2h-2v2z m14 0v-2h-2v2z m20 0v-2h-2v2z m24 2h2v-2h-2z m6-4v2h2v-2z m-2 2v-2h-2v2z m12 0v-2h-2v2z m-26-2v-2h-2v2z m-58 2v2h2v-2z m66-2v-2h-2v2z m4 0v-2h-2v2z m-658 96v2h2v-2z m90-36v-2h-2v2z m188-8v2h2v-2z m-12 2v2h2v-2z m-90 6v-2h-2v2z m-42-8v2h2v-2z m116 4v2h2v-2z m-88 4v-2h-2v2z m-64-6v2h2v-2z m136 4v-2h-2v2z m-110-6v2h2v-2z m80 4v2h2v-2z m10 2v-2h-2v2z m30-2v-2h-2v2z m-54 2v-2h-2v2z m314-46v2h2v-2z m8 2v-2h-2v2z m-14-2v2h2v-2z m-16 4v-2h-2v2z m-174 38v-2h-2v2z m184-42v2h2v-2z m190-10v2h2v-2z m-364 48v2h2v-2z m10 0v2h2v-2z m8 0v2h2v-2z m-26-2v2h2v-2z m-32-12v-2h-2v2z m-18-2v2h2v-2z m40 16v2h2v-2z m-26-24v2h2v-2z m380-22v-2h-2v2z m-6-2v2h2v-2z m-4 0v2h2v-2z m-10 0v2h2v-2z m-6 2v-2h-2v2z m12-2v2h2v-2z m-82 6v-2h-2v2z m-6-2v2h2v-2z m-14 2v2h2v-2z m10 2v-2h-2v2z m82-4v-2h-2v2z m-30-4v2h2v-2z m-456 50v2h2v-2z m596-46v2h2v-2z m-134-2v-2h-2v2z m-384 54v2h2v-2z m528-16h-2v2h2z m-490 18v-2h-2v2z m-38-6v-2h-2v2z m68-2v-2h-2v2z m456-44v-2h-2v2z m-486 46v-2h-2v2z m464-48v2h2v-2z m10 0v2h2v-2z m12 40h2v-2h-2z m-2-8h2v-2h-2z m2 2h-2v2h2z m-4 4h2v-2h-2z m6-10h-2v2h2z m-262-22v2h2v-2z m130-2v2h2v-2z m16 2v-2h-2v2z m56-8v-2h-2v2z m-96 6v2h2v-2z m34-2v2h2v-2z m-6 0v2h2v-2z m-10 0v2h2v-2z m-28 10v-2h-2v2z m12-2v2h2v-2z m24 2v-2h-2v2z m-18-6v2h2v-2z m-12 2v2h2v-2z m22 0v2h2v-2z m28-4v2h2v-2z m78 32v2h2v-2z m0-8h-2v2h2z m6 10v-2h-2v2z m-10-6h2v-2h-2z m-84 8v2h2v-2z m6 2v-2h-2v2z m-54-38v2h2v-2z m-70 12v-2h-2v2z m56-10v2h2v-2z m18-2v2h2v-2z m-8 6v-2h-2v2z m-14 2v-2h-2v2z m-152 4v-2h-2v2z m228 26v-2h-2v2z m-66-28v-2h-2v2z m152 24h2v-2h-2z m4-4h-2v2h2z m10 6v-2h-2v2z m-148 0h-2v2h2z m138-2v2h2v-2z m6-4h2v-2h-2z m-44-32v2h2v-2z m30-4v-2h-2v2z m-6-2v2h2v-2z m-170 18v-2h-2v2z m194 16h-2v2h2z m-34-32v2h2v-2z m6 6v-2h-2v2z m-124 40h2v-2h-2z m88-46v2h2v-2z m-12 6v-2h-2v2z m-40 4v2h2v-2z m62-8v2h2v-2z m-42 10v-2h-2v2z m-112 2v2h2v-2z m6 2v-2h-2v2z m6-4v-2h-2v2z m-4 18v-2h-2v2z m-72-2v2h2v-2z m68 4h2v-2h-2z m136-28v2h2v-2z m10 2v-2h-2v2z m-144 4v2h2v-2z m14 2v-2h-2v2z m-124 4v-2h-2v2z m-362 64v2h2v-2z m-6 2v2h2v-2z m-24 2v2h2v-2z m44-8v2h2v-2z m8 2v2h2v-2z m12-2v2h2v-2z m-116 10v2h2v-2z m-20 4v-2h-2v2z m-12-2v2h2v-2z m-6 2v-2h-2v2z m-50 0v2h2v-2z m176-14v2h2v-2z m-96 12v2h2v-2z m18-12v2h2v-2z m-90 10v2h2v-2z m-12 0v2h2v-2z m-10 4v2h2v-2z m4-6v2h2v-2z m28 2v2h2v-2z m10 4v-2h-2v2z m56-12v-2h-2v2z m-8 10v-2h-2v2z m86-12v2h2v-2z m-22 0v2h2v-2z m-136 8v-2h-2v2z m40-4v-2h-2v2z m22-4v2h2v-2z m-6 2v-2h-2v2z m50 10v-2h-2v2z m26-2v-2h-2v2z m-102 4v2h2v-2z m58 0v2h2v-2z m-2-10v2h2v-2z m302-56v-2h-2v2z m-268 62v-2h-2v2z m-14 12v-2h-2v2z m-4-16v-2h-2v2z m-2 16v-2h-2v2z m-62-6v2h2v-2z m74 2v2h2v-2z m-18 0v2h2v-2z m-4 4v-2h-2v2z m18-6v2h2v-2z m16-8v2h2v-2z m-54-4v2h2v-2z m-22 2v-2h-2v2z m68-4v2h2v-2z m-62 6v-2h-2v2z m-14 2v-2h-2v2z m-8 0v-2h-2v2z m-22-4v2h2v-2z m70 2v-2h-2v2z m14 0v-2h-2v2z m-32 0v-2h-2v2z m64-6v2h2v-2z m18 0v2h2v-2z m-36 2v2h2v-2z m46 0v2h2v-2z m-4 4v-2h-2v2z m82-8v2h2v-2z m-16 2v2h2v-2z m58-4v-2h-2v2z m-12-4v2h2v-2z m-56 10v2h2v-2z m38-6v2h2v-2z m-148 14v2h2v-2z m72-2v2h2v-2z m-40 6v-2h-2v2z m44-10v2h2v-2z m-54 10v-2h-2v2z m-106 2v-2h-2v2z m178-8v-2h-2v2z m12 0v-2h-2v2z m76-18v2h2v-2z m-140-14v2h2v-2z m6 2v-2h-2v2z m10 0v-2h-2v2z m148-20v-2h-2v2z m6 0v-2h-2v2z m-14-2v2h2v-2z m-18 28v2h2v-2z m16 4v-2h-2v2z m20 0v-2h-2v2z m10 0v-2h-2v2z m18-10v2h2v-2z m-42 10v2h2v-2z m52-6v-2h-2v2z m-16 0v2h2v-2z m-154 26v-2h-2v2z m-280 20v2h2v-2z m-10 0v2h2v-2z m34 0v2h2v-2z m20 0v2h2v-2z m-10 0v2h2v-2z m-50 0v2h2v-2z m92-8v2h2v-2z m8 0v-2h-2v2z m20-2v-2h-2v2z m-44 10v2h2v-2z m48-4v-2h-2v2z m-22 2v-2h-2v2z m-32 2v-2h-2v2z m42-8v2h2v-2z m48 6v2h2v-2z m38-6v2h2v-2z m50-2v-2h-2v2z m-14 0v2h2v-2z m22-4v-2h-2v2z m-18 0v2h2v-2z m26 0v-2h-2v2z m-14 0v-2h-2v2z m-104 14v2h2v-2z m-14 0v2h2v-2z m78-4v-2h-2v2z m-104 4v2h2v-2z m98-4v2h2v-2z m-10 0v2h2v-2z m-100 4v2h2v-2z m800-82v2h2v-2z m-120-4v-2h-2v2z m4 2v2h2v-2z m6-2v-2h-2v2z m-28 0v-2h-2v2z m42 2v-2h-2v2z m12-2v-2h-2v2z m84-2v2h2v-2z m-36 0v2h2v-2z m14-2v2h2v-2z m-196 4v-2h-2v2z m164-4v2h2v-2z m-38 0v2h2v-2z m26 0v2h2v-2z m-64 4v-2h-2v2z m-204 18v2h2v-2z m116 0v-2h-2v2z m-14-2v2h2v-2z m-48 6v-2h-2v2z m-16 0v-2h-2v2z m8 0v-2h-2v2z m180-16v-2h-2v2z m-18 2v-2h-2v2z m-56 10v2h2v-2z m90-14v-2h-2v2z m-110 14v2h2v-2z m-70 2v-2h-2v2z m80-2v2h2v-2z m24 2v-2h-2v2z m160-12v2h2v-2z m32 8v2h2v-2z m-20-8v2h2v-2z m16 2v2h2v-2z m-6-2v2h2v-2z m-4 2v2h2v-2z m12 4v2h2v-2z m2-4v2h2v-2z m4 6v2h2v-2z m4 4v2h2v-2z m-12 4v-2h-2v2z m-4-8v2h2v-2z m16 0v2h2v-2z m-26-18v2h2v-2z m12 20v2h2v-2z m18-2v2h2v-2z m-56 10v-2h-2v2z m8-22v2h2v-2z m-4-4v2h2v-2z m-20 20v2h2v-2z m30-18v2h2v-2z m16-2v2h2v-2z m-64 8v2h2v-2z m40 0v2h2v-2z m-234 14v-2h-2v2z m244-14v2h2v-2z m-46 4v-2h-2v2z m32-4v2h2v-2z m18 0v2h2v-2z m-24-2v2h2v-2z m-186 10v2h2v-2z m116 2h-2v2h2z m-10 4v-2h-2v2z m2-4h-2v2h2z m6 4v-2h-2v2z m6-2h-2v2h2z m-10 4v-2h-2v2z m8 0v-2h-2v2z m-22-6v-2h-2v2z m-6 0v-2h-2v2z m14 0v-2h-2v2z m-2 4v-2h-2v2z m-2-8v2h2v-2z m0 6v-2h-2v2z m98 4v-2h-2v2z m-18-2v2h2v-2z m-20 4v-2h-2v2z m24-6h-2v2h2z m2-2h-2v2h2z m-100 0v-2h-2v2z m66 8v-2h-2v2z m4-2v-2h-2v2z m-22 0v-2h-2v2z m-8-2v2h2v-2z m6 0v-2h-2v2z m-2 4v-2h-2v2z m4-8v2h2v-2z m4 4v2h2v-2z m-2-2v2h2v-2z m-340 0v2h2v-2z m250-8v2h2v-2z m-78 0v2h2v-2z m44 0v-2h-2v2z m70 6v-2h-2v2z m-216-2v2h2v-2z m92-4v2h2v-2z m-30 4v-2h-2v2z m96-2v-2h-2v2z m40 0v2h2v-2z m176 8v-2h-2v2z m-184-8v2h2v-2z m-112 0v2h2v-2z m92 0v-2h-2v2z m30-2v-2h-2v2z m-182 4v2h2v-2z m184 0h4v-2h-4z m6 0h2v-2h-2z m2-4v2h2v-2z m2 2v2h2v-2z m-6-2v2h2v-2z m-8 6v2h2v-2z m-94 2v2h2v-2z m-18-2v2h2v-2z m-54 4v-2h-2v2z m-70-4v2h2v-2z m118 6v-2h-2v2z m-94-4v-2h-2v2z m54 4v-2h-2v2z m-18 0v-2h-2v2z m328-20v2h2v-2z m-54 12v-2h-2v2z m-4 0v-2h-2v2z m8 0v-2h-2v2z m4 0v-2h-2v2z m8 0v-2h-2v2z m-4-4v2h2v-2z m-44 0v2h2v-2z m52 4v-2h-2v2z m-28 0v-2h-2v2z m-8-2v-2h-2v2z m-10 2v-2h-2v2z m-12 0v-2h-2v2z m4 0v-2h-2v2z m-16-10v2h2v-2z m46-2v-2h-2v2z m4 2v-2h-2v2z m-26 0v2h2v-2z m-2 2v-2h-2v2z m16-2v-2h-2v2z m-24-2v2h2v-2z m10 6v2h2v-2z m30 0v2h2v-2z m4 0v2h2v-2z m8 0v2h2v-2z m-30 2v2h2v-2z m4-2v2h2v-2z m30 0v2h2v-2z m-20 0v2h2v-2z m-22 2v2h2v-2z m-42-2v-2h-2v2z m6-4v2h2v-2z m-10 4v-2h-2v2z m92 4h2v-2h-2z m-78-4v-2h-2v2z m76 6h2v-2h-2z m-6 8v-2h-2v2z m-50-4v-2h-2v2z m-6-2v2h2v-2z m68-8h-2v2h2z m-60 6v2h2v-2z m-56-8v2h2v-2z m14-2v2h2v-2z m-8 4v-2h-2v2z m118 2v2h2v-2z m14 0v2h2v-2z m4 0v2h2v-2z m-8 0v2h2v-2z m-16 0v2h2v-2z m12 0v2h2v-2z m-8 4h2v-2h-2z m48-2v-2h-2v2z m-32 4v-2h-2v2z m14-6v2h2v-2z m12 0v2h2v-2z m-32 4v2h2v-2z m16-2v2h2v-2z m-4 4v-2h-2v2z m2 2v-2h-2v2z m-96-14v-2h-2v2z m-14 8v-2h-2v2z m58 6v-2h-2v2z m-24 2v-2h-2v2z m4 0v-2h-2v2z m26-4v-2h-2v2z m-18 2v-2h-2v2z m-36-2v-2h-2v2z m-8 0v-2h-2v2z m4-2v-2h-2v2z m4-2v-2h-2v2z m26 4v-2h-2v2z m4 0v-2h-2v2z m2 4v-2h-2v2z m-12-4v-2h-2v2z m22 0v2h2v-2z m46 4v-2h-2v2z m4 0v-2h-2v2z m4 0v-2h-2v2z m10 0v-2h-2v2z m-4-4v2h2v-2z m-18 4v-2h-2v2z m0-4v-2h-2v2z m-14 0v-2h-2v2z m4 0v-2h-2v2z m-16 0v2h2v-2z m-18 4v-2h-2v2z m34 0v-2h-2v2z m-4 0v-2h-2v2z m8-2v-2h-2v2z m-106-6v-2h-2v2z m86-6v-2h-2v2z m-10 0v-2h-2v2z m2-4v2h2v-2z m18-2v2h2v-2z m-36 4v2h2v-2z m42 0v-2h-2v2z m-10 2v-2h-2v2z m-40 2v-2h-2v2z m-38 4v-2h-2v2z m22-2v-2h-2v2z m18-4v2h2v-2z m-22 4v-2h-2v2z m-8 0v-2h-2v2z m4-2v-2h-2v2z m116 12v-2h-2v2z m-134-10v-2h-2v2z m-18 2v-2h-2v2z m62-10v-2h-2v2z m-16 6h2v-2h-2z m-42 4v-2h-2v2z m74-14v2h2v-2z m6-2v2h2v-2z m-16 4v-2h-2v2z m30-2v2h2v-2z m-84 14v-2h-2v2z m34-12v-2h-2v2z m6 0v-2h-2v2z m38 0v2h2v-2z "/>
  <path fill="#fff" d="m1428 436v84h48v-6h6v-6h6v-60h-6v-6h-6 v-6z m12 12h30v6h6v48h-6v6h-30z m-156-12h60v12h-48v24h36v12h-36v24h48v12h-60z m-144 0h12v36h6v-6h6v-6h6v-6h6v-6h6v-6h6v-6h12v12h-6v6h-6v6h-6v6h-6v6h-6v12h6v6h6v6h6v6h6v6h6v12h-12v-6h-6v-6h-6v-6h-6v-6h-6v-6h-6v-6h-6v36h-12z m-132 0h36v6h6v6h6v12h-12v-6h-6v-6h-24v6h-6v48h6v6h24v-6h6v-6h12v12h-6v6h-6v6h-36v-6h-6v-6h-6v-60h6v-6h6z m-144 0v6h-6v6h-6v60h6v6h6v6h36v-6h6v-6h6v-60h-6v-6h-6v-6z m6 12h24v6h6v48h-6v6h-24v-6h-6v-48h6z m-162-12h12v72h48v12h-60z m-144 0h12v18h6v6h6v6h6v6h6v6h6v6h6v-48h12v84h-12v-18h-6v-6h-6v-6h-6v-6h-6v-6h-6v-6h-6v48h-12z m-144 0h12v66h6v6h24v-6h6v-66h12v72h-6v6h-6v6h-36v-6h-6v-6h-6z "/>
  <path fill="#fff" d="m1250.8 317.32h128.51v-14.393l-95.066-5.5485v-33.959l95.066-5.5485v-14.351h-128.51v-85.522h151.09c72.479 0 98.155 16.979 98.155 64.914 0 31.706-22.879 50.855-62.626 53.107v5.8823c47.053 6.6332 62.626 20.651 62.626 56.069 0 41.301-27.221 56.028-104.38 56.028h-144.87zm-302.77-40.926c0-88.902 39.037-118.4 100.45-118.4h175.77v107.67h-160.99v29.87h161.11v98.455h-164.58c-69.389 0-111.77-26.908-111.77-117.65zm-145.12-18.815h-116.15v-99.581h244.62v84.813l-91.225 151.19h-122.29zm-382.85 59.74h128.47v-14.393l-95.066-5.5485v-33.959l95.066-5.5485v-14.351h-128.47v-85.522h151.09c72.437 0 98.155 16.979 98.155 64.914 0 31.706-22.879 50.855-62.626 53.107v5.8823c47.011 6.6332 62.626 20.651 62.626 56.069 0 41.301-27.263 56.028-104.38 56.028h-144.87z"/>
</svg>
