<?xml version="1.0" encoding="UTF-8" standalone="no"?>
<svg
   width="3840"
   height="2160"
   viewBox="0 0 5120 2880"
   fill="none"
   version="1.1"
   id="svg362"
   sodipodi:docname="card2.svg"
   xml:space="preserve"
   inkscape:version="1.4.3 (0d15f75042, 2025-12-25)"
   xmlns:inkscape="http://www.inkscape.org/namespaces/inkscape"
   xmlns:sodipodi="http://sodipodi.sourceforge.net/DTD/sodipodi-0.dtd"
   xmlns="http://www.w3.org/2000/svg"
   xmlns:svg="http://www.w3.org/2000/svg"><sodipodi:namedview
     id="namedview362"
     pagecolor="#ffffff"
     bordercolor="#000000"
     borderopacity="0.25"
     inkscape:showpageshadow="2"
     inkscape:pageopacity="0.0"
     inkscape:pagecheckerboard="0"
     inkscape:deskcolor="#d1d1d1"
     inkscape:zoom="0.23090691"
     inkscape:cx="1870.8838"
     inkscape:cy="1242.9251"
     inkscape:window-width="1920"
     inkscape:window-height="1012"
     inkscape:window-x="0"
     inkscape:window-y="0"
     inkscape:window-maximized="1"
     inkscape:current-layer="svg362" /><rect
     style="opacity:1;fill:#000000;fill-opacity:1;stroke-width:276.235;stroke-linecap:round;stroke-linejoin:round;paint-order:markers stroke fill"
     id="rect685"
     width="5120"
     height="2880"
     x="0"
     y="0" /><g
     id="g685"
     inkscape:label="foreground"><path
       id="path102"
       style="mix-blend-mode:normal;fill:#a6ffa1;fill-opacity:1;stroke-width:7.49998"
       d="m 4640.0087,303.93051 c -20.2274,19.95749 -34.9723,45.72749 -45.3597,77.06999 -9.6674,29.14499 -15.3674,62.39249 -18.2249,98.99998 h -45.1047 c 3.03,-41.13749 9.3824,-79.29749 20.6099,-113.16748 15.7274,-47.42999 41.4072,-87.80249 81.847,-116.04748 2.0475,-1.425 4.1249,-2.82 6.2324,-4.1775 z m -283.5582,176.06997 c -33.0223,-114.84748 -36.6823,-202.10247 -16.7924,-267.61496 21.6823,-71.42999 70.3945,-113.932479 131.1592,-137.114976 50.5271,-19.274997 109.5593,-25.349996 169.1914,-24.929996 v 44.999993 c -56.7821,-0.4125 -109.7018,5.399999 -153.149,21.974999 -50.0472,19.09499 -87.157,52.19999 -104.1444,108.14248 -16.9499,55.85249 -14.6924,137.22748 20.6474,254.54246 z m -119.7143,0 c -4.0575,-28.0125 -8.8725,-56.60999 -14.4449,-85.77749 -28.6574,-149.84997 -39.3898,-261.29995 -28.4999,-342.539942 2.4975,-18.667497 6.165,-35.879994 11.0625,-51.6824916 h 47.5797 c -6.375,16.3499976 -11.0624,35.4074946 -14.0474,57.6524906 -9.855,73.567493 -0.4275,178.912473 28.1023,328.124943 6.12,31.995 11.3549,63.41249 15.7049,94.22249 z" /><path
       id="path110"
       style="mix-blend-mode:normal;fill:#ae7fe9;fill-opacity:1;stroke-width:7.49998"
       d="m 5017.5789,960.0004 h -50.0097 c 3.045,-6.9525 6.3675,-13.82249 9.9975,-20.59499 25.1548,-47.0175 63.9671,-88.14749 121.5442,-122.48248 7.0275,-4.1925 13.9949,-8.145 20.8949,-11.8875 v 51.83249 c -49.7622,30.11249 -81.787,64.83749 -102.4269,103.13248 z m -187.9938,0 h -45.1273 c 7.785,-99.47248 39.8548,-195.47997 124.6493,-280.28245 52.3047,-52.30499 105.4193,-79.22999 168.0965,-89.08499 13.8299,-2.175 28.0723,-3.5025 42.8022,-4.1175 v 45.0375 c -12.4424,0.5775 -24.3449,1.7325 -35.8198,3.53249 -52.5147,8.2575 -97.1319,30.315 -143.2566,76.44749 -74.1746,74.17499 -103.6944,157.92748 -111.3443,248.46746 z m -47.1747,-479.99992 h -61.6572 c -56.1671,67.46999 -76.297,142.30498 -80.7445,222.35996 v 81.05999 c 1.3125,29.58 3.765,59.72249 6.4275,90.33749 0.66,7.5975 1.335,15.23249 2.0175,22.91249 v 0.015 c 1.845,20.79 3.7125,41.895 5.3774,63.31499 h 45.1573 c -1.725,-22.47749 -3.675,-44.43749 -5.58,-65.87249 -0.7275,-8.1675 -1.4475,-16.25999 -2.145,-24.26999 -14.0324,-161.27998 -18.2774,-286.12496 91.147,-389.85744 z" /><path
       id="path114"
       style="mix-blend-mode:normal;fill:#f45b69;fill-opacity:1;stroke-width:7.49998"
       d="m 4996.2566,1440.0003 h -44.9998 c 0,-54.7275 -3.8924,-108.075 -7.7024,-160.2674 l -0.01,-0.053 c -0.4875,-6.735 -0.9825,-13.4475 -1.4625,-20.145 -4.17,-58.1475 -7.5975,-115.05 -3.975,-168.4725 3.105,-45.8475 11.4524,-89.985 29.4598,-131.0625 h 50.0097 c -0.1125,0.21 -0.225,0.42 -0.3375,0.6375 -21.0448,39.3375 -30.8698,83.7825 -34.2373,133.47 -3.3824,49.89 -0.2175,103.875 3.9675,162.2025 0.48,6.6525 0.9675,13.3575 1.4625,20.115 3.8025,52.0349 7.8225,107.0924 7.8225,163.5749 z m -131.2417,0 h -44.9998 c 0,-62.5875 -7.6574,-126.8925 -16.1849,-192.5024 -0.8325,-6.405 -1.6725,-12.8175 -2.5125,-19.245 -7.7324,-58.98 -15.5999,-118.9725 -18.0748,-177.7725 -1.275,-30.33 -1.1325,-60.5625 1.2149,-90.48 h 45.1273 c -2.4375,28.8675 -2.6475,58.4325 -1.38,88.59 2.385,56.685 9.9824,114.66 17.7524,173.9775 l 0.01,0.067 c 0.8325,6.3375 1.665,12.69 2.49,19.0575 8.5199,65.5199 16.5599,132.4649 16.5599,198.3074 z m -225.0062,-158.4299 c 24.8249,-115.0725 21.5624,-221.805 13.8224,-321.57 h 45.1573 c 10.6574,138.8625 12.6074,297.4575 -58.9797,473.1974 z"
       sodipodi:nodetypes="ccccccccccccccccsccccccccccccccc" /><path
       id="path120"
       style="mix-blend-mode:normal;fill:#f45b69;fill-opacity:1;stroke-width:7.49998"
       d="m 5120.0058,303.43551 c -11.9399,-2.565 -23.8574,-5.16 -35.7448,-7.755 h -0.01 c -19.1924,-4.185 -38.2947,-8.3475 -57.2471,-12.3225 -79.4245,-16.6575 -157.1241,-30.23249 -233.2636,-30.23249 -60.5546,0 -103.4694,13.09499 -134.2042,34.55999 -7.0199,4.8975 -13.5149,10.3125 -19.5299,16.245 v -57.32999 c 39.4723,-25.4025 90.187,-38.475 153.7341,-38.475 81.0595,0 162.5765,14.43 242.5035,31.1925 19.7549,4.14 39.3673,8.415 58.8672,12.6675 h 0.01 c 8.3174,1.8075 16.6124,3.615 24.8848,5.4075 z m -337.5954,176.56497 h -61.6647 c 9.3975,-11.2875 19.8074,-22.3725 31.3123,-33.2325 96.7045,-91.29748 198.5238,-115.69498 298.5207,-104.63248 23.3174,2.5725 46.4922,7.08 69.4271,13.05 v 46.61999 c -24.7498,-7.02 -49.5597,-12.2025 -74.377,-14.9475 -87.622,-9.68999 -176.1215,10.9125 -262.6784,92.62499 -0.18,0.1725 -0.36,0.345 -0.54,0.5175 z M 4640.0087,50.340548 c 10.7925,0.075 21.6074,0.36 32.3923,0.825 66.6821,2.85 134.4892,12.449998 192.9739,20.729997 l 0.2325,0.03 c 3.3749,0.48 6.7199,0.9525 10.0349,1.4175 32.9623,4.657499 67.9721,10.469998 104.5869,16.544997 v 0 c 44.4897,7.387499 91.3344,15.157498 139.7766,21.734998 v 45.39749 c -51.1872,-6.84 -102.1944,-15.285 -149.5341,-23.1225 -36.4048,-6.02249 -70.6421,-11.69249 -101.1219,-15.98999 -3.1125,-0.4425 -6.2399,-0.885 -9.3974,-1.335 l -0.3675,-0.0525 c -58.9047,-8.3325 -124.7093,-17.647499 -189.1114,-20.399999 -10.2524,-0.435 -20.4223,-0.705 -30.4648,-0.78 z" /><path
       id="path240"
       style="mix-blend-mode:normal;fill:#ae7fe9;fill-opacity:1;stroke-width:7.49998"
       d="m 4640.0088,2312.2202 v -45.2325 c 51.9671,5.265 108.8918,12.0675 170.7289,19.455 33.7348,4.0275 68.9396,8.2275 105.5994,12.4575 77.4595,8.925 144.8991,8.145 203.6687,-0.66 v 45.465 c -61.6796,8.565 -131.0017,8.865 -208.8287,-0.105 -37.3348,-4.305 -72.9521,-8.5575 -106.9193,-12.615 v 0 c -59.7522,-7.1325 -114.3893,-13.6575 -164.249,-18.765 z m 0,-145.665 v -45.3225 c 93.0219,11.22 183.6663,20.9475 263.7208,18.915 89.6545,-2.2725 160.9716,-19.29 206.8413,-60.615 3.21,-2.895 6.3599,-5.8125 9.4349,-8.76 v 58.62 c -56.7896,39.7275 -133.0267,53.655 -215.1362,55.74 -81.9295,2.085 -173.6689,-7.6125 -264.8608,-18.5775 z m 395.75,-246.555 h -56.8721 c -45.3447,52.6125 -99.8394,79.005 -160.7765,90.6675 -54.5547,10.44 -114.3818,9.1125 -178.1014,2.9925 v 45.21 c 64.5296,5.9925 127.8217,7.2375 186.5613,-4.005 80.9995,-15.5025 153.1191,-54.645 209.1887,-134.865 z" /><path
       id="path250"
       style="mix-blend-mode:normal;fill:#75f4f4;fill-opacity:1;stroke-width:7.49998"
       d="m 4640.0087,2703.9301 c -20.2274,19.9575 -34.9723,45.7275 -45.3597,77.07 -9.6674,29.145 -15.3674,62.3925 -18.2249,99 h -45.1047 c 3.03,-41.1375 9.3824,-79.2975 20.6099,-113.1675 15.7274,-47.43 41.4072,-87.8025 81.847,-116.0475 2.0475,-1.425 4.1249,-2.82 6.2324,-4.1775 z m -283.5582,176.07 c -33.0223,-114.8475 -36.6823,-202.1025 -16.7924,-267.615 21.6823,-71.43 70.3945,-113.9324 131.1592,-137.1149 50.5271,-19.275 109.5593,-25.35 169.1914,-24.93 v 45 c -56.7821,-0.4125 -109.7018,5.4 -153.149,21.975 -50.0472,19.095 -87.157,52.1999 -104.1444,108.1424 -16.9499,55.8525 -14.6924,137.2275 20.6474,254.5425 z m -119.7143,0 c -4.0575,-28.0125 -8.8725,-56.61 -14.4449,-85.7775 -28.6574,-149.85 -39.3898,-261.2999 -28.4999,-342.5399 2.4975,-18.6675 6.165,-35.88 11.0625,-51.6825 h 47.5797 c -6.375,16.35 -11.0624,35.4075 -14.0474,57.6525 -9.855,73.5675 -0.4275,178.9124 28.1023,328.1249 6.12,31.995 11.3549,63.4125 15.7049,94.2225 z" /><path
       id="path255"
       style="mix-blend-mode:normal;fill:#a6ffa1;fill-opacity:1;stroke-width:7.49998"
       d="m 4640.0087,1773.3678 c 7.9725,0.705 16.0424,1.425 24.2174,2.1675 78.9145,7.155 129.9892,-43.2525 159.6965,-105.7875 29.5723,-62.2425 41.0848,-141.5025 41.0848,-207.2475 v -22.5 h -44.9998 v 22.5 c 0,61.755 -10.9874,133.7625 -36.7272,187.935 -25.6049,53.88 -62.6547,85.0275 -114.9893,80.28 -9.57,-0.8625 -18.9899,-1.71 -28.2824,-2.52 z m 0,131.46 c 23.8124,1.815 48.2097,3.7275 73.2071,5.7225 73.2895,5.8649 129.5692,-13.62 171.6139,-49.8825 41.3998,-35.7 66.9821,-85.9125 83.017,-138.2625 29.2574,-95.505 28.7474,-205.44 28.4624,-266.94 v -0.015 c -0.03,-5.565 -0.053,-10.725 -0.053,-15.45 h -44.9998 c 0,4.77 0.023,9.885 0.037,15.315 v 0.075 c 0.2475,62.1525 0.645,165.315 -26.4748,253.83 -14.6624,47.865 -36.7723,89.25 -69.3821,117.3675 -31.9573,27.5625 -75.9895,44.1225 -138.6366,39.1125 -26.2199,-2.1 -51.8172,-4.1025 -76.7921,-6 z m 479.9971,-150.4275 v -314.4 c 0,72.33 -0.525,133.4925 -13.4099,199.005 -12.8249,65.1825 -38.0923,135.5775 -88.672,224.91 -12.0974,21.375 -25.1398,39.96 -39.0372,56.0849 h 56.8721 c 7.395,-10.5749 14.5049,-21.8699 21.3299,-33.9149 27.2023,-48.0525 47.6247,-91.32 62.9171,-131.685 z" /><path
       id="path268"
       style="mix-blend-mode:normal;fill:#f6ae2d;fill-opacity:1;stroke-width:7.49998"
       d="m 5120.0058,2703.4351 c -11.9399,-2.565 -23.8574,-5.16 -35.7448,-7.755 h -0.01 c -19.1924,-4.185 -38.2947,-8.3475 -57.2471,-12.3225 -79.4245,-16.6575 -157.1241,-30.2325 -233.2636,-30.2325 -60.5546,0 -103.4694,13.095 -134.2042,34.56 -7.0199,4.8975 -13.5149,10.3125 -19.5299,16.245 v -57.33 c 39.4723,-25.4025 90.187,-38.475 153.7341,-38.475 81.0595,0 162.5765,14.43 242.5035,31.1925 19.7549,4.14 39.3673,8.415 58.8672,12.6675 h 0.01 c 8.3174,1.8075 16.6124,3.615 24.8848,5.4075 z m -337.5954,176.565 h -61.6647 c 9.3975,-11.2875 19.8074,-22.3725 31.3123,-33.2325 96.7045,-91.2975 198.5238,-115.695 298.5207,-104.6325 23.3174,2.5725 46.4922,7.08 69.4271,13.05 v 46.62 c -24.7498,-7.02 -49.5597,-12.2025 -74.377,-14.9475 -87.622,-9.69 -176.1215,10.9125 -262.6784,92.625 -0.18,0.1725 -0.36,0.345 -0.54,0.5175 z m -142.4017,-429.6599 c 10.7925,0.075 21.6074,0.36 32.3923,0.825 66.6821,2.85 134.4892,12.45 192.9739,20.73 l 0.2325,0.03 c 3.3749,0.48 6.7199,0.9525 10.0349,1.4175 32.9623,4.6575 67.9721,10.47 104.5869,16.545 v 0 c 44.4897,7.3875 91.3344,15.1575 139.7766,21.735 v 45.3974 c -51.1872,-6.84 -102.1944,-15.285 -149.5341,-23.1224 -36.4048,-6.0225 -70.6421,-11.6925 -101.1219,-15.99 -3.1125,-0.4425 -6.2399,-0.885 -9.3974,-1.335 l -0.3675,-0.053 c -58.9047,-8.3325 -124.7093,-17.6475 -189.1114,-20.4 -10.2524,-0.435 -20.4223,-0.705 -30.4648,-0.78 z" /><path
       id="path419"
       style="mix-blend-mode:normal;fill:#ae7fe9;fill-opacity:1;stroke-width:7.49998"
       d="m 377.59395,960.0004 h -50.0097 c 3.04499,-6.9525 6.36747,-13.82249 9.99744,-20.59499 25.15485,-47.0175 63.96711,-88.14749 121.54426,-122.48248 7.02746,-4.1925 13.99492,-8.145 20.89488,-11.8875 v 51.83249 c -49.7622,30.11249 -81.78701,64.83749 -102.42688,103.13248 z m -187.99385,0 h -45.12723 c 7.78495,-99.47248 39.85476,-195.47997 124.64924,-280.28245 52.30468,-52.30499 105.41936,-79.22999 168.09648,-89.08499 13.82991,-2.175 28.07233,-3.5025 42.80224,-4.1175 v 45.0375 c -12.44243,0.5775 -24.34486,1.7325 -35.81979,3.53249 -52.51468,8.2575 -97.1319,30.315 -143.25662,76.44749 C 226.76987,785.70793 197.25005,869.46042 189.6001,960.0004 Z M 142.42538,480.00048 H 80.76826 C 24.6011,547.47047 4.47122,622.30546 0.02375,702.36044 v 81.05999 c 1.31249,29.58 3.76498,59.72249 6.42746,90.33749 0.66,7.5975 1.33499,15.23249 2.01749,22.91249 v 0.015 c 1.84499,20.79 3.71248,41.895 5.37747,63.31499 h 45.15722 c -1.72499,-22.47749 -3.67498,-44.43749 -5.57996,-65.87249 -0.7275,-8.1675 -1.4475,-16.25999 -2.14499,-24.26999 C 37.24602,708.57794 33.00105,583.73296 142.42538,480.00048 Z" /><path
       id="path422"
       style="mix-blend-mode:normal;fill:#f6ae2d;fill-opacity:1;stroke-width:7.49998"
       d="m 356.27158,1440.0003 h -44.99973 c 0,-54.7275 -3.89247,-108.075 -7.70245,-160.2674 l -0.007,-0.053 c -0.4875,-6.735 -0.98249,-13.4475 -1.46249,-20.145 -4.16997,-58.1475 -7.59745,-115.05 -3.97498,-168.4725 3.10499,-45.8475 11.45243,-89.985 29.45982,-131.0625 h 50.0097 c -0.1125,0.21 -0.225,0.42 -0.3375,0.6375 -21.04487,39.3375 -30.86981,83.7825 -34.23729,133.47 -3.38248,49.89 -0.2175,103.875 3.96748,162.2025 0.47999,6.6525 0.96749,13.3575 1.46249,20.115 3.80247,52.0349 7.82245,107.0924 7.82245,163.5749 z m -131.2417,0 h -44.99973 c 0,-62.5875 -7.65745,-126.8925 -16.1849,-192.5024 -0.83249,-6.405 -1.67249,-12.8175 -2.51248,-19.245 -7.73246,-58.98 -15.59991,-118.9725 -18.07489,-177.7725 -1.27499,-30.33 -1.1325,-60.5625 1.21499,-90.48 h 45.12723 c -2.43749,28.8675 -2.64749,58.4325 -1.38,88.59 2.38499,56.685 9.98244,114.66 17.7524,173.9775 l 0.008,0.067 c 0.83249,6.3375 1.66499,12.69 2.48998,19.0575 8.51995,65.5199 16.5599,132.4649 16.5599,198.3074 z M 0.02375,1281.5704 c 24.82485,-115.0725 21.56237,-221.805 13.82242,-321.57 h 45.15722 c 10.65744,138.8625 12.60742,297.4575 -58.97964,473.1974 z" /><path
       id="path429"
       d="m 480.02083,303.43551 c -11.93993,-2.565 -23.85736,-5.16 -35.74479,-7.755 h -0.007 c -19.19238,-4.185 -38.29476,-8.3475 -57.24715,-12.3225 -79.42451,-16.6575 -157.12404,-30.23249 -233.26358,-30.23249 -60.55463,0 -103.46937,13.09499 -134.20418,34.55999 -7.01996,4.8975 -13.51492,10.3125 -19.52988,16.245 v -57.32999 c 39.47226,-25.4025 90.18695,-38.475 153.73406,-38.475 81.05951,0 162.57651,14.43 242.50353,31.1925 19.75488,4.14 39.36726,8.415 58.86714,12.6675 h 0.007 c 8.31745,1.8075 16.6124,3.615 24.88485,5.4075 z M 142.42538,480.00048 H 80.76076 c 9.39744,-11.2875 19.80738,-22.3725 31.31231,-33.2325 C 208.77748,355.4705 310.59686,331.073 410.59375,342.1355 c 23.31736,2.5725 46.49222,7.08 69.42708,13.05 v 46.61999 c -24.74985,-7.02 -49.5597,-12.2025 -74.37705,-14.9475 -87.62197,-9.68999 -176.12143,10.9125 -262.6784,92.62499 -0.18,0.1725 -0.36,0.345 -0.54,0.5175 z M 0.02375,50.340548 c 10.79243,0.075 21.60737,0.36 32.3923,0.825 66.6821,2.85 134.48918,12.449998 192.97383,20.729997 l 0.2325,0.03 c 3.37498,0.48 6.71995,0.9525 10.03493,1.4175 32.9623,4.657499 67.97209,10.469998 104.58687,16.544997 v 0 c 44.48973,7.387499 91.33444,15.157498 139.77665,21.734998 v 45.39749 c -51.18719,-6.84 -102.19438,-15.285 -149.53409,-23.1225 -36.40478,-6.02249 -70.64207,-11.69249 -101.12189,-15.98999 -3.11248,-0.4425 -6.23996,-0.885 -9.39744,-1.335 l -0.3675,-0.0525 C 160.69527,108.18804 94.89067,98.873041 30.48856,96.120541 c -10.25243,-0.435 -20.42237,-0.705 -30.46481,-0.78 z"
       style="mix-blend-mode:normal;fill:#f45b69;fill-opacity:1;stroke-width:7.49998" /><path
       id="path445"
       style="mix-blend-mode:normal;fill:#f6ae2d;fill-opacity:1;stroke-width:7.49998"
       d="M 960.0179,294.28551 C 851.41856,344.6105 738.93425,345.983 626.89993,330.593 c -48.7647,-6.6975 -98.0169,-16.65749 -146.8791,-27.15749 v -46.04249 c 51.53968,11.15249 102.35937,21.66749 152.99906,28.61999 113.46681,15.585 222.71115,12.825 326.99801,-41.93249 z M 480.02083,401.80549 V 355.1855 c 73.83705,19.2225 145.19161,53.64749 211.01871,87.98999 29.12232,15.19499 68.70708,28.40249 114.00681,36.82499 H 664.3172 c -60.35963,-31.32 -122.11425,-60.55499 -184.29637,-78.19499 z m 0,-290.18245 c 10.97243,1.4925 22.03486,2.9175 33.15729,4.26 99.5619,12.0525 199.04129,16.7325 283.63328,0.315 67.13959,-13.0425 123.33674,-38.999996 163.2065,-83.954989 v 61.73249 c -43.54473,34.544999 -96.89191,55.184989 -154.62656,66.397489 -91.65694,17.79 -196.7838,12.39 -297.62068,0.1875 -9.23995,-1.1175 -18.49489,-2.3025 -27.74983,-3.54 z" /><path
       id="path549"
       style="mix-blend-mode:normal;fill:#ae7fe9;fill-opacity:1;stroke-width:7.49998"
       d="m 0.02378,2312.2202 v -45.2325 c 51.96718,5.265 108.89184,12.0675 170.72896,19.455 33.73479,4.0275 68.93958,8.2275 105.59936,12.4575 77.45952,8.925 144.89911,8.145 203.66876,-0.66 v 45.465 c -61.67963,8.565 -131.00171,8.865 -208.82873,-0.105 -37.33477,-4.305 -72.95206,-8.5575 -106.91935,-12.615 v 0 c -59.75214,-7.1325 -114.3893,-13.6575 -164.249,-18.765 z m 0,-145.665 v -45.3225 c 93.02193,11.22 183.66638,20.9475 263.72089,18.915 89.65446,-2.2725 160.97152,-19.29 206.84124,-60.615 3.20998,-2.895 6.35996,-5.8125 9.43495,-8.76 v 58.62 c -56.78966,39.7275 -133.02669,53.655 -215.13619,55.74 -81.9295,2.085 -173.66895,-7.6125 -264.86089,-18.5775 z m 395.75009,-246.555 h -56.87215 c -45.34473,52.6125 -99.8394,79.005 -160.77653,90.6675 -54.55466,10.44 -114.3818,9.1125 -178.10141,2.9925 v 45.21 c 64.52961,5.9925 127.82172,7.2375 186.56136,-4.005 80.99951,-15.5025 153.11907,-54.645 209.18873,-134.865 z" /><path
       id="path564"
       style="mix-blend-mode:normal;fill:#75f4f4;fill-opacity:1;stroke-width:7.49998"
       d="m 0.02375,1773.3678 c 7.97245,0.705 16.0424,1.425 24.21735,2.1675 78.91452,7.155 129.98921,-43.2525 159.69653,-105.7875 29.57232,-62.2425 41.08475,-141.5025 41.08475,-207.2475 v -22.5 h -44.99973 v 22.5 c 0,61.755 -10.98743,133.7625 -36.72727,187.935 -25.60485,53.88 -62.65462,85.0275 -114.9893,80.28 -9.56994,-0.8625 -18.98989,-1.71 -28.28233,-2.52 z m 0,131.46 c 23.81236,1.815 48.20971,3.7275 73.20705,5.7225 73.28956,5.8649 129.56921,-13.62 171.61396,-49.8825 41.39975,-35.7 66.98209,-85.9125 83.01699,-138.2625 29.25732,-95.505 28.74733,-205.44 28.46233,-266.94 v -0.015 c -0.03,-5.565 -0.0525,-10.725 -0.0525,-15.45 h -44.99973 c 0,4.77 0.0225,9.885 0.0375,15.315 v 0.075 c 0.2475,62.1525 0.645,165.315 -26.47484,253.83 -14.66241,47.865 -36.77227,89.25 -69.38207,117.3675 -31.95731,27.5625 -75.98954,44.1225 -138.63666,39.1125 -26.21984,-2.1 -51.81718,-4.1025 -76.79203,-6 z m 479.99708,-150.4275 v -314.4 c 0,72.33 -0.525,133.4925 -13.40992,199.005 -12.82492,65.1825 -38.09227,135.5775 -88.67196,224.91 -12.09743,21.375 -25.13985,39.96 -39.03726,56.0849 h 56.87215 c 7.39495,-10.5749 14.50491,-21.8699 21.32987,-33.9149 27.20233,-48.0525 47.62471,-91.32 62.91712,-131.685 z" /><path
       id="path577"
       style="mix-blend-mode:normal;fill:#f45b69;fill-opacity:1;stroke-width:7.49998"
       d="m 480.02083,2703.4351 c -11.93993,-2.565 -23.85736,-5.16 -35.74479,-7.755 h -0.007 c -19.19238,-4.185 -38.29476,-8.3475 -57.24715,-12.3225 -79.42451,-16.6575 -157.12404,-30.2325 -233.26358,-30.2325 -60.55463,0 -103.46937,13.095 -134.20418,34.56 -7.01996,4.8975 -13.51492,10.3125 -19.52988,16.245 v -57.33 c 39.47226,-25.4025 90.18695,-38.475 153.73406,-38.475 81.05951,0 162.57651,14.43 242.50353,31.1925 19.75488,4.14 39.36726,8.415 58.86714,12.6675 h 0.007 c 8.31745,1.8075 16.6124,3.615 24.88485,5.4075 z m -337.59545,176.565 H 80.76076 c 9.39744,-11.2875 19.80738,-22.3725 31.31231,-33.2325 96.70441,-91.2975 198.52379,-115.695 298.52068,-104.6325 23.31736,2.5725 46.49222,7.08 69.42708,13.05 v 46.62 c -24.74985,-7.02 -49.5597,-12.2025 -74.37705,-14.9475 -87.62197,-9.69 -176.12143,10.9125 -262.6784,92.625 -0.18,0.1725 -0.36,0.345 -0.54,0.5175 z M 0.02375,2450.3402 c 10.79243,0.075 21.60737,0.36 32.3923,0.825 66.6821,2.85 134.48918,12.45 192.97383,20.73 l 0.2325,0.03 c 3.37498,0.48 6.71995,0.9525 10.03493,1.4175 32.9623,4.6575 67.97209,10.47 104.58687,16.545 v 0 c 44.48973,7.3875 91.33444,15.1575 139.77665,21.735 v 45.3974 c -51.18719,-6.84 -102.19438,-15.285 -149.53409,-23.1224 -36.40478,-6.0225 -70.64207,-11.6925 -101.12189,-15.99 -3.11248,-0.4425 -6.23996,-0.885 -9.39744,-1.335 l -0.3675,-0.053 c -58.90464,-8.3325 -124.70924,-17.6475 -189.11135,-20.4 -10.25243,-0.435 -20.42237,-0.705 -30.46481,-0.78 z" /><path
       id="path593"
       style="mix-blend-mode:normal;fill:#a6ffa1;fill-opacity:1;stroke-width:7.49998"
       d="m 960.0179,2694.2851 c -108.59934,50.325 -221.08365,51.6975 -333.11797,36.3075 -48.7647,-6.6975 -98.0169,-16.6575 -146.8791,-27.1575 v -46.0425 c 51.53968,11.1525 102.35937,21.6675 152.99906,28.62 113.46681,15.585 222.71115,12.825 326.99801,-41.9325 z m -479.99707,107.52 v -46.62 c 73.83705,19.2225 145.19161,53.6475 211.01871,87.99 29.12232,15.195 68.70708,28.4025 114.00681,36.825 H 664.3172 c -60.35963,-31.32 -122.11425,-60.555 -184.29637,-78.195 z m 0,-290.1824 c 10.97243,1.4925 22.03486,2.9175 33.15729,4.26 99.5619,12.0525 199.04129,16.7325 283.63328,0.315 67.13959,-13.0425 123.33674,-39 163.2065,-83.955 v 61.7325 c -43.54473,34.545 -96.89191,55.1849 -154.62656,66.3974 -91.65694,17.79 -196.7838,12.39 -297.62068,0.1875 -9.23995,-1.1175 -18.49489,-2.3025 -27.74983,-3.54 z" /></g><g
     id="g383"
     transform="matrix(6.6666667,0,0,6.6666667,426.66666,-693.33334)"
     style="display:inline;opacity:1"
     inkscape:label="title"><path
       d="m 139.987,190.83 v 258.339 h 10.388 v 4.545 H 136 V 186.286 h 14.375 v 4.544 z"
       fill="#ffffff"
       id="path363" /><path
       d="m 180.41,294.113 v 7.407 h 0.212 c 1.982,-2.819 4.369,-5.009 7.165,-6.561 2.795,-1.549 5.999,-2.327 9.607,-2.327 3.467,0 6.634,0.672 9.5,2.011 2.867,1.341 5.043,3.703 6.529,7.09 1.627,-2.399 3.838,-4.515 6.635,-6.349 2.795,-1.833 6.103,-2.752 9.925,-2.752 2.902,0 5.59,0.353 8.068,1.059 2.476,0.705 4.599,1.834 6.369,3.386 1.767,1.552 3.147,3.581 4.14,6.083 0.99,2.506 1.486,5.52 1.486,9.049 v 36.609 h -15.074 v -31.003 c 0,-1.833 -0.071,-3.561 -0.213,-5.185 -0.143,-1.621 -0.53,-3.031 -1.167,-4.232 -0.638,-1.198 -1.576,-2.151 -2.813,-2.858 -1.239,-0.702 -2.92,-1.057 -5.043,-1.057 -2.122,0 -3.839,0.408 -5.149,1.217 -1.309,0.812 -2.335,1.871 -3.078,3.174 -0.742,1.307 -1.238,2.788 -1.485,4.447 -0.249,1.656 -0.372,3.332 -0.372,5.025 v 30.473 h -15.073 v -30.685 c 0,-1.622 -0.037,-3.228 -0.105,-4.813 -0.072,-1.589 -0.372,-3.052 -0.904,-4.393 -0.53,-1.34 -1.416,-2.416 -2.654,-3.228 -1.238,-0.809 -3.06,-1.217 -5.467,-1.217 -0.708,0 -1.646,0.159 -2.812,0.478 -1.168,0.317 -2.301,0.917 -3.397,1.798 -1.098,0.882 -2.035,2.152 -2.813,3.808 -0.779,1.659 -1.168,3.827 -1.168,6.507 v 31.744 h -15.072 v -54.705 z"
       fill="#ffffff"
       id="path364" /><path
       fill-rule="evenodd"
       clip-rule="evenodd"
       d="m 265.649,296.547 c -2.407,1.413 -4.389,3.281 -5.944,5.609 -1.56,2.327 -2.443,5.256 -2.654,8.782 h 15.073 c 0.282,-2.962 1.275,-5.08 2.972,-6.349 1.699,-1.27 4.035,-1.905 7.007,-1.905 1.342,0 2.6,0.09 3.768,0.264 1.167,0.177 2.193,0.53 3.078,1.059 0.884,0.528 1.592,1.271 2.123,2.222 0.531,0.952 0.796,2.241 0.796,3.862 0.069,1.553 -0.391,2.734 -1.38,3.545 -0.992,0.812 -2.335,1.428 -4.034,1.852 -1.698,0.423 -3.645,0.741 -5.838,0.953 -2.194,0.211 -4.423,0.494 -6.688,0.845 -2.265,0.355 -4.511,0.83 -6.74,1.429 -2.23,0.599 -4.211,1.499 -5.944,2.698 -1.736,1.2 -3.151,2.804 -4.247,4.816 -1.099,2.009 -1.646,4.567 -1.646,7.669 0,2.821 0.478,5.257 1.434,7.302 0.955,2.046 2.282,3.739 3.98,5.077 1.698,1.342 3.679,2.329 5.944,2.965 2.265,0.634 4.706,0.952 7.325,0.952 3.397,0 6.723,-0.496 9.979,-1.481 3.254,-0.988 6.085,-2.716 8.492,-5.185 0.069,0.917 0.193,1.816 0.371,2.697 0.176,0.882 0.407,1.746 0.69,2.593 h 15.286 c -0.709,-1.128 -1.205,-2.821 -1.486,-5.079 -0.284,-2.258 -0.425,-4.618 -0.425,-7.09 v -28.462 c 0,-3.316 -0.743,-5.979 -2.229,-7.989 -1.487,-2.01 -3.398,-3.581 -5.733,-4.709 -2.335,-1.127 -4.918,-1.886 -7.749,-2.275 -2.831,-0.387 -5.625,-0.582 -8.385,-0.582 -3.043,0 -6.07,0.301 -9.077,0.9 -3.008,0.6 -5.714,1.605 -8.119,3.015 z m 20.753,27.619 c 1.096,-0.212 2.122,-0.476 3.078,-0.793 0.955,-0.318 1.751,-0.759 2.389,-1.324 v 5.608 c 0,0.847 -0.09,1.976 -0.265,3.386 -0.178,1.413 -0.656,2.803 -1.433,4.178 -0.781,1.377 -1.982,2.559 -3.609,3.546 -1.629,0.989 -3.928,1.481 -6.9,1.481 -1.204,0 -2.372,-0.106 -3.503,-0.318 -1.134,-0.21 -2.124,-0.581 -2.972,-1.11 -0.849,-0.529 -1.523,-1.251 -2.018,-2.17 -0.496,-0.915 -0.743,-2.046 -0.743,-3.384 0,-1.411 0.247,-2.575 0.743,-3.492 0.495,-0.915 1.15,-1.675 1.965,-2.275 0.812,-0.6 1.768,-1.075 2.866,-1.429 1.096,-0.351 2.21,-0.636 3.343,-0.846 1.202,-0.212 2.405,-0.387 3.609,-0.53 1.203,-0.14 2.352,-0.317 3.45,-0.528 z"
       fill="#ffffff"
       id="path365" /><path
       d="m 346.644,294.117 v 10.052 h -11.038 v 27.089 c 0,2.538 0.424,4.232 1.273,5.077 0.848,0.847 2.548,1.27 5.095,1.27 0.85,0 1.662,-0.035 2.441,-0.105 0.778,-0.07 1.522,-0.178 2.229,-0.318 v 11.64 c -1.273,0.212 -2.689,0.352 -4.245,0.424 -1.557,0.067 -3.078,0.104 -4.565,0.104 -2.335,0 -4.547,-0.159 -6.634,-0.477 -2.088,-0.317 -3.928,-0.932 -5.52,-1.85 -1.592,-0.916 -2.849,-2.223 -3.768,-3.916 -0.921,-1.691 -1.38,-3.914 -1.38,-6.666 v -32.272 h -9.129 v -10.052 h 9.129 v -16.401 h 15.073 v 16.401 z"
       fill="#ffffff"
       id="path366" /><path
       d="m 368.194,294.114 v 10.158 h 0.212 c 0.706,-1.694 1.661,-3.262 2.866,-4.709 1.203,-1.445 2.582,-2.681 4.139,-3.703 1.556,-1.021 3.22,-1.815 4.991,-2.381 1.767,-0.564 3.608,-0.847 5.519,-0.847 0.99,0 2.086,0.178 3.29,0.53 v 13.968 c -0.708,-0.142 -1.557,-0.266 -2.547,-0.371 -0.991,-0.106 -1.946,-0.16 -2.866,-0.16 -2.761,0 -5.096,0.461 -7.005,1.377 -1.911,0.917 -3.45,2.168 -4.618,3.755 -1.167,1.588 -2.001,3.439 -2.496,5.555 -0.495,2.116 -0.742,4.41 -0.742,6.878 v 24.654 h -15.073 v -54.704 z"
       fill="#ffffff"
       id="path367" /><path
       fill-rule="evenodd"
       clip-rule="evenodd"
       d="m 395.584,273.272 v 12.38 h 15.074 v -12.38 z m 15.071,75.551 v -54.705 h -15.074 v 54.705 z"
       fill="#ffffff"
       id="path368" /><path
       d="m 418.512,294.111 h 17.196 l 9.66,14.284 9.553,-14.284 h 16.666 l -18.045,25.606 20.275,29.099 H 456.62 l -11.465,-17.247 -11.464,17.247 h -16.877 l 19.743,-28.78 z"
       fill="#ffffff"
       id="path369" /><path
       d="m 180.978,231.286 h -6.762 v 21.679 c 0,1.248 0.141,2.234 0.423,2.959 0.282,0.724 0.704,1.288 1.268,1.691 0.604,0.362 1.308,0.583 2.113,0.664 0.845,0.08 1.811,0.101 2.898,0.06 v 1.993 c -1.167,0.081 -2.314,0.081 -3.441,0 -1.087,-0.121 -2.053,-0.423 -2.898,-0.906 -0.846,-0.523 -1.53,-1.288 -2.053,-2.294 -0.483,-1.007 -0.684,-2.396 -0.604,-4.167 v -21.679 h -5.735 v -1.993 h 5.735 v -9.662 h 2.294 v 9.662 h 6.762 z"
       fill="#ffffff"
       id="path370" /><path
       d="m 189.901,217.216 v 18.72 h 0.121 c 0.402,-1.168 0.966,-2.194 1.69,-3.08 0.765,-0.926 1.631,-1.711 2.597,-2.355 1.006,-0.644 2.093,-1.127 3.26,-1.449 1.167,-0.323 2.354,-0.484 3.562,-0.484 1.811,0 3.341,0.222 4.588,0.665 1.288,0.443 2.335,1.026 3.14,1.751 0.805,0.725 1.429,1.55 1.872,2.476 0.483,0.885 0.825,1.791 1.026,2.717 0.201,0.926 0.322,1.832 0.362,2.718 0.04,0.845 0.061,1.59 0.061,2.234 v 19.203 h -2.295 v -19.626 c 0,-0.765 -0.06,-1.731 -0.181,-2.898 -0.121,-1.168 -0.483,-2.275 -1.087,-3.322 -0.563,-1.087 -1.449,-2.013 -2.656,-2.777 -1.167,-0.765 -2.797,-1.148 -4.89,-1.148 -1.771,0 -3.341,0.322 -4.71,0.966 -1.368,0.645 -2.535,1.55 -3.501,2.718 -0.966,1.127 -1.711,2.496 -2.234,4.106 -0.483,1.57 -0.725,3.301 -0.725,5.193 v 16.788 h -2.294 v -43.116 z"
       fill="#ffffff"
       id="path371" /><path
       d="m 222.235,245.115 v 0.362 c 0,1.811 0.242,3.543 0.725,5.193 0.483,1.651 1.187,3.1 2.113,4.348 0.966,1.248 2.153,2.234 3.562,2.959 1.449,0.725 3.12,1.087 5.011,1.087 3.1,0 5.555,-0.805 7.366,-2.416 1.811,-1.65 3.059,-3.925 3.743,-6.823 h 2.295 c -0.685,3.623 -2.174,6.401 -4.468,8.333 -2.254,1.932 -5.253,2.899 -8.996,2.899 -2.294,0 -4.307,-0.403 -6.038,-1.208 -1.69,-0.845 -3.119,-1.973 -4.286,-3.382 -1.127,-1.449 -1.973,-3.14 -2.536,-5.072 -0.564,-1.973 -0.845,-4.086 -0.845,-6.341 0,-2.174 0.281,-4.247 0.845,-6.22 0.604,-2.013 1.489,-3.764 2.656,-5.253 1.168,-1.53 2.617,-2.738 4.347,-3.624 1.772,-0.926 3.844,-1.389 6.219,-1.389 2.174,0 4.086,0.403 5.736,1.208 1.69,0.805 3.099,1.912 4.226,3.321 1.127,1.369 1.972,2.98 2.536,4.831 0.604,1.812 0.905,3.765 0.905,5.858 0,0.201 -0.02,0.443 -0.06,0.725 0,0.241 0,0.442 0,0.604 z m 22.762,-1.993 c -0.081,-1.691 -0.362,-3.281 -0.845,-4.771 -0.483,-1.53 -1.208,-2.858 -2.174,-3.985 -0.926,-1.168 -2.073,-2.094 -3.441,-2.778 -1.329,-0.685 -2.858,-1.027 -4.589,-1.027 -1.851,0 -3.481,0.363 -4.89,1.087 -1.409,0.685 -2.596,1.611 -3.562,2.778 -0.966,1.127 -1.711,2.456 -2.234,3.986 -0.524,1.529 -0.846,3.099 -0.966,4.71 z"
       fill="#ffffff"
       id="path372" /><path
       d="m 192.933,395.613 c -0.121,-1.368 -0.483,-2.576 -1.087,-3.623 -0.564,-1.047 -1.308,-1.912 -2.234,-2.596 -0.926,-0.685 -2.012,-1.208 -3.26,-1.571 -1.208,-0.362 -2.516,-0.543 -3.925,-0.543 -1.932,0 -3.642,0.403 -5.131,1.208 -1.49,0.765 -2.737,1.811 -3.744,3.14 -1.006,1.288 -1.771,2.778 -2.294,4.468 -0.523,1.651 -0.785,3.362 -0.785,5.133 0,2.094 0.242,4.026 0.725,5.798 0.483,1.771 1.227,3.321 2.234,4.649 1.006,1.289 2.254,2.295 3.743,3.02 1.489,0.724 3.24,1.087 5.252,1.087 1.449,0 2.778,-0.242 3.985,-0.725 1.248,-0.483 2.335,-1.147 3.26,-1.993 0.966,-0.845 1.751,-1.852 2.355,-3.019 0.604,-1.208 1.006,-2.516 1.208,-3.925 h 2.294 c -0.242,1.852 -0.745,3.502 -1.51,4.951 -0.764,1.45 -1.73,2.678 -2.898,3.684 -1.167,0.966 -2.495,1.711 -3.984,2.234 -1.49,0.524 -3.059,0.785 -4.71,0.785 -2.535,0 -4.709,-0.442 -6.52,-1.328 -1.771,-0.926 -3.24,-2.154 -4.407,-3.684 -1.127,-1.53 -1.973,-3.281 -2.536,-5.253 -0.523,-2.013 -0.785,-4.107 -0.785,-6.281 0,-2.174 0.302,-4.227 0.906,-6.159 0.644,-1.932 1.569,-3.623 2.777,-5.073 1.207,-1.449 2.697,-2.596 4.468,-3.442 1.771,-0.845 3.803,-1.268 6.097,-1.268 1.691,0 3.261,0.222 4.71,0.664 1.489,0.403 2.797,1.027 3.924,1.872 1.167,0.846 2.113,1.933 2.838,3.261 0.724,1.289 1.167,2.798 1.328,4.529 z"
       fill="#ffffff"
       id="path373" /><path
       d="m 201.841,401.531 c 0,-2.214 0.302,-4.287 0.906,-6.22 0.644,-1.972 1.57,-3.703 2.777,-5.193 1.208,-1.489 2.697,-2.657 4.468,-3.502 1.771,-0.886 3.804,-1.329 6.098,-1.329 2.294,0 4.327,0.443 6.098,1.329 1.771,0.845 3.26,2.013 4.467,3.502 1.208,1.49 2.114,3.221 2.717,5.193 0.644,1.933 0.966,4.006 0.966,6.22 0,2.214 -0.322,4.308 -0.966,6.281 -0.603,1.972 -1.509,3.703 -2.717,5.193 -1.207,1.449 -2.696,2.617 -4.467,3.502 -1.771,0.846 -3.804,1.268 -6.098,1.268 -2.294,0 -4.327,-0.422 -6.098,-1.268 -1.771,-0.885 -3.26,-2.053 -4.468,-3.502 -1.207,-1.49 -2.133,-3.221 -2.777,-5.193 -0.604,-1.973 -0.906,-4.067 -0.906,-6.281 z m 2.295,0 c 0,1.852 0.261,3.644 0.784,5.375 0.524,1.691 1.288,3.2 2.295,4.529 1.006,1.328 2.254,2.395 3.743,3.2 1.489,0.765 3.2,1.148 5.132,1.148 1.932,0 3.642,-0.383 5.132,-1.148 1.489,-0.805 2.737,-1.872 3.743,-3.2 1.006,-1.329 1.771,-2.838 2.294,-4.529 0.523,-1.731 0.785,-3.523 0.785,-5.375 0,-1.852 -0.262,-3.623 -0.785,-5.314 -0.523,-1.731 -1.288,-3.261 -2.294,-4.589 -1.006,-1.329 -2.254,-2.375 -3.743,-3.14 -1.49,-0.805 -3.2,-1.208 -5.132,-1.208 -1.932,0 -3.643,0.403 -5.132,1.208 -1.489,0.765 -2.737,1.811 -3.743,3.14 -1.007,1.328 -1.771,2.858 -2.295,4.589 -0.523,1.691 -0.784,3.462 -0.784,5.314 z"
       fill="#ffffff"
       id="path374" /><path
       d="m 238.133,386.012 h 2.295 v 6.642 h 0.12 c 0.403,-1.167 0.966,-2.194 1.691,-3.079 0.765,-0.926 1.63,-1.711 2.596,-2.355 1.006,-0.645 2.093,-1.128 3.26,-1.45 1.167,-0.322 2.355,-0.483 3.562,-0.483 1.812,0 3.341,0.222 4.589,0.664 1.288,0.443 2.334,1.027 3.139,1.752 0.805,0.724 1.429,1.55 1.872,2.476 0.483,0.885 0.825,1.791 1.026,2.717 0.202,0.926 0.322,1.832 0.363,2.717 0.04,0.846 0.06,1.591 0.06,2.235 v 19.203 h -2.294 v -19.626 c 0,-0.765 -0.061,-1.731 -0.181,-2.899 -0.121,-1.167 -0.483,-2.274 -1.087,-3.321 -0.564,-1.087 -1.449,-2.013 -2.657,-2.778 -1.167,-0.765 -2.797,-1.147 -4.89,-1.147 -1.771,0 -3.341,0.322 -4.709,0.966 -1.369,0.644 -2.536,1.55 -3.502,2.718 -0.966,1.127 -1.711,2.496 -2.234,4.106 -0.483,1.57 -0.724,3.301 -0.724,5.193 v 16.788 h -2.295 z"
       fill="#ffffff"
       id="path375" /><path
       d="m 268.475,388.005 v -1.993 h 5.555 v -6.401 c 0,-1.087 0.181,-2.013 0.543,-2.778 0.362,-0.805 0.845,-1.449 1.449,-1.932 0.644,-0.483 1.369,-0.846 2.174,-1.087 0.845,-0.242 1.73,-0.363 2.656,-0.363 0.684,0 1.59,0.101 2.717,0.302 v 1.993 c -1.127,-0.201 -2.033,-0.302 -2.717,-0.302 -1.288,0 -2.375,0.302 -3.26,0.906 -0.845,0.564 -1.268,1.711 -1.268,3.442 v 6.22 h 6.46 v 1.993 h -6.46 v 29.046 h -2.294 v -29.046 z"
       fill="#ffffff"
       id="path376" /><path
       d="m 289.74,401.833 v 0.363 c 0,1.811 0.241,3.542 0.724,5.193 0.483,1.65 1.188,3.1 2.114,4.348 0.966,1.248 2.153,2.234 3.562,2.959 1.449,0.724 3.119,1.087 5.011,1.087 3.099,0 5.554,-0.806 7.366,-2.416 1.811,-1.65 3.059,-3.925 3.743,-6.824 h 2.294 c -0.684,3.624 -2.173,6.401 -4.468,8.334 -2.254,1.932 -5.252,2.898 -8.996,2.898 -2.294,0 -4.306,-0.402 -6.037,-1.207 -1.691,-0.846 -3.119,-1.973 -4.287,-3.382 -1.127,-1.449 -1.972,-3.14 -2.535,-5.073 -0.564,-1.972 -0.846,-4.086 -0.846,-6.34 0,-2.174 0.282,-4.247 0.846,-6.22 0.603,-2.013 1.489,-3.764 2.656,-5.254 1.167,-1.53 2.616,-2.737 4.347,-3.623 1.771,-0.926 3.844,-1.389 6.219,-1.389 2.173,0 4.085,0.403 5.735,1.208 1.691,0.805 3.1,1.912 4.227,3.321 1.127,1.369 1.972,2.979 2.535,4.831 0.604,1.812 0.906,3.764 0.906,5.858 0,0.201 -0.02,0.443 -0.06,0.724 0,0.242 0,0.443 0,0.604 z m 22.761,-1.993 c -0.08,-1.69 -0.362,-3.281 -0.845,-4.77 -0.483,-1.53 -1.207,-2.858 -2.173,-3.986 -0.926,-1.167 -2.073,-2.093 -3.442,-2.777 -1.328,-0.685 -2.858,-1.027 -4.588,-1.027 -1.852,0 -3.482,0.362 -4.891,1.087 -1.408,0.684 -2.596,1.61 -3.562,2.778 -0.966,1.127 -1.71,2.455 -2.234,3.985 -0.523,1.53 -0.845,3.1 -0.966,4.71 z"
       fill="#ffffff"
       id="path377" /><path
       d="m 324.851,392.896 h 0.181 c 0.282,-1.006 0.785,-1.953 1.51,-2.838 0.765,-0.886 1.67,-1.651 2.717,-2.295 1.086,-0.644 2.274,-1.127 3.562,-1.449 1.328,-0.363 2.697,-0.524 4.105,-0.483 v 2.294 c -1.207,-0.161 -2.596,-0.04 -4.166,0.363 -1.529,0.402 -2.998,1.288 -4.407,2.657 -0.563,0.604 -1.067,1.187 -1.509,1.751 -0.403,0.564 -0.745,1.188 -1.027,1.872 -0.281,0.684 -0.503,1.449 -0.664,2.295 -0.161,0.845 -0.261,1.852 -0.302,3.019 v 16.969 h -2.294 v -31.039 h 2.294 z"
       fill="#ffffff"
       id="path378" /><path
       d="m 341.974,401.833 v 0.363 c 0,1.811 0.241,3.542 0.724,5.193 0.483,1.65 1.188,3.1 2.113,4.348 0.966,1.248 2.154,2.234 3.563,2.959 1.449,0.724 3.119,1.087 5.011,1.087 3.099,0 5.554,-0.806 7.365,-2.416 1.812,-1.65 3.059,-3.925 3.744,-6.824 h 2.294 c -0.684,3.624 -2.174,6.401 -4.468,8.334 -2.254,1.932 -5.252,2.898 -8.996,2.898 -2.294,0 -4.306,-0.402 -6.037,-1.207 -1.691,-0.846 -3.12,-1.973 -4.287,-3.382 -1.127,-1.449 -1.972,-3.14 -2.536,-5.073 -0.563,-1.972 -0.845,-4.086 -0.845,-6.34 0,-2.174 0.282,-4.247 0.845,-6.22 0.604,-2.013 1.49,-3.764 2.657,-5.254 1.167,-1.53 2.616,-2.737 4.347,-3.623 1.771,-0.926 3.844,-1.389 6.219,-1.389 2.173,0 4.085,0.403 5.735,1.208 1.691,0.805 3.099,1.912 4.226,3.321 1.127,1.369 1.973,2.979 2.536,4.831 0.604,1.812 0.906,3.764 0.906,5.858 0,0.201 -0.02,0.443 -0.061,0.724 0,0.242 0,0.443 0,0.604 z m 22.761,-1.993 c -0.08,-1.69 -0.362,-3.281 -0.845,-4.77 -0.483,-1.53 -1.208,-2.858 -2.174,-3.986 -0.925,-1.167 -2.072,-2.093 -3.441,-2.777 -1.328,-0.685 -2.858,-1.027 -4.588,-1.027 -1.852,0 -3.482,0.362 -4.891,1.087 -1.409,0.684 -2.596,1.61 -3.562,2.778 -0.966,1.127 -1.711,2.455 -2.234,3.985 -0.523,1.53 -0.845,3.1 -0.966,4.71 z"
       fill="#ffffff"
       id="path379" /><path
       d="m 374.791,386.012 h 2.294 v 6.642 h 0.121 c 0.402,-1.167 0.966,-2.194 1.69,-3.079 0.765,-0.926 1.631,-1.711 2.597,-2.355 1.006,-0.645 2.093,-1.128 3.26,-1.45 1.167,-0.322 2.354,-0.483 3.562,-0.483 1.811,0 3.341,0.222 4.588,0.664 1.288,0.443 2.335,1.027 3.14,1.752 0.805,0.724 1.429,1.55 1.872,2.476 0.483,0.885 0.825,1.791 1.026,2.717 0.201,0.926 0.322,1.832 0.362,2.717 0.041,0.846 0.061,1.591 0.061,2.235 v 19.203 h -2.295 v -19.626 c 0,-0.765 -0.06,-1.731 -0.181,-2.899 -0.121,-1.167 -0.483,-2.274 -1.087,-3.321 -0.563,-1.087 -1.449,-2.013 -2.656,-2.778 -1.167,-0.765 -2.797,-1.147 -4.89,-1.147 -1.771,0 -3.341,0.322 -4.71,0.966 -1.368,0.644 -2.535,1.55 -3.501,2.718 -0.966,1.127 -1.711,2.496 -2.234,4.106 -0.483,1.57 -0.725,3.301 -0.725,5.193 v 16.788 h -2.294 z"
       fill="#ffffff"
       id="path380" /><path
       d="m 431.879,395.613 c -0.121,-1.368 -0.483,-2.576 -1.087,-3.623 -0.563,-1.047 -1.308,-1.912 -2.234,-2.596 -0.925,-0.685 -2.012,-1.208 -3.26,-1.571 -1.207,-0.362 -2.516,-0.543 -3.924,-0.543 -1.932,0 -3.643,0.403 -5.132,1.208 -1.489,0.765 -2.737,1.811 -3.743,3.14 -1.007,1.288 -1.771,2.778 -2.295,4.468 -0.523,1.651 -0.785,3.362 -0.785,5.133 0,2.094 0.242,4.026 0.725,5.798 0.483,1.771 1.228,3.321 2.234,4.649 1.006,1.289 2.254,2.295 3.743,3.02 1.489,0.724 3.24,1.087 5.253,1.087 1.449,0 2.777,-0.242 3.984,-0.725 1.248,-0.483 2.335,-1.147 3.261,-1.993 0.966,-0.845 1.751,-1.852 2.354,-3.019 0.604,-1.208 1.007,-2.516 1.208,-3.925 h 2.294 c -0.241,1.852 -0.745,3.502 -1.509,4.951 -0.765,1.45 -1.731,2.678 -2.898,3.684 -1.168,0.966 -2.496,1.711 -3.985,2.234 -1.489,0.524 -3.059,0.785 -4.709,0.785 -2.536,0 -4.71,-0.442 -6.521,-1.328 -1.771,-0.926 -3.24,-2.154 -4.407,-3.684 -1.127,-1.53 -1.973,-3.281 -2.536,-5.253 -0.523,-2.013 -0.785,-4.107 -0.785,-6.281 0,-2.174 0.302,-4.227 0.906,-6.159 0.644,-1.932 1.569,-3.623 2.777,-5.073 1.207,-1.449 2.697,-2.596 4.468,-3.442 1.771,-0.845 3.803,-1.268 6.098,-1.268 1.69,0 3.26,0.222 4.709,0.664 1.489,0.403 2.797,1.027 3.924,1.872 1.168,0.846 2.113,1.933 2.838,3.261 0.724,1.289 1.167,2.798 1.328,4.529 z"
       fill="#ffffff"
       id="path381" /><path
       d="m 443.142,401.833 v 0.363 c 0,1.811 0.242,3.542 0.725,5.193 0.483,1.65 1.187,3.1 2.113,4.348 0.966,1.248 2.153,2.234 3.562,2.959 1.449,0.724 3.119,1.087 5.011,1.087 3.099,0 5.555,-0.806 7.366,-2.416 1.811,-1.65 3.059,-3.925 3.743,-6.824 h 2.294 c -0.684,3.624 -2.173,6.401 -4.467,8.334 -2.254,1.932 -5.253,2.898 -8.996,2.898 -2.295,0 -4.307,-0.402 -6.038,-1.207 -1.69,-0.846 -3.119,-1.973 -4.286,-3.382 -1.127,-1.449 -1.973,-3.14 -2.536,-5.073 -0.564,-1.972 -0.845,-4.086 -0.845,-6.34 0,-2.174 0.281,-4.247 0.845,-6.22 0.604,-2.013 1.489,-3.764 2.656,-5.254 1.168,-1.53 2.617,-2.737 4.347,-3.623 1.771,-0.926 3.844,-1.389 6.219,-1.389 2.173,0 4.085,0.403 5.736,1.208 1.69,0.805 3.099,1.912 4.226,3.321 1.127,1.369 1.972,2.979 2.536,4.831 0.603,1.812 0.905,3.764 0.905,5.858 0,0.201 -0.02,0.443 -0.06,0.724 0,0.242 0,0.443 0,0.604 z m 22.762,-1.993 c -0.081,-1.69 -0.363,-3.281 -0.846,-4.77 -0.483,-1.53 -1.207,-2.858 -2.173,-3.986 -0.926,-1.167 -2.073,-2.093 -3.442,-2.777 -1.328,-0.685 -2.857,-1.027 -4.588,-1.027 -1.852,0 -3.482,0.362 -4.89,1.087 -1.409,0.684 -2.597,1.61 -3.563,2.778 -0.966,1.127 -1.71,2.455 -2.233,3.985 -0.524,1.53 -0.846,3.1 -0.966,4.71 z"
       fill="#ffffff"
       id="path382" /><path
       d="M 500.013,449.1 V 190.9 h -10.388 v -4.614 H 504 V 453.714 H 489.625 V 449.1 Z"
       fill="#ffffff"
       id="path383" /></g><defs
     id="defs362"><clipPath
       id="clip3_374_15903"><rect
         width="64"
         height="64"
         fill="#ffffff"
         transform="translate(64,256)"
         id="rect321"
         x="0"
         y="0" /></clipPath><clipPath
       id="clip4_374_15903"><rect
         width="64"
         height="64"
         fill="#ffffff"
         transform="translate(64,128)"
         id="rect322"
         x="0"
         y="0" /></clipPath><clipPath
       id="clip5_374_15903"><rect
         width="64"
         height="64"
         fill="#ffffff"
         transform="translate(128)"
         id="rect323"
         x="0"
         y="0" /></clipPath><clipPath
       id="clip9_374_15903"><rect
         width="64"
         height="64"
         fill="#ffffff"
         transform="translate(192,256)"
         id="rect327"
         x="0"
         y="0" /></clipPath><clipPath
       id="clip10_374_15903"><rect
         width="64"
         height="64"
         fill="#ffffff"
         transform="translate(256,256)"
         id="rect328"
         x="0"
         y="0" /></clipPath><clipPath
       id="clip13_374_15903"><rect
         width="64"
         height="64"
         fill="#ffffff"
         transform="translate(320,64)"
         id="rect331"
         x="0"
         y="0" /></clipPath><clipPath
       id="clip14_374_15903"><rect
         width="64"
         height="64"
         fill="#ffffff"
         transform="translate(384,256)"
         id="rect332"
         x="0"
         y="0" /></clipPath><clipPath
       id="clip16_374_15903"><rect
         width="64"
         height="64"
         fill="#ffffff"
         transform="translate(448)"
         id="rect334"
         x="0"
         y="0" /></clipPath><clipPath
       id="clip20_374_15903"><rect
         width="64"
         height="64"
         fill="#ffffff"
         transform="translate(512,256)"
         id="rect338"
         x="0"
         y="0" /></clipPath><clipPath
       id="clip21_374_15903"><rect
         width="64"
         height="64"
         fill="#ffffff"
         transform="translate(576,256)"
         id="rect339"
         x="0"
         y="0" /></clipPath><clipPath
       id="clip22_374_15903"><rect
         width="64"
         height="64"
         fill="#ffffff"
         transform="translate(512,128)"
         id="rect340"
         x="0"
         y="0" /></clipPath><clipPath
       id="clip24_374_15903"><rect
         width="64"
         height="64"
         fill="#ffffff"
         transform="translate(0,384)"
         id="rect342"
         x="0"
         y="0" /></clipPath><clipPath
       id="clip25_374_15903"><rect
         width="64"
         height="64"
         fill="#ffffff"
         transform="translate(64,576)"
         id="rect343"
         x="0"
         y="0" /></clipPath><clipPath
       id="clip26_374_15903"><rect
         width="64"
         height="64"
         fill="#ffffff"
         transform="translate(64,448)"
         id="rect344"
         x="0"
         y="0" /></clipPath><clipPath
       id="clip28_374_15903"><rect
         width="64"
         height="64"
         fill="#ffffff"
         transform="translate(128,512)"
         id="rect346"
         x="0"
         y="0" /></clipPath><clipPath
       id="clip29_374_15903"><rect
         width="64"
         height="64"
         fill="#ffffff"
         transform="translate(128,576)"
         id="rect347"
         x="0"
         y="0" /></clipPath><clipPath
       id="clip31_374_15903"><rect
         width="64"
         height="64"
         fill="#ffffff"
         transform="translate(192,576)"
         id="rect349"
         x="0"
         y="0" /></clipPath><clipPath
       id="clip32_374_15903"><rect
         width="64"
         height="64"
         fill="#ffffff"
         transform="translate(256,576)"
         id="rect350"
         x="0"
         y="0" /></clipPath><clipPath
       id="clip35_374_15903"><rect
         width="64"
         height="64"
         fill="#ffffff"
         transform="translate(320,384)"
         id="rect353"
         x="0"
         y="0" /></clipPath><clipPath
       id="clip36_374_15903"><rect
         width="64"
         height="64"
         fill="#ffffff"
         transform="translate(384,576)"
         id="rect354"
         x="0"
         y="0" /></clipPath><clipPath
       id="clip39_374_15903"><rect
         width="64"
         height="64"
         fill="#ffffff"
         transform="translate(448,512)"
         id="rect357"
         x="0"
         y="0" /></clipPath><clipPath
       id="clip40_374_15903"><rect
         width="64"
         height="64"
         fill="#ffffff"
         transform="translate(448,576)"
         id="rect358"
         x="0"
         y="0" /></clipPath><clipPath
       id="clip42_374_15903"><rect
         width="64"
         height="64"
         fill="#ffffff"
         transform="translate(512,576)"
         id="rect360"
         x="0"
         y="0" /></clipPath><clipPath
       id="clip43_374_15903"><rect
         width="64"
         height="64"
         fill="#ffffff"
         transform="translate(576,576)"
         id="rect361"
         x="0"
         y="0" /></clipPath><clipPath
       id="clip44_374_15903"><rect
         width="64"
         height="64"
         fill="#ffffff"
         transform="translate(512,448)"
         id="rect362"
         x="0"
         y="0" /></clipPath></defs></svg>
