<svg version="1.1" viewBox="0 0 1920 1080" xmlns="http://www.w3.org/2000/svg">
  <rect width="1920" height="1080"/>
  <path stroke="#29114c" stroke-width="3" d="M 1920,60 H 0 M 1920,180 H 0 M 1920,300 H 0 M 1920,420 H 0 M 1920,540 H 0 M 1920,660 H 0 M 1920,780 H 0 M 1920,900 H 0 m 1920,120 H 0 m 1800,60 V 0 M 1680,1080 V 0 M 1560,1080 V 0 M 1440,1080 V 0 M 1320,1080 V 0 M 1200,1080 V 0 M 1080,1080 V 0 M 960,1080 V 0 M 840,1080 V 0 M 720,1080 V 0 M 600,1080 V 0 M 480,1080 V 0 M 360,1080 V 0 M 240,1080 V 0 M 120,1080 V 0"/>
  <path fill="#0f000a" stroke="#6a5fdb" stroke-width="2.722" d="m1360 341.8.897-3.13.709-1.225.89-1.155 1.05-1.055 1.187-.933 2.292-1.589 2.502-1.525 2.67-1.218 2.786-.89 2.84-.54.685-.085 2.435-.191 2.401.048 2.336.29 2.239.526 1.431.42 2.153.734 2.045.904 1.916 1.072 1.778 1.227 1.396 1.066 1.537 1.256 1.439 1.341 1.334 1.427 1.228 1.502 1.594 2.091.983 1.343.934 1.371.883 1.403.833 1.432 2.075 3.717.54.984.53.989.52.997.51 1.001 3.17 6.294.11.235.24.472.12.235 3.52 7.051.62 1.266.31.632.31.635 1.99 4.063.84 1.747.84 1.755.82 1.761.82 1.764.39.861 1.03 2.269 1.01 2.279 1 2.285.97 2.293.47 1.12.7 1.671.69 1.674.68 1.677.67 1.684 1.95 4.959.16.405.16.408.16.406.16.408 2.34 6.032.45 1.157.92 2.308.46 1.15.98 2.407.9 2.194.92 2.185.93 2.177.96 2.171 1.04 2.316 1.06 2.306 1.07 2.299 1.1 2.288 1.03 2.119.52 1.073.53 1.069.53 1.068.53 1.067 2.23 4.409.56 1.116.54 1.12.55 1.124.54 1.128 1.43 3.037.83 1.8.79 1.813.76 1.828.72 1.845.46 1.179.79 2.154.73 2.18.67 2.2.61 2.222.15.581.55 2.26.48 2.278.41 2.301.34 2.321.13.968.24 2.135.17 2.146.1 2.161.03 2.172-.01 1.655-.06 2.058-.14 2.067-.24 2.074-.32 2.075-.32 1.74-.45 2.155-.58 2.149-.72 2.137-.84 2.115-.53 1.218-1.05 2.211-1.23 2.163-1.4 2.102-1.56 2.028-.59.718-1.75 1.965-1.92 1.845-2.07 1.712-2.21 1.568-.62.403-2.37 1.41-2.47 1.21-2.57.999-2.72.8-2.94.593-2.85.296-2.82.011-2.75-.27-2.55-.522-2.42-.774-2.27-1.013-2.09-1.246-.89-.606-1.62-1.21-1.5-1.33-1.35-1.443-1.22-1.548-2.609-3.671-.398-.566-.386-.573-.381-.577-.369-.581-2.127-3.411-1.212-1.854-1.288-1.805-1.368-1.756-1.44-1.703-1.844-1.99-1.948-1.91-2.053-1.821-2.147-1.735-.489-.377-1.603-1.191-1.643-1.151-1.685-1.103-1.725-1.06-2.61-1.55-1.415-.83-1.428-.81-1.445-.794-1.458-.778-2.581-1.352-1.891-.981-1.905-.965-1.918-.95-1.928-.932-3.627-1.738-1.012-.482-1.017-.476-1.019-.473-1.026-.469-4.554-2.064-1.511-.704-1.493-.73-1.474-.757-1.453-.782-.812-.446-2.66-1.545-2.573-1.644-2.478-1.742-2.384-1.84-1.571-1.31-1.521-1.353-1.474-1.396-1.424-1.434-3.901-4.064-.163-.171-.217-.225-3.992-4.12-1.417-1.428-1.453-1.395-1.495-1.361-1.534-1.327-1.112-.938-1.779-1.448-1.838-1.389-1.897-1.33-1.957-1.27-.576-.362-2.132-1.267-2.197-1.189-2.263-1.106-2.381-1.047-2.577-1.012-2.578-.887-2.635-.786-2.687-.685-2.652-.564-2.695-.467-2.731-.367-2.761-.27-.497-.039-2.634-.166-2.651-.084-2.668-.004-2.681.08-.962.043-2.635.152-2.643.22-2.644.286-2.647.354-1.632.236-2.371.384-2.368.455-2.36.523-2.354.594-3.39.988-3.355 1.132-3.313 1.272-3.263 1.41-1.514.693-1.449.68-1.432.716-1.417.745-1.4.777-3.857 2.196-1.92 1.018-1.978.899-2.026.775-2.064.65-3.456.779-3.471.41-3.434.035-3.344-.343-.457-.073-1.852-.36-1.797-.47-1.739-.581-1.674-.687-4.729-2.138-.813-.375-.807-.388-.797-.398-.789-.408-3.645-1.928-1.929-1.113-1.812-1.245-1.685-1.366-1.553-1.487-.784-.811-1.436-1.66-1.237-1.79-1.027-1.909-.809-2.014-.24-.702-.583-2.179-.296-2.263-.01-2.319.283-2.345.649-2.61.998-2.573 1.327-2.498 1.723-2.492 1.73-2.058 1.835-1.827 2.01-1.682 2.161-1.524 1.88-1.216 1.865-1.141 1.92-1.056 1.967-.963 2.013-.868 4.44-1.798 1.336-.508 1.352-.452 1.367-.391 1.377-.333 1.978-.436 3.286-.951 3.156-1.378 2.945-1.767 2.664-2.112 1.672-1.675 1.475-1.797 1.265-1.9 1.032-1.98.512-1.129.929-2.359.662-2.391.388-2.399.113-2.381-.037-3.26-.027-.999-.053-.997-.089-.987-.114-.985-.951-7.16-.062-.38-.075-.376-.094-.373-.113-.364-1.492-4.488-.908-1.48-1.524-.997-1.926-.373-2.066.299-1.493.659-1.285.975-.977 1.214-.589 1.35-1.177 4.333-.261.834-.326.826-.389.812-.454.797-1.394 2.267-1.76 2.334-2.222 2.037-2.58 1.656-2.834 1.205-2.178.563-2.199.278-2.164-.014-2.085-.311-2.355-.527-1.885-.514-1.794-.675-1.685-.829-1.564-.978-4.231-2.961-.524-.373-.516-.378-.51-.386-.502-.394-2.909-2.319-2.058-1.557-2.148-1.465-2.236-1.372-2.316-1.273-2.293-1.131-2.362-1.035-2.422-.939-2.485-.845-1.956-.619-1.677-.513-1.692-.481-1.71-.45-1.725-.419-4.995-1.158-1.142-.265-1.148-.256-1.149-.25-1.153-.245-5.394-1.136-1.573-.332-1.567-.339-1.567-.344-1.562-.35-4.308-.967-1.677-.372-1.685-.356-1.689-.345-1.694-.333-3.077-.591-2.232-.405-2.244-.369-2.258-.331-2.274-.295-3.886-.467-1.379-.148-1.391-.115-1.4-.083-1.406-.048-5.113-.112-1.768.025-1.782.153-1.786.278-1.776.403-3.043.797-2.219.752-2.099 1.054-1.921 1.328-1.685 1.563-1.651 2.136-1.167 2.323-.631 2.408-.071 2.39.028.305.344 1.839.675 1.72.995 1.564 1.285 1.371 3.656 3.236.388.334.396.329.404.32.412.311 4.344 3.221 1.345 1.17 1.123 1.345.879 1.496.62 1.623.378 1.294.32 2.017-.17 2.095-.657 2.093-1.114 1.996-1.628 1.92-2.009 1.629-2.301 1.262-2.48.831-.912.218-2.044.353-2.03.088-1.973-.183-1.87-.445-6.064-1.931-.314-.099-.418-.127-6.429-1.862-1.818-.385-1.906-.133-1.953.126-1.959.377-1.035.268-2.572.941-2.344 1.422-1.975 1.817-1.503 2.113-.786 1.786-.412 1.829-.027 1.812.364 1.73 1.788 5.375.082.24 1.557 4.374.773 2.36.646 2.403.521 2.444.397 2.479.184 1.385.276 1.733.362 1.71.446 1.683.533 1.653.807 2.299.708 1.757.868 1.682 1.022 1.599 1.174 1.508 1.439 1.683 1.299 1.327 1.493 1.158 1.667.975 1.815.779 2.989.789 3.191.29 3.288-.221 3.285-.722 1.064-.315 1.44-.472 1.415-.552 1.383-.628 1.349-.706 2.586-1.445 2.655-1.294 2.772-.992 2.841-.667 2.856-.332 2.558-.007 2.488.272 2.381.55 2.237.817 2.353 1.037 1.385.655 1.329.726 1.276.795 1.212.858 5.446 4.108.232.172.307.23 4.147 3.068 1.943 1.382 2.005 1.316 2.062 1.251 2.122 1.184 2.482 1.265 2.549 1.175 2.615 1.084 2.676.989.74.257 2.017.675 2.046.629 2.069.583 2.094.535 1.938.47 2.278.533 2.299.493 2.311.458 2.328.419 3.27.556 1.533.257 1.539.248 1.541.237 1.543.227 4.158.597 1.936.275 1.938.266 1.941.256 1.945.246 2.122.262 2.59.313 2.6.29 2.607.265 2.613.242 4.325.385.877.075.878.063.881.056.884.047 4.014.194 2.827.058 2.853-.092 2.871-.243 2.875-.394 2.852-.54 2.839-.685 2.809-.829 2.78-.968.617-.231 2.524-1.008 2.483-1.109 2.436-1.208 2.384-1.303 4.519-2.592.579-.329.585-.324.585-.315.592-.311 4.534-2.346 2.474-1.15 2.554-.932 2.611-.71 2.637-.473 2.903-.248 2.862.049 2.782.339 2.67.627.465.137 2.16.748 2.044.93 1.91 1.099 1.76 1.266.924.739 1.666 1.456 1.522 1.577 1.365 1.691 1.204 1.796.5.827 1.072 1.925.922 1.999.772 2.065.614 2.125.178.712.486 2.26.337 2.303.186 2.336.04 2.361-.01.322-.115 2.506-.271 2.521-.425 2.526-.599 2.61-.735 2.55-.85 2.45-.986 2.429-1.122 2.4-.361.724-1.125 2.152-1.216 2.121-1.305 2.092-1.394 2.056-1.153 1.635-1.283 1.777-1.333 1.756-1.377 1.732-1.42 1.707-1.642 1.933-1.504 1.74-1.534 1.723-1.56 1.705-1.592 1.687-2.087 2.181-1.412 1.449-1.444 1.427-1.472 1.405-1.504 1.381-2.121 1.916-1.836 1.604-1.894 1.544-1.956 1.485-2.008 1.425-1.313.897-2.262 1.473-2.337 1.372-2.402 1.263-2.458 1.149-1.258.553-2.376.97-2.423.834-2.456.694-2.493.553-3.25.501-3.217.248-3.188-.006-3.126-.257-2.315-.36-2.252-.503-2.186-.641-2.109-.779-5.199-2.132-.252-.101-.255-.104-.252-.101-.255-.099-.473-.186-4.515-1.668-4.616-1.497-4.71-1.328-4.926-1.185-.545-.121-.412-.095-.818-.19-3.895-.931-2.926-.781-2.851-.923-2.765-1.063-2.676-1.198-2.051-1.05-1.987-1.129-1.913-1.21-1.842-1.291-1.557-1.142-1.5-1.139-1.465-1.177-1.423-1.21-1.384-1.248-.954-.886-1.811-1.73-1.752-1.774-1.696-1.822-1.711-1.953-1.582-1.906-1.453-1.853-1.399-1.889-1.343-1.924-.948-1.393-.964-1.443-.942-1.458-.918-1.47-.899-1.482-2.586-4.354-.334-.558-.341-.557-.343-.554-.346-.553-3.053-4.831-.776-1.174-.828-1.137-.883-1.106-.93-1.071-2.358-2.596-1.247-1.236-1.382-1.116-1.514-.986-1.628-.853-1.926-.895-2.02-.753-2.177-.46-2.283-.156-2.481.172-2.94.614-2.713 1.031-2.524 1.432-2.246 1.781-1.694 1.814-1.37 1.987-1.006 2.107-.621 2.172-.407 2.1-.242 1.693-.074 1.681.094 1.658.266 1.618.986 4.53.222.952.246.945.271.938.294.927 1.392 4.186.588 1.629.665 1.598.745 1.561.819 1.521 1.663 2.635 1.896 2.491 2.122 2.33 2.363 2.188 1.396 1.137 1.428 1.059 1.486.999 1.534.941 3.934 2.294.953.563.945.574.937.581.926.594 5.756 3.729.527.338.53.33.538.326.541.321 2.947 1.713 2.495 1.316 2.637 1.125 2.76.924 2.87.723 2.401.435 2.455.296 2.496.153 2.527.015 3.374-.075 1.552-.02 1.549.014 1.542.044 1.534.079 1.096.065 3.561.281 3.525.41 3.479.537 3.43.664 3.838.82.218.045 9.085 1.962.839.199.824.225.808.256.79.283 4.304 1.631 1.695.84 1.437 1.123 1.131 1.374.788 1.578.468 2.343-.224 2.468-.911 2.441-1.54 2.266-.579.677-1.385 1.416-1.583 1.249-1.742 1.053-1.865.831-3.759 1.408-1.759.601-1.783.496-1.797.389-1.804.277-2.567.319-2.677.24-2.66.06-2.622-.122-2.571-.306-2.815-.557-2.706-.78-2.582-.998-2.436-1.209-1.863-1.037-1.214-.703-1.179-.743-1.146-.78-1.108-.817-3.58-2.745-1.167-.88-1.183-.862-1.196-.849-1.214-.833-5.48-3.703-.297-.202-.299-.202-.296-.202-.299-.202-7.537-5.141-.259-.176-.341-.242-5.816-4.129-1.154-.728-1.246-.615-1.327-.497-1.395-.376-3.017-.661-2.039-.22-2.116.195-2.089.606-2.012 1.021-2.073 1.639-1.527 1.961-.921 2.171-.246 2.215.361 1.868.89 1.662 1.361 1.355 1.753.968 4.306 1.697.681.251.699.225.714.196.727.168 2.156.452 3.348.893 3.152 1.24 2.911 1.57 2.64 1.879 1.295 1.135 1.203 1.211 1.103 1.288.999 1.358 2.027 2.975.84 1.163.907 1.119.972 1.075 1.03 1.026.974.914 2.123 1.768 2.361 1.527 2.575 1.272 2.757 1.003 2.257.589 2.336.412 2.396.234 2.444.057 2.668-.034 1.952-.062 1.962-.136 1.97-.208 1.967-.279 3.641-.585 2.041-.348 2.035-.387 2.035-.427 2.032-.468 4.138-.994 1.715-.388 1.715-.342 1.719-.3 1.719-.255 2.53-.342 2.798-.289 2.785-.117 2.753.058 2.777.241 2.799.435 2.659.612 2.562.793 2.513 1 2.323 1.137 2.139 1.277 1.996 1.429 1.846 1.575 1.761 1.804 1.57 1.944 1.37 2.07 1.192 2.257.916 2.184.699 2.185.512 2.251.322 2.302.122 1.247.138 2.012.027 2.03-.088 2.046-.197 2.055-.214 1.735-.317 2.188-.402 2.19-.492 2.189-.578 2.184-.255.898-.754 2.469-.84 2.458-.934 2.445-1.074 2.545-1.18 2.566-1.214 2.43-1.299 2.407-1.419 2.441-1.508 2.425-1.553 2.331-1.632 2.297-1.761 2.325-1.822 2.268-1.849 2.162-1.92 2.117-1.993 2.071-.589.595-1.835 1.799-1.897 1.751-1.953 1.701-2.013 1.65-1.892 1.506-1.7 1.303-1.753 1.243-1.806 1.183-1.849 1.117-2.658 1.541-2.03 1.09-2.095.958-2.151.82-2.189.677-2.823.774-2.089.458-2.098.235-2.07.006-2.015-.221-1.724-.29-2.261-.611-2.004-1.016-1.668-1.38-1.267-1.692-.824-1.97-.324-2.141.188-2.226.697-2.219.538-1.246.8-1.597 1.001-1.534 1.18-1.446 1.347-1.34 5.16-4.635.334-.3.341-.297.341-.294.344-.292 5.169-4.339 1.566-1.383 1.48-1.45 1.395-1.513 1.298-1.57 1.552-1.979 1.334-1.884 1.123-1.966.894-2.027.657-2.065.238-.915.416-2.32.046-2.296-.326-2.227-.69-2.114-1.094-2.035-1.45-1.823-1.774-1.572-2.065-1.288-.993-.514-1.81-.822-1.917-.651-2.012-.475-2.086-.295-5.894-.566-.542-.049-.544-.044-.544-.04-.546-.034-5.986-.347-2.109-.185-2.073-.306-2.02-.427-1.967-.544-.964-.301-2.557-.947-2.392-1.192-2.196-1.423-1.981-1.641-1.595-1.665-1.384-1.816-1.161-1.95-.93-2.066-1.357-3.557-.242-.653-.224-.659-.213-.664-.198-.67-1.492-5.277-.474-1.337-.646-1.261-.807-1.167-.966-1.066-1.319-1.283-1.748-1.304-2.103-.882-2.349-.414-2.483.075-2.498.565-2.381 1.022-2.147 1.432-1.801 1.77-1.68 2.01-1.005 1.315-.859 1.375-.71 1.424-.556 1.456-2.223 6.9-.075.239-.101.319-2.446 7.97-.305 1.001-.297.999-.294 1.004-.285 1.001-.793 2.81-.797 2.701-.862 2.693-.932 2.688-.995 2.675-.942 2.374-.995 2.364-1.045 2.353-1.097 2.342-.653 1.361-.955 1.94-.994 1.93-1.032 1.919-1.07 1.906-1.03 1.795-1.206 2.035-1.27 2.013-1.328 1.989-1.39 1.963-1.988 2.626-2.094 2.569-2.197 2.509-2.297 2.446-1.749 1.756-1.803 1.718-1.85 1.678-1.898 1.638-3.884 3.266-.679.581-.673.59-.663.598-.651.605-4.013 3.78-1.516 1.547-1.37 1.641-1.211 1.722-1.042 1.787-.131.248-1.215 2.77-.774 2.832-.319 2.837.149 2.781.393 1.941.631 1.862.86 1.763 1.082 1.644 2.262 3.01.609.856.555.886.507.914.453.94.888 1.988.805 2.382.347 2.525-.118 2.605-.584 2.624-.837 2.178-1.143 2.108-1.428 2.002-1.687 1.86-2.424 2.387-1.143 1.079-1.194 1.036-1.242.991-1.285.944-3.527 2.48-1.813 1.166-1.915 1.016-1.987.854-2.049.684-.482.139-3.169.683-3.172.226-3.082-.238-2.916-.692-2.028-.81-1.858-1.044-1.656-1.262-1.426-1.461-3.631-4.317-.151-.179-3.428-3.98-1.552-1.659-1.689-1.547-1.824-1.427-1.95-1.299-1.365-.838-1.729-.963-1.831-.827-1.923-.688-2.003-.544-1.784-.412-2.366-.401-2.447-.135-2.499.133-2.513.399-3.025.839-2.923 1.208-2.756 1.55-2.524 1.858-2.966 2.477-.608.518-.592.527-.584.538-.57.549-.999.982-3.199 2.956-3.402 2.779-3.581 2.586-3.746 2.381-1.358.81-.651.395-.637.407-.631.42-.62.433-4.315 3.075-1.91 1.572-1.633 1.79-1.307 1.959-.947 2.071-.42 1.163-.517 2.174.012 2.146.537 2.021 1.042 1.803.727.947 1.354 1.31 1.738.926 2.012.484 2.167.014 2.681-.623 2.473-1.274 2.041-1.809 1.428-2.18 1.653-3.545.125-.257.17-.34 2.632-4.955 1.34-2.17 1.63-2.037 1.9-1.869 2.128-1.665 2.498-1.527 2.67-1.227 2.783-.9 2.838-.555.822-.109 2.283-.202 2.258.002 2.207.207 2.137.409 2.223.541 2.004.556 1.937.678 1.863.795 1.778.91 2.418 1.347 1.552.904 1.506.956 1.459 1.008 1.407 1.058 4.215 3.301.511.392.522.38.53.372.541.36 3.716 2.42 1.959 1.084 2.146.828 2.295.556 2.405.277 2.758-.027 2.788-.378 2.762-.721 2.678-1.049 1.567-.724 1.831-.916 1.765-1.03 1.687-1.139 1.599-1.238 3.815-3.16 1.101-.877 1.139-.839 1.172-.799 1.205-.756 2.436-1.468 2.572-1.36 2.703-1.064 2.787-.752 2.816-.422 2.61-.091 2.551.203 2.444.494 2.305.778 1.034.426 1.948.921 1.812 1.095 1.658 1.257 1.487 1.411.965 1.024 1.391 1.611 1.231 1.718 1.069 1.814.898 1.901.557 1.332.719 1.893.596 1.941.474 1.981.344 2.02.244 1.752.236 2.008.148 2.028.064 2.042-.025 2.056-.062 2.001-.093 2.02-.149 2.025-.205 2.03-.258 2.032-.275 1.942-.318 2.124-.361 2.125-.402 2.125-.441 2.124-.365 1.677-.493 2.167-.536 2.165-.577 2.162-.619 2.16-.489 1.647-.658 2.12-.715 2.114-.772 2.107-.823 2.096-.599 1.471-.935 2.188-1.016 2.171-1.092 2.15-1.168 2.129-.656 1.152-1.269 2.124-1.365 2.088-1.46 2.048-1.547 2.005-.842 1.048-1.625 1.927-1.731 1.863-1.826 1.794-1.921 1.719-1.081.923-2.01 1.622-2.111 1.513-2.203 1.398-2.282 1.276-1.221.638-2.366 1.132-2.436.963-2.486.786-2.522.603-1.216.244-2.531.393-2.52.157-2.485-.078-2.414-.315-.926-.169-2.345-.579-2.192-.854-2.001-1.114-1.776-1.357-.228-.2-1.622-1.714-1.277-1.948-.903-2.139-.512-2.285-.106-2.341.283-2.384.672-2.38 1.044-2.324 1.378-2.571.697-1.224.759-1.201.823-1.175.884-1.147 2.13-2.638 1.576-2.044 1.462-2.097 1.351-2.143 1.232-2.185.185-.35 1.24-2.508 1.068-2.546.897-2.575.716-2.593.164-.671.447-2.156.304-2.156.16-2.148.012-2.131-.035-1.242-.169-2.232-.378-2.184-.584-2.121-.788-2.044-1.209-2.343-1.483-2.19-1.746-2.018-2.065-1.889-1.832-1.379-1.887-1.18-2.005-1.037-2.115-.887-4.747-1.777-.473-.18-.473-.184-.47-.186-.467-.191-1.929-.796-3.405-1.532-3.257-1.728-3.095-1.918-2.929-2.1-1.369-1.056-.497-.375-.514-.36-.523-.349-.539-.334-3.291-1.989-2.306-1.113-2.557-.712-2.734-.287-2.828.144-2.743.547-2.679.935-2.53 1.293-2.316 1.617-2.155 1.74-1.157 1.009-1.065 1.084-.962 1.15-.853 1.205-2.355 3.645-.793 1.596-.367 1.655.076 1.623.52 1.499 1.569 1.865 2.323 1.14 2.774.267 2.86-.64 2.237-.865 3.106-1.259 3.903-1.29 3.99-.745 3.974-.182 3.85.386 1.215.248 1.187.308 1.156.366 1.123.422 6.458 2.637.606.242.61.234.613.227.622.219 5.27 1.816 1.77.71 1.656.87 1.529 1.02 1.383 1.161 1.846 2.075 1.419 2.349.966 2.568.486 2.73.069.786.067 1.556-.064 1.575-.195 1.585-.325 1.586-1.06 4.285-.403 1.365-.529 1.35-.653 1.323-.769 1.288-1.873 2.866-1.293 1.629-1.608 1.414-1.851 1.139-2.023.819-2.406.498-2.385.006-2.23-.487-1.957-.953-2.27-1.494-1.012-.738-.918-.824-.818-.904-.711-.977-2.569-3.945-.762-1.113-.815-1.08-.865-1.047-.913-1.01-2.05-2.165-1.496-1.414-1.67-1.257-1.829-1.089-1.968-.911-.886-.356-2.349-.772-2.491-.485-2.591-.189-2.653.109-2.844.442-2.812.771-2.726 1.085-2.628 1.4-2.297 1.555-2.071 1.743-1.844 1.925-1.592 2.075-.497.733-1.268 2.072-1.04 2.141-.8 2.189-.552 2.214-.35 1.822-.303 1.927-.164 1.921-.028 1.906.113 1.885.392 4.056.116 1.069.136 1.065.157 1.06.18 1.054.687 3.792.341 1.942.311 1.95.285 1.956.261 1.962.111.895.295 2.544.246 2.555.196 2.565.147 2.574.042.862.079 2.023.042 2.029.006 2.035-.029 2.039-.058 2.367-.067 1.859-.118 1.865-.165 1.869-.218 1.873-.314 2.468-.305 2.012-.393 2.012-.48 2.009-.573 2.004-.601 1.952-.716 2.089-.853 2.066-.992 2.038-1.119 1.999-.756 1.261-1.384 2.111-1.566 2.026-1.74 1.929-1.898 1.815-.681.605-2.122 1.731-2.285 1.557-2.417 1.366-2.527 1.161-.324.133-2.782.989-2.839.715-2.867.432-2.849.142-2.793-.149-2.701-.438-2.576-.72-2.412-.994-.238-.115-2.138-1.192-1.944-1.405-1.729-1.605-1.492-1.786-.399-.542-1.212-1.857-1.002-1.972-.779-2.072-.554-2.155-.193-.952-.338-2.174-.155-2.216.032-2.246.215-2.264.208-1.529.339-2.067.451-2.066.565-2.061.673-2.05.722-2.022.754-2.002.821-1.988.892-1.976.96-1.958.781-1.535 1.156-2.199 1.218-2.181 1.275-2.161 1.337-2.14.659-1.03 1.376-2.098 1.419-2.079 1.465-2.06 1.511-2.039 1.956-2.592.95-1.248.96-1.244.969-1.238.978-1.232 3.035-3.792 1.091-1.381 1.075-1.39 1.057-1.4 1.038-1.408 1.623-2.23 1.491-2.105 1.427-2.132 1.361-2.157 1.298-2.181.472-.82 1.25-2.249 1.162-2.272 1.081-2.294.992-2.314.454-1.107.831-2.154.734-2.168.641-2.179.542-2.185.458-2.031.372-1.91.257-1.908.141-1.902.027-1.889-.021-1.177-.177-2.511-.436-2.451-.688-2.372-.941-2.273-.493-1.031-.852-1.558-1.008-1.468-1.162-1.367-1.311-1.255-1.246-1.085-1.851-1.357-2.096-1.08-2.299-.778-2.456-.463-2.739-.135-2.796.238-2.792.607-2.733.965-2.457 1.213-2.277 1.475-2.067 1.714-1.813 1.918-1.007 1.21-1.257 1.636-1.105 1.704-.947 1.76-.776 1.802-2.212 5.819-.105.278-.104.279-.102.278-.101.279-1.637 4.597-.943 2.475-1.064 2.455-1.179 2.428-1.291 2.396-1.438 2.421-1.554 2.379-1.665 2.332-1.771 2.279-.951 1.172-1.339 1.615-1.382 1.592-1.423 1.565-1.464 1.539-3.39 3.488-.908.929-.916.923-.921.918-.928.913-4.749 4.643-.904.881-.91.879-.91.876-.917.873-3.129 2.972-1.805 1.693-1.833 1.673-1.858 1.652-1.882 1.631-.673.576-2.299 1.93-2.335 1.891-2.376 1.855-2.412 1.815-.322.238-2.233 1.621-2.265 1.585-2.295 1.547-2.322 1.51-1.213.773-2.14 1.335-2.165 1.292-2.195 1.251-2.219 1.208-1.65.876-2.282 1.172-2.314 1.109-2.342 1.046-2.369.98-1.763.702-2.333.879-2.361.791-2.382.701-2.399.609-1.423.334-2.657.549-2.665.404-2.662.258-2.648.111-.36.005-2.853-.053-2.807-.238-2.746-.424-2.778-.633-2.54-.765-2.337-.9-2.229-1.056-2.11-1.208-.555-.347-1.906-1.315-1.757-1.461-1.595-1.598-1.425-1.727-.445-.595-1.225-1.844-1.007-1.964-.779-2.067-.547-2.152-.079-.405-.308-2.353-.015-2.409.277-2.438.568-2.44.867-2.456 1.151-2.402 1.42-2.321 1.675-2.212.318-.382 1.729-1.911 1.894-1.793 2.045-1.66 2.18-1.514 1.528-.979 2.017-1.225 2.078-1.128 2.132-1.026 2.178-.921 3.703-1.462 1.55-.595 1.559-.565 1.568-.536 1.577-.507 6.633-2.061.844-.265.843-.27.841-.274.841-.278 5.653-1.89 2.023-.712 2.003-.773 1.983-.837 1.955-.896 2.325-1.109 2.271-1.159 2.199-1.279 2.121-1.393 2.031-1.501 1.04-.815 2.04-1.721 1.886-1.851 1.717-1.965 1.533-2.064.265-.39 1.42-2.312 1.158-2.389.89-2.443.61-2.471.326-2.506.028-2.48-.271-2.426-.567-2.347-.146-.469-.749-2.031-.955-1.939-1.157-1.832-1.351-1.711-1.12-1.28-1.292-1.382-1.386-1.307-1.475-1.229-1.56-1.146-2.868-1.974-1.193-.802-1.218-.776-1.239-.752-1.26-.726-3.213-1.799-1.679-.926-1.691-.907-1.711-.886-1.727-.865-1.999-.989-1.999-.961-2.029-.922-2.055-.883-2.143-.869-2.902-1.098-2.887-.997-2.929-.923-2.97-.848-2.302-.597-2.323-.553-2.345-.507-2.363-.462-2.26-.418-1.978-.347-1.991-.313-2.004-.279-2.015-.244-2.195-.247-2.502-.241-2.524-.166-2.543-.09-2.558-.013-3.211.089-3.225.209-3.234.327-3.238.444-4.313.67-.449.07-.449.072-.449.073-.449.074-3.983.667-3.406.541-3.406.481-3.406.423-3.404.363-2.438.224-2.436.193-2.432.163-2.43.132-4.402.212-1.189.055-1.188.051-1.187.048-1.187.043-5.974.21-1.635.064-1.637.076-1.639.089-1.64.101-3.061.199-2.659.199-2.662.25-2.665.301-2.666.352-3.18.485-3.178.558-3.174.628-3.166.7-.423.098-2.438.586-2.433.626-2.426.665-2.418.703-3.426 1.025-1.626.492-1.624.502-1.621.512-1.619.523-6.803 2.218-.703.229-.702.231-1.405.464-6.635 2.2-1.693.566-1.692.575-1.689.584-1.686.592-2.028.718-2.976 1.074-2.965 1.11-2.953 1.144-2.941 1.181-2.65 1.098-2.638 1.127-2.627 1.155-2.614 1.184-4.243 1.947-.763.348-.764.344-.767.34-.768.336-5.697 2.473-1.933.803-1.956.739-1.976.675-1.992.609-2.786.802-2.361.603-2.378.454-2.382.302-2.372.149-1.521.046-2.579-.041-2.515-.282-2.425-.517-2.308-.749-.377-.146-2.342-1.077-2.127-1.345-1.878-1.592-1.608-1.821-1.28-1.969-.9711-2.122-.6527-2.251-.3313-2.447.005-2.47.3458-2.4.6757-2.392.9945-2.348 1.365-2.371 1.676-2.245 1.959-2.082 2.254-1.92 2.294-1.588 2.401-1.339 2.52-1.105 2.603-.857 1.786-.493 2.078-.511 2.09-.388 2.092-.263 2.085-.137 5.563-.197.909-.027.907-.016.905-.006.903.004 4.721.05 2.503.01 2.511-.024 2.515-.056 2.52-.089 1.681-.071 2.448-.124 2.452-.166 2.456-.207 2.459-.249 2.262-.248 2.251-.273 2.251-.325 2.25-.376 2.247-.428 2.474-.5 2.333-.514 2.321-.599 2.306-.68 2.287-.763 1.717-.606 2.485-.948 2.437-1.076 2.379-1.197 2.312-1.315.779-.47 2.366-1.53 2.253-1.669 2.126-1.797 2.063-1.993 1.996-2.206 1.734-2.233 1.534-2.325 1.326-2.399 1.092-2.419.872-2.458.646-2.482.416-2.489.042-.339.186-2.361-.012-2.336-.21-2.301-.408-2.253-.231-1.016-.525-2.001-.655-1.954-.783-1.902-.908-1.844-1.366-2.555-.666-1.208-.698-1.189-.73-1.171-.761-1.153-2.447-3.606-.752-1.137-.722-1.157-.69-1.175-.66-1.19-1.182-2.198-1.008-2.037-.87-2.101-.728-2.157-.586-2.21-.488-2.55-.301-2.6-.113-2.636.075-2.664.06-.948.162-1.914.244-1.919.325-1.921.406-1.922 1.412-6.084.133-.574 1.366-6.027.417-1.991.35-1.989.282-1.988.214-1.988.169-1.858.14-2.176.021-2.162-.095-2.143-.213-2.12-.163-1.262-.358-2.144-.515-2.096-.671-2.045-.824-1.98-.408-.884-1.016-1.949-1.201-1.848-1.379-1.736-1.549-1.612-.568-.539-1.737-1.478-1.913-1.309-2.072-1.125-2.214-.935-.533-.195-2.417-.744-2.537-.499-2.626-.249-2.79.009-2.915.275-2.809.549-2.771.818-2.697 1.076-2.601 1.329-2.459 1.556-2.284 1.768-2.08 1.954-.407.42-1.709 1.924-1.519 2.028-1.313 2.116-1.097 2.184-.566 1.27-.855 2.112-.692 2.135-.527 2.147-.358 2.154-.274 2.157-.196 1.877-.108 1.869-.022 1.859.066 1.847.298 5.031.042.663.047.662.051.661.056.661.475 5.343.127 1.664.09 1.674.05 1.679.011 1.685-.013 2.555-.059 2.108-.157 2.118-.253 2.125-.349 2.129-.25 1.336-.508 2.324-.654 2.315-.797 2.302-.938 2.279-.426.959-1.075 2.215-1.233 2.171-1.386 2.115-1.532 2.051-.731.919-1.676 1.958-1.834 1.852-1.979 1.74-2.111 1.608-1.057.751-2.198 1.43-2.318 1.249-2.412 1.056-2.484.852-1.121.334-2.593.63-2.611.351-2.588.063-2.525-.221-.598-.09-2.52-.55-2.342-.882-2.115-1.194-1.844-1.481-1.588-1.813-1.217-2.051-.8174-2.239-.4044-2.447 5e-4-2.341.3605-2.299.7085-2.286 1.043-2.232 1.047-1.902.9163-1.544 1.026-1.5 1.13-1.456 1.229-1.396 3.31-3.546 1.018-1.117.986-1.137.955-1.155.923-1.171 1.959-2.553 1.505-2.109 1.333-2.178 1.152-2.236.965-2.282.256-.675.766-2.346.533-2.36.296-2.36.057-2.342-.021-.787-.188-2.191-.442-2.124-.691-2.043-.934-1.937-.29-.517-1.271-1.923-1.552-1.736-1.811-1.523-2.044-1.288-2.312-1.064-2.491-.78-2.633-.486-2.735-.184-1.745-.021-1.889.032-1.903.139-1.908.247-1.906.35-4.762 1.009-1.529.305-1.532.264-1.533.224-1.532.184-3.289.353-2.583.185-2.557-.006-2.513-.193-2.452-.381-.9057-.177-2.38-.587-2.263-.803-2.124-1.01-1.965-1.207-.7322-.508-1.717-1.364-1.494-1.558-1.25-1.728-.9898-1.876-.2847-.647-.7079-2.06-.3625-2.171-.0106-2.244.3419-2.273.7692-2.469 1.165-2.401 1.536-2.278 1.872-2.105.4513-.445 1.73-1.556 1.886-1.408 2.018-1.241 2.126-1.059 6.132-2.724.34-.152.452-.207 5.745-2.66 2.274-1.173 2.157-1.361 2.015-1.533 1.851-1.688 2.021-2.259 1.708-2.425 1.366-2.551.9993-2.635.6819-2.235.3306-1.176.2775-1.178.2241-1.178.1696-1.179.3079-2.541.4437-2.583.7023-2.575.9559-2.547 1.202-2.498 1.344-2.282 1.543-2.206 1.731-2.112 1.907-2.004.5947-.581 1.915-1.745 2.051-1.616 2.173-1.481 2.278-1.335 2.886-1.406 2.989-1.163 3.059-.907 3.221-.658 2.57-.335 2.439-.148 2.415.017 2.375.182 5.939.672.407.045.545.057 5.556.546 2.632.179 2.666.03 2.692-.121 2.704-.276 3.047-.485 3.034-.676 3.005-.86 3.065-1.077 2.606-1.073 2.453-1.153 2.392-1.271 2.324-1.384 1.022-.643 2.227-1.461 2.159-1.544 2.088-1.624 2.011-1.7 2.766-2.433 1.074-.958 1.059-.968 1.045-.983 1.029-.995 2.581-2.525 1.916-1.826 1.973-1.776 2.027-1.731 2.08-1.679 2.598-1.974 2.67-1.897 2.736-1.812 2.798-1.727.794-.474 1.954-1.139 1.978-1.1 2-1.064 2.02-1.026 2.758-1.367 2.005-.982 2.016-.958 2.026-.935 2.037-.911 4.194-1.847 1.387-.62 1.381-.633 1.376-.643 1.37-.659 1.604-.778 3.228-1.621 3.181-1.706 3.131-1.789 3.078-1.873.494-.309 1.787-1.143 1.764-1.177 1.739-1.205 1.714-1.235 1.123-.823 2.508-1.908 2.433-1.986 2.354-2.057 2.271-2.127 1.948-1.95 1.876-2 1.803-2.045 1.726-2.093.442-.552 1.645-2.12 1.575-2.156 1.503-2.188 1.43-2.218 2.157-3.46.501-.814.489-.816.477-.825.465-.824.998-1.798 1.826-3.064 2.035-2.985 2.233-2.892 2.423-2.786 1.059-1.151.876-.982.838-1.004.801-1.025.761-1.045 1.611-2.296 1.462-2.344 1.156-2.44.834-2.497.5-2.519.477-2.432.788-2.412 1.088-2.357 1.375-2.276 2.28-3.355.518-.746.536-.737.552-.731.569-.721 3.32-4.123 1.284-1.723 1.128-1.785.97-1.841.799-1.882.139-.366.858-2.851.433-2.866.001-2.829-.428-2.746-.589-1.938-.814-1.848-1.03-1.74-1.237-1.615-1.424-1.647-1.211-1.31-1.305-1.236-1.394-1.158-1.478-1.077-3.554-2.42-.948-.634-.962-.617-.976-.604-.989-.588-5.225-3.043-.885-.512-.889-.51-.891-.506-.894-.504-6.978-3.903-.25-.141-.333-.186-7.304-4.067-.78-.437-.779-.438-.776-.441-.775-.44-4.412-2.524-1.529-.891-1.513-.909-1.497-.926-1.479-.947-1.521-.989-2.063-1.381-2.014-1.431-1.965-1.482-1.915-1.531-1.568-1.293-1.217-1.033-1.179-1.064-1.141-1.099-1.103-1.128-2.243-2.372-1.171-1.325-1.071-1.394-.968-1.46-.86-1.517-1.016-1.95-.822-1.853-.588-1.947-.346-2.024-.102-2.076.005-.505.231-2.614.638-2.618 1.033-2.575 1.408-2.481 1.521-2.059 1.766-1.923 1.986-1.758 2.177-1.566 1.164-.752 2.119-1.264 2.209-1.112 2.282-.948 2.336-.782 1.886-.557 2.39-.635 2.408-.508 2.415-.375 2.413-.24 2.583-.187 2.089-.118 2.081-.05 2.069.013 2.055.082 5.239.295 1.027.061 1.026.067 1.024.077 1.022.083 5.941.506 1.674.132 1.679.11 1.685.084 1.69.061 4.045.059 4.07-.074 4.088-.203 4.099-.332 3.418-.331 7.36-.736 2.101-.1 2.059.117 1.989.337 1.891.551.722.258 2.331 1.09 1.995 1.479 1.593 1.822 1.14 2.099.582 1.956.214 2.058-.159 2.116-.533 2.124-.663 1.956-.668 1.718-.831 1.682-.983 1.634-1.132 1.575-4.108 5.265-.25.323-.249.323-.243.324-.244.324-3.044 4.105-1.558 2.232-1.407 2.29-1.251 2.34-1.091 2.384-.977 2.566-.788 2.59-.594 2.606-.394 2.604-.056.469-.186 2.229-.053 2.211.082 2.195.214 2.168.135 1.02.356 2.236.472 2.202.588 2.166.706 2.124 1.243 3.432.293.778.308.769.325.761.339.756 1.835 3.943.702 1.754.518 1.823.323 1.881.131 1.928-.161 2.885-.58 2.901-.99 2.875-1.383 2.796-.747 1.307-.751 1.246-.811 1.22-.871 1.194-.928 1.168-4.149 4.993-.64.809-.59.83-.541.852-.492.871-1.994 3.767-.769 1.965-.249 1.997.279 1.921.796 1.737 1.345 1.528 1.788 1.132 2.12.667 2.331.161 3.526-.142 1.025-.07 1.029-.125 1.031-.183 1.022-.238 7.834-2.03.854-.232.847-.248.845-.268.841-.287 5.113-1.805 2.17-.915 2.044-1.163 1.878-1.39 1.725-1.647 1.915-2.47 1.318-2.608.725-2.706.105-2.693-.32-1.884-.645-1.778-.955-1.631-1.244-1.447-2.671-2.604-.744-.762-.702-.799-.661-.828-.612-.858-1.986-2.944-1.132-1.742-1.061-1.785-.99-1.822-.921-1.857-1.906-4.043-.258-.538-.268-.534-.273-.532-.282-.528-2.144-3.95-.874-1.825-.688-1.909-.498-1.978-.297-2.033-.088-2.87.285-2.913.663-2.918 1.025-2.887.379-.899.751-1.648.848-1.622.949-1.592 1.04-1.554 2.196-3.101 1.075-1.571 1.016-1.593.965-1.613.906-1.639 1.605-3.264 1.367-3.315 1.125-3.352.877-3.376.349-1.725.287-1.727.216-1.723.153-1.721.302-4.389.103-1.196.143-1.197.189-1.198.226-1.199.386-1.857.769-2.921 1.085-2.886 1.389-2.821 1.68-2.732 1.394-1.914 1.531-1.839 1.662-1.759 1.783-1.669 2.172-1.916 1.465-1.345 1.402-1.399 1.329-1.445 1.289-1.531 2.203-2.978 1.875-3.056 1.563-3.157 1.237-3.225.537-1.793.435-1.8.331-1.803.224-1.801.635-6.634.676-6.892.202-1.672.282-1.676.359-1.673.437-1.671.779-2.735.682-2.044.869-2.016 1.05-1.971 1.226-1.91.748-1.075 1.664-2.126 1.921-1.972 2.144-1.788 2.34-1.576 2.703-1.438 2.84-1.138 2.926-.819 2.963-.486 1.525-.164 2.016-.151 1.997-.024 1.973.105 1.938.23 5.062.778 1.072.175 1.065.191 1.06.208 1.052.227 5.385 1.201 1.655.362 1.663.347 1.671.333 1.675.317 1.943.357 2.839.491 2.859.436 2.88.378 2.897.319 2.732.245 2.747.197 2.757.146 2.773.092 4.57.112.682.019.676.026.677.033.678.036 5.75.346 2.114.198 2.063.337 2.009.473 1.937.608 1.166.415 2.4 1.017 2.198 1.28 1.969 1.525 1.711 1.747 1.387 1.879 1.108 2.04.815 2.178.526 2.392.223 2.461-.093 2.401-.387 2.419-.714 2.508-1.002 2.493-1.237 2.332-1.488 2.246-1.727 2.13-.956 1.074-1.501 1.595-1.605 1.518-1.698 1.441-1.785 1.352-4.601 3.288-.721.51-.724.505-.731.497-.737.49-5.488 3.621-1.518 1.033-1.482 1.076-1.446 1.115-1.404 1.155-2.386 2.02-1.853 1.681-1.714 1.787-1.566 1.88-1.463 2.047-1.576 2.647-1.229 2.646-.925 2.701-.607 2.724-.26 2.23-.041 2.21.178 2.175.397 2.123.423 1.761.475 1.738.582 1.702.682 1.66.788 1.611 1.615 3.06.653 1.201.681 1.185.71 1.169.741 1.152 3.007 4.566.446.686.441.692.435.695.424.698 2.382 3.949.881 1.552.801 1.591.721 1.632.641 1.664.113.318.854 2.789.619 2.866.372 2.932.133 2.981-.048 1.992-.154 2-.263 2.01-.364 2.01-.732 3.507-.25 1.356-.184 1.355-.116 1.352-.048 1.345-.032 2.895.125 2.17.419 2.098.707 2.002.989 1.876.387.621 1.311 1.75 1.607 1.531 1.877 1.279 2.107 1.008.798.309 2.149.648 2.294.329 2.382.001 2.541-.352 2.856-.8 2.604-1.189 2.38-1.561 2.078-1.877 1.469-1.789 1.162-1.922.833-2.013.479-2.054.83-5.72.035-.226.962-5.027 1.307-4.875 1.67-4.839 2.023-4.781 2.359-5.119 1.134-2.612 1.001-2.635.866-2.656.731-2.667.544-2.421.43-2.423.318-2.42.203-2.413.174-2.931.065-1.214.045-1.212.03-1.21.009-1.205v-4.735l.009-1.498.026-1.501.044-1.503.059-1.505.178-3.848.098-1.668.146-1.674.19-1.674.235-1.676.528-3.428.313-1.729.408-1.729.501-1.723.594-1.713 1.104-2.938.776-1.806.958-1.764 1.129-1.705 1.29-1.628 1.452-1.681 1.665-1.688 1.903-1.482 2.091-1.246 2.236-.977.297-.109 2.708-.757 2.746-.317 2.681.131 2.523.58 2.039.869 1.786 1.183 1.491 1.458 1.149 1.699.626 1.163.763 1.7.518 1.801.267 1.874.006 1.925-.141 2.308-.193 1.884-.344 1.889-.491 1.883-.64 1.87-1.044 2.728-.724 1.788-.8 1.773-.876 1.755-.951 1.732-2.795 4.886-.392.678-.395.675-.401.677-.405.672-1.094 1.81-1.931 3.235-1.886 3.25-1.839 3.266-1.794 3.279-.893 1.657-.422.783-.422.777-.425.781-.428.779-3.731 6.768-.398.717-.398.716-.4.718-.401.715-3.619 6.437-.519.935-.504.939-.492.94-.48.947-2.1 4.206-.884 1.897-.773 1.919-.661 1.936-.545 1.947-.247.992-.522 2.579-.275 2.574-.025 2.55.221 2.507.434 2.319.654 2.249.867 2.168 1.076 2.072 1.099 1.879.749 1.186.838 1.136.921 1.077 1 1.019 3.413 3.234.93.748 1.063.604 1.176.451 1.265.288 1.993.314 2.285.005 2.283-.656 2.029-1.245 1.561-1.703.731-1.411.353-1.471-.046-1.445-.445-1.34-2.364-4.663-.258-.485-.277-.473-.3-.461-.319-.449-2.511-3.389-1.237-1.869-1.033-1.982-.812-2.084-.594-2.165-.398-2.522-.105-2.584.185-2.623.475-2.635.154-.652.56-2.052.715-2.038.866-2.015 1.008-1.976.369-.665 1.497-2.499 1.693-2.422 1.877-2.331 2.051-2.228.605-.618 1.653-1.613 1.728-1.551 1.801-1.484 1.869-1.415 2.44-1.769 1.699-1.257 1.662-1.294 1.63-1.33 1.595-1.361 1.445-1.263 2.129-1.902 2.084-1.943 2.03-1.982 1.982-2.017 1.938-2.016 1.123-1.179 1.113-1.19 1.1-1.195 1.088-1.205 3.563-3.971 1.022-1.144 1.018-1.147 1.015-1.15 1.009-1.151 2.894-3.309 1.366-1.569 1.36-1.574 1.354-1.579 1.347-1.583 1.609-1.899 1.592-1.892 1.577-1.897 1.567-1.908 1.548-1.914.48-.594 1.823-2.285 1.802-2.296 1.777-2.307 1.758-2.318 1.683-2.264 1.664-2.276 1.642-2.285 1.621-2.295 3.313-4.732 4.076-5.831 1.242-1.743 1.282-1.725 1.316-1.707 1.351-1.688 2.319-2.755 2.413-2.697 2.504-2.64 2.62-2.599 1.605-1.524 1.606-1.47 1.635-1.449 1.664-1.421 3.517-2.959 1.107-.942 1.1-.953 1.087-.961 1.074-.971 2.477-2.257 2.016-1.9 1.949-1.952 1.877-2.001 1.802-2.049 1.922-2.344 1.823-2.397 1.722-2.443 1.616-2.488.988-1.587.896-1.466.87-1.477.838-1.485.811-1.492 2.326-4.38.669-1.209.711-1.195.755-1.178.797-1.162 2.326-3.278 1.361-1.741 1.533-1.639 1.694-1.519 1.833-1.384.374-.259 2.669-1.617 2.851-1.293 2.97-.937 3.024-.565 2.416-.174 2.374.074 2.305.322 2.201.566 3.04.972 1.392.484 1.358.539 1.316.598 1.272.658 5.475 2.992.592.323.583.33.583.332.581.335 7.211 4.223.3.176.303.178.3.178.3.176 5.859 3.459 1.24.735 1.236.742 1.227.752 1.224.754 3.643 2.256 1.346.85 1.329.865 1.315.884 1.299.899 3.033 2.134 1.36.989 1.318 1.028 1.278 1.069 1.235 1.103 2.463 2.277 1.182 1.17 1.09 1.242.994 1.308.896 1.37 1.416 2.341.823 1.61.595 1.709.36 1.787.118 1.846v.514l-.263 2.618-.765 2.613-1.25 2.53-1.695 2.374-1.69 1.783-1.92 1.592-2.119 1.374-2.271 1.127-2.639 1.127-1.795.707-1.827.605-1.851.497-1.865.388-4.304.763-1.802.296-1.803.249-1.802.197-1.797.15-3.541.247-2.255.136-2.255.101-2.247.059-2.241.021-1.839.001-2.61-.018-2.604-.055-2.592-.095-2.587-.13-4.397-.256-.925-.05-.924-.039-.929-.028-.932-.02-4.212-.062-2.697.035-2.718.179-2.727.329-2.729.474-3.034.701-3.007.879-2.963 1.049-2.905 1.217-.639.29-2.248 1.071-2.203 1.159-2.15 1.247-2.097 1.328-2.013 1.332-1.906 1.297-1.866 1.342-1.831 1.384-1.788 1.428-2.613 2.143-1.517 1.262-1.501 1.278-1.478 1.295-1.462 1.314-3.244 2.952-1.298 1.187-1.29 1.192-1.284 1.202-1.272 1.204-2.524 2.4-1.746 1.651-1.755 1.646-1.768 1.638-1.774 1.629-2.596 2.355-2.615 2.339-2.638 2.321-2.653 2.303-2.852 2.461-.408.35-.814.704-.405.352-7.556 6.564-.297.256-.296.258-.299.26-.297.256-6.653 5.745-.867.753-.861.757-.857.759-.854.766-3.189 2.872-1.973 1.741-2.018 1.699-2.057 1.661-2.099 1.618-2.676 1.965-2.735 1.895-2.789 1.822-2.842 1.754-2.584 1.547-1.008.593-1.015.582-1.025.567-1.035.553-4.277 2.253-2.119 1.193-2.042 1.307-1.959 1.417-1.86 1.517-.649.559-2.192 2.065-1.981 2.213-1.748 2.344-1.498 2.448-.564 1.031-.9 1.826-.712 1.861-.523 1.887-.326 1.893-.316 2.619-.063 1.812.251 1.758.56 1.657.858 1.526 1.928 2.067 2.518 1.515 2.96.879 3.231.19.372-.02 1.732-.175 1.73-.353 1.702-.531 1.647-.695 6.141-2.952.651-.317.647-.327.64-.336.637-.343 5.539-3.046 1.882-1.045 1.875-1.062 1.863-1.075 1.855-1.088 2.491-1.477 2.102-1.225 2.119-1.193 2.137-1.165 2.157-1.135 1.094-.565 2.666-1.341 2.696-1.287 2.723-1.226 2.749-1.168 2.829-1.133 2.852-1.066 2.872-1.005 2.889-.939.46-.144 2.614-.792 2.623-.743 2.631-.69 2.641-.643 3.427-.801 1.456-.348 1.454-.374 1.45-.393 1.445-.412.473-.139 4.046-1.283 3.999-1.452 3.941-1.62 3.873-1.783 1.569-.778 1.552-.803 1.541-.831 1.524-.856 3.961-2.268 1.748-.975 1.77-.934 1.794-.89 1.813-.851 1.234-.558 3.072-1.31 3.124-1.157 3.166-1.008 3.2-.849 2.561-.565 2.572-.463 2.573-.358 2.572-.259 2.874-.229 1.81-.128 1.811-.094 1.804-.061 1.798-.028 1.481-.008 3.221.042 3.196.169 3.159.297 3.115.422 2.403.416 2.367.492 2.337.565 2.297.641 5.407 1.604.347.105.463.138 6.547 1.991 1.762.531 1.766.517 1.774.511 1.777.498 4.512 1.25 1.23.349 1.221.363 1.217.377 1.206.389 3.434 1.136 2.191.772 2.136.858 2.083.934 2.025 1.014.398.21 2.363 1.335 2.26 1.455 2.151 1.569 2.033 1.682 1.738 1.612 1.636 1.697 1.527 1.777 1.42 1.852.877 1.221 1.046 1.503.99 1.535.936 1.566.882 1.597 1.361 2.569.747 1.447.724 1.456.699 1.469.674 1.481 2.256 5.082.202.458.202.46.199.461.196.462 1.983 4.692.76 1.696.822 1.667.885 1.635.953 1.601 1.679 2.525 1.839 2.423 1.996 2.316 2.147 2.203 1.388 1.291 1.441 1.245 1.493 1.199 1.543 1.147 2.057 1.479 1.568 1.1 1.599 1.07 1.625 1.039 1.653 1.011 1.541.922 2.028 1.187 2.054 1.156 2.081 1.126 2.105 1.092 1.505.766 1.817.912 1.83.894 1.841.876 1.854.861 12.01 5.488 1.758.817 1.742.835 1.729.853 1.716.874 1.456.751 2.207 1.171 2.171 1.211 2.14 1.253 2.104 1.294 2.258 1.461 2.214 1.508 2.171 1.554 2.203 1.666 1.905 1.502 1.783 1.473 1.751 1.502 1.711 1.537.692.633 1.652 1.54 1.622 1.567 1.591 1.588 1.561 1.615.527.555 1.612 1.724 1.583 1.748 1.553 1.769 1.522 1.791.426.511 1.451 1.757 1.422 1.773 1.397 1.793 1.372 1.808.852 1.138 1.166 1.575 1.151 1.584 1.14 1.596 1.12 1.602 2.148 3.099.618.895.616.898.612.901.61.902 3.635 5.4.329.483.325.484.329.486.331.482 3.773 5.515.568.826.573.823.583.821.585.818 2.912 4.033.86 1.161.888 1.138.917 1.122.95 1.098 2.234 2.529 1.246 1.333 1.329 1.262 1.413 1.194 1.487 1.124 1.724 1.228 1.799 1.155 1.929 1.006 2.04.846 2.145.679.854.232 2.562.552 2.662.285 2.728.017 2.763-.252 2.79-.525 2.757-.787 2.687-1.044 2.588-1.282.599-.333 2.223-1.343 2.109-1.496 1.969-1.637 1.83-1.764.94-.988 1.69-1.87 1.54-1.949 1.39-2.02 1.25-2.079.65-1.172 1.11-2.146.98-2.181.84-2.206.71-2.223.32-1.094.59-2.302.48-2.305.36-2.304.23-2.302.08-.953.12-2.308.02-2.296-.08-2.284-.19-2.26-.1-.964-.27-2.216-.36-2.195-.44-2.175-.52-2.149-.32-1.222-.57-2.008-.61-1.99-.67-1.968-.73-1.944-.64-1.641-.73-1.812-.76-1.795-.79-1.783-.83-1.766-1.01-2.091-.78-1.617-.81-1.605-.82-1.599-.84-1.588-1.25-2.348-.85-1.566-.865-1.561-.875-1.55-.893-1.544-1.373-2.358-.899-1.523-.925-1.507-.95-1.492-.97-1.48-1.317-1.964-1.116-1.624-1.163-1.594-1.209-1.564-1.257-1.534-.845-1.009-1.526-1.741-1.599-1.684-1.675-1.627-1.744-1.568-2.077-1.711-2.165-1.63-2.246-1.545-2.329-1.456-.96-.569-1.617-.94-1.647-.903-1.676-.868-1.701-.834-6.106-2.9-2.442-1.11-2.555-1.816-1.541-2.583z"/>
  <path fill="#0f000a" stroke="#6a5fdb" stroke-width="2.722" d="m1198 322.1-1.581.871-1.645.927-1.017 1.456-.121 1.593.811 1.304 1.84 1.548.541.562.401.653.247.726.089.772.046 5.705-.055 1.108-.182 1.116-.306 1.111-.429 1.097-1.545 3.447-1.104 1.73-1.602 1.44-1.95 1.019-2.121.5-2.022-.046-1.826-.567-1.468-1.036-.989-1.419-1.704-3.742-.158-.366-.144-.372-.129-.38-.112-.384-.99-3.651-.893-2.319-1.35-2.096-1.773-1.808-2.145-1.474-1.961-.919-2.132-.654-2.261-.384-2.352-.101-5.687.098-.361.007-.363.01-.359.015-.363.015-1.002.051-4.895.129-4.852-.101-4.798-.334-4.728-.562-1.447-.21-.251-.035-2.743-.388-4.126-.55-4.146-.495-4.167-.436-4.18-.38-1.309-.112-.792-.067-.794-.072-1.581-.156-4.88-.506-2.385-.21-2.405-.143-2.424-.074-2.436-.006-3.305.102-3.322.226-3.329.351-3.333.475-.473.075-2.231.387-2.23.437-2.223.486-2.215.54-4.279 1.087-1.421.352-1.422.33-1.427.308-1.429.288-6.586 1.272-1.078.233-1.071.282-1.061.332-1.049.375-3.781 1.456-2.339 1.145-2.077 1.521-1.723 1.827-1.287 2.05-.744 1.996-.298 2.02.162 1.967.616 1.838 1.499 3.134.379.744.425.721.466.695.504.673 3.203 4.014.758 1.207.465 1.343.162 1.435-.151 1.483-.248 1.208-.779 2.01-1.429 1.796-1.936 1.404-2.25.87-1.731.246-1.684-.11-1.547-.454-1.323-.78-4.091-3.202-.385-.293-.4-.283-.41-.268-.421-.258-2.422-1.431-2.653-1.258-2.935-.808-3.132-.334-3.24.146-2.072.343-2.053.532-2.011.716-1.946.889-5.618 2.875-.559.289-.555.296-.552.301-.548.307-8.147 4.611-.595.347-.583.359-.575.373-.565.389-4.567 3.233-1.703 1.458-1.352 1.698-.936 1.86-.474 1.929v1.846l.457 1.741.888 1.556 1.284 1.3 2.468 1.948 1.061.757 1.144.667 1.217.574 1.285.473 7.055 2.264.271.087.273.086.273.083.274.084 7.879 2.368.948.321.91.379.868.437.823.495 2.785 1.812 1.579 1.401 1.043 1.774.435 2.023-.202 2.142-.439 1.319-.672 1.278-.882 1.196-1.068 1.088-3.019 2.674-1.495 1.542-1.204 1.706-.871 1.814-.515 1.874-.133 2.085.339 1.999.794 1.843 1.224 1.609 2.151 2.229.824.792.89.736.954.678 1.01.613 5.366 3.019.78.45.767.463.753.481.74.494 3.717 2.544 1.489 1.14 1.335 1.277 1.176 1.397 1.044 1.577 1.205 2.549.71 2.656.24 2.783-.232 2.849-.39 1.808-.577 1.796-.755 1.768-.926 1.728-3.563 5.989-.091.152-2.109 3.507-1.872 2.939-2.038 2.872-2.197 2.796-2.353 2.711-1.255 1.378-.804.861-.832.841-.86.821-.882.801-4.116 3.634-1.288 1.261-1.132 1.363-.955 1.448-.767 1.512-1.055 2.424-.542 1.791-.084 1.787.379 1.694.872 1.582 1.685 1.604 2.162.977 2.501.323 2.619-.352 2.117-.795 1.908-1.199 1.585-1.53 1.162-1.77 2.372-4.743.24-.499.224-.505.206-.505.191-.51 2.091-5.907.603-1.521.73-1.499.848-1.462.96-1.421 2.285-3.144 1.187-1.407 1.397-1.258 1.579-1.077 1.714-.87 3.116-.946 3.158-.211 2.968.539 2.566 1.248 1.649 1.133.767.571.709.626.646.677.581.725 3.399 4.616.644.896.618.915.595.926.57.939.249.424 1.653 3.059 1.419 3.168 1.183 3.272.941 3.361.303 1.351.268 1.363.228 1.374.189 1.381.333 2.735.22 2.16.129 2.178.039 2.191-.049 2.204-.192 2.825-.337 2.834-.481 2.838-.623 2.837-1.068 4.348-.039.164-1.26 5.27-.422 2.347-.141 2.334.139 2.294.42 2.23.784 2.364 1.11 2.22 1.42 2.051 1.712 1.856 1.584 1.494.92.914.864.956.812.996.752 1.033.542.784 1.524 2.608 1.119 2.803.7 2.953.269 3.067-.044 1.835-.197 1.85-.342 1.852-.493 1.85-1.405 4.588-.294.909-.333.902-.368.898-.399.89-1.845 3.903-1.121 1.976-1.44 1.849-1.718 1.672-1.955 1.456-.811.527-2.455 1.314-2.631.886-2.701.422-2.654-.063-2.48-.541-2.223-.995-1.864-1.407-1.434-1.758-.448-.722-.851-1.679-.536-1.809-.213-1.901.111-1.954.649-4.612.108-.688.126-.691.144-.687.161-.691.695-2.79.687-2.996.571-3 .456-2.997.338-2.991.102-1.107.13-1.519.104-1.519.077-1.513.054-1.514.05-1.94.102-2.564.172-2.57.243-2.575.31-2.58.368-2.497.433-2.498.494-2.5.563-2.497.643-2.709.287-1.231.276-1.231.267-1.231.258-1.23.831-4.063.356-1.827.323-1.826.288-1.825.252-1.824.533-4.097.135-1.207.097-1.208.053-1.201.015-1.198-.033-6.398-.036-.606-.103-.589-.166-.57-.229-.546-1.838-3.748-.978-1.078-1.501-.51-1.717.17-1.577.812-.482.435-.402.49-.314.532-.211.555-1.652 5.85-.497 1.518-.623 1.497-.749 1.473-.868 1.433-.208.314-1.979 2.649-2.331 2.444-2.638 2.201-2.902 1.915-1.856 1.085-1.085.612-1.103.58-1.117.546-1.134.514-5.565 2.415-1.581.697-1.576.719-1.562.734-1.556.754-5.467 2.694-1.108.549-1.104.555-1.104.558-1.098.565-5.857 3.021-1.309.69-1.296.713-1.284.736-1.268.757-3.75 2.284-1.908 1.238-1.83 1.329-1.745 1.421-1.649 1.505-1.134 1.094-1.835 1.936-1.623 2.057-1.399 2.163-1.155 2.241-.961 2.481-.653 2.517-.339 2.519-.016 2.492.165 2.822.076 1.006.11.999.145.992.177.98.452 2.252.386 2.661.107 2.722-.172 2.755-.454 2.773-.56 2.213-.733 2.198-.903 2.174-1.067 2.135-1.38 2.532-.814 1.445-.859 1.429-.906 1.411-.948 1.394-.315.447-2.182 2.944-2.353 2.855-2.514 2.761-2.668 2.659-1.508 1.393-1.549 1.359-1.588 1.322-1.629 1.286-2.946 2.269-1.565 1.236-1.53 1.266-1.498 1.304-1.459 1.333-2.728 2.681-2.575 2.786-2.415 2.882-2.248 2.975-2.138 2.986-.204.281-4.086 5.645-1.275 1.672-1.367 1.62-1.458 1.567-1.542 1.508-.914.855-2.26 1.95-2.421 1.789-2.566 1.614-2.689 1.424-2.596 1.147-2.665.963-2.717.774-2.742.576-2.808.487-1.63.259-1.627.212-1.625.165-1.624.117-4.379.253-1.988.136-1.992.175-1.991.215-1.996.256-3.376.465-2.129.335-2.125.415-2.119.496-2.106.574-3.538 1.034-1.817.593-1.778.705-1.737.814-1.681.917-1.782 1.044-2.358 1.589-2.109 1.848-1.812 2.066-1.47 2.234-1.12 2.415-.698 2.479-.256 2.482.188 2.425.058.339.551 2.122.886 1.993 1.206 1.827 1.507 1.627.401.368 1.87 1.485 2.112 1.232 2.318.961 2.488.674.298.06 2.61.383 2.691.098 2.739-.19 2.748-.475 1.719-.386 2.077-.529 2.052-.651 2.019-.768 1.977-.883 6.496-3.127.287-.137.381-.181 5.955-2.806 2.333-1.043 2.37-.949 2.406-.853 2.428-.755 1.256-.363 2.647-.688 2.668-.541 2.675-.392 2.669-.24.963-.06 2.585-.074 2.556.097 2.508.269 2.445.438 1.959.426 1.885.495 1.795.652 1.694.802 1.577.947 1.304.874 1.812 1.46 1.482 1.728 1.12 1.952.729 2.131.327 2.356-.127 2.435-.576 2.448-1.009 2.397-1.042 2.011-.725 1.3-.814 1.271-.896 1.235-.977 1.194-2.596 2.998-1.519 1.57-1.704 1.421-1.862 1.249-1.992 1.059-3.198 1.204-3.31.683-3.294.134-3.165-.416-2.32-.523-.918-.187-.93-.153-.945-.116-.956-.081-3.124-.204-3.148-.132-3.176.013-3.2.159-3.212.305-4.251.498-.475.055-.472.052-.475.051-.473.049-6.98.706-1.855.211-1.857.255-1.86.302-1.853.346-3.92.882-3.892 1.08-3.847 1.273-3.815 1.474-1.771.757-1.721.783-1.707.822-1.685.859-3.9 2.043-1.707.86-1.731.806-1.754.75-1.779.696-2.189.816-2.729.915-2.77.726-2.796.533-2.798.334-2.945.136-2.907-.089-2.846-.313-2.764-.536-1.19-.283-1.97-.522-1.918-.617-1.862-.71-1.798-.803-5.799-2.778-.154-.074-4.631-2.236-2.417-1.116-2.475-1.037-2.524-.959-2.577-.877-2.55-.777-2.592-.698-2.632-.62-2.667-.541-1.328-.248-2.104-.371-2.118-.332-2.132-.294-2.146-.253-.445-.048-3.233-.31-3.255-.23-3.276-.148-3.295-.069-3.811-.032-.529-.009-.527-.017-.526-.027-.523-.035-5.863-.441-2.053-.323-1.898-.644-1.686-.944-1.422-1.217-.863-.907-1.174-1.686-.604-1.959.005-2.109.614-2.128 1.285-2.144 1.844-1.857 2.271-1.437 2.534-.914 1.249-.3 1.977-.332 1.96-.046 1.889.242 1.765.523 2.283.892 2.045.66 2.16.429 2.245.191 2.299-.048 1.874-.137 2.453-.274 2.45-.463 2.428-.648 2.385-.829 5.486-2.133.455-.175.456-.173.46-.169.459-.167 3.444-1.236 3.475-1.185 3.506-1.068 3.533-.951 3.618-.847 2.237-.462 2.171-.4 2.169-.353 2.173-.306 4.507-.587 1.394-.206 1.396-.258 1.389-.307 1.384-.358 1.796-.496 3.341-1.119 3.218-1.471 3.036-1.796 2.801-2.092 1.657-1.485 1.53-1.582 1.393-1.669 1.242-1.742 1.593-2.423 1.131-1.644 1.218-1.608 1.292-1.566 1.369-1.523 2.634-2.606 2.844-2.432 3.037-2.241 3.209-2.034 1.308-.767 1.181-.673 1.197-.646 1.212-.615 1.229-.588 4.916-2.285 1.702-.875 1.617-1.005 1.524-1.124 1.409-1.235 2.918-2.351 3.305-1.877 3.564-1.324 3.679-.724 1.032-.115 1.201-.103 1.192-.046 1.185.016 1.169.074 3.721.332 2.592.108 2.63-.137 2.65-.378 2.632-.614 2.899-.965 2.804-1.242 2.667-1.501 2.497-1.741 2.248-1.737 1.032-.821 1.003-.85.977-.876.942-.901 4.122-4.051 1.185-1.149 1.198-1.14 1.214-1.122 1.229-1.113 2.736-2.445 1.785-1.586 1.803-1.571 1.813-1.559 1.832-1.547 4.791-4.017.296-.246.299-.25.299-.246 4.48-3.672 2.14-1.826 2.054-1.897 1.965-1.968 1.872-2.031.243-.276 1.792-2.124 1.679-2.182 1.564-2.24 1.441-2.285 1.768-2.954.548-.975.497-.996.436-1.006.377-1.016 1.362-4.012.427-1.894.003-1.869-.427-1.775-.836-1.607-1.5-1.624-1.959-1.204-2.309-.712-2.628-.181-2.16.236-2.037.552-1.947.851-1.796 1.124-2.784 2.052-1.36 1.076-1.267 1.161-1.169 1.234-1.06 1.298-3.043 4.038-.908 1.172-.945 1.153-.979 1.133-1.013 1.113-1.399 1.494-2.258 2.251-2.43 2.112-2.587 1.961-2.726 1.796-2.26 1.305-2.33 1.189-2.388 1.063-2.439.941-1.548.552-2.384.796-2.405.704-2.423.607-2.437.512-1.613.307-2.536.426-2.541.323-2.533.211-2.521.104-1.087.02-2.641-.019-2.609-.165-2.565-.313-2.512-.454-2.783-.692-2.688-.87-2.58-1.049-2.513-1.251-2.057-1.209-1.896-1.29-1.786-1.4-1.667-1.504-1.031-.996-1.397-1.418-1.322-1.476-1.241-1.53-1.162-1.583-.827-1.185-1.215-1.823-1.139-1.866-1.062-1.907-.984-1.95-.348-.732-.945-2.064-.871-2.096-.794-2.13-.722-2.156-.166-.527-.654-2.228-.577-2.252-.498-2.277-.418-2.299-.081-.506-.329-2.302-.242-2.321-.152-2.343-.064-2.355-.004-.44.033-2.428.13-2.437.233-2.447.347-2.531.467-2.619.563-2.537.672-2.531.783-2.521.885-2.503.993-2.487 1.095-2.468 1.197-2.443.219-.427 1.184-2.219 1.26-2.193 1.333-2.168 1.41-2.14 1.112-1.636 1.192-1.693 1.254-1.663 1.313-1.631 1.375-1.599 1.901-2.143 1.51-1.611 1.602-1.541 1.697-1.467 1.777-1.387 1.466-1.082 2.231-1.517 2.358-1.34 2.46-1.154 2.633-.988 3.024-.854 2.961-.541 2.958-.251 2.918.042 2.632.299 2.537.545 2.413.787 2.266 1.018.705.365 1.974 1.142 1.832 1.301 1.669 1.451 1.5 1.589 1.346 1.582 1.06 1.314.981 1.366.905 1.409.824 1.458 2.988 5.646 2.921 5.547.843 1.519.909 1.481.976 1.443 1.043 1.401 1.247 1.602 1.377 1.634 1.51 1.533 1.638 1.43 1.758 1.318.572.399 2.124 1.329 2.274 1.156 2.404.967 2.524.775 2.671.586 2.757.378 2.819.165 2.866-.046.48-.026 2.6-.219 2.602-.376 2.595-.531 2.576-.685 1.12-.332 2.528-.83 2.485-.97 2.428-1.108 2.363-1.24 1.069-.599 2.252-1.367 2.14-1.506 2.017-1.64 1.879-1.76 2.084-2.289 1.835-2.423 1.572-2.536 1.292-2.623.213-.492.754-1.917.61-1.936.467-1.946.322-1.948.629-4.959.086-.627.093-.629.107-.629.116-.627.796-4.162.568-2.301.818-2.273 1.065-2.23 1.295-2.162 1.647-2.236 1.889-2.108 2.105-1.956 2.295-1.776 4.319-3.047.268-.198.252-.21.242-.22.229-.233 1.224-2.092.046-2.199-1.139-1.797-2.068-.986-.791-.16-.725-.101-.75-.015-.76.07-.759.155-5.097 1.33-2.257.503-2.265.326-2.26.153-2.233-.026-5.831-.302-.529-.027-.531-.019-.531-.017-.531-.014-.729-.012-4.812.02-4.842.232-4.866.449-4.871.662-.759.12-.532.08-.535.077-.532.075-.533.067-5.552.693-2.435.209-2.408.011-2.365-.186-2.298-.379-2.807-.761-2.631-1.063-2.421-1.348-2.171-1.615-.366-.312-1.39-1.298-1.251-1.407-1.106-1.507-.956-1.595-1.67-3.118-.561-1.085-.525-1.102-.487-1.12-.453-1.134-.912-2.403-.804-2.221-.739-2.245-.673-2.272-.603-2.292-1.101-4.446-.08-.326-.114-.434-1.089-4.067-.777-2.421-1.006-2.329-1.234-2.22-1.448-2.098-1.444-1.729-1.594-1.618-1.741-1.497-1.878-1.369-1.797-1.202-1.407-.904-1.447-.855-1.491-.807-1.528-.756-1.926-.91-2.253-1.008-2.312-.926-2.366-.839-2.416-.754-2.772-.742-2.826-.629-2.875-.517-2.918-.402-.646-.075-2.307-.238-2.328-.174-2.344-.11-2.359-.046-5.634-.034-.559-.003h-.562l-.56.001-.559.002-4.019.024-3.179-.012-3.168-.065-3.156-.123-3.142-.176-2.522-.185-2.51-.223-2.501-.254-2.489-.295-3.858-.483-1.159-.14-1.165-.131-1.164-.12-1.17-.113-3.283-.301-2.814-.214-2.836-.127-2.859-.041-2.872.044-2.889.134-2.899.218-2.907.307-2.905.389-1.581.238-2.12.334-2.12.369-2.12.408-2.114.441-2.212.481-2.585.537-2.587.488-2.59.442-2.592.391-3.702.525-1.37.178-1.369.147-1.367.112-1.366.084-6.221.296-1.307.112-1.308.211-1.3.307-1.283.403-3.343 1.561-2.947 2.155-2.386 2.628-1.691 2.953-.833 1.953-.228.563-.207.567-.189.57-.165.573-.461 1.704-1.177 3.231-1.748 3.101-2.268 2.888-2.729 2.595-1.368 1.06-1.439.979-1.503.893-1.558.801-3.589 1.712-1.995.997-1.956 1.068-1.913 1.137-1.866 1.204-2.853 1.914-1.659 1.134-1.634 1.167-1.609 1.191-1.583 1.222-4.403 3.468-.891.697-.895.694-.898.691-.902.689-5.478 4.153-1.088.835-1.079.845-1.067.858-1.056.869-1.386 1.149-2.732 2.356-2.628 2.444-2.519 2.526-2.406 2.603-1.448 1.669-1.401 1.694-1.352 1.723-1.302 1.745-2.034 2.801-1.05 1.42-1.076 1.409-1.1 1.397-1.125 1.385-2.413 2.922-1.334 1.56-1.394 1.525-1.451 1.485-1.506 1.446-1.896 1.759-1.834 1.611-1.937 1.512-2.029 1.41-2.113 1.301-1.381.801-2.306 1.221-2.392 1.048-2.457.863-2.503.671-1.665.381-2.298.411-2.294.185-2.262-.043-2.2-.273-2.203-.39-1.889-.49-1.727-.758-1.521-1.013-1.277-1.237-1.4-2.238-.685-2.555.07-2.727.819-2.735.115-.263.91-1.716 1.177-1.617 1.416-1.483 1.624-1.316 4.239-3.016.973-.67.996-.64 1.018-.609 1.037-.579 5.791-3.112 1.352-.717 1.36-.703 1.368-.689 1.375-.673 3.782-1.829 2.148-1.026 2.159-1.005 2.17-.98 2.179-.959 3.674-1.593 1.489-.661 1.479-.681 1.468-.707 1.456-.73 3.836-2.065 3.739-2.219 3.63-2.371 3.514-2.516 1.497-1.124.547-.411.543-.414.541-.417.538-.421 5.104-4.008 1.575-1.243 1.571-1.247 1.565-1.251 1.56-1.255 5.554-4.491.273-.219.274-.217.276-.217.277-.215 2.079-1.609 3.2-2.698 2.917-2.931 2.603-3.13 2.262-3.295.795-1.343.736-1.359.677-1.375.615-1.39 1.913-4.559.564-1.301.6-1.291.633-1.285.668-1.275 2.396-4.445.779-1.334.875-1.302.969-1.256 1.056-1.21 2.966-2.754 3.387-2.339 3.708-1.858 3.919-1.319 1.425-.368.908-.224.909-.196.915-.171.914-.144 3.976-.57 2.918-.462 2.913-.545 2.906-.629 2.896-.71 4.781-1.243.487-.126.49-.124.489-.122.491-.119 2.218-.533 4.169-.893 4.18-.677 4.178-.456 4.164-.24 1.604-.031 1.601.001 1.594.031 1.589.068 3.144.165 2.534.113 2.544.069 2.553.025 2.561-.014 2.424-.035 1.991-.039 1.995-.054 1.997-.072 1.999-.09 1.868-.092 2.863-.156 2.867-.187 2.869-.218 2.873-.249.793-.074 2.55-.25 2.551-.275 2.549-.304 2.552-.331 3.275-.468 3.274-.512 3.273-.559 3.273-.602 3.127-.6.985-.183.983-.173.986-.166.984-.153 5.212-.791 2.228-.286 2.222-.178 2.208-.067 2.19.04.505.022 3.188.27 3.101.522 2.991.774 2.855 1.018 2.038.916 1.94 1.046 1.832 1.171 1.721 1.287 3.628 2.943.429.342.43.34.437.335.436.333 3.764 2.823 1.771 1.254 1.849 1.168 1.926 1.082 2 .988 1.884.876 1.737.878 1.65.984 1.559 1.085 1.46 1.179 2.174 2.146 1.867 2.37 1.538 2.567 1.192 2.743.547 1.511.322.946.29.956.258.969.227.978 1.026 4.784.387 1.376.557 1.31.724 1.229.882 1.133 1.374 1.559 1.693 1.459 2.096 1.03 2.389.542 2.558.027 2.312-.411 2.244-.805 2.08-1.164 1.835-1.477 2.018-1.935 1.082-1.113.978-1.178.867-1.232.754-1.279 1.358-2.541.925-2.206.453-2.258-.041-2.221-.529-2.105-.821-1.64-1.137-1.46-1.427-1.238-1.677-.986-4.958-2.354-.33-.153-.332-.15-.335-.147-.337-.141-3.187-1.309-2.939-1.243-2.899-1.3-2.862-1.349-2.822-1.406-1.75-.893-.976-.496-.982-.488-.985-.487-.987-.48-5.951-2.868-.753-.375-.743-.387-.732-.405-.719-.417-4.011-2.389-1.597-1.083-1.43-1.245-1.25-1.389-1.053-1.52-.385-.644-1.001-2.083-.596-2.247-.183-2.354.239-2.411.61-2.287.969-2.238 1.312-2.146 1.625-2.007.675-.731 1.667-1.647 1.835-1.508 1.982-1.35 2.106-1.176 2.178-1.095 2.051-.945 2.104-.81 2.145-.665 2.176-.517 1.309-.266 2.795-.412 2.772-.106 2.707.209 2.6.517 2.297.755 2.135 1.004 1.936 1.244 1.714 1.462 1.016 1.001 1.311 1.415 1.16 1.519 1.003 1.616.838 1.702 1.58 3.64.336.798.316.803.302.812.282.818 1.41 3.627 1.759 3.469 2.098 3.289 2.424 3.084.217.251.5.568.511.555.523.55.533.538 3.224 3.196 1.278 1.407 1.112 1.518.941 1.618.758 1.708.776 2.62.366 2.738-.043 2.813-.456 2.846-.15.653-.468 1.723-.596 1.712-.729 1.687-.852 1.66-2.237 4.017-.666 1.163-.69 1.156-.721 1.146-.745 1.136-3.27 4.866-.703 1.115-.623 1.137-.548 1.159-.469 1.179-.68 1.887-.635 2.474-.134 2.463.373 2.373.869 2.208 1.103 1.684 1.41 1.476 1.687 1.236 1.927.963 3.277 1.326 1.158.435 1.189.383 1.217.33 1.245.273 6.324 1.247 1.013.179 1.023.142 1.036.109 1.048.071 4.121.205 2.301-.045 2.322-.362 2.29-.671 2.195-.962 1.608-.831 1.831-1.141 1.592-1.403 1.295-1.608.939-1.748.647-2.417-.079-2.383-.792-2.18-1.456-1.835-2.106-1.931-.645-.639-.59-.683-.528-.723-.469-.76-1.181-2.092-1.204-2.428-.947-2.542-.68-2.64-.408-2.719-.371-3.718-.028-.302-.026-.302-.022-.304-.023-.303-.104-1.671-.479-3.663-.967-3.527-1.44-3.341-1.895-3.116-.648-.961-.607-.987-.558-1.01-.516-1.033-.212-.457-1.606-2.989-1.922-2.813-2.226-2.615-2.509-2.399-1.984-1.711-.201-.176-.265-.234-4.822-4.326-1.094-1.119-.923-1.238-.746-1.345-.555-1.432-.509-2.936.237-3.064.972-3.058 1.664-2.91.805-1.133.778-1.024.843-.988.909-.944.969-.899 4.904-4.3.974-.842.99-.828 1.003-.812 1.019-.798 3.284-2.536 1.981-1.579 1.922-1.631 1.866-1.683 1.804-1.733 2.404-2.285 2.508-2.198 2.611-2.105 2.708-2.006 2.94-2.093.631-.445.632-.44.635-.438.641-.435 6.41-4.331 1.11-.743 1.116-.734 1.119-.726 1.127-.716 2.948-1.86 2.471-1.51 2.518-1.448 2.557-1.378 2.597-1.31 2.79-1.312 2.829-1.231 2.862-1.149 2.891-1.065.555-.195 2.462-.834 2.477-.78 2.49-.724 2.501-.663 5.119-1.299.71-.184.709-.183.71-.186.709-.188 5.345-1.429 2.386-.622 2.391-.593 2.395-.558 2.399-.53 3.366-.719 1.708-.349 1.713-.32 1.713-.285 1.713-.255 1.333-.185 3.41-.549 3.406-.702 3.385-.849 3.479-1.032 2.32-.775 2.181-.803 2.159-.866 2.132-.927 1.691-.767 2.508-1.066 2.548-.95 2.585-.831 2.609-.71 3.115-.679 3.124-.499 3.125-.322 3.107-.14 1.636-.027 1.826-.002 1.815.045 1.804.098 1.79.145 1.668.161 2.975.336 2.942.43 2.905.527 2.908.631 2.469.617 2.398.677 2.361.744 2.323.81 4.334 1.588.556.2.555.201.558.198.558.197 7.349 2.564.837.28.85.259.864.237.873.213 7.305 1.694.744.223.686.316.617.403.531.478 2.459 2.585.646 1.315-.218 1.529z"/>
  <path fill="#ff5053" d="m836.2 414.8c-32.88 0-54.24 7.703-67.44 18.16s-18.11 23.62-18.11 34.08c0 13.67 4.82 24.63 15.83 33.31 11.01 8.677 27.97 15.28 52.68 21.53a2.25 2.25 0 00.004 0c3.978.9994 5.951 3.404 5.951 6.102 0 1.464-.3721 2.528-1.326 3.438s-2.693 1.745-5.744 2.012l-32.37 2.662c-17.48 1.365-29.21 7.264-36.34 16.71-7.132 9.453-9.578 22.1-9.578 36.71 0 26.1 14.49 42.33 36.87 51.45 22.38 9.125 52.67 11.74 85.74 12.04a2.25 2.25 0 00.0215 0c28.08 0 51.97-4.887 69.07-14.72 17.1-9.834 27.36-24.92 27.36-44.33 0-20.42-4.102-35.3-12.89-45.27-8.784-9.967-22.03-14.65-39.32-15.26h-.004l-24.12-.8887h-.008c-2.963-.1383-4.765-.754-5.77-1.41-1.007-.658-1.347-1.301-1.535-2.152a2.25 2.25 0 00-.0137-.0566c-.3284-1.32-.1785-2.012.2969-2.75.4745-.737 1.487-1.572 3.168-2.354l.006-.002v-.002h.002l48.85-22.48a2.25 2.25 0 00.002 0c10.67-4.915 17.78-8.823 22.38-14.05 4.6-5.231 6.301-11.68 6.301-20.53 0-15.97-8.277-29.31-27.28-38.1s-48.67-13.56-92.69-13.85a2.25 2.25 0 00-.0156 0zm-20.28 16.56c.7828-.0432 1.608-.0398 2.469.0156 3.445.2216 7.48 1.263 11.82 3.373l71.82 34.91c5.035 2.463 6.692 5.018 6.717 7.283.0247 2.266-1.765 5.207-5.852 8.082a2.25 2.25 0 00-.008.006l-39.15 27.81a2.25 2.25 0 00-.0137.01c-5.414 3.907-11.02 5.71-15.7 5.137-4.686-.5728-8.695-3.303-11.54-9.568a2.25 2.25 0 00-.006-.0117l-28.26-61.24a2.25 2.25 0 00-.008-.0156c-1.767-3.757-2.158-6.831-1.713-9.131.4453-2.3 1.644-3.926 3.619-5.096 1.481-.8776 3.456-1.433 5.805-1.562zm35.43 110.8c5.839.0995 11.81 2.842 19.76 8.361l60.92 42.6c3.908 2.752 5.077 5.946 4.613 7.973-.4639 2.028-2.476 3.908-7.74 3.908a2.25 2.25 0 00-.0117 0l-152.7.8887c-5.662 0-7.735-2.117-8.244-4.6s.8489-6.081 4.564-8.785l58.55-41.99.01-.006c8.35-5.931 14.48-8.441 20.32-8.342zm220.7-127.4c-35.26 0-61.43 12.65-78.56 33.43-17.13 20.78-25.24 49.49-25.24 81.53 0 71.42 48.52 123.2 117.3 123.2 57.45 0 92.02-36.16 92.02-75.91 0-10.67-2.236-21.2-8.705-28.79-6.469-7.585-17.13-11.81-32.64-10.13-13.13 1.414-20.27 9.417-23.18 18.88s-2.084 20.38-.5781 29a2.25 2.25 0 000 .006l5.004 28.1v-.002c1.093 6.176-.2148 10.89-2.58 12.97-1.183 1.04-2.636 1.591-4.695 1.49-2.059-.1005-4.722-.9371-7.877-2.867l-95.06-57.97-.02-.008c-5.317-3.293-7.688-7.208-7.715-10.08-.0266-2.876 1.861-5.527 7.459-7.135l52.96-14.79a2.25 2.25 0 00.01-.002c11.2-3.172 19.23-11.76 21.06-21.61 1.83-9.852-2.904-20.8-15.9-27.8a2.25 2.25 0 00-.012-.006l-16.19-8.578v-.002c-9.822-5.219-13.68-11.63-14.17-17.98-.4845-6.343 2.574-12.93 7.746-18.08s12.38-8.747 19.71-9.215c7.322-.4682 14.76 2.027 21.04 9.377l43.26 50.88a2.25 2.25 0 000 .004c11.91 13.97 25.79 17.24 36.63 13.69 10.84-3.551 18.55-13.73 18.55-25.51 0-14.5-13.56-30.66-33.78-43.61-20.21-12.94-47.43-22.54-75.9-22.54zm-515.6 4.438c-12.5 0-23.81 2.296-32.03 7.938-8.222 5.642-13.08 14.84-12.3 27.29.6121 10.36 3.69 17.62 8.525 22.34 4.837 4.713 11.24 6.704 17.97 7.133 13.46.8575 28.69-4.247 39.08-7.336l102.7-30.46c3.319-.9341 6.942-.9896 9.428.0273 2.479 1.014 4.057 2.708 4.191 6.721-.004 3.438-.5052 6.108-2.424 8.557-1.927 2.459-5.522 4.87-12.2 7.012l-114.8 36.68c-13.27 4.242-21.25 10.04-25.86 16.39-4.609 6.35-5.727 13.13-5.727 18.89 0 7.504 2.041 15.03 7.162 21.02 5.121 5.992 13.24 10.3 24.84 11.68l105.3 13.01c8.772 1.156 14.62 3.198 18.07 5.693 3.45 2.496 4.699 5.24 4.699 8.938 0 3.449-1.511 6.758-5.006 9.217-3.495 2.459-9.116 4.039-17.28 3.332l.006.002-129.5-11.54h-.0117c-11.34-1.062-18.74.6202-23.4 4.277-4.668 3.659-6.123 9.104-6.123 14.23 0 10.04 5.213 18.77 16.83 24.4 11.62 5.626 29.54 8.619 56.06 8.619 37.98 0 73.19-7.644 99.12-22.26s42.65-36.49 42.65-64.3c0-14.16-6.721-25.33-17.28-31.15-10.56-5.821-24.76-6.346-39.69-.2227a2.25 2.25 0 00-.002.002l-58.87 24.26a2.25 2.25 0 00-.006.002c-3.093 1.284-5.604 1.545-7.344 1.266-1.74-.2797-2.667-1.007-3.141-1.865-.4732-.8582-.5902-2.033.0918-3.641.6812-1.606 2.216-3.561 4.891-5.445l.006-.004c.00087-.00061.001-.001.002-.002l87.7-61.23a2.25 2.25 0 00.0195-.0137c13.58-9.705 21.84-21.19 21.84-33.19 0-10.36-4.251-19.64-12.57-26.11-8.318-6.467-20.53-10.16-36.48-10.16zm680.8 0c-12.5 0-23.81 2.296-32.03 7.938s-13.08 14.84-12.3 27.29c.6121 10.36 3.69 17.62 8.525 22.34 4.837 4.713 11.24 6.704 17.97 7.133 13.46.8575 28.69-4.247 39.08-7.336l102.7-30.46c3.319-.9341 6.942-.9896 9.428.0273 2.477 1.013 4.055 2.707 4.191 6.713 0 3.442-.5035 6.114-2.424 8.564-1.927 2.459-5.524 4.87-12.2 7.012l-114.8 36.68c-13.27 4.242-21.25 10.04-25.86 16.39-4.609 6.35-5.728 13.13-5.728 18.89 0 7.504 2.041 15.03 7.162 21.02 5.121 5.992 13.24 10.3 24.84 11.68l105.4 13.02c8.762 1.156 14.6 3.198 18.05 5.691 3.45 2.496 4.697 5.24 4.697 8.938 0 3.449-1.511 6.758-5.006 9.217s-9.114 4.039-17.27 3.332v.002l-129.5-11.54h-.012c-11.34-1.062-18.74.6202-23.4 4.277-4.668 3.659-6.123 9.105-6.123 14.23 0 10.04 5.213 18.77 16.83 24.4 11.62 5.626 29.54 8.619 56.06 8.619 37.98 0 73.19-7.644 99.12-22.26s42.65-36.49 42.65-64.3c0-14.16-6.719-25.33-17.28-31.15-10.56-5.821-24.76-6.346-39.69-.2227a2.25 2.25 0 000 .002l-58.87 24.26a2.25 2.25 0 00-.01.002c-3.093 1.284-5.604 1.545-7.344 1.266-1.74-.2797-2.668-1.007-3.141-1.865-.4732-.8582-.5902-2.033.092-3.641.6813-1.606 2.216-3.561 4.891-5.445l.01-.004c9e-4-.00061 0-.001 0-.002l87.7-61.23a2.25 2.25 0 00.02-.0137c13.58-9.705 21.84-21.19 21.84-33.19 0-10.36-4.251-19.64-12.57-26.11s-20.53-10.16-36.48-10.16z"/>
  <rect stroke="#6a5fdb" stroke-width="2.859" x="759.3" y="248.7" width="404.4" height="87.5"/>
  <rect stroke="#6a5fdb" stroke-width="2.859" x="620.8" y="724.3" width="681.4" height="87.5"/>
  <path fill="#ff5053" d="m799.8 273.6h5.283v37.35h-5.283zm35.5 0h5.283v32.6h18.62v4.749h-23.91zm51.35 0h5.283v32.6h18.62v4.749h-23.91zm51.35 0h23.85v4.749h-18.57v11.42h17.08v4.802h-17.08v11.63h18.84v4.749h-24.12zm51.32 22.79v-8.218c0-9.765 5.87-15.32 15.05-15.32 9.072 0 13.82 5.229 13.82 13.18v.534h-5.283v-.587c0-4.963-2.775-8.431-8.538-8.431-6.083 0-9.765 4.002-9.765 10.51v8.431c0 6.51 3.682 10.51 9.712 10.51 5.976 0 8.911-3.255 8.911-8.591v-1.014h-10.51v-4.535h15.69v5.069c0 8.591-5.229 13.77-14.09 13.77-9.232 0-15-5.549-15-15.31zm65.7-22.79h8.164l11.53 37.35h-5.496l-2.775-9.071h-14.73l-2.774 9.071h-5.443zm-1.975 23.48h12.06l-5.763-18.89h-.533zm48.8-23.48h5.283v32.6h18.62v4.749h-23.91z"/>
  <path fill="#ff5053" d="m661.4 749.2h5.283v37.35h-5.283zm35.5 0h9.018l12.7 31.86h.534v-31.86h5.282v37.35h-9.018l-12.7-31.86h-.533v31.86h-5.283zm70.03-.747c7.684 0 13.5 3.949 13.5 11.74v1.44h-5.229v-1.44c0-5.07-3.416-7.097-8.271-7.097-4.75 0-7.631 2.027-7.631 5.656 0 3.628 2.508 4.963 7.364 6.083l2.294.534c6.991 1.601 11.9 4.162 11.9 10.83 0 6.617-5.336 11.1-13.66 11.1-8.377 0-14.35-4.535-14.35-13.13v-.48h5.23v.48c0 5.763 3.628 8.485 9.124 8.485 5.443 0 8.485-2.615 8.485-6.35 0-3.789-3.042-5.123-7.951-6.243l-2.295-.534c-6.99-1.601-11.37-4.216-11.37-10.67 0-6.457 5.176-10.41 12.86-10.41zm39.21.747h29.4v4.749h-12.06v32.6h-5.283v-32.6h-12.06zm84.21 11.26c0 5.87-3.628 9.872-8.858 10.94l8.165 15.15h-6.03l-7.578-14.89h-7.897v14.89h-5.283v-37.3h15.69c6.831 0 11.79 4.268 11.79 11.2zm-22.2-6.456v12.91h9.872c4.376 0 7.044-2.454 7.044-6.457 0-4.055-2.668-6.456-7.044-6.456zm50.28-4.803h5.283v24.76c0 5.603 3.148 8.645 8.751 8.645s8.752-3.042 8.752-8.645v-24.76h5.282v24.65c0 8.645-5.442 13.45-14.03 13.45-8.591 0-14.03-4.802-14.03-13.45zm56.79 22.79v-8.218c0-9.765 5.816-15.32 14.99-15.32 9.072 0 14.2 5.23 14.2 13.39v.854h-5.283v-.907c0-5.016-3.095-8.645-8.912-8.645-6.083 0-9.711 4.002-9.711 10.51v8.431c0 6.51 3.682 10.51 9.711 10.51 5.977 0 8.912-3.576 8.912-8.592v-1.227h5.283v1.174c0 8.164-5.337 13.34-14.2 13.34-9.284 0-14.99-5.549-14.99-15.31zm54.12-22.79h29.4v4.749h-12.06v32.6h-5.283v-32.6h-12.06zm56.73 0h5.283v37.35h-5.283zm34.22 14.35c0-9.818 5.816-15.1 14.89-15.1 9.071 0 14.89 5.283 14.89 15.1v8.645c0 9.819-5.817 15.1-14.89 15.1-9.072 0-14.89-5.282-14.89-15.1zm5.283-.213v9.071c0 6.297 3.575 10.19 9.605 10.19s9.605-3.896 9.605-10.19v-9.071c0-6.297-3.575-10.19-9.605-10.19s-9.605 3.895-9.605 10.19zm53.44-14.14h9.019l12.7 31.86h.533v-31.86h5.283v37.35h-9.018l-12.7-31.86h-.534v31.86h-5.283zm70.03-.747c7.684 0 13.5 3.949 13.5 11.74v1.44h-5.23v-1.44c0-5.07-3.415-7.097-8.271-7.097-4.749 0-7.63 2.027-7.63 5.656 0 3.628 2.508 4.963 7.363 6.083l2.295.534c6.99 1.601 11.9 4.162 11.9 10.83 0 6.617-5.337 11.1-13.66 11.1-8.378 0-14.35-4.535-14.35-13.13v-.48h5.229v.48c0 5.763 3.629 8.485 9.125 8.485 5.443 0 8.485-2.615 8.485-6.35 0-3.789-3.042-5.123-7.951-6.243l-2.295-.534c-6.99-1.601-11.37-4.216-11.37-10.67 0-6.457 5.176-10.41 12.86-10.41z"/>
</svg>
