<svg viewBox="0 0 1920 1080" version="1.1" xmlns="http://www.w3.org/2000/svg">
  <defs>
      <filter id="filter57" x="-50%" y="-50%" width="200%" height="200%"><feGaussianBlur stdDeviation="32"/></filter>
      <filter id="filter58" x="-50%" y="-50%" width="200%" height="200%"><feGaussianBlur stdDeviation="27"/></filter>
      <path id="pattern" fill="#284c4a" d="m 10.456,83.113 c 0.223,0.543 0.340,1.086 0.340,1.637 0,0.536 -0.116,1.079 -0.340,1.631 -0.230,0.543 -0.525,0.990 -0.889,1.355 -0.358,0.356 -0.812,0.650 -1.364,0.873 -0.534,0.230 -1.079,0.338 -1.612,0.338 -0.534,0 -1.070,-0.107 -1.612,-0.338 C 4.427,88.386 3.980,88.091 3.624,87.736 3.259,87.371 2.956,86.924 2.734,86.381 2.511,85.829 2.395,85.286 2.395,84.750 c 0,-0.552 0.116,-1.095 0.340,-1.637 0.221,-0.554 0.525,-0.999 0.889,-1.355 0.356,-0.365 0.803,-0.659 1.355,-0.892 0.543,-0.221 1.079,-0.338 1.612,-0.338 0.534,0 1.079,0.116 1.612,0.338 0.552,0.233 1.006,0.527 1.364,0.892 0.365,0.356 0.659,0.800 0.889,1.355 z m 22.407,-28.108 -5.435,3.145 h -7.804 l -1.551,-0.889 3.118,-5.373 h 6.237 z M 31.160,40.564 V 28.753 h 6.237 v 11.811 l -3.118,11.752 z m 17.782,11.323 1.569,0.892 -3.118,5.371 h -6.256 l -5.432,-3.145 5.432,-3.118 z M 20.979,38.338 v -9.585 h 1.763 l 7.065,12.213 3.394,12.623 -5.095,-2.903 z m 30.681,15.127 3.608,2.030 v 30.672 0.125 L 48.941,82.632 V 58.150 Z M 19.624,74.159 v 5.692 L 14.591,88.545 C 13.745,87.993 13.316,87.202 13.316,86.167 V 56.172 l 6.308,3.590 z M 38.759,40.965 45.824,28.753 h 1.765 v 9.585 L 40.453,50.685 35.365,53.588 Z M 37.397,69.473 V 81.295 H 31.160 V 69.473 L 34.279,57.723 Z M 53.965,21.492 c 0.864,0.552 1.302,1.346 1.302,2.379 V 53.864 L 48.941,50.275 V 30.187 Z m -31.561,5.925 -8.678,-5.033 c 0.534,-0.855 1.318,-1.293 2.370,-1.293 h 36.391 0.125 l -3.672,6.326 z m 23.759,55.215 8.675,5.024 c -0.543,0.864 -1.327,1.291 -2.351,1.291 H 16.096 15.953 l 3.672,-6.315 z M 29.807,69.071 22.742,81.295 h -1.763 v -9.594 l 7.127,-12.347 5.095,-2.905 z m 17.782,2.630 v 9.594 H 45.824 L 38.759,69.071 35.365,56.448 l 5.088,2.905 z m -34.273,-47.831 v -0.125 l 6.308,3.672 v 24.471 l -2.718,4.696 -3.590,-2.041 z"/>
      <g id="row">
        <use href="#pattern" x="0.0"/>
        <use href="#pattern" x="68.57"/>
        <use href="#pattern" x="137.14"/>
        <use href="#pattern" x="205.71"/>
        <use href="#pattern" x="274.28"/>
        <use href="#pattern" x="342.85"/>
        <use href="#pattern" x="411.42"/>
        <use href="#pattern" x="479.99"/>
        <use href="#pattern" x="548.56"/>
        <use href="#pattern" x="617.13"/>
        <use href="#pattern" x="685.7"/>
        <use href="#pattern" x="754.27"/>
        <use href="#pattern" x="822.84"/>
        <use href="#pattern" x="891.41"/>
        <use href="#pattern" x="959.98"/>
        <use href="#pattern" x="1028.55"/>
        <use href="#pattern" x="1097.12"/>
        <use href="#pattern" x="1165.69"/>
        <use href="#pattern" x="1234.26"/>
        <use href="#pattern" x="1302.83"/>
        <use href="#pattern" x="1371.4"/>
        <use href="#pattern" x="1439.97"/>
        <use href="#pattern" x="1508.54"/>
        <use href="#pattern" x="1577.11"/>
        <use href="#pattern" x="1645.68"/>
        <use href="#pattern" x="1714.25"/>
        <use href="#pattern" x="1782.82"/>
        <use href="#pattern" x="1851.39"/>
      </g>
  </defs>
  <rect fill="#193330" width="1920" height="1080"/>
  <g>
    <use href="#row" y="0.0"/>
    <use href="#row" y="96.969"/>

    <use href="#pattern" x="0.0" y="193.938"/>
    <use href="#pattern" x="68.57" y="193.938"/>
    <use href="#pattern" x="1782.82" y="193.938"/>
    <use href="#pattern" x="1851.39" y="193.938"/>

    <use href="#pattern" x="0.0" y="290.907"/>
    <use href="#pattern" x="68.57" y="290.907"/>
    <use href="#pattern" x="1782.82" y="290.907"/>
    <use href="#pattern" x="1851.39" y="290.907"/>

    <use href="#pattern" x="0.0" y="387.876"/>
    <use href="#pattern" x="68.57" y="387.876"/>
    <use href="#pattern" x="1782.82" y="387.876"/>
    <use href="#pattern" x="1851.39" y="387.876"/>

    <use href="#pattern" x="0.0" y="484.845"/>
    <use href="#pattern" x="68.57" y="484.845"/>
    <use href="#pattern" x="1782.82" y="484.845"/>
    <use href="#pattern" x="1851.39" y="484.845"/>

    <use href="#row" y="581.814"/>
    <use href="#row" y="678.783"/>
    <use href="#row" y="775.752"/>
    <use href="#row" y="872.721"/>
    <use href="#row" y="969.69"/>

    <path fill="#284c4a" d="m1640 394.37-21.727 12.498h-31.205l-6.2374-3.544 12.472-21.444h24.97zm-6.7871-57.826v-47.215h24.97v47.215l-12.482 46.966zm71.134 45.336 6.2374 3.5463-12.491 21.442h-24.979l-21.718-12.498 21.718-12.491zm-111.86-54.278v-38.273h7.0471l28.24 48.855 13.576 50.485-20.363-11.67zm122.72 60.531 14.379 8.1531v122.67.54277l-25.248-14.655v-97.976zm-128.15 82.769v22.806l-20.099 34.745c-3.43-2.1643-5.1496-5.3274-5.1496-9.4963v-119.96l25.248 14.388zm76.55-132.72 28.231-48.855h7.063v38.273l-28.507 49.397-20.345 11.67zm-5.4347 114.01v47.224h-24.97v-47.224l12.488-46.964zm66.262-191.91c3.4301 2.1643 5.1496 5.3366 5.1496 9.5055v119.95l-25.248-14.379v-80.329zm-126.26 23.615-34.736-20.087c2.1643-3.4391 5.3274-5.1587 9.4872-5.1587h145.52.552l-14.664 25.246zm95.025 220.94 34.754 20.09c-2.1825 3.4391-5.3458 5.1587-9.5056 5.1587h-145.52-.5336l14.664-25.248zm-65.432-54.278-28.24 48.852h-7.0471v-38.27l28.5-49.407 20.363-11.661zm71.134 10.582v38.27h-7.063l-28.231-48.852-13.558-50.485 20.345 11.661zm-137.09-191.35v-.55189l25.248 14.662v97.976l-10.869 18.726-14.379-8.1417zm-11.421 236.96c.91 2.1643 1.3638 4.3399 1.3638 6.5133 0 2.1643-.4538 4.3377-1.3638 6.5111-.8985 2.1643-2.0753 3.9819-3.5189 5.4346-1.4413 1.4436-3.259 2.6181-5.4323 3.5189-2.1666.90768-4.34 1.3638-6.5134 1.3638s-4.3468-.45612-6.5111-1.3638c-2.1734-.90082-3.991-2.0753-5.4346-3.5189-1.4436-1.4527-2.6113-3.2704-3.5189-5.4346-.9009-2.1734-1.3547-4.3468-1.3547-6.5111 0-2.1734.4538-4.3491 1.3547-6.5133.9076-2.1734 2.0753-3.9819 3.5189-5.4255 1.4436-1.4504 3.2612-2.6364 5.4346-3.544 2.1643-.90084 4.3377-1.3547 6.5111-1.3547s4.3468.45383 6.5134 1.3547c2.1733.90767 3.991 2.0936 5.4323 3.544 1.4436 1.4436 2.6204 3.2521 3.5189 5.4255zm-184.68-112.38-21.727 12.498h-31.208l-6.2442-3.544 12.479-21.444h24.972zm-6.7893-57.826v-47.215h24.972v47.215l-12.482 46.966zm71.136 45.336 6.2351 3.5463-12.498 21.442h-24.972l-21.718-12.498 21.718-12.491zm-111.86-54.278v-38.273h7.047l28.24 48.855 13.576 50.485-20.366-11.67zm122.72 60.531 14.386 8.1531v122.67.54277l-25.246-14.655v-97.976zm-128.14 82.769v22.806l-20.096 34.745c-3.4391-2.1643-5.1495-5.3274-5.1495-9.4963v-119.96l25.246 14.388zm76.541-132.72 28.24-48.855h7.0652v38.273l-28.507 49.397-20.347 11.67zm-5.4232 114.01v47.224h-24.972v-47.224l12.491-46.964zm66.251-191.91c3.4391 2.1643 5.1586 5.3366 5.1586 9.5055v119.95l-25.246-14.379v-80.329zm-126.25 23.615-34.733-20.087c2.1643-3.4391 5.3252-5.1587 9.4872-5.1587h145.52.552l-14.662 25.246zm95.027 220.94 34.752 20.09c-2.1825 3.4391-5.3434 5.1587-9.5055 5.1587h-145.52-.5359l14.664-25.248zm-65.432-54.278-28.24 48.852h-7.047v-38.27l28.498-49.407 20.366-11.661zm71.134 10.582v38.27h-7.0652l-28.24-48.852-13.549-50.485 20.347 11.661zm-137.09-191.35v-.55189l25.246 14.662v97.976l-10.869 18.726-14.377-8.1417zm-11.421 236.96c.9077 2.1643 1.3638 4.3399 1.3638 6.5133 0 2.1643-.4561 4.3377-1.3638 6.5111-.9099 2.1643-2.0753 3.9819-3.5189 5.4346-1.4436 1.4436-3.2613 2.6181-5.4347 3.5189-2.1642.90768-4.3376 1.3638-6.511 1.3638s-4.3491-.45612-6.5134-1.3638c-2.1734-.90082-3.991-2.0753-5.4346-3.5189-1.4413-1.4527-2.609-3.2704-3.5189-5.4346-.8986-2.1734-1.3524-4.3468-1.3524-6.5111 0-2.1734.4538-4.3491 1.3524-6.5133.9099-2.1734 2.0776-3.9819 3.5189-5.4255 1.4436-1.4504 3.2612-2.6364 5.4346-3.544 2.1643-.90084 4.34-1.3547 6.5134-1.3547s4.3468.45383 6.511 1.3547c2.1734.90767 3.9911 2.0936 5.4347 3.544 1.4436 1.4436 2.609 3.2521 3.5189 5.4255zm-274.29 0c.9008 2.1643 1.3638 4.3399 1.3638 6.5133 0 2.1643-.463 4.3377-1.3638 6.5111-.9077 2.1643-2.0753 3.9819-3.5189 5.4346-1.4413 1.4436-3.259 2.6181-5.4324 3.5189-2.1666.90768-4.34 1.3638-6.5134 1.3638-2.1734 0-4.3468-.45612-6.5111-1.3638-2.1757-.90082-3.991-2.0753-5.4346-3.5189-1.4436-1.4527-2.6113-3.2704-3.519-5.4346-.90082-2.1734-1.3638-4.3468-1.3638-6.5111 0-2.1734.46296-4.3491 1.3638-6.5133.90768-2.1734 2.0753-3.9819 3.519-5.4255 1.4436-1.4504 3.259-2.6364 5.4346-3.544 2.1643-.90084 4.3377-1.3547 6.5111-1.3547 2.1734 0 4.3468.45383 6.5134 1.3547 2.1734.90767 3.991 2.0936 5.4324 3.544 1.4436 1.4436 2.6112 3.2521 3.5189 5.4255zm89.602-112.38-21.727 12.498h-31.208l-6.2442-3.544 12.482-21.444h24.97zm-6.787-57.826v-47.215h24.97v47.215l-12.482 46.966zm71.134 45.336 6.2374 3.5463-12.5 21.442h-24.97l-21.718-12.498 21.718-12.491zm-111.86-54.278v-38.273h7.047l28.24 48.855 13.576 50.485-20.366-11.67zm122.72 60.531 14.388 8.1531v122.67.54277l-25.248-14.655v-97.976zm-128.14 82.769v22.806l-20.096 34.745c-3.4391-2.1643-5.1587-5.3274-5.1587-9.4963v-119.96l25.255 14.388zm76.543-132.72 28.24-48.855h7.063v38.273l-28.514 49.397-20.347 11.67zm-5.4255 114.01v47.224h-24.97v-47.224l12.488-46.964zm66.253-191.91c3.4391 2.1643 5.1587 5.3366 5.1587 9.5055v119.95l-25.248-14.379v-80.329zm-126.25 23.615-34.733-20.087c2.1643-3.4391 5.3274-5.1587 9.4781-5.1587h145.53.5519l-14.664 25.246zm95.027 220.94 34.754 20.09c-2.1825 3.4391-5.3548 5.1587-9.5055 5.1587h-145.53-.5246l14.662-25.248zm-65.432-54.278-28.24 48.852h-7.047v-38.27l28.498-49.407 20.366-11.661zm71.134 10.582v38.27h-7.063l-28.24-48.852-13.558-50.485 20.347 11.661zm-137.1-191.35v-.55189l25.255 14.662v97.976l-10.867 18.726-14.388-8.1417zm-285.7 236.96c.89855 2.1643 1.3547 4.3399 1.3547 6.5133 0 2.1643-.45612 4.3377-1.3547 6.5111-.90995 2.1643-2.0753 3.9819-3.519 5.4346-1.4436 1.4436-3.2612 2.6181-5.4346 3.5189-2.1643.90768-4.3377 1.3638-6.5111 1.3638-2.1757 0-4.3491-.45612-6.5134-1.3638-2.1734-.90082-3.991-2.0753-5.4346-3.5189-1.4436-1.4527-2.609-3.2704-3.5189-5.4346-.89857-2.1734-1.3615-4.3468-1.3615-6.5111 0-2.1734.46294-4.3491 1.3615-6.5133.90995-2.1734 2.0753-3.9819 3.5189-5.4255 1.4436-1.4504 3.2612-2.6364 5.4346-3.544 2.1643-.90084 4.3377-1.3547 6.5134-1.3547 2.1734 0 4.3468.45383 6.5111 1.3547 2.1734.90767 3.991 2.0936 5.4346 3.544 1.4436 1.4436 2.609 3.2521 3.519 5.4255zm89.593-112.38-21.718 12.498h-31.217l-6.2351-3.544 12.479-21.444h24.972zm-6.7893-57.826v-47.215h24.982v47.215l-12.482 46.966zm71.145 45.336 6.2351 3.5463-12.498 21.442h-24.972l-21.727-12.498 21.727-12.491zm-111.86-54.278v-38.273h7.047l28.238 48.855 13.579 50.485-20.366-11.67zm122.71 60.531 14.388 8.1531v122.67.54277l-25.246-14.655v-97.976zm-128.15 82.769v22.806l-20.09 34.745c-3.4368-2.1643-5.1564-5.3274-5.1564-9.4963v-119.96l25.246 14.388zm76.55-132.72 28.24-48.855h7.0652v38.273l-28.516 49.397-20.347 11.67zm-5.4232 114.01v47.224h-24.982v-47.224l12.5-46.964zm66.251-191.91c3.4391 2.1643 5.1587 5.3366 5.1587 9.5055v119.95l-25.246-14.379v-80.329zm-126.26 23.615-34.726-20.087c2.1666-3.4391 5.3274-5.1587 9.4804-5.1587h145.53.5519l-14.662 25.246zm95.036 220.94 34.752 20.09c-2.1825 3.4391-5.3525 5.1587-9.5055 5.1587h-145.53-.52681l14.655-25.248zm-65.434-54.278-28.238 48.852h-7.047v-38.27l28.498-49.407 20.366-11.661zm71.136 10.582v38.27h-7.0652l-28.24-48.852-13.558-50.485 20.347 11.661zm-137.1-191.35v-.55189l25.246 14.662v97.976l-10.86 18.726-14.386-8.1417zm-196.11 124.58-21.718 12.498h-31.214l-6.2374-3.544 12.482-21.444h24.97zm-6.787-57.826v-47.215h24.97v47.215l-12.473 46.966zm71.143 45.336 6.2374 3.5463-12.5 21.442h-24.97l-21.727-12.498 21.727-12.491zm-111.86-54.278v-38.273h7.047l28.24 48.855 13.576 50.485-20.375-11.67zm122.72 60.531 14.388 8.1531v122.67.54277l-25.248-14.655v-97.976zm-128.15 82.769v22.806l-20.09 34.745c-3.4391-2.1643-5.1587-5.3274-5.1587-9.4963v-119.96l25.248 14.388zm76.55-132.72 28.24-48.855h7.063v38.273l-28.516 49.397-20.345 11.67zm-5.4346 114.01v47.224h-24.97v-47.224l12.498-46.964zm66.262-191.91c3.4391 2.1643 5.1587 5.3366 5.1587 9.5055v119.95l-25.248-14.379v-80.329zm-126.26 23.615-34.724-20.087c2.1643-3.4391 5.3183-5.1587 9.4781-5.1587h145.52.55189l-14.655 25.246zm95.027 220.94 34.754 20.09c-2.1734 3.4391-5.3457 5.1587-9.5055 5.1587h-145.52-.52454l14.655-25.248zm-65.423-54.278-28.24 48.852h-7.047v-38.27l28.489-49.407 20.375-11.661zm71.134 10.582v38.27h-7.063l-28.24-48.852-13.558-50.485 20.345 11.661zm-137.1-191.35v-.55189l25.248 14.662v97.976l-10.86 18.726-14.388-8.1417zm-11.412 236.96c.90084 2.1643 1.3547 4.3399 1.3547 6.5133 0 2.1643-.45383 4.3377-1.3547 6.5111-.90768 2.1643-2.0753 3.9819-3.5189 5.4346-1.4413 1.4436-3.259 2.6181-5.4324 3.5189-2.1666.90768-4.34 1.3638-6.5133 1.3638-2.1734 0-4.3468-.45612-6.5111-1.3638-2.1757-.90082-3.991-2.0753-5.4346-3.5189-1.4436-1.4527-2.6204-3.2704-3.5189-5.4346-.90995-2.1734-1.3638-4.3468-1.3638-6.5111 0-2.1734.45385-4.3491 1.3638-6.5133.89854-2.1734 2.0753-3.9819 3.5189-5.4255 1.4436-1.4504 3.259-2.6364 5.4346-3.544 2.1643-.90084 4.3377-1.3547 6.5111-1.3547 2.1734 0 4.3468.45383 6.5133 1.3547 2.1734.90767 3.991 2.0936 5.4324 3.544 1.4436 1.4436 2.6112 3.2521 3.5189 5.4255zm-274.28 0c.89854 2.1643 1.3547 4.3399 1.3547 6.5133 0 2.1643-.45612 4.3377-1.3547 6.5111-.90996 2.1643-2.0845 3.9819-3.5189 5.4346-1.4436 1.4436-3.2612 2.6181-5.4346 3.5189-2.1643.90768-4.3377 1.3638-6.5134 1.3638-2.1734 0-4.3559-.45612-6.5111-1.3638-2.1825-.90082-3.991-2.0753-5.4346-3.5189-1.4436-1.4527-2.6181-3.2704-3.5189-5.4346-.90767-2.1734-1.3615-4.3468-1.3615-6.5111 0-2.1734.45384-4.3491 1.3615-6.5133.90083-2.1734 2.0753-3.9819 3.5189-5.4255 1.4436-1.4504 3.2521-2.6364 5.4346-3.544 2.1552-.90084 4.3377-1.3547 6.5111-1.3547 2.1757 0 4.3491.45383 6.5134 1.3547 2.1734.90767 3.991 2.0936 5.4346 3.544 1.4345 1.4436 2.609 3.2521 3.5189 5.4255zm89.593-112.38-21.72 12.498h-31.214l-6.2351-3.544 12.47-21.444h24.979zm-6.7893-57.826v-47.215h24.972v47.215l-12.473 46.966zm71.145 45.336 6.2351 3.5463-12.498 21.442h-24.972l-21.727-12.498 21.727-12.491zm-111.86-54.278v-38.273h7.047l28.231 48.855 13.585 50.485-20.375-11.67zm122.71 60.531 14.388 8.1531v122.67.54277l-25.246-14.655v-97.976zm-128.15 82.769v22.806l-20.09 34.745c-3.4368-2.1643-5.1564-5.3274-5.1564-9.4963v-119.96l25.246 14.388zm76.55-132.72 28.24-48.855h7.0653v38.273l-28.516 49.397-20.347 11.67zm-5.4324 114.01v47.224h-24.972v-47.224l12.5-46.964zm66.26-191.91c3.4391 2.1643 5.1587 5.3366 5.1587 9.5055v119.95l-25.246-14.379v-80.329zm-126.26 23.615-34.726-20.087c2.1574-3.4391 5.3183-5.1587 9.4804-5.1587h145.52.55191l-14.653 25.246zm95.027 220.94 34.752 20.09c-2.1734 3.4391-5.3457 5.1587-9.5055 5.1587h-145.52-.52681l14.655-25.248zm-65.432-54.278-28.231 48.852h-7.047v-38.27l28.489-49.407 20.375-11.661zm71.143 10.582v38.27h-7.0653l-28.24-48.852-13.558-50.485 20.347 11.661zm-137.1-191.35v-.55189l25.246 14.662v97.976l-10.86 18.726-14.386-8.1417z"/>
  </g>
  <path fill="#00feb5" id="subtitle" d="m1610 830.77-5.4347 3.1358h-7.8018l-1.5508-.89171 3.1175-5.3616h6.2351zm16.08-3.1176 1.5667.88941-3.1175 5.3639h-6.2534l-5.4346-3.1358 5.4346-3.1176zm-27.964-13.558v-9.5967h1.7651l7.063 12.224 3.3958 12.623-5.0971-2.9032zm30.681 15.125 3.6079 2.0411v30.672.13461l-6.324-3.6717v-24.489zm-29.255-26.056-8.6753-5.0264c.5336-.85522 1.3273-1.2908 2.3786-1.2908h36.382.1231l-3.6694 6.3172zm23.759 55.231 8.6776 5.0241c-.5427.86434-1.3273 1.2931-2.3512 1.2931h-36.382-.1527l3.6717-6.3172zm1.4254-10.931v9.5944h-1.7629l-7.0652-12.222-3.3935-12.623 5.0948 2.9032zm-34.261-47.838v-.13461l6.299 3.6717v24.489l-2.7185 4.6866-3.5805-2.0411zm-50.734 16.694v-11.823h6.2352v11.823l-3.1176 11.75zm6.2352 28.918v11.82h-6.2352v-11.82l3.1176-11.752zm-14.993-42.074-8.6776-5.0264c.5359-.85522 1.3273-1.2908 2.3695-1.2908h36.391.1254l-3.6695 6.3172zm-39.313 26.056 3.6079 2.0411v30.672.13461l-6.3263-3.6717v-24.489zm-32.035 20.703v5.6946l-5.0333 8.6936c-.8461-.55189-1.2748-1.3455-1.2748-2.3786v-29.994l6.3081 3.5805zm34.341-52.675c.8643.55189 1.3022 1.3455 1.3022 2.3786v29.994l-6.3263-3.5805v-20.099zm-31.563 5.9158-8.6753-5.0264c.5336-.85522 1.3182-1.2908 2.3695-1.2908h36.391.1253l-3.6717 6.3172zm23.759 55.231 8.6777 5.0241c-.5428.86434-1.3273 1.2931-2.3513 1.2931h-36.391-.1437l3.6718-6.3172zm-32.845-58.768v-.13461l6.3081 3.6717v24.489l-2.7185 4.6866-3.5896-2.0411zm-30.227 29.593 3.6079 2.0411v30.672.13461l-6.324-3.6717v-24.489zm-32.035 20.703v5.6946l-5.0333 8.6936c-.8461-.55189-1.2725-1.3455-1.2725-2.3786v-29.994l6.3058 3.5805zm34.343-52.675c.8643.55189 1.2999 1.3455 1.2999 2.3786v29.994l-6.324-3.5805v-20.099zm-31.563 5.9158-8.6776-5.0264c.5359-.85522 1.3182-1.2908 2.3695-1.2908h36.391.1254l-3.6695 6.3172zm23.759 55.231 8.6777 5.0241c-.5451.86434-1.3273 1.2931-2.3536 1.2931h-36.391-.1414l3.6694-6.3172zm-32.845-58.768v-.13461l6.3058 3.6717v24.489l-2.7162 4.6866-3.5896-2.0411zm-49.023 31.144-5.4346 3.1358h-7.8133l-1.5417-.89171 3.1176-5.3616h6.2374zm16.078-3.1176 1.569.88941-3.1175 5.3639h-6.2625l-5.4255-3.1358 5.4255-3.1176zm-29.326 22.27v5.6946l-5.0242 8.6936c-.846-.55189-1.2748-1.3455-1.2748-2.3786v-29.994l6.299 3.5805zm34.35-52.675c.8643.55189 1.2931 1.3455 1.2931 2.3786v29.994l-6.3172-3.5805v-20.099zm-31.57 5.9158-8.6776-5.0264c.5428-.85522 1.3273-1.2908 2.3786-1.2908h36.382.1346l-3.6717 6.3172zm25.184 44.3v9.5944h-1.7561l-7.0629-12.222-3.3958-12.623 5.0879 2.9032zm-34.264-47.838v-.13461l6.299 3.6717v24.489l-2.7094 4.6866-3.5896-2.0411zm-119.31 16.721v-11.823h6.2351v11.823l-3.1175 11.75zm6.2351 28.916v11.813h-6.2351v-11.813l3.1176-11.759zm-15.002-42.074-8.6777-5.0241c.536-.86435 1.3273-1.2999 2.3787-1.2999h36.384.1322l-3.6694 6.324zm-471.21 13.132v-11.823h6.2351v11.823l-3.1176 11.75zm6.2351 28.918v11.82h-6.2351v-11.82l3.1176-11.752zm-14.993-42.074-8.6776-5.0264c.53593-.85522 1.3205-1.2908 2.3695-1.2908h36.391.12538l-3.6695 6.3172zm23.759 55.231 8.6776 5.0241c-.54504.86434-1.3273 1.2931-2.3536 1.2931h-36.391-.14145l3.6694-6.3172zm123.84-27.625-5.4346 3.1358h-7.8042l-1.5508-.89171 3.1198-5.3616h6.2351zm16.08-3.1176 1.5668.88941-3.1176 5.3639h-6.2534l-5.4346-3.1358 5.4346-3.1176zm-29.319 22.27v5.6946l-5.0332 8.6936c-.8461-.55189-1.2726-1.3455-1.2726-2.3786v-29.994l6.3058 3.5805zm2.78-46.759-8.6776-5.0264c.53595-.85522 1.3273-1.2908 2.3695-1.2908h36.391.12537l-3.6694 6.3172zm-9.0858-3.5372v-.13461l6.3058 3.6717v24.489l-2.7162 4.6866-3.5896-2.0411zm-49.026 31.144-5.4324 3.1358h-7.8042l-1.5508-.89171 3.1176-5.3616h6.2374zm16.08-3.1176 1.5691.88941-3.1176 5.3639h-6.2556l-5.4324-3.1358 5.4324-3.1176zm-29.317 22.27v5.6946l-5.0332 8.6936c-.8461-.55189-1.2748-1.3455-1.2748-2.3786v-29.994l6.3081 3.5805zm2.78-46.759-8.6776-5.0264c.53366-.85522 1.3182-1.2908 2.3695-1.2908h36.391.12538l-3.6718 6.3172zm-9.0881-3.5372v-.13461l6.3081 3.6717v24.489l-2.7184 4.6866-3.5896-2.0411zm-119.32 16.721v-11.823h6.2351v11.823l-3.1176 11.75zm20.489 12.899 3.6079 2.032v30.681.12315l-6.324-3.6695v-24.48zm-14.254 16.017v11.813h-6.2351v-11.813l3.1175-11.759zm16.571-47.99c.85522.54506 1.2908 1.3456 1.2908 2.3718v30.003l-6.324-3.5896v-20.09zm-31.572 5.9158-8.6776-5.0241c.53593-.86435 1.3273-1.2999 2.3786-1.2999h36.382.12538l-3.6694 6.324zm23.759 55.224 8.6867 5.0332c-.54505.86434-1.3273 1.2931-2.3627 1.2931h-36.382-.15051l3.6694-6.3263zm454.84-44.319v-9.5967h1.756l7.0653 12.224 3.3935 12.623-5.088-2.9032zm30.674 15.125 3.6079 2.0411v30.672.13461l-6.3263-3.6717v-24.489zm-32.035 20.703v5.6946l-5.0242 8.6936c-.8552-.55189-1.2748-1.3455-1.2748-2.3786v-29.994l6.299 3.5805zm34.35-52.675c.8552.55189 1.2931 1.3455 1.2931 2.3786v29.994l-6.3263-3.5805v-20.099zm-6.3879 50.216v9.5944h-1.7629l-7.0652-12.222-3.3935-12.623 5.0971 2.9032zm-34.261-47.838v-.13461l6.299 3.6717v24.489l-2.7185 4.6866-3.5805-2.0411zm-49.032 31.144-5.4347 3.1358h-7.8041l-1.5485-.89171 3.1175-5.3616h6.2351zm16.08-3.1176 1.5758.88941-3.1266 5.3639h-6.2534l-5.4346-3.1358 5.4346-3.1176zm-29.319 22.27v5.6946l-5.0241 8.6936c-.8553-.55189-1.2726-1.3455-1.2726-2.3786v-29.994l6.2967 3.5805zm2.78-46.759-8.6776-5.0264c.5359-.85522 1.3273-1.2908 2.3786-1.2908h36.384.1231l-3.6694 6.3172zm23.759 55.231 8.6777 5.0241c-.536.86434-1.3182 1.2931-2.3513 1.2931h-36.384-.1505l3.6695-6.3172zm-32.836-58.768v-.13461l6.2967 3.6717v24.489l-2.7162 4.6866-3.5805-2.0411zm-49.033 31.144-5.4346 3.1358h-7.8042l-1.5508-.89171 3.1175-5.3616h6.2374zm16.078-3.1176 1.569.88941-3.1175 5.3639h-6.2534l-5.4346-3.1358 5.4346-3.1176zm-29.317 22.27v5.6946l-5.0241 8.6936c-.85522-.55189-1.2748-1.3455-1.2748-2.3786v-29.994l6.299 3.5805zm34.35-52.675c.8552.55189 1.2931 1.3455 1.2931 2.3786v29.994l-6.3263-3.5805v-20.099zm-31.57 5.9158-8.6776-5.0264c.53365-.85522 1.3273-1.2908 2.3786-1.2908h36.382.1254l-3.6718 6.3172zm25.184 44.3v9.5944h-1.7652l-7.063-12.222-3.3958-12.623 5.0971 2.9032zm-34.263-47.838v-.13461l6.299 3.6717v24.489l-2.7162 4.6866-3.5828-2.0411zm-49.033 31.144-5.4346 3.1358h-7.8019l-1.5508-.89171 3.1176-5.3616h6.2351zm16.08-3.1176 1.569.88941-3.1198 5.3639h-6.2534l-5.4346-3.1358 5.4346-3.1176zm-29.317 22.27v5.6946l-5.0332 8.6936c-.84837-.55189-1.2657-1.3455-1.2657-2.3786v-29.994l6.299 3.5805zm2.7778-46.759-8.6753-5.0264c.53366-.85522 1.3273-1.2908 2.3786-1.2908h36.382.12315l-3.6695 6.3172zm23.759 55.231 8.6776 5.0241c-.54277.86434-1.3273 1.2931-2.3513 1.2931h-36.382-.15274l3.6717-6.3172zm-32.836-58.768v-.13461l6.299 3.6717v24.489l-2.7184 4.6866-3.5805-2.0411zm-610.87-46.663v5.6923l-5.0332 8.6936c-.8461-.5519-1.2726-1.3433-1.2726-2.3786v-29.994l6.3058 3.5805zm2.78-46.761-8.6776-5.0241c.53595-.86434 1.3205-1.2931 2.3718-1.2931h36.391.12315l-3.6694 6.3172zm23.759 55.224 8.6776 5.0332c-.54279.86433-1.3273 1.2908-2.3513 1.2908h-36.391-.14368l3.6694-6.324zm-32.845-58.762v-.13221l6.3058 3.6694v24.489l-2.7162 4.6866-3.5896-2.0411zm350.52 14.468v-9.5944h1.7561l7.063 12.222 3.3935 12.623-5.0857-2.9032zm30.672 15.127 3.6079 2.0297v30.681.13461l-6.324-3.6786v-24.482zm-32.035 20.703v5.6923l-5.0241 8.6936c-.85522-.5519-1.2726-1.3433-1.2726-2.3786v-29.994l6.2967 3.5805zm34.352-52.677c.85522.55189 1.2908 1.3455 1.2908 2.3786v29.994l-6.324-3.5805v-20.096zm-6.3879 50.218v9.5853h-1.7629l-7.0652-12.215-3.3935-12.623 5.0948 2.9055zm-34.261-47.84v-.13221l6.2967 3.6694v24.489l-2.7162 4.6866-3.5805-2.0411zm-30.236 29.595 3.6079 2.0297v30.681.13461l-6.3263-3.6786v-24.482zm-32.035 20.703v5.6923l-5.0332 8.6936c-.84609-.5519-1.2748-1.3433-1.2748-2.3786v-29.994l6.3081 3.5805zm34.35-52.677c.85522.55189 1.2931 1.3455 1.2931 2.3786v29.994l-6.3263-3.5805v-20.096zm-31.57 5.9158-8.6776-5.0241c.53366-.86434 1.3273-1.2931 2.3695-1.2931h36.391.12537l-3.6717 6.3172zm23.759 55.224 8.6753 5.0332c-.53365.86433-1.3273 1.2908-2.3513 1.2908h-36.391-.14145l3.6694-6.324zm-32.847-58.762v-.13221l6.3081 3.6694v24.489l-2.7184 4.6866-3.5896-2.0411zm-60.908 14.468v-9.5944h1.7652l7.063 12.222 3.3958 12.623-5.0971-2.9032zm30.681 15.127 3.6079 2.0297v30.681.13461l-6.324-3.6786v-24.482zm-32.033 20.703v5.6923l-5.0355 8.6936c-.8461-.5519-1.2726-1.3433-1.2726-2.3786v-29.994l6.3081 3.5805zm19.134-33.203 7.0652-12.222h1.7538v9.5944l-7.1268 12.347-5.0857 2.9032zm-1.3638 28.516v11.813h-6.2351v-11.813l3.1176-11.75zm16.571-47.99c.86435.55189 1.2999 1.3455 1.2999 2.3786v29.994l-6.324-3.5805v-20.096zm-40.649 2.3786v-.13221l6.3081 3.6694v24.489l-2.7184 4.6866-3.5896-2.0411zm-60.908 14.468v-9.5944h1.7538l7.0652 12.222 3.3935 12.623-5.0857-2.9032zm30.672 15.127 3.6079 2.0297v30.681.13461l-6.3149-3.6786v-24.482zm-32.035 20.703v5.6923l-5.0241 8.6936c-.84608-.5519-1.2748-1.3433-1.2748-2.3786v-29.994l6.299 3.5805zm19.136-33.203 7.0721-12.222h1.7561v9.5944l-7.1268 12.347-5.0948 2.9032zm-1.3547 28.516v11.813h-6.2351v-11.813l3.1176-11.75zm16.571-47.99c.85522.55189 1.2908 1.3455 1.2908 2.3786v29.994l-6.3149-3.5805v-20.096zm-40.651 2.3786v-.13221l6.299 3.6694v24.489l-2.7162 4.6866-3.5828-2.0411zm-30.234 29.595 3.6079 2.0297v30.681.13461l-6.3263-3.6786v-24.482zm-32.035 20.703v5.6923l-5.0241 8.6936c-.85522-.5519-1.2748-1.3433-1.2748-2.3786v-29.994l6.299 3.5805zm34.35-52.677c.85522.55189 1.2931 1.3455 1.2931 2.3786v29.994l-6.3263-3.5805v-20.096zm-31.57 5.9158-8.6776-5.0241c.53366-.86434 1.3273-1.2931 2.3786-1.2931h36.382.12537l-3.6717 6.3172zm23.759 55.224 8.6753 5.0332c-.53365.86433-1.3182 1.2908-2.3513 1.2908h-36.382-.15274l3.6717-6.324zm-32.838-58.762v-.13221l6.299 3.6694v24.489l-2.7185 4.6866-3.5805-2.0411zm417.76 50.28v5.6832l-5.0332 8.6959c-.8461-.54506-1.2748-1.3364-1.2748-2.3695v-30.006l6.3081 3.5919zm2.78-46.761-8.6776-5.0332c.53366-.85522 1.3182-1.2908 2.3695-1.2908h36.391.12538l-3.6718 6.3241zm23.757 55.224 8.6776 5.0241c-.54277.86434-1.3273 1.2999-2.3513 1.2999h-36.391-.14368l3.6717-6.3241zm-32.845-58.771v-.12316l6.3081 3.6695v24.48l-2.7184 4.6866-3.5896-2.0297zm225.25 31.146-5.4346 3.1449h-7.8042l-1.5508-.8917 3.1175-5.373h6.2374zm16.078-3.1198 1.569.8917-3.1175 5.373h-6.2534l-5.4346-3.1449 5.4346-3.1198zm-29.317 22.281v5.6832l-5.0241 8.6959c-.85522-.54506-1.2748-1.3364-1.2748-2.3695v-30.006l6.299 3.5919zm2.78-46.761-8.6776-5.0332c.53365-.85522 1.3273-1.2908 2.3786-1.2908h36.382.1254l-3.6718 6.3241zm23.759 55.224 8.6754 5.0241c-.5337.86434-1.3273 1.2999-2.3513 1.2999h-36.382-.15052l3.6694-6.3241zm-32.838-58.771v-.12316l6.299 3.6695v24.48l-2.7162 4.6866-3.5828-2.0297zm-50.734 16.696v-11.813h6.2442v11.813l-3.1176 11.759zm20.498 12.899 3.6079 2.0411v30.681.12315l-6.3241-3.6695v-24.48zm-14.254 16.017v11.823h-6.2442v-11.823l3.1267-11.75zm16.571-47.99c.85522.55418 1.2908 1.3547 1.2908 2.3786v30.006l-6.3241-3.5919v-20.087zm-31.572 5.925-8.6753-5.0332c.53366-.85522 1.3273-1.2908 2.3786-1.2908h36.382.12315l-3.6695 6.3241zm23.759 55.224 8.6776 5.0241c-.54277.86434-1.3273 1.2999-2.3513 1.2999h-36.382-.15274l3.6717-6.3241zm-63.072-29.175 3.6079 2.0411v30.681.12315l-6.324-3.6695v-24.48zm-32.035 20.712v5.6832l-5.0332 8.6959c-.8461-.54506-1.2726-1.3364-1.2726-2.3695v-30.006l6.3058 3.5919zm34.343-52.686c.86434.55418 1.2999 1.3547 1.2999 2.3786v30.006l-6.324-3.5919v-20.087zm-31.563 5.925-8.6776-5.0332c.53595-.85522 1.3273-1.2908 2.3695-1.2908h36.391.12537l-3.6694 6.3241zm23.759 55.224 8.6776 5.0241c-.54507.86434-1.3273 1.2999-2.3536 1.2999h-36.391-.14146l3.6694-6.3241zm-32.845-58.771v-.12316l6.3058 3.6695v24.48l-2.7162 4.6866-3.5896-2.0297zm281.94 14.468v-9.5853h1.756l7.0653 12.222 3.3935 12.625-5.088-2.9146zm8.8213 30.745-7.0653 12.222h-1.756v-9.5944l7.1268-12.347 5.088-2.9055zm-59.617-28.108 7.0652-12.222h1.7629v9.5853l-7.1268 12.347-5.0949 2.9146zm8.8281 30.735v9.5944h-1.7629l-7.0652-12.222-3.3936-12.625 5.0949 2.9055z"/>
  <use href="#subtitle" filter="url(#filter58)"/>
  <path fill="#00feb5" id="title" d="m1091.4 394.37-21.727 12.498h-31.208l-6.2442-3.544 12.482-21.444h24.97zm64.347-12.491 6.2374 3.5463-12.5 21.442h-24.97l-21.718-12.498 21.718-12.491zm-386.14-54.278v-38.273h7.047l28.238 48.855 13.579 50.485-20.366-11.67zm122.71 60.531 14.388 8.1531v122.67.54277l-25.246-14.655v-97.976zm-128.15 82.769v22.806l-20.09 34.745c-3.4368-2.1643-5.1564-5.3274-5.1564-9.4963v-119.96l25.246 14.388zm137.38-210.61c3.4391 2.1643 5.1587 5.3366 5.1587 9.5055v119.95l-25.246-14.379v-80.329zm-25.522 200.86v38.27h-7.0652l-28.24-48.852-13.558-50.485 20.347 11.661zm-137.1-191.35v-.55189l25.246 14.662v97.976l-10.86 18.726-14.386-8.1417zm901.04 124.58-21.727 12.498h-31.205l-6.2374-3.544 12.472-21.444h24.97zm64.347-12.491 6.2374 3.5463-12.491 21.442h-24.979l-21.718-12.498 21.718-12.491zm-117.28 89.023v22.806l-20.099 34.745c-3.43-2.1643-5.1496-5.3274-5.1496-9.4963v-119.96l25.248 14.388zm137.38-210.61c3.4301 2.1643 5.1496 5.3366 5.1496 9.5055v119.95l-25.248-14.379v-80.329zm-126.26 23.615-34.736-20.087c2.1643-3.4391 5.3274-5.1587 9.4872-5.1587h145.52.552l-14.664 25.246zm95.025 220.94 34.754 20.09c-2.1825 3.4391-5.3458 5.1587-9.5056 5.1587h-145.52-.5336l14.664-25.248zm-327.49-110.47-21.727 12.498h-31.208l-6.2442-3.544 12.479-21.444h24.972zm64.347-12.491 6.2351 3.5463-12.498 21.442h-24.972l-21.718-12.498 21.718-12.491zm-117.28 89.023v22.806l-20.096 34.745c-3.4391-2.1643-5.1495-5.3274-5.1495-9.4963v-119.96l25.246 14.388zm137.37-210.61c3.4391 2.1643 5.1586 5.3366 5.1586 9.5055v119.95l-25.246-14.379v-80.329zm-126.25 23.615-34.733-20.087c2.1643-3.4391 5.3252-5.1587 9.4872-5.1587h145.52.552l-14.662 25.246zm95.027 220.94 34.752 20.09c-2.1825 3.4391-5.3434 5.1587-9.5055 5.1587h-145.52-.5359l14.664-25.248zm-876.07-110.47-21.718 12.498h-31.214l-6.2374-3.544 12.482-21.444h24.97zm64.356-12.491 6.2374 3.5463-12.5 21.442h-24.97l-21.727-12.498 21.727-12.491zm-117.29 89.023v22.806l-20.09 34.745c-3.4391-2.1643-5.1587-5.3274-5.1587-9.4963v-119.96l25.248 14.388zm137.38-210.61c3.4391 2.1643 5.1587 5.3366 5.1587 9.5055v119.95l-25.248-14.379v-80.329zm-126.26 23.615-34.724-20.087c2.1643-3.4391 5.3183-5.1587 9.4781-5.1587h145.52.55189l-14.655 25.246zm-36.364-14.11v-.55189l25.248 14.662v97.976l-10.86 18.726-14.388-8.1417zm-131.75 112.09 6.2351 3.5463-12.498 21.442h-24.972l-21.727-12.498 21.727-12.491zm10.858 6.2534 14.388 8.1531v122.67.54277l-25.246-14.655v-97.976zm-128.15 82.769v22.806l-20.09 34.745c-3.4368-2.1643-5.1564-5.3274-5.1564-9.4963v-119.96l25.246 14.388zm11.118-187-34.726-20.087c2.1574-3.4391 5.3183-5.1587 9.4804-5.1587h145.52.55191l-14.653 25.246zm95.027 220.94 34.752 20.09c-2.1734 3.4391-5.3457 5.1587-9.5055 5.1587h-145.52-.52681l14.655-25.248zm-131.39-235.05v-.55189l25.246 14.662v97.976l-10.86 18.726-14.386-8.1417z"/>
  <use href="#title" filter="url(#filter57)"/>
</svg>
