<svg version="1.1" viewBox="0 0 3840 2160" xmlns="http://www.w3.org/2000/svg" xmlns:xlink="http://www.w3.org/1999/xlink">
    <image width="3840" height="2160" preserveAspectRatio="none" xlink:href="background.jpeg"/>
    <path fill="#404040" style="mix-blend-mode:luminosity" d="m215.1 1230c6.252 0 11.54-1.943 15.86-5.85 4.319-3.926 6.478-8.893 6.478-14.92h24.85l.196.6674c.3141 11.45-4.221 21.3-13.58 29.56-9.374 8.274-20.64 12.41-33.8 12.41-17.62 0-31.2-5.811-40.75-17.43-9.56-11.62-14.33-26.28-14.33-43.97v-3.926c0-17.61 4.77-32.24 14.33-43.9 9.551-11.67 23.1-17.51 40.64-17.51 14.21 0 25.76 4.27 34.63 12.8 8.893 8.54 13.19 19.39 12.88 32.55l-.196.7068h-24.85c0-6.694-2.071-12.38-6.204-17.04-4.142-4.682-9.56-7.028-16.25-7.028-9.796 0-16.83 3.789-21.12 11.35-4.27 7.568-6.4 16.92-6.4 28.07v3.926c0 11.37 2.12 20.8 6.36 28.31 4.24 7.489 11.33 11.23 21.28 11.23zm97.52-86.81c4.054-5.732 9.001-10.17 14.84-13.31 5.83-3.161 12.29-4.751 19.36-4.751 12.96 0 23.06 4.083 30.31 12.25 7.274 8.167 10.92 20.75 10.92 37.73v74.4h-27.44v-74.6c0-9.58-1.875-16.53-5.615-20.85-3.72-4.319-9.256-6.478-16.61-6.478-5.889 0-10.98 1.04-15.27 3.102-4.27 2.071-7.764 4.947-10.48 8.638v90.19h-27.44v-176.1h27.44zm103.8 39.5c0-29.65 5.89-54.89 17.67-75.7 11.78-20.81 24.51-34.4 38.2-40.79l.6674.1178 5.104 15.12c-10.08 7.676-18.72 19.97-25.91 36.91-7.205 16.94-10.8 38.31-10.8 64.12v2.277c0 25.82 3.573 47.18 10.72 64.12 7.166 16.93 15.83 29.5 25.99 37.69l-5.104 14.45h-.6674c-13.77-6.468-26.53-20.09-38.28-40.87-11.73-20.75-17.59-45.96-17.59-75.62zm130.2 69.18c-17.85 0-31.8-5.614-41.85-16.84-10.03-11.25-15.04-25.84-15.04-43.78v-4.515c0-17.9 5.006-32.67 15.04-44.29 10.05-11.62 23.02-17.39 38.91-17.31 16.41 0 28.83 5.065 37.26 15.19 8.422 10.11 12.64 23.63 12.64 40.56v14.8h-75.54l-.196.5497c.2847 10 2.915 18.13 7.892 24.38 4.967 6.262 12.46 9.384 22.46 9.384 7.46 0 13.91-.9031 19.36-2.709 5.438-1.806 10.5-4.407 15.19-7.813l8.913 17.94c-4.663 4.083-10.84 7.519-18.53 10.29-7.676 2.768-16.51 4.162-26.5 4.162zm-2.945-104.8c-7.146 0-12.87 2.582-17.16 7.735-4.299 5.163-6.969 11.88-8.01 20.14l.2362.5889h47.74v-2.16c0-7.823-1.835-14.15-5.497-19-3.642-4.869-9.413-7.303-17.31-7.303zm145.6 102.4c-1.001-3.082-1.826-6.096-2.474-9.03-.6282-2.925-1.05-5.86-1.256-8.795-3.691 5.713-8.628 10.5-14.8 14.37-6.184 3.867-13.06 5.811-20.65 5.811-12.72 0-22.49-3.268-29.29-9.816-6.812-6.537-10.21-15.53-10.21-26.97 0-11.8 4.652-20.99 13.98-27.56 9.344-6.596 22.48-9.894 39.42-9.894h21.32v-10.76c0-6.38-1.875-11.39-5.614-15-3.72-3.612-9.109-5.418-16.18-5.418-6.262 0-11.23 1.492-14.92 4.476-3.671 2.964-5.497 6.812-5.497 11.54l-26.42.1179-.1181-.6675c-.53-9.629 3.779-18.16 12.92-25.6 9.158-7.46 21.06-11.19 35.73-11.19 14.23 0 25.72 3.612 34.43 10.84 8.736 7.224 13.11 17.61 13.11 31.14v54.3c0 5.055.3242 9.894.9818 14.53.6772 4.613 1.777 9.138 3.298 13.58zm-33.53-19.63c6.832 0 13.01-1.728 18.53-5.183 5.546-3.475 9.227-7.43 11.03-11.86v-18.06h-21.79c-7.99 0-14.24 1.983-18.77 5.929-4.505 3.926-6.753 8.579-6.753 13.94 0 4.662 1.512 8.363 4.554 11.11 3.063 2.748 7.46 4.122 13.19 4.122zm111.4 50.1h-24.15v-194.8h24.15zm61.09-30.47h-27.44v-122.1h27.44zm0-152.1h-27.44v-24.03h27.44zm80.65 87.05c0 29.27-6.007 54.4-18.02 75.38-11.99 21.02-24.88 34.72-38.67 41.11h-.6674l-5.183-14.45c9.992-7.676 18.61-20.08 25.83-37.22 7.224-17.17 10.84-38.69 10.84-64.59v-2.277c0-25.57-3.71-46.96-11.11-64.16-7.411-17.2-15.93-29.7-25.56-37.53l5.183-14.57h.6674c13.71 6.311 26.59 20 38.63 41.07 12.03 21.07 18.06 46.21 18.06 75.42zm135.8 8.01c0 17.78-4.191 32.12-12.56 43.03-8.353 10.9-19.97 16.33-34.87 16.33-6.91 0-13.05-1.237-18.41-3.691-5.34-2.483-9.924-6.135-13.74-10.95v59.25h-27.44v-169.1h23.13l2.709 15.35c3.926-5.703 8.648-10.06 14.17-13.07 5.546-3.004 11.96-4.515 19.24-4.515 15.05 0 26.78 5.968 35.18 17.9 8.402 11.92 12.6 27.62 12.6 47.12zm-27.33-2.356c0-12.51-2.356-22.73-7.067-30.66-4.712-7.931-11.73-11.9-21.04-11.9-5.733 0-10.59 1.237-14.57 3.691-3.985 2.434-7.175 5.83-9.58 10.17v55.2c2.405 4.299 5.595 7.597 9.58 9.894 3.976 2.307 8.913 3.455 14.8 3.455 9.315 0 16.29-3.436 20.93-10.33 4.633-6.91 6.949-15.96 6.949-27.17zm182.3 59.36c-1.001-3.082-1.826-6.096-2.474-9.03-.6283-2.925-1.05-5.86-1.256-8.795-3.691 5.713-8.628 10.5-14.8 14.37-6.184 3.867-13.06 5.811-20.65 5.811-12.72 0-22.49-3.268-29.29-9.816-6.812-6.537-10.21-15.53-10.21-26.97 0-11.8 4.653-20.99 13.98-27.56 9.344-6.596 22.48-9.894 39.42-9.894h21.32v-10.76c0-6.38-1.875-11.39-5.615-15-3.72-3.612-9.109-5.418-16.18-5.418-6.262 0-11.23 1.492-14.92 4.476-3.671 2.964-5.497 6.812-5.497 11.54l-26.42.1179-.1181-.6675c-.5302-9.629 3.779-18.16 12.92-25.6 9.158-7.46 21.06-11.19 35.73-11.19 14.23 0 25.72 3.612 34.43 10.84 8.736 7.224 13.11 17.61 13.11 31.14v54.3c0 5.055.3238 9.894.9815 14.53.6775 4.613 1.777 9.138 3.298 13.58zm-33.53-19.63c6.832 0 13.01-1.728 18.53-5.183 5.546-3.475 9.227-7.43 11.03-11.86v-18.06h-21.79c-7.99 0-14.24 1.983-18.77 5.929-4.505 3.926-6.753 8.579-6.753 13.94 0 4.662 1.512 8.363 4.554 11.11 3.063 2.748 7.46 4.122 13.19 4.122zm114.7 19.63h-27.44v-176.1h27.44zm65.73-151.8v29.68h21.91v20.34h-21.91v67.49c0 5.055 1.08 8.658 3.259 10.8 2.199 2.12 5.104 3.18 8.716 3.18 1.492 0 2.954-.1277 4.397-.3926 1.433-.2552 2.797-.6086 4.083-1.06l2.905 20.1c-2.336 1.286-5.094 2.277-8.284 2.984-3.2.7068-6.518 1.06-9.973 1.06-10.11 0-18.04-2.945-23.79-8.834-5.762-5.909-8.638-15.19-8.638-27.84v-67.49h-18.61v-20.34h18.61v-29.68zm95.79 154.2c-17.85 0-31.8-5.614-41.85-16.84-10.03-11.25-15.04-25.84-15.04-43.78v-4.515c0-17.9 5.006-32.67 15.04-44.29 10.05-11.62 23.02-17.39 38.91-17.31 16.41 0 28.83 5.065 37.26 15.19 8.422 10.11 12.64 23.63 12.64 40.56v14.8h-75.54l-.196.5497c.2846 10 2.915 18.13 7.892 24.38 4.966 6.262 12.46 9.384 22.46 9.384 7.46 0 13.91-.9031 19.36-2.709 5.438-1.806 10.5-4.407 15.19-7.813l8.913 17.94c-4.662 4.083-10.84 7.519-18.53 10.29-7.676 2.768-16.51 4.162-26.5 4.162zm-2.945-104.8c-7.146 0-12.87 2.582-17.16 7.735-4.299 5.163-6.969 11.88-8.01 20.14l.2362.5889h47.74v-2.16c0-7.823-1.835-14.15-5.497-19-3.642-4.869-9.413-7.303-17.31-7.303zm132.9 4.986-11.74-.4711c-5.34 0-9.806 1.139-13.39 3.416-3.592 2.258-6.351 5.448-8.284 9.58v84.89h-27.44v-122.1h25.05l1.806 17.75c3.082-6.253 7.048-11.15 11.9-14.68 4.868-3.534 10.46-5.3 16.8-5.3 1.649 0 3.18.1375 4.594.3926 1.433.2651 2.758.5792 3.966.9423zm45.14-24.74 1.57 17.63c3.975-6.253 8.991-11.12 15.04-14.61 6.066-3.504 12.9-5.261 20.49-5.261 12.72 0 22.63 3.916 29.76 11.74 7.116 7.833 10.68 20.05 10.68 36.67v75.97h-27.44v-75.74c0-9.472-1.845-16.2-5.536-20.18-3.691-4.005-9.256-6.007-16.69-6.007-5.889 0-10.98 1.119-15.27 3.337-4.27 2.199-7.686 5.261-10.25 9.188v89.4h-27.44v-122.1zm179.6 122.1c-1.001-3.082-1.826-6.096-2.473-9.03-.6281-2.925-1.05-5.86-1.256-8.795-3.691 5.713-8.628 10.5-14.8 14.37-6.184 3.867-13.06 5.811-20.65 5.811-12.72 0-22.49-3.268-29.29-9.816-6.812-6.537-10.21-15.53-10.21-26.97 0-11.8 4.653-20.99 13.98-27.56 9.345-6.596 22.48-9.894 39.42-9.894h21.32v-10.76c0-6.38-1.875-11.39-5.615-15-3.72-3.612-9.109-5.418-16.18-5.418-6.262 0-11.23 1.492-14.92 4.476-3.671 2.964-5.497 6.812-5.497 11.54l-26.42.1179-.1181-.6675c-.5302-9.629 3.779-18.16 12.92-25.6 9.158-7.46 21.06-11.19 35.73-11.19 14.23 0 25.72 3.612 34.43 10.84 8.736 7.224 13.11 17.61 13.11 31.14v54.3c0 5.055.3241 9.894.9814 14.53.6775 4.613 1.777 9.138 3.298 13.58zm-33.53-19.63c6.832 0 13.01-1.728 18.53-5.183 5.546-3.475 9.227-7.43 11.03-11.86v-18.06h-21.79c-7.99 0-14.24 1.983-18.77 5.929-4.506 3.926-6.753 8.579-6.753 13.94 0 4.662 1.512 8.363 4.554 11.11 3.062 2.748 7.46 4.122 13.19 4.122zm120.5-132.2v29.68h21.91v20.34h-21.91v67.49c0 5.055 1.08 8.658 3.259 10.8 2.199 2.12 5.104 3.18 8.716 3.18 1.492 0 2.955-.1277 4.397-.3926 1.433-.2552 2.797-.6086 4.083-1.06l2.905 20.1c-2.336 1.286-5.094 2.277-8.284 2.984-3.2.7068-6.518 1.06-9.973 1.06-10.11 0-18.04-2.945-23.79-8.834-5.762-5.909-8.638-15.19-8.638-27.84v-67.49h-18.61v-20.34h18.61v-29.68zm73.22 151.8h-27.44v-122.1h27.44zm0-152.1h-27.44v-24.03h27.44zm73.07 110.8 2.042 9.933h.6674l2.16-9.933 24.26-80.84h28.31l-43.35 122.1h-23.79l-43.58-122.1h28.35zm125 43.66c-17.85 0-31.8-5.614-41.85-16.84-10.03-11.25-15.04-25.84-15.04-43.78v-4.515c0-17.9 5.006-32.67 15.04-44.29 10.05-11.62 23.02-17.39 38.91-17.31 16.41 0 28.83 5.065 37.26 15.19 8.422 10.11 12.64 23.63 12.64 40.56v14.8h-75.54l-.1961.5497c.285 10 2.916 18.13 7.892 24.38 4.966 6.262 12.46 9.384 22.46 9.384 7.46 0 13.91-.9031 19.36-2.709 5.438-1.806 10.5-4.407 15.19-7.813l8.912 17.94c-4.662 4.083-10.84 7.519-18.53 10.29-7.676 2.768-16.51 4.162-26.5 4.162zm-2.945-104.8c-7.146 0-12.87 2.582-17.16 7.735-4.299 5.163-6.969 11.88-8.01 20.14l.2363.5889h47.74v-2.16c0-7.823-1.836-14.15-5.497-19-3.642-4.869-9.413-7.303-17.31-7.303zm140.6 68.98c0-4.211-1.796-7.695-5.379-10.44-3.563-2.748-10.32-5.202-20.26-7.381-14.37-2.925-25.35-7.244-32.94-12.96-7.597-5.732-11.39-13.41-11.39-23.05 0-10.23 4.319-18.97 12.96-26.23 8.658-7.273 20.06-10.92 34.2-10.92 14.61 0 26.36 3.75 35.26 11.23 8.922 7.489 13.2 16.49 12.84 27.01l-.2361.7069h-26.31c0-4.967-1.963-9.276-5.89-12.92-3.907-3.661-9.129-5.497-15.67-5.497-6.626 0-11.66 1.512-15.12 4.515-3.455 3.013-5.183 6.704-5.183 11.07 0 4.142 1.61 7.45 4.829 9.934 3.239 2.493 9.904 4.702 19.98 6.635 14.97 3.014 26.25 7.44 33.84 13.27 7.617 5.84 11.43 13.65 11.43 23.44 0 10.97-4.544 19.94-13.62 26.89-9.06 6.969-21 10.44-35.81 10.44-15.89 0-28.43-4.054-37.61-12.17-9.168-8.137-13.53-17.47-13.07-27.99l.2361-.6675h25.52c.2847 7.067 2.837 12.23 7.656 15.47 4.809 3.22 10.69 4.829 17.63 4.829 6.989 0 12.42-1.384 16.29-4.162 3.867-2.797 5.811-6.488 5.811-11.07zm-1724-349.4c-14.59 20.64-37.87 39.05-69.83 55.22-31.97 16.19-73.24 24.26-123.8 24.26-62.73 0-114.3-20.22-154.8-60.69-40.46-40.5-60.69-92.83-60.69-157v-110.9c0-64.13 19.56-116.4 58.69-156.9 39.16-40.5 89.52-60.75 151-60.75 61.73 0 109.9 15.56 144.4 46.66 34.53 31.12 51.31 71.69 50.33 121.8l-1.094 2.188h-84.18c0-29.86-9.316-53.9-27.93-72.14-18.58-18.23-45.27-27.35-80.06-27.35-36.68 0-66.29 13.74-88.81 41.19-22.49 27.46-33.72 62.35-33.72 104.6v111.6c0 42.78 11.73 77.98 35.2 105.6 23.46 27.59 54.03 41.38 91.71 41.38 28.45 0 50.92-3.218 67.45-9.654 16.56-6.468 29.09-14.32 37.58-23.55v-109.8h-111.2v-66.35h199.8zm196.3-129.5v201.3h-88.62v-530.9h203.5c58.6 0 104.5 15.16 137.7 45.44 33.16 30.25 49.75 70.05 49.75 119.4 0 49.81-16.59 89.75-49.75 119.8-33.18 30.04-79.06 45.05-137.7 45.05zm0-71.11h114.9c32.82 0 57.49-8.752 74.01-26.26 16.56-17.51 24.84-39.74 24.84-66.74 0-26.98-8.286-49.46-24.84-67.45-16.52-17.97-41.19-26.97-74.01-26.97h-114.9zm801 272.4h-88.62l-235.2-382.5-2.188.7079v381.8h-88.62v-530.9h88.62l235.2 382.5 2.188-.7723v-381.8h88.62zm446.7 0h-342.4v-60.88l166-191.8c26.98-31.82 45.69-58.08 56.12-78.77 10.46-20.67 15.7-40.48 15.7-59.4 0-22.61-6.339-41.01-18.99-55.22-12.61-14.24-30.73-21.37-54.32-21.37-27.46 0-48.49 8.881-63.07 26.64-14.59 17.73-21.88 40.08-21.88 67.06h-85.72l-.708-2.188c-1.255-45.47 13.74-83.94 44.99-115.4 31.28-31.49 73.4-47.24 126.4-47.24 50.79 0 90.49 13.63 119.1 40.87 28.57 27.21 42.86 62.92 42.86 107.2 0 29.91-7.964 57.99-23.88 84.24-15.93 26.26-42.12 61.4-78.58 105.4l-112 128.3.7078 1.866h229.8zm306.8 0h-88.62v-449.3h-112.7v-70.41l201.3-18.92z"/>
</svg>
